<svg xmlns="http://www.w3.org/2000/svg" xmlns:xlink="http://www.w3.org/1999/xlink" version="1.2" width="594.00mm" height="420.00mm" viewBox="0.0000 -0.0000 355.8092 251.5823">
<style type="text/css">
<![CDATA[
tspan { white-space: pre; }
]]>
</style>
<g transform="translate(17.9702, 56.2241)">
<line stroke-linejoin="round" stroke-linecap="round" stroke-width="0.0944" stroke="currentColor" x1="0.0472" y1="0" x2="284.3104" y2="0"/>
</g>
<g transform="translate(17.9702, 55.4873)">
<line stroke-linejoin="round" stroke-linecap="round" stroke-width="0.0944" stroke="currentColor" x1="0.0472" y1="0" x2="284.3104" y2="0"/>
</g>
<g transform="translate(17.9702, 54.7504)">
<line stroke-linejoin="round" stroke-linecap="round" stroke-width="0.0944" stroke="currentColor" x1="0.0472" y1="0" x2="284.3104" y2="0"/>
</g>
<g transform="translate(17.9702, 54.0136)">
<line stroke-linejoin="round" stroke-linecap="round" stroke-width="0.0944" stroke="currentColor" x1="0.0472" y1="0" x2="284.3104" y2="0"/>
</g>
<g transform="translate(17.9702, 53.2768)">
<line stroke-linejoin="round" stroke-linecap="round" stroke-width="0.0944" stroke="currentColor" x1="0.0472" y1="0" x2="284.3104" y2="0"/>
</g>
<g transform="translate(259.4304, 54.7504)">
<rect x="0.0000" y="-1.4737" width="0.1794" height="2.9474" ry="0.0000" fill="currentColor"/>
</g>
<g transform="translate(302.1483, 54.7504)">
<rect x="0.0000" y="-1.4737" width="0.1794" height="2.9474" ry="0.0000" fill="currentColor"/>
</g>
<g transform="translate(227.4407, 54.7504)">
<rect x="0.0000" y="-1.4737" width="0.1794" height="2.9474" ry="0.0000" fill="currentColor"/>
</g>
<g transform="translate(121.7971, 54.7504)">
<rect x="0.0000" y="-1.4737" width="0.1794" height="2.9474" ry="0.0000" fill="currentColor"/>
</g>
<g transform="translate(87.4996, 54.7504)">
<rect x="0.0000" y="-1.4737" width="0.1794" height="2.9474" ry="0.0000" fill="currentColor"/>
</g>
<g transform="translate(163.7113, 54.7504)">
<rect x="0.0000" y="-1.4737" width="0.1794" height="2.9474" ry="0.0000" fill="currentColor"/>
</g>
<g transform="translate(195.7010, 54.7504)">
<rect x="0.0000" y="-1.4737" width="0.1794" height="2.9474" ry="0.0000" fill="currentColor"/>
</g>
<g transform="translate(55.1644, 54.7504)">
<rect x="0.0000" y="-1.4737" width="0.1794" height="2.9474" ry="0.0000" fill="currentColor"/>
</g>
<g transform="translate(17.9702, 56.9610)">
<rect x="274.4501" y="-0.0841" width="1.4347" height="0.1681" ry="0.0841" fill="currentColor"/>
</g>
<g transform="translate(17.9702, 56.9610)">
<rect x="272.6436" y="-0.0841" width="1.4347" height="0.1681" ry="0.0841" fill="currentColor"/>
</g>
<g transform="translate(17.9702, 56.9610)">
<rect x="271.0871" y="-0.0841" width="1.4347" height="0.1681" ry="0.0841" fill="currentColor"/>
</g>
<g transform="translate(17.9702, 57.6978)">
<rect x="271.0871" y="-0.0841" width="1.4347" height="0.1681" ry="0.0841" fill="currentColor"/>
</g>
<g transform="translate(17.9702, 56.9610)">
<rect x="269.5874" y="-0.0841" width="1.3779" height="0.1681" ry="0.0841" fill="currentColor"/>
</g>
<g transform="translate(17.9702, 56.9610)">
<rect x="267.1824" y="-0.0841" width="1.3706" height="0.1681" ry="0.0841" fill="currentColor"/>
</g>
<g transform="translate(17.9702, 52.5399)">
<rect x="246.4632" y="-0.0841" width="1.3956" height="0.1681" ry="0.0841" fill="currentColor"/>
</g>
<g transform="translate(17.9702, 52.5399)">
<rect x="244.9676" y="-0.0841" width="1.3956" height="0.1681" ry="0.0841" fill="currentColor"/>
</g>
<g transform="translate(17.9702, 56.9610)">
<rect x="221.7998" y="-0.0841" width="1.4347" height="0.1681" ry="0.0841" fill="currentColor"/>
</g>
<g transform="translate(17.9702, 56.9610)">
<rect x="214.0238" y="-0.0841" width="1.4347" height="0.1681" ry="0.0841" fill="currentColor"/>
</g>
<g transform="translate(17.9702, 56.9610)">
<rect x="212.2173" y="-0.0841" width="1.4347" height="0.1681" ry="0.0841" fill="currentColor"/>
</g>
<g transform="translate(17.9702, 52.5399)">
<rect x="207.6749" y="-0.0841" width="1.4347" height="0.1681" ry="0.0841" fill="currentColor"/>
</g>
<g transform="translate(17.9702, 56.9610)">
<rect x="189.8101" y="-0.0841" width="1.4347" height="0.1681" ry="0.0841" fill="currentColor"/>
</g>
<g transform="translate(17.9702, 56.9610)">
<rect x="180.4776" y="-0.0841" width="1.4347" height="0.1681" ry="0.0841" fill="currentColor"/>
</g>
<g transform="translate(17.9702, 52.5399)">
<rect x="175.9352" y="-0.0841" width="1.4347" height="0.1681" ry="0.0841" fill="currentColor"/>
</g>
<g transform="translate(17.9702, 52.5399)">
<rect x="174.1287" y="-0.0841" width="1.4347" height="0.1681" ry="0.0841" fill="currentColor"/>
</g>
<g transform="translate(17.9702, 56.9610)">
<rect x="131.5375" y="-0.0841" width="1.4347" height="0.1681" ry="0.0841" fill="currentColor"/>
</g>
<g transform="translate(17.9702, 56.9610)">
<rect x="112.8596" y="-0.0841" width="1.4347" height="0.1681" ry="0.0841" fill="currentColor"/>
</g>
<g transform="translate(17.9702, 56.9610)">
<rect x="111.0531" y="-0.0841" width="1.4347" height="0.1681" ry="0.0841" fill="currentColor"/>
</g>
<g transform="translate(17.9702, 56.9610)">
<rect x="109.4966" y="-0.0841" width="1.4347" height="0.1681" ry="0.0841" fill="currentColor"/>
</g>
<g transform="translate(17.9702, 57.6978)">
<rect x="109.4966" y="-0.0841" width="1.4347" height="0.1681" ry="0.0841" fill="currentColor"/>
</g>
<g transform="translate(17.9702, 56.9610)">
<rect x="107.9970" y="-0.0841" width="1.3779" height="0.1681" ry="0.0841" fill="currentColor"/>
</g>
<g transform="translate(17.9702, 56.9610)">
<rect x="105.5919" y="-0.0841" width="1.3706" height="0.1681" ry="0.0841" fill="currentColor"/>
</g>
<g transform="translate(17.9702, 56.9610)">
<rect x="90.7366" y="-0.0841" width="1.4347" height="0.1681" ry="0.0841" fill="currentColor"/>
</g>
<g transform="translate(17.9702, 57.6978)">
<rect x="90.7366" y="-0.0841" width="1.4347" height="0.1681" ry="0.0841" fill="currentColor"/>
</g>
<g transform="translate(17.9702, 56.9610)">
<rect x="88.5801" y="-0.0841" width="1.4347" height="0.1681" ry="0.0841" fill="currentColor"/>
</g>
<g transform="translate(17.9702, 57.6978)">
<rect x="88.5801" y="-0.0841" width="1.4347" height="0.1681" ry="0.0841" fill="currentColor"/>
</g>
<g transform="translate(17.9702, 56.9610)">
<rect x="86.4627" y="-0.0841" width="1.3956" height="0.1681" ry="0.0841" fill="currentColor"/>
</g>
<g transform="translate(17.9702, 56.9610)">
<rect x="84.9671" y="-0.0841" width="1.3956" height="0.1681" ry="0.0841" fill="currentColor"/>
</g>
<g transform="translate(17.9702, 56.9610)">
<rect x="81.0042" y="-0.0841" width="1.4347" height="0.1681" ry="0.0841" fill="currentColor"/>
</g>
<g transform="translate(17.9702, 56.9610)">
<rect x="79.0977" y="-0.0841" width="1.4347" height="0.1681" ry="0.0841" fill="currentColor"/>
</g>
<g transform="translate(17.9702, 56.9610)">
<rect x="70.3697" y="-0.0841" width="1.4347" height="0.1681" ry="0.0841" fill="currentColor"/>
</g>
<g transform="translate(17.9702, 56.9610)">
<rect x="56.2429" y="-0.0841" width="1.4347" height="0.1681" ry="0.0841" fill="currentColor"/>
</g>
<g transform="translate(17.9702, 57.6978)">
<rect x="56.2429" y="-0.0841" width="1.4347" height="0.1681" ry="0.0841" fill="currentColor"/>
</g>
<g transform="translate(17.9702, 56.9610)">
<rect x="54.0864" y="-0.0841" width="1.4347" height="0.1681" ry="0.0841" fill="currentColor"/>
</g>
<g transform="translate(17.9702, 57.6978)">
<rect x="54.0864" y="-0.0841" width="1.4347" height="0.1681" ry="0.0841" fill="currentColor"/>
</g>
<g transform="translate(17.9702, 56.9610)">
<rect x="51.9299" y="-0.0841" width="1.4347" height="0.1681" ry="0.0841" fill="currentColor"/>
</g>
<g transform="translate(17.9702, 57.6978)">
<rect x="51.9299" y="-0.0841" width="1.4347" height="0.1681" ry="0.0841" fill="currentColor"/>
</g>
<g transform="translate(17.9702, 56.9610)">
<rect x="49.7735" y="-0.0841" width="1.4347" height="0.1681" ry="0.0841" fill="currentColor"/>
</g>
<g transform="translate(17.9702, 56.9610)">
<rect x="47.8670" y="-0.0841" width="1.4347" height="0.1681" ry="0.0841" fill="currentColor"/>
</g>
<g transform="translate(17.9702, 56.9610)">
<rect x="38.0345" y="-0.0841" width="1.4347" height="0.1681" ry="0.0841" fill="currentColor"/>
</g>
<g transform="translate(17.9702, 56.9610)">
<rect x="24.9712" y="-0.0841" width="1.4347" height="0.1681" ry="0.0841" fill="currentColor"/>
</g>
<g transform="translate(17.9702, 56.9610)">
<rect x="22.8148" y="-0.0841" width="1.4347" height="0.1681" ry="0.0841" fill="currentColor"/>
</g>
<g transform="translate(17.9702, 57.6978)">
<rect x="22.8148" y="-0.0841" width="1.4347" height="0.1681" ry="0.0841" fill="currentColor"/>
</g>
<g transform="translate(17.9702, 56.9610)">
<rect x="20.6583" y="-0.0841" width="1.4347" height="0.1681" ry="0.0841" fill="currentColor"/>
</g>
<g transform="translate(17.9702, 56.9610)">
<rect x="18.7518" y="-0.0841" width="1.4347" height="0.1681" ry="0.0841" fill="currentColor"/>
</g>
<g transform="translate(213.7274, 54.7504)">
<rect x="-0.0614" y="-1.3386" width="0.1228" height="1.9562" ry="0.0421" fill="currentColor"/>
</g>
<g transform="translate(215.8839, 54.7504)">
<rect x="-0.0614" y="-3.3240" width="0.1228" height="3.5732" ry="0.0421" fill="currentColor"/>
</g>
<g transform="translate(214.9888, 55.1189)">
<path transform="scale(0.0029, -0.0029)" d="M208 139c61 0 117 -33 117 -99c0 -71 -52 -119 -99 -147c-34 -20 -71 -32 -110 -32c-61 0 -116 33 -116 99c0 71 51 119 98 147c34 20 71 32 110 32z" fill="currentColor"/>
</g>
<g transform="translate(212.8323, 55.4873)">
<path transform="scale(0.0029, -0.0029)" d="M208 139c61 0 117 -33 117 -99c0 -71 -52 -119 -99 -147c-34 -20 -71 -32 -110 -32c-61 0 -116 33 -116 99c0 71 51 119 98 147c34 20 71 32 110 32z" fill="currentColor"/>
</g>
<g transform="translate(211.3209, 54.7504)">
<rect x="-0.0614" y="-1.1250" width="0.1228" height="2.4795" ry="0.0421" fill="currentColor"/>
</g>
<g transform="translate(238.9977, 54.7504)">
<rect x="-0.0614" y="-0.7423" width="0.1228" height="2.4652" ry="0.0421" fill="currentColor"/>
</g>
<g transform="translate(210.4258, 56.2241)">
<path transform="scale(0.0029, -0.0029)" d="M208 139c61 0 117 -33 117 -99c0 -71 -52 -119 -99 -147c-34 -20 -71 -32 -110 -32c-61 0 -116 33 -116 99c0 71 51 119 98 147c34 20 71 32 110 32z" fill="currentColor"/>
</g>
<g transform="translate(198.6869, 56.9610)">
<path transform="scale(0.0029, -0.0029)" d="M208 139c61 0 117 -33 117 -99c0 -71 -52 -119 -99 -147c-34 -20 -71 -32 -110 -32c-61 0 -116 33 -116 99c0 71 51 119 98 147c34 20 71 32 110 32z" fill="currentColor"/>
</g>
<g transform="translate(219.6583, 54.0136)">
<path transform="scale(0.0029, -0.0029)" d="M208 139c61 0 117 -33 117 -99c0 -71 -52 -119 -99 -147c-34 -20 -71 -32 -110 -32c-61 0 -116 33 -116 99c0 71 51 119 98 147c34 20 71 32 110 32z" fill="currentColor"/>
</g>
<g transform="translate(218.9969, 54.7504)">
<rect x="-0.0614" y="-3.7404" width="0.1228" height="3.2527" ry="0.0421" fill="currentColor"/>
</g>
<g transform="translate(218.1018, 54.3820)">
<path transform="scale(0.0029, -0.0029)" d="M208 139c61 0 117 -33 117 -99c0 -71 -52 -119 -99 -147c-34 -20 -71 -32 -110 -32c-61 0 -116 33 -116 99c0 71 51 119 98 147c34 20 71 32 110 32z" fill="currentColor"/>
</g>
<g transform="translate(217.4404, 54.7504)">
<rect x="-0.0614" y="-3.5322" width="0.1228" height="3.4130" ry="0.0421" fill="currentColor"/>
</g>
<g transform="translate(216.5453, 54.7504)">
<path transform="scale(0.0029, -0.0029)" d="M208 139c61 0 117 -33 117 -99c0 -71 -52 -119 -99 -147c-34 -20 -71 -32 -110 -32c-61 0 -116 33 -116 99c0 71 51 119 98 147c34 20 71 32 110 32z" fill="currentColor"/>
</g>
<g transform="translate(202.6950, 54.7504)">
<rect x="-0.0614" y="-3.0586" width="0.1228" height="4.4131" ry="0.0421" fill="currentColor"/>
</g>
<g transform="translate(199.5820, 54.7504)">
<rect x="-0.0614" y="-3.3625" width="0.1228" height="5.4538" ry="0.0421" fill="currentColor"/>
</g>
<g transform="translate(204.2064, 55.4873)">
<path transform="scale(0.0029, -0.0029)" d="M208 139c61 0 117 -33 117 -99c0 -71 -52 -119 -99 -147c-34 -20 -71 -32 -110 -32c-61 0 -116 33 -116 99c0 71 51 119 98 147c34 20 71 32 110 32z" fill="currentColor"/>
</g>
<g transform="translate(201.7999, 56.2241)">
<path transform="scale(0.0029, -0.0029)" d="M208 139c61 0 117 -33 117 -99c0 -71 -52 -119 -99 -147c-34 -20 -71 -32 -110 -32c-61 0 -116 33 -116 99c0 71 51 119 98 147c34 20 71 32 110 32z" fill="currentColor"/>
</g>
<g transform="translate(201.1385, 54.7504)">
<rect x="-0.0614" y="-3.2106" width="0.1228" height="4.9334" ry="0.0421" fill="currentColor"/>
</g>
<g transform="translate(208.9144, 54.7504)">
<rect x="-0.0614" y="-0.9115" width="0.1228" height="3.0028" ry="0.0421" fill="currentColor"/>
</g>
<g transform="translate(208.0193, 56.9610)">
<path transform="scale(0.0029, -0.0029)" d="M208 139c61 0 117 -33 117 -99c0 -71 -52 -119 -99 -147c-34 -20 -71 -32 -110 -32c-61 0 -116 33 -116 99c0 71 51 119 98 147c34 20 71 32 110 32z" fill="currentColor"/>
</g>
<g transform="translate(200.2434, 56.5926)">
<path transform="scale(0.0029, -0.0029)" d="M208 139c61 0 117 -33 117 -99c0 -71 -52 -119 -99 -147c-34 -20 -71 -32 -110 -32c-61 0 -116 33 -116 99c0 71 51 119 98 147c34 20 71 32 110 32z" fill="currentColor"/>
</g>
<g transform="translate(207.0080, 54.7504)">
<rect x="-0.0614" y="-0.7423" width="0.1228" height="2.0967" ry="0.0421" fill="currentColor"/>
</g>
<g transform="translate(206.1128, 56.2241)">
<path transform="scale(0.0029, -0.0029)" d="M208 139c61 0 117 -33 117 -99c0 -71 -52 -119 -99 -147c-34 -20 -71 -32 -110 -32c-61 0 -116 33 -116 99c0 71 51 119 98 147c34 20 71 32 110 32z" fill="currentColor"/>
</g>
<g transform="translate(205.1015, 54.7504)">
<rect x="-0.0614" y="-2.8237" width="0.1228" height="3.4413" ry="0.0421" fill="currentColor"/>
</g>
<g transform="translate(230.4266, 57.3294)">
<path transform="scale(0.0029, -0.0029)" d="M208 139c61 0 117 -33 117 -99c0 -71 -52 -119 -99 -147c-34 -20 -71 -32 -110 -32c-61 0 -116 33 -116 99c0 71 51 119 98 147c34 20 71 32 110 32z" fill="currentColor"/>
</g>
<g transform="translate(233.1282, 54.7504)">
<rect x="-0.0614" y="-2.6576" width="0.1228" height="4.7489" ry="0.0421" fill="currentColor"/>
</g>
<g transform="translate(232.2331, 56.9610)">
<path transform="scale(0.0029, -0.0029)" d="M208 139c61 0 117 -33 117 -99c0 -71 -52 -119 -99 -147c-34 -20 -71 -32 -110 -32c-61 0 -116 33 -116 99c0 71 51 119 98 147c34 20 71 32 110 32z" fill="currentColor"/>
</g>
<g transform="translate(231.3217, 54.7504)">
<rect x="-0.0614" y="-2.8584" width="0.1228" height="5.3181" ry="0.0421" fill="currentColor"/>
</g>
<g transform="translate(238.1026, 56.5926)">
<path transform="scale(0.0029, -0.0029)" d="M208 139c61 0 117 -33 117 -99c0 -71 -52 -119 -99 -147c-34 -20 -71 -32 -110 -32c-61 0 -116 33 -116 99c0 71 51 119 98 147c34 20 71 32 110 32z" fill="currentColor"/>
</g>
<g transform="translate(237.0912, 54.7504)">
<rect x="-0.0614" y="-2.2173" width="0.1228" height="3.2034" ry="0.0421" fill="currentColor"/>
</g>
<g transform="translate(236.1961, 55.8557)">
<path transform="scale(0.0029, -0.0029)" d="M208 139c61 0 117 -33 117 -99c0 -71 -52 -119 -99 -147c-34 -20 -71 -32 -110 -32c-61 0 -116 33 -116 99c0 71 51 119 98 147c34 20 71 32 110 32z" fill="currentColor"/>
</g>
<g transform="translate(234.6847, 54.7504)">
<rect x="-0.0614" y="-2.4847" width="0.1228" height="4.2076" ry="0.0421" fill="currentColor"/>
</g>
<g transform="translate(233.7896, 56.5926)">
<path transform="scale(0.0029, -0.0029)" d="M208 139c61 0 117 -33 117 -99c0 -71 -52 -119 -99 -147c-34 -20 -71 -32 -110 -32c-61 0 -116 33 -116 99c0 71 51 119 98 147c34 20 71 32 110 32z" fill="currentColor"/>
</g>
<g transform="translate(224.3277, 52.9083)">
<path transform="scale(0.0029, -0.0029)" d="M208 139c61 0 117 -33 117 -99c0 -71 -52 -119 -99 -147c-34 -20 -71 -32 -110 -32c-61 0 -116 33 -116 99c0 71 51 119 98 147c34 20 71 32 110 32z" fill="currentColor"/>
</g>
<g transform="translate(223.6663, 54.7504)">
<rect x="-0.0614" y="-4.3649" width="0.1228" height="2.7720" ry="0.0421" fill="currentColor"/>
</g>
<g transform="translate(222.7712, 53.2768)">
<path transform="scale(0.0029, -0.0029)" d="M208 139c61 0 117 -33 117 -99c0 -71 -52 -119 -99 -147c-34 -20 -71 -32 -110 -32c-61 0 -116 33 -116 99c0 71 51 119 98 147c34 20 71 32 110 32z" fill="currentColor"/>
</g>
<g transform="translate(225.2228, 54.7504)">
<rect x="-0.0614" y="-4.5731" width="0.1228" height="2.6117" ry="0.0421" fill="currentColor"/>
</g>
<g transform="translate(222.1099, 54.7504)">
<rect x="-0.0614" y="-4.1567" width="0.1228" height="2.9322" ry="0.0421" fill="currentColor"/>
</g>
<g transform="translate(221.2147, 53.6452)">
<path transform="scale(0.0029, -0.0029)" d="M208 139c61 0 117 -33 117 -99c0 -71 -52 -119 -99 -147c-34 -20 -71 -32 -110 -32c-61 0 -116 33 -116 99c0 71 51 119 98 147c34 20 71 32 110 32z" fill="currentColor"/>
</g>
<g transform="translate(229.4152, 54.7504)">
<rect x="-0.0614" y="-3.0702" width="0.1228" height="2.2141" ry="0.0421" fill="currentColor"/>
</g>
<g transform="translate(228.5201, 54.0136)">
<path transform="scale(0.0029, -0.0029)" d="M208 139c61 0 117 -33 117 -99c0 -71 -52 -119 -99 -147c-34 -20 -71 -32 -110 -32c-61 0 -116 33 -116 99c0 71 51 119 98 147c34 20 71 32 110 32z" fill="currentColor"/>
</g>
<g transform="translate(220.5534, 54.7504)">
<rect x="-0.0614" y="-3.9485" width="0.1228" height="3.0925" ry="0.0421" fill="currentColor"/>
</g>
<g transform="translate(226.7793, 54.7504)">
<rect x="-0.0614" y="-4.7813" width="0.1228" height="2.4515" ry="0.0421" fill="currentColor"/>
</g>
<g transform="translate(225.8842, 52.5399)">
<path transform="scale(0.0029, -0.0029)" d="M208 139c61 0 117 -33 117 -99c0 -71 -52 -119 -99 -147c-34 -20 -71 -32 -110 -32c-61 0 -116 33 -116 99c0 71 51 119 98 147c34 20 71 32 110 32z" fill="currentColor"/>
</g>
<g transform="translate(170.7053, 54.7504)">
<rect x="-0.0614" y="-1.8824" width="0.1228" height="2.8684" ry="0.0421" fill="currentColor"/>
</g>
<g transform="translate(173.1117, 54.7504)">
<rect x="-0.0614" y="-2.0760" width="0.1228" height="2.3252" ry="0.0421" fill="currentColor"/>
</g>
<g transform="translate(172.2166, 55.1189)">
<path transform="scale(0.0029, -0.0029)" d="M208 139c61 0 117 -33 117 -99c0 -71 -52 -119 -99 -147c-34 -20 -71 -32 -110 -32c-61 0 -116 33 -116 99c0 71 51 119 98 147c34 20 71 32 110 32z" fill="currentColor"/>
</g>
<g transform="translate(169.8102, 55.8557)">
<path transform="scale(0.0029, -0.0029)" d="M208 139c61 0 117 -33 117 -99c0 -71 -52 -119 -99 -147c-34 -20 -71 -32 -110 -32c-61 0 -116 33 -116 99c0 71 51 119 98 147c34 20 71 32 110 32z" fill="currentColor"/>
</g>
<g transform="translate(169.1488, 54.7504)">
<rect x="-0.0614" y="-1.7572" width="0.1228" height="3.1116" ry="0.0421" fill="currentColor"/>
</g>
<g transform="translate(168.2537, 56.2241)">
<path transform="scale(0.0029, -0.0029)" d="M208 139c61 0 117 -33 117 -99c0 -71 -52 -119 -99 -147c-34 -20 -71 -32 -110 -32c-61 0 -116 33 -116 99c0 71 51 119 98 147c34 20 71 32 110 32z" fill="currentColor"/>
</g>
<g transform="translate(176.9247, 54.7504)">
<rect x="-0.0614" y="-1.6483" width="0.1228" height="3.3712" ry="0.0421" fill="currentColor"/>
</g>
<g transform="translate(179.3312, 54.7504)">
<rect x="-0.0614" y="-1.8619" width="0.1228" height="2.8479" ry="0.0421" fill="currentColor"/>
</g>
<g transform="translate(178.4361, 55.8557)">
<path transform="scale(0.0029, -0.0029)" d="M208 139c61 0 117 -33 117 -99c0 -71 -52 -119 -99 -147c-34 -20 -71 -32 -110 -32c-61 0 -116 33 -116 99c0 71 51 119 98 147c34 20 71 32 110 32z" fill="currentColor"/>
</g>
<g transform="translate(176.0296, 56.5926)">
<path transform="scale(0.0029, -0.0029)" d="M208 139c61 0 117 -33 117 -99c0 -71 -52 -119 -99 -147c-34 -20 -71 -32 -110 -32c-61 0 -116 33 -116 99c0 71 51 119 98 147c34 20 71 32 110 32z" fill="currentColor"/>
</g>
<g transform="translate(175.0182, 54.7504)">
<rect x="-0.0614" y="-1.4791" width="0.1228" height="2.4652" ry="0.0421" fill="currentColor"/>
</g>
<g transform="translate(174.1231, 55.8557)">
<path transform="scale(0.0029, -0.0029)" d="M208 139c61 0 117 -33 117 -99c0 -71 -52 -119 -99 -147c-34 -20 -71 -32 -110 -32c-61 0 -116 33 -116 99c0 71 51 119 98 147c34 20 71 32 110 32z" fill="currentColor"/>
</g>
<g transform="translate(164.7907, 55.8557)">
<path transform="scale(0.0029, -0.0029)" d="M208 139c61 0 117 -33 117 -99c0 -71 -52 -119 -99 -147c-34 -20 -71 -32 -110 -32c-61 0 -116 33 -116 99c0 71 51 119 98 147c34 20 71 32 110 32z" fill="currentColor"/>
</g>
<g transform="translate(162.8471, 54.7504)">
<rect x="-0.0614" y="-3.5546" width="0.1228" height="4.1722" ry="0.0421" fill="currentColor"/>
</g>
<g transform="translate(161.9520, 55.4873)">
<path transform="scale(0.0029, -0.0029)" d="M208 139c61 0 117 -33 117 -99c0 -71 -52 -119 -99 -147c-34 -20 -71 -32 -110 -32c-61 0 -116 33 -116 99c0 71 51 119 98 147c34 20 71 32 110 32z" fill="currentColor"/>
</g>
<g transform="translate(161.2907, 54.7504)">
<rect x="-0.0614" y="-3.5546" width="0.1228" height="3.8038" ry="0.0421" fill="currentColor"/>
</g>
<g transform="translate(160.3956, 55.1189)">
<path transform="scale(0.0029, -0.0029)" d="M208 139c61 0 117 -33 117 -99c0 -71 -52 -119 -99 -147c-34 -20 -71 -32 -110 -32c-61 0 -116 33 -116 99c0 71 51 119 98 147c34 20 71 32 110 32z" fill="currentColor"/>
</g>
<g transform="translate(157.9832, 54.7504)">
<path transform="scale(0.0029, -0.0029)" d="M-8 375c8 5 18 7 27 7s20 -2 28 -7l-3 -196l99 24h4c11 0 20 -8 20 -19l8 -559c-8 -5 -19 -7 -28 -7s-19 2 -27 7l3 196l-99 -24h-5c-11 0 -19 8 -19 19zM127 109l-85 -20l-2 -198l84 20z" fill="currentColor"/>
</g>
<g transform="translate(289.2964, 54.7504)">
<path stroke-width="0.0755" stroke-linejoin="round" stroke-linecap="round" stroke="currentColor" fill="currentColor" d="M0.8809 -1.8921C2.4386 -3.1861 10.2596 -3.5349 11.9263 -2.3846L11.9263 -2.3846C10.2647 -3.4217 2.4436 -3.0729 0.8809 -1.8921z"/>
</g>
<g transform="translate(167.5923, 54.7504)">
<rect x="-0.0614" y="-1.6320" width="0.1228" height="3.3549" ry="0.0421" fill="currentColor"/>
</g>
<g transform="translate(166.6972, 56.5926)">
<path transform="scale(0.0029, -0.0029)" d="M208 139c61 0 117 -33 117 -99c0 -71 -52 -119 -99 -147c-34 -20 -71 -32 -110 -32c-61 0 -116 33 -116 99c0 71 51 119 98 147c34 20 71 32 110 32z" fill="currentColor"/>
</g>
<g transform="translate(165.6858, 54.7504)">
<rect x="-0.0614" y="-1.4786" width="0.1228" height="2.4647" ry="0.0421" fill="currentColor"/>
</g>
<g transform="translate(192.3380, 52.5399)">
<path transform="scale(0.0029, -0.0029)" d="M208 139c61 0 117 -33 117 -99c0 -71 -52 -119 -99 -147c-34 -20 -71 -32 -110 -32c-61 0 -116 33 -116 99c0 71 51 119 98 147c34 20 71 32 110 32z" fill="currentColor"/>
</g>
<g transform="translate(195.0396, 54.7504)">
<rect x="-0.0614" y="-5.0202" width="0.1228" height="2.3221" ry="0.0421" fill="currentColor"/>
</g>
<g transform="translate(194.1445, 52.1715)">
<path transform="scale(0.0029, -0.0029)" d="M208 139c61 0 117 -33 117 -99c0 -71 -52 -119 -99 -147c-34 -20 -71 -32 -110 -32c-61 0 -116 33 -116 99c0 71 51 119 98 147c34 20 71 32 110 32z" fill="currentColor"/>
</g>
<g transform="translate(193.2331, 54.7504)">
<rect x="-0.0614" y="-4.7840" width="0.1228" height="2.4542" ry="0.0421" fill="currentColor"/>
</g>
<g transform="translate(191.6766, 54.7504)">
<rect x="-0.0614" y="-4.5804" width="0.1228" height="2.6191" ry="0.0421" fill="currentColor"/>
</g>
<g transform="translate(190.7815, 52.9083)">
<path transform="scale(0.0029, -0.0029)" d="M208 139c61 0 117 -33 117 -99c0 -71 -52 -119 -99 -147c-34 -20 -71 -32 -110 -32c-61 0 -116 33 -116 99c0 71 51 119 98 147c34 20 71 32 110 32z" fill="currentColor"/>
</g>
<g transform="translate(197.6755, 54.7504)">
<rect x="-0.0614" y="-3.5486" width="0.1228" height="2.3241" ry="0.0421" fill="currentColor"/>
</g>
<g transform="translate(196.7804, 53.6452)">
<path transform="scale(0.0029, -0.0029)" d="M208 139c61 0 117 -33 117 -99c0 -71 -52 -119 -99 -147c-34 -20 -71 -32 -110 -32c-61 0 -116 33 -116 99c0 71 51 119 98 147c34 20 71 32 110 32z" fill="currentColor"/>
</g>
<g transform="translate(183.8942, 54.7504)">
<rect x="-0.0614" y="-3.5626" width="0.1228" height="3.4434" ry="0.0421" fill="currentColor"/>
</g>
<g transform="translate(185.4507, 54.7504)">
<rect x="-0.0614" y="-3.7662" width="0.1228" height="3.2785" ry="0.0421" fill="currentColor"/>
</g>
<g transform="translate(184.5556, 54.3820)">
<path transform="scale(0.0029, -0.0029)" d="M208 139c61 0 117 -33 117 -99c0 -71 -52 -119 -99 -147c-34 -20 -71 -32 -110 -32c-61 0 -116 33 -116 99c0 71 51 119 98 147c34 20 71 32 110 32z" fill="currentColor"/>
</g>
<g transform="translate(182.9991, 54.7504)">
<path transform="scale(0.0029, -0.0029)" d="M208 139c61 0 117 -33 117 -99c0 -71 -52 -119 -99 -147c-34 -20 -71 -32 -110 -32c-61 0 -116 33 -116 99c0 71 51 119 98 147c34 20 71 32 110 32z" fill="currentColor"/>
</g>
<g transform="translate(181.7377, 54.7504)">
<rect x="-0.0614" y="-2.0755" width="0.1228" height="2.3246" ry="0.0421" fill="currentColor"/>
</g>
<g transform="translate(180.8426, 55.1189)">
<path transform="scale(0.0029, -0.0029)" d="M208 139c61 0 117 -33 117 -99c0 -71 -52 -119 -99 -147c-34 -20 -71 -32 -110 -32c-61 0 -116 33 -116 99c0 71 51 119 98 147c34 20 71 32 110 32z" fill="currentColor"/>
</g>
<g transform="translate(187.6685, 53.6452)">
<path transform="scale(0.0029, -0.0029)" d="M208 139c61 0 117 -33 117 -99c0 -71 -52 -119 -99 -147c-34 -20 -71 -32 -110 -32c-61 0 -116 33 -116 99c0 71 51 119 98 147c34 20 71 32 110 32z" fill="currentColor"/>
</g>
<g transform="translate(190.1201, 54.7504)">
<rect x="-0.0614" y="-4.3769" width="0.1228" height="2.7839" ry="0.0421" fill="currentColor"/>
</g>
<g transform="translate(189.2250, 53.2768)">
<path transform="scale(0.0029, -0.0029)" d="M208 139c61 0 117 -33 117 -99c0 -71 -52 -119 -99 -147c-34 -20 -71 -32 -110 -32c-61 0 -116 33 -116 99c0 71 51 119 98 147c34 20 71 32 110 32z" fill="currentColor"/>
</g>
<g transform="translate(188.5636, 54.7504)">
<rect x="-0.0614" y="-4.1733" width="0.1228" height="2.9488" ry="0.0421" fill="currentColor"/>
</g>
<g transform="translate(187.0072, 54.7504)">
<rect x="-0.0614" y="-3.9697" width="0.1228" height="3.1137" ry="0.0421" fill="currentColor"/>
</g>
<g transform="translate(186.1121, 54.0136)">
<path transform="scale(0.0029, -0.0029)" d="M208 139c61 0 117 -33 117 -99c0 -71 -52 -119 -99 -147c-34 -20 -71 -32 -110 -32c-61 0 -116 33 -116 99c0 71 51 119 98 147c34 20 71 32 110 32z" fill="currentColor"/>
</g>
<g transform="translate(291.7480, 54.7504)">
<rect x="-0.0614" y="-1.4162" width="0.1228" height="3.8759" ry="0.0421" fill="currentColor"/>
</g>
<g transform="translate(290.8529, 57.3294)">
<path transform="scale(0.0029, -0.0029)" d="M208 139c61 0 117 -33 117 -99c0 -71 -52 -119 -99 -147c-34 -20 -71 -32 -110 -32c-61 0 -116 33 -116 99c0 71 51 119 98 147c34 20 71 32 110 32z" fill="currentColor"/>
</g>
<g transform="translate(290.1915, 54.7504)">
<rect x="-0.0614" y="-1.3468" width="0.1228" height="4.1749" ry="0.0421" fill="currentColor"/>
</g>
<g transform="translate(289.2964, 57.6978)">
<path transform="scale(0.0029, -0.0029)" d="M208 139c61 0 117 -33 117 -99c0 -71 -52 -119 -99 -147c-34 -20 -71 -32 -110 -32c-61 0 -116 33 -116 99c0 71 51 119 98 147c34 20 71 32 110 32z" fill="currentColor"/>
</g>
<g transform="translate(286.8841, 57.3294)">
<path transform="scale(0.0029, -0.0029)" d="M-8 375c8 5 18 7 27 7s20 -2 28 -7l-3 -196l99 24h4c11 0 20 -8 20 -19l8 -559c-8 -5 -19 -7 -28 -7s-19 2 -27 7l3 196l-99 -24h-5c-11 0 -19 8 -19 19zM127 109l-85 -20l-2 -198l84 20z" fill="currentColor"/>
</g>
<g transform="translate(296.6675, 54.7504)">
<rect x="-0.0614" y="-1.6356" width="0.1228" height="2.9900" ry="0.0421" fill="currentColor"/>
</g>
<g transform="translate(295.7724, 56.2241)">
<path transform="scale(0.0029, -0.0029)" d="M208 139c61 0 117 -33 117 -99c0 -71 -52 -119 -99 -147c-34 -20 -71 -32 -110 -32c-61 0 -116 33 -116 99c0 71 51 119 98 147c34 20 71 32 110 32z" fill="currentColor"/>
</g>
<g transform="translate(288.6350, 54.7504)">
<rect x="-0.0614" y="-1.3499" width="0.1228" height="3.8096" ry="0.0421" fill="currentColor"/>
</g>
<g transform="translate(295.1110, 54.7504)">
<rect x="-0.0614" y="-1.5662" width="0.1228" height="3.2891" ry="0.0421" fill="currentColor"/>
</g>
<g transform="translate(294.2159, 56.5926)">
<path transform="scale(0.0029, -0.0029)" d="M208 139c61 0 117 -33 117 -99c0 -71 -52 -119 -99 -147c-34 -20 -71 -32 -110 -32c-61 0 -116 33 -116 99c0 71 51 119 98 147c34 20 71 32 110 32z" fill="currentColor"/>
</g>
<g transform="translate(293.5545, 54.7504)">
<rect x="-0.0614" y="-1.4968" width="0.1228" height="3.5881" ry="0.0421" fill="currentColor"/>
</g>
<g transform="translate(292.6594, 56.9610)">
<path transform="scale(0.0029, -0.0029)" d="M208 139c61 0 117 -33 117 -99c0 -71 -52 -119 -99 -147c-34 -20 -71 -32 -110 -32c-61 0 -116 33 -116 99c0 71 51 119 98 147c34 20 71 32 110 32z" fill="currentColor"/>
</g>
<g transform="translate(280.3927, 54.7504)">
<rect x="-0.0614" y="-2.1307" width="0.1228" height="3.1168" ry="0.0421" fill="currentColor"/>
</g>
<g transform="translate(281.9492, 54.7504)">
<rect x="-0.0614" y="-1.9833" width="0.1228" height="3.3377" ry="0.0421" fill="currentColor"/>
</g>
<g transform="translate(281.0541, 56.2241)">
<path transform="scale(0.0029, -0.0029)" d="M208 139c61 0 117 -33 117 -99c0 -71 -52 -119 -99 -147c-34 -20 -71 -32 -110 -32c-61 0 -116 33 -116 99c0 71 51 119 98 147c34 20 71 32 110 32z" fill="currentColor"/>
</g>
<g transform="translate(279.4976, 55.8557)">
<path transform="scale(0.0029, -0.0029)" d="M208 139c61 0 117 -33 117 -99c0 -71 -52 -119 -99 -147c-34 -20 -71 -32 -110 -32c-61 0 -116 33 -116 99c0 71 51 119 98 147c34 20 71 32 110 32z" fill="currentColor"/>
</g>
<g transform="translate(278.8362, 54.7504)">
<rect x="-0.0614" y="-2.2782" width="0.1228" height="2.8958" ry="0.0421" fill="currentColor"/>
</g>
<g transform="translate(277.9411, 55.4873)">
<path transform="scale(0.0029, -0.0029)" d="M208 139c61 0 117 -33 117 -99c0 -71 -52 -119 -99 -147c-34 -20 -71 -32 -110 -32c-61 0 -116 33 -116 99c0 71 51 119 98 147c34 20 71 32 110 32z" fill="currentColor"/>
</g>
<g transform="translate(285.3276, 56.9610)">
<path transform="scale(0.0029, -0.0029)" d="M208 139c61 0 117 -33 117 -99c0 -71 -52 -119 -99 -147c-34 -20 -71 -32 -110 -32c-61 0 -116 33 -116 99c0 71 51 119 98 147c34 20 71 32 110 32z" fill="currentColor"/>
</g>
<g transform="translate(287.7399, 57.3294)">
<path transform="scale(0.0029, -0.0029)" d="M208 139c61 0 117 -33 117 -99c0 -71 -52 -119 -99 -147c-34 -20 -71 -32 -110 -32c-61 0 -116 33 -116 99c0 71 51 119 98 147c34 20 71 32 110 32z" fill="currentColor"/>
</g>
<g transform="translate(284.1671, 56.9610)">
<path transform="scale(0.0029, -0.0029)" d="M0 114c0 12 7 22 18 26l37 15v151c0 12 10 22 22 22s22 -10 22 -22v-134l77 29v152c0 12 10 22 22 22s22 -10 22 -22v-134l16 6c3 1 8 2 11 2c15 0 28 -12 28 -28v-50c0 -12 -7 -23 -18 -27l-37 -14v-152l16 7c3 1 8 2 11 2c15 0 28 -13 28 -29v-50c0 -12 -7 -22 -18 -26
l-37 -15v-151c0 -12 -10 -22 -22 -22s-22 10 -22 22v134l-77 -29v-152c0 -12 -10 -22 -22 -22s-22 10 -22 22v134l-16 -6c-3 -1 -8 -2 -11 -2c-15 0 -28 12 -28 28v50c0 12 7 23 18 27l37 14v152l-16 -7c-3 -1 -8 -2 -11 -2c-15 0 -28 13 -28 29v50zM176 91l-77 -30v-152
l77 30v152z" fill="currentColor"/>
</g>
<g transform="translate(286.2227, 54.7504)">
<rect x="-0.0614" y="-1.5784" width="0.1228" height="3.6697" ry="0.0421" fill="currentColor"/>
</g>
<g transform="translate(283.5057, 54.7504)">
<rect x="-0.0614" y="-1.8358" width="0.1228" height="3.5587" ry="0.0421" fill="currentColor"/>
</g>
<g transform="translate(282.6106, 56.5926)">
<path transform="scale(0.0029, -0.0029)" d="M208 139c61 0 117 -33 117 -99c0 -71 -52 -119 -99 -147c-34 -20 -71 -32 -110 -32c-61 0 -116 33 -116 99c0 71 51 119 98 147c34 20 71 32 110 32z" fill="currentColor"/>
</g>
<g transform="translate(124.5708, 54.1432)">
<polygon stroke-linejoin="round" stroke-linecap="round" stroke-width="0.0842" fill="currentColor" stroke="currentColor" points="12.0819 -0.8716 12.0819 -0.6021 0.0421 0.1347 0.0421 -0.1347"/>
</g>
<g transform="translate(124.5708, 54.7504)">
<polygon stroke-linejoin="round" stroke-linecap="round" stroke-width="0.0842" fill="currentColor" stroke="currentColor" points="12.0819 -0.8716 12.0819 -0.6021 0.0421 0.1347 0.0421 -0.1347"/>
</g>
<g transform="translate(124.5708, 55.3577)">
<polygon stroke-linejoin="round" stroke-linecap="round" stroke-width="0.0842" fill="currentColor" stroke="currentColor" points="12.0819 -0.8716 12.0819 -0.6021 0.0421 0.1347 0.0421 -0.1347"/>
</g>
<g transform="translate(174.9568, 53.2768)">
<polygon stroke-linejoin="round" stroke-linecap="round" stroke-width="0.0842" fill="currentColor" stroke="currentColor" points="6.8001 -0.7420 6.8001 -0.4725 0.0421 0.1347 0.0421 -0.1347"/>
</g>
<g transform="translate(174.9568, 53.8840)">
<polygon stroke-linejoin="round" stroke-linecap="round" stroke-width="0.0842" fill="currentColor" stroke="currentColor" points="6.8001 -0.7420 6.8001 -0.4725 0.0421 0.1347 0.0421 -0.1347"/>
</g>
<g transform="translate(166.6972, 54.7504)">
<path stroke-width="0.0755" stroke-linejoin="round" stroke-linecap="round" stroke="currentColor" fill="currentColor" d="M0.8695 -2.1772C1.5612 -2.9430 3.1774 -3.0730 3.9825 -2.4277L3.9825 -2.4277C3.1865 -2.9600 1.5703 -2.8300 0.8695 -2.1772z"/>
</g>
<g transform="translate(165.6244, 53.2768)">
<polygon stroke-linejoin="round" stroke-linecap="round" stroke-width="0.0842" fill="currentColor" stroke="currentColor" points="7.5066 -0.7420 7.5066 -0.4725 0.0421 0.1347 0.0421 -0.1347"/>
</g>
<g transform="translate(165.6244, 53.8840)">
<polygon stroke-linejoin="round" stroke-linecap="round" stroke-width="0.0842" fill="currentColor" stroke="currentColor" points="7.5066 -0.7420 7.5066 -0.4725 0.0421 0.1347 0.0421 -0.1347"/>
</g>
<g transform="translate(167.5309, 54.3378)">
<polygon stroke-linejoin="round" stroke-linecap="round" stroke-width="0.0842" fill="currentColor" stroke="currentColor" points="1.6371 -0.2698 1.6371 -0.0003 0.0421 0.1347 0.0421 -0.1347"/>
</g>
<g transform="translate(149.7467, 54.7504)">
<path stroke-width="0.0755" stroke-linejoin="round" stroke-linecap="round" stroke="currentColor" fill="currentColor" d="M0.8855 -4.0998C2.5329 -5.4008 11.3679 -5.6675 13.0908 -4.4683L13.0908 -4.4683C11.3713 -5.5542 2.5363 -5.2875 0.8855 -4.0998z"/>
</g>
<g transform="translate(150.5805, 51.1959)">
<polygon stroke-linejoin="round" stroke-linecap="round" stroke-width="0.0842" fill="currentColor" stroke="currentColor" points="12.2860 -0.1347 12.2860 0.1347 0.0421 0.1347 0.0421 -0.1347"/>
</g>
<g transform="translate(150.5805, 51.8031)">
<polygon stroke-linejoin="round" stroke-linecap="round" stroke-width="0.0842" fill="currentColor" stroke="currentColor" points="12.2860 -0.1347 12.2860 0.1347 0.0421 0.1347 0.0421 -0.1347"/>
</g>
<g transform="translate(152.9870, 52.4103)">
<polygon stroke-linejoin="round" stroke-linecap="round" stroke-width="0.0842" fill="currentColor" stroke="currentColor" points="9.8795 -0.1347 9.8795 0.1347 0.0421 0.1347 0.0421 -0.1347"/>
</g>
<g transform="translate(137.2948, 54.7504)">
<path stroke-width="0.0755" stroke-linejoin="round" stroke-linecap="round" stroke="currentColor" fill="currentColor" d="M0.8951 -3.1242C2.4982 -4.3434 10.1875 -4.3434 11.7905 -3.1242L11.7905 -3.1242C10.1875 -4.2300 2.4982 -4.2300 0.8951 -3.1242z"/>
</g>
<g transform="translate(138.1286, 52.1715)">
<polygon stroke-linejoin="round" stroke-linecap="round" stroke-width="0.0842" fill="currentColor" stroke="currentColor" points="10.9761 -0.1347 10.9761 0.1347 0.0421 0.1347 0.0421 -0.1347"/>
</g>
<g transform="translate(138.1286, 52.7787)">
<polygon stroke-linejoin="round" stroke-linecap="round" stroke-width="0.0842" fill="currentColor" stroke="currentColor" points="10.9761 -0.1347 10.9761 0.1347 0.0421 0.1347 0.0421 -0.1347"/>
</g>
<g transform="translate(138.1286, 53.3859)">
<polygon stroke-linejoin="round" stroke-linecap="round" stroke-width="0.0842" fill="currentColor" stroke="currentColor" points="10.9761 -0.1347 10.9761 0.1347 0.0421 0.1347 0.0421 -0.1347"/>
</g>
<g transform="translate(123.7371, 54.7504)">
<path stroke-width="0.0755" stroke-linejoin="round" stroke-linecap="round" stroke="currentColor" fill="currentColor" d="M0.8758 -1.1562C2.4718 -2.5020 11.1298 -3.0282 12.8770 -1.8856L12.8770 -1.8856C11.1367 -2.9151 2.4787 -2.3889 0.8758 -1.1562z"/>
</g>
<g transform="translate(183.8328, 51.1959)">
<polygon stroke-linejoin="round" stroke-linecap="round" stroke-width="0.0842" fill="currentColor" stroke="currentColor" points="11.2261 -1.6084 11.2261 -1.3389 0.0421 0.1347 0.0421 -0.1347"/>
</g>
<g transform="translate(183.8328, 51.8031)">
<polygon stroke-linejoin="round" stroke-linecap="round" stroke-width="0.0842" fill="currentColor" stroke="currentColor" points="11.2261 -1.6084 11.2261 -1.3389 0.0421 0.1347 0.0421 -0.1347"/>
</g>
<g transform="translate(183.8328, 52.4103)">
<polygon stroke-linejoin="round" stroke-linecap="round" stroke-width="0.0842" fill="currentColor" stroke="currentColor" points="11.2261 -1.6084 11.2261 -1.3389 0.0421 0.1347 0.0421 -0.1347"/>
</g>
<g transform="translate(111.3524, 54.7504)">
<path stroke-width="0.0755" stroke-linejoin="round" stroke-linecap="round" stroke="currentColor" fill="currentColor" d="M0.8951 -3.1242C2.3275 -4.2701 8.1010 -4.2701 9.5334 -3.1242L9.5334 -3.1242C8.1010 -4.1567 2.3275 -4.1567 0.8951 -3.1242z"/>
</g>
<g transform="translate(109.7796, 52.1715)">
<polygon stroke-linejoin="round" stroke-linecap="round" stroke-width="0.0842" fill="currentColor" stroke="currentColor" points="11.1254 -0.1347 11.1254 0.1347 0.0421 0.1347 0.0421 -0.1347"/>
</g>
<g transform="translate(109.7796, 52.7787)">
<polygon stroke-linejoin="round" stroke-linecap="round" stroke-width="0.0842" fill="currentColor" stroke="currentColor" points="11.1254 -0.1347 11.1254 0.1347 0.0421 0.1347 0.0421 -0.1347"/>
</g>
<g transform="translate(112.1861, 53.3859)">
<polygon stroke-linejoin="round" stroke-linecap="round" stroke-width="0.0842" fill="currentColor" stroke="currentColor" points="8.7189 -0.1347 8.7189 0.1347 0.0421 0.1347 0.0421 -0.1347"/>
</g>
<g transform="translate(101.6199, 54.7504)">
<path stroke-width="0.0755" stroke-linejoin="round" stroke-linecap="round" stroke="currentColor" fill="currentColor" d="M0.8951 -1.1525C1.9601 -2.0937 4.9996 -2.0937 6.0646 -1.1525L6.0646 -1.1525C4.9996 -1.9804 1.9601 -1.9804 0.8951 -1.1525z"/>
</g>
<g transform="translate(100.0472, 54.1432)">
<polygon stroke-linejoin="round" stroke-linecap="round" stroke-width="0.0842" fill="currentColor" stroke="currentColor" points="7.6566 -0.1347 7.6566 0.1347 0.0421 0.1347 0.0421 -0.1347"/>
</g>
<g transform="translate(100.0472, 54.7504)">
<polygon stroke-linejoin="round" stroke-linecap="round" stroke-width="0.0842" fill="currentColor" stroke="currentColor" points="7.6566 -0.1347 7.6566 0.1347 0.0421 0.1347 0.0421 -0.1347"/>
</g>
<g transform="translate(102.4536, 55.3577)">
<polygon stroke-linejoin="round" stroke-linecap="round" stroke-width="0.0842" fill="currentColor" stroke="currentColor" points="1.6371 -0.1347 1.6371 0.1347 0.0421 0.1347 0.0421 -0.1347"/>
</g>
<g transform="translate(90.9855, 54.7504)">
<path stroke-width="0.0755" stroke-linejoin="round" stroke-linecap="round" stroke="currentColor" fill="currentColor" d="M0.8998 -2.7196C2.1201 -3.7297 6.0310 -3.6724 7.2212 -2.6271L7.2212 -2.6271C6.0294 -3.5591 2.1184 -3.6163 0.8998 -2.7196z"/>
</g>
<g transform="translate(89.4127, 52.5399)">
<polygon stroke-linejoin="round" stroke-linecap="round" stroke-width="0.0842" fill="currentColor" stroke="currentColor" points="8.8086 -0.0051 8.8086 0.2644 0.0421 0.1347 0.0421 -0.1347"/>
</g>
<g transform="translate(89.4127, 53.1471)">
<polygon stroke-linejoin="round" stroke-linecap="round" stroke-width="0.0842" fill="currentColor" stroke="currentColor" points="8.8086 -0.0051 8.8086 0.2644 0.0421 0.1347 0.0421 -0.1347"/>
</g>
<g transform="translate(91.8192, 53.7896)">
<polygon stroke-linejoin="round" stroke-linecap="round" stroke-width="0.0842" fill="currentColor" stroke="currentColor" points="2.6891 -0.0947 2.6891 0.1747 0.0421 0.1347 0.0421 -0.1347"/>
</g>
<g transform="translate(76.8587, 54.7504)">
<path stroke-width="0.0755" stroke-linejoin="round" stroke-linecap="round" stroke="currentColor" fill="currentColor" d="M0.8951 -3.3630C2.3440 -4.5165 8.2806 -4.5165 9.7295 -3.3630L9.7295 -3.3630C8.2806 -4.4032 2.3440 -4.4032 0.8951 -3.3630z"/>
</g>
<g transform="translate(75.2859, 51.9327)">
<polygon stroke-linejoin="round" stroke-linecap="round" stroke-width="0.0842" fill="currentColor" stroke="currentColor" points="11.3216 -0.1347 11.3216 0.1347 0.0421 0.1347 0.0421 -0.1347"/>
</g>
<g transform="translate(75.2859, 52.5399)">
<polygon stroke-linejoin="round" stroke-linecap="round" stroke-width="0.0842" fill="currentColor" stroke="currentColor" points="11.3216 -0.1347 11.3216 0.1347 0.0421 0.1347 0.0421 -0.1347"/>
</g>
<g transform="translate(77.6924, 53.1471)">
<polygon stroke-linejoin="round" stroke-linecap="round" stroke-width="0.0842" fill="currentColor" stroke="currentColor" points="8.9151 -0.1347 8.9151 0.1347 0.0421 0.1347 0.0421 -0.1347"/>
</g>
<g transform="translate(230.4266, 54.7504)">
<path stroke-width="0.0755" stroke-linejoin="round" stroke-linecap="round" stroke="currentColor" fill="currentColor" d="M0.9303 -3.4036C1.8042 -4.0561 3.5839 -3.8584 4.2933 -3.0300L4.2933 -3.0300C3.5714 -3.7458 1.7917 -3.9435 0.9303 -3.4036z"/>
</g>
<g transform="translate(290.1301, 53.4064)">
<polygon stroke-linejoin="round" stroke-linecap="round" stroke-width="0.0842" fill="currentColor" stroke="currentColor" points="11.1261 -0.6328 11.1261 -0.3633 0.0421 0.1347 0.0421 -0.1347"/>
</g>
<g transform="translate(290.1301, 54.0136)">
<polygon stroke-linejoin="round" stroke-linecap="round" stroke-width="0.0842" fill="currentColor" stroke="currentColor" points="11.1261 -0.6328 11.1261 -0.3633 0.0421 0.1347 0.0421 -0.1347"/>
</g>
<g transform="translate(290.1301, 54.6208)">
<polygon stroke-linejoin="round" stroke-linecap="round" stroke-width="0.0842" fill="currentColor" stroke="currentColor" points="11.1261 -0.6328 11.1261 -0.3633 0.0421 0.1347 0.0421 -0.1347"/>
</g>
<g transform="translate(274.8281, 54.7504)">
<path stroke-width="0.0755" stroke-linejoin="round" stroke-linecap="round" stroke="currentColor" fill="currentColor" d="M0.9252 -3.1184C2.7661 -4.2158 12.2349 -3.3187 13.8370 -1.8951L13.8370 -1.8951C12.2242 -3.2059 2.7554 -4.1029 0.9252 -3.1184z"/>
</g>
<g transform="translate(275.6618, 52.1715)">
<polygon stroke-linejoin="round" stroke-linecap="round" stroke-width="0.0842" fill="currentColor" stroke="currentColor" points="12.9925 1.1002 12.9925 1.3696 0.0421 0.1347 0.0421 -0.1347"/>
</g>
<g transform="translate(275.6618, 52.7787)">
<polygon stroke-linejoin="round" stroke-linecap="round" stroke-width="0.0842" fill="currentColor" stroke="currentColor" points="12.9925 1.1002 12.9925 1.3696 0.0421 0.1347 0.0421 -0.1347"/>
</g>
<g transform="translate(275.6618, 53.3859)">
<polygon stroke-linejoin="round" stroke-linecap="round" stroke-width="0.0842" fill="currentColor" stroke="currentColor" points="12.9925 1.1002 12.9925 1.3696 0.0421 0.1347 0.0421 -0.1347"/>
</g>
<g transform="translate(263.1769, 54.7504)">
<path stroke-width="0.0755" stroke-linejoin="round" stroke-linecap="round" stroke="currentColor" fill="currentColor" d="M0.8951 -5.5735C2.4422 -6.7700 9.4428 -6.7700 10.9899 -5.5735L10.9899 -5.5735C9.4428 -6.6566 2.4422 -6.6566 0.8951 -5.5735z"/>
</g>
<g transform="translate(262.2041, 49.7222)">
<polygon stroke-linejoin="round" stroke-linecap="round" stroke-width="0.0842" fill="currentColor" stroke="currentColor" points="11.9819 -0.1347 11.9819 0.1347 0.0421 0.1347 0.0421 -0.1347"/>
</g>
<g transform="translate(262.2041, 50.3294)">
<polygon stroke-linejoin="round" stroke-linecap="round" stroke-width="0.0842" fill="currentColor" stroke="currentColor" points="11.9819 -0.1347 11.9819 0.1347 0.0421 0.1347 0.0421 -0.1347"/>
</g>
<g transform="translate(262.2041, 50.9366)">
<polygon stroke-linejoin="round" stroke-linecap="round" stroke-width="0.0842" fill="currentColor" stroke="currentColor" points="11.9819 -0.1347 11.9819 0.1347 0.0421 0.1347 0.0421 -0.1347"/>
</g>
<g transform="translate(246.9785, 54.7504)">
<path stroke-width="0.0755" stroke-linejoin="round" stroke-linecap="round" stroke="currentColor" fill="currentColor" d="M0.8528 -3.3712C2.2862 -4.7955 9.9910 -5.8260 11.7483 -4.8285L11.7483 -4.8285C10.0060 -5.7137 2.3012 -4.6832 0.8528 -3.3712z"/>
</g>
<g transform="translate(247.8122, 51.9327)">
<polygon stroke-linejoin="round" stroke-linecap="round" stroke-width="0.0842" fill="currentColor" stroke="currentColor" points="10.9761 -1.6084 10.9761 -1.3389 0.0421 0.1347 0.0421 -0.1347"/>
</g>
<g transform="translate(247.8122, 52.5399)">
<polygon stroke-linejoin="round" stroke-linecap="round" stroke-width="0.0842" fill="currentColor" stroke="currentColor" points="10.9761 -1.6084 10.9761 -1.3389 0.0421 0.1347 0.0421 -0.1347"/>
</g>
<g transform="translate(247.8122, 53.1471)">
<polygon stroke-linejoin="round" stroke-linecap="round" stroke-width="0.0842" fill="currentColor" stroke="currentColor" points="10.9761 -1.6084 10.9761 -1.3389 0.0421 0.1347 0.0421 -0.1347"/>
</g>
<g transform="translate(238.9363, 54.0136)">
<polygon stroke-linejoin="round" stroke-linecap="round" stroke-width="0.0842" fill="currentColor" stroke="currentColor" points="6.8001 -0.7420 6.8001 -0.4725 0.0421 0.1347 0.0421 -0.1347"/>
</g>
<g transform="translate(238.9363, 54.6208)">
<polygon stroke-linejoin="round" stroke-linecap="round" stroke-width="0.0842" fill="currentColor" stroke="currentColor" points="6.8001 -0.7420 6.8001 -0.4725 0.0421 0.1347 0.0421 -0.1347"/>
</g>
<g transform="translate(66.9100, 54.7504)">
<polygon stroke-linejoin="round" stroke-linecap="round" stroke-width="0.0842" fill="currentColor" stroke="currentColor" points="6.3001 -0.0051 6.3001 0.2644 0.0421 0.1347 0.0421 -0.1347"/>
</g>
<g transform="translate(66.9100, 55.3577)">
<polygon stroke-linejoin="round" stroke-linecap="round" stroke-width="0.0842" fill="currentColor" stroke="currentColor" points="6.3001 -0.0051 6.3001 0.2644 0.0421 0.1347 0.0421 -0.1347"/>
</g>
<g transform="translate(229.3538, 51.6735)">
<polygon stroke-linejoin="round" stroke-linecap="round" stroke-width="0.0842" fill="currentColor" stroke="currentColor" points="7.7566 0.7317 7.7566 1.0012 0.0421 0.1347 0.0421 -0.1347"/>
</g>
<g transform="translate(229.3538, 52.2807)">
<polygon stroke-linejoin="round" stroke-linecap="round" stroke-width="0.0842" fill="currentColor" stroke="currentColor" points="7.7566 0.7317 7.7566 1.0012 0.0421 0.1347 0.0421 -0.1347"/>
</g>
<g transform="translate(231.2603, 53.0997)">
<polygon stroke-linejoin="round" stroke-linecap="round" stroke-width="0.0842" fill="currentColor" stroke="currentColor" points="1.8871 0.0796 1.8871 0.3491 0.0421 0.1347 0.0421 -0.1347"/>
</g>
<g transform="translate(214.9888, 54.7504)">
<path stroke-width="0.0755" stroke-linejoin="round" stroke-linecap="round" stroke="currentColor" fill="currentColor" d="M0.8613 -3.8693C2.4794 -5.3267 12.5039 -6.3945 14.3927 -5.3106L14.3927 -5.3106C12.5159 -6.2819 2.4914 -5.2141 0.8613 -3.8693z"/>
</g>
<g transform="translate(215.8225, 51.4347)">
<polygon stroke-linejoin="round" stroke-linecap="round" stroke-width="0.0842" fill="currentColor" stroke="currentColor" points="10.9761 -1.6084 10.9761 -1.3389 0.0421 0.1347 0.0421 -0.1347"/>
</g>
<g transform="translate(215.8225, 52.0419)">
<polygon stroke-linejoin="round" stroke-linecap="round" stroke-width="0.0842" fill="currentColor" stroke="currentColor" points="10.9761 -1.6084 10.9761 -1.3389 0.0421 0.1347 0.0421 -0.1347"/>
</g>
<g transform="translate(215.8225, 52.6491)">
<polygon stroke-linejoin="round" stroke-linecap="round" stroke-width="0.0842" fill="currentColor" stroke="currentColor" points="10.9761 -1.6084 10.9761 -1.3389 0.0421 0.1347 0.0421 -0.1347"/>
</g>
<g transform="translate(206.9466, 54.0136)">
<polygon stroke-linejoin="round" stroke-linecap="round" stroke-width="0.0842" fill="currentColor" stroke="currentColor" points="6.8001 -0.7420 6.8001 -0.4725 0.0421 0.1347 0.0421 -0.1347"/>
</g>
<g transform="translate(206.9466, 54.6208)">
<polygon stroke-linejoin="round" stroke-linecap="round" stroke-width="0.0842" fill="currentColor" stroke="currentColor" points="6.8001 -0.7420 6.8001 -0.4725 0.0421 0.1347 0.0421 -0.1347"/>
</g>
<g transform="translate(198.6869, 54.7504)">
<path stroke-width="0.0755" stroke-linejoin="round" stroke-linecap="round" stroke="currentColor" fill="currentColor" d="M0.8885 -3.9078C1.6228 -4.6296 3.2379 -4.6631 4.0015 -3.9723L4.0015 -3.9723C3.2402 -4.5498 1.6252 -4.5163 0.8885 -3.9078z"/>
</g>
<g transform="translate(197.6141, 51.1959)">
<polygon stroke-linejoin="round" stroke-linecap="round" stroke-width="0.0842" fill="currentColor" stroke="currentColor" points="7.5066 0.6021 7.5066 0.8716 0.0421 0.1347 0.0421 -0.1347"/>
</g>
<g transform="translate(197.6141, 51.8031)">
<polygon stroke-linejoin="round" stroke-linecap="round" stroke-width="0.0842" fill="currentColor" stroke="currentColor" points="7.5066 0.6021 7.5066 0.8716 0.0421 0.1347 0.0421 -0.1347"/>
</g>
<g transform="translate(199.5206, 52.5964)">
<polygon stroke-linejoin="round" stroke-linecap="round" stroke-width="0.0842" fill="currentColor" stroke="currentColor" points="1.6371 0.0292 1.6371 0.2987 0.0421 0.1347 0.0421 -0.1347"/>
</g>
<g transform="translate(182.9991, 54.7504)">
<path stroke-width="0.0755" stroke-linejoin="round" stroke-linecap="round" stroke="currentColor" fill="currentColor" d="M0.8615 -4.1079C2.4927 -5.5702 12.7413 -6.6564 14.6428 -5.5685L14.6428 -5.5685C12.7532 -6.5437 2.5047 -5.4575 0.8615 -4.1079z"/>
</g>
<g transform="translate(301.2369, 54.7504)">
<rect x="-0.0614" y="-1.8394" width="0.1228" height="3.1938" ry="0.0421" fill="currentColor"/>
</g>
<g transform="translate(300.3418, 56.2241)">
<path transform="scale(0.0029, -0.0029)" d="M208 139c61 0 117 -33 117 -99c0 -71 -52 -119 -99 -147c-34 -20 -71 -32 -110 -32c-61 0 -116 33 -116 99c0 71 51 119 98 147c34 20 71 32 110 32z" fill="currentColor"/>
</g>
<g transform="translate(299.7804, 54.7504)">
<rect x="-0.0614" y="-1.7744" width="0.1228" height="2.3920" ry="0.0421" fill="currentColor"/>
</g>
<g transform="translate(298.8853, 55.4873)">
<path transform="scale(0.0029, -0.0029)" d="M208 139c61 0 117 -33 117 -99c0 -71 -52 -119 -99 -147c-34 -20 -71 -32 -110 -32c-61 0 -116 33 -116 99c0 71 51 119 98 147c34 20 71 32 110 32z" fill="currentColor"/>
</g>
<g transform="translate(298.2239, 54.7504)">
<rect x="-0.0614" y="-1.7050" width="0.1228" height="2.6910" ry="0.0421" fill="currentColor"/>
</g>
<g transform="translate(297.3288, 55.8557)">
<path transform="scale(0.0029, -0.0029)" d="M208 139c61 0 117 -33 117 -99c0 -71 -52 -119 -99 -147c-34 -20 -71 -32 -110 -32c-61 0 -116 33 -116 99c0 71 51 119 98 147c34 20 71 32 110 32z" fill="currentColor"/>
</g>
<g transform="translate(58.6503, 54.7504)">
<path stroke-width="0.0755" stroke-linejoin="round" stroke-linecap="round" stroke="currentColor" fill="currentColor" d="M0.9004 -2.7148C1.9942 -3.6465 5.1076 -3.5948 6.1699 -2.6272L6.1699 -2.6272C5.1057 -3.4815 1.9923 -3.5332 0.9004 -2.7148z"/>
</g>
<g transform="translate(57.0775, 52.5399)">
<polygon stroke-linejoin="round" stroke-linecap="round" stroke-width="0.0842" fill="currentColor" stroke="currentColor" points="7.7566 -0.0051 7.7566 0.2644 0.0421 0.1347 0.0421 -0.1347"/>
</g>
<g transform="translate(57.0775, 53.1471)">
<polygon stroke-linejoin="round" stroke-linecap="round" stroke-width="0.0842" fill="currentColor" stroke="currentColor" points="7.7566 -0.0051 7.7566 0.2644 0.0421 0.1347 0.0421 -0.1347"/>
</g>
<g transform="translate(59.4840, 53.7944)">
<polygon stroke-linejoin="round" stroke-linecap="round" stroke-width="0.0842" fill="currentColor" stroke="currentColor" points="1.6371 -0.1068 1.6371 0.1626 0.0421 0.1347 0.0421 -0.1347"/>
</g>
<g transform="translate(45.5870, 54.7504)">
<path stroke-width="0.0755" stroke-linejoin="round" stroke-linecap="round" stroke="currentColor" fill="currentColor" d="M0.8951 -3.8611C2.2508 -4.9699 7.3218 -4.9699 8.6775 -3.8611L8.6775 -3.8611C7.3218 -4.8565 2.2508 -4.8565 0.8951 -3.8611z"/>
</g>
<g transform="translate(44.0143, 51.4347)">
<polygon stroke-linejoin="round" stroke-linecap="round" stroke-width="0.0842" fill="currentColor" stroke="currentColor" points="10.2696 -0.1347 10.2696 0.1347 0.0421 0.1347 0.0421 -0.1347"/>
</g>
<g transform="translate(44.0143, 52.0419)">
<polygon stroke-linejoin="round" stroke-linecap="round" stroke-width="0.0842" fill="currentColor" stroke="currentColor" points="10.2696 -0.1347 10.2696 0.1347 0.0421 0.1347 0.0421 -0.1347"/>
</g>
<g transform="translate(46.4207, 52.6491)">
<polygon stroke-linejoin="round" stroke-linecap="round" stroke-width="0.0842" fill="currentColor" stroke="currentColor" points="7.8631 -0.1347 7.8631 0.1347 0.0421 0.1347 0.0421 -0.1347"/>
</g>
<g transform="translate(35.6383, 54.3820)">
<polygon stroke-linejoin="round" stroke-linecap="round" stroke-width="0.0842" fill="currentColor" stroke="currentColor" points="6.3001 0.2337 6.3001 0.5032 0.0421 0.1347 0.0421 -0.1347"/>
</g>
<g transform="translate(35.6383, 54.9892)">
<polygon stroke-linejoin="round" stroke-linecap="round" stroke-width="0.0842" fill="currentColor" stroke="currentColor" points="6.3001 0.2337 6.3001 0.5032 0.0421 0.1347 0.0421 -0.1347"/>
</g>
<g transform="translate(27.3786, 54.7504)">
<path stroke-width="0.0755" stroke-linejoin="round" stroke-linecap="round" stroke="currentColor" fill="currentColor" d="M0.9483 -3.5281C2.1803 -4.2893 5.3047 -3.7606 6.2178 -2.6366L6.2178 -2.6366C5.2858 -3.6489 2.1614 -4.1775 0.9483 -3.5281z"/>
</g>
<g transform="translate(26.3059, 51.4347)">
<polygon stroke-linejoin="round" stroke-linecap="round" stroke-width="0.0842" fill="currentColor" stroke="currentColor" points="7.2566 1.1002 7.2566 1.3696 0.0421 0.1347 0.0421 -0.1347"/>
</g>
<g transform="translate(26.3059, 52.0419)">
<polygon stroke-linejoin="round" stroke-linecap="round" stroke-width="0.0842" fill="currentColor" stroke="currentColor" points="7.2566 1.1002 7.2566 1.3696 0.0421 0.1347 0.0421 -0.1347"/>
</g>
<g transform="translate(28.2123, 52.9717)">
<polygon stroke-linejoin="round" stroke-linecap="round" stroke-width="0.0842" fill="currentColor" stroke="currentColor" points="1.6371 0.1494 1.6371 0.4189 0.0421 0.1347 0.0421 -0.1347"/>
</g>
<g transform="translate(254.7610, 53.6452)">
<path transform="scale(0.0029, -0.0029)" d="M208 139c61 0 117 -33 117 -99c0 -71 -52 -119 -99 -147c-34 -20 -71 -32 -110 -32c-61 0 -116 33 -116 99c0 71 51 119 98 147c34 20 71 32 110 32z" fill="currentColor"/>
</g>
<g transform="translate(254.0996, 54.7504)">
<rect x="-0.0614" y="-3.6587" width="0.1228" height="2.8026" ry="0.0421" fill="currentColor"/>
</g>
<g transform="translate(253.2045, 54.0136)">
<path transform="scale(0.0029, -0.0029)" d="M208 139c61 0 117 -33 117 -99c0 -71 -52 -119 -99 -147c-34 -20 -71 -32 -110 -32c-61 0 -116 33 -116 99c0 71 51 119 98 147c34 20 71 32 110 32z" fill="currentColor"/>
</g>
<g transform="translate(255.6561, 54.7504)">
<rect x="-0.0614" y="-3.8669" width="0.1228" height="2.6424" ry="0.0421" fill="currentColor"/>
</g>
<g transform="translate(252.5431, 54.7504)">
<rect x="-0.0614" y="-3.4505" width="0.1228" height="2.9628" ry="0.0421" fill="currentColor"/>
</g>
<g transform="translate(251.6480, 54.3820)">
<path transform="scale(0.0029, -0.0029)" d="M208 139c61 0 117 -33 117 -99c0 -71 -52 -119 -99 -147c-34 -20 -71 -32 -110 -32c-61 0 -116 33 -116 99c0 71 51 119 98 147c34 20 71 32 110 32z" fill="currentColor"/>
</g>
<g transform="translate(261.3704, 54.3820)">
<path transform="scale(0.0029, -0.0029)" d="M208 139c61 0 117 -33 117 -99c0 -71 -52 -119 -99 -147c-34 -20 -71 -32 -110 -32c-61 0 -116 33 -116 99c0 71 51 119 98 147c34 20 71 32 110 32z" fill="currentColor"/>
</g>
<g transform="translate(258.7690, 54.7504)">
<rect x="-0.0614" y="-4.2832" width="0.1228" height="2.3219" ry="0.0421" fill="currentColor"/>
</g>
<g transform="translate(257.8739, 52.9083)">
<path transform="scale(0.0029, -0.0029)" d="M208 139c61 0 117 -33 117 -99c0 -71 -52 -119 -99 -147c-34 -20 -71 -32 -110 -32c-61 0 -116 33 -116 99c0 71 51 119 98 147c34 20 71 32 110 32z" fill="currentColor"/>
</g>
<g transform="translate(250.9866, 54.7504)">
<rect x="-0.0614" y="-3.2423" width="0.1228" height="3.1231" ry="0.0421" fill="currentColor"/>
</g>
<g transform="translate(257.2125, 54.7504)">
<rect x="-0.0614" y="-4.0750" width="0.1228" height="2.4821" ry="0.0421" fill="currentColor"/>
</g>
<g transform="translate(256.3174, 53.2768)">
<path transform="scale(0.0029, -0.0029)" d="M208 139c61 0 117 -33 117 -99c0 -71 -52 -119 -99 -147c-34 -20 -71 -32 -110 -32c-61 0 -116 33 -116 99c0 71 51 119 98 147c34 20 71 32 110 32z" fill="currentColor"/>
</g>
<g transform="translate(245.7171, 54.7504)">
<rect x="-0.0614" y="-1.3386" width="0.1228" height="2.3246" ry="0.0421" fill="currentColor"/>
</g>
<g transform="translate(244.8220, 55.8557)">
<path transform="scale(0.0029, -0.0029)" d="M208 139c61 0 117 -33 117 -99c0 -71 -52 -119 -99 -147c-34 -20 -71 -32 -110 -32c-61 0 -116 33 -116 99c0 71 51 119 98 147c34 20 71 32 110 32z" fill="currentColor"/>
</g>
<g transform="translate(243.3106, 54.7504)">
<rect x="-0.0614" y="-1.1250" width="0.1228" height="2.8479" ry="0.0421" fill="currentColor"/>
</g>
<g transform="translate(242.4155, 56.5926)">
<path transform="scale(0.0029, -0.0029)" d="M208 139c61 0 117 -33 117 -99c0 -71 -52 -119 -99 -147c-34 -20 -71 -32 -110 -32c-61 0 -116 33 -116 99c0 71 51 119 98 147c34 20 71 32 110 32z" fill="currentColor"/>
</g>
<g transform="translate(240.9042, 54.7504)">
<rect x="-0.0614" y="-0.9115" width="0.1228" height="3.3712" ry="0.0421" fill="currentColor"/>
</g>
<g transform="translate(240.0091, 57.3294)">
<path transform="scale(0.0029, -0.0029)" d="M208 139c61 0 117 -33 117 -99c0 -71 -52 -119 -99 -147c-34 -20 -71 -32 -110 -32c-61 0 -116 33 -116 99c0 71 51 119 98 147c34 20 71 32 110 32z" fill="currentColor"/>
</g>
<g transform="translate(250.0915, 54.7504)">
<path transform="scale(0.0029, -0.0029)" d="M208 139c61 0 117 -33 117 -99c0 -71 -52 -119 -99 -147c-34 -20 -71 -32 -110 -32c-61 0 -116 33 -116 99c0 71 51 119 98 147c34 20 71 32 110 32z" fill="currentColor"/>
</g>
<g transform="translate(249.4301, 54.7504)">
<rect x="-0.0614" y="-3.0341" width="0.1228" height="3.2833" ry="0.0421" fill="currentColor"/>
</g>
<g transform="translate(248.5350, 55.1189)">
<path transform="scale(0.0029, -0.0029)" d="M208 139c61 0 117 -33 117 -99c0 -71 -52 -119 -99 -147c-34 -20 -71 -32 -110 -32c-61 0 -116 33 -116 99c0 71 51 119 98 147c34 20 71 32 110 32z" fill="currentColor"/>
</g>
<g transform="translate(247.8736, 54.7504)">
<rect x="-0.0614" y="-2.8260" width="0.1228" height="3.4436" ry="0.0421" fill="currentColor"/>
</g>
<g transform="translate(246.9785, 55.4873)">
<path transform="scale(0.0029, -0.0029)" d="M208 139c61 0 117 -33 117 -99c0 -71 -52 -119 -99 -147c-34 -20 -71 -32 -110 -32c-61 0 -116 33 -116 99c0 71 51 119 98 147c34 20 71 32 110 32z" fill="currentColor"/>
</g>
<g transform="translate(273.2716, 54.3820)">
<path transform="scale(0.0029, -0.0029)" d="M208 139c61 0 117 -33 117 -99c0 -71 -52 -119 -99 -147c-34 -20 -71 -32 -110 -32c-61 0 -116 33 -116 99c0 71 51 119 98 147c34 20 71 32 110 32z" fill="currentColor"/>
</g>
<g transform="translate(271.7544, 54.7504)">
<rect x="-0.0614" y="-5.0283" width="0.1228" height="4.1722" ry="0.0421" fill="currentColor"/>
</g>
<g transform="translate(270.8593, 54.0136)">
<path transform="scale(0.0029, -0.0029)" d="M208 139c61 0 117 -33 117 -99c0 -71 -52 -119 -99 -147c-34 -20 -71 -32 -110 -32c-61 0 -116 33 -116 99c0 71 51 119 98 147c34 20 71 32 110 32z" fill="currentColor"/>
</g>
<g transform="translate(274.1667, 54.7504)">
<rect x="-0.0614" y="-5.0283" width="0.1228" height="4.5406" ry="0.0421" fill="currentColor"/>
</g>
<g transform="translate(270.1979, 54.7504)">
<rect x="-0.0614" y="-5.0283" width="0.1228" height="3.8038" ry="0.0421" fill="currentColor"/>
</g>
<g transform="translate(269.3028, 53.6452)">
<path transform="scale(0.0029, -0.0029)" d="M208 139c61 0 117 -33 117 -99c0 -71 -52 -119 -99 -147c-34 -20 -71 -32 -110 -32c-61 0 -116 33 -116 99c0 71 51 119 98 147c34 20 71 32 110 32z" fill="currentColor"/>
</g>
<g transform="translate(275.7232, 54.7504)">
<rect x="-0.0614" y="-2.5731" width="0.1228" height="2.4539" ry="0.0421" fill="currentColor"/>
</g>
<g transform="translate(277.2797, 54.7504)">
<rect x="-0.0614" y="-2.4257" width="0.1228" height="2.6749" ry="0.0421" fill="currentColor"/>
</g>
<g transform="translate(276.3846, 55.1189)">
<path transform="scale(0.0029, -0.0029)" d="M208 139c61 0 117 -33 117 -99c0 -71 -52 -119 -99 -147c-34 -20 -71 -32 -110 -32c-61 0 -116 33 -116 99c0 71 51 119 98 147c34 20 71 32 110 32z" fill="currentColor"/>
</g>
<g transform="translate(268.6414, 54.7504)">
<rect x="-0.0614" y="-5.0283" width="0.1228" height="3.4354" ry="0.0421" fill="currentColor"/>
</g>
<g transform="translate(274.8281, 54.7504)">
<path transform="scale(0.0029, -0.0029)" d="M208 139c61 0 117 -33 117 -99c0 -71 -52 -119 -99 -147c-34 -20 -71 -32 -110 -32c-61 0 -116 33 -116 99c0 71 51 119 98 147c34 20 71 32 110 32z" fill="currentColor"/>
</g>
<g transform="translate(272.4158, 54.3820)">
<path transform="scale(0.0029, -0.0029)" d="M-8 375c8 5 18 7 27 7s20 -2 28 -7l-3 -196l99 24h4c11 0 20 -8 20 -19l8 -559c-8 -5 -19 -7 -28 -7s-19 2 -27 7l3 196l-99 -24h-5c-11 0 -19 8 -19 19zM127 109l-85 -20l-2 -198l84 20z" fill="currentColor"/>
</g>
<g transform="translate(264.0720, 54.7504)">
<rect x="-0.0614" y="-5.0283" width="0.1228" height="2.3301" ry="0.0421" fill="currentColor"/>
</g>
<g transform="translate(263.1769, 52.1715)">
<path transform="scale(0.0029, -0.0029)" d="M208 139c61 0 117 -33 117 -99c0 -71 -52 -119 -99 -147c-34 -20 -71 -32 -110 -32c-61 0 -116 33 -116 99c0 71 51 119 98 147c34 20 71 32 110 32z" fill="currentColor"/>
</g>
<g transform="translate(260.2098, 54.3820)">
<path transform="scale(0.0029, -0.0029)" d="M0 114c0 12 7 22 18 26l37 15v151c0 12 10 22 22 22s22 -10 22 -22v-134l77 29v152c0 12 10 22 22 22s22 -10 22 -22v-134l16 6c3 1 8 2 11 2c15 0 28 -12 28 -28v-50c0 -12 -7 -23 -18 -27l-37 -14v-152l16 7c3 1 8 2 11 2c15 0 28 -13 28 -29v-50c0 -12 -7 -22 -18 -26
l-37 -15v-151c0 -12 -10 -22 -22 -22s-22 10 -22 22v134l-77 -29v-152c0 -12 -10 -22 -22 -22s-22 10 -22 22v134l-16 -6c-3 -1 -8 -2 -11 -2c-15 0 -28 12 -28 28v50c0 12 7 23 18 27l37 14v152l-16 -7c-3 -1 -8 -2 -11 -2c-15 0 -28 13 -28 29v50zM176 91l-77 -30v-152
l77 30v152z" fill="currentColor"/>
</g>
<g transform="translate(262.2655, 54.7504)">
<rect x="-0.0614" y="-5.0283" width="0.1228" height="4.5406" ry="0.0421" fill="currentColor"/>
</g>
<g transform="translate(267.7463, 53.2768)">
<path transform="scale(0.0029, -0.0029)" d="M208 139c61 0 117 -33 117 -99c0 -71 -52 -119 -99 -147c-34 -20 -71 -32 -110 -32c-61 0 -116 33 -116 99c0 71 51 119 98 147c34 20 71 32 110 32z" fill="currentColor"/>
</g>
<g transform="translate(267.0849, 54.7504)">
<rect x="-0.0614" y="-5.0283" width="0.1228" height="3.0669" ry="0.0421" fill="currentColor"/>
</g>
<g transform="translate(266.1898, 52.9083)">
<path transform="scale(0.0029, -0.0029)" d="M208 139c61 0 117 -33 117 -99c0 -71 -52 -119 -99 -147c-34 -20 -71 -32 -110 -32c-61 0 -116 33 -116 99c0 71 51 119 98 147c34 20 71 32 110 32z" fill="currentColor"/>
</g>
<g transform="translate(265.5285, 54.7504)">
<rect x="-0.0614" y="-5.0283" width="0.1228" height="2.6985" ry="0.0421" fill="currentColor"/>
</g>
<g transform="translate(264.6334, 52.5399)">
<path transform="scale(0.0029, -0.0029)" d="M208 139c61 0 117 -33 117 -99c0 -71 -52 -119 -99 -147c-34 -20 -71 -32 -110 -32c-61 0 -116 33 -116 99c0 71 51 119 98 147c34 20 71 32 110 32z" fill="currentColor"/>
</g>
<g transform="translate(75.3473, 54.7504)">
<rect x="-0.0614" y="-2.8177" width="0.1228" height="5.6459" ry="0.0421" fill="currentColor"/>
</g>
<g transform="translate(74.4522, 57.6978)">
<path transform="scale(0.0029, -0.0029)" d="M208 139c61 0 117 -33 117 -99c0 -71 -52 -119 -99 -147c-34 -20 -71 -32 -110 -32c-61 0 -116 33 -116 99c0 71 51 119 98 147c34 20 71 32 110 32z" fill="currentColor"/>
</g>
<g transform="translate(76.8587, 54.3820)">
<path transform="scale(0.0029, -0.0029)" d="M208 139c61 0 117 -33 117 -99c0 -71 -52 -119 -99 -147c-34 -20 -71 -32 -110 -32c-61 0 -116 33 -116 99c0 71 51 119 98 147c34 20 71 32 110 32z" fill="currentColor"/>
</g>
<g transform="translate(73.1908, 54.7504)">
<rect x="-0.0614" y="0.1284" width="0.1228" height="3.0682" ry="0.0421" fill="currentColor"/>
</g>
<g transform="translate(72.2957, 58.0662)">
<path transform="scale(0.0029, -0.0029)" d="M208 139c61 0 117 -33 117 -99c0 -71 -52 -119 -99 -147c-34 -20 -71 -32 -110 -32c-61 0 -116 33 -116 99c0 71 51 119 98 147c34 20 71 32 110 32z" fill="currentColor"/>
</g>
<g transform="translate(71.0343, 54.7504)">
<rect x="-0.0614" y="0.0843" width="0.1228" height="2.7438" ry="0.0421" fill="currentColor"/>
</g>
<g transform="translate(80.8668, 54.7504)">
<rect x="-0.0614" y="-2.8177" width="0.1228" height="3.0669" ry="0.0421" fill="currentColor"/>
</g>
<g transform="translate(79.9717, 55.1189)">
<path transform="scale(0.0029, -0.0029)" d="M208 139c61 0 117 -33 117 -99c0 -71 -52 -119 -99 -147c-34 -20 -71 -32 -110 -32c-61 0 -116 33 -116 99c0 71 51 119 98 147c34 20 71 32 110 32z" fill="currentColor"/>
</g>
<g transform="translate(70.1392, 57.6978)">
<path transform="scale(0.0029, -0.0029)" d="M208 139c61 0 117 -33 117 -99c0 -71 -52 -119 -99 -147c-34 -20 -71 -32 -110 -32c-61 0 -116 33 -116 99c0 71 51 119 98 147c34 20 71 32 110 32z" fill="currentColor"/>
</g>
<g transform="translate(79.3103, 54.7504)">
<rect x="-0.0614" y="-2.8177" width="0.1228" height="2.6985" ry="0.0421" fill="currentColor"/>
</g>
<g transform="translate(78.4152, 54.7504)">
<path transform="scale(0.0029, -0.0029)" d="M208 139c61 0 117 -33 117 -99c0 -71 -52 -119 -99 -147c-34 -20 -71 -32 -110 -32c-61 0 -116 33 -116 99c0 71 51 119 98 147c34 20 71 32 110 32z" fill="currentColor"/>
</g>
<g transform="translate(77.7538, 54.7504)">
<rect x="-0.0614" y="-2.8177" width="0.1228" height="2.3301" ry="0.0421" fill="currentColor"/>
</g>
<g transform="translate(63.9198, 56.5926)">
<path transform="scale(0.0029, -0.0029)" d="M208 139c61 0 117 -33 117 -99c0 -71 -52 -119 -99 -147c-34 -20 -71 -32 -110 -32c-61 0 -116 33 -116 99c0 71 51 119 98 147c34 20 71 32 110 32z" fill="currentColor"/>
</g>
<g transform="translate(62.6584, 54.7504)">
<rect x="-0.0614" y="-2.1178" width="0.1228" height="3.4722" ry="0.0421" fill="currentColor"/>
</g>
<g transform="translate(61.7633, 56.2241)">
<path transform="scale(0.0029, -0.0029)" d="M208 139c61 0 117 -33 117 -99c0 -71 -52 -119 -99 -147c-34 -20 -71 -32 -110 -32c-61 0 -116 33 -116 99c0 71 51 119 98 147c34 20 71 32 110 32z" fill="currentColor"/>
</g>
<g transform="translate(64.8149, 54.7504)">
<rect x="-0.0614" y="-2.0819" width="0.1228" height="3.8048" ry="0.0421" fill="currentColor"/>
</g>
<g transform="translate(61.1019, 54.7504)">
<rect x="-0.0614" y="-2.1436" width="0.1228" height="3.1297" ry="0.0421" fill="currentColor"/>
</g>
<g transform="translate(60.2068, 55.8557)">
<path transform="scale(0.0029, -0.0029)" d="M208 139c61 0 117 -33 117 -99c0 -71 -52 -119 -99 -147c-34 -20 -71 -32 -110 -32c-61 0 -116 33 -116 99c0 71 51 119 98 147c34 20 71 32 110 32z" fill="currentColor"/>
</g>
<g transform="translate(68.8778, 54.7504)">
<rect x="-0.0614" y="0.0402" width="0.1228" height="2.4195" ry="0.0421" fill="currentColor"/>
</g>
<g transform="translate(67.9827, 57.3294)">
<path transform="scale(0.0029, -0.0029)" d="M208 139c61 0 117 -33 117 -99c0 -71 -52 -119 -99 -147c-34 -20 -71 -32 -110 -32c-61 0 -116 33 -116 99c0 71 51 119 98 147c34 20 71 32 110 32z" fill="currentColor"/>
</g>
<g transform="translate(81.5282, 55.4873)">
<path transform="scale(0.0029, -0.0029)" d="M208 139c61 0 117 -33 117 -99c0 -71 -52 -119 -99 -147c-34 -20 -71 -32 -110 -32c-61 0 -116 33 -116 99c0 71 51 119 98 147c34 20 71 32 110 32z" fill="currentColor"/>
</g>
<g transform="translate(66.9714, 54.7504)">
<rect x="-0.0614" y="0.0013" width="0.1228" height="2.0900" ry="0.0421" fill="currentColor"/>
</g>
<g transform="translate(66.0763, 56.9610)">
<path transform="scale(0.0029, -0.0029)" d="M208 139c61 0 117 -33 117 -99c0 -71 -52 -119 -99 -147c-34 -20 -71 -32 -110 -32c-61 0 -116 33 -116 99c0 71 51 119 98 147c34 20 71 32 110 32z" fill="currentColor"/>
</g>
<g transform="translate(94.4891, 54.7504)">
<rect x="-0.0614" y="-2.1362" width="0.1228" height="3.4906" ry="0.0421" fill="currentColor"/>
</g>
<g transform="translate(93.5940, 56.2241)">
<path transform="scale(0.0029, -0.0029)" d="M208 139c61 0 117 -33 117 -99c0 -71 -52 -119 -99 -147c-34 -20 -71 -32 -110 -32c-61 0 -116 33 -116 99c0 71 51 119 98 147c34 20 71 32 110 32z" fill="currentColor"/>
</g>
<g transform="translate(91.8806, 54.7504)">
<rect x="-0.0614" y="-2.1744" width="0.1228" height="3.1604" ry="0.0421" fill="currentColor"/>
</g>
<g transform="translate(90.9855, 55.8557)">
<path transform="scale(0.0029, -0.0029)" d="M208 139c61 0 117 -33 117 -99c0 -71 -52 -119 -99 -147c-34 -20 -71 -32 -110 -32c-61 0 -116 33 -116 99c0 71 51 119 98 147c34 20 71 32 110 32z" fill="currentColor"/>
</g>
<g transform="translate(97.3069, 56.9610)">
<path transform="scale(0.0029, -0.0029)" d="M208 139c61 0 117 -33 117 -99c0 -71 -52 -119 -99 -147c-34 -20 -71 -32 -110 -32c-61 0 -116 33 -116 99c0 71 51 119 98 147c34 20 71 32 110 32z" fill="currentColor"/>
</g>
<g transform="translate(100.1085, 54.7504)">
<rect x="-0.0614" y="-0.6072" width="0.1228" height="3.0669" ry="0.0421" fill="currentColor"/>
</g>
<g transform="translate(99.2134, 57.3294)">
<path transform="scale(0.0029, -0.0029)" d="M208 139c61 0 117 -33 117 -99c0 -71 -52 -119 -99 -147c-34 -20 -71 -32 -110 -32c-61 0 -116 33 -116 99c0 71 51 119 98 147c34 20 71 32 110 32z" fill="currentColor"/>
</g>
<g transform="translate(98.2021, 54.7504)">
<rect x="-0.0614" y="-2.0818" width="0.1228" height="4.1731" ry="0.0421" fill="currentColor"/>
</g>
<g transform="translate(96.0456, 54.7504)">
<rect x="-0.0614" y="-2.1134" width="0.1228" height="3.8363" ry="0.0421" fill="currentColor"/>
</g>
<g transform="translate(95.1505, 56.5926)">
<path transform="scale(0.0029, -0.0029)" d="M208 139c61 0 117 -33 117 -99c0 -71 -52 -119 -99 -147c-34 -20 -71 -32 -110 -32c-61 0 -116 33 -116 99c0 71 51 119 98 147c34 20 71 32 110 32z" fill="currentColor"/>
</g>
<g transform="translate(92.6545, 56.2241)">
<path transform="scale(0.0029, -0.0029)" d="M33 35l-2 -60v-11c0 -21 2 -43 5 -64c42 38 87 81 87 138c0 32 -13 63 -41 63c-31 0 -48 -32 -49 -66zM32 446l-9 -337c25 26 59 40 95 40c50 0 82 -51 82 -105c0 -77 -80 -117 -137 -169c-18 -17 -26 -48 -52 -48c-16 0 -28 15 -28 32l-15 587c10 6 21 8 32 8
s22 -2 32 -8z" fill="currentColor"/>
</g>
<g transform="translate(86.5882, 54.7504)">
<rect x="-0.0614" y="-2.8177" width="0.1228" height="4.1722" ry="0.0421" fill="currentColor"/>
</g>
<g transform="translate(85.6931, 56.2241)">
<path transform="scale(0.0029, -0.0029)" d="M208 139c61 0 117 -33 117 -99c0 -71 -52 -119 -99 -147c-34 -20 -71 -32 -110 -32c-61 0 -116 33 -116 99c0 71 51 119 98 147c34 20 71 32 110 32z" fill="currentColor"/>
</g>
<g transform="translate(84.7536, 56.2241)">
<path transform="scale(0.0029, -0.0029)" d="M33 35l-2 -60v-11c0 -21 2 -43 5 -64c42 38 87 81 87 138c0 32 -13 63 -41 63c-31 0 -48 -32 -49 -66zM32 446l-9 -337c25 26 59 40 95 40c50 0 82 -51 82 -105c0 -77 -80 -117 -137 -169c-18 -17 -26 -48 -52 -48c-16 0 -28 15 -28 32l-15 587c10 6 21 8 32 8
s22 -2 32 -8z" fill="currentColor"/>
</g>
<g transform="translate(83.9797, 54.7504)">
<rect x="-0.0614" y="-2.8177" width="0.1228" height="3.8038" ry="0.0421" fill="currentColor"/>
</g>
<g transform="translate(83.0846, 55.8557)">
<path transform="scale(0.0029, -0.0029)" d="M208 139c61 0 117 -33 117 -99c0 -71 -52 -119 -99 -147c-34 -20 -71 -32 -110 -32c-61 0 -116 33 -116 99c0 71 51 119 98 147c34 20 71 32 110 32z" fill="currentColor"/>
</g>
<g transform="translate(82.4233, 54.7504)">
<rect x="-0.0614" y="-2.8177" width="0.1228" height="3.4354" ry="0.0421" fill="currentColor"/>
</g>
<g transform="translate(88.7018, 59.6820)">
<path transform="scale(0.0029, -0.0029)" d="M266 659c0 -44 -15 -80 -38 -114c16 -35 25 -73 25 -111c0 -180 -252 -254 -253 -433v-1h-21v500h21v-70c94 49 217 126 217 229c0 20 -5 41 -14 59v5c0 16 13 26 27 26c32 0 36 -61 36 -90zM0 205c88 51 204 130 204 229c0 22 -4 44 -12 65c-79 -85 -192 -155 -192 -274
v-20z" fill="currentColor"/>
</g>
<g transform="translate(88.6404, 54.7504)">
<rect x="-0.0614" y="2.6982" width="0.1228" height="2.2755" ry="0.0421" fill="currentColor"/>
</g>
<g transform="translate(59.5454, 54.7504)">
<rect x="-0.0614" y="-2.1695" width="0.1228" height="2.7871" ry="0.0421" fill="currentColor"/>
</g>
<g transform="translate(89.4741, 54.7504)">
<rect x="-0.0614" y="-2.2096" width="0.1228" height="3.9325" ry="0.0421" fill="currentColor"/>
</g>
<g transform="translate(88.5790, 57.3294)">
<path transform="scale(0.0029, -0.0029)" d="M208 139c61 0 117 -33 117 -99c0 -71 -52 -119 -99 -147c-34 -20 -71 -32 -110 -32c-61 0 -116 33 -116 99c0 71 51 119 98 147c34 20 71 32 110 32z" fill="currentColor"/>
</g>
<g transform="translate(88.5790, 56.5926)">
<path transform="scale(0.0029, -0.0029)" d="M208 139c61 0 117 -33 117 -99c0 -71 -52 -119 -99 -147c-34 -20 -71 -32 -110 -32c-61 0 -116 33 -116 99c0 71 51 119 98 147c34 20 71 32 110 32z" fill="currentColor"/>
</g>
<g transform="translate(34.8046, 56.5926)">
<path transform="scale(0.0029, -0.0029)" d="M208 139c61 0 117 -33 117 -99c0 -71 -52 -119 -99 -147c-34 -20 -71 -32 -110 -32c-61 0 -116 33 -116 99c0 71 51 119 98 147c34 20 71 32 110 32z" fill="currentColor"/>
</g>
<g transform="translate(33.5432, 54.7504)">
<rect x="-0.0614" y="-2.0913" width="0.1228" height="3.4457" ry="0.0421" fill="currentColor"/>
</g>
<g transform="translate(32.6481, 56.2241)">
<path transform="scale(0.0029, -0.0029)" d="M208 139c61 0 117 -33 117 -99c0 -71 -52 -119 -99 -147c-34 -20 -71 -32 -110 -32c-61 0 -116 33 -116 99c0 71 51 119 98 147c34 20 71 32 110 32z" fill="currentColor"/>
</g>
<g transform="translate(35.6997, 54.7504)">
<rect x="-0.0614" y="-0.3649" width="0.1228" height="2.0877" ry="0.0421" fill="currentColor"/>
</g>
<g transform="translate(31.3867, 54.7504)">
<rect x="-0.0614" y="-2.4561" width="0.1228" height="3.4422" ry="0.0421" fill="currentColor"/>
</g>
<g transform="translate(30.4916, 55.8557)">
<path transform="scale(0.0029, -0.0029)" d="M208 139c61 0 117 -33 117 -99c0 -71 -52 -119 -99 -147c-34 -20 -71 -32 -110 -32c-61 0 -116 33 -116 99c0 71 51 119 98 147c34 20 71 32 110 32z" fill="currentColor"/>
</g>
<g transform="translate(41.0240, 57.6978)">
<path transform="scale(0.0029, -0.0029)" d="M208 139c61 0 117 -33 117 -99c0 -71 -52 -119 -99 -147c-34 -20 -71 -32 -110 -32c-61 0 -116 33 -116 99c0 71 51 119 98 147c34 20 71 32 110 32z" fill="currentColor"/>
</g>
<g transform="translate(39.7627, 54.7504)">
<rect x="-0.0614" y="-0.1288" width="0.1228" height="2.5886" ry="0.0421" fill="currentColor"/>
</g>
<g transform="translate(38.8676, 57.3294)">
<path transform="scale(0.0029, -0.0029)" d="M208 139c61 0 117 -33 117 -99c0 -71 -52 -119 -99 -147c-34 -20 -71 -32 -110 -32c-61 0 -116 33 -116 99c0 71 51 119 98 147c34 20 71 32 110 32z" fill="currentColor"/>
</g>
<g transform="translate(29.8302, 54.7504)">
<rect x="-0.0614" y="-2.7195" width="0.1228" height="3.3371" ry="0.0421" fill="currentColor"/>
</g>
<g transform="translate(37.8562, 54.7504)">
<rect x="-0.0614" y="-0.2396" width="0.1228" height="2.3309" ry="0.0421" fill="currentColor"/>
</g>
<g transform="translate(36.9611, 56.9610)">
<path transform="scale(0.0029, -0.0029)" d="M208 139c61 0 117 -33 117 -99c0 -71 -52 -119 -99 -147c-34 -20 -71 -32 -110 -32c-61 0 -116 33 -116 99c0 71 51 119 98 147c34 20 71 32 110 32z" fill="currentColor"/>
</g>
<g transform="translate(26.3672, 54.7504)">
<rect x="-0.0614" y="-3.3054" width="0.1228" height="2.4493" ry="0.0421" fill="currentColor"/>
</g>
<g transform="translate(25.4721, 56.5926)">
<path transform="scale(0.0029, -0.0029)" d="M208 139c61 0 117 -33 117 -99c0 -71 -52 -119 -99 -147c-34 -20 -71 -32 -110 -32c-61 0 -116 33 -116 99c0 71 51 119 98 147c34 20 71 32 110 32z" fill="currentColor"/>
</g>
<g transform="translate(25.4721, 54.0136)">
<path transform="scale(0.0029, -0.0029)" d="M208 139c61 0 117 -33 117 -99c0 -71 -52 -119 -99 -147c-34 -20 -71 -32 -110 -32c-61 0 -116 33 -116 99c0 71 51 119 98 147c34 20 71 32 110 32z" fill="currentColor"/>
</g>
<g transform="translate(22.3827, 54.7504)">
<path transform="scale(0.0029, -0.0029)" d="M33 35l-2 -60v-11c0 -21 2 -43 5 -64c42 38 87 81 87 138c0 32 -13 63 -41 63c-31 0 -48 -32 -49 -66zM32 446l-9 -337c25 26 59 40 95 40c50 0 82 -51 82 -105c0 -77 -80 -117 -137 -169c-18 -17 -26 -48 -52 -48c-16 0 -28 15 -28 32l-15 587c10 6 21 8 32 8
s22 -2 32 -8z" fill="currentColor"/>
</g>
<g transform="translate(18.7702, 55.4873)">
<path transform="scale(0.0029, -0.0029)" d="M381 266h9c157 0 258 -130 258 -264c0 -77 -33 -156 -108 -212c-22 -16 -46 -28 -71 -36c2 -32 3 -65 3 -97c0 -21 -1 -43 -2 -64c-7 -122 -91 -230 -211 -230c-108 0 -197 88 -197 197c0 58 54 104 113 104c54 0 95 -48 95 -104c0 -52 -43 -95 -95 -95c-8 0 -16 2 -24 4
c25 -35 65 -59 111 -59c95 0 155 92 161 190c1 20 2 39 2 59c0 28 -1 55 -3 83c-29 -5 -57 -7 -87 -7c-189 0 -333 174 -333 377c0 176 128 307 242 443c-21 62 -41 124 -50 189c-7 52 -8 106 -8 159c0 113 54 219 146 286c8 6 21 7 29 0c72 -82 136 -244 136 -357
c0 -141 -83 -253 -174 -362c22 -67 41 -135 58 -204zM464 -200c64 25 108 93 108 159c0 87 -62 173 -163 187c24 -113 43 -225 55 -346zM338 -218c27 0 54 2 80 6c-13 125 -33 242 -58 359c-79 -7 -123 -59 -123 -116c0 -43 24 -89 78 -120c5 -5 8 -11 8 -17
c0 -13 -11 -24 -24 -24c-3 0 -7 0 -10 2c-81 44 -119 116 -119 187c0 90 60 178 164 201c-14 56 -30 112 -47 167c-104 -122 -208 -245 -208 -404c0 -132 127 -241 259 -241zM239 782c0 -69 22 -127 41 -183c77 97 140 199 140 323c0 49 -3 69 -19 113
c-99 -45 -162 -145 -162 -253z" fill="currentColor"/>
</g>
<g transform="translate(28.9351, 55.4873)">
<path transform="scale(0.0029, -0.0029)" d="M208 139c61 0 117 -33 117 -99c0 -71 -52 -119 -99 -147c-34 -20 -71 -32 -110 -32c-61 0 -116 33 -116 99c0 71 51 119 98 147c34 20 71 32 110 32z" fill="currentColor"/>
</g>
<g transform="translate(28.2737, 54.7504)">
<rect x="-0.0614" y="-2.9828" width="0.1228" height="3.2320" ry="0.0421" fill="currentColor"/>
</g>
<g transform="translate(27.3786, 55.1189)">
<path transform="scale(0.0029, -0.0029)" d="M208 139c61 0 117 -33 117 -99c0 -71 -52 -119 -99 -147c-34 -20 -71 -32 -110 -32c-61 0 -116 33 -116 99c0 71 51 119 98 147c34 20 71 32 110 32z" fill="currentColor"/>
</g>
<g transform="translate(41.9191, 54.7504)">
<rect x="-0.0614" y="-0.0036" width="0.1228" height="2.8317" ry="0.0421" fill="currentColor"/>
</g>
<g transform="translate(25.5949, 58.9452)">
<path transform="scale(0.0029, -0.0029)" d="M266 659c0 -44 -15 -80 -38 -114c16 -35 25 -73 25 -111c0 -180 -252 -254 -253 -433v-1h-21v500h21v-70c94 49 217 126 217 229c0 20 -5 41 -14 59v5c0 16 13 26 27 26c32 0 36 -61 36 -90zM0 205c88 51 204 130 204 229c0 22 -4 44 -12 65c-79 -85 -192 -155 -192 -274
v-20z" fill="currentColor"/>
</g>
<g transform="translate(25.5335, 54.7504)">
<rect x="-0.0614" y="1.9613" width="0.1228" height="2.2755" ry="0.0421" fill="currentColor"/>
</g>
<g transform="translate(57.1389, 54.7504)">
<rect x="-0.0614" y="-2.2095" width="0.1228" height="3.5640" ry="0.0421" fill="currentColor"/>
</g>
<g transform="translate(56.2438, 56.9610)">
<path transform="scale(0.0029, -0.0029)" d="M208 139c61 0 117 -33 117 -99c0 -71 -52 -119 -99 -147c-34 -20 -71 -32 -110 -32c-61 0 -116 33 -116 99c0 71 51 119 98 147c34 20 71 32 110 32z" fill="currentColor"/>
</g>
<g transform="translate(56.2438, 56.2241)">
<path transform="scale(0.0029, -0.0029)" d="M208 139c61 0 117 -33 117 -99c0 -71 -52 -119 -99 -147c-34 -20 -71 -32 -110 -32c-61 0 -116 33 -116 99c0 71 51 119 98 147c34 20 71 32 110 32z" fill="currentColor"/>
</g>
<g transform="translate(54.2646, 54.7504)">
<rect x="-0.0614" y="-3.3158" width="0.1228" height="4.3018" ry="0.0421" fill="currentColor"/>
</g>
<g transform="translate(53.3695, 55.8557)">
<path transform="scale(0.0029, -0.0029)" d="M208 139c61 0 117 -33 117 -99c0 -71 -52 -119 -99 -147c-34 -20 -71 -32 -110 -32c-61 0 -116 33 -116 99c0 71 51 119 98 147c34 20 71 32 110 32z" fill="currentColor"/>
</g>
<g transform="translate(52.7081, 54.7504)">
<rect x="-0.0614" y="-3.3158" width="0.1228" height="3.9334" ry="0.0421" fill="currentColor"/>
</g>
<g transform="translate(58.6503, 55.4873)">
<path transform="scale(0.0029, -0.0029)" d="M208 139c61 0 117 -33 117 -99c0 -71 -52 -119 -99 -147c-34 -20 -71 -32 -110 -32c-61 0 -116 33 -116 99c0 71 51 119 98 147c34 20 71 32 110 32z" fill="currentColor"/>
</g>
<g transform="translate(51.8130, 55.4873)">
<path transform="scale(0.0029, -0.0029)" d="M208 139c61 0 117 -33 117 -99c0 -71 -52 -119 -99 -147c-34 -20 -71 -32 -110 -32c-61 0 -116 33 -116 99c0 71 51 119 98 147c34 20 71 32 110 32z" fill="currentColor"/>
</g>
<g transform="translate(56.3666, 59.3136)">
<path transform="scale(0.0029, -0.0029)" d="M266 659c0 -44 -15 -80 -38 -114c16 -35 25 -73 25 -111c0 -180 -252 -254 -253 -433v-1h-21v500h21v-70c94 49 217 126 217 229c0 20 -5 41 -14 59v5c0 16 13 26 27 26c32 0 36 -61 36 -90zM0 205c88 51 204 130 204 229c0 22 -4 44 -12 65c-79 -85 -192 -155 -192 -274
v-20z" fill="currentColor"/>
</g>
<g transform="translate(56.3052, 54.7504)">
<rect x="-0.0614" y="2.3298" width="0.1228" height="2.2755" ry="0.0421" fill="currentColor"/>
</g>
<g transform="translate(47.1435, 54.3820)">
<path transform="scale(0.0029, -0.0029)" d="M208 139c61 0 117 -33 117 -99c0 -71 -52 -119 -99 -147c-34 -20 -71 -32 -110 -32c-61 0 -116 33 -116 99c0 71 51 119 98 147c34 20 71 32 110 32z" fill="currentColor"/>
</g>
<g transform="translate(46.4821, 54.7504)">
<rect x="-0.0614" y="-3.3158" width="0.1228" height="2.4597" ry="0.0421" fill="currentColor"/>
</g>
<g transform="translate(45.5870, 54.0136)">
<path transform="scale(0.0029, -0.0029)" d="M208 139c61 0 117 -33 117 -99c0 -71 -52 -119 -99 -147c-34 -20 -71 -32 -110 -32c-61 0 -116 33 -116 99c0 71 51 119 98 147c34 20 71 32 110 32z" fill="currentColor"/>
</g>
<g transform="translate(48.0386, 54.7504)">
<rect x="-0.0614" y="-3.3158" width="0.1228" height="2.8281" ry="0.0421" fill="currentColor"/>
</g>
<g transform="translate(44.0756, 54.7504)">
<rect x="-0.0614" y="-3.3158" width="0.1228" height="5.7755" ry="0.0421" fill="currentColor"/>
</g>
<g transform="translate(43.1805, 57.3294)">
<path transform="scale(0.0029, -0.0029)" d="M208 139c61 0 117 -33 117 -99c0 -71 -52 -119 -99 -147c-34 -20 -71 -32 -110 -32c-61 0 -116 33 -116 99c0 71 51 119 98 147c34 20 71 32 110 32z" fill="currentColor"/>
</g>
<g transform="translate(51.1516, 54.7504)">
<rect x="-0.0614" y="-3.3158" width="0.1228" height="3.5650" ry="0.0421" fill="currentColor"/>
</g>
<g transform="translate(50.2565, 55.1189)">
<path transform="scale(0.0029, -0.0029)" d="M208 139c61 0 117 -33 117 -99c0 -71 -52 -119 -99 -147c-34 -20 -71 -32 -110 -32c-61 0 -116 33 -116 99c0 71 51 119 98 147c34 20 71 32 110 32z" fill="currentColor"/>
</g>
<g transform="translate(49.5951, 54.7504)">
<rect x="-0.0614" y="-3.3158" width="0.1228" height="3.1966" ry="0.0421" fill="currentColor"/>
</g>
<g transform="translate(48.7000, 54.7504)">
<path transform="scale(0.0029, -0.0029)" d="M208 139c61 0 117 -33 117 -99c0 -71 -52 -119 -99 -147c-34 -20 -71 -32 -110 -32c-61 0 -116 33 -116 99c0 71 51 119 98 147c34 20 71 32 110 32z" fill="currentColor"/>
</g>
<g transform="translate(135.0770, 54.7504)">
<rect x="-0.0614" y="-1.2457" width="0.1228" height="2.6002" ry="0.0421" fill="currentColor"/>
</g>
<g transform="translate(134.1819, 56.2241)">
<path transform="scale(0.0029, -0.0029)" d="M208 139c61 0 117 -33 117 -99c0 -71 -52 -119 -99 -147c-34 -20 -71 -32 -110 -32c-61 0 -116 33 -116 99c0 71 51 119 98 147c34 20 71 32 110 32z" fill="currentColor"/>
</g>
<g transform="translate(133.5205, 54.7504)">
<rect x="-0.0614" y="-1.1511" width="0.1228" height="2.8740" ry="0.0421" fill="currentColor"/>
</g>
<g transform="translate(132.6254, 56.5926)">
<path transform="scale(0.0029, -0.0029)" d="M208 139c61 0 117 -33 117 -99c0 -71 -52 -119 -99 -147c-34 -20 -71 -32 -110 -32c-61 0 -116 33 -116 99c0 71 51 119 98 147c34 20 71 32 110 32z" fill="currentColor"/>
</g>
<g transform="translate(131.9640, 54.7504)">
<rect x="-0.0614" y="-1.0565" width="0.1228" height="3.1478" ry="0.0421" fill="currentColor"/>
</g>
<g transform="translate(138.1899, 54.7504)">
<rect x="-0.0614" y="-2.5789" width="0.1228" height="3.1966" ry="0.0421" fill="currentColor"/>
</g>
<g transform="translate(139.7464, 54.7504)">
<rect x="-0.0614" y="-2.5789" width="0.1228" height="2.8281" ry="0.0421" fill="currentColor"/>
</g>
<g transform="translate(138.8513, 55.1189)">
<path transform="scale(0.0029, -0.0029)" d="M208 139c61 0 117 -33 117 -99c0 -71 -52 -119 -99 -147c-34 -20 -71 -32 -110 -32c-61 0 -116 33 -116 99c0 71 51 119 98 147c34 20 71 32 110 32z" fill="currentColor"/>
</g>
<g transform="translate(131.0689, 56.9610)">
<path transform="scale(0.0029, -0.0029)" d="M208 139c61 0 117 -33 117 -99c0 -71 -52 -119 -99 -147c-34 -20 -71 -32 -110 -32c-61 0 -116 33 -116 99c0 71 51 119 98 147c34 20 71 32 110 32z" fill="currentColor"/>
</g>
<g transform="translate(137.2948, 55.4873)">
<path transform="scale(0.0029, -0.0029)" d="M208 139c61 0 117 -33 117 -99c0 -71 -52 -119 -99 -147c-34 -20 -71 -32 -110 -32c-61 0 -116 33 -116 99c0 71 51 119 98 147c34 20 71 32 110 32z" fill="currentColor"/>
</g>
<g transform="translate(136.6335, 54.7504)">
<rect x="-0.0614" y="-1.3403" width="0.1228" height="2.3264" ry="0.0421" fill="currentColor"/>
</g>
<g transform="translate(135.7384, 55.8557)">
<path transform="scale(0.0029, -0.0029)" d="M208 139c61 0 117 -33 117 -99c0 -71 -52 -119 -99 -147c-34 -20 -71 -32 -110 -32c-61 0 -116 33 -116 99c0 71 51 119 98 147c34 20 71 32 110 32z" fill="currentColor"/>
</g>
<g transform="translate(127.0445, 54.7504)">
<rect x="-0.0614" y="-0.7576" width="0.1228" height="3.2173" ry="0.0421" fill="currentColor"/>
</g>
<g transform="translate(126.1494, 57.3294)">
<path transform="scale(0.0029, -0.0029)" d="M208 139c61 0 117 -33 117 -99c0 -71 -52 -119 -99 -147c-34 -20 -71 -32 -110 -32c-61 0 -116 33 -116 99c0 71 51 119 98 147c34 20 71 32 110 32z" fill="currentColor"/>
</g>
<g transform="translate(122.5766, 56.9610)">
<path transform="scale(0.0029, -0.0029)" d="M0 114c0 12 7 22 18 26l37 15v151c0 12 10 22 22 22s22 -10 22 -22v-134l77 29v152c0 12 10 22 22 22s22 -10 22 -22v-134l16 6c3 1 8 2 11 2c15 0 28 -12 28 -28v-50c0 -12 -7 -23 -18 -27l-37 -14v-152l16 7c3 1 8 2 11 2c15 0 28 -13 28 -29v-50c0 -12 -7 -22 -18 -26
l-37 -15v-151c0 -12 -10 -22 -22 -22s-22 10 -22 22v134l-77 -29v-152c0 -12 -10 -22 -22 -22s-22 10 -22 22v134l-16 -6c-3 -1 -8 -2 -11 -2c-15 0 -28 12 -28 28v50c0 12 7 23 18 27l37 14v152l-16 -7c-3 -1 -8 -2 -11 -2c-15 0 -28 13 -28 29v50zM176 91l-77 -30v-152
l77 30v152z" fill="currentColor"/>
</g>
<g transform="translate(130.1575, 54.7504)">
<rect x="-0.0614" y="-0.9468" width="0.1228" height="3.4065" ry="0.0421" fill="currentColor"/>
</g>
<g transform="translate(128.6010, 54.7504)">
<rect x="-0.0614" y="-0.8522" width="0.1228" height="3.6803" ry="0.0421" fill="currentColor"/>
</g>
<g transform="translate(127.7059, 57.6978)">
<path transform="scale(0.0029, -0.0029)" d="M208 139c61 0 117 -33 117 -99c0 -71 -52 -119 -99 -147c-34 -20 -71 -32 -110 -32c-61 0 -116 33 -116 99c0 71 51 119 98 147c34 20 71 32 110 32z" fill="currentColor"/>
</g>
<g transform="translate(125.2936, 57.3294)">
<path transform="scale(0.0029, -0.0029)" d="M-8 375c8 5 18 7 27 7s20 -2 28 -7l-3 -196l99 24h4c11 0 20 -8 20 -19l8 -559c-8 -5 -19 -7 -28 -7s-19 2 -27 7l3 196l-99 -24h-5c-11 0 -19 8 -19 19zM127 109l-85 -20l-2 -198l84 20z" fill="currentColor"/>
</g>
<g transform="translate(153.7097, 54.0136)">
<path transform="scale(0.0029, -0.0029)" d="M208 139c61 0 117 -33 117 -99c0 -71 -52 -119 -99 -147c-34 -20 -71 -32 -110 -32c-61 0 -116 33 -116 99c0 71 51 119 98 147c34 20 71 32 110 32z" fill="currentColor"/>
</g>
<g transform="translate(153.0483, 54.7504)">
<rect x="-0.0614" y="-3.5546" width="0.1228" height="2.3301" ry="0.0421" fill="currentColor"/>
</g>
<g transform="translate(152.1532, 53.6452)">
<path transform="scale(0.0029, -0.0029)" d="M208 139c61 0 117 -33 117 -99c0 -71 -52 -119 -99 -147c-34 -20 -71 -32 -110 -32c-61 0 -116 33 -116 99c0 71 51 119 98 147c34 20 71 32 110 32z" fill="currentColor"/>
</g>
<g transform="translate(154.6048, 54.7504)">
<rect x="-0.0614" y="-3.5546" width="0.1228" height="2.6985" ry="0.0421" fill="currentColor"/>
</g>
<g transform="translate(150.6418, 54.7504)">
<rect x="-0.0614" y="-3.5546" width="0.1228" height="5.6459" ry="0.0421" fill="currentColor"/>
</g>
<g transform="translate(149.7467, 56.9610)">
<path transform="scale(0.0029, -0.0029)" d="M208 139c61 0 117 -33 117 -99c0 -71 -52 -119 -99 -147c-34 -20 -71 -32 -110 -32c-61 0 -116 33 -116 99c0 71 51 119 98 147c34 20 71 32 110 32z" fill="currentColor"/>
</g>
<g transform="translate(159.7342, 54.7504)">
<rect x="-0.0614" y="-3.5546" width="0.1228" height="3.4354" ry="0.0421" fill="currentColor"/>
</g>
<g transform="translate(158.8391, 54.7504)">
<path transform="scale(0.0029, -0.0029)" d="M208 139c61 0 117 -33 117 -99c0 -71 -52 -119 -99 -147c-34 -20 -71 -32 -110 -32c-61 0 -116 33 -116 99c0 71 51 119 98 147c34 20 71 32 110 32z" fill="currentColor"/>
</g>
<g transform="translate(155.2662, 54.3820)">
<path transform="scale(0.0029, -0.0029)" d="M0 114c0 12 7 22 18 26l37 15v151c0 12 10 22 22 22s22 -10 22 -22v-134l77 29v152c0 12 10 22 22 22s22 -10 22 -22v-134l16 6c3 1 8 2 11 2c15 0 28 -12 28 -28v-50c0 -12 -7 -23 -18 -27l-37 -14v-152l16 7c3 1 8 2 11 2c15 0 28 -13 28 -29v-50c0 -12 -7 -22 -18 -26
l-37 -15v-151c0 -12 -10 -22 -22 -22s-22 10 -22 22v134l-77 -29v-152c0 -12 -10 -22 -22 -22s-22 10 -22 22v134l-16 -6c-3 -1 -8 -2 -11 -2c-15 0 -28 12 -28 28v50c0 12 7 23 18 27l37 14v152l-16 -7c-3 -1 -8 -2 -11 -2c-15 0 -28 13 -28 29v50zM176 91l-77 -30v-152
l77 30v152z" fill="currentColor"/>
</g>
<g transform="translate(157.3218, 54.7504)">
<rect x="-0.0614" y="-3.5546" width="0.1228" height="3.0669" ry="0.0421" fill="currentColor"/>
</g>
<g transform="translate(156.4267, 54.3820)">
<path transform="scale(0.0029, -0.0029)" d="M208 139c61 0 117 -33 117 -99c0 -71 -52 -119 -99 -147c-34 -20 -71 -32 -110 -32c-61 0 -116 33 -116 99c0 71 51 119 98 147c34 20 71 32 110 32z" fill="currentColor"/>
</g>
<g transform="translate(141.9643, 55.1189)">
<path transform="scale(0.0029, -0.0029)" d="M208 139c61 0 117 -33 117 -99c0 -71 -52 -119 -99 -147c-34 -20 -71 -32 -110 -32c-61 0 -116 33 -116 99c0 71 51 119 98 147c34 20 71 32 110 32z" fill="currentColor"/>
</g>
<g transform="translate(144.4159, 54.7504)">
<rect x="-0.0614" y="-2.5789" width="0.1228" height="3.1966" ry="0.0421" fill="currentColor"/>
</g>
<g transform="translate(143.5208, 55.4873)">
<path transform="scale(0.0029, -0.0029)" d="M208 139c61 0 117 -33 117 -99c0 -71 -52 -119 -99 -147c-34 -20 -71 -32 -110 -32c-61 0 -116 33 -116 99c0 71 51 119 98 147c34 20 71 32 110 32z" fill="currentColor"/>
</g>
<g transform="translate(142.8594, 54.7504)">
<rect x="-0.0614" y="-2.5789" width="0.1228" height="2.8281" ry="0.0421" fill="currentColor"/>
</g>
<g transform="translate(141.3029, 54.7504)">
<rect x="-0.0614" y="-2.5789" width="0.1228" height="2.4597" ry="0.0421" fill="currentColor"/>
</g>
<g transform="translate(140.4078, 54.7504)">
<path transform="scale(0.0029, -0.0029)" d="M208 139c61 0 117 -33 117 -99c0 -71 -52 -119 -99 -147c-34 -20 -71 -32 -110 -32c-61 0 -116 33 -116 99c0 71 51 119 98 147c34 20 71 32 110 32z" fill="currentColor"/>
</g>
<g transform="translate(149.0854, 54.7504)">
<rect x="-0.0614" y="-2.5789" width="0.1228" height="4.3018" ry="0.0421" fill="currentColor"/>
</g>
<g transform="translate(148.1903, 56.5926)">
<path transform="scale(0.0029, -0.0029)" d="M208 139c61 0 117 -33 117 -99c0 -71 -52 -119 -99 -147c-34 -20 -71 -32 -110 -32c-61 0 -116 33 -116 99c0 71 51 119 98 147c34 20 71 32 110 32z" fill="currentColor"/>
</g>
<g transform="translate(147.5289, 54.7504)">
<rect x="-0.0614" y="-2.5789" width="0.1228" height="3.9334" ry="0.0421" fill="currentColor"/>
</g>
<g transform="translate(146.6338, 56.2241)">
<path transform="scale(0.0029, -0.0029)" d="M208 139c61 0 117 -33 117 -99c0 -71 -52 -119 -99 -147c-34 -20 -71 -32 -110 -32c-61 0 -116 33 -116 99c0 71 51 119 98 147c34 20 71 32 110 32z" fill="currentColor"/>
</g>
<g transform="translate(129.2624, 57.3294)">
<path transform="scale(0.0029, -0.0029)" d="M208 139c61 0 117 -33 117 -99c0 -71 -52 -119 -99 -147c-34 -20 -71 -32 -110 -32c-61 0 -116 33 -116 99c0 71 51 119 98 147c34 20 71 32 110 32z" fill="currentColor"/>
</g>
<g transform="translate(145.9724, 54.7504)">
<rect x="-0.0614" y="-2.5789" width="0.1228" height="3.5650" ry="0.0421" fill="currentColor"/>
</g>
<g transform="translate(145.0773, 55.8557)">
<path transform="scale(0.0029, -0.0029)" d="M208 139c61 0 117 -33 117 -99c0 -71 -52 -119 -99 -147c-34 -20 -71 -32 -110 -32c-61 0 -116 33 -116 99c0 71 51 119 98 147c34 20 71 32 110 32z" fill="currentColor"/>
</g>
<g transform="translate(111.3524, 54.7504)">
<path transform="scale(0.0029, -0.0029)" d="M208 139c61 0 117 -33 117 -99c0 -71 -52 -119 -99 -147c-34 -20 -71 -32 -110 -32c-61 0 -116 33 -116 99c0 71 51 119 98 147c34 20 71 32 110 32z" fill="currentColor"/>
</g>
<g transform="translate(112.2475, 54.7504)">
<rect x="-0.0614" y="-2.5789" width="0.1228" height="2.4597" ry="0.0421" fill="currentColor"/>
</g>
<g transform="translate(112.9088, 55.1189)">
<path transform="scale(0.0029, -0.0029)" d="M208 139c61 0 117 -33 117 -99c0 -71 -52 -119 -99 -147c-34 -20 -71 -32 -110 -32c-61 0 -116 33 -116 99c0 71 51 119 98 147c34 20 71 32 110 32z" fill="currentColor"/>
</g>
<g transform="translate(113.8040, 54.7504)">
<rect x="-0.0614" y="-2.5789" width="0.1228" height="2.8281" ry="0.0421" fill="currentColor"/>
</g>
<g transform="translate(109.8410, 54.7504)">
<rect x="-0.0614" y="-2.5789" width="0.1228" height="5.7755" ry="0.0421" fill="currentColor"/>
</g>
<g transform="translate(114.4653, 55.4873)">
<path transform="scale(0.0029, -0.0029)" d="M208 139c61 0 117 -33 117 -99c0 -71 -52 -119 -99 -147c-34 -20 -71 -32 -110 -32c-61 0 -116 33 -116 99c0 71 51 119 98 147c34 20 71 32 110 32z" fill="currentColor"/>
</g>
<g transform="translate(115.3604, 54.7504)">
<rect x="-0.0614" y="-2.5789" width="0.1228" height="3.1966" ry="0.0421" fill="currentColor"/>
</g>
<g transform="translate(116.0218, 55.8557)">
<path transform="scale(0.0029, -0.0029)" d="M208 139c61 0 117 -33 117 -99c0 -71 -52 -119 -99 -147c-34 -20 -71 -32 -110 -32c-61 0 -116 33 -116 99c0 71 51 119 98 147c34 20 71 32 110 32z" fill="currentColor"/>
</g>
<g transform="translate(116.9169, 54.7504)">
<rect x="-0.0614" y="-2.5789" width="0.1228" height="3.5650" ry="0.0421" fill="currentColor"/>
</g>
<g transform="translate(101.6199, 56.5926)">
<path transform="scale(0.0029, -0.0029)" d="M208 139c61 0 117 -33 117 -99c0 -71 -52 -119 -99 -147c-34 -20 -71 -32 -110 -32c-61 0 -116 33 -116 99c0 71 51 119 98 147c34 20 71 32 110 32z" fill="currentColor"/>
</g>
<g transform="translate(102.5150, 54.7504)">
<rect x="-0.0614" y="-0.6072" width="0.1228" height="2.3301" ry="0.0421" fill="currentColor"/>
</g>
<g transform="translate(103.1764, 56.9610)">
<path transform="scale(0.0029, -0.0029)" d="M208 139c61 0 117 -33 117 -99c0 -71 -52 -119 -99 -147c-34 -20 -71 -32 -110 -32c-61 0 -116 33 -116 99c0 71 51 119 98 147c34 20 71 32 110 32z" fill="currentColor"/>
</g>
<g transform="translate(104.0715, 54.7504)">
<rect x="-0.0614" y="-0.6072" width="0.1228" height="2.6985" ry="0.0421" fill="currentColor"/>
</g>
<g transform="translate(124.6322, 54.7504)">
<rect x="-0.0614" y="-0.6109" width="0.1228" height="2.7022" ry="0.0421" fill="currentColor"/>
</g>
<g transform="translate(104.6329, 57.3294)">
<path transform="scale(0.0029, -0.0029)" d="M208 139c61 0 117 -33 117 -99c0 -71 -52 -119 -99 -147c-34 -20 -71 -32 -110 -32c-61 0 -116 33 -116 99c0 71 51 119 98 147c34 20 71 32 110 32z" fill="currentColor"/>
</g>
<g transform="translate(105.5280, 54.7504)">
<rect x="-0.0614" y="-0.6072" width="0.1228" height="3.0669" ry="0.0421" fill="currentColor"/>
</g>
<g transform="translate(106.7894, 57.6978)">
<path transform="scale(0.0029, -0.0029)" d="M208 139c61 0 117 -33 117 -99c0 -71 -52 -119 -99 -147c-34 -20 -71 -32 -110 -32c-61 0 -116 33 -116 99c0 71 51 119 98 147c34 20 71 32 110 32z" fill="currentColor"/>
</g>
<g transform="translate(107.6845, 54.7504)">
<rect x="-0.0614" y="-0.6072" width="0.1228" height="3.4354" ry="0.0421" fill="currentColor"/>
</g>
<g transform="translate(108.9459, 58.0662)">
<path transform="scale(0.0029, -0.0029)" d="M208 139c61 0 117 -33 117 -99c0 -71 -52 -119 -99 -147c-34 -20 -71 -32 -110 -32c-61 0 -116 33 -116 99c0 71 51 119 98 147c34 20 71 32 110 32z" fill="currentColor"/>
</g>
<g transform="translate(117.5783, 56.2241)">
<path transform="scale(0.0029, -0.0029)" d="M-8 375c8 5 18 7 27 7s20 -2 28 -7l-3 -196l99 24h4c11 0 20 -8 20 -19l8 -559c-8 -5 -19 -7 -28 -7s-19 2 -27 7l3 196l-99 -24h-5c-11 0 -19 8 -19 19zM127 109l-85 -20l-2 -198l84 20z" fill="currentColor"/>
</g>
<g transform="translate(119.3293, 54.7504)">
<rect x="-0.0614" y="-2.5789" width="0.1228" height="3.9334" ry="0.0421" fill="currentColor"/>
</g>
<g transform="translate(120.8858, 54.7504)">
<rect x="-0.0614" y="-2.5789" width="0.1228" height="4.3018" ry="0.0421" fill="currentColor"/>
</g>
<g transform="translate(123.7371, 56.9610)">
<path transform="scale(0.0029, -0.0029)" d="M208 139c61 0 117 -33 117 -99c0 -71 -52 -119 -99 -147c-34 -20 -71 -32 -110 -32c-61 0 -116 33 -116 99c0 71 51 119 98 147c34 20 71 32 110 32z" fill="currentColor"/>
</g>
<g transform="translate(119.9906, 56.5926)">
<path transform="scale(0.0029, -0.0029)" d="M208 139c61 0 117 -33 117 -99c0 -71 -52 -119 -99 -147c-34 -20 -71 -32 -110 -32c-61 0 -116 33 -116 99c0 71 51 119 98 147c34 20 71 32 110 32z" fill="currentColor"/>
</g>
<g transform="translate(118.4342, 56.2241)">
<path transform="scale(0.0029, -0.0029)" d="M208 139c61 0 117 -33 117 -99c0 -71 -52 -119 -99 -147c-34 -20 -71 -32 -110 -32c-61 0 -116 33 -116 99c0 71 51 119 98 147c34 20 71 32 110 32z" fill="currentColor"/>
</g>
</svg>
