<svg xmlns="http://www.w3.org/2000/svg" xmlns:xlink="http://www.w3.org/1999/xlink" version="1.2" width="594.00mm" height="420.00mm" viewBox="0.0000 -0.0000 355.8092 251.5823">
<style type="text/css">
<![CDATA[
tspan { white-space: pre; }
]]>
</style>
<g transform="translate(17.9702, 56.2241)">
<line stroke-linejoin="round" stroke-linecap="round" stroke-width="0.0944" stroke="currentColor" x1="0.0472" y1="0" x2="118.0798" y2="0"/>
</g>
<g transform="translate(17.9702, 55.4873)">
<line stroke-linejoin="round" stroke-linecap="round" stroke-width="0.0944" stroke="currentColor" x1="0.0472" y1="0" x2="118.0798" y2="0"/>
</g>
<g transform="translate(17.9702, 54.7504)">
<line stroke-linejoin="round" stroke-linecap="round" stroke-width="0.0944" stroke="currentColor" x1="0.0472" y1="0" x2="118.0798" y2="0"/>
</g>
<g transform="translate(17.9702, 54.0136)">
<line stroke-linejoin="round" stroke-linecap="round" stroke-width="0.0944" stroke="currentColor" x1="0.0472" y1="0" x2="118.0798" y2="0"/>
</g>
<g transform="translate(17.9702, 53.2768)">
<line stroke-linejoin="round" stroke-linecap="round" stroke-width="0.0944" stroke="currentColor" x1="0.0472" y1="0" x2="118.0798" y2="0"/>
</g>
<g transform="translate(80.0481, 54.7504)">
<rect x="0.0000" y="-1.4737" width="0.1794" height="2.9474" ry="0.0000" fill="currentColor"/>
</g>
<g transform="translate(107.6257, 54.7504)">
<rect x="0.0000" y="-1.4737" width="0.1794" height="2.9474" ry="0.0000" fill="currentColor"/>
</g>
<g transform="translate(52.2204, 54.7504)">
<rect x="0.0000" y="-1.4737" width="0.1794" height="2.9474" ry="0.0000" fill="currentColor"/>
</g>
<g transform="translate(135.9177, 54.7504)">
<rect x="0.0000" y="-1.4737" width="0.1794" height="2.9474" ry="0.0000" fill="currentColor"/>
</g>
<g transform="translate(17.9702, 52.5399)">
<rect x="97.7154" y="-0.0841" width="1.4347" height="0.1681" ry="0.0841" fill="currentColor"/>
</g>
<g transform="translate(17.9702, 52.5399)">
<rect x="72.3547" y="-0.0841" width="1.4347" height="0.1681" ry="0.0841" fill="currentColor"/>
</g>
<g transform="translate(17.9702, 52.5399)">
<rect x="70.4482" y="-0.0841" width="1.4347" height="0.1681" ry="0.0841" fill="currentColor"/>
</g>
<g transform="translate(17.9702, 52.5399)">
<rect x="42.6205" y="-0.0841" width="1.4347" height="0.1681" ry="0.0841" fill="currentColor"/>
</g>
<g transform="translate(104.1480, 54.7504)">
<rect x="-0.0614" y="-2.8177" width="0.1228" height="2.3301" ry="0.0421" fill="currentColor"/>
</g>
<g transform="translate(103.2529, 54.3820)">
<path transform="scale(0.0029, -0.0029)" d="M208 139c61 0 117 -33 117 -99c0 -71 -52 -119 -99 -147c-34 -20 -71 -32 -110 -32c-61 0 -116 33 -116 99c0 71 51 119 98 147c34 20 71 32 110 32z" fill="currentColor"/>
</g>
<g transform="translate(101.9915, 54.7504)">
<rect x="-0.0614" y="-2.8177" width="0.1228" height="1.9617" ry="0.0421" fill="currentColor"/>
</g>
<g transform="translate(101.0964, 54.0136)">
<path transform="scale(0.0029, -0.0029)" d="M208 139c61 0 117 -33 117 -99c0 -71 -52 -119 -99 -147c-34 -20 -71 -32 -110 -32c-61 0 -116 33 -116 99c0 71 51 119 98 147c34 20 71 32 110 32z" fill="currentColor"/>
</g>
<g transform="translate(99.5850, 54.7504)">
<rect x="-0.0614" y="-2.8177" width="0.1228" height="3.8038" ry="0.0421" fill="currentColor"/>
</g>
<g transform="translate(98.6899, 55.8557)">
<path transform="scale(0.0029, -0.0029)" d="M208 139c61 0 117 -33 117 -99c0 -71 -52 -119 -99 -147c-34 -20 -71 -32 -110 -32c-61 0 -116 33 -116 99c0 71 51 119 98 147c34 20 71 32 110 32z" fill="currentColor"/>
</g>
<g transform="translate(97.6785, 54.7504)">
<rect x="-0.0614" y="-3.3229" width="0.1228" height="2.4669" ry="0.0421" fill="currentColor"/>
</g>
<g transform="translate(96.7834, 54.0136)">
<path transform="scale(0.0029, -0.0029)" d="M208 139c61 0 117 -33 117 -99c0 -71 -52 -119 -99 -147c-34 -20 -71 -32 -110 -32c-61 0 -116 33 -116 99c0 71 51 119 98 147c34 20 71 32 110 32z" fill="currentColor"/>
</g>
<g transform="translate(119.9876, 54.7504)">
<path stroke-width="0.0755" stroke-linejoin="round" stroke-linecap="round" stroke="currentColor" fill="currentColor" d="M0.9067 -3.5419C1.9648 -4.4191 4.7883 -4.3168 5.7802 -3.3652L5.7802 -3.3652C4.7842 -4.2036 1.9607 -4.3059 0.9067 -3.5419z"/>
</g>
<g transform="translate(109.6003, 54.7504)">
<rect x="-0.0614" y="-2.8322" width="0.1228" height="3.4498" ry="0.0421" fill="currentColor"/>
</g>
<g transform="translate(95.5221, 54.7504)">
<rect x="-0.0614" y="-3.5735" width="0.1228" height="3.0858" ry="0.0421" fill="currentColor"/>
</g>
<g transform="translate(108.7052, 55.4873)">
<path transform="scale(0.0029, -0.0029)" d="M208 139c61 0 117 -33 117 -99c0 -71 -52 -119 -99 -147c-34 -20 -71 -32 -110 -32c-61 0 -116 33 -116 99c0 71 51 119 98 147c34 20 71 32 110 32z" fill="currentColor"/>
</g>
<g transform="translate(106.3045, 54.7504)">
<rect x="-0.0614" y="-2.8177" width="0.1228" height="1.9617" ry="0.0421" fill="currentColor"/>
</g>
<g transform="translate(105.4094, 54.0136)">
<path transform="scale(0.0029, -0.0029)" d="M208 139c61 0 117 -33 117 -99c0 -71 -52 -119 -99 -147c-34 -20 -71 -32 -110 -32c-61 0 -116 33 -116 99c0 71 51 119 98 147c34 20 71 32 110 32z" fill="currentColor"/>
</g>
<g transform="translate(87.1461, 54.7504)">
<rect x="-0.0614" y="-3.8270" width="0.1228" height="3.3394" ry="0.0421" fill="currentColor"/>
</g>
<g transform="translate(86.2510, 54.3820)">
<path transform="scale(0.0029, -0.0029)" d="M208 139c61 0 117 -33 117 -99c0 -71 -52 -119 -99 -147c-34 -20 -71 -32 -110 -32c-61 0 -116 33 -116 99c0 71 51 119 98 147c34 20 71 32 110 32z" fill="currentColor"/>
</g>
<g transform="translate(84.4291, 54.7504)">
<rect x="-0.0614" y="-3.1730" width="0.1228" height="3.4222" ry="0.0421" fill="currentColor"/>
</g>
<g transform="translate(83.5340, 55.1189)">
<path transform="scale(0.0029, -0.0029)" d="M208 139c61 0 117 -33 117 -99c0 -71 -52 -119 -99 -147c-34 -20 -71 -32 -110 -32c-61 0 -116 33 -116 99c0 71 51 119 98 147c34 20 71 32 110 32z" fill="currentColor"/>
</g>
<g transform="translate(82.0226, 54.7504)">
<rect x="-0.0614" y="-2.5937" width="0.1228" height="3.5798" ry="0.0421" fill="currentColor"/>
</g>
<g transform="translate(127.6013, 52.1715)">
<polygon stroke-linejoin="round" stroke-linecap="round" stroke-width="0.0842" fill="currentColor" stroke="currentColor" points="7.0501 -0.8716 7.0501 -0.6021 0.0421 0.1347 0.0421 -0.1347"/>
</g>
<g transform="translate(127.6013, 52.7787)">
<polygon stroke-linejoin="round" stroke-linecap="round" stroke-width="0.0842" fill="currentColor" stroke="currentColor" points="7.0501 -0.8716 7.0501 -0.6021 0.0421 0.1347 0.0421 -0.1347"/>
</g>
<g transform="translate(91.4591, 54.7504)">
<rect x="-0.0614" y="-4.0455" width="0.1228" height="1.7157" ry="0.0421" fill="currentColor"/>
</g>
<g transform="translate(94.6269, 54.3820)">
<path transform="scale(0.0029, -0.0029)" d="M208 139c61 0 117 -33 117 -99c0 -71 -52 -119 -99 -147c-34 -20 -71 -32 -110 -32c-61 0 -116 33 -116 99c0 71 51 119 98 147c34 20 71 32 110 32z" fill="currentColor"/>
</g>
<g transform="translate(93.3656, 54.7504)">
<rect x="-0.0614" y="-3.8240" width="0.1228" height="2.9679" ry="0.0421" fill="currentColor"/>
</g>
<g transform="translate(92.4705, 54.0136)">
<path transform="scale(0.0029, -0.0029)" d="M208 139c61 0 117 -33 117 -99c0 -71 -52 -119 -99 -147c-34 -20 -71 -32 -110 -32c-61 0 -116 33 -116 99c0 71 51 119 98 147c34 20 71 32 110 32z" fill="currentColor"/>
</g>
<g transform="translate(90.5640, 52.5399)">
<path transform="scale(0.0029, -0.0029)" d="M208 139c61 0 117 -33 117 -99c0 -71 -52 -119 -99 -147c-34 -20 -71 -32 -110 -32c-61 0 -116 33 -116 99c0 71 51 119 98 147c34 20 71 32 110 32z" fill="currentColor"/>
</g>
<g transform="translate(89.5526, 54.7504)">
<rect x="-0.0614" y="-4.4063" width="0.1228" height="1.7081" ry="0.0421" fill="currentColor"/>
</g>
<g transform="translate(88.6575, 52.1715)">
<path transform="scale(0.0029, -0.0029)" d="M208 139c61 0 117 -33 117 -99c0 -71 -52 -119 -99 -147c-34 -20 -71 -32 -110 -32c-61 0 -116 33 -116 99c0 71 51 119 98 147c34 20 71 32 110 32z" fill="currentColor"/>
</g>
<g transform="translate(85.0905, 54.3820)">
<path transform="scale(0.0029, -0.0029)" d="M0 114c0 12 7 22 18 26l37 15v151c0 12 10 22 22 22s22 -10 22 -22v-134l77 29v152c0 12 10 22 22 22s22 -10 22 -22v-134l16 6c3 1 8 2 11 2c15 0 28 -12 28 -28v-50c0 -12 -7 -23 -18 -27l-37 -14v-152l16 7c3 1 8 2 11 2c15 0 28 -13 28 -29v-50c0 -12 -7 -22 -18 -26
l-37 -15v-151c0 -12 -10 -22 -22 -22s-22 10 -22 22v134l-77 -29v-152c0 -12 -10 -22 -22 -22s-22 10 -22 22v134l-16 -6c-3 -1 -8 -2 -11 -2c-15 0 -28 12 -28 28v50c0 12 7 23 18 27l37 14v152l-16 -7c-3 -1 -8 -2 -11 -2c-15 0 -28 13 -28 29v50zM176 91l-77 -30v-152
l77 30v152z" fill="currentColor"/>
</g>
<g transform="translate(118.6648, 51.6735)">
<polygon stroke-linejoin="round" stroke-linecap="round" stroke-width="0.0842" fill="currentColor" stroke="currentColor" points="7.1107 0.1245 7.1107 0.3940 0.0421 0.1347 0.0421 -0.1347"/>
</g>
<g transform="translate(118.6648, 52.2807)">
<polygon stroke-linejoin="round" stroke-linecap="round" stroke-width="0.0842" fill="currentColor" stroke="currentColor" points="7.1107 0.1245 7.1107 0.3940 0.0421 0.1347 0.0421 -0.1347"/>
</g>
<g transform="translate(134.6322, 54.7504)">
<rect x="-0.0614" y="-3.3094" width="0.1228" height="2.0849" ry="0.0421" fill="currentColor"/>
</g>
<g transform="translate(133.7371, 53.6452)">
<path transform="scale(0.0029, -0.0029)" d="M208 139c61 0 117 -33 117 -99c0 -71 -52 -119 -99 -147c-34 -20 -71 -32 -110 -32c-61 0 -116 33 -116 99c0 71 51 119 98 147c34 20 71 32 110 32z" fill="currentColor"/>
</g>
<g transform="translate(132.2257, 54.7504)">
<rect x="-0.0614" y="-3.0594" width="0.1228" height="2.5717" ry="0.0421" fill="currentColor"/>
</g>
<g transform="translate(131.3306, 54.3820)">
<path transform="scale(0.0029, -0.0029)" d="M208 139c61 0 117 -33 117 -99c0 -71 -52 -119 -99 -147c-34 -20 -71 -32 -110 -32c-61 0 -116 33 -116 99c0 71 51 119 98 147c34 20 71 32 110 32z" fill="currentColor"/>
</g>
<g transform="translate(130.0692, 54.7504)">
<rect x="-0.0614" y="-2.8353" width="0.1228" height="1.9793" ry="0.0421" fill="currentColor"/>
</g>
<g transform="translate(129.1741, 54.0136)">
<path transform="scale(0.0029, -0.0029)" d="M208 139c61 0 117 -33 117 -99c0 -71 -52 -119 -99 -147c-34 -20 -71 -32 -110 -32c-61 0 -116 33 -116 99c0 71 51 119 98 147c34 20 71 32 110 32z" fill="currentColor"/>
</g>
<g transform="translate(54.1335, 52.6695)">
<polygon stroke-linejoin="round" stroke-linecap="round" stroke-width="0.0842" fill="currentColor" stroke="currentColor" points="7.6107 -2.1065 7.6107 -1.8370 0.0421 0.1347 0.0421 -0.1347"/>
</g>
<g transform="translate(54.1335, 53.2768)">
<polygon stroke-linejoin="round" stroke-linecap="round" stroke-width="0.0842" fill="currentColor" stroke="currentColor" points="7.6107 -2.1065 7.6107 -1.8370 0.0421 0.1347 0.0421 -0.1347"/>
</g>
<g transform="translate(109.5389, 51.9327)">
<polygon stroke-linejoin="round" stroke-linecap="round" stroke-width="0.0842" fill="currentColor" stroke="currentColor" points="7.3001 -1.8677 7.3001 -1.5982 0.0421 0.1347 0.0421 -0.1347"/>
</g>
<g transform="translate(109.5389, 52.5399)">
<polygon stroke-linejoin="round" stroke-linecap="round" stroke-width="0.0842" fill="currentColor" stroke="currentColor" points="7.3001 -1.8677 7.3001 -1.5982 0.0421 0.1347 0.0421 -0.1347"/>
</g>
<g transform="translate(101.0964, 54.7504)">
<path stroke-width="0.0755" stroke-linejoin="round" stroke-linecap="round" stroke="currentColor" fill="currentColor" d="M0.8951 -3.3630C1.8402 -4.2216 4.2629 -4.2216 5.2081 -3.3630L5.2081 -3.3630C4.2629 -4.1083 1.8402 -4.1083 0.8951 -3.3630z"/>
</g>
<g transform="translate(99.5236, 51.9327)">
<polygon stroke-linejoin="round" stroke-linecap="round" stroke-width="0.0842" fill="currentColor" stroke="currentColor" points="6.8001 -0.1347 6.8001 0.1347 0.0421 0.1347 0.0421 -0.1347"/>
</g>
<g transform="translate(99.5236, 52.5399)">
<polygon stroke-linejoin="round" stroke-linecap="round" stroke-width="0.0842" fill="currentColor" stroke="currentColor" points="6.8001 -0.1347 6.8001 0.1347 0.0421 0.1347 0.0421 -0.1347"/>
</g>
<g transform="translate(92.4705, 54.7504)">
<path stroke-width="0.0755" stroke-linejoin="round" stroke-linecap="round" stroke="currentColor" fill="currentColor" d="M0.9319 -4.3693C1.9744 -5.1156 4.4012 -4.8337 5.2449 -3.8682L5.2449 -3.8682C4.3881 -4.7211 1.9614 -5.0031 0.9319 -4.3693z"/>
</g>
<g transform="translate(91.3977, 50.6978)">
<polygon stroke-linejoin="round" stroke-linecap="round" stroke-width="0.0842" fill="currentColor" stroke="currentColor" points="6.3001 0.6021 6.3001 0.8716 0.0421 0.1347 0.0421 -0.1347"/>
</g>
<g transform="translate(91.3977, 51.3050)">
<polygon stroke-linejoin="round" stroke-linecap="round" stroke-width="0.0842" fill="currentColor" stroke="currentColor" points="6.3001 0.6021 6.3001 0.8716 0.0421 0.1347 0.0421 -0.1347"/>
</g>
<g transform="translate(81.1275, 54.7504)">
<path stroke-width="0.0755" stroke-linejoin="round" stroke-linecap="round" stroke="currentColor" fill="currentColor" d="M0.8205 -3.1390C1.8761 -4.5317 6.7768 -5.7114 8.3505 -4.9515L8.3505 -4.9515C6.8033 -5.6012 1.9026 -4.4216 0.8205 -3.1390z"/>
</g>
<g transform="translate(81.9612, 52.1715)">
<polygon stroke-linejoin="round" stroke-linecap="round" stroke-width="0.0842" fill="currentColor" stroke="currentColor" points="7.6107 -1.9768 7.6107 -1.7074 0.0421 0.1347 0.0421 -0.1347"/>
</g>
<g transform="translate(81.9612, 52.7787)">
<polygon stroke-linejoin="round" stroke-linecap="round" stroke-width="0.0842" fill="currentColor" stroke="currentColor" points="7.6107 -1.9768 7.6107 -1.7074 0.0421 0.1347 0.0421 -0.1347"/>
</g>
<g transform="translate(73.5187, 54.7504)">
<path stroke-width="0.0755" stroke-linejoin="round" stroke-linecap="round" stroke="currentColor" fill="currentColor" d="M0.8951 -3.3630C1.8402 -4.2216 4.2629 -4.2216 5.2081 -3.3630L5.2081 -3.3630C4.2629 -4.1083 1.8402 -4.1083 0.8951 -3.3630z"/>
</g>
<g transform="translate(71.9460, 51.9327)">
<polygon stroke-linejoin="round" stroke-linecap="round" stroke-width="0.0842" fill="currentColor" stroke="currentColor" points="6.8001 -0.1347 6.8001 0.1347 0.0421 0.1347 0.0421 -0.1347"/>
</g>
<g transform="translate(71.9460, 52.5399)">
<polygon stroke-linejoin="round" stroke-linecap="round" stroke-width="0.0842" fill="currentColor" stroke="currentColor" points="6.8001 -0.1347 6.8001 0.1347 0.0421 0.1347 0.0421 -0.1347"/>
</g>
<g transform="translate(64.8928, 54.7504)">
<path stroke-width="0.0755" stroke-linejoin="round" stroke-linecap="round" stroke="currentColor" fill="currentColor" d="M0.9255 -3.9114C1.9513 -4.6779 4.3767 -4.4456 5.2385 -3.4985L5.2385 -3.4985C4.3659 -4.3328 1.9405 -4.5650 0.9255 -3.9114z"/>
</g>
<g transform="translate(63.8200, 51.1959)">
<polygon stroke-linejoin="round" stroke-linecap="round" stroke-width="0.0842" fill="currentColor" stroke="currentColor" points="6.3001 0.4725 6.3001 0.7420 0.0421 0.1347 0.0421 -0.1347"/>
</g>
<g transform="translate(63.8200, 51.8031)">
<polygon stroke-linejoin="round" stroke-linecap="round" stroke-width="0.0842" fill="currentColor" stroke="currentColor" points="6.3001 0.4725 6.3001 0.7420 0.0421 0.1347 0.0421 -0.1347"/>
</g>
<g transform="translate(53.2998, 54.7504)">
<path stroke-width="0.0755" stroke-linejoin="round" stroke-linecap="round" stroke="currentColor" fill="currentColor" d="M0.8156 -2.6420C1.8512 -4.0535 6.7567 -5.3174 8.3455 -4.5821L8.3455 -4.5821C6.7850 -5.2077 1.8795 -3.9438 0.8156 -2.6420z"/>
</g>
<g transform="translate(45.6911, 54.7504)">
<path stroke-width="0.0755" stroke-linejoin="round" stroke-linecap="round" stroke="currentColor" fill="currentColor" d="M0.8951 -3.3630C1.8402 -4.2216 4.2629 -4.2216 5.2081 -3.3630L5.2081 -3.3630C4.2629 -4.1083 1.8402 -4.1083 0.8951 -3.3630z"/>
</g>
<g transform="translate(44.1183, 51.9327)">
<polygon stroke-linejoin="round" stroke-linecap="round" stroke-width="0.0842" fill="currentColor" stroke="currentColor" points="6.8001 -0.1347 6.8001 0.1347 0.0421 0.1347 0.0421 -0.1347"/>
</g>
<g transform="translate(44.1183, 52.5399)">
<polygon stroke-linejoin="round" stroke-linecap="round" stroke-width="0.0842" fill="currentColor" stroke="currentColor" points="6.8001 -0.1347 6.8001 0.1347 0.0421 0.1347 0.0421 -0.1347"/>
</g>
<g transform="translate(37.0651, 54.7504)">
<path stroke-width="0.0755" stroke-linejoin="round" stroke-linecap="round" stroke="currentColor" fill="currentColor" d="M0.9201 -3.7065C1.9316 -4.4897 4.3562 -4.2993 5.2330 -3.3678L5.2330 -3.3678C4.3473 -4.1864 1.9227 -4.3768 0.9201 -3.7065z"/>
</g>
<g transform="translate(35.9923, 51.4347)">
<polygon stroke-linejoin="round" stroke-linecap="round" stroke-width="0.0842" fill="currentColor" stroke="currentColor" points="6.3001 0.3633 6.3001 0.6328 0.0421 0.1347 0.0421 -0.1347"/>
</g>
<g transform="translate(35.9923, 52.0419)">
<polygon stroke-linejoin="round" stroke-linecap="round" stroke-width="0.0842" fill="currentColor" stroke="currentColor" points="6.3001 0.3633 6.3001 0.6328 0.0421 0.1347 0.0421 -0.1347"/>
</g>
<g transform="translate(25.4721, 54.7504)">
<path stroke-width="0.0755" stroke-linejoin="round" stroke-linecap="round" stroke="currentColor" fill="currentColor" d="M0.8205 -2.7706C1.8761 -4.1633 6.7768 -5.3430 8.3505 -4.5831L8.3505 -4.5831C6.8033 -5.2328 1.9026 -4.0531 0.8205 -2.7706z"/>
</g>
<g transform="translate(26.3059, 52.5399)">
<polygon stroke-linejoin="round" stroke-linecap="round" stroke-width="0.0842" fill="currentColor" stroke="currentColor" points="7.6107 -1.9768 7.6107 -1.7074 0.0421 0.1347 0.0421 -0.1347"/>
</g>
<g transform="translate(26.3059, 53.1471)">
<polygon stroke-linejoin="round" stroke-linecap="round" stroke-width="0.0842" fill="currentColor" stroke="currentColor" points="7.6107 -1.9768 7.6107 -1.7074 0.0421 0.1347 0.0421 -0.1347"/>
</g>
<g transform="translate(118.7262, 54.7504)">
<rect x="-0.0614" y="-3.0748" width="0.1228" height="1.8503" ry="0.0421" fill="currentColor"/>
</g>
<g transform="translate(117.8311, 53.6452)">
<path transform="scale(0.0029, -0.0029)" d="M208 139c61 0 117 -33 117 -99c0 -71 -52 -119 -99 -147c-34 -20 -71 -32 -110 -32c-61 0 -116 33 -116 99c0 71 51 119 98 147c34 20 71 32 110 32z" fill="currentColor"/>
</g>
<g transform="translate(116.8197, 54.7504)">
<rect x="-0.0614" y="-4.5362" width="0.1228" height="1.8380" ry="0.0421" fill="currentColor"/>
</g>
<g transform="translate(115.9246, 52.1715)">
<path transform="scale(0.0029, -0.0029)" d="M208 139c61 0 117 -33 117 -99c0 -71 -52 -119 -99 -147c-34 -20 -71 -32 -110 -32c-61 0 -116 33 -116 99c0 71 51 119 98 147c34 20 71 32 110 32z" fill="currentColor"/>
</g>
<g transform="translate(114.4133, 54.7504)">
<rect x="-0.0614" y="-3.9682" width="0.1228" height="3.1121" ry="0.0421" fill="currentColor"/>
</g>
<g transform="translate(113.5182, 54.0136)">
<path transform="scale(0.0029, -0.0029)" d="M208 139c61 0 117 -33 117 -99c0 -71 -52 -119 -99 -147c-34 -20 -71 -32 -110 -32c-61 0 -116 33 -116 99c0 71 51 119 98 147c34 20 71 32 110 32z" fill="currentColor"/>
</g>
<g transform="translate(112.0068, 54.7504)">
<rect x="-0.0614" y="-3.4002" width="0.1228" height="3.2810" ry="0.0421" fill="currentColor"/>
</g>
<g transform="translate(111.1117, 54.7504)">
<path transform="scale(0.0029, -0.0029)" d="M208 139c61 0 117 -33 117 -99c0 -71 -52 -119 -99 -147c-34 -20 -71 -32 -110 -32c-61 0 -116 33 -116 99c0 71 51 119 98 147c34 20 71 32 110 32z" fill="currentColor"/>
</g>
<g transform="translate(127.6627, 54.7504)">
<rect x="-0.0614" y="-2.5853" width="0.1228" height="2.8345" ry="0.0421" fill="currentColor"/>
</g>
<g transform="translate(126.7676, 55.1189)">
<path transform="scale(0.0029, -0.0029)" d="M208 139c61 0 117 -33 117 -99c0 -71 -52 -119 -99 -147c-34 -20 -71 -32 -110 -32c-61 0 -116 33 -116 99c0 71 51 119 98 147c34 20 71 32 110 32z" fill="currentColor"/>
</g>
<g transform="translate(125.7562, 54.7504)">
<rect x="-0.0614" y="-2.8200" width="0.1228" height="1.9639" ry="0.0421" fill="currentColor"/>
</g>
<g transform="translate(124.8611, 54.0136)">
<path transform="scale(0.0029, -0.0029)" d="M208 139c61 0 117 -33 117 -99c0 -71 -52 -119 -99 -147c-34 -20 -71 -32 -110 -32c-61 0 -116 33 -116 99c0 71 51 119 98 147c34 20 71 32 110 32z" fill="currentColor"/>
</g>
<g transform="translate(121.5441, 54.3820)">
<path transform="scale(0.0029, -0.0029)" d="M0 114c0 12 7 22 18 26l37 15v151c0 12 10 22 22 22s22 -10 22 -22v-134l77 29v152c0 12 10 22 22 22s22 -10 22 -22v-134l16 6c3 1 8 2 11 2c15 0 28 -12 28 -28v-50c0 -12 -7 -23 -18 -27l-37 -14v-152l16 7c3 1 8 2 11 2c15 0 28 -13 28 -29v-50c0 -12 -7 -22 -18 -26
l-37 -15v-151c0 -12 -10 -22 -22 -22s-22 10 -22 22v134l-77 -29v-152c0 -12 -10 -22 -22 -22s-22 10 -22 22v134l-16 -6c-3 -1 -8 -2 -11 -2c-15 0 -28 12 -28 28v50c0 12 7 23 18 27l37 14v152l-16 -7c-3 -1 -8 -2 -11 -2c-15 0 -28 13 -28 29v50zM176 91l-77 -30v-152
l77 30v152z" fill="currentColor"/>
</g>
<g transform="translate(108.7052, 54.7504)">
<path stroke-width="0.0755" stroke-linejoin="round" stroke-linecap="round" stroke="currentColor" fill="currentColor" d="M0.8219 -3.3775C1.8566 -4.7426 6.5054 -5.8399 8.0413 -5.0815L8.0413 -5.0815C6.5314 -5.7296 1.8826 -4.6323 0.8219 -3.3775z"/>
</g>
<g transform="translate(123.5997, 54.7504)">
<rect x="-0.0614" y="-2.8981" width="0.1228" height="2.4105" ry="0.0421" fill="currentColor"/>
</g>
<g transform="translate(122.7046, 54.3820)">
<path transform="scale(0.0029, -0.0029)" d="M208 139c61 0 117 -33 117 -99c0 -71 -52 -119 -99 -147c-34 -20 -71 -32 -110 -32c-61 0 -116 33 -116 99c0 71 51 119 98 147c34 20 71 32 110 32z" fill="currentColor"/>
</g>
<g transform="translate(120.8827, 54.7504)">
<rect x="-0.0614" y="-2.9966" width="0.1228" height="2.1405" ry="0.0421" fill="currentColor"/>
</g>
<g transform="translate(119.9876, 54.0136)">
<path transform="scale(0.0029, -0.0029)" d="M208 139c61 0 117 -33 117 -99c0 -71 -52 -119 -99 -147c-34 -20 -71 -32 -110 -32c-61 0 -116 33 -116 99c0 71 51 119 98 147c34 20 71 32 110 32z" fill="currentColor"/>
</g>
<g transform="translate(81.1275, 55.8557)">
<path transform="scale(0.0029, -0.0029)" d="M208 139c61 0 117 -33 117 -99c0 -71 -52 -119 -99 -147c-34 -20 -71 -32 -110 -32c-61 0 -116 33 -116 99c0 71 51 119 98 147c34 20 71 32 110 32z" fill="currentColor"/>
</g>
<g transform="translate(50.8991, 54.7504)">
<rect x="-0.0614" y="-2.8177" width="0.1228" height="1.9617" ry="0.0421" fill="currentColor"/>
</g>
<g transform="translate(50.0040, 54.0136)">
<path transform="scale(0.0029, -0.0029)" d="M208 139c61 0 117 -33 117 -99c0 -71 -52 -119 -99 -147c-34 -20 -71 -32 -110 -32c-61 0 -116 33 -116 99c0 71 51 119 98 147c34 20 71 32 110 32z" fill="currentColor"/>
</g>
<g transform="translate(48.7426, 54.7504)">
<rect x="-0.0614" y="-2.8177" width="0.1228" height="2.3301" ry="0.0421" fill="currentColor"/>
</g>
<g transform="translate(30.5956, 54.3820)">
<path transform="scale(0.0029, -0.0029)" d="M208 139c61 0 117 -33 117 -99c0 -71 -52 -119 -99 -147c-34 -20 -71 -32 -110 -32c-61 0 -116 33 -116 99c0 71 51 119 98 147c34 20 71 32 110 32z" fill="currentColor"/>
</g>
<g transform="translate(47.8475, 54.3820)">
<path transform="scale(0.0029, -0.0029)" d="M208 139c61 0 117 -33 117 -99c0 -71 -52 -119 -99 -147c-34 -20 -71 -32 -110 -32c-61 0 -116 33 -116 99c0 71 51 119 98 147c34 20 71 32 110 32z" fill="currentColor"/>
</g>
<g transform="translate(31.4907, 54.7504)">
<rect x="-0.0614" y="-3.4586" width="0.1228" height="2.9709" ry="0.0421" fill="currentColor"/>
</g>
<g transform="translate(55.7063, 55.4873)">
<path transform="scale(0.0029, -0.0029)" d="M208 139c61 0 117 -33 117 -99c0 -71 -52 -119 -99 -147c-34 -20 -71 -32 -110 -32c-61 0 -116 33 -116 99c0 71 51 119 98 147c34 20 71 32 110 32z" fill="currentColor"/>
</g>
<g transform="translate(27.8786, 55.1189)">
<path transform="scale(0.0029, -0.0029)" d="M208 139c61 0 117 -33 117 -99c0 -71 -52 -119 -99 -147c-34 -20 -71 -32 -110 -32c-61 0 -116 33 -116 99c0 71 51 119 98 147c34 20 71 32 110 32z" fill="currentColor"/>
</g>
<g transform="translate(28.7737, 54.7504)">
<rect x="-0.0614" y="-2.8046" width="0.1228" height="3.0538" ry="0.0421" fill="currentColor"/>
</g>
<g transform="translate(54.1949, 54.7504)">
<rect x="-0.0614" y="-2.0967" width="0.1228" height="3.4512" ry="0.0421" fill="currentColor"/>
</g>
<g transform="translate(53.2998, 56.2241)">
<path transform="scale(0.0029, -0.0029)" d="M208 139c61 0 117 -33 117 -99c0 -71 -52 -119 -99 -147c-34 -20 -71 -32 -110 -32c-61 0 -116 33 -116 99c0 71 51 119 98 147c34 20 71 32 110 32z" fill="currentColor"/>
</g>
<g transform="translate(40.1167, 54.7504)">
<rect x="-0.0614" y="-2.9919" width="0.1228" height="2.5043" ry="0.0421" fill="currentColor"/>
</g>
<g transform="translate(39.2216, 54.3820)">
<path transform="scale(0.0029, -0.0029)" d="M208 139c61 0 117 -33 117 -99c0 -71 -52 -119 -99 -147c-34 -20 -71 -32 -110 -32c-61 0 -116 33 -116 99c0 71 51 119 98 147c34 20 71 32 110 32z" fill="currentColor"/>
</g>
<g transform="translate(37.9602, 54.7504)">
<rect x="-0.0614" y="-3.1613" width="0.1228" height="2.3052" ry="0.0421" fill="currentColor"/>
</g>
<g transform="translate(37.0651, 54.0136)">
<path transform="scale(0.0029, -0.0029)" d="M208 139c61 0 117 -33 117 -99c0 -71 -52 -119 -99 -147c-34 -20 -71 -32 -110 -32c-61 0 -116 33 -116 99c0 71 51 119 98 147c34 20 71 32 110 32z" fill="currentColor"/>
</g>
<g transform="translate(33.0021, 52.9083)">
<path transform="scale(0.0029, -0.0029)" d="M208 139c61 0 117 -33 117 -99c0 -71 -52 -119 -99 -147c-34 -20 -71 -32 -110 -32c-61 0 -116 33 -116 99c0 71 51 119 98 147c34 20 71 32 110 32z" fill="currentColor"/>
</g>
<g transform="translate(33.8972, 54.7504)">
<rect x="-0.0614" y="-4.0379" width="0.1228" height="2.0765" ry="0.0421" fill="currentColor"/>
</g>
<g transform="translate(36.0537, 54.7504)">
<rect x="-0.0614" y="-3.3110" width="0.1228" height="1.7181" ry="0.0421" fill="currentColor"/>
</g>
<g transform="translate(35.1586, 53.2768)">
<path transform="scale(0.0029, -0.0029)" d="M208 139c61 0 117 -33 117 -99c0 -71 -52 -119 -99 -147c-34 -20 -71 -32 -110 -32c-61 0 -116 33 -116 99c0 71 51 119 98 147c34 20 71 32 110 32z" fill="currentColor"/>
</g>
<g transform="translate(46.5862, 54.7504)">
<rect x="-0.0614" y="-2.8177" width="0.1228" height="1.9617" ry="0.0421" fill="currentColor"/>
</g>
<g transform="translate(45.6911, 54.0136)">
<path transform="scale(0.0029, -0.0029)" d="M208 139c61 0 117 -33 117 -99c0 -71 -52 -119 -99 -147c-34 -20 -71 -32 -110 -32c-61 0 -116 33 -116 99c0 71 51 119 98 147c34 20 71 32 110 32z" fill="currentColor"/>
</g>
<g transform="translate(44.1797, 54.7504)">
<rect x="-0.0614" y="-2.8177" width="0.1228" height="4.5406" ry="0.0421" fill="currentColor"/>
</g>
<g transform="translate(43.2846, 56.5926)">
<path transform="scale(0.0029, -0.0029)" d="M208 139c61 0 117 -33 117 -99c0 -71 -52 -119 -99 -147c-34 -20 -71 -32 -110 -32c-61 0 -116 33 -116 99c0 71 51 119 98 147c34 20 71 32 110 32z" fill="currentColor"/>
</g>
<g transform="translate(56.6014, 54.7504)">
<rect x="-0.0614" y="-2.7167" width="0.1228" height="3.3344" ry="0.0421" fill="currentColor"/>
</g>
<g transform="translate(42.2732, 54.7504)">
<rect x="-0.0614" y="-2.8226" width="0.1228" height="1.9665" ry="0.0421" fill="currentColor"/>
</g>
<g transform="translate(41.3781, 54.0136)">
<path transform="scale(0.0029, -0.0029)" d="M208 139c61 0 117 -33 117 -99c0 -71 -52 -119 -99 -147c-34 -20 -71 -32 -110 -32c-61 0 -116 33 -116 99c0 71 51 119 98 147c34 20 71 32 110 32z" fill="currentColor"/>
</g>
<g transform="translate(29.4351, 54.3820)">
<path transform="scale(0.0029, -0.0029)" d="M0 114c0 12 7 22 18 26l37 15v151c0 12 10 22 22 22s22 -10 22 -22v-134l77 29v152c0 12 10 22 22 22s22 -10 22 -22v-134l16 6c3 1 8 2 11 2c15 0 28 -12 28 -28v-50c0 -12 -7 -23 -18 -27l-37 -14v-152l16 7c3 1 8 2 11 2c15 0 28 -13 28 -29v-50c0 -12 -7 -22 -18 -26
l-37 -15v-151c0 -12 -10 -22 -22 -22s-22 10 -22 22v134l-77 -29v-152c0 -12 -10 -22 -22 -22s-22 10 -22 22v134l-16 -6c-3 -1 -8 -2 -11 -2c-15 0 -28 12 -28 28v50c0 12 7 23 18 27l37 14v152l-16 -7c-3 -1 -8 -2 -11 -2c-15 0 -28 13 -28 29v50zM176 91l-77 -30v-152
l77 30v152z" fill="currentColor"/>
</g>
<g transform="translate(73.5187, 54.0136)">
<path transform="scale(0.0029, -0.0029)" d="M208 139c61 0 117 -33 117 -99c0 -71 -52 -119 -99 -147c-34 -20 -71 -32 -110 -32c-61 0 -116 33 -116 99c0 71 51 119 98 147c34 20 71 32 110 32z" fill="currentColor"/>
</g>
<g transform="translate(18.7702, 55.4873)">
<path transform="scale(0.0029, -0.0029)" d="M381 266h9c157 0 258 -130 258 -264c0 -77 -33 -156 -108 -212c-22 -16 -46 -28 -71 -36c2 -32 3 -65 3 -97c0 -21 -1 -43 -2 -64c-7 -122 -91 -230 -211 -230c-108 0 -197 88 -197 197c0 58 54 104 113 104c54 0 95 -48 95 -104c0 -52 -43 -95 -95 -95c-8 0 -16 2 -24 4
c25 -35 65 -59 111 -59c95 0 155 92 161 190c1 20 2 39 2 59c0 28 -1 55 -3 83c-29 -5 -57 -7 -87 -7c-189 0 -333 174 -333 377c0 176 128 307 242 443c-21 62 -41 124 -50 189c-7 52 -8 106 -8 159c0 113 54 219 146 286c8 6 21 7 29 0c72 -82 136 -244 136 -357
c0 -141 -83 -253 -174 -362c22 -67 41 -135 58 -204zM464 -200c64 25 108 93 108 159c0 87 -62 173 -163 187c24 -113 43 -225 55 -346zM338 -218c27 0 54 2 80 6c-13 125 -33 242 -58 359c-79 -7 -123 -59 -123 -116c0 -43 24 -89 78 -120c5 -5 8 -11 8 -17
c0 -13 -11 -24 -24 -24c-3 0 -7 0 -10 2c-81 44 -119 116 -119 187c0 90 60 178 164 201c-14 56 -30 112 -47 167c-104 -122 -208 -245 -208 -404c0 -132 127 -241 259 -241zM239 782c0 -69 22 -127 41 -183c77 97 140 199 140 323c0 49 -3 69 -19 113
c-99 -45 -162 -145 -162 -253z" fill="currentColor"/>
</g>
<g transform="translate(72.0074, 54.7504)">
<rect x="-0.0614" y="-2.8177" width="0.1228" height="4.1722" ry="0.0421" fill="currentColor"/>
</g>
<g transform="translate(22.3827, 54.7504)">
<path transform="scale(0.0029, -0.0029)" d="M33 35l-2 -60v-11c0 -21 2 -43 5 -64c42 38 87 81 87 138c0 32 -13 63 -41 63c-31 0 -48 -32 -49 -66zM32 446l-9 -337c25 26 59 40 95 40c50 0 82 -51 82 -105c0 -77 -80 -117 -137 -169c-18 -17 -26 -48 -52 -48c-16 0 -28 15 -28 32l-15 587c10 6 21 8 32 8
s22 -2 32 -8z" fill="currentColor"/>
</g>
<g transform="translate(71.1122, 56.2241)">
<path transform="scale(0.0029, -0.0029)" d="M208 139c61 0 117 -33 117 -99c0 -71 -52 -119 -99 -147c-34 -20 -71 -32 -110 -32c-61 0 -116 33 -116 99c0 71 51 119 98 147c34 20 71 32 110 32z" fill="currentColor"/>
</g>
<g transform="translate(74.4138, 54.7504)">
<rect x="-0.0614" y="-2.8177" width="0.1228" height="1.9617" ry="0.0421" fill="currentColor"/>
</g>
<g transform="translate(70.1009, 54.7504)">
<rect x="-0.0614" y="-2.9532" width="0.1228" height="2.0972" ry="0.0421" fill="currentColor"/>
</g>
<g transform="translate(69.2058, 54.0136)">
<path transform="scale(0.0029, -0.0029)" d="M208 139c61 0 117 -33 117 -99c0 -71 -52 -119 -99 -147c-34 -20 -71 -32 -110 -32c-61 0 -116 33 -116 99c0 71 51 119 98 147c34 20 71 32 110 32z" fill="currentColor"/>
</g>
<g transform="translate(78.7268, 54.7504)">
<rect x="-0.0614" y="-2.8177" width="0.1228" height="1.9617" ry="0.0421" fill="currentColor"/>
</g>
<g transform="translate(77.8317, 54.0136)">
<path transform="scale(0.0029, -0.0029)" d="M208 139c61 0 117 -33 117 -99c0 -71 -52 -119 -99 -147c-34 -20 -71 -32 -110 -32c-61 0 -116 33 -116 99c0 71 51 119 98 147c34 20 71 32 110 32z" fill="currentColor"/>
</g>
<g transform="translate(76.5703, 54.7504)">
<rect x="-0.0614" y="-2.8177" width="0.1228" height="2.3301" ry="0.0421" fill="currentColor"/>
</g>
<g transform="translate(75.6752, 54.3820)">
<path transform="scale(0.0029, -0.0029)" d="M208 139c61 0 117 -33 117 -99c0 -71 -52 -119 -99 -147c-34 -20 -71 -32 -110 -32c-61 0 -116 33 -116 99c0 71 51 119 98 147c34 20 71 32 110 32z" fill="currentColor"/>
</g>
<g transform="translate(57.2628, 54.3820)">
<path transform="scale(0.0029, -0.0029)" d="M0 114c0 12 7 22 18 26l37 15v151c0 12 10 22 22 22s22 -10 22 -22v-134l77 29v152c0 12 10 22 22 22s22 -10 22 -22v-134l16 6c3 1 8 2 11 2c15 0 28 -12 28 -28v-50c0 -12 -7 -23 -18 -27l-37 -14v-152l16 7c3 1 8 2 11 2c15 0 28 -13 28 -29v-50c0 -12 -7 -22 -18 -26
l-37 -15v-151c0 -12 -10 -22 -22 -22s-22 10 -22 22v134l-77 -29v-152c0 -12 -10 -22 -22 -22s-22 10 -22 22v134l-16 -6c-3 -1 -8 -2 -11 -2c-15 0 -28 12 -28 28v50c0 12 7 23 18 27l37 14v152l-16 -7c-3 -1 -8 -2 -11 -2c-15 0 -28 13 -28 29v50zM176 91l-77 -30v-152
l77 30v152z" fill="currentColor"/>
</g>
<g transform="translate(26.3672, 54.7504)">
<rect x="-0.0614" y="-2.2253" width="0.1228" height="3.9482" ry="0.0421" fill="currentColor"/>
</g>
<g transform="translate(61.7249, 54.7504)">
<rect x="-0.0614" y="-4.0368" width="0.1228" height="1.7071" ry="0.0421" fill="currentColor"/>
</g>
<g transform="translate(60.8298, 52.5399)">
<path transform="scale(0.0029, -0.0029)" d="M208 139c61 0 117 -33 117 -99c0 -71 -52 -119 -99 -147c-34 -20 -71 -32 -110 -32c-61 0 -116 33 -116 99c0 71 51 119 98 147c34 20 71 32 110 32z" fill="currentColor"/>
</g>
<g transform="translate(59.3184, 54.7504)">
<rect x="-0.0614" y="-3.4168" width="0.1228" height="2.9291" ry="0.0421" fill="currentColor"/>
</g>
<g transform="translate(58.4233, 54.3820)">
<path transform="scale(0.0029, -0.0029)" d="M208 139c61 0 117 -33 117 -99c0 -71 -52 -119 -99 -147c-34 -20 -71 -32 -110 -32c-61 0 -116 33 -116 99c0 71 51 119 98 147c34 20 71 32 110 32z" fill="currentColor"/>
</g>
<g transform="translate(64.8928, 54.0136)">
<path transform="scale(0.0029, -0.0029)" d="M208 139c61 0 117 -33 117 -99c0 -71 -52 -119 -99 -147c-34 -20 -71 -32 -110 -32c-61 0 -116 33 -116 99c0 71 51 119 98 147c34 20 71 32 110 32z" fill="currentColor"/>
</g>
<g transform="translate(67.9444, 54.7504)">
<rect x="-0.0614" y="-3.1597" width="0.1228" height="2.6721" ry="0.0421" fill="currentColor"/>
</g>
<g transform="translate(67.0493, 54.3820)">
<path transform="scale(0.0029, -0.0029)" d="M208 139c61 0 117 -33 117 -99c0 -71 -52 -119 -99 -147c-34 -20 -71 -32 -110 -32c-61 0 -116 33 -116 99c0 71 51 119 98 147c34 20 71 32 110 32z" fill="currentColor"/>
</g>
<g transform="translate(65.7879, 54.7504)">
<rect x="-0.0614" y="-3.3662" width="0.1228" height="2.5101" ry="0.0421" fill="currentColor"/>
</g>
<g transform="translate(25.4721, 56.5926)">
<path transform="scale(0.0029, -0.0029)" d="M208 139c61 0 117 -33 117 -99c0 -71 -52 -119 -99 -147c-34 -20 -71 -32 -110 -32c-61 0 -116 33 -116 99c0 71 51 119 98 147c34 20 71 32 110 32z" fill="currentColor"/>
</g>
<g transform="translate(63.8814, 54.7504)">
<rect x="-0.0614" y="-3.5487" width="0.1228" height="1.5874" ry="0.0421" fill="currentColor"/>
</g>
<g transform="translate(62.9863, 52.9083)">
<path transform="scale(0.0029, -0.0029)" d="M208 139c61 0 117 -33 117 -99c0 -71 -52 -119 -99 -147c-34 -20 -71 -32 -110 -32c-61 0 -116 33 -116 99c0 71 51 119 98 147c34 20 71 32 110 32z" fill="currentColor"/>
</g>
</svg>
