<?xml version="1.0" encoding="UTF-8" standalone="no"?>
<svg
   xmlns:dc="http://purl.org/dc/elements/1.1/"
   xmlns:cc="http://creativecommons.org/ns#"
   xmlns:rdf="http://www.w3.org/1999/02/22-rdf-syntax-ns#"
   xmlns:svg="http://www.w3.org/2000/svg"
   xmlns="http://www.w3.org/2000/svg"
   xmlns:sodipodi="http://sodipodi.sourceforge.net/DTD/sodipodi-0.dtd"
   xmlns:inkscape="http://www.inkscape.org/namespaces/inkscape"
   sodipodi:docname="bwv-1004_5_for_PNGs-24.svg"
   id="svg996"
   viewBox="0 0 170.30658 12.383901"
   height="20.674103mm"
   width="284.31561mm"
   version="1.2">
  <metadata
     id="metadata1002">
    <rdf:RDF>
      <cc:Work
         rdf:about="">
        <dc:format>image/svg+xml</dc:format>
        <dc:type
           rdf:resource="http://purl.org/dc/dcmitype/StillImage" />
      </cc:Work>
    </rdf:RDF>
  </metadata>
  <defs
     id="defs1000" />
  <sodipodi:namedview
     id="namedview998"
     inkscape:window-height="480"
     inkscape:window-width="640"
     inkscape:pageshadow="2"
     inkscape:pageopacity="0"
     guidetolerance="10"
     gridtolerance="10"
     objecttolerance="10"
     borderopacity="1"
     bordercolor="#666666"
     pagecolor="#ffffff" />
  <style
     id="style2"
     type="text/css"><![CDATA[
tspan { white-space: pre; }
]]></style>
  <g
     id="g6"
     transform="translate(0,8.6997)">
    <line
       id="line4"
       y2="0"
       x2="170.2594"
       y1="0"
       x1="0.047200002"
       stroke="currentColor"
       stroke-width="0.0944"
       stroke-linecap="round"
       stroke-linejoin="round" />
  </g>
  <g
     id="g10"
     transform="translate(0,7.9629)">
    <line
       id="line8"
       y2="0"
       x2="170.2594"
       y1="0"
       x1="0.047200002"
       stroke="currentColor"
       stroke-width="0.0944"
       stroke-linecap="round"
       stroke-linejoin="round" />
  </g>
  <g
     id="g14"
     transform="translate(0,7.226)">
    <line
       id="line12"
       y2="0"
       x2="170.2594"
       y1="0"
       x1="0.047200002"
       stroke="currentColor"
       stroke-width="0.0944"
       stroke-linecap="round"
       stroke-linejoin="round" />
  </g>
  <g
     id="g18"
     transform="translate(0,6.4892)">
    <line
       id="line16"
       y2="0"
       x2="170.2594"
       y1="0"
       x1="0.047200002"
       stroke="currentColor"
       stroke-width="0.0944"
       stroke-linecap="round"
       stroke-linejoin="round" />
  </g>
  <g
     id="g22"
     transform="translate(0,5.7524)">
    <line
       id="line20"
       y2="0"
       x2="170.2594"
       y1="0"
       x1="0.047200002"
       stroke="currentColor"
       stroke-width="0.0944"
       stroke-linecap="round"
       stroke-linejoin="round" />
  </g>
  <g
     id="g26"
     transform="translate(108.9472,7.226)">
    <rect
       id="rect24"
       fill="currentColor"
       ry="0.0000"
       height="2.9474001"
       width="0.1794"
       y="-1.4737"
       x="0" />
  </g>
  <g
     id="g30"
     transform="translate(130.3903,7.226)">
    <rect
       id="rect28"
       fill="currentColor"
       ry="0.0000"
       height="2.9474001"
       width="0.1794"
       y="-1.4737"
       x="0" />
  </g>
  <g
     id="g34"
     transform="translate(64.9347,7.226)">
    <rect
       id="rect32"
       fill="currentColor"
       ry="0.0000"
       height="2.9474001"
       width="0.1794"
       y="-1.4737"
       x="0" />
  </g>
  <g
     id="g38"
     transform="translate(170.1272,7.226)">
    <rect
       id="rect36"
       fill="currentColor"
       ry="0.0000"
       height="2.9474001"
       width="0.1794"
       y="-1.4737"
       x="0" />
  </g>
  <g
     id="g42"
     transform="translate(43.6209,7.226)">
    <rect
       id="rect40"
       fill="currentColor"
       ry="0.0000"
       height="2.9474001"
       width="0.1794"
       y="-1.4737"
       x="0" />
  </g>
  <g
     id="g46"
     transform="translate(22.3098,7.226)">
    <rect
       id="rect44"
       fill="currentColor"
       ry="0.0000"
       height="2.9474001"
       width="0.1794"
       y="-1.4737"
       x="0" />
  </g>
  <g
     id="g50"
     transform="translate(87.0752,7.226)">
    <rect
       id="rect48"
       fill="currentColor"
       ry="0.0000"
       height="2.9474001"
       width="0.1794"
       y="-1.4737"
       x="0" />
  </g>
  <g
     id="g54"
     transform="translate(153.2416,7.226)">
    <rect
       id="rect52"
       fill="currentColor"
       ry="0.0000"
       height="2.9474001"
       width="0.1794"
       y="-1.4737"
       x="0" />
  </g>
  <g
     id="g58"
     transform="translate(0,9.4366)">
    <rect
       id="rect56"
       fill="currentColor"
       ry="0.084100001"
       height="0.1681"
       width="1.5329"
       y="-0.084100001"
       x="161.25681" />
  </g>
  <g
     id="g62"
     transform="translate(0,10.1734)">
    <rect
       id="rect60"
       fill="currentColor"
       ry="0.084100001"
       height="0.1681"
       width="1.5329"
       y="-0.084100001"
       x="161.25681" />
  </g>
  <g
     id="g66"
     transform="translate(0,5.0155)">
    <rect
       id="rect64"
       fill="currentColor"
       ry="0.084100001"
       height="0.1681"
       width="1.4347"
       y="-0.084100001"
       x="142.1322" />
  </g>
  <g
     id="g70"
     transform="translate(0,5.0155)">
    <rect
       id="rect68"
       fill="currentColor"
       ry="0.084100001"
       height="0.1681"
       width="1.4347"
       y="-0.084100001"
       x="138.66161" />
  </g>
  <g
     id="g74"
     transform="translate(0,9.4366)">
    <rect
       id="rect72"
       fill="currentColor"
       ry="0.084100001"
       height="0.1681"
       width="1.4347"
       y="-0.084100001"
       x="138.66161" />
  </g>
  <g
     id="g78"
     transform="translate(0,10.1734)">
    <rect
       id="rect76"
       fill="currentColor"
       ry="0.084100001"
       height="0.1681"
       width="1.4347"
       y="-0.084100001"
       x="138.66161" />
  </g>
  <g
     id="g82"
     transform="translate(0,5.0155)">
    <rect
       id="rect80"
       fill="currentColor"
       ry="0.084100001"
       height="0.1681"
       width="1.4347"
       y="-0.084100001"
       x="131.7964" />
  </g>
  <g
     id="g86"
     transform="translate(0,5.0155)">
    <rect
       id="rect84"
       fill="currentColor"
       ry="0.084100001"
       height="0.1681"
       width="1.4347"
       y="-0.084100001"
       x="79.772499" />
  </g>
  <g
     id="g90"
     transform="translate(0,5.0155)">
    <rect
       id="rect88"
       fill="currentColor"
       ry="0.084100001"
       height="0.1681"
       width="1.4347"
       y="-0.084100001"
       x="76.180496" />
  </g>
  <g
     id="g94"
     transform="translate(126.8744,6.1208)">
    <path
       id="path92"
       fill="currentColor"
       d="m 208,139 c 61,0 117,-33 117,-99 0,-71 -52,-119 -99,-147 -34,-20 -71,-32 -110,-32 -61,0 -116,33 -116,99 0,71 51,119 98,147 34,20 71,32 110,32 z"
       transform="scale(0.0029,-0.0029)" />
  </g>
  <g
     id="g98"
     transform="translate(127.3526,6.8576)">
    <path
       id="path96"
       fill="currentColor"
       d="m 208,139 c 61,0 117,-33 117,-99 0,-71 -52,-119 -99,-147 -34,-20 -71,-32 -110,-32 -61,0 -116,33 -116,99 0,71 51,119 98,147 34,20 71,32 110,32 z"
       transform="scale(0.0029,-0.0029)" />
  </g>
  <g
     id="g102"
     transform="translate(126.8744,8.6997)">
    <path
       id="path100"
       fill="currentColor"
       d="m 208,139 c 61,0 117,-33 117,-99 0,-71 -52,-119 -99,-147 -34,-20 -71,-32 -110,-32 -61,0 -116,33 -116,99 0,71 51,119 98,147 34,20 71,32 110,32 z"
       transform="scale(0.0029,-0.0029)" />
  </g>
  <g
     id="g106"
     transform="translate(127.7695,7.226)">
    <rect
       id="rect104"
       fill="currentColor"
       ry="0.042100001"
       height="2.0913"
       width="0.1228"
       y="-3.3158"
       x="-0.0614" />
  </g>
  <g
     id="g110"
     transform="translate(127.8309,3.9524)">
    <path
       id="path108"
       fill="currentColor"
       d="m 0,0 c 0,-196 207,-334 207,-530 0,-71 -15,-140 -41,-206 -5,-10 -14,-13 -23,-13 -14,0 -28,10 -28,26 0,2 1,3 1,5 26,59 42,123 42,188 0,101 -90,205 -158,280 H -21 V 0 Z"
       transform="scale(0.0029,-0.0029)" />
  </g>
  <g
     id="g114"
     transform="translate(128.2478,7.226)">
    <rect
       id="rect112"
       fill="currentColor"
       ry="0.042100001"
       height="2.2755001"
       width="0.1228"
       y="-2.7632"
       x="-0.0614" />
  </g>
  <g
     id="g118"
     transform="translate(128.3091,4.505)">
    <path
       id="path116"
       fill="currentColor"
       d="m 0,0 c 0,-196 207,-334 207,-530 0,-71 -15,-140 -41,-206 -5,-10 -14,-13 -23,-13 -14,0 -28,10 -28,26 0,2 1,3 1,5 26,59 42,123 42,188 0,101 -90,205 -158,280 H -21 V 0 Z"
       transform="scale(0.0029,-0.0029)" />
  </g>
  <g
     id="g122"
     transform="translate(117.7,7.226)">
    <rect
       id="rect120"
       fill="currentColor"
       ry="0.042100001"
       height="1.9685"
       width="0.1228"
       y="-3.1930001"
       x="-0.0614" />
  </g>
  <g
     id="g126"
     transform="translate(118.5612,6.8576)">
    <path
       id="path124"
       fill="currentColor"
       d="M 0,0 C 0,30 25,55 55,55 85,55 109,30 109,0 109,-30 85,-55 55,-55 25,-55 0,-30 0,0 Z"
       transform="scale(0.0029,-0.0029)" />
  </g>
  <g
     id="g130"
     transform="translate(118.1783,7.226)">
    <rect
       id="rect128"
       fill="currentColor"
       ry="0.042100001"
       height="2.2140999"
       width="0.1228"
       y="-2.7018001"
       x="-0.0614" />
  </g>
  <g
     id="g134"
     transform="translate(116.8663,7.226)">
    <rect
       id="rect132"
       fill="currentColor"
       ry="0.042100001"
       height="2.0957"
       width="0.1228"
       y="0.4876"
       x="-0.0614" />
  </g>
  <g
     id="g138"
     transform="translate(123.5793,7.226)">
    <rect
       id="rect136"
       fill="currentColor"
       ry="0.042100001"
       height="1.8442"
       width="0.1228"
       y="1.2244999"
       x="-0.0614" />
  </g>
  <g
     id="g142"
     transform="translate(120.1614,7.9629)">
    <path
       id="path140"
       fill="currentColor"
       d="m 208,139 c 61,0 117,-33 117,-99 0,-71 -52,-119 -99,-147 -34,-20 -71,-32 -110,-32 -61,0 -116,33 -116,99 0,71 51,119 98,147 34,20 71,32 110,32 z"
       transform="scale(0.0029,-0.0029)" />
  </g>
  <g
     id="g146"
     transform="translate(120.2228,7.226)">
    <rect
       id="rect144"
       fill="currentColor"
       ry="0.042100001"
       height="1.97"
       width="0.1228"
       y="0.85610002"
       x="-0.0614" />
  </g>
  <g
     id="g150"
     transform="translate(123.5179,8.3313)">
    <path
       id="path148"
       fill="currentColor"
       d="m 208,139 c 61,0 117,-33 117,-99 0,-71 -52,-119 -99,-147 -34,-20 -71,-32 -110,-32 -61,0 -116,33 -116,99 0,71 51,119 98,147 34,20 71,32 110,32 z"
       transform="scale(0.0029,-0.0029)" />
  </g>
  <g
     id="g154"
     transform="translate(131.1697,6.8576)">
    <path
       id="path152"
       fill="currentColor"
       d="m -8,375 c 8,5 18,7 27,7 9,0 20,-2 28,-7 l -3,-196 99,24 h 4 c 11,0 20,-8 20,-19 l 8,-559 c -8,-5 -19,-7 -28,-7 -9,0 -19,2 -27,7 l 3,196 -99,-24 h -5 c -11,0 -19,8 -19,19 z M 127,109 42,89 l -2,-198 84,20 z"
       transform="scale(0.0029,-0.0029)" />
  </g>
  <g
     id="g158"
     transform="translate(132.0969,7.226)">
    <rect
       id="rect156"
       fill="currentColor"
       ry="0.042100001"
       height="1.8609"
       width="0.1228"
       y="1.2244999"
       x="-0.0614" />
  </g>
  <g
     id="g162"
     transform="translate(135.3848,5.7524)">
    <path
       id="path160"
       fill="currentColor"
       d="m 208,139 c 61,0 117,-33 117,-99 0,-71 -52,-119 -99,-147 -34,-20 -71,-32 -110,-32 -61,0 -116,33 -116,99 0,71 51,119 98,147 34,20 71,32 110,32 z"
       transform="scale(0.0029,-0.0029)" />
  </g>
  <g
     id="g166"
     transform="translate(135.863,6.4892)">
    <path
       id="path164"
       fill="currentColor"
       d="m 208,139 c 61,0 117,-33 117,-99 0,-71 -52,-119 -99,-147 -34,-20 -71,-32 -110,-32 -61,0 -116,33 -116,99 0,71 51,119 98,147 34,20 71,32 110,32 z"
       transform="scale(0.0029,-0.0029)" />
  </g>
  <g
     id="g170"
     transform="translate(135.3848,9.0682)">
    <path
       id="path168"
       fill="currentColor"
       d="m 208,139 c 61,0 117,-33 117,-99 0,-71 -52,-119 -99,-147 -34,-20 -71,-32 -110,-32 -61,0 -116,33 -116,99 0,71 51,119 98,147 34,20 71,32 110,32 z"
       transform="scale(0.0029,-0.0029)" />
  </g>
  <g
     id="g174"
     transform="translate(136.2799,7.226)">
    <rect
       id="rect172"
       fill="currentColor"
       ry="0.042100001"
       height="1.9705"
       width="0.1228"
       y="-3.5634"
       x="-0.0614" />
  </g>
  <g
     id="g178"
     transform="translate(126.9358,7.226)">
    <rect
       id="rect176"
       fill="currentColor"
       ry="0.042100001"
       height="1.7184"
       width="0.1228"
       y="1.5929"
       x="-0.0614" />
  </g>
  <g
     id="g182"
     transform="translate(132.0355,5.0155)">
    <path
       id="path180"
       fill="currentColor"
       d="m 208,139 c 61,0 117,-33 117,-99 0,-71 -52,-119 -99,-147 -34,-20 -71,-32 -110,-32 -61,0 -116,33 -116,99 0,71 51,119 98,147 34,20 71,32 110,32 z"
       transform="scale(0.0029,-0.0029)" />
  </g>
  <g
     id="g186"
     transform="translate(132.5138,6.8576)">
    <path
       id="path184"
       fill="currentColor"
       d="m 208,139 c 61,0 117,-33 117,-99 0,-71 -52,-119 -99,-147 -34,-20 -71,-32 -110,-32 -61,0 -116,33 -116,99 0,71 51,119 98,147 34,20 71,32 110,32 z"
       transform="scale(0.0029,-0.0029)" />
  </g>
  <g
     id="g190"
     transform="translate(132.0355,8.3313)">
    <path
       id="path188"
       fill="currentColor"
       d="m 208,139 c 61,0 117,-33 117,-99 0,-71 -52,-119 -99,-147 -34,-20 -71,-32 -110,-32 -61,0 -116,33 -116,99 0,71 51,119 98,147 34,20 71,32 110,32 z"
       transform="scale(0.0029,-0.0029)" />
  </g>
  <g
     id="g194"
     transform="translate(132.9306,7.226)">
    <rect
       id="rect192"
       fill="currentColor"
       ry="0.042100001"
       height="1.7141"
       width="0.1228"
       y="-4.0437999"
       x="-0.0614" />
  </g>
  <g
     id="g198"
     transform="translate(133.4089,7.226)">
    <rect
       id="rect196"
       fill="currentColor"
       ry="0.042100001"
       height="1.8566999"
       width="0.1228"
       y="-2.3443999"
       x="-0.0614" />
  </g>
  <g
     id="g202"
     transform="translate(98.7263,7.5945)">
    <path
       id="path200"
       fill="currentColor"
       d="m 208,139 c 61,0 117,-33 117,-99 0,-71 -52,-119 -99,-147 -34,-20 -71,-32 -110,-32 -61,0 -116,33 -116,99 0,71 51,119 98,147 34,20 71,32 110,32 z"
       transform="scale(0.0029,-0.0029)" />
  </g>
  <g
     id="g206"
     transform="translate(98.7877,7.226)">
    <rect
       id="rect204"
       fill="currentColor"
       ry="0.042100001"
       height="1.9265"
       width="0.1228"
       y="0.4876"
       x="-0.0614" />
  </g>
  <g
     id="g210"
     transform="translate(102.0828,7.9629)">
    <path
       id="path208"
       fill="currentColor"
       d="m 208,139 c 61,0 117,-33 117,-99 0,-71 -52,-119 -99,-147 -34,-20 -71,-32 -110,-32 -61,0 -116,33 -116,99 0,71 51,119 98,147 34,20 71,32 110,32 z"
       transform="scale(0.0029,-0.0029)" />
  </g>
  <g
     id="g214"
     transform="translate(102.1442,7.226)">
    <rect
       id="rect212"
       fill="currentColor"
       ry="0.042100001"
       height="1.758"
       width="0.1228"
       y="0.85610002"
       x="-0.0614" />
  </g>
  <g
     id="g218"
     transform="translate(105.4393,5.7524)">
    <path
       id="path216"
       fill="currentColor"
       d="m 208,139 c 61,0 117,-33 117,-99 0,-71 -52,-119 -99,-147 -34,-20 -71,-32 -110,-32 -61,0 -116,33 -116,99 0,71 51,119 98,147 34,20 71,32 110,32 z"
       transform="scale(0.0029,-0.0029)" />
  </g>
  <g
     id="g222"
     transform="translate(105.9176,6.4892)">
    <path
       id="path220"
       fill="currentColor"
       d="m 208,139 c 61,0 117,-33 117,-99 0,-71 -52,-119 -99,-147 -34,-20 -71,-32 -110,-32 -61,0 -116,33 -116,99 0,71 51,119 98,147 34,20 71,32 110,32 z"
       transform="scale(0.0029,-0.0029)" />
  </g>
  <g
     id="g226"
     transform="translate(105.4393,8.3313)">
    <path
       id="path224"
       fill="currentColor"
       d="m 208,139 c 61,0 117,-33 117,-99 0,-71 -52,-119 -99,-147 -34,-20 -71,-32 -110,-32 -61,0 -116,33 -116,99 0,71 51,119 98,147 34,20 71,32 110,32 z"
       transform="scale(0.0029,-0.0029)" />
  </g>
  <g
     id="g230"
     transform="translate(106.3344,7.226)">
    <rect
       id="rect228"
       fill="currentColor"
       ry="0.042100001"
       height="2.0913"
       width="0.1228"
       y="-3.6842"
       x="-0.0614" />
  </g>
  <g
     id="g234"
     transform="translate(106.3958,3.5839)">
    <path
       id="path232"
       fill="currentColor"
       d="m 0,0 c 0,-196 207,-334 207,-530 0,-71 -15,-140 -41,-206 -5,-10 -14,-13 -23,-13 -14,0 -28,10 -28,26 0,2 1,3 1,5 26,59 42,123 42,188 0,101 -90,205 -158,280 H -21 V 0 Z"
       transform="scale(0.0029,-0.0029)" />
  </g>
  <g
     id="g238"
     transform="translate(106.8127,7.226)">
    <rect
       id="rect236"
       fill="currentColor"
       ry="0.042100001"
       height="2.1833999"
       width="0.1228"
       y="-3.0395"
       x="-0.0614" />
  </g>
  <g
     id="g242"
     transform="translate(97.1261,6.1208)">
    <path
       id="path240"
       fill="currentColor"
       d="M 0,0 C 0,30 25,55 55,55 85,55 109,30 109,0 109,-30 85,-55 55,-55 25,-55 0,-30 0,0 Z"
       transform="scale(0.0029,-0.0029)" />
  </g>
  <g
     id="g246"
     transform="translate(155.633,4.8859)">
    <polygon
       id="polygon244"
       points="0.0421,0.1347 0.0421,-0.1347 3.6763,0.1245 3.6763,0.394 "
       stroke="currentColor"
       fill="currentColor"
       stroke-width="0.0842"
       stroke-linecap="round"
       stroke-linejoin="round" />
  </g>
  <g
     id="g250"
     transform="translate(95.3699,5.7524)">
    <path
       id="path248"
       fill="currentColor"
       d="m 208,139 c 61,0 117,-33 117,-99 0,-71 -52,-119 -99,-147 -34,-20 -71,-32 -110,-32 -61,0 -116,33 -116,99 0,71 51,119 98,147 34,20 71,32 110,32 z"
       transform="scale(0.0029,-0.0029)" />
  </g>
  <g
     id="g254"
     transform="translate(95.8481,6.4892)">
    <path
       id="path252"
       fill="currentColor"
       d="m 208,139 c 61,0 117,-33 117,-99 0,-71 -52,-119 -99,-147 -34,-20 -71,-32 -110,-32 -61,0 -116,33 -116,99 0,71 51,119 98,147 34,20 71,32 110,32 z"
       transform="scale(0.0029,-0.0029)" />
  </g>
  <g
     id="g258"
     transform="translate(95.3699,7.226)">
    <path
       id="path256"
       fill="currentColor"
       d="m 208,139 c 61,0 117,-33 117,-99 0,-71 -52,-119 -99,-147 -34,-20 -71,-32 -110,-32 -61,0 -116,33 -116,99 0,71 51,119 98,147 34,20 71,32 110,32 z"
       transform="scale(0.0029,-0.0029)" />
  </g>
  <g
     id="g262"
     transform="translate(97.1261,5.3839)">
    <path
       id="path260"
       fill="currentColor"
       d="M 0,0 C 0,30 25,55 55,55 85,55 109,30 109,0 109,-30 85,-55 55,-55 25,-55 0,-30 0,0 Z"
       transform="scale(0.0029,-0.0029)" />
  </g>
  <g
     id="g266"
     transform="translate(96.265,7.226)">
    <rect
       id="rect264"
       fill="currentColor"
       ry="0.042100001"
       height="1.8457"
       width="0.1228"
       y="-3.4386001"
       x="-0.0614" />
  </g>
  <g
     id="g270"
     transform="translate(106.8741,4.2287)">
    <path
       id="path268"
       fill="currentColor"
       d="m 0,0 c 0,-196 207,-334 207,-530 0,-71 -15,-140 -41,-206 -5,-10 -14,-13 -23,-13 -14,0 -28,10 -28,26 0,2 1,3 1,5 26,59 42,123 42,188 0,101 -90,205 -158,280 H -21 V 0 Z"
       transform="scale(0.0029,-0.0029)" />
  </g>
  <g
     id="g274"
     transform="translate(96.7432,7.226)">
    <rect
       id="rect272"
       fill="currentColor"
       ry="0.042100001"
       height="2.0913"
       width="0.1228"
       y="-2.9474001"
       x="-0.0614" />
  </g>
  <g
     id="g278"
     transform="translate(95.4312,7.226)">
    <rect
       id="rect276"
       fill="currentColor"
       ry="0.042100001"
       height="2.095"
       width="0.1228"
       y="0.1192"
       x="-0.0614" />
  </g>
  <g
     id="g282"
     transform="translate(110.1533,7.226)">
    <rect
       id="rect280"
       fill="currentColor"
       ry="0.042100001"
       height="1.9711"
       width="0.1228"
       y="0.85610002"
       x="-0.0614" />
  </g>
  <g
     id="g286"
     transform="translate(113.1985,8.6997)">
    <path
       id="path284"
       fill="currentColor"
       d="m 208,139 c 61,0 117,-33 117,-99 0,-71 -52,-119 -99,-147 -34,-20 -71,-32 -110,-32 -61,0 -116,33 -116,99 0,71 51,119 98,147 34,20 71,32 110,32 z"
       transform="scale(0.0029,-0.0029)" />
  </g>
  <g
     id="g290"
     transform="translate(113.2598,7.226)">
    <rect
       id="rect288"
       fill="currentColor"
       ry="0.042100001"
       height="1.7134"
       width="0.1228"
       y="1.5929"
       x="-0.0614" />
  </g>
  <g
     id="g294"
     transform="translate(116.8049,6.1208)">
    <path
       id="path292"
       fill="currentColor"
       d="m 208,139 c 61,0 117,-33 117,-99 0,-71 -52,-119 -99,-147 -34,-20 -71,-32 -110,-32 -61,0 -116,33 -116,99 0,71 51,119 98,147 34,20 71,32 110,32 z"
       transform="scale(0.0029,-0.0029)" />
  </g>
  <g
     id="g298"
     transform="translate(117.2832,6.8576)">
    <path
       id="path296"
       fill="currentColor"
       d="m 208,139 c 61,0 117,-33 117,-99 0,-71 -52,-119 -99,-147 -34,-20 -71,-32 -110,-32 -61,0 -116,33 -116,99 0,71 51,119 98,147 34,20 71,32 110,32 z"
       transform="scale(0.0029,-0.0029)" />
  </g>
  <g
     id="g302"
     transform="translate(116.8049,7.5945)">
    <path
       id="path300"
       fill="currentColor"
       d="m 208,139 c 61,0 117,-33 117,-99 0,-71 -52,-119 -99,-147 -34,-20 -71,-32 -110,-32 -61,0 -116,33 -116,99 0,71 51,119 98,147 34,20 71,32 110,32 z"
       transform="scale(0.0029,-0.0029)" />
  </g>
  <g
     id="g306"
     transform="translate(110.092,7.9629)">
    <path
       id="path304"
       fill="currentColor"
       d="m 208,139 c 61,0 117,-33 117,-99 0,-71 -52,-119 -99,-147 -34,-20 -71,-32 -110,-32 -61,0 -116,33 -116,99 0,71 51,119 98,147 34,20 71,32 110,32 z"
       transform="scale(0.0029,-0.0029)" />
  </g>
  <g
     id="g310"
     transform="translate(105.5007,7.226)">
    <rect
       id="rect308"
       fill="currentColor"
       ry="0.042100001"
       height="1.5896"
       width="0.1228"
       y="1.2244999"
       x="-0.0614" />
  </g>
  <g
     id="g314"
     transform="translate(110.092,6.1208)">
    <path
       id="path312"
       fill="currentColor"
       d="m 208,139 c 61,0 117,-33 117,-99 0,-71 -52,-119 -99,-147 -34,-20 -71,-32 -110,-32 -61,0 -116,33 -116,99 0,71 51,119 98,147 34,20 71,32 110,32 z"
       transform="scale(0.0029,-0.0029)" />
  </g>
  <g
     id="g318"
     transform="translate(111.0485,6.4892)">
    <path
       id="path316"
       fill="currentColor"
       d="m 208,139 c 61,0 117,-33 117,-99 0,-71 -52,-119 -99,-147 -34,-20 -71,-32 -110,-32 -61,0 -116,33 -116,99 0,71 51,119 98,147 34,20 71,32 110,32 z"
       transform="scale(0.0029,-0.0029)" />
  </g>
  <g
     id="g322"
     transform="translate(118.5612,6.1208)">
    <path
       id="path320"
       fill="currentColor"
       d="M 0,0 C 0,30 25,55 55,55 85,55 109,30 109,0 109,-30 85,-55 55,-55 25,-55 0,-30 0,0 Z"
       transform="scale(0.0029,-0.0029)" />
  </g>
  <g
     id="g326"
     transform="translate(110.9871,7.226)">
    <rect
       id="rect324"
       fill="currentColor"
       ry="0.042100001"
       height="1.9685"
       width="0.1228"
       y="-3.1930001"
       x="-0.0614" />
  </g>
  <g
     id="g330"
     transform="translate(111.9436,7.226)">
    <rect
       id="rect328"
       fill="currentColor"
       ry="0.042100001"
       height="2.0913"
       width="0.1228"
       y="-2.9474001"
       x="-0.0614" />
  </g>
  <g
     id="g334"
     transform="translate(161.5123,6.8576)">
    <path
       id="path332"
       fill="currentColor"
       d="m 208,139 c 61,0 117,-33 117,-99 0,-71 -52,-119 -99,-147 -34,-20 -71,-32 -110,-32 -61,0 -116,33 -116,99 0,71 51,119 98,147 34,20 71,32 110,32 z"
       transform="scale(0.0029,-0.0029)" />
  </g>
  <g
     id="g338"
     transform="translate(158.8118,7.226)">
    <rect
       id="rect336"
       fill="currentColor"
       ry="0.042100001"
       height="1.7268"
       width="0.1228"
       y="-2.5829"
       x="-0.0614" />
  </g>
  <g
     id="g342"
     transform="translate(159.29,7.226)">
    <rect
       id="rect340"
       fill="currentColor"
       ry="0.042100001"
       height="3.0711999"
       width="0.1228"
       y="-2.0852001"
       x="-0.0614" />
  </g>
  <g
     id="g346"
     transform="translate(158.3949,8.3313)">
    <path
       id="path344"
       fill="currentColor"
       d="m 208,139 c 61,0 117,-33 117,-99 0,-71 -52,-119 -99,-147 -34,-20 -71,-32 -110,-32 -61,0 -116,33 -116,99 0,71 51,119 98,147 34,20 71,32 110,32 z"
       transform="scale(0.0029,-0.0029)" />
  </g>
  <g
     id="g350"
     transform="translate(162.0232,8.6997)">
    <path
       id="path348"
       fill="currentColor"
       d="m 308,62 c 0,23 -20,39 -40,39 -4,0 -7,0 -11,-1 C 228,92 183,62 148,39 113,16 69,-13 49,-36 43,-44 39,-52 39,-62 c 0,-23 20,-39 40,-39 4,0 7,0 11,1 29,8 74,38 109,61 35,23 79,52 99,75 6,8 10,16 10,26 z M 0,-59 c 0,142 114,198 251,198 53,0 96,-22 96,-80 0,-142 -115,-198 -252,-198 -53,0 -95,22 -95,80 z"
       transform="scale(0.0029,-0.0029)" />
  </g>
  <g
     id="g354"
     transform="translate(161.5123,10.1734)">
    <path
       id="path352"
       fill="currentColor"
       d="m 308,62 c 0,23 -20,39 -40,39 -4,0 -7,0 -11,-1 C 228,92 183,62 148,39 113,16 69,-13 49,-36 43,-44 39,-52 39,-62 c 0,-23 20,-39 40,-39 4,0 7,0 11,1 29,8 74,38 109,61 35,23 79,52 99,75 6,8 10,16 10,26 z M 0,-59 c 0,142 114,198 251,198 53,0 96,-22 96,-80 0,-142 -115,-198 -252,-198 -53,0 -95,22 -95,80 z"
       transform="scale(0.0029,-0.0029)" />
  </g>
  <g
     id="g358"
     transform="translate(163.3667,6.8576)">
    <path
       id="path356"
       fill="currentColor"
       d="M 0,0 C 0,30 25,55 55,55 85,55 109,30 109,0 109,-30 85,-55 55,-55 25,-55 0,-30 0,0 Z"
       transform="scale(0.0029,-0.0029)" />
  </g>
  <g
     id="g362"
     transform="translate(162.4074,7.226)">
    <rect
       id="rect360"
       fill="currentColor"
       ry="0.042100001"
       height="2.2140999"
       width="0.1228"
       y="-2.7018001"
       x="-0.0614" />
  </g>
  <g
     id="g366"
     transform="translate(162.9837,7.226)">
    <rect
       id="rect364"
       fill="currentColor"
       ry="0.042100001"
       height="2.4047"
       width="0.1228"
       y="-1.1052999"
       x="-0.0614" />
  </g>
  <g
     id="g370"
     transform="translate(155.6944,7.226)">
    <rect
       id="rect368"
       fill="currentColor"
       ry="0.042100001"
       height="2.9535"
       width="0.1228"
       y="-2.3359001"
       x="-0.0614" />
  </g>
  <g
     id="g374"
     transform="translate(157.9166,6.4892)">
    <path
       id="path372"
       fill="currentColor"
       d="m 208,139 c 61,0 117,-33 117,-99 0,-71 -52,-119 -99,-147 -34,-20 -71,-32 -110,-32 -61,0 -116,33 -116,99 0,71 51,119 98,147 34,20 71,32 110,32 z"
       transform="scale(0.0029,-0.0029)" />
  </g>
  <g
     id="g378"
     transform="translate(88.1569,10.7806)">
    <polygon
       id="polygon376"
       points="0.0421,0.1347 0.0421,-0.1347 3.6871,-0.6123 3.6871,-0.3429 "
       stroke="currentColor"
       fill="currentColor"
       stroke-width="0.0842"
       stroke-linecap="round"
       stroke-linejoin="round" />
  </g>
  <g
     id="g382"
     transform="translate(23.5298,7.226)">
    <path
       id="path380"
       d="m 0.9169,-3.8568 c 0.8422,-0.6863 2.616,-0.5646 3.3565,0.2303 v 0 C 3.5251,-4.3083 1.7514,-4.4301 0.9169,-3.8568 Z"
       fill="currentColor"
       stroke="currentColor"
       stroke-linecap="round"
       stroke-linejoin="round"
       stroke-width="0.0755" />
  </g>
  <g
     id="g386"
     transform="translate(30.2428,8.8294)">
    <polygon
       id="polygon384"
       points="0.0421,0.1347 0.0421,-0.1347 10.1501,0.4725 10.1501,0.742 "
       stroke="currentColor"
       fill="currentColor"
       stroke-width="0.0842"
       stroke-linecap="round"
       stroke-linejoin="round" />
  </g>
  <g
     id="g390"
     transform="translate(30.2428,7.226)">
    <path
       id="path388"
       d="m 0.0424,2.1522 c 1.1848,1.1253 5.403,1.3766 6.713,0.4 v 0 c -1.3033,0.8635 -5.5215,0.6122 -6.713,-0.4 z"
       fill="currentColor"
       stroke="currentColor"
       stroke-linecap="round"
       stroke-linejoin="round"
       stroke-width="0.0755" />
  </g>
  <g
     id="g394"
     transform="translate(45.6415,4.4083)">
    <polygon
       id="polygon392"
       points="0.0421,0.1347 0.0421,-0.1347 3.4371,0.1041 3.4371,0.3735 "
       stroke="currentColor"
       fill="currentColor"
       stroke-width="0.0842"
       stroke-linecap="round"
       stroke-linejoin="round" />
  </g>
  <g
     id="g398"
     transform="translate(44.8078,7.226)">
    <path
       id="path396"
       d="m 0.9169,-3.3588 c 0.8422,-0.6863 2.616,-0.5646 3.3565,0.2304 v 0 C 3.5251,-3.8103 1.7514,-3.932 0.9169,-3.3588 Z"
       fill="currentColor"
       stroke="currentColor"
       stroke-linecap="round"
       stroke-linejoin="round"
       stroke-width="0.0755" />
  </g>
  <g
     id="g402"
     transform="translate(51.5208,9.4366)">
    <polygon
       id="polygon400"
       points="0.0421,0.1347 0.0421,-0.1347 10.1501,0.4725 10.1501,0.742 "
       stroke="currentColor"
       fill="currentColor"
       stroke-width="0.0842"
       stroke-linecap="round"
       stroke-linejoin="round" />
  </g>
  <g
     id="g406"
     transform="translate(67.4136,4.8859)">
    <polygon
       id="polygon404"
       points="0.0421,0.1347 0.0421,-0.1347 3.4371,0.1245 3.4371,0.394 "
       stroke="currentColor"
       fill="currentColor"
       stroke-width="0.0842"
       stroke-linecap="round"
       stroke-linejoin="round" />
  </g>
  <g
     id="g410"
     transform="translate(66.5799,7.226)">
    <path
       id="path408"
       d="m 0.9188,-2.8808 c 0.8464,-0.6816 2.6204,-0.5494 3.3565,0.2501 v 0 C 3.5308,-3.3172 1.7568,-3.4494 0.9188,-2.8808 Z"
       fill="currentColor"
       stroke="currentColor"
       stroke-linecap="round"
       stroke-linejoin="round"
       stroke-width="0.0755" />
  </g>
  <g
     id="g414"
     transform="translate(74.1266,2.1978)">
    <polygon
       id="polygon412"
       points="0.0421,0.1347 0.0421,-0.1347 10.7935,-0.1347 10.7935,0.1347 "
       stroke="currentColor"
       fill="currentColor"
       stroke-width="0.0842"
       stroke-linecap="round"
       stroke-linejoin="round" />
  </g>
  <g
     id="g418"
     transform="translate(77.2533,2.9346)">
    <polygon
       id="polygon416"
       points="0.0421,0.1347 0.0421,-0.1347 7.1885,0.3429 7.1885,0.6123 "
       stroke="currentColor"
       fill="currentColor"
       stroke-width="0.0842"
       stroke-linecap="round"
       stroke-linejoin="round" />
  </g>
  <g
     id="g422"
     transform="translate(24.3635,3.9103)">
    <polygon
       id="polygon420"
       points="0.0421,0.1347 0.0421,-0.1347 3.4371,0.1041 3.4371,0.3735 "
       stroke="currentColor"
       fill="currentColor"
       stroke-width="0.0842"
       stroke-linecap="round"
       stroke-linejoin="round" />
  </g>
  <g
     id="g426"
     transform="translate(76.4196,10.0438)">
    <polygon
       id="polygon424"
       points="0.0421,0.1347 0.0421,-0.1347 7.1885,0.3633 7.1885,0.6328 "
       stroke="currentColor"
       fill="currentColor"
       stroke-width="0.0842"
       stroke-linecap="round"
       stroke-linejoin="round" />
  </g>
  <g
     id="g430"
     transform="translate(95.3699,9.4366)">
    <polygon
       id="polygon428"
       points="0.0421,0.1347 0.0421,-0.1347 10.1501,0.4725 10.1501,0.742 "
       stroke="currentColor"
       fill="currentColor"
       stroke-width="0.0842"
       stroke-linecap="round"
       stroke-linejoin="round" />
  </g>
  <g
     id="g434"
     transform="translate(110.092,10.0438)">
    <polygon
       id="polygon432"
       points="0.0421,0.1347 0.0421,-0.1347 3.1871,0.3633 3.1871,0.6328 "
       stroke="currentColor"
       fill="currentColor"
       stroke-width="0.0842"
       stroke-linecap="round"
       stroke-linejoin="round" />
  </g>
  <g
     id="g438"
     transform="translate(116.8049,9.805)">
    <polygon
       id="polygon436"
       points="0.0421,0.1347 0.0421,-0.1347 10.1501,0.6021 10.1501,0.8716 "
       stroke="currentColor"
       fill="currentColor"
       stroke-width="0.0842"
       stroke-linecap="round"
       stroke-linejoin="round" />
  </g>
  <g
     id="g442"
     transform="translate(132.8692,3.1734)">
    <polygon
       id="polygon440"
       points="0.0421,0.1347 0.0421,-0.1347 3.4299,0.3633 3.4299,0.6328 "
       stroke="currentColor"
       fill="currentColor"
       stroke-width="0.0842"
       stroke-linecap="round"
       stroke-linejoin="round" />
  </g>
  <g
     id="g446"
     transform="translate(133.3475,4.8859)">
    <polygon
       id="polygon444"
       points="0.0421,0.1347 0.0421,-0.1347 3.4299,-0.3735 3.4299,-0.1041 "
       stroke="currentColor"
       fill="currentColor"
       stroke-width="0.0842"
       stroke-linecap="round"
       stroke-linejoin="round" />
  </g>
  <g
     id="g450"
     transform="translate(139.7344,2.9346)">
    <polygon
       id="polygon448"
       points="0.0421,0.1347 0.0421,-0.1347 10.7425,0.4725 10.7425,0.742 "
       stroke="currentColor"
       fill="currentColor"
       stroke-width="0.0842"
       stroke-linecap="round"
       stroke-linejoin="round" />
  </g>
  <g
     id="g454"
     transform="translate(140.2126,3.9103)">
    <polygon
       id="polygon452"
       points="0.0421,0.1347 0.0421,-0.1347 10.7425,0.6021 10.7425,0.8716 "
       stroke="currentColor"
       fill="currentColor"
       stroke-width="0.0842"
       stroke-linecap="round"
       stroke-linejoin="round" />
  </g>
  <g
     id="g458"
     transform="translate(132.0355,10.303)">
    <polygon
       id="polygon456"
       points="0.0421,0.1347 0.0421,-0.1347 3.4299,0.3429 3.4299,0.6123 "
       stroke="currentColor"
       fill="currentColor"
       stroke-width="0.0842"
       stroke-linecap="round"
       stroke-linejoin="round" />
  </g>
  <g
     id="g462"
     transform="translate(155.1548,4.4083)">
    <polygon
       id="polygon460"
       points="0.0421,0.1347 0.0421,-0.1347 3.6763,0.1041 3.6763,0.3735 "
       stroke="currentColor"
       fill="currentColor"
       stroke-width="0.0842"
       stroke-linecap="round"
       stroke-linejoin="round" />
  </g>
  <g
     id="g466"
     transform="translate(161.5736,7.226)">
    <rect
       id="rect464"
       fill="currentColor"
       ry="0.042100001"
       height="1.6677999"
       width="0.1228"
       y="3.1217"
       x="-0.0614" />
  </g>
  <g
     id="g470"
     transform="translate(166.7707,6.4892)">
    <path
       id="path468"
       fill="currentColor"
       d="m 208,139 c 61,0 117,-33 117,-99 0,-71 -52,-119 -99,-147 -34,-20 -71,-32 -110,-32 -61,0 -116,33 -116,99 0,71 51,119 98,147 34,20 71,32 110,32 z"
       transform="scale(0.0029,-0.0029)" />
  </g>
  <g
     id="g474"
     transform="translate(167.6658,7.226)">
    <rect
       id="rect472"
       fill="currentColor"
       ry="0.042100001"
       height="2.1833999"
       width="0.1228"
       y="-3.0395"
       x="-0.0614" />
  </g>
  <g
     id="g478"
     transform="translate(167.7272,4.2287)">
    <path
       id="path476"
       fill="currentColor"
       d="m 0,0 c 0,-196 207,-334 207,-530 0,-71 -15,-140 -41,-206 -5,-10 -14,-13 -23,-13 -14,0 -28,10 -28,26 0,2 1,3 1,5 26,59 42,123 42,188 0,101 -90,205 -158,280 H -21 V 0 Z"
       transform="scale(0.0029,-0.0029)" />
  </g>
  <g
     id="g482"
     transform="translate(140.7523,7.226)">
    <rect
       id="rect480"
       fill="currentColor"
       ry="0.042100001"
       height="2.4597001"
       width="0.1228"
       y="-1.8421"
       x="-0.0614" />
  </g>
  <g
     id="g486"
     transform="translate(140.8136,5.426)">
    <path
       id="path484"
       fill="currentColor"
       d="m 0,0 c 0,-196 207,-334 207,-530 0,-71 -15,-140 -41,-206 -5,-10 -14,-13 -23,-13 -14,0 -28,10 -28,26 0,2 1,3 1,5 26,59 42,123 42,188 0,101 -90,205 -158,280 H -21 V 0 Z"
       transform="scale(0.0029,-0.0029)" />
  </g>
  <g
     id="g490"
     transform="translate(138.962,7.226)">
    <rect
       id="rect488"
       fill="currentColor"
       ry="0.042100001"
       height="1.7229"
       width="0.1228"
       y="3.4349999"
       x="-0.0614" />
  </g>
  <g
     id="g494"
     transform="translate(142.3713,5.0155)">
    <path
       id="path492"
       fill="currentColor"
       d="m 208,139 c 61,0 117,-33 117,-99 0,-71 -52,-119 -99,-147 -34,-20 -71,-32 -110,-32 -61,0 -116,33 -116,99 0,71 51,119 98,147 34,20 71,32 110,32 z"
       transform="scale(0.0029,-0.0029)" />
  </g>
  <g
     id="g498"
     transform="translate(142.8495,6.8576)">
    <path
       id="path496"
       fill="currentColor"
       d="m 208,139 c 61,0 117,-33 117,-99 0,-71 -52,-119 -99,-147 -34,-20 -71,-32 -110,-32 -61,0 -116,33 -116,99 0,71 51,119 98,147 34,20 71,32 110,32 z"
       transform="scale(0.0029,-0.0029)" />
  </g>
  <g
     id="g502"
     transform="translate(143.2664,7.226)">
    <rect
       id="rect500"
       fill="currentColor"
       ry="0.042100001"
       height="1.7628"
       width="0.1228"
       y="-4.0925999"
       x="-0.0614" />
  </g>
  <g
     id="g506"
     transform="translate(143.7446,7.226)">
    <rect
       id="rect504"
       fill="currentColor"
       ry="0.042100001"
       height="2.5868001"
       width="0.1228"
       y="-3.0745001"
       x="-0.0614" />
  </g>
  <g
     id="g510"
     transform="translate(136.7581,7.226)">
    <rect
       id="rect508"
       fill="currentColor"
       ry="0.042100001"
       height="1.7187001"
       width="0.1228"
       y="-2.5747001"
       x="-0.0614" />
  </g>
  <g
     id="g514"
     transform="translate(135.4461,7.226)">
    <rect
       id="rect512"
       fill="currentColor"
       ry="0.042100001"
       height="1.5848"
       width="0.1228"
       y="1.9613"
       x="-0.0614" />
  </g>
  <g
     id="g518"
     transform="translate(138.9007,4.6471)">
    <path
       id="path516"
       fill="currentColor"
       d="m 208,139 c 61,0 117,-33 117,-99 0,-71 -52,-119 -99,-147 -34,-20 -71,-32 -110,-32 -61,0 -116,33 -116,99 0,71 51,119 98,147 34,20 71,32 110,32 z"
       transform="scale(0.0029,-0.0029)" />
  </g>
  <g
     id="g522"
     transform="translate(139.3789,6.4892)">
    <path
       id="path520"
       fill="currentColor"
       d="m 208,139 c 61,0 117,-33 117,-99 0,-71 -52,-119 -99,-147 -34,-20 -71,-32 -110,-32 -61,0 -116,33 -116,99 0,71 51,119 98,147 34,20 71,32 110,32 z"
       transform="scale(0.0029,-0.0029)" />
  </g>
  <g
     id="g526"
     transform="translate(139.8571,7.9629)">
    <path
       id="path524"
       fill="currentColor"
       d="m 208,139 c 61,0 117,-33 117,-99 0,-71 -52,-119 -99,-147 -34,-20 -71,-32 -110,-32 -61,0 -116,33 -116,99 0,71 51,119 98,147 34,20 71,32 110,32 z"
       transform="scale(0.0029,-0.0029)" />
  </g>
  <g
     id="g530"
     transform="translate(138.9007,10.5418)">
    <path
       id="path528"
       fill="currentColor"
       d="m 208,139 c 61,0 117,-33 117,-99 0,-71 -52,-119 -99,-147 -34,-20 -71,-32 -110,-32 -61,0 -116,33 -116,99 0,71 51,119 98,147 34,20 71,32 110,32 z"
       transform="scale(0.0029,-0.0029)" />
  </g>
  <g
     id="g534"
     transform="translate(139.7958,7.226)">
    <rect
       id="rect532"
       fill="currentColor"
       ry="0.042100001"
       height="1.5898"
       width="0.1228"
       y="-4.2880001"
       x="-0.0614" />
  </g>
  <g
     id="g538"
     transform="translate(140.274,7.226)">
    <rect
       id="rect536"
       fill="currentColor"
       ry="0.042100001"
       height="2.4554999"
       width="0.1228"
       y="-3.3116"
       x="-0.0614" />
  </g>
  <g
     id="g542"
     transform="translate(149.5625,5.7524)">
    <path
       id="path540"
       fill="currentColor"
       d="m 208,139 c 61,0 117,-33 117,-99 0,-71 -52,-119 -99,-147 -34,-20 -71,-32 -110,-32 -61,0 -116,33 -116,99 0,71 51,119 98,147 34,20 71,32 110,32 z"
       transform="scale(0.0029,-0.0029)" />
  </g>
  <g
     id="g546"
     transform="translate(150.0407,7.5945)">
    <path
       id="path544"
       fill="currentColor"
       d="m 208,139 c 61,0 117,-33 117,-99 0,-71 -52,-119 -99,-147 -34,-20 -71,-32 -110,-32 -61,0 -116,33 -116,99 0,71 51,119 98,147 34,20 71,32 110,32 z"
       transform="scale(0.0029,-0.0029)" />
  </g>
  <g
     id="g550"
     transform="translate(150.4576,7.226)">
    <rect
       id="rect548"
       fill="currentColor"
       ry="0.042100001"
       height="2.0948"
       width="0.1228"
       y="-3.6877"
       x="-0.0614" />
  </g>
  <g
     id="g554"
     transform="translate(150.9358,7.226)">
    <rect
       id="rect552"
       fill="currentColor"
       ry="0.042100001"
       height="2.8322999"
       width="0.1228"
       y="-2.5831001"
       x="-0.0614" />
  </g>
  <g
     id="g558"
     transform="translate(154.321,6.1208)">
    <path
       id="path556"
       fill="currentColor"
       d="m 208,139 c 61,0 117,-33 117,-99 0,-71 -52,-119 -99,-147 -34,-20 -71,-32 -110,-32 -61,0 -116,33 -116,99 0,71 51,119 98,147 34,20 71,32 110,32 z"
       transform="scale(0.0029,-0.0029)" />
  </g>
  <g
     id="g562"
     transform="translate(154.7993,7.9629)">
    <path
       id="path560"
       fill="currentColor"
       d="m 208,139 c 61,0 117,-33 117,-99 0,-71 -52,-119 -99,-147 -34,-20 -71,-32 -110,-32 -61,0 -116,33 -116,99 0,71 51,119 98,147 34,20 71,32 110,32 z"
       transform="scale(0.0029,-0.0029)" />
  </g>
  <g
     id="g566"
     transform="translate(154.321,10.1734)">
    <path
       id="path564"
       fill="currentColor"
       d="m -25,-120 c 0,32 16,43 50,43 28,0 65,-8 99,-20 L 0,51 c -8,9 -11,17 -11,26 0,35 54,68 90,103 22,22 34,51 34,80 0,25 -9,50 -26,71 l -29,34 c -4,4 -5,9 -5,13 0,11 10,20 21,20 5,0 11,-2 15,-7 L 237,214 c 8,-9 10,-17 10,-26 0,-35 -53,-68 -89,-103 -22,-22 -34,-51 -34,-80 0,-25 9,-50 26,-71 l 77,-91 c 4,-4 5,-9 5,-13 0,-11 -10,-20 -21,-20 -5,0 -11,2 -15,7 -15,18 -53,31 -84,31 -42,0 -56,-22 -56,-64 0,-33 11,-71 27,-90 2,-2 2,-5 2,-7 0,-5 -5,-10 -10,-10 -3,0 -6,1 -8,4 -44,52 -92,145 -92,199 z"
       transform="scale(0.0029,-0.0029)" />
  </g>
  <g
     id="g570"
     transform="translate(155.2161,7.226)">
    <rect
       id="rect568"
       fill="currentColor"
       ry="0.042100001"
       height="1.5893"
       width="0.1228"
       y="-2.8138001"
       x="-0.0614" />
  </g>
  <g
     id="g574"
     transform="translate(145.9669,5.3839)">
    <path
       id="path572"
       fill="currentColor"
       d="m 208,139 c 61,0 117,-33 117,-99 0,-71 -52,-119 -99,-147 -34,-20 -71,-32 -110,-32 -61,0 -116,33 -116,99 0,71 51,119 98,147 34,20 71,32 110,32 z"
       transform="scale(0.0029,-0.0029)" />
  </g>
  <g
     id="g578"
     transform="translate(146.4451,7.226)">
    <path
       id="path576"
       fill="currentColor"
       d="m 208,139 c 61,0 117,-33 117,-99 0,-71 -52,-119 -99,-147 -34,-20 -71,-32 -110,-32 -61,0 -116,33 -116,99 0,71 51,119 98,147 34,20 71,32 110,32 z"
       transform="scale(0.0029,-0.0029)" />
  </g>
  <g
     id="g582"
     transform="translate(145.9669,9.4366)">
    <path
       id="path580"
       fill="currentColor"
       d="m -25,-120 c 0,32 16,43 50,43 28,0 65,-8 99,-20 L 0,51 c -8,9 -11,17 -11,26 0,35 54,68 90,103 22,22 34,51 34,80 0,25 -9,50 -26,71 l -29,34 c -4,4 -5,9 -5,13 0,11 10,20 21,20 5,0 11,-2 15,-7 L 237,214 c 8,-9 10,-17 10,-26 0,-35 -53,-68 -89,-103 -22,-22 -34,-51 -34,-80 0,-25 9,-50 26,-71 l 77,-91 c 4,-4 5,-9 5,-13 0,-11 -10,-20 -21,-20 -5,0 -11,2 -15,7 -15,18 -53,31 -84,31 -42,0 -56,-22 -56,-64 0,-33 11,-71 27,-90 2,-2 2,-5 2,-7 0,-5 -5,-10 -10,-10 -3,0 -6,1 -8,4 -44,52 -92,145 -92,199 z"
       transform="scale(0.0029,-0.0029)" />
  </g>
  <g
     id="g586"
     transform="translate(146.862,7.226)">
    <rect
       id="rect584"
       fill="currentColor"
       ry="0.042100001"
       height="1.9288"
       width="0.1228"
       y="-3.8901"
       x="-0.0614" />
  </g>
  <g
     id="g590"
     transform="translate(147.3402,7.226)">
    <rect
       id="rect588"
       fill="currentColor"
       ry="0.042100001"
       height="2.7096"
       width="0.1228"
       y="-2.8288"
       x="-0.0614" />
  </g>
  <g
     id="g594"
     transform="translate(40.3122,6.1208)">
    <path
       id="path592"
       fill="currentColor"
       d="m 208,139 c 61,0 117,-33 117,-99 0,-71 -52,-119 -99,-147 -34,-20 -71,-32 -110,-32 -61,0 -116,33 -116,99 0,71 51,119 98,147 34,20 71,32 110,32 z"
       transform="scale(0.0029,-0.0029)" />
  </g>
  <g
     id="g598"
     transform="translate(40.3122,7.5945)">
    <path
       id="path596"
       fill="currentColor"
       d="m 208,139 c 61,0 117,-33 117,-99 0,-71 -52,-119 -99,-147 -34,-20 -71,-32 -110,-32 -61,0 -116,33 -116,99 0,71 51,119 98,147 34,20 71,32 110,32 z"
       transform="scale(0.0029,-0.0029)" />
  </g>
  <g
     id="g602"
     transform="translate(41.2073,7.226)">
    <rect
       id="rect600"
       fill="currentColor"
       ry="0.042100001"
       height="2.0913"
       width="0.1228"
       y="-3.3158"
       x="-0.0614" />
  </g>
  <g
     id="g606"
     transform="translate(41.2687,3.9524)">
    <path
       id="path604"
       fill="currentColor"
       d="m 0,0 c 0,-196 207,-334 207,-530 0,-71 -15,-140 -41,-206 -5,-10 -14,-13 -23,-13 -14,0 -28,10 -28,26 0,2 1,3 1,5 26,59 42,123 42,188 0,101 -90,205 -158,280 H -21 V 0 Z"
       transform="scale(0.0029,-0.0029)" />
  </g>
  <g
     id="g610"
     transform="translate(40.3736,7.226)">
    <rect
       id="rect608"
       fill="currentColor"
       ry="0.042100001"
       height="1.7192"
       width="0.1228"
       y="0.4876"
       x="-0.0614" />
  </g>
  <g
     id="g614"
     transform="translate(39.1517,7.5945)">
    <path
       id="path612"
       fill="currentColor"
       d="m 0,114 c 0,12 7,22 18,26 l 37,15 v 151 c 0,12 10,22 22,22 12,0 22,-10 22,-22 V 172 l 77,29 v 152 c 0,12 10,22 22,22 12,0 22,-10 22,-22 V 219 l 16,6 c 3,1 8,2 11,2 15,0 28,-12 28,-28 v -50 c 0,-12 -7,-23 -18,-27 L 220,108 V -44 l 16,7 c 3,1 8,2 11,2 15,0 28,-13 28,-29 v -50 c 0,-12 -7,-22 -18,-26 l -37,-15 v -151 c 0,-12 -10,-22 -22,-22 -12,0 -22,10 -22,22 v 134 l -77,-29 v -152 c 0,-12 -10,-22 -22,-22 -12,0 -22,10 -22,22 v 134 l -16,-6 c -3,-1 -8,-2 -11,-2 -15,0 -28,12 -28,28 v 50 c 0,12 7,23 18,27 l 37,14 V 44 L 39,37 C 36,36 31,35 28,35 13,35 0,48 0,64 Z M 176,91 99,61 V -91 l 77,30 z"
       transform="scale(0.0029,-0.0029)" />
  </g>
  <g
     id="g618"
     transform="translate(44.8078,6.1208)">
    <path
       id="path616"
       fill="currentColor"
       d="m 208,139 c 61,0 117,-33 117,-99 0,-71 -52,-119 -99,-147 -34,-20 -71,-32 -110,-32 -61,0 -116,33 -116,99 0,71 51,119 98,147 34,20 71,32 110,32 z"
       transform="scale(0.0029,-0.0029)" />
  </g>
  <g
     id="g622"
     transform="translate(44.8078,7.226)">
    <path
       id="path620"
       fill="currentColor"
       d="m 208,139 c 61,0 117,-33 117,-99 0,-71 -52,-119 -99,-147 -34,-20 -71,-32 -110,-32 -61,0 -116,33 -116,99 0,71 51,119 98,147 34,20 71,32 110,32 z"
       transform="scale(0.0029,-0.0029)" />
  </g>
  <g
     id="g626"
     transform="translate(45.7029,7.226)">
    <rect
       id="rect624"
       fill="currentColor"
       ry="0.042100001"
       height="1.589"
       width="0.1228"
       y="-2.8134999"
       x="-0.0614" />
  </g>
  <g
     id="g630"
     transform="translate(33.5993,6.8576)">
    <path
       id="path628"
       fill="currentColor"
       d="m 208,139 c 61,0 117,-33 117,-99 0,-71 -52,-119 -99,-147 -34,-20 -71,-32 -110,-32 -61,0 -116,33 -116,99 0,71 51,119 98,147 34,20 71,32 110,32 z"
       transform="scale(0.0029,-0.0029)" />
  </g>
  <g
     id="g634"
     transform="translate(30.3041,7.226)">
    <rect
       id="rect632"
       fill="currentColor"
       ry="0.042100001"
       height="2.2246001"
       width="0.1228"
       y="-0.61760002"
       x="-0.0614" />
  </g>
  <g
     id="g638"
     transform="translate(33.6606,7.226)">
    <rect
       id="rect636"
       fill="currentColor"
       ry="0.042100001"
       height="2.0560999"
       width="0.1228"
       y="-0.2492"
       x="-0.0614" />
  </g>
  <g
     id="g642"
     transform="translate(36.9557,7.226)">
    <path
       id="path640"
       fill="currentColor"
       d="m 208,139 c 61,0 117,-33 117,-99 0,-71 -52,-119 -99,-147 -34,-20 -71,-32 -110,-32 -61,0 -116,33 -116,99 0,71 51,119 98,147 34,20 71,32 110,32 z"
       transform="scale(0.0029,-0.0029)" />
  </g>
  <g
     id="g646"
     transform="translate(37.0171,7.226)">
    <rect
       id="rect644"
       fill="currentColor"
       ry="0.042100001"
       height="1.8877"
       width="0.1228"
       y="0.1192"
       x="-0.0614" />
  </g>
  <g
     id="g650"
     transform="translate(53.7936,6.8576)">
    <path
       id="path648"
       fill="currentColor"
       d="M 0,0 C 0,30 25,55 55,55 85,55 109,30 109,0 109,-30 85,-55 55,-55 25,-55 0,-30 0,0 Z"
       transform="scale(0.0029,-0.0029)" />
  </g>
  <g
     id="g654"
     transform="translate(53.4107,7.226)">
    <rect
       id="rect652"
       fill="currentColor"
       ry="0.042100001"
       height="2.2140999"
       width="0.1228"
       y="-2.7018001"
       x="-0.0614" />
  </g>
  <g
     id="g658"
     transform="translate(51.5822,7.226)">
    <rect
       id="rect656"
       fill="currentColor"
       ry="0.042100001"
       height="2.095"
       width="0.1228"
       y="0.1192"
       x="-0.0614" />
  </g>
  <g
     id="g662"
     transform="translate(51.5208,7.226)">
    <path
       id="path660"
       fill="currentColor"
       d="m 208,139 c 61,0 117,-33 117,-99 0,-71 -52,-119 -99,-147 -34,-20 -71,-32 -110,-32 -61,0 -116,33 -116,99 0,71 51,119 98,147 34,20 71,32 110,32 z"
       transform="scale(0.0029,-0.0029)" />
  </g>
  <g
     id="g666"
     transform="translate(50.655,6.8576)">
    <path
       id="path664"
       fill="currentColor"
       d="m -8,375 c 8,5 18,7 27,7 9,0 20,-2 28,-7 l -3,-196 99,24 h 4 c 11,0 20,-8 20,-19 l 8,-559 c -8,-5 -19,-7 -28,-7 -9,0 -19,2 -27,7 l 3,196 -99,-24 h -5 c -11,0 -19,8 -19,19 z M 127,109 42,89 l -2,-198 84,20 z"
       transform="scale(0.0029,-0.0029)" />
  </g>
  <g
     id="g670"
     transform="translate(54.8773,7.5945)">
    <path
       id="path668"
       fill="currentColor"
       d="m 208,139 c 61,0 117,-33 117,-99 0,-71 -52,-119 -99,-147 -34,-20 -71,-32 -110,-32 -61,0 -116,33 -116,99 0,71 51,119 98,147 34,20 71,32 110,32 z"
       transform="scale(0.0029,-0.0029)" />
  </g>
  <g
     id="g674"
     transform="translate(54.9387,7.226)">
    <rect
       id="rect672"
       fill="currentColor"
       ry="0.042100001"
       height="1.9265"
       width="0.1228"
       y="0.4876"
       x="-0.0614" />
  </g>
  <g
     id="g678"
     transform="translate(58.2338,7.9629)">
    <path
       id="path676"
       fill="currentColor"
       d="m 208,139 c 61,0 117,-33 117,-99 0,-71 -52,-119 -99,-147 -34,-20 -71,-32 -110,-32 -61,0 -116,33 -116,99 0,71 51,119 98,147 34,20 71,32 110,32 z"
       transform="scale(0.0029,-0.0029)" />
  </g>
  <g
     id="g682"
     transform="translate(44.8692,7.226)">
    <rect
       id="rect680"
       fill="currentColor"
       ry="0.042100001"
       height="2.3369"
       width="0.1228"
       y="0.1192"
       x="-0.0614" />
  </g>
  <g
     id="g686"
     transform="translate(32.1326,7.226)">
    <rect
       id="rect684"
       fill="currentColor"
       ry="0.042100001"
       height="1.9685"
       width="0.1228"
       y="-3.1930001"
       x="-0.0614" />
  </g>
  <g
     id="g690"
     transform="translate(48.1643,6.4892)">
    <path
       id="path688"
       fill="currentColor"
       d="m 208,139 c 61,0 117,-33 117,-99 0,-71 -52,-119 -99,-147 -34,-20 -71,-32 -110,-32 -61,0 -116,33 -116,99 0,71 51,119 98,147 34,20 71,32 110,32 z"
       transform="scale(0.0029,-0.0029)" />
  </g>
  <g
     id="g694"
     transform="translate(49.0594,7.226)">
    <rect
       id="rect692"
       fill="currentColor"
       ry="0.042100001"
       height="1.7271"
       width="0.1228"
       y="-2.5832"
       x="-0.0614" />
  </g>
  <g
     id="g698"
     transform="translate(52.5155,6.8576)">
    <path
       id="path696"
       fill="currentColor"
       d="m 208,139 c 61,0 117,-33 117,-99 0,-71 -52,-119 -99,-147 -34,-20 -71,-32 -110,-32 -61,0 -116,33 -116,99 0,71 51,119 98,147 34,20 71,32 110,32 z"
       transform="scale(0.0029,-0.0029)" />
  </g>
  <g
     id="g702"
     transform="translate(14.9729,5.3839)">
    <path
       id="path700"
       fill="currentColor"
       d="M 0,0 C 0,30 25,55 55,55 85,55 109,30 109,0 109,-30 85,-55 55,-55 25,-55 0,-30 0,0 Z"
       transform="scale(0.0029,-0.0029)" />
  </g>
  <g
     id="g706"
     transform="translate(8.4824,7.226)">
    <rect
       id="rect704"
       fill="currentColor"
       ry="0.042100001"
       height="1.7229"
       width="0.1228"
       y="1.9613"
       x="-0.0614" />
  </g>
  <g
     id="g710"
     transform="translate(13.2166,5.7524)">
    <path
       id="path708"
       fill="currentColor"
       d="m 208,139 c 61,0 117,-33 117,-99 0,-71 -52,-119 -99,-147 -34,-20 -71,-32 -110,-32 -61,0 -116,33 -116,99 0,71 51,119 98,147 34,20 71,32 110,32 z"
       transform="scale(0.0029,-0.0029)" />
  </g>
  <g
     id="g714"
     transform="translate(13.6949,6.4892)">
    <path
       id="path712"
       fill="currentColor"
       d="m 208,139 c 61,0 117,-33 117,-99 0,-71 -52,-119 -99,-147 -34,-20 -71,-32 -110,-32 -61,0 -116,33 -116,99 0,71 51,119 98,147 34,20 71,32 110,32 z"
       transform="scale(0.0029,-0.0029)" />
  </g>
  <g
     id="g718"
     transform="translate(9.7944,7.226)">
    <rect
       id="rect716"
       fill="currentColor"
       ry="0.042100001"
       height="2.0913"
       width="0.1228"
       y="-2.9474001"
       x="-0.0614" />
  </g>
  <g
     id="g722"
     transform="translate(14.1117,7.226)">
    <rect
       id="rect720"
       fill="currentColor"
       ry="0.042100001"
       height="1.8457"
       width="0.1228"
       y="-3.4386001"
       x="-0.0614" />
  </g>
  <g
     id="g726"
     transform="translate(14.9729,6.1208)">
    <path
       id="path724"
       fill="currentColor"
       d="M 0,0 C 0,30 25,55 55,55 85,55 109,30 109,0 109,-30 85,-55 55,-55 25,-55 0,-30 0,0 Z"
       transform="scale(0.0029,-0.0029)" />
  </g>
  <g
     id="g730"
     transform="translate(14.59,7.226)">
    <rect
       id="rect728"
       fill="currentColor"
       ry="0.042100001"
       height="2.0913"
       width="0.1228"
       y="-2.9474001"
       x="-0.0614" />
  </g>
  <g
     id="g734"
     transform="translate(0.8,7.9629)">
    <path
       id="path732"
       fill="currentColor"
       d="m 381,266 h 9 c 157,0 258,-130 258,-264 0,-77 -33,-156 -108,-212 -22,-16 -46,-28 -71,-36 2,-32 3,-65 3,-97 0,-21 -1,-43 -2,-64 -7,-122 -91,-230 -211,-230 -108,0 -197,88 -197,197 0,58 54,104 113,104 54,0 95,-48 95,-104 0,-52 -43,-95 -95,-95 -8,0 -16,2 -24,4 25,-35 65,-59 111,-59 95,0 155,92 161,190 1,20 2,39 2,59 0,28 -1,55 -3,83 -29,-5 -57,-7 -87,-7 -189,0 -333,174 -333,377 0,176 128,307 242,443 -21,62 -41,124 -50,189 -7,52 -8,106 -8,159 0,113 54,219 146,286 8,6 21,7 29,0 72,-82 136,-244 136,-357 0,-141 -83,-253 -174,-362 22,-67 41,-135 58,-204 z m 83,-466 c 64,25 108,93 108,159 0,87 -62,173 -163,187 24,-113 43,-225 55,-346 z m -126,-18 c 27,0 54,2 80,6 C 405,-87 385,30 360,147 281,140 237,88 237,31 c 0,-43 24,-89 78,-120 5,-5 8,-11 8,-17 0,-13 -11,-24 -24,-24 -3,0 -7,0 -10,2 -81,44 -119,116 -119,187 0,90 60,178 164,201 -14,56 -30,112 -47,167 C 183,305 79,182 79,23 79,-109 206,-218 338,-218 Z M 239,782 c 0,-69 22,-127 41,-183 77,97 140,199 140,323 0,49 -3,69 -19,113 C 302,990 239,890 239,782 Z"
       transform="scale(0.0029,-0.0029)" />
  </g>
  <g
     id="g738"
     transform="translate(4.3,5.7524)">
    <path
       id="path736"
       fill="currentColor"
       d="m 0,114 c 0,12 7,22 18,26 l 37,15 v 151 c 0,12 10,22 22,22 12,0 22,-10 22,-22 V 172 l 77,29 v 152 c 0,12 10,22 22,22 12,0 22,-10 22,-22 V 219 l 16,6 c 3,1 8,2 11,2 15,0 28,-12 28,-28 v -50 c 0,-12 -7,-23 -18,-27 L 220,108 V -44 l 16,7 c 3,1 8,2 11,2 15,0 28,-13 28,-29 v -50 c 0,-12 -7,-22 -18,-26 l -37,-15 v -151 c 0,-12 -10,-22 -22,-22 -12,0 -22,10 -22,22 v 134 l -77,-29 v -152 c 0,-12 -10,-22 -22,-22 -12,0 -22,10 -22,22 v 134 l -16,-6 c -3,-1 -8,-2 -11,-2 -15,0 -28,12 -28,28 v 50 c 0,12 7,23 18,27 l 37,14 V 44 L 39,37 C 36,36 31,35 28,35 13,35 0,48 0,64 Z M 176,91 99,61 V -91 l 77,30 z"
       transform="scale(0.0029,-0.0029)" />
  </g>
  <g
     id="g742"
     transform="translate(5.1105,6.8576)">
    <path
       id="path740"
       fill="currentColor"
       d="m 0,114 c 0,12 7,22 18,26 l 37,15 v 151 c 0,12 10,22 22,22 12,0 22,-10 22,-22 V 172 l 77,29 v 152 c 0,12 10,22 22,22 12,0 22,-10 22,-22 V 219 l 16,6 c 3,1 8,2 11,2 15,0 28,-12 28,-28 v -50 c 0,-12 -7,-23 -18,-27 L 220,108 V -44 l 16,7 c 3,1 8,2 11,2 15,0 28,-13 28,-29 v -50 c 0,-12 -7,-22 -18,-26 l -37,-15 v -151 c 0,-12 -10,-22 -22,-22 -12,0 -22,10 -22,22 v 134 l -77,-29 v -152 c 0,-12 -10,-22 -22,-22 -12,0 -22,10 -22,22 v 134 l -16,-6 c -3,-1 -8,-2 -11,-2 -15,0 -28,12 -28,28 v 50 c 0,12 7,23 18,27 l 37,14 V 44 L 39,37 C 36,36 31,35 28,35 13,35 0,48 0,64 Z M 176,91 99,61 V -91 l 77,30 z"
       transform="scale(0.0029,-0.0029)" />
  </g>
  <g
     id="g746"
     transform="translate(8.421,5.7524)">
    <path
       id="path744"
       fill="currentColor"
       d="m 208,139 c 61,0 117,-33 117,-99 0,-71 -52,-119 -99,-147 -34,-20 -71,-32 -110,-32 -61,0 -116,33 -116,99 0,71 51,119 98,147 34,20 71,32 110,32 z"
       transform="scale(0.0029,-0.0029)" />
  </g>
  <g
     id="g750"
     transform="translate(8.8993,6.4892)">
    <path
       id="path748"
       fill="currentColor"
       d="m 208,139 c 61,0 117,-33 117,-99 0,-71 -52,-119 -99,-147 -34,-20 -71,-32 -110,-32 -61,0 -116,33 -116,99 0,71 51,119 98,147 34,20 71,32 110,32 z"
       transform="scale(0.0029,-0.0029)" />
  </g>
  <g
     id="g754"
     transform="translate(8.421,9.0682)">
    <path
       id="path752"
       fill="currentColor"
       d="m 208,139 c 61,0 117,-33 117,-99 0,-71 -52,-119 -99,-147 -34,-20 -71,-32 -110,-32 -61,0 -116,33 -116,99 0,71 51,119 98,147 34,20 71,32 110,32 z"
       transform="scale(0.0029,-0.0029)" />
  </g>
  <g
     id="g758"
     transform="translate(9.3161,7.226)">
    <rect
       id="rect756"
       fill="currentColor"
       ry="0.042100001"
       height="1.8457"
       width="0.1228"
       y="-3.4386001"
       x="-0.0614" />
  </g>
  <g
     id="g762"
     transform="translate(23.5912,7.226)">
    <rect
       id="rect760"
       fill="currentColor"
       ry="0.042100001"
       height="2.4597001"
       width="0.1228"
       y="-0.61760002"
       x="-0.0614" />
  </g>
  <g
     id="g766"
     transform="translate(26.8863,6.1208)">
    <path
       id="path764"
       fill="currentColor"
       d="m 208,139 c 61,0 117,-33 117,-99 0,-71 -52,-119 -99,-147 -34,-20 -71,-32 -110,-32 -61,0 -116,33 -116,99 0,71 51,119 98,147 34,20 71,32 110,32 z"
       transform="scale(0.0029,-0.0029)" />
  </g>
  <g
     id="g770"
     transform="translate(27.7814,7.226)">
    <rect
       id="rect768"
       fill="currentColor"
       ry="0.042100001"
       height="1.8566999"
       width="0.1228"
       y="-3.0811999"
       x="-0.0614" />
  </g>
  <g
     id="g774"
     transform="translate(31.2375,6.1208)">
    <path
       id="path772"
       fill="currentColor"
       d="m 208,139 c 61,0 117,-33 117,-99 0,-71 -52,-119 -99,-147 -34,-20 -71,-32 -110,-32 -61,0 -116,33 -116,99 0,71 51,119 98,147 34,20 71,32 110,32 z"
       transform="scale(0.0029,-0.0029)" />
  </g>
  <g
     id="g778"
     transform="translate(30.2428,6.4892)">
    <path
       id="path776"
       fill="currentColor"
       d="m 208,139 c 61,0 117,-33 117,-99 0,-71 -52,-119 -99,-147 -34,-20 -71,-32 -110,-32 -61,0 -116,33 -116,99 0,71 51,119 98,147 34,20 71,32 110,32 z"
       transform="scale(0.0029,-0.0029)" />
  </g>
  <g
     id="g782"
     transform="translate(32.5155,6.1208)">
    <path
       id="path780"
       fill="currentColor"
       d="M 0,0 C 0,30 25,55 55,55 85,55 109,30 109,0 109,-30 85,-55 55,-55 25,-55 0,-30 0,0 Z"
       transform="scale(0.0029,-0.0029)" />
  </g>
  <g
     id="g786"
     transform="translate(18.7142,5.7524)">
    <path
       id="path784"
       fill="currentColor"
       d="m 208,139 c 61,0 117,-33 117,-99 0,-71 -52,-119 -99,-147 -34,-20 -71,-32 -110,-32 -61,0 -116,33 -116,99 0,71 51,119 98,147 34,20 71,32 110,32 z"
       transform="scale(0.0029,-0.0029)" />
  </g>
  <g
     id="g790"
     transform="translate(19.1924,6.4892)">
    <path
       id="path788"
       fill="currentColor"
       d="m 208,139 c 61,0 117,-33 117,-99 0,-71 -52,-119 -99,-147 -34,-20 -71,-32 -110,-32 -61,0 -116,33 -116,99 0,71 51,119 98,147 34,20 71,32 110,32 z"
       transform="scale(0.0029,-0.0029)" />
  </g>
  <g
     id="g794"
     transform="translate(19.6093,7.226)">
    <rect
       id="rect792"
       fill="currentColor"
       ry="0.042100001"
       height="2.0913"
       width="0.1228"
       y="-3.6842"
       x="-0.0614" />
  </g>
  <g
     id="g798"
     transform="translate(19.6707,3.5839)">
    <path
       id="path796"
       fill="currentColor"
       d="m 0,0 c 0,-196 207,-334 207,-530 0,-71 -15,-140 -41,-206 -5,-10 -14,-13 -23,-13 -14,0 -28,10 -28,26 0,2 1,3 1,5 26,59 42,123 42,188 0,101 -90,205 -158,280 H -21 V 0 Z"
       transform="scale(0.0029,-0.0029)" />
  </g>
  <g
     id="g802"
     transform="translate(20.0875,7.226)">
    <rect
       id="rect800"
       fill="currentColor"
       ry="0.042100001"
       height="2.1833999"
       width="0.1228"
       y="-3.0395"
       x="-0.0614" />
  </g>
  <g
     id="g806"
     transform="translate(20.1489,4.2287)">
    <path
       id="path804"
       fill="currentColor"
       d="m 0,0 c 0,-196 207,-334 207,-530 0,-71 -15,-140 -41,-206 -5,-10 -14,-13 -23,-13 -14,0 -28,10 -28,26 0,2 1,3 1,5 26,59 42,123 42,188 0,101 -90,205 -158,280 H -21 V 0 Z"
       transform="scale(0.0029,-0.0029)" />
  </g>
  <g
     id="g810"
     transform="translate(23.5298,5.7524)">
    <path
       id="path808"
       fill="currentColor"
       d="m 208,139 c 61,0 117,-33 117,-99 0,-71 -52,-119 -99,-147 -34,-20 -71,-32 -110,-32 -61,0 -116,33 -116,99 0,71 51,119 98,147 34,20 71,32 110,32 z"
       transform="scale(0.0029,-0.0029)" />
  </g>
  <g
     id="g814"
     transform="translate(23.5298,6.4892)">
    <path
       id="path812"
       fill="currentColor"
       d="m 208,139 c 61,0 117,-33 117,-99 0,-71 -52,-119 -99,-147 -34,-20 -71,-32 -110,-32 -61,0 -116,33 -116,99 0,71 51,119 98,147 34,20 71,32 110,32 z"
       transform="scale(0.0029,-0.0029)" />
  </g>
  <g
     id="g818"
     transform="translate(24.4249,7.226)">
    <rect
       id="rect816"
       fill="currentColor"
       ry="0.042100001"
       height="1.7187001"
       width="0.1228"
       y="-3.3116"
       x="-0.0614" />
  </g>
  <g
     id="g822"
     transform="translate(80.0116,8.3313)">
    <path
       id="path820"
       fill="currentColor"
       d="m 208,139 c 61,0 117,-33 117,-99 0,-71 -52,-119 -99,-147 -34,-20 -71,-32 -110,-32 -61,0 -116,33 -116,99 0,71 51,119 98,147 34,20 71,32 110,32 z"
       transform="scale(0.0029,-0.0029)" />
  </g>
  <g
     id="g826"
     transform="translate(80.9067,7.226)">
    <rect
       id="rect824"
       fill="currentColor"
       ry="0.042100001"
       height="1.7204"
       width="0.1228"
       y="-4.0500998"
       x="-0.0614" />
  </g>
  <g
     id="g830"
     transform="translate(81.3849,7.226)">
    <rect
       id="rect828"
       fill="currentColor"
       ry="0.042100001"
       height="4.9089999"
       width="0.1228"
       y="-5.0282998"
       x="-0.0614" />
  </g>
  <g
     id="g834"
     transform="translate(80.4898,7.226)">
    <path
       id="path832"
       fill="currentColor"
       d="m 208,139 c 61,0 117,-33 117,-99 0,-71 -52,-119 -99,-147 -34,-20 -71,-32 -110,-32 -61,0 -116,33 -116,99 0,71 51,119 98,147 34,20 71,32 110,32 z"
       transform="scale(0.0029,-0.0029)" />
  </g>
  <g
     id="g838"
     transform="translate(80.073,7.226)">
    <rect
       id="rect836"
       fill="currentColor"
       ry="0.042100001"
       height="1.8449"
       width="0.1228"
       y="1.2244999"
       x="-0.0614" />
  </g>
  <g
     id="g842"
     transform="translate(83.5275,5.3839)">
    <path
       id="path840"
       fill="currentColor"
       d="m 208,139 c 61,0 117,-33 117,-99 0,-71 -52,-119 -99,-147 -34,-20 -71,-32 -110,-32 -61,0 -116,33 -116,99 0,71 51,119 98,147 34,20 71,32 110,32 z"
       transform="scale(0.0029,-0.0029)" />
  </g>
  <g
     id="g846"
     transform="translate(84.0057,6.8576)">
    <path
       id="path844"
       fill="currentColor"
       d="m 208,139 c 61,0 117,-33 117,-99 0,-71 -52,-119 -99,-147 -34,-20 -71,-32 -110,-32 -61,0 -116,33 -116,99 0,71 51,119 98,147 34,20 71,32 110,32 z"
       transform="scale(0.0029,-0.0029)" />
  </g>
  <g
     id="g850"
     transform="translate(83.5275,8.6997)">
    <path
       id="path848"
       fill="currentColor"
       d="m 208,139 c 61,0 117,-33 117,-99 0,-71 -52,-119 -99,-147 -34,-20 -71,-32 -110,-32 -61,0 -116,33 -116,99 0,71 51,119 98,147 34,20 71,32 110,32 z"
       transform="scale(0.0029,-0.0029)" />
  </g>
  <g
     id="g854"
     transform="translate(84.4226,7.226)">
    <rect
       id="rect852"
       fill="currentColor"
       ry="0.042100001"
       height="1.8566"
       width="0.1228"
       y="-3.8178999"
       x="-0.0614" />
  </g>
  <g
     id="g858"
     transform="translate(76.4196,4.6471)">
    <path
       id="path856"
       fill="currentColor"
       d="m 208,139 c 61,0 117,-33 117,-99 0,-71 -52,-119 -99,-147 -34,-20 -71,-32 -110,-32 -61,0 -116,33 -116,99 0,71 51,119 98,147 34,20 71,32 110,32 z"
       transform="scale(0.0029,-0.0029)" />
  </g>
  <g
     id="g862"
     transform="translate(77.3761,7.5945)">
    <path
       id="path860"
       fill="currentColor"
       d="m 208,139 c 61,0 117,-33 117,-99 0,-71 -52,-119 -99,-147 -34,-20 -71,-32 -110,-32 -61,0 -116,33 -116,99 0,71 51,119 98,147 34,20 71,32 110,32 z"
       transform="scale(0.0029,-0.0029)" />
  </g>
  <g
     id="g866"
     transform="translate(76.4196,7.9629)">
    <path
       id="path864"
       fill="currentColor"
       d="m 208,139 c 61,0 117,-33 117,-99 0,-71 -52,-119 -99,-147 -34,-20 -71,-32 -110,-32 -61,0 -116,33 -116,99 0,71 51,119 98,147 34,20 71,32 110,32 z"
       transform="scale(0.0029,-0.0029)" />
  </g>
  <g
     id="g870"
     transform="translate(77.3147,7.226)">
    <rect
       id="rect868"
       fill="currentColor"
       ry="0.042100001"
       height="1.5892"
       width="0.1228"
       y="-4.2873998"
       x="-0.0614" />
  </g>
  <g
     id="g874"
     transform="translate(58.2952,7.226)">
    <rect
       id="rect872"
       fill="currentColor"
       ry="0.042100001"
       height="1.758"
       width="0.1228"
       y="0.85610002"
       x="-0.0614" />
  </g>
  <g
     id="g878"
     transform="translate(76.481,7.226)">
    <rect
       id="rect876"
       fill="currentColor"
       ry="0.042100001"
       height="1.9658999"
       width="0.1228"
       y="0.85610002"
       x="-0.0614" />
  </g>
  <g
     id="g882"
     transform="translate(80.0116,5.0155)">
    <path
       id="path880"
       fill="currentColor"
       d="m 208,139 c 61,0 117,-33 117,-99 0,-71 -52,-119 -99,-147 -34,-20 -71,-32 -110,-32 -61,0 -116,33 -116,99 0,71 51,119 98,147 34,20 71,32 110,32 z"
       transform="scale(0.0029,-0.0029)" />
  </g>
  <g
     id="g886"
     transform="translate(89.5302,7.226)">
    <rect
       id="rect884"
       fill="currentColor"
       ry="0.042100001"
       height="2.0913"
       width="0.1228"
       y="-2.9474001"
       x="-0.0614" />
  </g>
  <g
     id="g890"
     transform="translate(88.2183,7.226)">
    <rect
       id="rect888"
       fill="currentColor"
       ry="0.042100001"
       height="1.5854"
       width="0.1228"
       y="1.9613"
       x="-0.0614" />
  </g>
  <g
     id="g894"
     transform="translate(91.7634,8.3313)">
    <path
       id="path892"
       fill="currentColor"
       d="m 208,139 c 61,0 117,-33 117,-99 0,-71 -52,-119 -99,-147 -34,-20 -71,-32 -110,-32 -61,0 -116,33 -116,99 0,71 51,119 98,147 34,20 71,32 110,32 z"
       transform="scale(0.0029,-0.0029)" />
  </g>
  <g
     id="g898"
     transform="translate(91.8248,7.226)">
    <rect
       id="rect896"
       fill="currentColor"
       ry="0.042100001"
       height="1.8604"
       width="0.1228"
       y="1.2244999"
       x="-0.0614" />
  </g>
  <g
     id="g902"
     transform="translate(84.9008,7.226)">
    <rect
       id="rect900"
       fill="currentColor"
       ry="0.042100001"
       height="4.5405998"
       width="0.1228"
       y="-5.0282998"
       x="-0.0614" />
  </g>
  <g
     id="g906"
     transform="translate(83.5889,7.226)">
    <rect
       id="rect904"
       fill="currentColor"
       ry="0.042100001"
       height="1.7186"
       width="0.1228"
       y="1.5929"
       x="-0.0614" />
  </g>
  <g
     id="g910"
     transform="translate(78.2712,7.226)">
    <rect
       id="rect908"
       fill="currentColor"
       ry="0.042100001"
       height="5.2775002"
       width="0.1228"
       y="-5.0282998"
       x="-0.0614" />
  </g>
  <g
     id="g914"
     transform="translate(88.1569,5.7524)">
    <path
       id="path912"
       fill="currentColor"
       d="m 208,139 c 61,0 117,-33 117,-99 0,-71 -52,-119 -99,-147 -34,-20 -71,-32 -110,-32 -61,0 -116,33 -116,99 0,71 51,119 98,147 34,20 71,32 110,32 z"
       transform="scale(0.0029,-0.0029)" />
  </g>
  <g
     id="g918"
     transform="translate(88.6351,6.4892)">
    <path
       id="path916"
       fill="currentColor"
       d="m 208,139 c 61,0 117,-33 117,-99 0,-71 -52,-119 -99,-147 -34,-20 -71,-32 -110,-32 -61,0 -116,33 -116,99 0,71 51,119 98,147 34,20 71,32 110,32 z"
       transform="scale(0.0029,-0.0029)" />
  </g>
  <g
     id="g922"
     transform="translate(88.1569,9.0682)">
    <path
       id="path920"
       fill="currentColor"
       d="m 208,139 c 61,0 117,-33 117,-99 0,-71 -52,-119 -99,-147 -34,-20 -71,-32 -110,-32 -61,0 -116,33 -116,99 0,71 51,119 98,147 34,20 71,32 110,32 z"
       transform="scale(0.0029,-0.0029)" />
  </g>
  <g
     id="g926"
     transform="translate(89.052,7.226)">
    <rect
       id="rect924"
       fill="currentColor"
       ry="0.042100001"
       height="1.8457"
       width="0.1228"
       y="-3.4386001"
       x="-0.0614" />
  </g>
  <g
     id="g930"
     transform="translate(67.475,7.226)">
    <rect
       id="rect928"
       fill="currentColor"
       ry="0.042100001"
       height="1.8479"
       width="0.1228"
       y="-2.3355999"
       x="-0.0614" />
  </g>
  <g
     id="g934"
     transform="translate(66.6413,7.226)">
    <rect
       id="rect932"
       fill="currentColor"
       ry="0.042100001"
       height="2.0913"
       width="0.1228"
       y="0.85610002"
       x="-0.0614" />
  </g>
  <g
     id="g938"
     transform="translate(65.7141,6.8576)">
    <path
       id="path936"
       fill="currentColor"
       d="m -8,375 c 8,5 18,7 27,7 9,0 20,-2 28,-7 l -3,-196 99,24 h 4 c 11,0 20,-8 20,-19 l 8,-559 c -8,-5 -19,-7 -28,-7 -9,0 -19,2 -27,7 l 3,196 -99,-24 h -5 c -11,0 -19,8 -19,19 z M 127,109 42,89 l -2,-198 84,20 z"
       transform="scale(0.0029,-0.0029)" />
  </g>
  <g
     id="g942"
     transform="translate(72.1323,6.8576)">
    <path
       id="path940"
       fill="currentColor"
       d="m 0,114 c 0,12 7,22 18,26 l 37,15 v 151 c 0,12 10,22 22,22 12,0 22,-10 22,-22 V 172 l 77,29 v 152 c 0,12 10,22 22,22 12,0 22,-10 22,-22 V 219 l 16,6 c 3,1 8,2 11,2 15,0 28,-12 28,-28 v -50 c 0,-12 -7,-23 -18,-27 L 220,108 V -44 l 16,7 c 3,1 8,2 11,2 15,0 28,-13 28,-29 v -50 c 0,-12 -7,-22 -18,-26 l -37,-15 v -151 c 0,-12 -10,-22 -22,-22 -12,0 -22,10 -22,22 v 134 l -77,-29 v -152 c 0,-12 -10,-22 -22,-22 -12,0 -22,10 -22,22 v 134 l -16,-6 c -3,-1 -8,-2 -11,-2 -15,0 -28,12 -28,28 v 50 c 0,12 7,23 18,27 l 37,14 V 44 L 39,37 C 36,36 31,35 28,35 13,35 0,48 0,64 Z M 176,91 99,61 V -91 l 77,30 z"
       transform="scale(0.0029,-0.0029)" />
  </g>
  <g
     id="g946"
     transform="translate(61.5903,6.8576)">
    <path
       id="path944"
       fill="currentColor"
       d="m 208,139 c 61,0 117,-33 117,-99 0,-71 -52,-119 -99,-147 -34,-20 -71,-32 -110,-32 -61,0 -116,33 -116,99 0,71 51,119 98,147 34,20 71,32 110,32 z"
       transform="scale(0.0029,-0.0029)" />
  </g>
  <g
     id="g950"
     transform="translate(61.5903,8.3313)">
    <path
       id="path948"
       fill="currentColor"
       d="m 208,139 c 61,0 117,-33 117,-99 0,-71 -52,-119 -99,-147 -34,-20 -71,-32 -110,-32 -61,0 -116,33 -116,99 0,71 51,119 98,147 34,20 71,32 110,32 z"
       transform="scale(0.0029,-0.0029)" />
  </g>
  <g
     id="g954"
     transform="translate(62.4854,7.226)">
    <rect
       id="rect952"
       fill="currentColor"
       ry="0.042100001"
       height="2.2755001"
       width="0.1228"
       y="-2.7632"
       x="-0.0614" />
  </g>
  <g
     id="g958"
     transform="translate(62.5468,4.505)">
    <path
       id="path956"
       fill="currentColor"
       d="m 0,0 c 0,-196 207,-334 207,-530 0,-71 -15,-140 -41,-206 -5,-10 -14,-13 -23,-13 -14,0 -28,10 -28,26 0,2 1,3 1,5 26,59 42,123 42,188 0,101 -90,205 -158,280 H -21 V 0 Z"
       transform="scale(0.0029,-0.0029)" />
  </g>
  <g
     id="g962"
     transform="translate(61.6516,7.226)">
    <rect
       id="rect960"
       fill="currentColor"
       ry="0.042100001"
       height="1.5896"
       width="0.1228"
       y="1.2244999"
       x="-0.0614" />
  </g>
  <g
     id="g966"
     transform="translate(66.5799,6.8576)">
    <path
       id="path964"
       fill="currentColor"
       d="m 208,139 c 61,0 117,-33 117,-99 0,-71 -52,-119 -99,-147 -34,-20 -71,-32 -110,-32 -61,0 -116,33 -116,99 0,71 51,119 98,147 34,20 71,32 110,32 z"
       transform="scale(0.0029,-0.0029)" />
  </g>
  <g
     id="g970"
     transform="translate(66.5799,7.9629)">
    <path
       id="path968"
       fill="currentColor"
       d="m 208,139 c 61,0 117,-33 117,-99 0,-71 -52,-119 -99,-147 -34,-20 -71,-32 -110,-32 -61,0 -116,33 -116,99 0,71 51,119 98,147 34,20 71,32 110,32 z"
       transform="scale(0.0029,-0.0029)" />
  </g>
  <g
     id="g974"
     transform="translate(73.2929,0.5945)">
    <path
       id="path972"
       fill="currentColor"
       d="M 63,-250 182,75 C 150,64 117,54 83,54 36,54 -4,88 -4,133 c 0,40 34,72 75,72 25,0 48,-13 56,-36 10,-26 4,-58 32,-58 13,0 48,38 54,50 8,15 30,15 37,0 L 133,-250 c -10,-8 -23,-13 -35,-13 -12,0 -25,5 -35,13 z"
       transform="scale(0.0029,-0.0029)" />
  </g>
  <g
     id="g978"
     transform="translate(73.2929,8.6997)">
    <path
       id="path976"
       fill="currentColor"
       d="M 63,-250 182,75 C 150,64 117,54 83,54 36,54 -4,88 -4,133 c 0,40 34,72 75,72 25,0 48,-13 56,-36 10,-26 4,-58 32,-58 13,0 48,38 54,50 8,15 30,15 37,0 L 133,-250 c -10,-8 -23,-13 -35,-13 -12,0 -25,5 -35,13 z"
       transform="scale(0.0029,-0.0029)" />
  </g>
  <g
     id="g982"
     transform="translate(73.2929,6.8576)">
    <path
       id="path980"
       fill="currentColor"
       d="m 208,139 c 61,0 117,-33 117,-99 0,-71 -52,-119 -99,-147 -34,-20 -71,-32 -110,-32 -61,0 -116,33 -116,99 0,71 51,119 98,147 34,20 71,32 110,32 z"
       transform="scale(0.0029,-0.0029)" />
  </g>
  <g
     id="g986"
     transform="translate(69.9364,7.226)">
    <path
       id="path984"
       fill="currentColor"
       d="m 208,139 c 61,0 117,-33 117,-99 0,-71 -52,-119 -99,-147 -34,-20 -71,-32 -110,-32 -61,0 -116,33 -116,99 0,71 51,119 98,147 34,20 71,32 110,32 z"
       transform="scale(0.0029,-0.0029)" />
  </g>
  <g
     id="g990"
     transform="translate(74.188,7.226)">
    <rect
       id="rect988"
       fill="currentColor"
       ry="0.042100001"
       height="4.5405998"
       width="0.1228"
       y="-5.0282998"
       x="-0.0614" />
  </g>
  <g
     id="g994"
     transform="translate(70.8315,7.226)">
    <rect
       id="rect992"
       fill="currentColor"
       ry="0.042100001"
       height="1.9662"
       width="0.1228"
       y="-2.0855"
       x="-0.0614" />
  </g>
</svg>
