<?xml version="1.0" encoding="UTF-8" standalone="no"?>
<svg
   xmlns:dc="http://purl.org/dc/elements/1.1/"
   xmlns:cc="http://creativecommons.org/ns#"
   xmlns:rdf="http://www.w3.org/1999/02/22-rdf-syntax-ns#"
   xmlns:svg="http://www.w3.org/2000/svg"
   xmlns="http://www.w3.org/2000/svg"
   xmlns:sodipodi="http://sodipodi.sourceforge.net/DTD/sodipodi-0.dtd"
   xmlns:inkscape="http://www.inkscape.org/namespaces/inkscape"
   sodipodi:docname="bwv-1004_5_for_PNGs-15.svg"
   id="svg744"
   viewBox="0 0 131.24828 10.3158"
   height="17.221546mm"
   width="219.11035mm"
   version="1.2">
  <metadata
     id="metadata750">
    <rdf:RDF>
      <cc:Work
         rdf:about="">
        <dc:format>image/svg+xml</dc:format>
        <dc:type
           rdf:resource="http://purl.org/dc/dcmitype/StillImage" />
      </cc:Work>
    </rdf:RDF>
  </metadata>
  <defs
     id="defs748" />
  <sodipodi:namedview
     id="namedview746"
     inkscape:window-height="480"
     inkscape:window-width="640"
     inkscape:pageshadow="2"
     inkscape:pageopacity="0"
     guidetolerance="10"
     gridtolerance="10"
     objecttolerance="10"
     borderopacity="1"
     bordercolor="#666666"
     pagecolor="#ffffff" />
  <style
     id="style2"
     type="text/css"><![CDATA[
tspan { white-space: pre; }
]]></style>
  <g
     id="g6"
     transform="translate(0,6.6315999)">
    <line
       id="line4"
       y2="0"
       x2="131.2011"
       y1="0"
       x1="0.047200002"
       stroke="currentColor"
       stroke-width="0.0944"
       stroke-linecap="round"
       stroke-linejoin="round" />
  </g>
  <g
     id="g10"
     transform="translate(0,5.8947999)">
    <line
       id="line8"
       y2="0"
       x2="131.2011"
       y1="0"
       x1="0.047200002"
       stroke="currentColor"
       stroke-width="0.0944"
       stroke-linecap="round"
       stroke-linejoin="round" />
  </g>
  <g
     id="g14"
     transform="translate(0,5.1578999)">
    <line
       id="line12"
       y2="0"
       x2="131.2011"
       y1="0"
       x1="0.047200002"
       stroke="currentColor"
       stroke-width="0.0944"
       stroke-linecap="round"
       stroke-linejoin="round" />
  </g>
  <g
     id="g18"
     transform="translate(0,4.4210999)">
    <line
       id="line16"
       y2="0"
       x2="131.2011"
       y1="0"
       x1="0.047200002"
       stroke="currentColor"
       stroke-width="0.0944"
       stroke-linecap="round"
       stroke-linejoin="round" />
  </g>
  <g
     id="g22"
     transform="translate(0,3.6842999)">
    <line
       id="line20"
       y2="0"
       x2="131.2011"
       y1="0"
       x1="0.047200002"
       stroke="currentColor"
       stroke-width="0.0944"
       stroke-linecap="round"
       stroke-linejoin="round" />
  </g>
  <g
     id="g26"
     transform="translate(36.8754,5.1578999)">
    <rect
       id="rect24"
       fill="currentColor"
       ry="0.0000"
       height="2.9474001"
       width="0.1794"
       y="-1.4737"
       x="0" />
  </g>
  <g
     id="g30"
     transform="translate(68.0186,5.1578999)">
    <rect
       id="rect28"
       fill="currentColor"
       ry="0.0000"
       height="2.9474001"
       width="0.1794"
       y="-1.4737"
       x="0" />
  </g>
  <g
     id="g34"
     transform="translate(21.3258,5.1578999)">
    <rect
       id="rect32"
       fill="currentColor"
       ry="0.0000"
       height="2.9474001"
       width="0.1794"
       y="-1.4737"
       x="0" />
  </g>
  <g
     id="g38"
     transform="translate(52.4606,5.1578999)">
    <rect
       id="rect36"
       fill="currentColor"
       ry="0.0000"
       height="2.9474001"
       width="0.1794"
       y="-1.4737"
       x="0" />
  </g>
  <g
     id="g42"
     transform="translate(131.0688,5.1578999)">
    <rect
       id="rect40"
       fill="currentColor"
       ry="0.0000"
       height="2.9474001"
       width="0.1794"
       y="-1.4737"
       x="0" />
  </g>
  <g
     id="g46"
     transform="translate(115.2044,5.1578999)">
    <rect
       id="rect44"
       fill="currentColor"
       ry="0.0000"
       height="2.9474001"
       width="0.1794"
       y="-1.4737"
       x="0" />
  </g>
  <g
     id="g50"
     transform="translate(99.8778,5.1578999)">
    <rect
       id="rect48"
       fill="currentColor"
       ry="0.0000"
       height="2.9474001"
       width="0.1794"
       y="-1.4737"
       x="0" />
  </g>
  <g
     id="g54"
     transform="translate(84.4871,5.1578999)">
    <rect
       id="rect52"
       fill="currentColor"
       ry="0.0000"
       height="2.9474001"
       width="0.1794"
       y="-1.4737"
       x="0" />
  </g>
  <g
     id="g58"
     transform="translate(0,7.3684999)">
    <rect
       id="rect56"
       fill="currentColor"
       ry="0.084100001"
       height="0.1681"
       width="1.5329"
       y="-0.084100001"
       x="121.6048" />
  </g>
  <g
     id="g62"
     transform="translate(0,8.1052999)">
    <rect
       id="rect60"
       fill="currentColor"
       ry="0.084100001"
       height="0.1681"
       width="1.5329"
       y="-0.084100001"
       x="121.6048" />
  </g>
  <g
     id="g66"
     transform="translate(0,7.3684999)">
    <rect
       id="rect64"
       fill="currentColor"
       ry="0.084100001"
       height="0.1681"
       width="1.4347"
       y="-0.084100001"
       x="116.9053" />
  </g>
  <g
     id="g70"
     transform="translate(0,8.1052999)">
    <rect
       id="rect68"
       fill="currentColor"
       ry="0.084100001"
       height="0.1681"
       width="1.3706"
       y="-0.084100001"
       x="116.9694" />
  </g>
  <g
     id="g74"
     transform="translate(0,7.3684999)">
    <rect
       id="rect72"
       fill="currentColor"
       ry="0.084100001"
       height="0.1681"
       width="1.4347"
       y="-0.084100001"
       x="110.15" />
  </g>
  <g
     id="g78"
     transform="translate(0,8.1052999)">
    <rect
       id="rect76"
       fill="currentColor"
       ry="0.084100001"
       height="0.1681"
       width="1.4347"
       y="-0.084100001"
       x="110.15" />
  </g>
  <g
     id="g82"
     transform="translate(0,7.3684999)">
    <rect
       id="rect80"
       fill="currentColor"
       ry="0.084100001"
       height="0.1681"
       width="1.4347"
       y="-0.084100001"
       x="105.4341" />
  </g>
  <g
     id="g86"
     transform="translate(0,7.3684999)">
    <rect
       id="rect84"
       fill="currentColor"
       ry="0.084100001"
       height="0.1681"
       width="1.4347"
       y="-0.084100001"
       x="100.7182" />
  </g>
  <g
     id="g90"
     transform="translate(0,7.3684999)">
    <rect
       id="rect88"
       fill="currentColor"
       ry="0.084100001"
       height="0.1681"
       width="1.4347"
       y="-0.084100001"
       x="94.835297" />
  </g>
  <g
     id="g94"
     transform="translate(0,8.1052999)">
    <rect
       id="rect92"
       fill="currentColor"
       ry="0.084100001"
       height="0.1681"
       width="1.4347"
       y="-0.084100001"
       x="94.835297" />
  </g>
  <g
     id="g98"
     transform="translate(0,7.3684999)">
    <rect
       id="rect96"
       fill="currentColor"
       ry="0.084100001"
       height="0.1681"
       width="1.4347"
       y="-0.084100001"
       x="90.1194" />
  </g>
  <g
     id="g102"
     transform="translate(0,8.1052999)">
    <rect
       id="rect100"
       fill="currentColor"
       ry="0.084100001"
       height="0.1681"
       width="1.4347"
       y="-0.084100001"
       x="90.1194" />
  </g>
  <g
     id="g106"
     transform="translate(0,7.3684999)">
    <rect
       id="rect104"
       fill="currentColor"
       ry="0.084100001"
       height="0.1681"
       width="1.4347"
       y="-0.084100001"
       x="85.3274" />
  </g>
  <g
     id="g110"
     transform="translate(0,7.3684999)">
    <rect
       id="rect108"
       fill="currentColor"
       ry="0.084100001"
       height="0.1681"
       width="1.3829"
       y="-0.084100001"
       x="79.319" />
  </g>
  <g
     id="g114"
     transform="translate(0,7.3684999)">
    <rect
       id="rect112"
       fill="currentColor"
       ry="0.084100001"
       height="0.1681"
       width="1.4347"
       y="-0.084100001"
       x="74.351997" />
  </g>
  <g
     id="g118"
     transform="translate(0,8.1052999)">
    <rect
       id="rect116"
       fill="currentColor"
       ry="0.084100001"
       height="0.1681"
       width="1.4347"
       y="-0.084100001"
       x="74.351997" />
  </g>
  <g
     id="g122"
     transform="translate(0,2.9473999)">
    <rect
       id="rect120"
       fill="currentColor"
       ry="0.084100001"
       height="0.1681"
       width="1.4347"
       y="-0.084100001"
       x="58.3158" />
  </g>
  <g
     id="g126"
     transform="translate(0,2.9473999)">
    <rect
       id="rect124"
       fill="currentColor"
       ry="0.084100001"
       height="0.1681"
       width="1.4347"
       y="-0.084100001"
       x="53.6833" />
  </g>
  <g
     id="g130"
     transform="translate(0,2.9473999)">
    <rect
       id="rect128"
       fill="currentColor"
       ry="0.084100001"
       height="0.1681"
       width="1.4597"
       y="-0.084100001"
       x="43.189499" />
  </g>
  <g
     id="g134"
     transform="translate(0,2.2105999)">
    <rect
       id="rect132"
       fill="currentColor"
       ry="0.084100001"
       height="0.1681"
       width="1.4347"
       y="-0.084100001"
       x="38.576199" />
  </g>
  <g
     id="g138"
     transform="translate(0,2.9473999)">
    <rect
       id="rect136"
       fill="currentColor"
       ry="0.084100001"
       height="0.1681"
       width="1.4347"
       y="-0.084100001"
       x="38.576199" />
  </g>
  <g
     id="g142"
     transform="translate(0,2.2105999)">
    <rect
       id="rect140"
       fill="currentColor"
       ry="0.084100001"
       height="0.1681"
       width="1.4524"
       y="-0.084100001"
       x="27.647301" />
  </g>
  <g
     id="g146"
     transform="translate(0,2.9473999)">
    <rect
       id="rect144"
       fill="currentColor"
       ry="0.084100001"
       height="0.1681"
       width="1.5329"
       y="-0.084100001"
       x="27.566799" />
  </g>
  <g
     id="g150"
     transform="translate(0,2.2105999)">
    <rect
       id="rect148"
       fill="currentColor"
       ry="0.084100001"
       height="0.1681"
       width="1.4347"
       y="-0.084100001"
       x="23.026699" />
  </g>
  <g
     id="g154"
     transform="translate(0,2.9473999)">
    <rect
       id="rect152"
       fill="currentColor"
       ry="0.084100001"
       height="0.1681"
       width="1.4347"
       y="-0.084100001"
       x="23.026699" />
  </g>
  <g
     id="g158"
     transform="translate(0,2.2105999)">
    <rect
       id="rect156"
       fill="currentColor"
       ry="0.084100001"
       height="0.1681"
       width="1.5329"
       y="-0.084100001"
       x="7.2465" />
  </g>
  <g
     id="g162"
     transform="translate(0,2.9473999)">
    <rect
       id="rect160"
       fill="currentColor"
       ry="0.084100001"
       height="0.1681"
       width="1.5329"
       y="-0.084100001"
       x="7.2465" />
  </g>
  <g
     id="g166"
     transform="translate(86.4616,5.1578999)">
    <rect
       id="rect164"
       fill="currentColor"
       ry="0.042100001"
       height="1.9685"
       width="0.1228"
       y="-3.1930001"
       x="-0.0614" />
  </g>
  <g
     id="g170"
     transform="translate(90.3585,4.0526999)">
    <path
       id="path168"
       fill="currentColor"
       d="m 208,139 c 61,0 117,-33 117,-99 0,-71 -52,-119 -99,-147 -34,-20 -71,-32 -110,-32 -61,0 -116,33 -116,99 0,71 51,119 98,147 34,20 71,32 110,32 z"
       transform="scale(0.0029,-0.0029)" />
  </g>
  <g
     id="g174"
     transform="translate(85.6279,5.1578999)">
    <rect
       id="rect172"
       fill="currentColor"
       ry="0.042100001"
       height="1.7229"
       width="0.1228"
       y="2.3297999"
       x="-0.0614" />
  </g>
  <g
     id="g178"
     transform="translate(87.4181,5.1578999)">
    <rect
       id="rect176"
       fill="currentColor"
       ry="0.042100001"
       height="2.4597001"
       width="0.1228"
       y="-1.8421"
       x="-0.0614" />
  </g>
  <g
     id="g182"
     transform="translate(86.9399,5.1578999)">
    <rect
       id="rect180"
       fill="currentColor"
       ry="0.042100001"
       height="2.2140999"
       width="0.1228"
       y="-2.7018001"
       x="-0.0614" />
  </g>
  <g
     id="g186"
     transform="translate(89.419,4.0526999)">
    <path
       id="path184"
       fill="currentColor"
       d="m 33,35 -2,-60 v -11 c 0,-21 2,-43 5,-64 42,38 87,81 87,138 0,32 -13,63 -41,63 C 51,101 34,69 33,35 Z M 32,446 23,109 c 25,26 59,40 95,40 50,0 82,-51 82,-105 0,-77 -80,-117 -137,-169 -18,-17 -26,-48 -52,-48 -16,0 -28,15 -28,32 l -15,587 c 10,6 21,8 32,8 11,0 22,-2 32,-8 z"
       transform="scale(0.0029,-0.0029)" />
  </g>
  <g
     id="g190"
     transform="translate(95.1358,5.1578999)">
    <rect
       id="rect188"
       fill="currentColor"
       ry="0.042100001"
       height="1.7229"
       width="0.1228"
       y="3.0666001"
       x="-0.0614" />
  </g>
  <g
     id="g194"
     transform="translate(96.4478,5.1578999)">
    <rect
       id="rect192"
       fill="currentColor"
       ry="0.042100001"
       height="2.4597001"
       width="0.1228"
       y="-1.4737"
       x="-0.0614" />
  </g>
  <g
     id="g198"
     transform="translate(95.9695,5.1578999)">
    <rect
       id="rect196"
       fill="currentColor"
       ry="0.042100001"
       height="1.9685"
       width="0.1228"
       y="-3.1930001"
       x="-0.0614" />
  </g>
  <g
     id="g202"
     transform="translate(95.0744,8.1052999)">
    <path
       id="path200"
       fill="currentColor"
       d="m 208,139 c 61,0 117,-33 117,-99 0,-71 -52,-119 -99,-147 -34,-20 -71,-32 -110,-32 -61,0 -116,33 -116,99 0,71 51,119 98,147 34,20 71,32 110,32 z"
       transform="scale(0.0029,-0.0029)" />
  </g>
  <g
     id="g206"
     transform="translate(95.5526,6.2631999)">
    <path
       id="path204"
       fill="currentColor"
       d="m 208,139 c 61,0 117,-33 117,-99 0,-71 -52,-119 -99,-147 -34,-20 -71,-32 -110,-32 -61,0 -116,33 -116,99 0,71 51,119 98,147 34,20 71,32 110,32 z"
       transform="scale(0.0029,-0.0029)" />
  </g>
  <g
     id="g210"
     transform="translate(95.0744,4.0526999)">
    <path
       id="path208"
       fill="currentColor"
       d="m 208,139 c 61,0 117,-33 117,-99 0,-71 -52,-119 -99,-147 -34,-20 -71,-32 -110,-32 -61,0 -116,33 -116,99 0,71 51,119 98,147 34,20 71,32 110,32 z"
       transform="scale(0.0029,-0.0029)" />
  </g>
  <g
     id="g214"
     transform="translate(90.8367,5.8947999)">
    <path
       id="path212"
       fill="currentColor"
       d="m 208,139 c 61,0 117,-33 117,-99 0,-71 -52,-119 -99,-147 -34,-20 -71,-32 -110,-32 -61,0 -116,33 -116,99 0,71 51,119 98,147 34,20 71,32 110,32 z"
       transform="scale(0.0029,-0.0029)" />
  </g>
  <g
     id="g218"
     transform="translate(90.4199,5.1578999)">
    <rect
       id="rect216"
       fill="currentColor"
       ry="0.042100001"
       height="1.7229"
       width="0.1228"
       y="3.4349999"
       x="-0.0614" />
  </g>
  <g
     id="g222"
     transform="translate(91.7318,5.1578999)">
    <rect
       id="rect220"
       fill="currentColor"
       ry="0.042100001"
       height="2.4597001"
       width="0.1228"
       y="-1.8421"
       x="-0.0614" />
  </g>
  <g
     id="g226"
     transform="translate(91.2536,5.1578999)">
    <rect
       id="rect224"
       fill="currentColor"
       ry="0.042100001"
       height="1.9685"
       width="0.1228"
       y="-3.1930001"
       x="-0.0614" />
  </g>
  <g
     id="g230"
     transform="translate(90.3585,8.4736999)">
    <path
       id="path228"
       fill="currentColor"
       d="m 208,139 c 61,0 117,-33 117,-99 0,-71 -52,-119 -99,-147 -34,-20 -71,-32 -110,-32 -61,0 -116,33 -116,99 0,71 51,119 98,147 34,20 71,32 110,32 z"
       transform="scale(0.0029,-0.0029)" />
  </g>
  <g
     id="g234"
     transform="translate(73.7352,3.6842999)">
    <path
       id="path232"
       fill="currentColor"
       d="m -8,375 c 8,5 18,7 27,7 9,0 20,-2 28,-7 l -3,-196 99,24 h 4 c 11,0 20,-8 20,-19 l 8,-559 c -8,-5 -19,-7 -28,-7 -9,0 -19,2 -27,7 l 3,196 -99,-24 h -5 c -11,0 -19,8 -19,19 z M 127,109 42,89 l -2,-198 84,20 z"
       transform="scale(0.0029,-0.0029)" />
  </g>
  <g
     id="g238"
     transform="translate(74.6525,5.1578999)">
    <rect
       id="rect236"
       fill="currentColor"
       ry="0.042100001"
       height="1.7229"
       width="0.1228"
       y="3.0666001"
       x="-0.0614" />
  </g>
  <g
     id="g242"
     transform="translate(76.4427,5.1578999)">
    <rect
       id="rect240"
       fill="currentColor"
       ry="0.042100001"
       height="2.4597001"
       width="0.1228"
       y="-2.2105"
       x="-0.0614" />
  </g>
  <g
     id="g246"
     transform="translate(75.9644,5.1578999)">
    <rect
       id="rect244"
       fill="currentColor"
       ry="0.042100001"
       height="2.2140999"
       width="0.1228"
       y="-2.7018001"
       x="-0.0614" />
  </g>
  <g
     id="g250"
     transform="translate(75.4862,5.1578999)">
    <rect
       id="rect248"
       fill="currentColor"
       ry="0.042100001"
       height="1.8457"
       width="0.1228"
       y="-3.4386001"
       x="-0.0614" />
  </g>
  <g
     id="g254"
     transform="translate(74.5911,8.1052999)">
    <path
       id="path252"
       fill="currentColor"
       d="m 208,139 c 61,0 117,-33 117,-99 0,-71 -52,-119 -99,-147 -34,-20 -71,-32 -110,-32 -61,0 -116,33 -116,99 0,71 51,119 98,147 34,20 71,32 110,32 z"
       transform="scale(0.0029,-0.0029)" />
  </g>
  <g
     id="g258"
     transform="translate(75.5476,5.5263999)">
    <path
       id="path256"
       fill="currentColor"
       d="m 208,139 c 61,0 117,-33 117,-99 0,-71 -52,-119 -99,-147 -34,-20 -71,-32 -110,-32 -61,0 -116,33 -116,99 0,71 51,119 98,147 34,20 71,32 110,32 z"
       transform="scale(0.0029,-0.0029)" />
  </g>
  <g
     id="g262"
     transform="translate(75.0693,4.7894999)">
    <path
       id="path260"
       fill="currentColor"
       d="m 208,139 c 61,0 117,-33 117,-99 0,-71 -52,-119 -99,-147 -34,-20 -71,-32 -110,-32 -61,0 -116,33 -116,99 0,71 51,119 98,147 34,20 71,32 110,32 z"
       transform="scale(0.0029,-0.0029)" />
  </g>
  <g
     id="g266"
     transform="translate(74.5911,3.6842999)">
    <path
       id="path264"
       fill="currentColor"
       d="m 208,139 c 61,0 117,-33 117,-99 0,-71 -52,-119 -99,-147 -34,-20 -71,-32 -110,-32 -61,0 -116,33 -116,99 0,71 51,119 98,147 34,20 71,32 110,32 z"
       transform="scale(0.0029,-0.0029)" />
  </g>
  <g
     id="g270"
     transform="translate(85.5665,7.3684999)">
    <path
       id="path268"
       fill="currentColor"
       d="m 208,139 c 61,0 117,-33 117,-99 0,-71 -52,-119 -99,-147 -34,-20 -71,-32 -110,-32 -61,0 -116,33 -116,99 0,71 51,119 98,147 34,20 71,32 110,32 z"
       transform="scale(0.0029,-0.0029)" />
  </g>
  <g
     id="g274"
     transform="translate(86.523,5.8947999)">
    <path
       id="path272"
       fill="currentColor"
       d="m 208,139 c 61,0 117,-33 117,-99 0,-71 -52,-119 -99,-147 -34,-20 -71,-32 -110,-32 -61,0 -116,33 -116,99 0,71 51,119 98,147 34,20 71,32 110,32 z"
       transform="scale(0.0029,-0.0029)" />
  </g>
  <g
     id="g278"
     transform="translate(86.0448,4.7894999)">
    <path
       id="path276"
       fill="currentColor"
       d="m 208,139 c 61,0 117,-33 117,-99 0,-71 -52,-119 -99,-147 -34,-20 -71,-32 -110,-32 -61,0 -116,33 -116,99 0,71 51,119 98,147 34,20 71,32 110,32 z"
       transform="scale(0.0029,-0.0029)" />
  </g>
  <g
     id="g282"
     transform="translate(85.5665,4.0526999)">
    <path
       id="path280"
       fill="currentColor"
       d="m 208,139 c 61,0 117,-33 117,-99 0,-71 -52,-119 -99,-147 -34,-20 -71,-32 -110,-32 -61,0 -116,33 -116,99 0,71 51,119 98,147 34,20 71,32 110,32 z"
       transform="scale(0.0029,-0.0029)" />
  </g>
  <g
     id="g286"
     transform="translate(78.6405,7.7368999)">
    <path
       id="path284"
       fill="currentColor"
       d="m -8,375 c 8,5 18,7 27,7 9,0 20,-2 28,-7 l -3,-196 99,24 h 4 c 11,0 20,-8 20,-19 l 8,-559 c -8,-5 -19,-7 -28,-7 -9,0 -19,2 -27,7 l 3,196 -99,-24 h -5 c -11,0 -19,8 -19,19 z M 127,109 42,89 l -2,-198 84,20 z"
       transform="scale(0.0029,-0.0029)" />
  </g>
  <g
     id="g290"
     transform="translate(79.5677,5.1578999)">
    <rect
       id="rect288"
       fill="currentColor"
       ry="0.042100001"
       height="1.7229"
       width="0.1228"
       y="2.6982"
       x="-0.0614" />
  </g>
  <g
     id="g294"
     transform="translate(81.3579,5.1578999)">
    <rect
       id="rect292"
       fill="currentColor"
       ry="0.042100001"
       height="2.4597001"
       width="0.1228"
       y="-1.8421"
       x="-0.0614" />
  </g>
  <g
     id="g298"
     transform="translate(80.8796,5.1578999)">
    <rect
       id="rect296"
       fill="currentColor"
       ry="0.042100001"
       height="2.0913"
       width="0.1228"
       y="-2.9474001"
       x="-0.0614" />
  </g>
  <g
     id="g302"
     transform="translate(80.4014,5.1578999)">
    <rect
       id="rect300"
       fill="currentColor"
       ry="0.042100001"
       height="1.8457"
       width="0.1228"
       y="-3.4386001"
       x="-0.0614" />
  </g>
  <g
     id="g306"
     transform="translate(79.5063,7.7368999)">
    <path
       id="path304"
       fill="currentColor"
       d="m 208,139 c 61,0 117,-33 117,-99 0,-71 -52,-119 -99,-147 -34,-20 -71,-32 -110,-32 -61,0 -116,33 -116,99 0,71 51,119 98,147 34,20 71,32 110,32 z"
       transform="scale(0.0029,-0.0029)" />
  </g>
  <g
     id="g310"
     transform="translate(80.4628,5.8947999)">
    <path
       id="path308"
       fill="currentColor"
       d="m 208,139 c 61,0 117,-33 117,-99 0,-71 -52,-119 -99,-147 -34,-20 -71,-32 -110,-32 -61,0 -116,33 -116,99 0,71 51,119 98,147 34,20 71,32 110,32 z"
       transform="scale(0.0029,-0.0029)" />
  </g>
  <g
     id="g314"
     transform="translate(79.9845,4.4210999)">
    <path
       id="path312"
       fill="currentColor"
       d="m 208,139 c 61,0 117,-33 117,-99 0,-71 -52,-119 -99,-147 -34,-20 -71,-32 -110,-32 -61,0 -116,33 -116,99 0,71 51,119 98,147 34,20 71,32 110,32 z"
       transform="scale(0.0029,-0.0029)" />
  </g>
  <g
     id="g318"
     transform="translate(79.5063,3.6842999)">
    <path
       id="path316"
       fill="currentColor"
       d="m 208,139 c 61,0 117,-33 117,-99 0,-71 -52,-119 -99,-147 -34,-20 -71,-32 -110,-32 -61,0 -116,33 -116,99 0,71 51,119 98,147 34,20 71,32 110,32 z"
       transform="scale(0.0029,-0.0029)" />
  </g>
  <g
     id="g322"
     transform="translate(122.3712,6.6315999)">
    <path
       id="path320"
       fill="currentColor"
       d="m 308,62 c 0,23 -20,39 -40,39 -4,0 -7,0 -11,-1 C 228,92 183,62 148,39 113,16 69,-13 49,-36 43,-44 39,-52 39,-62 c 0,-23 20,-39 40,-39 4,0 7,0 11,1 29,8 74,38 109,61 35,23 79,52 99,75 6,8 10,16 10,26 z M 0,-59 c 0,142 114,198 251,198 53,0 96,-22 96,-80 0,-142 -115,-198 -252,-198 -53,0 -95,22 -95,80 z"
       transform="scale(0.0029,-0.0029)" />
  </g>
  <g
     id="g326"
     transform="translate(121.8603,4.4210999)">
    <path
       id="path324"
       fill="currentColor"
       d="m 208,139 c 61,0 117,-33 117,-99 0,-71 -52,-119 -99,-147 -34,-20 -71,-32 -110,-32 -61,0 -116,33 -116,99 0,71 51,119 98,147 34,20 71,32 110,32 z"
       transform="scale(0.0029,-0.0029)" />
  </g>
  <g
     id="g330"
     transform="translate(115.9838,8.4736999)">
    <path
       id="path328"
       fill="currentColor"
       d="m 0,114 c 0,12 7,22 18,26 l 37,15 v 151 c 0,12 10,22 22,22 12,0 22,-10 22,-22 V 172 l 77,29 v 152 c 0,12 10,22 22,22 12,0 22,-10 22,-22 V 219 l 16,6 c 3,1 8,2 11,2 15,0 28,-12 28,-28 v -50 c 0,-12 -7,-23 -18,-27 L 220,108 V -44 l 16,7 c 3,1 8,2 11,2 15,0 28,-13 28,-29 v -50 c 0,-12 -7,-22 -18,-26 l -37,-15 v -151 c 0,-12 -10,-22 -22,-22 -12,0 -22,10 -22,22 v 134 l -77,-29 v -152 c 0,-12 -10,-22 -22,-22 -12,0 -22,10 -22,22 v 134 l -16,-6 c -3,-1 -8,-2 -11,-2 -15,0 -28,12 -28,28 v 50 c 0,12 7,23 18,27 l 37,14 V 44 L 39,37 C 36,36 31,35 28,35 13,35 0,48 0,64 Z M 176,91 99,61 V -91 l 77,30 z"
       transform="scale(0.0029,-0.0029)" />
  </g>
  <g
     id="g334"
     transform="translate(121.8603,8.1052999)">
    <path
       id="path332"
       fill="currentColor"
       d="m 308,62 c 0,23 -20,39 -40,39 -4,0 -7,0 -11,-1 C 228,92 183,62 148,39 113,16 69,-13 49,-36 43,-44 39,-52 39,-62 c 0,-23 20,-39 40,-39 4,0 7,0 11,1 29,8 74,38 109,61 35,23 79,52 99,75 6,8 10,16 10,26 z M 0,-59 c 0,142 114,198 251,198 53,0 96,-22 96,-80 0,-142 -115,-198 -252,-198 -53,0 -95,22 -95,80 z"
       transform="scale(0.0029,-0.0029)" />
  </g>
  <g
     id="g338"
     transform="translate(117.2058,5.1578999)">
    <rect
       id="rect336"
       fill="currentColor"
       ry="0.042100001"
       height="1.7229"
       width="0.1228"
       y="3.4349999"
       x="-0.0614" />
  </g>
  <g
     id="g342"
     transform="translate(118.5177,5.1578999)">
    <rect
       id="rect340"
       fill="currentColor"
       ry="0.042100001"
       height="2.4597001"
       width="0.1228"
       y="-1.1052999"
       x="-0.0614" />
  </g>
  <g
     id="g346"
     transform="translate(118.0395,5.1578999)">
    <rect
       id="rect344"
       fill="currentColor"
       ry="0.042100001"
       height="2.0913"
       width="0.1228"
       y="-2.9474001"
       x="-0.0614" />
  </g>
  <g
     id="g350"
     transform="translate(117.1444,8.4736999)">
    <path
       id="path348"
       fill="currentColor"
       d="m 208,139 c 61,0 117,-33 117,-99 0,-71 -52,-119 -99,-147 -34,-20 -71,-32 -110,-32 -61,0 -116,33 -116,99 0,71 51,119 98,147 34,20 71,32 110,32 z"
       transform="scale(0.0029,-0.0029)" />
  </g>
  <g
     id="g354"
     transform="translate(117.6226,6.6315999)">
    <path
       id="path352"
       fill="currentColor"
       d="m 208,139 c 61,0 117,-33 117,-99 0,-71 -52,-119 -99,-147 -34,-20 -71,-32 -110,-32 -61,0 -116,33 -116,99 0,71 51,119 98,147 34,20 71,32 110,32 z"
       transform="scale(0.0029,-0.0029)" />
  </g>
  <g
     id="g358"
     transform="translate(117.1444,4.4210999)">
    <path
       id="path356"
       fill="currentColor"
       d="m 208,139 c 61,0 117,-33 117,-99 0,-71 -52,-119 -99,-147 -34,-20 -71,-32 -110,-32 -61,0 -116,33 -116,99 0,71 51,119 98,147 34,20 71,32 110,32 z"
       transform="scale(0.0029,-0.0029)" />
  </g>
  <g
     id="g362"
     transform="translate(126.4168,4.7894999)">
    <path
       id="path360"
       fill="currentColor"
       d="m 208,139 c 61,0 117,-33 117,-99 0,-71 -52,-119 -99,-147 -34,-20 -71,-32 -110,-32 -61,0 -116,33 -116,99 0,71 51,119 98,147 34,20 71,32 110,32 z"
       transform="scale(0.0029,-0.0029)" />
  </g>
  <g
     id="g366"
     transform="translate(125.2562,4.7894999)">
    <path
       id="path364"
       fill="currentColor"
       d="m 0,114 c 0,12 7,22 18,26 l 37,15 v 151 c 0,12 10,22 22,22 12,0 22,-10 22,-22 V 172 l 77,29 v 152 c 0,12 10,22 22,22 12,0 22,-10 22,-22 V 219 l 16,6 c 3,1 8,2 11,2 15,0 28,-12 28,-28 v -50 c 0,-12 -7,-23 -18,-27 L 220,108 V -44 l 16,7 c 3,1 8,2 11,2 15,0 28,-13 28,-29 v -50 c 0,-12 -7,-22 -18,-26 l -37,-15 v -151 c 0,-12 -10,-22 -22,-22 -12,0 -22,10 -22,22 v 134 l -77,-29 v -152 c 0,-12 -10,-22 -22,-22 -12,0 -22,10 -22,22 v 134 l -16,-6 c -3,-1 -8,-2 -11,-2 -15,0 -28,12 -28,28 v 50 c 0,12 7,23 18,27 l 37,14 V 44 L 39,37 C 36,36 31,35 28,35 13,35 0,48 0,64 Z M 176,91 99,61 V -91 l 77,30 z"
       transform="scale(0.0029,-0.0029)" />
  </g>
  <g
     id="g370"
     transform="translate(127.3119,5.1578999)">
    <rect
       id="rect368"
       fill="currentColor"
       ry="0.042100001"
       height="2.2140999"
       width="0.1228"
       y="-2.7018001"
       x="-0.0614" />
  </g>
  <g
     id="g374"
     transform="translate(121.9217,5.1578999)">
    <rect
       id="rect372"
       fill="currentColor"
       ry="0.042100001"
       height="1.6677999"
       width="0.1228"
       y="3.1217"
       x="-0.0614" />
  </g>
  <g
     id="g378"
     transform="translate(123.3317,5.1578999)">
    <rect
       id="rect376"
       fill="currentColor"
       ry="0.042100001"
       height="2.4047"
       width="0.1228"
       y="-1.1052999"
       x="-0.0614" />
  </g>
  <g
     id="g382"
     transform="translate(122.7554,5.1578999)">
    <rect
       id="rect380"
       fill="currentColor"
       ry="0.042100001"
       height="2.0913"
       width="0.1228"
       y="-2.9474001"
       x="-0.0614" />
  </g>
  <g
     id="g386"
     transform="translate(106.1514,5.8947999)">
    <path
       id="path384"
       fill="currentColor"
       d="m 208,139 c 61,0 117,-33 117,-99 0,-71 -52,-119 -99,-147 -34,-20 -71,-32 -110,-32 -61,0 -116,33 -116,99 0,71 51,119 98,147 34,20 71,32 110,32 z"
       transform="scale(0.0029,-0.0029)" />
  </g>
  <g
     id="g390"
     transform="translate(105.6732,4.4210999)">
    <path
       id="path388"
       fill="currentColor"
       d="m 208,139 c 61,0 117,-33 117,-99 0,-71 -52,-119 -99,-147 -34,-20 -71,-32 -110,-32 -61,0 -116,33 -116,99 0,71 51,119 98,147 34,20 71,32 110,32 z"
       transform="scale(0.0029,-0.0029)" />
  </g>
  <g
     id="g394"
     transform="translate(101.0187,5.1578999)">
    <rect
       id="rect392"
       fill="currentColor"
       ry="0.042100001"
       height="1.7229"
       width="0.1228"
       y="2.6982"
       x="-0.0614" />
  </g>
  <g
     id="g398"
     transform="translate(105.6732,7.7368999)">
    <path
       id="path396"
       fill="currentColor"
       d="m 208,139 c 61,0 117,-33 117,-99 0,-71 -52,-119 -99,-147 -34,-20 -71,-32 -110,-32 -61,0 -116,33 -116,99 0,71 51,119 98,147 34,20 71,32 110,32 z"
       transform="scale(0.0029,-0.0029)" />
  </g>
  <g
     id="g402"
     transform="translate(102.3306,5.1578999)">
    <rect
       id="rect400"
       fill="currentColor"
       ry="0.042100001"
       height="2.4597001"
       width="0.1228"
       y="-1.4737"
       x="-0.0614" />
  </g>
  <g
     id="g406"
     transform="translate(101.8524,5.1578999)">
    <rect
       id="rect404"
       fill="currentColor"
       ry="0.042100001"
       height="2.0913"
       width="0.1228"
       y="-2.9474001"
       x="-0.0614" />
  </g>
  <g
     id="g410"
     transform="translate(100.9573,7.7368999)">
    <path
       id="path408"
       fill="currentColor"
       d="m 208,139 c 61,0 117,-33 117,-99 0,-71 -52,-119 -99,-147 -34,-20 -71,-32 -110,-32 -61,0 -116,33 -116,99 0,71 51,119 98,147 34,20 71,32 110,32 z"
       transform="scale(0.0029,-0.0029)" />
  </g>
  <g
     id="g414"
     transform="translate(101.4355,6.2631999)">
    <path
       id="path412"
       fill="currentColor"
       d="m 208,139 c 61,0 117,-33 117,-99 0,-71 -52,-119 -99,-147 -34,-20 -71,-32 -110,-32 -61,0 -116,33 -116,99 0,71 51,119 98,147 34,20 71,32 110,32 z"
       transform="scale(0.0029,-0.0029)" />
  </g>
  <g
     id="g418"
     transform="translate(100.9573,4.4210999)">
    <path
       id="path416"
       fill="currentColor"
       d="m 208,139 c 61,0 117,-33 117,-99 0,-71 -52,-119 -99,-147 -34,-20 -71,-32 -110,-32 -61,0 -116,33 -116,99 0,71 51,119 98,147 34,20 71,32 110,32 z"
       transform="scale(0.0029,-0.0029)" />
  </g>
  <g
     id="g422"
     transform="translate(110.3891,4.4210999)">
    <path
       id="path420"
       fill="currentColor"
       d="m 208,139 c 61,0 117,-33 117,-99 0,-71 -52,-119 -99,-147 -34,-20 -71,-32 -110,-32 -61,0 -116,33 -116,99 0,71 51,119 98,147 34,20 71,32 110,32 z"
       transform="scale(0.0029,-0.0029)" />
  </g>
  <g
     id="g426"
     transform="translate(110.4505,5.1578999)">
    <rect
       id="rect424"
       fill="currentColor"
       ry="0.042100001"
       height="1.7229"
       width="0.1228"
       y="3.0666001"
       x="-0.0614" />
  </g>
  <g
     id="g430"
     transform="translate(111.7624,5.1578999)">
    <rect
       id="rect428"
       fill="currentColor"
       ry="0.042100001"
       height="2.4597001"
       width="0.1228"
       y="-1.4737"
       x="-0.0614" />
  </g>
  <g
     id="g434"
     transform="translate(111.2842,5.1578999)">
    <rect
       id="rect432"
       fill="currentColor"
       ry="0.042100001"
       height="2.0913"
       width="0.1228"
       y="-2.9474001"
       x="-0.0614" />
  </g>
  <g
     id="g438"
     transform="translate(110.3891,8.1052999)">
    <path
       id="path436"
       fill="currentColor"
       d="m 208,139 c 61,0 117,-33 117,-99 0,-71 -52,-119 -99,-147 -34,-20 -71,-32 -110,-32 -61,0 -116,33 -116,99 0,71 51,119 98,147 34,20 71,32 110,32 z"
       transform="scale(0.0029,-0.0029)" />
  </g>
  <g
     id="g442"
     transform="translate(110.8673,6.2631999)">
    <path
       id="path440"
       fill="currentColor"
       d="m 208,139 c 61,0 117,-33 117,-99 0,-71 -52,-119 -99,-147 -34,-20 -71,-32 -110,-32 -61,0 -116,33 -116,99 0,71 51,119 98,147 34,20 71,32 110,32 z"
       transform="scale(0.0029,-0.0029)" />
  </g>
  <g
     id="g446"
     transform="translate(105.7346,5.1578999)">
    <rect
       id="rect444"
       fill="currentColor"
       ry="0.042100001"
       height="1.7229"
       width="0.1228"
       y="2.6982"
       x="-0.0614" />
  </g>
  <g
     id="g450"
     transform="translate(107.0465,5.1578999)">
    <rect
       id="rect448"
       fill="currentColor"
       ry="0.042100001"
       height="2.4597001"
       width="0.1228"
       y="-1.8421"
       x="-0.0614" />
  </g>
  <g
     id="g454"
     transform="translate(106.5683,5.1578999)">
    <rect
       id="rect452"
       fill="currentColor"
       ry="0.042100001"
       height="2.0913"
       width="0.1228"
       y="-2.9474001"
       x="-0.0614" />
  </g>
  <g
     id="g458"
     transform="translate(27.8223,2.2105999)">
    <path
       id="path456"
       fill="currentColor"
       d="m 308,62 c 0,23 -20,39 -40,39 -4,0 -7,0 -11,-1 C 228,92 183,62 148,39 113,16 69,-13 49,-36 43,-44 39,-52 39,-62 c 0,-23 20,-39 40,-39 4,0 7,0 11,1 29,8 74,38 109,61 35,23 79,52 99,75 6,8 10,16 10,26 z M 0,-59 c 0,142 114,198 251,198 53,0 96,-22 96,-80 0,-142 -115,-198 -252,-198 -53,0 -95,22 -95,80 z"
       transform="scale(0.0029,-0.0029)" />
  </g>
  <g
     id="g462"
     transform="translate(32.4401,5.1578999)">
    <rect
       id="rect460"
       fill="currentColor"
       ry="0.042100001"
       height="2.0913"
       width="0.1228"
       y="0.85610002"
       x="-0.0614" />
  </g>
  <g
     id="g466"
     transform="translate(32.3787,5.8947999)">
    <path
       id="path464"
       fill="currentColor"
       d="m 208,139 c 61,0 117,-33 117,-99 0,-71 -52,-119 -99,-147 -34,-20 -71,-32 -110,-32 -61,0 -116,33 -116,99 0,71 51,119 98,147 34,20 71,32 110,32 z"
       transform="scale(0.0029,-0.0029)" />
  </g>
  <g
     id="g470"
     transform="translate(26.6617,2.2105999)">
    <path
       id="path468"
       fill="currentColor"
       d="m 0,114 c 0,12 7,22 18,26 l 37,15 v 151 c 0,12 10,22 22,22 12,0 22,-10 22,-22 V 172 l 77,29 v 152 c 0,12 10,22 22,22 12,0 22,-10 22,-22 V 219 l 16,6 c 3,1 8,2 11,2 15,0 28,-12 28,-28 v -50 c 0,-12 -7,-23 -18,-27 L 220,108 V -44 l 16,7 c 3,1 8,2 11,2 15,0 28,-13 28,-29 v -50 c 0,-12 -7,-22 -18,-26 l -37,-15 v -151 c 0,-12 -10,-22 -22,-22 -12,0 -22,10 -22,22 v 134 l -77,-29 v -152 c 0,-12 -10,-22 -22,-22 -12,0 -22,10 -22,22 v 134 l -16,-6 c -3,-1 -8,-2 -11,-2 -15,0 -28,12 -28,28 v 50 c 0,12 7,23 18,27 l 37,14 V 44 L 39,37 C 36,36 31,35 28,35 13,35 0,48 0,64 Z M 176,91 99,61 V -91 l 77,30 z"
       transform="scale(0.0029,-0.0029)" />
  </g>
  <g
     id="g474"
     transform="translate(27.8836,5.1578999)">
    <rect
       id="rect472"
       fill="currentColor"
       ry="0.042100001"
       height="2.2140999"
       width="0.1228"
       y="0.4876"
       x="-0.0614" />
  </g>
  <g
     id="g478"
     transform="translate(28.7828,5.1578999)">
    <rect
       id="rect476"
       fill="currentColor"
       ry="0.042100001"
       height="1.6677999"
       width="0.1228"
       y="-4.7895002"
       x="-0.0614" />
  </g>
  <g
     id="g482"
     transform="translate(27.8223,5.5263999)">
    <path
       id="path480"
       fill="currentColor"
       d="m 208,139 c 61,0 117,-33 117,-99 0,-71 -52,-119 -99,-147 -34,-20 -71,-32 -110,-32 -61,0 -116,33 -116,99 0,71 51,119 98,147 34,20 71,32 110,32 z"
       transform="scale(0.0029,-0.0029)" />
  </g>
  <g
     id="g486"
     transform="translate(22.1052,5.8947999)">
    <path
       id="path484"
       fill="currentColor"
       d="m 0,114 c 0,12 7,22 18,26 l 37,15 v 151 c 0,12 10,22 22,22 12,0 22,-10 22,-22 V 172 l 77,29 v 152 c 0,12 10,22 22,22 12,0 22,-10 22,-22 V 219 l 16,6 c 3,1 8,2 11,2 15,0 28,-12 28,-28 v -50 c 0,-12 -7,-23 -18,-27 L 220,108 V -44 l 16,7 c 3,1 8,2 11,2 15,0 28,-13 28,-29 v -50 c 0,-12 -7,-22 -18,-26 l -37,-15 v -151 c 0,-12 -10,-22 -22,-22 -12,0 -22,10 -22,22 v 134 l -77,-29 v -152 c 0,-12 -10,-22 -22,-22 -12,0 -22,10 -22,22 v 134 l -16,-6 c -3,-1 -8,-2 -11,-2 -15,0 -28,12 -28,28 v 50 c 0,12 7,23 18,27 l 37,14 V 44 L 39,37 C 36,36 31,35 28,35 13,35 0,48 0,64 Z M 176,91 99,61 V -91 l 77,30 z"
       transform="scale(0.0029,-0.0029)" />
  </g>
  <g
     id="g490"
     transform="translate(40.637,4.0526999)">
    <path
       id="path488"
       fill="currentColor"
       d="M 0,0 C 0,30 25,55 55,55 85,55 109,30 109,0 109,-30 85,-55 55,-55 25,-55 0,-30 0,0 Z"
       transform="scale(0.0029,-0.0029)" />
  </g>
  <g
     id="g494"
     transform="translate(37.6548,6.2631999)">
    <path
       id="path492"
       fill="currentColor"
       d="m 0,114 c 0,12 7,22 18,26 l 37,15 v 151 c 0,12 10,22 22,22 12,0 22,-10 22,-22 V 172 l 77,29 v 152 c 0,12 10,22 22,22 12,0 22,-10 22,-22 V 219 l 16,6 c 3,1 8,2 11,2 15,0 28,-12 28,-28 v -50 c 0,-12 -7,-23 -18,-27 L 220,108 V -44 l 16,7 c 3,1 8,2 11,2 15,0 28,-13 28,-29 v -50 c 0,-12 -7,-22 -18,-26 l -37,-15 v -151 c 0,-12 -10,-22 -22,-22 -12,0 -22,10 -22,22 v 134 l -77,-29 v -152 c 0,-12 -10,-22 -22,-22 -12,0 -22,10 -22,22 v 134 l -16,-6 c -3,-1 -8,-2 -11,-2 -15,0 -28,12 -28,28 v 50 c 0,12 7,23 18,27 l 37,14 V 44 L 39,37 C 36,36 31,35 28,35 13,35 0,48 0,64 Z M 176,91 99,61 V -91 l 77,30 z"
       transform="scale(0.0029,-0.0029)" />
  </g>
  <g
     id="g498"
     transform="translate(38.8767,5.1578999)">
    <rect
       id="rect496"
       fill="currentColor"
       ry="0.042100001"
       height="1.9685"
       width="0.1228"
       y="1.2244999"
       x="-0.0614" />
  </g>
  <g
     id="g502"
     transform="translate(40.2541,5.1578999)">
    <rect
       id="rect500"
       fill="currentColor"
       ry="0.042100001"
       height="2.0362"
       width="0.1228"
       y="-2.9474001"
       x="-0.0614" />
  </g>
  <g
     id="g506"
     transform="translate(23.3272,5.1578999)">
    <rect
       id="rect504"
       fill="currentColor"
       ry="0.042100001"
       height="2.0913"
       width="0.1228"
       y="0.85610002"
       x="-0.0614" />
  </g>
  <g
     id="g510"
     transform="translate(39.7104,5.1578999)">
    <rect
       id="rect508"
       fill="currentColor"
       ry="0.042100001"
       height="1.7229"
       width="0.1228"
       y="-4.7895002"
       x="-0.0614" />
  </g>
  <g
     id="g514"
     transform="translate(38.8153,6.2631999)">
    <path
       id="path512"
       fill="currentColor"
       d="m 208,139 c 61,0 117,-33 117,-99 0,-71 -52,-119 -99,-147 -34,-20 -71,-32 -110,-32 -61,0 -116,33 -116,99 0,71 51,119 98,147 34,20 71,32 110,32 z"
       transform="scale(0.0029,-0.0029)" />
  </g>
  <g
     id="g518"
     transform="translate(39.2936,4.4210999)">
    <path
       id="path516"
       fill="currentColor"
       d="m 308,62 c 0,23 -20,39 -40,39 -4,0 -7,0 -11,-1 C 228,92 183,62 148,39 113,16 69,-13 49,-36 43,-44 39,-52 39,-62 c 0,-23 20,-39 40,-39 4,0 7,0 11,1 29,8 74,38 109,61 35,23 79,52 99,75 6,8 10,16 10,26 z M 0,-59 c 0,142 114,198 251,198 53,0 96,-22 96,-80 0,-142 -115,-198 -252,-198 -53,0 -95,22 -95,80 z"
       transform="scale(0.0029,-0.0029)" />
  </g>
  <g
     id="g522"
     transform="translate(38.8153,2.2105999)">
    <path
       id="path520"
       fill="currentColor"
       d="m 208,139 c 61,0 117,-33 117,-99 0,-71 -52,-119 -99,-147 -34,-20 -71,-32 -110,-32 -61,0 -116,33 -116,99 0,71 51,119 98,147 34,20 71,32 110,32 z"
       transform="scale(0.0029,-0.0029)" />
  </g>
  <g
     id="g526"
     transform="translate(31.513,5.8947999)">
    <path
       id="path524"
       fill="currentColor"
       d="m -8,375 c 8,5 18,7 27,7 9,0 20,-2 28,-7 l -3,-196 99,24 h 4 c 11,0 20,-8 20,-19 l 8,-559 c -8,-5 -19,-7 -28,-7 -9,0 -19,2 -27,7 l 3,196 -99,-24 h -5 c -11,0 -19,8 -19,19 z M 127,109 42,89 l -2,-198 84,20 z"
       transform="scale(0.0029,-0.0029)" />
  </g>
  <g
     id="g530"
     transform="translate(7.5633,5.1578999)">
    <rect
       id="rect528"
       fill="currentColor"
       ry="0.042100001"
       height="1.7229"
       width="0.1228"
       y="1.9613"
       x="-0.0614" />
  </g>
  <g
     id="g534"
     transform="translate(8.9407,5.1578999)">
    <rect
       id="rect532"
       fill="currentColor"
       ry="0.042100001"
       height="1.7905999"
       width="0.1228"
       y="-3.4386001"
       x="-0.0614" />
  </g>
  <g
     id="g538"
     transform="translate(9.3236,3.3157999)">
    <path
       id="path536"
       fill="currentColor"
       d="M 0,0 C 0,30 25,55 55,55 85,55 109,30 109,0 109,-30 85,-55 55,-55 25,-55 0,-30 0,0 Z"
       transform="scale(0.0029,-0.0029)" />
  </g>
  <g
     id="g542"
     transform="translate(8.4625,5.1578999)">
    <rect
       id="rect540"
       fill="currentColor"
       ry="0.042100001"
       height="1.6677999"
       width="0.1228"
       y="-5.1578999"
       x="-0.0614" />
  </g>
  <g
     id="g546"
     transform="translate(9.3236,1.8421999)">
    <path
       id="path544"
       fill="currentColor"
       d="M 0,0 C 0,30 25,55 55,55 85,55 109,30 109,0 109,-30 85,-55 55,-55 25,-55 0,-30 0,0 Z"
       transform="scale(0.0029,-0.0029)" />
  </g>
  <g
     id="g550"
     transform="translate(7.5019,7.0000999)">
    <path
       id="path548"
       fill="currentColor"
       d="m 208,139 c 61,0 117,-33 117,-99 0,-71 -52,-119 -99,-147 -34,-20 -71,-32 -110,-32 -61,0 -116,33 -116,99 0,71 51,119 98,147 34,20 71,32 110,32 z"
       transform="scale(0.0029,-0.0029)" />
  </g>
  <g
     id="g554"
     transform="translate(7.9802,3.6842999)">
    <path
       id="path552"
       fill="currentColor"
       d="m 308,62 c 0,23 -20,39 -40,39 -4,0 -7,0 -11,-1 C 228,92 183,62 148,39 113,16 69,-13 49,-36 43,-44 39,-52 39,-62 c 0,-23 20,-39 40,-39 4,0 7,0 11,1 29,8 74,38 109,61 35,23 79,52 99,75 6,8 10,16 10,26 z M 0,-59 c 0,142 114,198 251,198 53,0 96,-22 96,-80 0,-142 -115,-198 -252,-198 -53,0 -95,22 -95,80 z"
       transform="scale(0.0029,-0.0029)" />
  </g>
  <g
     id="g558"
     transform="translate(7.5019,1.8421999)">
    <path
       id="path556"
       fill="currentColor"
       d="m 308,62 c 0,23 -20,39 -40,39 -4,0 -7,0 -11,-1 C 228,92 183,62 148,39 113,16 69,-13 49,-36 43,-44 39,-52 39,-62 c 0,-23 20,-39 40,-39 4,0 7,0 11,1 29,8 74,38 109,61 35,23 79,52 99,75 6,8 10,16 10,26 z M 0,-59 c 0,142 114,198 251,198 53,0 96,-22 96,-80 0,-142 -115,-198 -252,-198 -53,0 -95,22 -95,80 z"
       transform="scale(0.0029,-0.0029)" />
  </g>
  <g
     id="g562"
     transform="translate(4.4125,5.1578999)">
    <path
       id="path560"
       fill="currentColor"
       d="m 33,35 -2,-60 v -11 c 0,-21 2,-43 5,-64 42,38 87,81 87,138 0,32 -13,63 -41,63 C 51,101 34,69 33,35 Z M 32,446 23,109 c 25,26 59,40 95,40 50,0 82,-51 82,-105 0,-77 -80,-117 -137,-169 -18,-17 -26,-48 -52,-48 -16,0 -28,15 -28,32 l -15,587 c 10,6 21,8 32,8 11,0 22,-2 32,-8 z"
       transform="scale(0.0029,-0.0029)" />
  </g>
  <g
     id="g566"
     transform="translate(0.8,5.8947999)">
    <path
       id="path564"
       fill="currentColor"
       d="m 381,266 h 9 c 157,0 258,-130 258,-264 0,-77 -33,-156 -108,-212 -22,-16 -46,-28 -71,-36 2,-32 3,-65 3,-97 0,-21 -1,-43 -2,-64 -7,-122 -91,-230 -211,-230 -108,0 -197,88 -197,197 0,58 54,104 113,104 54,0 95,-48 95,-104 0,-52 -43,-95 -95,-95 -8,0 -16,2 -24,4 25,-35 65,-59 111,-59 95,0 155,92 161,190 1,20 2,39 2,59 0,28 -1,55 -3,83 -29,-5 -57,-7 -87,-7 -189,0 -333,174 -333,377 0,176 128,307 242,443 -21,62 -41,124 -50,189 -7,52 -8,106 -8,159 0,113 54,219 146,286 8,6 21,7 29,0 72,-82 136,-244 136,-357 0,-141 -83,-253 -174,-362 22,-67 41,-135 58,-204 z m 83,-466 c 64,25 108,93 108,159 0,87 -62,173 -163,187 24,-113 43,-225 55,-346 z m -126,-18 c 27,0 54,2 80,6 C 405,-87 385,30 360,147 281,140 237,88 237,31 c 0,-43 24,-89 78,-120 5,-5 8,-11 8,-17 0,-13 -11,-24 -24,-24 -3,0 -7,0 -10,2 -81,44 -119,116 -119,187 0,90 60,178 164,201 -14,56 -30,112 -47,167 C 183,305 79,182 79,23 79,-109 206,-218 338,-218 Z M 239,782 c 0,-69 22,-127 41,-183 77,97 140,199 140,323 0,49 -3,69 -19,113 C 302,990 239,890 239,782 Z"
       transform="scale(0.0029,-0.0029)" />
  </g>
  <g
     id="g570"
     transform="translate(24.7045,5.1578999)">
    <rect
       id="rect568"
       fill="currentColor"
       ry="0.042100001"
       height="1.9134001"
       width="0.1228"
       y="-3.1930001"
       x="-0.0614" />
  </g>
  <g
     id="g574"
     transform="translate(25.0875,4.0526999)">
    <path
       id="path572"
       fill="currentColor"
       d="M 0,0 C 0,30 25,55 55,55 85,55 109,30 109,0 109,-30 85,-55 55,-55 25,-55 0,-30 0,0 Z"
       transform="scale(0.0029,-0.0029)" />
  </g>
  <g
     id="g578"
     transform="translate(24.1609,5.1578999)">
    <rect
       id="rect576"
       fill="currentColor"
       ry="0.042100001"
       height="1.7229"
       width="0.1228"
       y="-5.1578999"
       x="-0.0614" />
  </g>
  <g
     id="g582"
     transform="translate(23.2658,5.8947999)">
    <path
       id="path580"
       fill="currentColor"
       d="m 208,139 c 61,0 117,-33 117,-99 0,-71 -52,-119 -99,-147 -34,-20 -71,-32 -110,-32 -61,0 -116,33 -116,99 0,71 51,119 98,147 34,20 71,32 110,32 z"
       transform="scale(0.0029,-0.0029)" />
  </g>
  <g
     id="g586"
     transform="translate(23.744,4.0526999)">
    <path
       id="path584"
       fill="currentColor"
       d="m 308,62 c 0,23 -20,39 -40,39 -4,0 -7,0 -11,-1 C 228,92 183,62 148,39 113,16 69,-13 49,-36 43,-44 39,-52 39,-62 c 0,-23 20,-39 40,-39 4,0 7,0 11,1 29,8 74,38 109,61 35,23 79,52 99,75 6,8 10,16 10,26 z M 0,-59 c 0,142 114,198 251,198 53,0 96,-22 96,-80 0,-142 -115,-198 -252,-198 -53,0 -95,22 -95,80 z"
       transform="scale(0.0029,-0.0029)" />
  </g>
  <g
     id="g590"
     transform="translate(23.2658,1.8421999)">
    <path
       id="path588"
       fill="currentColor"
       d="m 208,139 c 61,0 117,-33 117,-99 0,-71 -52,-119 -99,-147 -34,-20 -71,-32 -110,-32 -61,0 -116,33 -116,99 0,71 51,119 98,147 34,20 71,32 110,32 z"
       transform="scale(0.0029,-0.0029)" />
  </g>
  <g
     id="g594"
     transform="translate(16.9263,5.1578999)">
    <rect
       id="rect592"
       fill="currentColor"
       ry="0.042100001"
       height="2.2140999"
       width="0.1228"
       y="0.4876"
       x="-0.0614" />
  </g>
  <g
     id="g598"
     transform="translate(16.8649,5.5263999)">
    <path
       id="path596"
       fill="currentColor"
       d="m 208,139 c 61,0 117,-33 117,-99 0,-71 -52,-119 -99,-147 -34,-20 -71,-32 -110,-32 -61,0 -116,33 -116,99 0,71 51,119 98,147 34,20 71,32 110,32 z"
       transform="scale(0.0029,-0.0029)" />
  </g>
  <g
     id="g602"
     transform="translate(12.3698,5.1578999)">
    <rect
       id="rect600"
       fill="currentColor"
       ry="0.042100001"
       height="2.3369"
       width="0.1228"
       y="0.1192"
       x="-0.0614" />
  </g>
  <g
     id="g606"
     transform="translate(12.3084,5.1578999)">
    <path
       id="path604"
       fill="currentColor"
       d="m 208,139 c 61,0 117,-33 117,-99 0,-71 -52,-119 -99,-147 -34,-20 -71,-32 -110,-32 -61,0 -116,33 -116,99 0,71 51,119 98,147 34,20 71,32 110,32 z"
       transform="scale(0.0029,-0.0029)" />
  </g>
  <g
     id="g610"
     transform="translate(59.9283,5.1578999)">
    <rect
       id="rect608"
       fill="currentColor"
       ry="0.042100001"
       height="2.0913"
       width="0.1228"
       y="-2.9474001"
       x="-0.0614" />
  </g>
  <g
     id="g614"
     transform="translate(64.1659,5.1578999)">
    <rect
       id="rect612"
       fill="currentColor"
       ry="0.042100001"
       height="1.7229"
       width="0.1228"
       y="-3.6842"
       x="-0.0614" />
  </g>
  <g
     id="g618"
     transform="translate(63.2708,6.6315999)">
    <path
       id="path616"
       fill="currentColor"
       d="m 208,139 c 61,0 117,-33 117,-99 0,-71 -52,-119 -99,-147 -34,-20 -71,-32 -110,-32 -61,0 -116,33 -116,99 0,71 51,119 98,147 34,20 71,32 110,32 z"
       transform="scale(0.0029,-0.0029)" />
  </g>
  <g
     id="g622"
     transform="translate(63.7491,4.7894999)">
    <path
       id="path620"
       fill="currentColor"
       d="m 208,139 c 61,0 117,-33 117,-99 0,-71 -52,-119 -99,-147 -34,-20 -71,-32 -110,-32 -61,0 -116,33 -116,99 0,71 51,119 98,147 34,20 71,32 110,32 z"
       transform="scale(0.0029,-0.0029)" />
  </g>
  <g
     id="g626"
     transform="translate(63.2708,3.3157999)">
    <path
       id="path624"
       fill="currentColor"
       d="m 208,139 c 61,0 117,-33 117,-99 0,-71 -52,-119 -99,-147 -34,-20 -71,-32 -110,-32 -61,0 -116,33 -116,99 0,71 51,119 98,147 34,20 71,32 110,32 z"
       transform="scale(0.0029,-0.0029)" />
  </g>
  <g
     id="g630"
     transform="translate(58.6163,5.1578999)">
    <rect
       id="rect628"
       fill="currentColor"
       ry="0.042100001"
       height="1.9685"
       width="0.1228"
       y="1.2244999"
       x="-0.0614" />
  </g>
  <g
     id="g634"
     transform="translate(59.45,5.1578999)">
    <rect
       id="rect632"
       fill="currentColor"
       ry="0.042100001"
       height="1.7229"
       width="0.1228"
       y="-4.0525999"
       x="-0.0614" />
  </g>
  <g
     id="g638"
     transform="translate(58.5549,6.2631999)">
    <path
       id="path636"
       fill="currentColor"
       d="m 208,139 c 61,0 117,-33 117,-99 0,-71 -52,-119 -99,-147 -34,-20 -71,-32 -110,-32 -61,0 -116,33 -116,99 0,71 51,119 98,147 34,20 71,32 110,32 z"
       transform="scale(0.0029,-0.0029)" />
  </g>
  <g
     id="g642"
     transform="translate(59.0332,4.4210999)">
    <path
       id="path640"
       fill="currentColor"
       d="m 208,139 c 61,0 117,-33 117,-99 0,-71 -52,-119 -99,-147 -34,-20 -71,-32 -110,-32 -61,0 -116,33 -116,99 0,71 51,119 98,147 34,20 71,32 110,32 z"
       transform="scale(0.0029,-0.0029)" />
  </g>
  <g
     id="g646"
     transform="translate(58.5549,2.9473999)">
    <path
       id="path644"
       fill="currentColor"
       d="m 208,139 c 61,0 117,-33 117,-99 0,-71 -52,-119 -99,-147 -34,-20 -71,-32 -110,-32 -61,0 -116,33 -116,99 0,71 51,119 98,147 34,20 71,32 110,32 z"
       transform="scale(0.0029,-0.0029)" />
  </g>
  <g
     id="g650"
     transform="translate(68.798,3.6842999)">
    <path
       id="path648"
       fill="currentColor"
       d="m 0,114 c 0,12 7,22 18,26 l 37,15 v 151 c 0,12 10,22 22,22 12,0 22,-10 22,-22 V 172 l 77,29 v 152 c 0,12 10,22 22,22 12,0 22,-10 22,-22 V 219 l 16,6 c 3,1 8,2 11,2 15,0 28,-12 28,-28 v -50 c 0,-12 -7,-23 -18,-27 L 220,108 V -44 l 16,7 c 3,1 8,2 11,2 15,0 28,-13 28,-29 v -50 c 0,-12 -7,-22 -18,-26 l -37,-15 v -151 c 0,-12 -10,-22 -22,-22 -12,0 -22,10 -22,22 v 134 l -77,-29 v -152 c 0,-12 -10,-22 -22,-22 -12,0 -22,10 -22,22 v 134 l -16,-6 c -3,-1 -8,-2 -11,-2 -15,0 -28,12 -28,28 v 50 c 0,12 7,23 18,27 l 37,14 V 44 L 39,37 C 36,36 31,35 28,35 13,35 0,48 0,64 Z M 176,91 99,61 V -91 l 77,30 z"
       transform="scale(0.0029,-0.0029)" />
  </g>
  <g
     id="g654"
     transform="translate(70.0199,5.1578999)">
    <rect
       id="rect652"
       fill="currentColor"
       ry="0.042100001"
       height="1.7229"
       width="0.1228"
       y="1.9613"
       x="-0.0614" />
  </g>
  <g
     id="g658"
     transform="translate(71.3319,5.1578999)">
    <rect
       id="rect656"
       fill="currentColor"
       ry="0.042100001"
       height="2.0913"
       width="0.1228"
       y="-2.9474001"
       x="-0.0614" />
  </g>
  <g
     id="g662"
     transform="translate(70.8536,5.1578999)">
    <rect
       id="rect660"
       fill="currentColor"
       ry="0.042100001"
       height="1.8457"
       width="0.1228"
       y="-3.4386001"
       x="-0.0614" />
  </g>
  <g
     id="g666"
     transform="translate(69.9585,7.0000999)">
    <path
       id="path664"
       fill="currentColor"
       d="m 208,139 c 61,0 117,-33 117,-99 0,-71 -52,-119 -99,-147 -34,-20 -71,-32 -110,-32 -61,0 -116,33 -116,99 0,71 51,119 98,147 34,20 71,32 110,32 z"
       transform="scale(0.0029,-0.0029)" />
  </g>
  <g
     id="g670"
     transform="translate(70.4368,4.4210999)">
    <path
       id="path668"
       fill="currentColor"
       d="m 208,139 c 61,0 117,-33 117,-99 0,-71 -52,-119 -99,-147 -34,-20 -71,-32 -110,-32 -61,0 -116,33 -116,99 0,71 51,119 98,147 34,20 71,32 110,32 z"
       transform="scale(0.0029,-0.0029)" />
  </g>
  <g
     id="g674"
     transform="translate(69.9585,3.6842999)">
    <path
       id="path672"
       fill="currentColor"
       d="m 208,139 c 61,0 117,-33 117,-99 0,-71 -52,-119 -99,-147 -34,-20 -71,-32 -110,-32 -61,0 -116,33 -116,99 0,71 51,119 98,147 34,20 71,32 110,32 z"
       transform="scale(0.0029,-0.0029)" />
  </g>
  <g
     id="g678"
     transform="translate(63.3322,5.1578999)">
    <rect
       id="rect676"
       fill="currentColor"
       ry="0.042100001"
       height="1.8457"
       width="0.1228"
       y="1.5929"
       x="-0.0614" />
  </g>
  <g
     id="g682"
     transform="translate(64.6442,5.1578999)">
    <rect
       id="rect680"
       fill="currentColor"
       ry="0.042100001"
       height="2.2140999"
       width="0.1228"
       y="-2.7018001"
       x="-0.0614" />
  </g>
  <g
     id="g686"
     transform="translate(54.4006,4.7894999)">
    <path
       id="path684"
       fill="currentColor"
       d="m 208,139 c 61,0 117,-33 117,-99 0,-71 -52,-119 -99,-147 -34,-20 -71,-32 -110,-32 -61,0 -116,33 -116,99 0,71 51,119 98,147 34,20 71,32 110,32 z"
       transform="scale(0.0029,-0.0029)" />
  </g>
  <g
     id="g690"
     transform="translate(53.9223,2.5789999)">
    <path
       id="path688"
       fill="currentColor"
       d="m 208,139 c 61,0 117,-33 117,-99 0,-71 -52,-119 -99,-147 -34,-20 -71,-32 -110,-32 -61,0 -116,33 -116,99 0,71 51,119 98,147 34,20 71,32 110,32 z"
       transform="scale(0.0029,-0.0029)" />
  </g>
  <g
     id="g694"
     transform="translate(47.0625,6.2631999)">
    <path
       id="path692"
       fill="currentColor"
       d="m -8,375 c 8,5 18,7 27,7 9,0 20,-2 28,-7 l -3,-196 99,24 h 4 c 11,0 20,-8 20,-19 l 8,-559 c -8,-5 -19,-7 -28,-7 -9,0 -19,2 -27,7 l 3,196 -99,-24 h -5 c -11,0 -19,8 -19,19 z M 127,109 42,89 l -2,-198 84,20 z"
       transform="scale(0.0029,-0.0029)" />
  </g>
  <g
     id="g698"
     transform="translate(47.9897,5.1578999)">
    <rect
       id="rect696"
       fill="currentColor"
       ry="0.042100001"
       height="1.9685"
       width="0.1228"
       y="1.2244999"
       x="-0.0614" />
  </g>
  <g
     id="g702"
     transform="translate(47.9283,6.2631999)">
    <path
       id="path700"
       fill="currentColor"
       d="m 208,139 c 61,0 117,-33 117,-99 0,-71 -52,-119 -99,-147 -34,-20 -71,-32 -110,-32 -61,0 -116,33 -116,99 0,71 51,119 98,147 34,20 71,32 110,32 z"
       transform="scale(0.0029,-0.0029)" />
  </g>
  <g
     id="g706"
     transform="translate(42.516,2.5789999)">
    <path
       id="path704"
       fill="currentColor"
       d="m -8,375 c 8,5 18,7 27,7 9,0 20,-2 28,-7 l -3,-196 99,24 h 4 c 11,0 20,-8 20,-19 l 8,-559 c -8,-5 -19,-7 -28,-7 -9,0 -19,2 -27,7 l 3,196 -99,-24 h -5 c -11,0 -19,8 -19,19 z M 127,109 42,89 l -2,-198 84,20 z"
       transform="scale(0.0029,-0.0029)" />
  </g>
  <g
     id="g710"
     transform="translate(43.4332,5.1578999)">
    <rect
       id="rect708"
       fill="currentColor"
       ry="0.042100001"
       height="2.0913"
       width="0.1228"
       y="0.85610002"
       x="-0.0614" />
  </g>
  <g
     id="g714"
     transform="translate(44.3323,5.1578999)">
    <rect
       id="rect712"
       fill="currentColor"
       ry="0.042100001"
       height="1.6677999"
       width="0.1228"
       y="-4.4211001"
       x="-0.0614" />
  </g>
  <g
     id="g718"
     transform="translate(43.3718,5.8947999)">
    <path
       id="path716"
       fill="currentColor"
       d="m 208,139 c 61,0 117,-33 117,-99 0,-71 -52,-119 -99,-147 -34,-20 -71,-32 -110,-32 -61,0 -116,33 -116,99 0,71 51,119 98,147 34,20 71,32 110,32 z"
       transform="scale(0.0029,-0.0029)" />
  </g>
  <g
     id="g722"
     transform="translate(43.3718,2.5789999)">
    <path
       id="path720"
       fill="currentColor"
       d="m 308,62 c 0,23 -20,39 -40,39 -4,0 -7,0 -11,-1 C 228,92 183,62 148,39 113,16 69,-13 49,-36 43,-44 39,-52 39,-62 c 0,-23 20,-39 40,-39 4,0 7,0 11,1 29,8 74,38 109,61 35,23 79,52 99,75 6,8 10,16 10,26 z M 0,-59 c 0,142 114,198 251,198 53,0 96,-22 96,-80 0,-142 -115,-198 -252,-198 -53,0 -95,22 -95,80 z"
       transform="scale(0.0029,-0.0029)" />
  </g>
  <g
     id="g726"
     transform="translate(55.2957,5.1578999)">
    <rect
       id="rect724"
       fill="currentColor"
       ry="0.042100001"
       height="2.2140999"
       width="0.1228"
       y="-2.7018001"
       x="-0.0614" />
  </g>
  <g
     id="g730"
     transform="translate(54.8174,5.1578999)">
    <rect
       id="rect728"
       fill="currentColor"
       ry="0.042100001"
       height="1.7229"
       width="0.1228"
       y="-4.4211001"
       x="-0.0614" />
  </g>
  <g
     id="g734"
     transform="translate(53.9223,6.6315999)">
    <path
       id="path732"
       fill="currentColor"
       d="m 208,139 c 61,0 117,-33 117,-99 0,-71 -52,-119 -99,-147 -34,-20 -71,-32 -110,-32 -61,0 -116,33 -116,99 0,71 51,119 98,147 34,20 71,32 110,32 z"
       transform="scale(0.0029,-0.0029)" />
  </g>
  <g
     id="g738"
     transform="translate(53.9837,5.1578999)">
    <rect
       id="rect736"
       fill="currentColor"
       ry="0.042100001"
       height="1.8457"
       width="0.1228"
       y="1.5929"
       x="-0.0614" />
  </g>
  <g
     id="g742"
     transform="translate(53.2401,4.7894999)">
    <path
       id="path740"
       fill="currentColor"
       d="m 0,114 c 0,12 7,22 18,26 l 37,15 v 151 c 0,12 10,22 22,22 12,0 22,-10 22,-22 V 172 l 77,29 v 152 c 0,12 10,22 22,22 12,0 22,-10 22,-22 V 219 l 16,6 c 3,1 8,2 11,2 15,0 28,-12 28,-28 v -50 c 0,-12 -7,-23 -18,-27 L 220,108 V -44 l 16,7 c 3,1 8,2 11,2 15,0 28,-13 28,-29 v -50 c 0,-12 -7,-22 -18,-26 l -37,-15 v -151 c 0,-12 -10,-22 -22,-22 -12,0 -22,10 -22,22 v 134 l -77,-29 v -152 c 0,-12 -10,-22 -22,-22 -12,0 -22,10 -22,22 v 134 l -16,-6 c -3,-1 -8,-2 -11,-2 -15,0 -28,12 -28,28 v 50 c 0,12 7,23 18,27 l 37,14 V 44 L 39,37 C 36,36 31,35 28,35 13,35 0,48 0,64 Z M 176,91 99,61 V -91 l 77,30 z"
       transform="scale(0.0029,-0.0029)" />
  </g>
</svg>
