<?xml version="1.0" encoding="UTF-8" standalone="no"?>
<svg
   xmlns:dc="http://purl.org/dc/elements/1.1/"
   xmlns:cc="http://creativecommons.org/ns#"
   xmlns:rdf="http://www.w3.org/1999/02/22-rdf-syntax-ns#"
   xmlns:svg="http://www.w3.org/2000/svg"
   xmlns="http://www.w3.org/2000/svg"
   xmlns:sodipodi="http://sodipodi.sourceforge.net/DTD/sodipodi-0.dtd"
   xmlns:inkscape="http://www.inkscape.org/namespaces/inkscape"
   sodipodi:docname="bwv-1004_5_for_PNGs-26.svg"
   id="svg1024"
   viewBox="0 0 139.7296 10.684201"
   height="17.836567mm"
   width="233.26935mm"
   version="1.2">
  <metadata
     id="metadata1030">
    <rdf:RDF>
      <cc:Work
         rdf:about="">
        <dc:format>image/svg+xml</dc:format>
        <dc:type
           rdf:resource="http://purl.org/dc/dcmitype/StillImage" />
      </cc:Work>
    </rdf:RDF>
  </metadata>
  <defs
     id="defs1028" />
  <sodipodi:namedview
     id="namedview1026"
     inkscape:window-height="480"
     inkscape:window-width="640"
     inkscape:pageshadow="2"
     inkscape:pageopacity="0"
     guidetolerance="10"
     gridtolerance="10"
     objecttolerance="10"
     borderopacity="1"
     bordercolor="#666666"
     pagecolor="#ffffff" />
  <style
     id="style2"
     type="text/css"><![CDATA[
tspan { white-space: pre; }
]]></style>
  <g
     id="g6"
     transform="translate(0,7)">
    <line
       id="line4"
       y2="0"
       x2="139.6824"
       y1="0"
       x1="0.047200002"
       stroke="currentColor"
       stroke-width="0.0944"
       stroke-linecap="round"
       stroke-linejoin="round" />
  </g>
  <g
     id="g10"
     transform="translate(0,6.2632)">
    <line
       id="line8"
       y2="0"
       x2="139.6824"
       y1="0"
       x1="0.047200002"
       stroke="currentColor"
       stroke-width="0.0944"
       stroke-linecap="round"
       stroke-linejoin="round" />
  </g>
  <g
     id="g14"
     transform="translate(0,5.5263)">
    <line
       id="line12"
       y2="0"
       x2="139.6824"
       y1="0"
       x1="0.047200002"
       stroke="currentColor"
       stroke-width="0.0944"
       stroke-linecap="round"
       stroke-linejoin="round" />
  </g>
  <g
     id="g18"
     transform="translate(0,4.7895)">
    <line
       id="line16"
       y2="0"
       x2="139.6824"
       y1="0"
       x1="0.047200002"
       stroke="currentColor"
       stroke-width="0.0944"
       stroke-linecap="round"
       stroke-linejoin="round" />
  </g>
  <g
     id="g22"
     transform="translate(0,4.0527)">
    <line
       id="line20"
       y2="0"
       x2="139.6824"
       y1="0"
       x1="0.047200002"
       stroke="currentColor"
       stroke-width="0.0944"
       stroke-linecap="round"
       stroke-linejoin="round" />
  </g>
  <g
     id="g26"
     transform="translate(71.0846,5.5263)">
    <rect
       id="rect24"
       fill="currentColor"
       ry="0.0000"
       height="2.9474001"
       width="0.1794"
       y="-1.4737"
       x="0" />
  </g>
  <g
     id="g30"
     transform="translate(85.8159,5.5263)">
    <rect
       id="rect28"
       fill="currentColor"
       ry="0.0000"
       height="2.9474001"
       width="0.1794"
       y="-1.4737"
       x="0" />
  </g>
  <g
     id="g34"
     transform="translate(53.6146,5.5263)">
    <rect
       id="rect32"
       fill="currentColor"
       ry="0.0000"
       height="2.9474001"
       width="0.1794"
       y="-1.4737"
       x="0" />
  </g>
  <g
     id="g38"
     transform="translate(100.5481,5.5263)">
    <rect
       id="rect36"
       fill="currentColor"
       ry="0.0000"
       height="2.9474001"
       width="0.1794"
       y="-1.4737"
       x="0" />
  </g>
  <g
     id="g42"
     transform="translate(38.8201,5.5263)">
    <rect
       id="rect40"
       fill="currentColor"
       ry="0.0000"
       height="2.9474001"
       width="0.1794"
       y="-1.4737"
       x="0" />
  </g>
  <g
     id="g46"
     transform="translate(117.8867,5.5263)">
    <rect
       id="rect44"
       fill="currentColor"
       ry="0.0000"
       height="2.9474001"
       width="0.1794"
       y="-1.4737"
       x="0" />
  </g>
  <g
     id="g50"
     transform="translate(24.0678,5.5263)">
    <rect
       id="rect48"
       fill="currentColor"
       ry="0.0000"
       height="2.9474001"
       width="0.1794"
       y="-1.4737"
       x="0" />
  </g>
  <g
     id="g54"
     transform="translate(139.5502,5.5263)">
    <rect
       id="rect52"
       fill="currentColor"
       ry="0.0000"
       height="2.9474001"
       width="0.1794"
       y="-1.4737"
       x="0" />
  </g>
  <g
     id="g58"
     transform="translate(0,7.7369)">
    <rect
       id="rect56"
       fill="currentColor"
       ry="0.084100001"
       height="0.1681"
       width="1.4347"
       y="-0.084100001"
       x="135.5959" />
  </g>
  <g
     id="g62"
     transform="translate(0,8.4737)">
    <rect
       id="rect60"
       fill="currentColor"
       ry="0.084100001"
       height="0.1681"
       width="1.4347"
       y="-0.084100001"
       x="135.5959" />
  </g>
  <g
     id="g66"
     transform="translate(0,3.3158)">
    <rect
       id="rect64"
       fill="currentColor"
       ry="0.084100001"
       height="0.1681"
       width="1.4347"
       y="-0.084100001"
       x="132.2394" />
  </g>
  <g
     id="g70"
     transform="translate(0,3.3158)">
    <rect
       id="rect68"
       fill="currentColor"
       ry="0.084100001"
       height="0.1681"
       width="1.4347"
       y="-0.084100001"
       x="129.1329" />
  </g>
  <g
     id="g74"
     transform="translate(0,7.7369)">
    <rect
       id="rect72"
       fill="currentColor"
       ry="0.084100001"
       height="0.1681"
       width="1.4347"
       y="-0.084100001"
       x="125.5264" />
  </g>
  <g
     id="g78"
     transform="translate(0,8.4737)">
    <rect
       id="rect76"
       fill="currentColor"
       ry="0.084100001"
       height="0.1681"
       width="1.4347"
       y="-0.084100001"
       x="125.5264" />
  </g>
  <g
     id="g82"
     transform="translate(0,3.3158)">
    <rect
       id="rect80"
       fill="currentColor"
       ry="0.084100001"
       height="0.1681"
       width="1.4347"
       y="-0.084100001"
       x="101.4538" />
  </g>
  <g
     id="g86"
     transform="translate(0,2.579)">
    <rect
       id="rect84"
       fill="currentColor"
       ry="0.084100001"
       height="0.1681"
       width="1.4347"
       y="-0.084100001"
       x="96.793098" />
  </g>
  <g
     id="g90"
     transform="translate(0,3.3158)">
    <rect
       id="rect88"
       fill="currentColor"
       ry="0.084100001"
       height="0.1681"
       width="1.4347"
       y="-0.084100001"
       x="96.793098" />
  </g>
  <g
     id="g94"
     transform="translate(0,2.579)">
    <rect
       id="rect92"
       fill="currentColor"
       ry="0.084100001"
       height="0.1681"
       width="1.3779"
       y="-0.084100001"
       x="91.432098" />
  </g>
  <g
     id="g98"
     transform="translate(0,3.3158)">
    <rect
       id="rect96"
       fill="currentColor"
       ry="0.084100001"
       height="0.1681"
       width="1.4347"
       y="-0.084100001"
       x="91.375198" />
  </g>
  <g
     id="g102"
     transform="translate(0,2.579)">
    <rect
       id="rect100"
       fill="currentColor"
       ry="0.084100001"
       height="0.1681"
       width="1.4347"
       y="-0.084100001"
       x="86.742699" />
  </g>
  <g
     id="g106"
     transform="translate(0,3.3158)">
    <rect
       id="rect104"
       fill="currentColor"
       ry="0.084100001"
       height="0.1681"
       width="1.4347"
       y="-0.084100001"
       x="86.742699" />
  </g>
  <g
     id="g110"
     transform="translate(0,2.579)">
    <rect
       id="rect108"
       fill="currentColor"
       ry="0.084100001"
       height="0.1681"
       width="1.4347"
       y="-0.084100001"
       x="82.060898" />
  </g>
  <g
     id="g114"
     transform="translate(0,3.3158)">
    <rect
       id="rect112"
       fill="currentColor"
       ry="0.084100001"
       height="0.1681"
       width="1.4347"
       y="-0.084100001"
       x="82.060898" />
  </g>
  <g
     id="g118"
     transform="translate(0,2.579)">
    <rect
       id="rect116"
       fill="currentColor"
       ry="0.084100001"
       height="0.1681"
       width="1.4347"
       y="-0.084100001"
       x="76.643097" />
  </g>
  <g
     id="g122"
     transform="translate(0,3.3158)">
    <rect
       id="rect120"
       fill="currentColor"
       ry="0.084100001"
       height="0.1681"
       width="1.4347"
       y="-0.084100001"
       x="76.643097" />
  </g>
  <g
     id="g126"
     transform="translate(0,2.579)">
    <rect
       id="rect124"
       fill="currentColor"
       ry="0.084100001"
       height="0.1681"
       width="1.4347"
       y="-0.084100001"
       x="71.9272" />
  </g>
  <g
     id="g130"
     transform="translate(0,3.3158)">
    <rect
       id="rect128"
       fill="currentColor"
       ry="0.084100001"
       height="0.1681"
       width="1.4347"
       y="-0.084100001"
       x="71.9272" />
  </g>
  <g
     id="g134"
     transform="translate(0,2.579)">
    <rect
       id="rect132"
       fill="currentColor"
       ry="0.084100001"
       height="0.1681"
       width="1.4347"
       y="-0.084100001"
       x="66.289001" />
  </g>
  <g
     id="g138"
     transform="translate(0,3.3158)">
    <rect
       id="rect136"
       fill="currentColor"
       ry="0.084100001"
       height="0.1681"
       width="1.4347"
       y="-0.084100001"
       x="66.289001" />
  </g>
  <g
     id="g142"
     transform="translate(0,2.579)">
    <rect
       id="rect140"
       fill="currentColor"
       ry="0.084100001"
       height="0.1681"
       width="1.4347"
       y="-0.084100001"
       x="61.732601" />
  </g>
  <g
     id="g146"
     transform="translate(0,3.3158)">
    <rect
       id="rect144"
       fill="currentColor"
       ry="0.084100001"
       height="0.1681"
       width="1.4347"
       y="-0.084100001"
       x="61.732601" />
  </g>
  <g
     id="g150"
     transform="translate(0,2.579)">
    <rect
       id="rect148"
       fill="currentColor"
       ry="0.084100001"
       height="0.1681"
       width="1.4347"
       y="-0.084100001"
       x="58.136902" />
  </g>
  <g
     id="g154"
     transform="translate(0,3.3158)">
    <rect
       id="rect152"
       fill="currentColor"
       ry="0.084100001"
       height="0.1681"
       width="1.4347"
       y="-0.084100001"
       x="58.136902" />
  </g>
  <g
     id="g158"
     transform="translate(0,2.579)">
    <rect
       id="rect156"
       fill="currentColor"
       ry="0.084100001"
       height="0.1681"
       width="1.4347"
       y="-0.084100001"
       x="54.541302" />
  </g>
  <g
     id="g162"
     transform="translate(0,3.3158)">
    <rect
       id="rect160"
       fill="currentColor"
       ry="0.084100001"
       height="0.1681"
       width="1.4347"
       y="-0.084100001"
       x="54.541302" />
  </g>
  <g
     id="g166"
     transform="translate(0,3.3158)">
    <rect
       id="rect164"
       fill="currentColor"
       ry="0.084100001"
       height="0.1681"
       width="1.4347"
       y="-0.084100001"
       x="49.8596" />
  </g>
  <g
     id="g170"
     transform="translate(0,3.3158)">
    <rect
       id="rect168"
       fill="currentColor"
       ry="0.084100001"
       height="0.1681"
       width="1.4347"
       y="-0.084100001"
       x="44.4417" />
  </g>
  <g
     id="g174"
     transform="translate(0,3.3158)">
    <rect
       id="rect172"
       fill="currentColor"
       ry="0.084100001"
       height="0.1681"
       width="1.4347"
       y="-0.084100001"
       x="39.7258" />
  </g>
  <g
     id="g178"
     transform="translate(0,3.3158)">
    <rect
       id="rect176"
       fill="currentColor"
       ry="0.084100001"
       height="0.1681"
       width="1.4347"
       y="-0.084100001"
       x="35.065102" />
  </g>
  <g
     id="g182"
     transform="translate(0,3.3158)">
    <rect
       id="rect180"
       fill="currentColor"
       ry="0.084100001"
       height="0.1681"
       width="1.4347"
       y="-0.084100001"
       x="29.647301" />
  </g>
  <g
     id="g186"
     transform="translate(97.9887,0.41059995)">
    <path
       id="path184"
       fill="currentColor"
       d="m 0,0 c 0,-196 207,-334 207,-530 0,-71 -15,-140 -41,-206 -5,-10 -14,-13 -23,-13 -14,0 -28,10 -28,26 0,2 1,3 1,5 26,59 42,123 42,188 0,101 -90,205 -158,280 H -21 V 0 Z"
       transform="scale(0.0029,-0.0029)" />
  </g>
  <g
     id="g190"
     transform="translate(90.7585,2.579)">
    <path
       id="path188"
       fill="currentColor"
       d="m -8,375 c 8,5 18,7 27,7 9,0 20,-2 28,-7 l -3,-196 99,24 h 4 c 11,0 20,-8 20,-19 l 8,-559 c -8,-5 -19,-7 -28,-7 -9,0 -19,2 -27,7 l 3,196 -99,-24 h -5 c -11,0 -19,8 -19,19 z M 127,109 42,89 l -2,-198 84,20 z"
       transform="scale(0.0029,-0.0029)" />
  </g>
  <g
     id="g194"
     transform="translate(97.0322,2.579)">
    <path
       id="path192"
       fill="currentColor"
       d="m 208,139 c 61,0 117,-33 117,-99 0,-71 -52,-119 -99,-147 -34,-20 -71,-32 -110,-32 -61,0 -116,33 -116,99 0,71 51,119 98,147 34,20 71,32 110,32 z"
       transform="scale(0.0029,-0.0029)" />
  </g>
  <g
     id="g198"
     transform="translate(97.5104,4.0527)">
    <path
       id="path196"
       fill="currentColor"
       d="m 208,139 c 61,0 117,-33 117,-99 0,-71 -52,-119 -99,-147 -34,-20 -71,-32 -110,-32 -61,0 -116,33 -116,99 0,71 51,119 98,147 34,20 71,32 110,32 z"
       transform="scale(0.0029,-0.0029)" />
  </g>
  <g
     id="g202"
     transform="translate(97.0322,7.3685)">
    <path
       id="path200"
       fill="currentColor"
       d="m 208,139 c 61,0 117,-33 117,-99 0,-71 -52,-119 -99,-147 -34,-20 -71,-32 -110,-32 -61,0 -116,33 -116,99 0,71 51,119 98,147 34,20 71,32 110,32 z"
       transform="scale(0.0029,-0.0029)" />
  </g>
  <g
     id="g206"
     transform="translate(97.9273,5.5263)">
    <rect
       id="rect204"
       fill="currentColor"
       ry="0.042100001"
       height="2.0913"
       width="0.1228"
       y="-5.1578999"
       x="-0.0614" />
  </g>
  <g
     id="g210"
     transform="translate(98.4055,5.5263)">
    <rect
       id="rect208"
       fill="currentColor"
       ry="0.042100001"
       height="2.0913"
       width="0.1228"
       y="-3.6842"
       x="-0.0614" />
  </g>
  <g
     id="g214"
     transform="translate(98.4669,1.8842)">
    <path
       id="path212"
       fill="currentColor"
       d="m 0,0 c 0,-196 207,-334 207,-530 0,-71 -15,-140 -41,-206 -5,-10 -14,-13 -23,-13 -14,0 -28,10 -28,26 0,2 1,3 1,5 26,59 42,123 42,188 0,101 -90,205 -158,280 H -21 V 0 Z"
       transform="scale(0.0029,-0.0029)" />
  </g>
  <g
     id="g218"
     transform="translate(97.0936,5.5263)">
    <rect
       id="rect216"
       fill="currentColor"
       ry="0.042100001"
       height="2.0913"
       width="0.1228"
       y="1.9613"
       x="-0.0614" />
  </g>
  <g
     id="g222"
     transform="translate(92.9877,5.5263)">
    <rect
       id="rect220"
       fill="currentColor"
       ry="0.042100001"
       height="1.8457"
       width="0.1228"
       y="-3.4386001"
       x="-0.0614" />
  </g>
  <g
     id="g226"
     transform="translate(92.0926,4.0527)">
    <path
       id="path224"
       fill="currentColor"
       d="m 208,139 c 61,0 117,-33 117,-99 0,-71 -52,-119 -99,-147 -34,-20 -71,-32 -110,-32 -61,0 -116,33 -116,99 0,71 51,119 98,147 34,20 71,32 110,32 z"
       transform="scale(0.0029,-0.0029)" />
  </g>
  <g
     id="g230"
     transform="translate(91.6143,7.3685)">
    <path
       id="path228"
       fill="currentColor"
       d="m 208,139 c 61,0 117,-33 117,-99 0,-71 -52,-119 -99,-147 -34,-20 -71,-32 -110,-32 -61,0 -116,33 -116,99 0,71 51,119 98,147 34,20 71,32 110,32 z"
       transform="scale(0.0029,-0.0029)" />
  </g>
  <g
     id="g234"
     transform="translate(93.3706,2.2106)">
    <path
       id="path232"
       fill="currentColor"
       d="M 0,0 C 0,30 25,55 55,55 85,55 109,30 109,0 109,-30 85,-55 55,-55 25,-55 0,-30 0,0 Z"
       transform="scale(0.0029,-0.0029)" />
  </g>
  <g
     id="g238"
     transform="translate(92.5094,5.5263)">
    <rect
       id="rect236"
       fill="currentColor"
       ry="0.042100001"
       height="1.7229"
       width="0.1228"
       y="-4.7895002"
       x="-0.0614" />
  </g>
  <g
     id="g242"
     transform="translate(119.8863,2.2106)">
    <polygon
       id="polygon240"
       points="0.0421,0.1347 0.0421,-0.1347 3.4371,-0.3735 3.4371,-0.1041 "
       stroke="currentColor"
       fill="currentColor"
       stroke-width="0.0842"
       stroke-linecap="round"
       stroke-linejoin="round" />
  </g>
  <g
     id="g246"
     transform="translate(93.3706,3.6842)">
    <path
       id="path244"
       fill="currentColor"
       d="M 0,0 C 0,30 25,55 55,55 85,55 109,30 109,0 109,-30 85,-55 55,-55 25,-55 0,-30 0,0 Z"
       transform="scale(0.0029,-0.0029)" />
  </g>
  <g
     id="g250"
     transform="translate(93.3706,7.3685)">
    <path
       id="path248"
       fill="currentColor"
       d="M 0,0 C 0,30 25,55 55,55 85,55 109,30 109,0 109,-30 85,-55 55,-55 25,-55 0,-30 0,0 Z"
       transform="scale(0.0029,-0.0029)" />
  </g>
  <g
     id="g254"
     transform="translate(91.6757,5.5263)">
    <rect
       id="rect252"
       fill="currentColor"
       ry="0.042100001"
       height="1.7229"
       width="0.1228"
       y="1.9613"
       x="-0.0614" />
  </g>
  <g
     id="g258"
     transform="translate(101.7543,5.5263)">
    <rect
       id="rect256"
       fill="currentColor"
       ry="0.042100001"
       height="2.0913"
       width="0.1228"
       y="0.85610002"
       x="-0.0614" />
  </g>
  <g
     id="g262"
     transform="translate(105.2776,4.7895)">
    <path
       id="path260"
       fill="currentColor"
       d="m 208,139 c 61,0 117,-33 117,-99 0,-71 -52,-119 -99,-147 -34,-20 -71,-32 -110,-32 -61,0 -116,33 -116,99 0,71 51,119 98,147 34,20 71,32 110,32 z"
       transform="scale(0.0029,-0.0029)" />
  </g>
  <g
     id="g266"
     transform="translate(106.1727,5.5263)">
    <rect
       id="rect264"
       fill="currentColor"
       ry="0.042100001"
       height="2.1027999"
       width="0.1228"
       y="-2.9589"
       x="-0.0614" />
  </g>
  <g
     id="g270"
     transform="translate(97.155,9.5369)">
    <path
       id="path268"
       fill="currentColor"
       d="m 0,250 c 94,60 217,150 217,259 0,56 -15,110 -41,160 v 6 c 0,16 14,26 28,26 9,0 17,-4 22,-14 25,-56 40,-116 40,-178 C 266,306 0,203 0,0 h -21 v 250 z"
       transform="scale(0.0029,-0.0029)" />
  </g>
  <g
     id="g274"
     transform="translate(101.6929,2.9474)">
    <path
       id="path272"
       fill="currentColor"
       d="m 208,139 c 61,0 117,-33 117,-99 0,-71 -52,-119 -99,-147 -34,-20 -71,-32 -110,-32 -61,0 -116,33 -116,99 0,71 51,119 98,147 34,20 71,32 110,32 z"
       transform="scale(0.0029,-0.0029)" />
  </g>
  <g
     id="g278"
     transform="translate(102.1711,3.6842)">
    <path
       id="path276"
       fill="currentColor"
       d="m 208,139 c 61,0 117,-33 117,-99 0,-71 -52,-119 -99,-147 -34,-20 -71,-32 -110,-32 -61,0 -116,33 -116,99 0,71 51,119 98,147 34,20 71,32 110,32 z"
       transform="scale(0.0029,-0.0029)" />
  </g>
  <g
     id="g282"
     transform="translate(101.6929,6.2632)">
    <path
       id="path280"
       fill="currentColor"
       d="m 208,139 c 61,0 117,-33 117,-99 0,-71 -52,-119 -99,-147 -34,-20 -71,-32 -110,-32 -61,0 -116,33 -116,99 0,71 51,119 98,147 34,20 71,32 110,32 z"
       transform="scale(0.0029,-0.0029)" />
  </g>
  <g
     id="g286"
     transform="translate(103.0049,1.9718)">
    <polygon
       id="polygon284"
       points="0.0421,0.1347 0.0421,-0.1347 3.1871,0.4725 3.1871,0.742 "
       stroke="currentColor"
       fill="currentColor"
       stroke-width="0.0842"
       stroke-linecap="round"
       stroke-linejoin="round" />
  </g>
  <g
     id="g290"
     transform="translate(91.6143,2.579)">
    <path
       id="path288"
       fill="currentColor"
       d="m 208,139 c 61,0 117,-33 117,-99 0,-71 -52,-119 -99,-147 -34,-20 -71,-32 -110,-32 -61,0 -116,33 -116,99 0,71 51,119 98,147 34,20 71,32 110,32 z"
       transform="scale(0.0029,-0.0029)" />
  </g>
  <g
     id="g294"
     transform="translate(102.588,5.5263)">
    <rect
       id="rect292"
       fill="currentColor"
       ry="0.042100001"
       height="1.7229"
       width="0.1228"
       y="-4.4211001"
       x="-0.0614" />
  </g>
  <g
     id="g298"
     transform="translate(103.0662,5.5263)">
    <rect
       id="rect296"
       fill="currentColor"
       ry="0.042100001"
       height="1.5817"
       width="0.1228"
       y="-3.543"
       x="-0.0614" />
  </g>
  <g
     id="g302"
     transform="translate(78.6384,7.3685)">
    <path
       id="path300"
       fill="currentColor"
       d="M 0,0 C 0,30 25,55 55,55 85,55 109,30 109,0 109,-30 85,-55 55,-55 25,-55 0,-30 0,0 Z"
       transform="scale(0.0029,-0.0029)" />
  </g>
  <g
     id="g306"
     transform="translate(76.9435,5.5263)">
    <rect
       id="rect304"
       fill="currentColor"
       ry="0.042100001"
       height="1.7229"
       width="0.1228"
       y="1.9613"
       x="-0.0614" />
  </g>
  <g
     id="g310"
     transform="translate(78.2555,5.5263)">
    <rect
       id="rect308"
       fill="currentColor"
       ry="0.042100001"
       height="1.8457"
       width="0.1228"
       y="-3.4386001"
       x="-0.0614" />
  </g>
  <g
     id="g314"
     transform="translate(82.3,2.2106)">
    <path
       id="path312"
       fill="currentColor"
       d="m 208,139 c 61,0 117,-33 117,-99 0,-71 -52,-119 -99,-147 -34,-20 -71,-32 -110,-32 -61,0 -116,33 -116,99 0,71 51,119 98,147 34,20 71,32 110,32 z"
       transform="scale(0.0029,-0.0029)" />
  </g>
  <g
     id="g318"
     transform="translate(82.7783,4.0527)">
    <path
       id="path316"
       fill="currentColor"
       d="m 208,139 c 61,0 117,-33 117,-99 0,-71 -52,-119 -99,-147 -34,-20 -71,-32 -110,-32 -61,0 -116,33 -116,99 0,71 51,119 98,147 34,20 71,32 110,32 z"
       transform="scale(0.0029,-0.0029)" />
  </g>
  <g
     id="g322"
     transform="translate(82.3,7.3685)">
    <path
       id="path320"
       fill="currentColor"
       d="m 208,139 c 61,0 117,-33 117,-99 0,-71 -52,-119 -99,-147 -34,-20 -71,-32 -110,-32 -61,0 -116,33 -116,99 0,71 51,119 98,147 34,20 71,32 110,32 z"
       transform="scale(0.0029,-0.0029)" />
  </g>
  <g
     id="g326"
     transform="translate(83.1951,5.5263)">
    <rect
       id="rect324"
       fill="currentColor"
       ry="0.042100001"
       height="2.0913"
       width="0.1228"
       y="-5.5263"
       x="-0.0614" />
  </g>
  <g
     id="g330"
     transform="translate(83.2565,0.04209995)">
    <path
       id="path328"
       fill="currentColor"
       d="m 0,0 c 0,-196 207,-334 207,-530 0,-71 -15,-140 -41,-206 -5,-10 -14,-13 -23,-13 -14,0 -28,10 -28,26 0,2 1,3 1,5 26,59 42,123 42,188 0,101 -90,205 -158,280 H -21 V 0 Z"
       transform="scale(0.0029,-0.0029)" />
  </g>
  <g
     id="g334"
     transform="translate(77.3604,4.0527)">
    <path
       id="path332"
       fill="currentColor"
       d="m 208,139 c 61,0 117,-33 117,-99 0,-71 -52,-119 -99,-147 -34,-20 -71,-32 -110,-32 -61,0 -116,33 -116,99 0,71 51,119 98,147 34,20 71,32 110,32 z"
       transform="scale(0.0029,-0.0029)" />
  </g>
  <g
     id="g338"
     transform="translate(76.8822,2.2106)">
    <path
       id="path336"
       fill="currentColor"
       d="m 208,139 c 61,0 117,-33 117,-99 0,-71 -52,-119 -99,-147 -34,-20 -71,-32 -110,-32 -61,0 -116,33 -116,99 0,71 51,119 98,147 34,20 71,32 110,32 z"
       transform="scale(0.0029,-0.0029)" />
  </g>
  <g
     id="g342"
     transform="translate(83.6734,5.5263)">
    <rect
       id="rect340"
       fill="currentColor"
       ry="0.042100001"
       height="2.0913"
       width="0.1228"
       y="-3.6842"
       x="-0.0614" />
  </g>
  <g
     id="g346"
     transform="translate(76.8822,7.3685)">
    <path
       id="path344"
       fill="currentColor"
       d="m 208,139 c 61,0 117,-33 117,-99 0,-71 -52,-119 -99,-147 -34,-20 -71,-32 -110,-32 -61,0 -116,33 -116,99 0,71 51,119 98,147 34,20 71,32 110,32 z"
       transform="scale(0.0029,-0.0029)" />
  </g>
  <g
     id="g350"
     transform="translate(78.6384,2.2106)">
    <path
       id="path348"
       fill="currentColor"
       d="M 0,0 C 0,30 25,55 55,55 85,55 109,30 109,0 109,-30 85,-55 55,-55 25,-55 0,-30 0,0 Z"
       transform="scale(0.0029,-0.0029)" />
  </g>
  <g
     id="g354"
     transform="translate(77.7773,5.5263)">
    <rect
       id="rect352"
       fill="currentColor"
       ry="0.042100001"
       height="1.7229"
       width="0.1228"
       y="-5.1578999"
       x="-0.0614" />
  </g>
  <g
     id="g358"
     transform="translate(126.5992,1.2349)">
    <polygon
       id="polygon356"
       points="0.0421,0.1347 0.0421,-0.1347 10.1501,-0.1347 10.1501,0.1347 "
       stroke="currentColor"
       fill="currentColor"
       stroke-width="0.0842"
       stroke-linecap="round"
       stroke-linejoin="round" />
  </g>
  <g
     id="g362"
     transform="translate(78.6384,3.6842)">
    <path
       id="path360"
       fill="currentColor"
       d="M 0,0 C 0,30 25,55 55,55 85,55 109,30 109,0 109,-30 85,-55 55,-55 25,-55 0,-30 0,0 Z"
       transform="scale(0.0029,-0.0029)" />
  </g>
  <g
     id="g366"
     transform="translate(88.3551,5.5263)">
    <rect
       id="rect364"
       fill="currentColor"
       ry="0.042100001"
       height="1.9685"
       width="0.1228"
       y="-3.1930001"
       x="-0.0614" />
  </g>
  <g
     id="g370"
     transform="translate(87.0431,5.5263)">
    <rect
       id="rect368"
       fill="currentColor"
       ry="0.042100001"
       height="2.2140999"
       width="0.1228"
       y="0.4876"
       x="-0.0614" />
  </g>
  <g
     id="g374"
     transform="translate(83.7347,1.8842)">
    <path
       id="path372"
       fill="currentColor"
       d="m 0,0 c 0,-196 207,-334 207,-530 0,-71 -15,-140 -41,-206 -5,-10 -14,-13 -23,-13 -14,0 -28,10 -28,26 0,2 1,3 1,5 26,59 42,123 42,188 0,101 -90,205 -158,280 H -21 V 0 Z"
       transform="scale(0.0029,-0.0029)" />
  </g>
  <g
     id="g378"
     transform="translate(82.3614,5.5263)">
    <rect
       id="rect376"
       fill="currentColor"
       ry="0.042100001"
       height="2.0913"
       width="0.1228"
       y="1.9613"
       x="-0.0614" />
  </g>
  <g
     id="g382"
     transform="translate(82.4228,9.5369)">
    <path
       id="path380"
       fill="currentColor"
       d="m 0,250 c 94,60 217,150 217,259 0,56 -15,110 -41,160 v 6 c 0,16 14,26 28,26 9,0 17,-4 22,-14 25,-56 40,-116 40,-178 C 266,306 0,203 0,0 h -21 v 250 z"
       transform="scale(0.0029,-0.0029)" />
  </g>
  <g
     id="g386"
     transform="translate(86.9818,2.579)">
    <path
       id="path384"
       fill="currentColor"
       d="m 208,139 c 61,0 117,-33 117,-99 0,-71 -52,-119 -99,-147 -34,-20 -71,-32 -110,-32 -61,0 -116,33 -116,99 0,71 51,119 98,147 34,20 71,32 110,32 z"
       transform="scale(0.0029,-0.0029)" />
  </g>
  <g
     id="g390"
     transform="translate(87.46,4.4211)">
    <path
       id="path388"
       fill="currentColor"
       d="m 208,139 c 61,0 117,-33 117,-99 0,-71 -52,-119 -99,-147 -34,-20 -71,-32 -110,-32 -61,0 -116,33 -116,99 0,71 51,119 98,147 34,20 71,32 110,32 z"
       transform="scale(0.0029,-0.0029)" />
  </g>
  <g
     id="g394"
     transform="translate(86.9818,5.8948)">
    <path
       id="path392"
       fill="currentColor"
       d="m 208,139 c 61,0 117,-33 117,-99 0,-71 -52,-119 -99,-147 -34,-20 -71,-32 -110,-32 -61,0 -116,33 -116,99 0,71 51,119 98,147 34,20 71,32 110,32 z"
       transform="scale(0.0029,-0.0029)" />
  </g>
  <g
     id="g398"
     transform="translate(87.8769,5.5263)">
    <rect
       id="rect396"
       fill="currentColor"
       ry="0.042100001"
       height="1.7229"
       width="0.1228"
       y="-4.7895002"
       x="-0.0614" />
  </g>
  <g
     id="g402"
     transform="translate(128,8.8421)">
    <path
       id="path400"
       fill="currentColor"
       d="M 0,0 C 0,30 25,55 55,55 85,55 109,30 109,0 109,-30 85,-55 55,-55 25,-55 0,-30 0,0 Z"
       transform="scale(0.0029,-0.0029)" />
  </g>
  <g
     id="g406"
     transform="translate(125.8269,5.5263)">
    <rect
       id="rect404"
       fill="currentColor"
       ry="0.042100001"
       height="1.7229"
       width="0.1228"
       y="3.0666001"
       x="-0.0614" />
  </g>
  <g
     id="g410"
     transform="translate(127.6171,5.5263)">
    <rect
       id="rect408"
       fill="currentColor"
       ry="0.042100001"
       height="2.4597001"
       width="0.1228"
       y="-1.1052999"
       x="-0.0614" />
  </g>
  <g
     id="g414"
     transform="translate(129.372,2.9474)">
    <path
       id="path412"
       fill="currentColor"
       d="m 208,139 c 61,0 117,-33 117,-99 0,-71 -52,-119 -99,-147 -34,-20 -71,-32 -110,-32 -61,0 -116,33 -116,99 0,71 51,119 98,147 34,20 71,32 110,32 z"
       transform="scale(0.0029,-0.0029)" />
  </g>
  <g
     id="g418"
     transform="translate(130.2671,5.5263)">
    <rect
       id="rect416"
       fill="currentColor"
       ry="0.042100001"
       height="1.5933"
       width="0.1228"
       y="-4.2914"
       x="-0.0614" />
  </g>
  <g
     id="g422"
     transform="translate(132.4785,3.3158)">
    <path
       id="path420"
       fill="currentColor"
       d="m 208,139 c 61,0 117,-33 117,-99 0,-71 -52,-119 -99,-147 -34,-20 -71,-32 -110,-32 -61,0 -116,33 -116,99 0,71 51,119 98,147 34,20 71,32 110,32 z"
       transform="scale(0.0029,-0.0029)" />
  </g>
  <g
     id="g426"
     transform="translate(133.3736,5.5263)">
    <rect
       id="rect424"
       fill="currentColor"
       ry="0.042100001"
       height="1.9617"
       width="0.1228"
       y="-4.2914"
       x="-0.0614" />
  </g>
  <g
     id="g430"
     transform="translate(125.7655,3.6842)">
    <path
       id="path428"
       fill="currentColor"
       d="m 208,139 c 61,0 117,-33 117,-99 0,-71 -52,-119 -99,-147 -34,-20 -71,-32 -110,-32 -61,0 -116,33 -116,99 0,71 51,119 98,147 34,20 71,32 110,32 z"
       transform="scale(0.0029,-0.0029)" />
  </g>
  <g
     id="g434"
     transform="translate(126.2438,5.1579)">
    <path
       id="path432"
       fill="currentColor"
       d="m 208,139 c 61,0 117,-33 117,-99 0,-71 -52,-119 -99,-147 -34,-20 -71,-32 -110,-32 -61,0 -116,33 -116,99 0,71 51,119 98,147 34,20 71,32 110,32 z"
       transform="scale(0.0029,-0.0029)" />
  </g>
  <g
     id="g438"
     transform="translate(126.722,7)">
    <path
       id="path436"
       fill="currentColor"
       d="m 208,139 c 61,0 117,-33 117,-99 0,-71 -52,-119 -99,-147 -34,-20 -71,-32 -110,-32 -61,0 -116,33 -116,99 0,71 51,119 98,147 34,20 71,32 110,32 z"
       transform="scale(0.0029,-0.0029)" />
  </g>
  <g
     id="g442"
     transform="translate(125.7655,8.4737)">
    <path
       id="path440"
       fill="currentColor"
       d="m 208,139 c 61,0 117,-33 117,-99 0,-71 -52,-119 -99,-147 -34,-20 -71,-32 -110,-32 -61,0 -116,33 -116,99 0,71 51,119 98,147 34,20 71,32 110,32 z"
       transform="scale(0.0029,-0.0029)" />
  </g>
  <g
     id="g446"
     transform="translate(126.6606,5.5263)">
    <rect
       id="rect444"
       fill="currentColor"
       ry="0.042100001"
       height="2.3301001"
       width="0.1228"
       y="-4.2914"
       x="-0.0614" />
  </g>
  <g
     id="g450"
     transform="translate(128,5.1579)">
    <path
       id="path448"
       fill="currentColor"
       d="M 0,0 C 0,30 25,55 55,55 85,55 109,30 109,0 109,-30 85,-55 55,-55 25,-55 0,-30 0,0 Z"
       transform="scale(0.0029,-0.0029)" />
  </g>
  <g
     id="g454"
     transform="translate(127.1389,5.5263)">
    <rect
       id="rect452"
       fill="currentColor"
       ry="0.042100001"
       height="2.2140999"
       width="0.1228"
       y="-2.7018001"
       x="-0.0614" />
  </g>
  <g
     id="g458"
     transform="translate(128,6.6316)">
    <path
       id="path456"
       fill="currentColor"
       d="M 0,0 C 0,30 25,55 55,55 85,55 109,30 109,0 109,-30 85,-55 55,-55 25,-55 0,-30 0,0 Z"
       transform="scale(0.0029,-0.0029)" />
  </g>
  <g
     id="g462"
     transform="translate(137.748,4.4632)">
    <path
       id="path460"
       fill="currentColor"
       d="m 0,0 c 0,-196 207,-334 207,-530 0,-71 -15,-140 -41,-206 -5,-10 -14,-13 -23,-13 -14,0 -28,10 -28,26 0,2 1,3 1,5 26,59 42,123 42,188 0,101 -90,205 -158,280 H -21 V 0 Z"
       transform="scale(0.0029,-0.0029)" />
  </g>
  <g
     id="g466"
     transform="translate(135.8964,5.5263)">
    <rect
       id="rect464"
       fill="currentColor"
       ry="0.042100001"
       height="2.0913"
       width="0.1228"
       y="3.0666001"
       x="-0.0614" />
  </g>
  <g
     id="g470"
     transform="translate(135.9577,10.6421)">
    <path
       id="path468"
       fill="currentColor"
       d="m 0,250 c 94,60 217,150 217,259 0,56 -15,110 -41,160 v 6 c 0,16 14,26 28,26 9,0 17,-4 22,-14 25,-56 40,-116 40,-178 C 266,306 0,203 0,0 h -21 v 250 z"
       transform="scale(0.0029,-0.0029)" />
  </g>
  <g
     id="g474"
     transform="translate(137.6866,5.5263)">
    <rect
       id="rect472"
       fill="currentColor"
       ry="0.042100001"
       height="2.4597001"
       width="0.1228"
       y="-1.1052999"
       x="-0.0614" />
  </g>
  <g
     id="g478"
     transform="translate(135.835,3.6842)">
    <path
       id="path476"
       fill="currentColor"
       d="m 208,139 c 61,0 117,-33 117,-99 0,-71 -52,-119 -99,-147 -34,-20 -71,-32 -110,-32 -61,0 -116,33 -116,99 0,71 51,119 98,147 34,20 71,32 110,32 z"
       transform="scale(0.0029,-0.0029)" />
  </g>
  <g
     id="g482"
     transform="translate(136.3132,5.1579)">
    <path
       id="path480"
       fill="currentColor"
       d="m 208,139 c 61,0 117,-33 117,-99 0,-71 -52,-119 -99,-147 -34,-20 -71,-32 -110,-32 -61,0 -116,33 -116,99 0,71 51,119 98,147 34,20 71,32 110,32 z"
       transform="scale(0.0029,-0.0029)" />
  </g>
  <g
     id="g486"
     transform="translate(136.7915,7)">
    <path
       id="path484"
       fill="currentColor"
       d="m 208,139 c 61,0 117,-33 117,-99 0,-71 -52,-119 -99,-147 -34,-20 -71,-32 -110,-32 -61,0 -116,33 -116,99 0,71 51,119 98,147 34,20 71,32 110,32 z"
       transform="scale(0.0029,-0.0029)" />
  </g>
  <g
     id="g490"
     transform="translate(135.835,8.4737)">
    <path
       id="path488"
       fill="currentColor"
       d="m 208,139 c 61,0 117,-33 117,-99 0,-71 -52,-119 -99,-147 -34,-20 -71,-32 -110,-32 -61,0 -116,33 -116,99 0,71 51,119 98,147 34,20 71,32 110,32 z"
       transform="scale(0.0029,-0.0029)" />
  </g>
  <g
     id="g494"
     transform="translate(136.7301,5.5263)">
    <rect
       id="rect492"
       fill="currentColor"
       ry="0.042100001"
       height="2.3301001"
       width="0.1228"
       y="-4.2914"
       x="-0.0614" />
  </g>
  <g
     id="g498"
     transform="translate(8.421,8.6033)">
    <polygon
       id="polygon496"
       points="0.0421,0.1347 0.0421,-0.1347 3.4371,0.1041 3.4371,0.3735 "
       stroke="currentColor"
       fill="currentColor"
       stroke-width="0.0842"
       stroke-linecap="round"
       stroke-linejoin="round" />
  </g>
  <g
     id="g502"
     transform="translate(137.2083,5.5263)">
    <rect
       id="rect500"
       fill="currentColor"
       ry="0.042100001"
       height="2.2755001"
       width="0.1228"
       y="-2.7632"
       x="-0.0614" />
  </g>
  <g
     id="g506"
     transform="translate(137.2697,2.8053)">
    <path
       id="path504"
       fill="currentColor"
       d="m 0,0 c 0,-196 207,-334 207,-530 0,-71 -15,-140 -41,-206 -5,-10 -14,-13 -23,-13 -14,0 -28,10 -28,26 0,2 1,3 1,5 26,59 42,123 42,188 0,101 -90,205 -158,280 H -21 V 0 Z"
       transform="scale(0.0029,-0.0029)" />
  </g>
  <g
     id="g510"
     transform="translate(107.4736,6.2632)">
    <path
       id="path508"
       fill="currentColor"
       d="m 0,114 c 0,12 7,22 18,26 l 37,15 v 151 c 0,12 10,22 22,22 12,0 22,-10 22,-22 V 172 l 77,29 v 152 c 0,12 10,22 22,22 12,0 22,-10 22,-22 V 219 l 16,6 c 3,1 8,2 11,2 15,0 28,-12 28,-28 v -50 c 0,-12 -7,-23 -18,-27 L 220,108 V -44 l 16,7 c 3,1 8,2 11,2 15,0 28,-13 28,-29 v -50 c 0,-12 -7,-22 -18,-26 l -37,-15 v -151 c 0,-12 -10,-22 -22,-22 -12,0 -22,10 -22,22 v 134 l -77,-29 v -152 c 0,-12 -10,-22 -22,-22 -12,0 -22,10 -22,22 v 134 l -16,-6 c -3,-1 -8,-2 -11,-2 -15,0 -28,12 -28,28 v 50 c 0,12 7,23 18,27 l 37,14 V 44 L 39,37 C 36,36 31,35 28,35 13,35 0,48 0,64 Z M 176,91 99,61 V -91 l 77,30 z"
       transform="scale(0.0029,-0.0029)" />
  </g>
  <g
     id="g514"
     transform="translate(114.2114,4.4211)">
    <path
       id="path512"
       fill="currentColor"
       d="m 208,139 c 61,0 117,-33 117,-99 0,-71 -52,-119 -99,-147 -34,-20 -71,-32 -110,-32 -61,0 -116,33 -116,99 0,71 51,119 98,147 34,20 71,32 110,32 z"
       transform="scale(0.0029,-0.0029)" />
  </g>
  <g
     id="g518"
     transform="translate(115.1679,4.7895)">
    <path
       id="path516"
       fill="currentColor"
       d="m 208,139 c 61,0 117,-33 117,-99 0,-71 -52,-119 -99,-147 -34,-20 -71,-32 -110,-32 -61,0 -116,33 -116,99 0,71 51,119 98,147 34,20 71,32 110,32 z"
       transform="scale(0.0029,-0.0029)" />
  </g>
  <g
     id="g522"
     transform="translate(114.2114,6.2632)">
    <path
       id="path520"
       fill="currentColor"
       d="m 208,139 c 61,0 117,-33 117,-99 0,-71 -52,-119 -99,-147 -34,-20 -71,-32 -110,-32 -61,0 -116,33 -116,99 0,71 51,119 98,147 34,20 71,32 110,32 z"
       transform="scale(0.0029,-0.0029)" />
  </g>
  <g
     id="g526"
     transform="translate(115.1065,5.5263)">
    <rect
       id="rect524"
       fill="currentColor"
       ry="0.042100001"
       height="2.0913"
       width="0.1228"
       y="-3.3158"
       x="-0.0614" />
  </g>
  <g
     id="g530"
     transform="translate(115.1679,2.2527)">
    <path
       id="path528"
       fill="currentColor"
       d="m 0,0 c 0,-196 207,-334 207,-530 0,-71 -15,-140 -41,-206 -5,-10 -14,-13 -23,-13 -14,0 -28,10 -28,26 0,2 1,3 1,5 26,59 42,123 42,188 0,101 -90,205 -158,280 H -21 V 0 Z"
       transform="scale(0.0029,-0.0029)" />
  </g>
  <g
     id="g534"
     transform="translate(116.063,5.5263)">
    <rect
       id="rect532"
       fill="currentColor"
       ry="0.042100001"
       height="2.1833999"
       width="0.1228"
       y="-3.0395"
       x="-0.0614" />
  </g>
  <g
     id="g538"
     transform="translate(116.1244,2.529)">
    <path
       id="path536"
       fill="currentColor"
       d="m 0,0 c 0,-196 207,-334 207,-530 0,-71 -15,-140 -41,-206 -5,-10 -14,-13 -23,-13 -14,0 -28,10 -28,26 0,2 1,3 1,5 26,59 42,123 42,188 0,101 -90,205 -158,280 H -21 V 0 Z"
       transform="scale(0.0029,-0.0029)" />
  </g>
  <g
     id="g542"
     transform="translate(108.6341,4.4211)">
    <path
       id="path540"
       fill="currentColor"
       d="m 208,139 c 61,0 117,-33 117,-99 0,-71 -52,-119 -99,-147 -34,-20 -71,-32 -110,-32 -61,0 -116,33 -116,99 0,71 51,119 98,147 34,20 71,32 110,32 z"
       transform="scale(0.0029,-0.0029)" />
  </g>
  <g
     id="g546"
     transform="translate(109.5906,4.7895)">
    <path
       id="path544"
       fill="currentColor"
       d="m 208,139 c 61,0 117,-33 117,-99 0,-71 -52,-119 -99,-147 -34,-20 -71,-32 -110,-32 -61,0 -116,33 -116,99 0,71 51,119 98,147 34,20 71,32 110,32 z"
       transform="scale(0.0029,-0.0029)" />
  </g>
  <g
     id="g550"
     transform="translate(108.6341,6.2632)">
    <path
       id="path548"
       fill="currentColor"
       d="m 208,139 c 61,0 117,-33 117,-99 0,-71 -52,-119 -99,-147 -34,-20 -71,-32 -110,-32 -61,0 -116,33 -116,99 0,71 51,119 98,147 34,20 71,32 110,32 z"
       transform="scale(0.0029,-0.0029)" />
  </g>
  <g
     id="g554"
     transform="translate(110.8686,4.4211)">
    <path
       id="path552"
       fill="currentColor"
       d="M 0,0 C 0,30 25,55 55,55 85,55 109,30 109,0 109,-30 85,-55 55,-55 25,-55 0,-30 0,0 Z"
       transform="scale(0.0029,-0.0029)" />
  </g>
  <g
     id="g558"
     transform="translate(56.0924,1.4737)">
    <polygon
       id="polygon556"
       points="0.0421,0.1347 0.0421,-0.1347 3.6763,-0.3735 3.6763,-0.1041 "
       stroke="currentColor"
       fill="currentColor"
       stroke-width="0.0842"
       stroke-linecap="round"
       stroke-linejoin="round" />
  </g>
  <g
     id="g562"
     transform="translate(109.5292,5.5263)">
    <rect
       id="rect560"
       fill="currentColor"
       ry="0.042100001"
       height="1.9685"
       width="0.1228"
       y="-3.1930001"
       x="-0.0614" />
  </g>
  <g
     id="g566"
     transform="translate(114.2728,5.5263)">
    <rect
       id="rect564"
       fill="currentColor"
       ry="0.042100001"
       height="2.1833999"
       width="0.1228"
       y="0.85610002"
       x="-0.0614" />
  </g>
  <g
     id="g570"
     transform="translate(110.8686,5.1579)">
    <path
       id="path568"
       fill="currentColor"
       d="M 0,0 C 0,30 25,55 55,55 85,55 109,30 109,0 109,-30 85,-55 55,-55 25,-55 0,-30 0,0 Z"
       transform="scale(0.0029,-0.0029)" />
  </g>
  <g
     id="g574"
     transform="translate(110.4857,5.5263)">
    <rect
       id="rect572"
       fill="currentColor"
       ry="0.042100001"
       height="2.0913"
       width="0.1228"
       y="-2.9474001"
       x="-0.0614" />
  </g>
  <g
     id="g578"
     transform="translate(110.8686,6.6316)">
    <path
       id="path576"
       fill="currentColor"
       d="M 0,0 C 0,30 25,55 55,55 85,55 109,30 109,0 109,-30 85,-55 55,-55 25,-55 0,-30 0,0 Z"
       transform="scale(0.0029,-0.0029)" />
  </g>
  <g
     id="g582"
     transform="translate(108.6955,5.5263)">
    <rect
       id="rect580"
       fill="currentColor"
       ry="0.042100001"
       height="2.0913"
       width="0.1228"
       y="0.85610002"
       x="-0.0614" />
  </g>
  <g
     id="g586"
     transform="translate(119.1139,5.5263)">
    <rect
       id="rect584"
       fill="currentColor"
       ry="0.042100001"
       height="2.2140999"
       width="0.1228"
       y="0.4876"
       x="-0.0614" />
  </g>
  <g
     id="g590"
     transform="translate(122.409,4.0527)">
    <path
       id="path588"
       fill="currentColor"
       d="m 208,139 c 61,0 117,-33 117,-99 0,-71 -52,-119 -99,-147 -34,-20 -71,-32 -110,-32 -61,0 -116,33 -116,99 0,71 51,119 98,147 34,20 71,32 110,32 z"
       transform="scale(0.0029,-0.0029)" />
  </g>
  <g
     id="g594"
     transform="translate(123.3041,5.5263)">
    <rect
       id="rect592"
       fill="currentColor"
       ry="0.042100001"
       height="1.9575"
       width="0.1228"
       y="-3.5504"
       x="-0.0614" />
  </g>
  <g
     id="g598"
     transform="translate(55.6141,0.73689995)">
    <polygon
       id="polygon596"
       points="0.0421,0.1347 0.0421,-0.1347 3.6763,-0.3735 3.6763,-0.1041 "
       stroke="currentColor"
       fill="currentColor"
       stroke-width="0.0842"
       stroke-linecap="round"
       stroke-linejoin="round" />
  </g>
  <g
     id="g602"
     transform="translate(114.3341,8.5237)">
    <path
       id="path600"
       fill="currentColor"
       d="m 0,250 c 94,60 217,150 217,259 0,56 -15,110 -41,160 v 6 c 0,16 14,26 28,26 9,0 17,-4 22,-14 25,-56 40,-116 40,-178 C 266,306 0,203 0,0 h -21 v 250 z"
       transform="scale(0.0029,-0.0029)" />
  </g>
  <g
     id="g606"
     transform="translate(119.0525,4.4211)">
    <path
       id="path604"
       fill="currentColor"
       d="m 208,139 c 61,0 117,-33 117,-99 0,-71 -52,-119 -99,-147 -34,-20 -71,-32 -110,-32 -61,0 -116,33 -116,99 0,71 51,119 98,147 34,20 71,32 110,32 z"
       transform="scale(0.0029,-0.0029)" />
  </g>
  <g
     id="g610"
     transform="translate(120.009,4.7895)">
    <path
       id="path608"
       fill="currentColor"
       d="m 208,139 c 61,0 117,-33 117,-99 0,-71 -52,-119 -99,-147 -34,-20 -71,-32 -110,-32 -61,0 -116,33 -116,99 0,71 51,119 98,147 34,20 71,32 110,32 z"
       transform="scale(0.0029,-0.0029)" />
  </g>
  <g
     id="g614"
     transform="translate(119.0525,5.8948)">
    <path
       id="path612"
       fill="currentColor"
       d="m 208,139 c 61,0 117,-33 117,-99 0,-71 -52,-119 -99,-147 -34,-20 -71,-32 -110,-32 -61,0 -116,33 -116,99 0,71 51,119 98,147 34,20 71,32 110,32 z"
       transform="scale(0.0029,-0.0029)" />
  </g>
  <g
     id="g618"
     transform="translate(119.9476,5.5263)">
    <rect
       id="rect616"
       fill="currentColor"
       ry="0.042100001"
       height="2.0955"
       width="0.1228"
       y="-3.3199999"
       x="-0.0614" />
  </g>
  <g
     id="g622"
     transform="translate(120.9041,5.5263)">
    <rect
       id="rect620"
       fill="currentColor"
       ry="0.042100001"
       height="2.0913"
       width="0.1228"
       y="-2.9474001"
       x="-0.0614" />
  </g>
  <g
     id="g626"
     transform="translate(29.8864,3.3158)">
    <path
       id="path624"
       fill="currentColor"
       d="m 208,139 c 61,0 117,-33 117,-99 0,-71 -52,-119 -99,-147 -34,-20 -71,-32 -110,-32 -61,0 -116,33 -116,99 0,71 51,119 98,147 34,20 71,32 110,32 z"
       transform="scale(0.0029,-0.0029)" />
  </g>
  <g
     id="g630"
     transform="translate(30.3646,4.7895)">
    <path
       id="path628"
       fill="currentColor"
       d="m 208,139 c 61,0 117,-33 117,-99 0,-71 -52,-119 -99,-147 -34,-20 -71,-32 -110,-32 -61,0 -116,33 -116,99 0,71 51,119 98,147 34,20 71,32 110,32 z"
       transform="scale(0.0029,-0.0029)" />
  </g>
  <g
     id="g634"
     transform="translate(29.8864,6.6316)">
    <path
       id="path632"
       fill="currentColor"
       d="m 208,139 c 61,0 117,-33 117,-99 0,-71 -52,-119 -99,-147 -34,-20 -71,-32 -110,-32 -61,0 -116,33 -116,99 0,71 51,119 98,147 34,20 71,32 110,32 z"
       transform="scale(0.0029,-0.0029)" />
  </g>
  <g
     id="g638"
     transform="translate(31.6426,2.9474)">
    <path
       id="path636"
       fill="currentColor"
       d="M 0,0 C 0,30 25,55 55,55 85,55 109,30 109,0 109,-30 85,-55 55,-55 25,-55 0,-30 0,0 Z"
       transform="scale(0.0029,-0.0029)" />
  </g>
  <g
     id="g642"
     transform="translate(30.7815,5.5263)">
    <rect
       id="rect640"
       fill="currentColor"
       ry="0.042100001"
       height="1.7229"
       width="0.1228"
       y="-4.0525999"
       x="-0.0614" />
  </g>
  <g
     id="g646"
     transform="translate(31.6426,4.4211)">
    <path
       id="path644"
       fill="currentColor"
       d="M 0,0 C 0,30 25,55 55,55 85,55 109,30 109,0 109,-30 85,-55 55,-55 25,-55 0,-30 0,0 Z"
       transform="scale(0.0029,-0.0029)" />
  </g>
  <g
     id="g650"
     transform="translate(31.2597,5.5263)">
    <rect
       id="rect648"
       fill="currentColor"
       ry="0.042100001"
       height="2.0913"
       width="0.1228"
       y="-2.9474001"
       x="-0.0614" />
  </g>
  <g
     id="g654"
     transform="translate(31.6426,6.6316)">
    <path
       id="path652"
       fill="currentColor"
       d="M 0,0 C 0,30 25,55 55,55 85,55 109,30 109,0 109,-30 85,-55 55,-55 25,-55 0,-30 0,0 Z"
       transform="scale(0.0029,-0.0029)" />
  </g>
  <g
     id="g658"
     transform="translate(29.9477,5.5263)">
    <rect
       id="rect656"
       fill="currentColor"
       ry="0.042100001"
       height="1.9685"
       width="0.1228"
       y="1.2244999"
       x="-0.0614" />
  </g>
  <g
     id="g662"
     transform="translate(26.0656,5.5263)">
    <rect
       id="rect660"
       fill="currentColor"
       ry="0.042100001"
       height="1.7229"
       width="0.1228"
       y="-3.6842"
       x="-0.0614" />
  </g>
  <g
     id="g666"
     transform="translate(26.5438,5.5263)">
    <rect
       id="rect664"
       fill="currentColor"
       ry="0.042100001"
       height="2.0913"
       width="0.1228"
       y="-2.9474001"
       x="-0.0614" />
  </g>
  <g
     id="g670"
     transform="translate(25.2318,5.5263)">
    <rect
       id="rect668"
       fill="currentColor"
       ry="0.042100001"
       height="1.8457"
       width="0.1228"
       y="1.5929"
       x="-0.0614" />
  </g>
  <g
     id="g674"
     transform="translate(35.427,8.8)">
    <path
       id="path672"
       fill="currentColor"
       d="m 0,250 c 94,60 217,150 217,259 0,56 -15,110 -41,160 v 6 c 0,16 14,26 28,26 9,0 17,-4 22,-14 25,-56 40,-116 40,-178 C 266,306 0,203 0,0 h -21 v 250 z"
       transform="scale(0.0029,-0.0029)" />
  </g>
  <g
     id="g678"
     transform="translate(39.9649,2.9474)">
    <path
       id="path676"
       fill="currentColor"
       d="m 208,139 c 61,0 117,-33 117,-99 0,-71 -52,-119 -99,-147 -34,-20 -71,-32 -110,-32 -61,0 -116,33 -116,99 0,71 51,119 98,147 34,20 71,32 110,32 z"
       transform="scale(0.0029,-0.0029)" />
  </g>
  <g
     id="g682"
     transform="translate(40.4432,4.7895)">
    <path
       id="path680"
       fill="currentColor"
       d="m 208,139 c 61,0 117,-33 117,-99 0,-71 -52,-119 -99,-147 -34,-20 -71,-32 -110,-32 -61,0 -116,33 -116,99 0,71 51,119 98,147 34,20 71,32 110,32 z"
       transform="scale(0.0029,-0.0029)" />
  </g>
  <g
     id="g686"
     transform="translate(39.9649,6.2632)">
    <path
       id="path684"
       fill="currentColor"
       d="m 208,139 c 61,0 117,-33 117,-99 0,-71 -52,-119 -99,-147 -34,-20 -71,-32 -110,-32 -61,0 -116,33 -116,99 0,71 51,119 98,147 34,20 71,32 110,32 z"
       transform="scale(0.0029,-0.0029)" />
  </g>
  <g
     id="g690"
     transform="translate(35.3656,5.5263)">
    <rect
       id="rect688"
       fill="currentColor"
       ry="0.042100001"
       height="2.0913"
       width="0.1228"
       y="1.2244999"
       x="-0.0614" />
  </g>
  <g
     id="g694"
     transform="translate(40.86,5.5263)">
    <rect
       id="rect692"
       fill="currentColor"
       ry="0.042100001"
       height="1.7229"
       width="0.1228"
       y="-4.4211001"
       x="-0.0614" />
  </g>
  <g
     id="g698"
     transform="translate(41.3383,5.5263)">
    <rect
       id="rect696"
       fill="currentColor"
       ry="0.042100001"
       height="2.0913"
       width="0.1228"
       y="-2.9474001"
       x="-0.0614" />
  </g>
  <g
     id="g702"
     transform="translate(35.3042,3.3158)">
    <path
       id="path700"
       fill="currentColor"
       d="m 208,139 c 61,0 117,-33 117,-99 0,-71 -52,-119 -99,-147 -34,-20 -71,-32 -110,-32 -61,0 -116,33 -116,99 0,71 51,119 98,147 34,20 71,32 110,32 z"
       transform="scale(0.0029,-0.0029)" />
  </g>
  <g
     id="g706"
     transform="translate(35.7825,4.7895)">
    <path
       id="path704"
       fill="currentColor"
       d="m 208,139 c 61,0 117,-33 117,-99 0,-71 -52,-119 -99,-147 -34,-20 -71,-32 -110,-32 -61,0 -116,33 -116,99 0,71 51,119 98,147 34,20 71,32 110,32 z"
       transform="scale(0.0029,-0.0029)" />
  </g>
  <g
     id="g710"
     transform="translate(35.3042,6.6316)">
    <path
       id="path708"
       fill="currentColor"
       d="m 208,139 c 61,0 117,-33 117,-99 0,-71 -52,-119 -99,-147 -34,-20 -71,-32 -110,-32 -61,0 -116,33 -116,99 0,71 51,119 98,147 34,20 71,32 110,32 z"
       transform="scale(0.0029,-0.0029)" />
  </g>
  <g
     id="g714"
     transform="translate(36.1993,5.5263)">
    <rect
       id="rect712"
       fill="currentColor"
       ry="0.042100001"
       height="2.0913"
       width="0.1228"
       y="-4.4211001"
       x="-0.0614" />
  </g>
  <g
     id="g718"
     transform="translate(25.1704,7)">
    <path
       id="path716"
       fill="currentColor"
       d="m 208,139 c 61,0 117,-33 117,-99 0,-71 -52,-119 -99,-147 -34,-20 -71,-32 -110,-32 -61,0 -116,33 -116,99 0,71 51,119 98,147 34,20 71,32 110,32 z"
       transform="scale(0.0029,-0.0029)" />
  </g>
  <g
     id="g722"
     transform="translate(36.2607,1.1474)">
    <path
       id="path720"
       fill="currentColor"
       d="m 0,0 c 0,-196 207,-334 207,-530 0,-71 -15,-140 -41,-206 -5,-10 -14,-13 -23,-13 -14,0 -28,10 -28,26 0,2 1,3 1,5 26,59 42,123 42,188 0,101 -90,205 -158,280 H -21 V 0 Z"
       transform="scale(0.0029,-0.0029)" />
  </g>
  <g
     id="g726"
     transform="translate(36.6776,5.5263)">
    <rect
       id="rect724"
       fill="currentColor"
       ry="0.042100001"
       height="2.1833999"
       width="0.1228"
       y="-3.0395"
       x="-0.0614" />
  </g>
  <g
     id="g730"
     transform="translate(36.7389,2.529)">
    <path
       id="path728"
       fill="currentColor"
       d="m 0,0 c 0,-196 207,-334 207,-530 0,-71 -15,-140 -41,-206 -5,-10 -14,-13 -23,-13 -14,0 -28,10 -28,26 0,2 1,3 1,5 26,59 42,123 42,188 0,101 -90,205 -158,280 H -21 V 0 Z"
       transform="scale(0.0029,-0.0029)" />
  </g>
  <g
     id="g734"
     transform="translate(11.8389,5.5263)">
    <rect
       id="rect732"
       fill="currentColor"
       ry="0.042100001"
       height="1.7187001"
       width="0.1228"
       y="1.5929"
       x="-0.0614" />
  </g>
  <g
     id="g738"
     transform="translate(8.4824,5.5263)">
    <rect
       id="rect736"
       fill="currentColor"
       ry="0.042100001"
       height="1.8566999"
       width="0.1228"
       y="1.2244999"
       x="-0.0614" />
  </g>
  <g
     id="g742"
     transform="translate(11.7775,7)">
    <path
       id="path740"
       fill="currentColor"
       d="m 208,139 c 61,0 117,-33 117,-99 0,-71 -52,-119 -99,-147 -34,-20 -71,-32 -110,-32 -61,0 -116,33 -116,99 0,71 51,119 98,147 34,20 71,32 110,32 z"
       transform="scale(0.0029,-0.0029)" />
  </g>
  <g
     id="g746"
     transform="translate(15.134,4.0527)">
    <path
       id="path744"
       fill="currentColor"
       d="m 208,139 c 61,0 117,-33 117,-99 0,-71 -52,-119 -99,-147 -34,-20 -71,-32 -110,-32 -61,0 -116,33 -116,99 0,71 51,119 98,147 34,20 71,32 110,32 z"
       transform="scale(0.0029,-0.0029)" />
  </g>
  <g
     id="g750"
     transform="translate(15.6122,4.7895)">
    <path
       id="path748"
       fill="currentColor"
       d="m 208,139 c 61,0 117,-33 117,-99 0,-71 -52,-119 -99,-147 -34,-20 -71,-32 -110,-32 -61,0 -116,33 -116,99 0,71 51,119 98,147 34,20 71,32 110,32 z"
       transform="scale(0.0029,-0.0029)" />
  </g>
  <g
     id="g754"
     transform="translate(15.134,7.3685)">
    <path
       id="path752"
       fill="currentColor"
       d="m 208,139 c 61,0 117,-33 117,-99 0,-71 -52,-119 -99,-147 -34,-20 -71,-32 -110,-32 -61,0 -116,33 -116,99 0,71 51,119 98,147 34,20 71,32 110,32 z"
       transform="scale(0.0029,-0.0029)" />
  </g>
  <g
     id="g758"
     transform="translate(16.8903,3.6842)">
    <path
       id="path756"
       fill="currentColor"
       d="M 0,0 C 0,30 25,55 55,55 85,55 109,30 109,0 109,-30 85,-55 55,-55 25,-55 0,-30 0,0 Z"
       transform="scale(0.0029,-0.0029)" />
  </g>
  <g
     id="g762"
     transform="translate(0.8,6.2632)">
    <path
       id="path760"
       fill="currentColor"
       d="m 381,266 h 9 c 157,0 258,-130 258,-264 0,-77 -33,-156 -108,-212 -22,-16 -46,-28 -71,-36 2,-32 3,-65 3,-97 0,-21 -1,-43 -2,-64 -7,-122 -91,-230 -211,-230 -108,0 -197,88 -197,197 0,58 54,104 113,104 54,0 95,-48 95,-104 0,-52 -43,-95 -95,-95 -8,0 -16,2 -24,4 25,-35 65,-59 111,-59 95,0 155,92 161,190 1,20 2,39 2,59 0,28 -1,55 -3,83 -29,-5 -57,-7 -87,-7 -189,0 -333,174 -333,377 0,176 128,307 242,443 -21,62 -41,124 -50,189 -7,52 -8,106 -8,159 0,113 54,219 146,286 8,6 21,7 29,0 72,-82 136,-244 136,-357 0,-141 -83,-253 -174,-362 22,-67 41,-135 58,-204 z m 83,-466 c 64,25 108,93 108,159 0,87 -62,173 -163,187 24,-113 43,-225 55,-346 z m -126,-18 c 27,0 54,2 80,6 C 405,-87 385,30 360,147 281,140 237,88 237,31 c 0,-43 24,-89 78,-120 5,-5 8,-11 8,-17 0,-13 -11,-24 -24,-24 -3,0 -7,0 -10,2 -81,44 -119,116 -119,187 0,90 60,178 164,201 -14,56 -30,112 -47,167 C 183,305 79,182 79,23 79,-109 206,-218 338,-218 Z M 239,782 c 0,-69 22,-127 41,-183 77,97 140,199 140,323 0,49 -3,69 -19,113 C 302,990 239,890 239,782 Z"
       transform="scale(0.0029,-0.0029)" />
  </g>
  <g
     id="g766"
     transform="translate(4.3,4.0527)">
    <path
       id="path764"
       fill="currentColor"
       d="m 0,114 c 0,12 7,22 18,26 l 37,15 v 151 c 0,12 10,22 22,22 12,0 22,-10 22,-22 V 172 l 77,29 v 152 c 0,12 10,22 22,22 12,0 22,-10 22,-22 V 219 l 16,6 c 3,1 8,2 11,2 15,0 28,-12 28,-28 v -50 c 0,-12 -7,-23 -18,-27 L 220,108 V -44 l 16,7 c 3,1 8,2 11,2 15,0 28,-13 28,-29 v -50 c 0,-12 -7,-22 -18,-26 l -37,-15 v -151 c 0,-12 -10,-22 -22,-22 -12,0 -22,10 -22,22 v 134 l -77,-29 v -152 c 0,-12 -10,-22 -22,-22 -12,0 -22,10 -22,22 v 134 l -16,-6 c -3,-1 -8,-2 -11,-2 -15,0 -28,12 -28,28 v 50 c 0,12 7,23 18,27 l 37,14 V 44 L 39,37 C 36,36 31,35 28,35 13,35 0,48 0,64 Z M 176,91 99,61 V -91 l 77,30 z"
       transform="scale(0.0029,-0.0029)" />
  </g>
  <g
     id="g770"
     transform="translate(5.1105,5.1579)">
    <path
       id="path768"
       fill="currentColor"
       d="m 0,114 c 0,12 7,22 18,26 l 37,15 v 151 c 0,12 10,22 22,22 12,0 22,-10 22,-22 V 172 l 77,29 v 152 c 0,12 10,22 22,22 12,0 22,-10 22,-22 V 219 l 16,6 c 3,1 8,2 11,2 15,0 28,-12 28,-28 v -50 c 0,-12 -7,-23 -18,-27 L 220,108 V -44 l 16,7 c 3,1 8,2 11,2 15,0 28,-13 28,-29 v -50 c 0,-12 -7,-22 -18,-26 l -37,-15 v -151 c 0,-12 -10,-22 -22,-22 -12,0 -22,10 -22,22 v 134 l -77,-29 v -152 c 0,-12 -10,-22 -22,-22 -12,0 -22,10 -22,22 v 134 l -16,-6 c -3,-1 -8,-2 -11,-2 -15,0 -28,12 -28,28 v 50 c 0,12 7,23 18,27 l 37,14 V 44 L 39,37 C 36,36 31,35 28,35 13,35 0,48 0,64 Z M 176,91 99,61 V -91 l 77,30 z"
       transform="scale(0.0029,-0.0029)" />
  </g>
  <g
     id="g774"
     transform="translate(16.0291,5.5263)">
    <rect
       id="rect772"
       fill="currentColor"
       ry="0.042100001"
       height="1.8457"
       width="0.1228"
       y="-3.4386001"
       x="-0.0614" />
  </g>
  <g
     id="g778"
     transform="translate(8.421,4.7895)">
    <path
       id="path776"
       fill="currentColor"
       d="m 208,139 c 61,0 117,-33 117,-99 0,-71 -52,-119 -99,-147 -34,-20 -71,-32 -110,-32 -61,0 -116,33 -116,99 0,71 51,119 98,147 34,20 71,32 110,32 z"
       transform="scale(0.0029,-0.0029)" />
  </g>
  <g
     id="g782"
     transform="translate(8.421,6.6316)">
    <path
       id="path780"
       fill="currentColor"
       d="m 208,139 c 61,0 117,-33 117,-99 0,-71 -52,-119 -99,-147 -34,-20 -71,-32 -110,-32 -61,0 -116,33 -116,99 0,71 51,119 98,147 34,20 71,32 110,32 z"
       transform="scale(0.0029,-0.0029)" />
  </g>
  <g
     id="g786"
     transform="translate(9.3161,5.5263)">
    <rect
       id="rect784"
       fill="currentColor"
       ry="0.042100001"
       height="2.0913"
       width="0.1228"
       y="-2.9474001"
       x="-0.0614" />
  </g>
  <g
     id="g790"
     transform="translate(21.447,5.5263)">
    <rect
       id="rect788"
       fill="currentColor"
       ry="0.042100001"
       height="2.0913"
       width="0.1228"
       y="-3.6842"
       x="-0.0614" />
  </g>
  <g
     id="g794"
     transform="translate(21.5083,1.8842)">
    <path
       id="path792"
       fill="currentColor"
       d="m 0,0 c 0,-196 207,-334 207,-530 0,-71 -15,-140 -41,-206 -5,-10 -14,-13 -23,-13 -14,0 -28,10 -28,26 0,2 1,3 1,5 26,59 42,123 42,188 0,101 -90,205 -158,280 H -21 V 0 Z"
       transform="scale(0.0029,-0.0029)" />
  </g>
  <g
     id="g798"
     transform="translate(21.9252,5.5263)">
    <rect
       id="rect796"
       fill="currentColor"
       ry="0.042100001"
       height="2.1833999"
       width="0.1228"
       y="-3.0395"
       x="-0.0614" />
  </g>
  <g
     id="g802"
     transform="translate(21.9866,2.529)">
    <path
       id="path800"
       fill="currentColor"
       d="m 0,0 c 0,-196 207,-334 207,-530 0,-71 -15,-140 -41,-206 -5,-10 -14,-13 -23,-13 -14,0 -28,10 -28,26 0,2 1,3 1,5 26,59 42,123 42,188 0,101 -90,205 -158,280 H -21 V 0 Z"
       transform="scale(0.0029,-0.0029)" />
  </g>
  <g
     id="g806"
     transform="translate(20.5519,7.3685)">
    <path
       id="path804"
       fill="currentColor"
       d="m 208,139 c 61,0 117,-33 117,-99 0,-71 -52,-119 -99,-147 -34,-20 -71,-32 -110,-32 -61,0 -116,33 -116,99 0,71 51,119 98,147 34,20 71,32 110,32 z"
       transform="scale(0.0029,-0.0029)" />
  </g>
  <g
     id="g810"
     transform="translate(20.6132,5.5263)">
    <rect
       id="rect808"
       fill="currentColor"
       ry="0.042100001"
       height="2.0913"
       width="0.1228"
       y="1.9613"
       x="-0.0614" />
  </g>
  <g
     id="g814"
     transform="translate(20.6746,9.5369)">
    <path
       id="path812"
       fill="currentColor"
       d="m 0,250 c 94,60 217,150 217,259 0,56 -15,110 -41,160 v 6 c 0,16 14,26 28,26 9,0 17,-4 22,-14 25,-56 40,-116 40,-178 C 266,306 0,203 0,0 h -21 v 250 z"
       transform="scale(0.0029,-0.0029)" />
  </g>
  <g
     id="g818"
     transform="translate(25.1704,3.6842)">
    <path
       id="path816"
       fill="currentColor"
       d="m 208,139 c 61,0 117,-33 117,-99 0,-71 -52,-119 -99,-147 -34,-20 -71,-32 -110,-32 -61,0 -116,33 -116,99 0,71 51,119 98,147 34,20 71,32 110,32 z"
       transform="scale(0.0029,-0.0029)" />
  </g>
  <g
     id="g822"
     transform="translate(25.6487,4.7895)">
    <path
       id="path820"
       fill="currentColor"
       d="m 208,139 c 61,0 117,-33 117,-99 0,-71 -52,-119 -99,-147 -34,-20 -71,-32 -110,-32 -61,0 -116,33 -116,99 0,71 51,119 98,147 34,20 71,32 110,32 z"
       transform="scale(0.0029,-0.0029)" />
  </g>
  <g
     id="g826"
     transform="translate(16.8903,7.3685)">
    <path
       id="path824"
       fill="currentColor"
       d="M 0,0 C 0,30 25,55 55,55 85,55 109,30 109,0 109,-30 85,-55 55,-55 25,-55 0,-30 0,0 Z"
       transform="scale(0.0029,-0.0029)" />
  </g>
  <g
     id="g830"
     transform="translate(16.8903,4.4211)">
    <path
       id="path828"
       fill="currentColor"
       d="M 0,0 C 0,30 25,55 55,55 85,55 109,30 109,0 109,-30 85,-55 55,-55 25,-55 0,-30 0,0 Z"
       transform="scale(0.0029,-0.0029)" />
  </g>
  <g
     id="g834"
     transform="translate(16.5073,5.5263)">
    <rect
       id="rect832"
       fill="currentColor"
       ry="0.042100001"
       height="2.0913"
       width="0.1228"
       y="-2.9474001"
       x="-0.0614" />
  </g>
  <g
     id="g838"
     transform="translate(15.1954,5.5263)">
    <rect
       id="rect836"
       fill="currentColor"
       ry="0.042100001"
       height="1.7229"
       width="0.1228"
       y="1.9613"
       x="-0.0614" />
  </g>
  <g
     id="g842"
     transform="translate(20.5519,4.0527)">
    <path
       id="path840"
       fill="currentColor"
       d="m 208,139 c 61,0 117,-33 117,-99 0,-71 -52,-119 -99,-147 -34,-20 -71,-32 -110,-32 -61,0 -116,33 -116,99 0,71 51,119 98,147 34,20 71,32 110,32 z"
       transform="scale(0.0029,-0.0029)" />
  </g>
  <g
     id="g846"
     transform="translate(21.0301,4.7895)">
    <path
       id="path844"
       fill="currentColor"
       d="m 208,139 c 61,0 117,-33 117,-99 0,-71 -52,-119 -99,-147 -34,-20 -71,-32 -110,-32 -61,0 -116,33 -116,99 0,71 51,119 98,147 34,20 71,32 110,32 z"
       transform="scale(0.0029,-0.0029)" />
  </g>
  <g
     id="g850"
     transform="translate(58.376,2.2106)">
    <path
       id="path848"
       fill="currentColor"
       d="m 208,139 c 61,0 117,-33 117,-99 0,-71 -52,-119 -99,-147 -34,-20 -71,-32 -110,-32 -61,0 -116,33 -116,99 0,71 51,119 98,147 34,20 71,32 110,32 z"
       transform="scale(0.0029,-0.0029)" />
  </g>
  <g
     id="g854"
     transform="translate(58.8543,4.0527)">
    <path
       id="path852"
       fill="currentColor"
       d="m 208,139 c 61,0 117,-33 117,-99 0,-71 -52,-119 -99,-147 -34,-20 -71,-32 -110,-32 -61,0 -116,33 -116,99 0,71 51,119 98,147 34,20 71,32 110,32 z"
       transform="scale(0.0029,-0.0029)" />
  </g>
  <g
     id="g858"
     transform="translate(59.2711,5.5263)">
    <rect
       id="rect856"
       fill="currentColor"
       ry="0.042100001"
       height="1.5893"
       width="0.1228"
       y="-5.0243001"
       x="-0.0614" />
  </g>
  <g
     id="g862"
     transform="translate(59.7494,5.5263)">
    <rect
       id="rect860"
       fill="currentColor"
       ry="0.042100001"
       height="2.6946001"
       width="0.1228"
       y="-4.2874999"
       x="-0.0614" />
  </g>
  <g
     id="g866"
     transform="translate(61.9716,2.2106)">
    <path
       id="path864"
       fill="currentColor"
       d="m 208,139 c 61,0 117,-33 117,-99 0,-71 -52,-119 -99,-147 -34,-20 -71,-32 -110,-32 -61,0 -116,33 -116,99 0,71 51,119 98,147 34,20 71,32 110,32 z"
       transform="scale(0.0029,-0.0029)" />
  </g>
  <g
     id="g870"
     transform="translate(62.4826,4.4211)">
    <path
       id="path868"
       fill="currentColor"
       d="m 308,62 c 0,23 -20,39 -40,39 -4,0 -7,0 -11,-1 C 228,92 183,62 148,39 113,16 69,-13 49,-36 43,-44 39,-52 39,-62 c 0,-23 20,-39 40,-39 4,0 7,0 11,1 29,8 74,38 109,61 35,23 79,52 99,75 6,8 10,16 10,26 z M 0,-59 c 0,142 114,198 251,198 53,0 96,-22 96,-80 0,-142 -115,-198 -252,-198 -53,0 -95,22 -95,80 z"
       transform="scale(0.0029,-0.0029)" />
  </g>
  <g
     id="g874"
     transform="translate(55.6755,5.5263)">
    <rect
       id="rect872"
       fill="currentColor"
       ry="0.042100001"
       height="1.7268"
       width="0.1228"
       y="-4.7933998"
       x="-0.0614" />
  </g>
  <g
     id="g878"
     transform="translate(56.1538,5.5263)">
    <rect
       id="rect876"
       fill="currentColor"
       ry="0.042100001"
       height="2.8320999"
       width="0.1228"
       y="-4.0566001"
       x="-0.0614" />
  </g>
  <g
     id="g882"
     transform="translate(61.9716,5.8948)">
    <path
       id="path880"
       fill="currentColor"
       d="m 308,62 c 0,23 -20,39 -40,39 -4,0 -7,0 -11,-1 C 228,92 183,62 148,39 113,16 69,-13 49,-36 43,-44 39,-52 39,-62 c 0,-23 20,-39 40,-39 4,0 7,0 11,1 29,8 74,38 109,61 35,23 79,52 99,75 6,8 10,16 10,26 z M 0,-59 c 0,142 114,198 251,198 53,0 96,-22 96,-80 0,-142 -115,-198 -252,-198 -53,0 -95,22 -95,80 z"
       transform="scale(0.0029,-0.0029)" />
  </g>
  <g
     id="g886"
     transform="translate(54.8418,5.5263)">
    <rect
       id="rect884"
       fill="currentColor"
       ry="0.042100001"
       height="2.2140999"
       width="0.1228"
       y="0.4876"
       x="-0.0614" />
  </g>
  <g
     id="g890"
     transform="translate(72.1663,2.2106)">
    <path
       id="path888"
       fill="currentColor"
       d="m 208,139 c 61,0 117,-33 117,-99 0,-71 -52,-119 -99,-147 -34,-20 -71,-32 -110,-32 -61,0 -116,33 -116,99 0,71 51,119 98,147 34,20 71,32 110,32 z"
       transform="scale(0.0029,-0.0029)" />
  </g>
  <g
     id="g894"
     transform="translate(72.6445,4.0527)">
    <path
       id="path892"
       fill="currentColor"
       d="m 208,139 c 61,0 117,-33 117,-99 0,-71 -52,-119 -99,-147 -34,-20 -71,-32 -110,-32 -61,0 -116,33 -116,99 0,71 51,119 98,147 34,20 71,32 110,32 z"
       transform="scale(0.0029,-0.0029)" />
  </g>
  <g
     id="g898"
     transform="translate(72.1663,7.3685)">
    <path
       id="path896"
       fill="currentColor"
       d="m 208,139 c 61,0 117,-33 117,-99 0,-71 -52,-119 -99,-147 -34,-20 -71,-32 -110,-32 -61,0 -116,33 -116,99 0,71 51,119 98,147 34,20 71,32 110,32 z"
       transform="scale(0.0029,-0.0029)" />
  </g>
  <g
     id="g902"
     transform="translate(73.0614,5.5263)">
    <rect
       id="rect900"
       fill="currentColor"
       ry="0.042100001"
       height="1.7229"
       width="0.1228"
       y="-5.1578999"
       x="-0.0614" />
  </g>
  <g
     id="g906"
     transform="translate(73.5396,5.5263)">
    <rect
       id="rect904"
       fill="currentColor"
       ry="0.042100001"
       height="1.8457"
       width="0.1228"
       y="-3.4386001"
       x="-0.0614" />
  </g>
  <g
     id="g910"
     transform="translate(72.2276,5.5263)">
    <rect
       id="rect908"
       fill="currentColor"
       ry="0.042100001"
       height="1.7229"
       width="0.1228"
       y="1.9613"
       x="-0.0614" />
  </g>
  <g
     id="g914"
     transform="translate(62.033,5.5263)">
    <rect
       id="rect912"
       fill="currentColor"
       ry="0.042100001"
       height="2.1589999"
       width="0.1228"
       y="0.54269999"
       x="-0.0614" />
  </g>
  <g
     id="g918"
     transform="translate(62.8667,5.5263)">
    <rect
       id="rect916"
       fill="currentColor"
       ry="0.042100001"
       height="1.7229"
       width="0.1228"
       y="-5.1578999"
       x="-0.0614" />
  </g>
  <g
     id="g922"
     transform="translate(63.4431,5.5263)">
    <rect
       id="rect920"
       fill="currentColor"
       ry="0.042100001"
       height="1.9134001"
       width="0.1228"
       y="-3.1930001"
       x="-0.0614" />
  </g>
  <g
     id="g926"
     transform="translate(66.5281,2.579)">
    <path
       id="path924"
       fill="currentColor"
       d="m 208,139 c 61,0 117,-33 117,-99 0,-71 -52,-119 -99,-147 -34,-20 -71,-32 -110,-32 -61,0 -116,33 -116,99 0,71 51,119 98,147 34,20 71,32 110,32 z"
       transform="scale(0.0029,-0.0029)" />
  </g>
  <g
     id="g930"
     transform="translate(67.4232,5.5263)">
    <rect
       id="rect928"
       fill="currentColor"
       ry="0.042100001"
       height="1.7229"
       width="0.1228"
       y="-4.7895002"
       x="-0.0614" />
  </g>
  <g
     id="g934"
     transform="translate(44.7422,5.5263)">
    <rect
       id="rect932"
       fill="currentColor"
       ry="0.042100001"
       height="2.0913"
       width="0.1228"
       y="0.85610002"
       x="-0.0614" />
  </g>
  <g
     id="g938"
     transform="translate(46.4371,4.4211)">
    <path
       id="path936"
       fill="currentColor"
       d="M 0,0 C 0,30 25,55 55,55 85,55 109,30 109,0 109,-30 85,-55 55,-55 25,-55 0,-30 0,0 Z"
       transform="scale(0.0029,-0.0029)" />
  </g>
  <g
     id="g942"
     transform="translate(46.0542,5.5263)">
    <rect
       id="rect940"
       fill="currentColor"
       ry="0.042100001"
       height="1.9685"
       width="0.1228"
       y="-3.1930001"
       x="-0.0614" />
  </g>
  <g
     id="g946"
     transform="translate(46.4371,6.6316)">
    <path
       id="path944"
       fill="currentColor"
       d="M 0,0 C 0,30 25,55 55,55 85,55 109,30 109,0 109,-30 85,-55 55,-55 25,-55 0,-30 0,0 Z"
       transform="scale(0.0029,-0.0029)" />
  </g>
  <g
     id="g950"
     transform="translate(43.5203,6.2632)">
    <path
       id="path948"
       fill="currentColor"
       d="m 0,114 c 0,12 7,22 18,26 l 37,15 v 151 c 0,12 10,22 22,22 12,0 22,-10 22,-22 V 172 l 77,29 v 152 c 0,12 10,22 22,22 12,0 22,-10 22,-22 V 219 l 16,6 c 3,1 8,2 11,2 15,0 28,-12 28,-28 v -50 c 0,-12 -7,-23 -18,-27 L 220,108 V -44 l 16,7 c 3,1 8,2 11,2 15,0 28,-13 28,-29 v -50 c 0,-12 -7,-22 -18,-26 l -37,-15 v -151 c 0,-12 -10,-22 -22,-22 -12,0 -22,10 -22,22 v 134 l -77,-29 v -152 c 0,-12 -10,-22 -22,-22 -12,0 -22,10 -22,22 v 134 l -16,-6 c -3,-1 -8,-2 -11,-2 -15,0 -28,12 -28,28 v 50 c 0,12 7,23 18,27 l 37,14 V 44 L 39,37 C 36,36 31,35 28,35 13,35 0,48 0,64 Z M 176,91 99,61 V -91 l 77,30 z"
       transform="scale(0.0029,-0.0029)" />
  </g>
  <g
     id="g954"
     transform="translate(50.0987,2.9474)">
    <path
       id="path952"
       fill="currentColor"
       d="m 208,139 c 61,0 117,-33 117,-99 0,-71 -52,-119 -99,-147 -34,-20 -71,-32 -110,-32 -61,0 -116,33 -116,99 0,71 51,119 98,147 34,20 71,32 110,32 z"
       transform="scale(0.0029,-0.0029)" />
  </g>
  <g
     id="g958"
     transform="translate(40.0263,5.5263)">
    <rect
       id="rect956"
       fill="currentColor"
       ry="0.042100001"
       height="2.0913"
       width="0.1228"
       y="0.85610002"
       x="-0.0614" />
  </g>
  <g
     id="g962"
     transform="translate(44.6808,2.9474)">
    <path
       id="path960"
       fill="currentColor"
       d="m 208,139 c 61,0 117,-33 117,-99 0,-71 -52,-119 -99,-147 -34,-20 -71,-32 -110,-32 -61,0 -116,33 -116,99 0,71 51,119 98,147 34,20 71,32 110,32 z"
       transform="scale(0.0029,-0.0029)" />
  </g>
  <g
     id="g966"
     transform="translate(45.1591,4.4211)">
    <path
       id="path964"
       fill="currentColor"
       d="m 208,139 c 61,0 117,-33 117,-99 0,-71 -52,-119 -99,-147 -34,-20 -71,-32 -110,-32 -61,0 -116,33 -116,99 0,71 51,119 98,147 34,20 71,32 110,32 z"
       transform="scale(0.0029,-0.0029)" />
  </g>
  <g
     id="g970"
     transform="translate(44.6808,6.2632)">
    <path
       id="path968"
       fill="currentColor"
       d="m 208,139 c 61,0 117,-33 117,-99 0,-71 -52,-119 -99,-147 -34,-20 -71,-32 -110,-32 -61,0 -116,33 -116,99 0,71 51,119 98,147 34,20 71,32 110,32 z"
       transform="scale(0.0029,-0.0029)" />
  </g>
  <g
     id="g974"
     transform="translate(46.4371,2.9474)">
    <path
       id="path972"
       fill="currentColor"
       d="M 0,0 C 0,30 25,55 55,55 85,55 109,30 109,0 109,-30 85,-55 55,-55 25,-55 0,-30 0,0 Z"
       transform="scale(0.0029,-0.0029)" />
  </g>
  <g
     id="g978"
     transform="translate(45.5759,5.5263)">
    <rect
       id="rect976"
       fill="currentColor"
       ry="0.042100001"
       height="1.7229"
       width="0.1228"
       y="-4.4211001"
       x="-0.0614" />
  </g>
  <g
     id="g982"
     transform="translate(50.2214,8.5237)">
    <path
       id="path980"
       fill="currentColor"
       d="m 0,250 c 94,60 217,150 217,259 0,56 -15,110 -41,160 v 6 c 0,16 14,26 28,26 9,0 17,-4 22,-14 25,-56 40,-116 40,-178 C 266,306 0,203 0,0 h -21 v 250 z"
       transform="scale(0.0029,-0.0029)" />
  </g>
  <g
     id="g986"
     transform="translate(51.472,5.5263)">
    <rect
       id="rect984"
       fill="currentColor"
       ry="0.042100001"
       height="2.0913"
       width="0.1228"
       y="-3.3158"
       x="-0.0614" />
  </g>
  <g
     id="g990"
     transform="translate(51.5334,2.2527)">
    <path
       id="path988"
       fill="currentColor"
       d="m 0,0 c 0,-196 207,-334 207,-530 0,-71 -15,-140 -41,-206 -5,-10 -14,-13 -23,-13 -14,0 -28,10 -28,26 0,2 1,3 1,5 26,59 42,123 42,188 0,101 -90,205 -158,280 H -21 V 0 Z"
       transform="scale(0.0029,-0.0029)" />
  </g>
  <g
     id="g994"
     transform="translate(50.16,5.5263)">
    <rect
       id="rect992"
       fill="currentColor"
       ry="0.042100001"
       height="2.1833999"
       width="0.1228"
       y="0.85610002"
       x="-0.0614" />
  </g>
  <g
     id="g998"
     transform="translate(50.5769,4.4211)">
    <path
       id="path996"
       fill="currentColor"
       d="m 208,139 c 61,0 117,-33 117,-99 0,-71 -52,-119 -99,-147 -34,-20 -71,-32 -110,-32 -61,0 -116,33 -116,99 0,71 51,119 98,147 34,20 71,32 110,32 z"
       transform="scale(0.0029,-0.0029)" />
  </g>
  <g
     id="g1002"
     transform="translate(54.7804,2.579)">
    <path
       id="path1000"
       fill="currentColor"
       d="m 208,139 c 61,0 117,-33 117,-99 0,-71 -52,-119 -99,-147 -34,-20 -71,-32 -110,-32 -61,0 -116,33 -116,99 0,71 51,119 98,147 34,20 71,32 110,32 z"
       transform="scale(0.0029,-0.0029)" />
  </g>
  <g
     id="g1006"
     transform="translate(55.2587,4.4211)">
    <path
       id="path1004"
       fill="currentColor"
       d="m 208,139 c 61,0 117,-33 117,-99 0,-71 -52,-119 -99,-147 -34,-20 -71,-32 -110,-32 -61,0 -116,33 -116,99 0,71 51,119 98,147 34,20 71,32 110,32 z"
       transform="scale(0.0029,-0.0029)" />
  </g>
  <g
     id="g1010"
     transform="translate(54.7804,5.8948)">
    <path
       id="path1008"
       fill="currentColor"
       d="m 208,139 c 61,0 117,-33 117,-99 0,-71 -52,-119 -99,-147 -34,-20 -71,-32 -110,-32 -61,0 -116,33 -116,99 0,71 51,119 98,147 34,20 71,32 110,32 z"
       transform="scale(0.0029,-0.0029)" />
  </g>
  <g
     id="g1014"
     transform="translate(51.0552,0.77899995)">
    <path
       id="path1012"
       fill="currentColor"
       d="m 0,0 c 0,-196 207,-334 207,-530 0,-71 -15,-140 -41,-206 -5,-10 -14,-13 -23,-13 -14,0 -28,10 -28,26 0,2 1,3 1,5 26,59 42,123 42,188 0,101 -90,205 -158,280 H -21 V 0 Z"
       transform="scale(0.0029,-0.0029)" />
  </g>
  <g
     id="g1018"
     transform="translate(50.9938,5.5263)">
    <rect
       id="rect1016"
       fill="currentColor"
       ry="0.042100001"
       height="2.0913"
       width="0.1228"
       y="-4.7895002"
       x="-0.0614" />
  </g>
  <g
     id="g1022"
     transform="translate(50.0987,6.2632)">
    <path
       id="path1020"
       fill="currentColor"
       d="m 208,139 c 61,0 117,-33 117,-99 0,-71 -52,-119 -99,-147 -34,-20 -71,-32 -110,-32 -61,0 -116,33 -116,99 0,71 51,119 98,147 34,20 71,32 110,32 z"
       transform="scale(0.0029,-0.0029)" />
  </g>
</svg>
