<?xml version="1.0" encoding="UTF-8" standalone="no"?>
<svg
   xmlns:dc="http://purl.org/dc/elements/1.1/"
   xmlns:cc="http://creativecommons.org/ns#"
   xmlns:rdf="http://www.w3.org/1999/02/22-rdf-syntax-ns#"
   xmlns:svg="http://www.w3.org/2000/svg"
   xmlns="http://www.w3.org/2000/svg"
   xmlns:sodipodi="http://sodipodi.sourceforge.net/DTD/sodipodi-0.dtd"
   xmlns:inkscape="http://www.inkscape.org/namespaces/inkscape"
   sodipodi:docname="bwv-1004_5_for_PNGs-30.svg"
   id="svg844"
   viewBox="0 0 138.23939 10.4123"
   height="17.382647mm"
   width="230.78154mm"
   version="1.2">
  <metadata
     id="metadata850">
    <rdf:RDF>
      <cc:Work
         rdf:about="">
        <dc:format>image/svg+xml</dc:format>
        <dc:type
           rdf:resource="http://purl.org/dc/dcmitype/StillImage" />
      </cc:Work>
    </rdf:RDF>
  </metadata>
  <defs
     id="defs848" />
  <sodipodi:namedview
     id="namedview846"
     inkscape:window-height="480"
     inkscape:window-width="640"
     inkscape:pageshadow="2"
     inkscape:pageopacity="0"
     guidetolerance="10"
     gridtolerance="10"
     objecttolerance="10"
     borderopacity="1"
     bordercolor="#666666"
     pagecolor="#ffffff" />
  <style
     id="style2"
     type="text/css"><![CDATA[
tspan { white-space: pre; }
]]></style>
  <g
     id="g6"
     transform="translate(0,8.5879)">
    <line
       id="line4"
       y2="0"
       x2="138.1922"
       y1="0"
       x1="0.047200002"
       stroke="currentColor"
       stroke-width="0.0944"
       stroke-linecap="round"
       stroke-linejoin="round" />
  </g>
  <g
     id="g10"
     transform="translate(0,7.8511)">
    <line
       id="line8"
       y2="0"
       x2="138.1922"
       y1="0"
       x1="0.047200002"
       stroke="currentColor"
       stroke-width="0.0944"
       stroke-linecap="round"
       stroke-linejoin="round" />
  </g>
  <g
     id="g14"
     transform="translate(0,7.1142)">
    <line
       id="line12"
       y2="0"
       x2="138.1922"
       y1="0"
       x1="0.047200002"
       stroke="currentColor"
       stroke-width="0.0944"
       stroke-linecap="round"
       stroke-linejoin="round" />
  </g>
  <g
     id="g18"
     transform="translate(0,6.3774)">
    <line
       id="line16"
       y2="0"
       x2="138.1922"
       y1="0"
       x1="0.047200002"
       stroke="currentColor"
       stroke-width="0.0944"
       stroke-linecap="round"
       stroke-linejoin="round" />
  </g>
  <g
     id="g22"
     transform="translate(0,5.6406)">
    <line
       id="line20"
       y2="0"
       x2="138.1922"
       y1="0"
       x1="0.047200002"
       stroke="currentColor"
       stroke-width="0.0944"
       stroke-linecap="round"
       stroke-linejoin="round" />
  </g>
  <g
     id="g26"
     transform="translate(66.1706,7.1142)">
    <rect
       id="rect24"
       fill="currentColor"
       ry="0.0000"
       height="2.9474001"
       width="0.1794"
       y="-1.4737"
       x="0" />
  </g>
  <g
     id="g30"
     transform="translate(138.06,7.1142)">
    <rect
       id="rect28"
       fill="currentColor"
       ry="0.0000"
       height="2.9474001"
       width="0.1794"
       y="-1.4737"
       x="0" />
  </g>
  <g
     id="g34"
     transform="translate(99.2668,7.1142)">
    <rect
       id="rect32"
       fill="currentColor"
       ry="0.0000"
       height="2.9474001"
       width="0.1794"
       y="-1.4737"
       x="0" />
  </g>
  <g
     id="g38"
     transform="translate(36.8119,7.1142)">
    <rect
       id="rect36"
       fill="currentColor"
       ry="0.0000"
       height="2.9474001"
       width="0.1794"
       y="-1.4737"
       x="0" />
  </g>
  <g
     id="g42"
     transform="translate(0,9.3248)">
    <rect
       id="rect40"
       fill="currentColor"
       ry="0.084100001"
       height="0.1681"
       width="1.3706"
       y="-0.084100001"
       x="128.3961" />
  </g>
  <g
     id="g46"
     transform="translate(0,4.9037)">
    <rect
       id="rect44"
       fill="currentColor"
       ry="0.084100001"
       height="0.1681"
       width="1.4347"
       y="-0.084100001"
       x="86.332298" />
  </g>
  <g
     id="g50"
     transform="translate(0,4.9037)">
    <rect
       id="rect48"
       fill="currentColor"
       ry="0.084100001"
       height="0.1681"
       width="1.4347"
       y="-0.084100001"
       x="84.525803" />
  </g>
  <g
     id="g54"
     transform="translate(0,4.9037)">
    <rect
       id="rect52"
       fill="currentColor"
       ry="0.084100001"
       height="0.1681"
       width="1.3956"
       y="-0.084100001"
       x="81.451897" />
  </g>
  <g
     id="g58"
     transform="translate(0,4.9037)">
    <rect
       id="rect56"
       fill="currentColor"
       ry="0.084100001"
       height="0.1681"
       width="1.3956"
       y="-0.084100001"
       x="79.956299" />
  </g>
  <g
     id="g62"
     transform="translate(0,4.1669)">
    <rect
       id="rect60"
       fill="currentColor"
       ry="0.084100001"
       height="0.1681"
       width="1.4347"
       y="-0.084100001"
       x="75.643402" />
  </g>
  <g
     id="g66"
     transform="translate(0,4.9037)">
    <rect
       id="rect64"
       fill="currentColor"
       ry="0.084100001"
       height="0.1681"
       width="1.4347"
       y="-0.084100001"
       x="75.643402" />
  </g>
  <g
     id="g70"
     transform="translate(0,4.1669)">
    <rect
       id="rect68"
       fill="currentColor"
       ry="0.084100001"
       height="0.1681"
       width="1.4347"
       y="-0.084100001"
       x="74.086899" />
  </g>
  <g
     id="g74"
     transform="translate(0,4.9037)">
    <rect
       id="rect72"
       fill="currentColor"
       ry="0.084100001"
       height="0.1681"
       width="1.4347"
       y="-0.084100001"
       x="74.086899" />
  </g>
  <g
     id="g78"
     transform="translate(0,4.9037)">
    <rect
       id="rect76"
       fill="currentColor"
       ry="0.084100001"
       height="0.1681"
       width="1.4347"
       y="-0.084100001"
       x="72.530403" />
  </g>
  <g
     id="g82"
     transform="translate(0,4.1669)">
    <rect
       id="rect80"
       fill="currentColor"
       ry="0.084100001"
       height="0.1681"
       width="1.4347"
       y="-0.084100001"
       x="70.9739" />
  </g>
  <g
     id="g86"
     transform="translate(0,4.9037)">
    <rect
       id="rect84"
       fill="currentColor"
       ry="0.084100001"
       height="0.1681"
       width="1.4347"
       y="-0.084100001"
       x="70.9739" />
  </g>
  <g
     id="g90"
     transform="translate(0,4.1669)">
    <rect
       id="rect88"
       fill="currentColor"
       ry="0.084100001"
       height="0.1681"
       width="1.4347"
       y="-0.084100001"
       x="69.417397" />
  </g>
  <g
     id="g94"
     transform="translate(0,4.9037)">
    <rect
       id="rect92"
       fill="currentColor"
       ry="0.084100001"
       height="0.1681"
       width="1.4347"
       y="-0.084100001"
       x="69.417397" />
  </g>
  <g
     id="g98"
     transform="translate(0,9.3248)">
    <rect
       id="rect96"
       fill="currentColor"
       ry="0.084100001"
       height="0.1681"
       width="1.4347"
       y="-0.084100001"
       x="67.010902" />
  </g>
  <g
     id="g102"
     transform="translate(0,4.9037)">
    <rect
       id="rect100"
       fill="currentColor"
       ry="0.084100001"
       height="0.1681"
       width="1.4347"
       y="-0.084100001"
       x="55.404099" />
  </g>
  <g
     id="g106"
     transform="translate(0,9.3248)">
    <rect
       id="rect104"
       fill="currentColor"
       ry="0.084100001"
       height="0.1681"
       width="1.4347"
       y="-0.084100001"
       x="37.652199" />
  </g>
  <g
     id="g110"
     transform="translate(0,4.9037)">
    <rect
       id="rect108"
       fill="currentColor"
       ry="0.084100001"
       height="0.1681"
       width="1.4347"
       y="-0.084100001"
       x="26.0811" />
  </g>
  <g
     id="g114"
     transform="translate(0,4.9037)">
    <rect
       id="rect112"
       fill="currentColor"
       ry="0.084100001"
       height="0.1681"
       width="1.4347"
       y="-0.084100001"
       x="23.674601" />
  </g>
  <g
     id="g118"
     transform="translate(101.2067,6.7458)">
    <path
       id="path116"
       fill="currentColor"
       d="m 208,139 c 61,0 117,-33 117,-99 0,-71 -52,-119 -99,-147 -34,-20 -71,-32 -110,-32 -61,0 -116,33 -116,99 0,71 51,119 98,147 34,20 71,32 110,32 z"
       transform="scale(0.0029,-0.0029)" />
  </g>
  <g
     id="g122"
     transform="translate(110.7343,7.1142)">
    <rect
       id="rect120"
       fill="currentColor"
       ry="0.042100001"
       height="2.3301001"
       width="0.1228"
       y="-3.5546"
       x="-0.0614" />
  </g>
  <g
     id="g126"
     transform="translate(102.1018,7.1142)">
    <rect
       id="rect124"
       fill="currentColor"
       ry="0.042100001"
       height="3.0669"
       width="0.1228"
       y="-3.5546"
       x="-0.0614" />
  </g>
  <g
     id="g130"
     transform="translate(100.0462,6.7458)">
    <path
       id="path128"
       fill="currentColor"
       d="m 0,114 c 0,12 7,22 18,26 l 37,15 v 151 c 0,12 10,22 22,22 12,0 22,-10 22,-22 V 172 l 77,29 v 152 c 0,12 10,22 22,22 12,0 22,-10 22,-22 V 219 l 16,6 c 3,1 8,2 11,2 15,0 28,-12 28,-28 v -50 c 0,-12 -7,-23 -18,-27 L 220,108 V -44 l 16,7 c 3,1 8,2 11,2 15,0 28,-13 28,-29 v -50 c 0,-12 -7,-22 -18,-26 l -37,-15 v -151 c 0,-12 -10,-22 -22,-22 -12,0 -22,10 -22,22 v 134 l -77,-29 v -152 c 0,-12 -10,-22 -22,-22 -12,0 -22,10 -22,22 v 134 l -16,-6 c -3,-1 -8,-2 -11,-2 -15,0 -28,12 -28,28 v 50 c 0,12 7,23 18,27 l 37,14 V 44 L 39,37 C 36,36 31,35 28,35 13,35 0,48 0,64 Z M 176,91 99,61 V -91 l 77,30 z"
       transform="scale(0.0029,-0.0029)" />
  </g>
  <g
     id="g134"
     transform="translate(93.9973,6.009)">
    <path
       id="path132"
       fill="currentColor"
       d="m 208,139 c 61,0 117,-33 117,-99 0,-71 -52,-119 -99,-147 -34,-20 -71,-32 -110,-32 -61,0 -116,33 -116,99 0,71 51,119 98,147 34,20 71,32 110,32 z"
       transform="scale(0.0029,-0.0029)" />
  </g>
  <g
     id="g138"
     transform="translate(98.0054,7.1142)">
    <rect
       id="rect136"
       fill="currentColor"
       ry="0.042100001"
       height="2.3301001"
       width="0.1228"
       y="-4.2914"
       x="-0.0614" />
  </g>
  <g
     id="g142"
     transform="translate(97.1103,5.2721)">
    <path
       id="path140"
       fill="currentColor"
       d="m 208,139 c 61,0 117,-33 117,-99 0,-71 -52,-119 -99,-147 -34,-20 -71,-32 -110,-32 -61,0 -116,33 -116,99 0,71 51,119 98,147 34,20 71,32 110,32 z"
       transform="scale(0.0029,-0.0029)" />
  </g>
  <g
     id="g146"
     transform="translate(96.4489,7.1142)">
    <rect
       id="rect144"
       fill="currentColor"
       ry="0.042100001"
       height="2.6984999"
       width="0.1228"
       y="-4.2914"
       x="-0.0614" />
  </g>
  <g
     id="g150"
     transform="translate(95.5538,5.6406)">
    <path
       id="path148"
       fill="currentColor"
       d="m 208,139 c 61,0 117,-33 117,-99 0,-71 -52,-119 -99,-147 -34,-20 -71,-32 -110,-32 -61,0 -116,33 -116,99 0,71 51,119 98,147 34,20 71,32 110,32 z"
       transform="scale(0.0029,-0.0029)" />
  </g>
  <g
     id="g154"
     transform="translate(94.8924,7.1142)">
    <rect
       id="rect152"
       fill="currentColor"
       ry="0.042100001"
       height="3.0669"
       width="0.1228"
       y="-4.2914"
       x="-0.0614" />
  </g>
  <g
     id="g158"
     transform="translate(109.8392,6.009)">
    <path
       id="path156"
       fill="currentColor"
       d="m 208,139 c 61,0 117,-33 117,-99 0,-71 -52,-119 -99,-147 -34,-20 -71,-32 -110,-32 -61,0 -116,33 -116,99 0,71 51,119 98,147 34,20 71,32 110,32 z"
       transform="scale(0.0029,-0.0029)" />
  </g>
  <g
     id="g162"
     transform="translate(109.1778,7.1142)">
    <rect
       id="rect160"
       fill="currentColor"
       ry="0.042100001"
       height="2.6984999"
       width="0.1228"
       y="-3.5546"
       x="-0.0614" />
  </g>
  <g
     id="g166"
     transform="translate(108.2827,6.3774)">
    <path
       id="path164"
       fill="currentColor"
       d="m 208,139 c 61,0 117,-33 117,-99 0,-71 -52,-119 -99,-147 -34,-20 -71,-32 -110,-32 -61,0 -116,33 -116,99 0,71 51,119 98,147 34,20 71,32 110,32 z"
       transform="scale(0.0029,-0.0029)" />
  </g>
  <g
     id="g170"
     transform="translate(107.6213,7.1142)">
    <rect
       id="rect168"
       fill="currentColor"
       ry="0.042100001"
       height="3.0669"
       width="0.1228"
       y="-3.5546"
       x="-0.0614" />
  </g>
  <g
     id="g174"
     transform="translate(106.7262,6.7458)">
    <path
       id="path172"
       fill="currentColor"
       d="m 208,139 c 61,0 117,-33 117,-99 0,-71 -52,-119 -99,-147 -34,-20 -71,-32 -110,-32 -61,0 -116,33 -116,99 0,71 51,119 98,147 34,20 71,32 110,32 z"
       transform="scale(0.0029,-0.0029)" />
  </g>
  <g
     id="g178"
     transform="translate(106.0648,7.1142)">
    <rect
       id="rect176"
       fill="currentColor"
       ry="0.042100001"
       height="2.6984999"
       width="0.1228"
       y="-3.5546"
       x="-0.0614" />
  </g>
  <g
     id="g182"
     transform="translate(105.1697,6.3774)">
    <path
       id="path180"
       fill="currentColor"
       d="m 208,139 c 61,0 117,-33 117,-99 0,-71 -52,-119 -99,-147 -34,-20 -71,-32 -110,-32 -61,0 -116,33 -116,99 0,71 51,119 98,147 34,20 71,32 110,32 z"
       transform="scale(0.0029,-0.0029)" />
  </g>
  <g
     id="g186"
     transform="translate(104.5083,7.1142)">
    <rect
       id="rect184"
       fill="currentColor"
       ry="0.042100001"
       height="2.3301001"
       width="0.1228"
       y="-3.5546"
       x="-0.0614" />
  </g>
  <g
     id="g190"
     transform="translate(103.6132,6.009)">
    <path
       id="path188"
       fill="currentColor"
       d="m 208,139 c 61,0 117,-33 117,-99 0,-71 -52,-119 -99,-147 -34,-20 -71,-32 -110,-32 -61,0 -116,33 -116,99 0,71 51,119 98,147 34,20 71,32 110,32 z"
       transform="scale(0.0029,-0.0029)" />
  </g>
  <g
     id="g194"
     transform="translate(80.1954,4.5353)">
    <path
       id="path192"
       fill="currentColor"
       d="m 208,139 c 61,0 117,-33 117,-99 0,-71 -52,-119 -99,-147 -34,-20 -71,-32 -110,-32 -61,0 -116,33 -116,99 0,71 51,119 98,147 34,20 71,32 110,32 z"
       transform="scale(0.0029,-0.0029)" />
  </g>
  <g
     id="g198"
     transform="translate(81.0905,7.1142)">
    <rect
       id="rect196"
       fill="currentColor"
       ry="0.042100001"
       height="2.3301001"
       width="0.1228"
       y="-5.0282998"
       x="-0.0614" />
  </g>
  <g
     id="g202"
     transform="translate(81.6519,4.9037)">
    <path
       id="path200"
       fill="currentColor"
       d="m 208,139 c 61,0 117,-33 117,-99 0,-71 -52,-119 -99,-147 -34,-20 -71,-32 -110,-32 -61,0 -116,33 -116,99 0,71 51,119 98,147 34,20 71,32 110,32 z"
       transform="scale(0.0029,-0.0029)" />
  </g>
  <g
     id="g206"
     transform="translate(82.547,7.1142)">
    <rect
       id="rect204"
       fill="currentColor"
       ry="0.042100001"
       height="2.6984999"
       width="0.1228"
       y="-5.0282998"
       x="-0.0614" />
  </g>
  <g
     id="g210"
     transform="translate(83.2084,5.2721)">
    <path
       id="path208"
       fill="currentColor"
       d="m 208,139 c 61,0 117,-33 117,-99 0,-71 -52,-119 -99,-147 -34,-20 -71,-32 -110,-32 -61,0 -116,33 -116,99 0,71 51,119 98,147 34,20 71,32 110,32 z"
       transform="scale(0.0029,-0.0029)" />
  </g>
  <g
     id="g214"
     transform="translate(84.1035,7.1142)">
    <rect
       id="rect212"
       fill="currentColor"
       ry="0.042100001"
       height="3.0669"
       width="0.1228"
       y="-5.0282998"
       x="-0.0614" />
  </g>
  <g
     id="g218"
     transform="translate(78.684,7.1142)">
    <rect
       id="rect216"
       fill="currentColor"
       ry="0.042100001"
       height="3.0669"
       width="0.1228"
       y="-5.0282998"
       x="-0.0614" />
  </g>
  <g
     id="g222"
     transform="translate(77.7889,5.2721)">
    <path
       id="path220"
       fill="currentColor"
       d="m 208,139 c 61,0 117,-33 117,-99 0,-71 -52,-119 -99,-147 -34,-20 -71,-32 -110,-32 -61,0 -116,33 -116,99 0,71 51,119 98,147 34,20 71,32 110,32 z"
       transform="scale(0.0029,-0.0029)" />
  </g>
  <g
     id="g226"
     transform="translate(76.7775,7.1142)">
    <rect
       id="rect224"
       fill="currentColor"
       ry="0.042100001"
       height="2.3301001"
       width="0.1228"
       y="-5.7651"
       x="-0.0614" />
  </g>
  <g
     id="g230"
     transform="translate(75.8824,3.7985)">
    <path
       id="path228"
       fill="currentColor"
       d="m 208,139 c 61,0 117,-33 117,-99 0,-71 -52,-119 -99,-147 -34,-20 -71,-32 -110,-32 -61,0 -116,33 -116,99 0,71 51,119 98,147 34,20 71,32 110,32 z"
       transform="scale(0.0029,-0.0029)" />
  </g>
  <g
     id="g234"
     transform="translate(75.2211,7.1142)">
    <rect
       id="rect232"
       fill="currentColor"
       ry="0.042100001"
       height="2.6984999"
       width="0.1228"
       y="-5.7651"
       x="-0.0614" />
  </g>
  <g
     id="g238"
     transform="translate(74.3259,4.1669)">
    <path
       id="path236"
       fill="currentColor"
       d="m 208,139 c 61,0 117,-33 117,-99 0,-71 -52,-119 -99,-147 -34,-20 -71,-32 -110,-32 -61,0 -116,33 -116,99 0,71 51,119 98,147 34,20 71,32 110,32 z"
       transform="scale(0.0029,-0.0029)" />
  </g>
  <g
     id="g242"
     transform="translate(124.2976,7.1142)">
    <path
       id="path240"
       d="m 0.8951,-2.6262 c 1.6706,-1.245 10.2853,-1.245 11.9559,0 v 0 c -1.6706,-1.1317 -10.2853,-1.1317 -11.9559,0 z"
       fill="currentColor"
       stroke="currentColor"
       stroke-linecap="round"
       stroke-linejoin="round"
       stroke-width="0.0755" />
  </g>
  <g
     id="g246"
     transform="translate(93.3359,7.1142)">
    <rect
       id="rect244"
       fill="currentColor"
       ry="0.042100001"
       height="2.6984999"
       width="0.1228"
       y="-4.2914"
       x="-0.0614" />
  </g>
  <g
     id="g250"
     transform="translate(92.4408,5.6406)">
    <path
       id="path248"
       fill="currentColor"
       d="m 208,139 c 61,0 117,-33 117,-99 0,-71 -52,-119 -99,-147 -34,-20 -71,-32 -110,-32 -61,0 -116,33 -116,99 0,71 51,119 98,147 34,20 71,32 110,32 z"
       transform="scale(0.0029,-0.0029)" />
  </g>
  <g
     id="g254"
     transform="translate(91.7794,7.1142)">
    <rect
       id="rect252"
       fill="currentColor"
       ry="0.042100001"
       height="2.3301001"
       width="0.1228"
       y="-4.2914"
       x="-0.0614" />
  </g>
  <g
     id="g258"
     transform="translate(90.8843,5.2721)">
    <path
       id="path256"
       fill="currentColor"
       d="m 208,139 c 61,0 117,-33 117,-99 0,-71 -52,-119 -99,-147 -34,-20 -71,-32 -110,-32 -61,0 -116,33 -116,99 0,71 51,119 98,147 34,20 71,32 110,32 z"
       transform="scale(0.0029,-0.0029)" />
  </g>
  <g
     id="g262"
     transform="translate(89.373,7.1142)">
    <rect
       id="rect260"
       fill="currentColor"
       ry="0.042100001"
       height="3.0669"
       width="0.1228"
       y="-4.2914"
       x="-0.0614" />
  </g>
  <g
     id="g266"
     transform="translate(88.4779,6.009)">
    <path
       id="path264"
       fill="currentColor"
       d="m 208,139 c 61,0 117,-33 117,-99 0,-71 -52,-119 -99,-147 -34,-20 -71,-32 -110,-32 -61,0 -116,33 -116,99 0,71 51,119 98,147 34,20 71,32 110,32 z"
       transform="scale(0.0029,-0.0029)" />
  </g>
  <g
     id="g270"
     transform="translate(87.4665,7.1142)">
    <rect
       id="rect268"
       fill="currentColor"
       ry="0.042100001"
       height="2.3301001"
       width="0.1228"
       y="-5.0282998"
       x="-0.0614" />
  </g>
  <g
     id="g274"
     transform="translate(86.5714,4.5353)">
    <path
       id="path272"
       fill="currentColor"
       d="m 208,139 c 61,0 117,-33 117,-99 0,-71 -52,-119 -99,-147 -34,-20 -71,-32 -110,-32 -61,0 -116,33 -116,99 0,71 51,119 98,147 34,20 71,32 110,32 z"
       transform="scale(0.0029,-0.0029)" />
  </g>
  <g
     id="g278"
     transform="translate(85.66,7.1142)">
    <rect
       id="rect276"
       fill="currentColor"
       ry="0.042100001"
       height="2.6984999"
       width="0.1228"
       y="-5.0282998"
       x="-0.0614" />
  </g>
  <g
     id="g282"
     transform="translate(84.7649,4.9037)">
    <path
       id="path280"
       fill="currentColor"
       d="m 208,139 c 61,0 117,-33 117,-99 0,-71 -52,-119 -99,-147 -34,-20 -71,-32 -110,-32 -61,0 -116,33 -116,99 0,71 51,119 98,147 34,20 71,32 110,32 z"
       transform="scale(0.0029,-0.0029)" />
  </g>
  <g
     id="g286"
     transform="translate(134.797,7.8511)">
    <path
       id="path284"
       fill="currentColor"
       d="m 208,139 c 61,0 117,-33 117,-99 0,-71 -52,-119 -99,-147 -34,-20 -71,-32 -110,-32 -61,0 -116,33 -116,99 0,71 51,119 98,147 34,20 71,32 110,32 z"
       transform="scale(0.0029,-0.0029)" />
  </g>
  <g
     id="g290"
     transform="translate(133.2405,8.2195)">
    <path
       id="path288"
       fill="currentColor"
       d="m 208,139 c 61,0 117,-33 117,-99 0,-71 -52,-119 -99,-147 -34,-20 -71,-32 -110,-32 -61,0 -116,33 -116,99 0,71 51,119 98,147 34,20 71,32 110,32 z"
       transform="scale(0.0029,-0.0029)" />
  </g>
  <g
     id="g294"
     transform="translate(134.1356,7.1142)">
    <rect
       id="rect292"
       fill="currentColor"
       ry="0.042100001"
       height="3.0669"
       width="0.1228"
       y="-2.0809"
       x="-0.0614" />
  </g>
  <g
     id="g298"
     transform="translate(135.6921,7.1142)">
    <rect
       id="rect296"
       fill="currentColor"
       ry="0.042100001"
       height="2.6984999"
       width="0.1228"
       y="-2.0809"
       x="-0.0614" />
  </g>
  <g
     id="g302"
     transform="translate(136.2535,8.5879)">
    <path
       id="path300"
       fill="currentColor"
       d="m 208,139 c 61,0 117,-33 117,-99 0,-71 -52,-119 -99,-147 -34,-20 -71,-32 -110,-32 -61,0 -116,33 -116,99 0,71 51,119 98,147 34,20 71,32 110,32 z"
       transform="scale(0.0029,-0.0029)" />
  </g>
  <g
     id="g306"
     transform="translate(137.1486,7.1142)">
    <rect
       id="rect304"
       fill="currentColor"
       ry="0.042100001"
       height="3.4354"
       width="0.1228"
       y="-2.0809"
       x="-0.0614" />
  </g>
  <g
     id="g310"
     transform="translate(132.5791,7.1142)">
    <rect
       id="rect308"
       fill="currentColor"
       ry="0.042100001"
       height="3.4354"
       width="0.1228"
       y="-2.0809"
       x="-0.0614" />
  </g>
  <g
     id="g314"
     transform="translate(131.684,8.5879)">
    <path
       id="path312"
       fill="currentColor"
       d="m 208,139 c 61,0 117,-33 117,-99 0,-71 -52,-119 -99,-147 -34,-20 -71,-32 -110,-32 -61,0 -116,33 -116,99 0,71 51,119 98,147 34,20 71,32 110,32 z"
       transform="scale(0.0029,-0.0029)" />
  </g>
  <g
     id="g318"
     transform="translate(131.0227,7.1142)">
    <rect
       id="rect316"
       fill="currentColor"
       ry="0.042100001"
       height="3.8038001"
       width="0.1228"
       y="-2.0809"
       x="-0.0614" />
  </g>
  <g
     id="g322"
     transform="translate(130.1276,8.9564)">
    <path
       id="path320"
       fill="currentColor"
       d="m 208,139 c 61,0 117,-33 117,-99 0,-71 -52,-119 -99,-147 -34,-20 -71,-32 -110,-32 -61,0 -116,33 -116,99 0,71 51,119 98,147 34,20 71,32 110,32 z"
       transform="scale(0.0029,-0.0029)" />
  </g>
  <g
     id="g326"
     transform="translate(127.4105,9.3248)">
    <path
       id="path324"
       fill="currentColor"
       d="m 0,114 c 0,12 7,22 18,26 l 37,15 v 151 c 0,12 10,22 22,22 12,0 22,-10 22,-22 V 172 l 77,29 v 152 c 0,12 10,22 22,22 12,0 22,-10 22,-22 V 219 l 16,6 c 3,1 8,2 11,2 15,0 28,-12 28,-28 v -50 c 0,-12 -7,-23 -18,-27 L 220,108 V -44 l 16,7 c 3,1 8,2 11,2 15,0 28,-13 28,-29 v -50 c 0,-12 -7,-22 -18,-26 l -37,-15 v -151 c 0,-12 -10,-22 -22,-22 -12,0 -22,10 -22,22 v 134 l -77,-29 v -152 c 0,-12 -10,-22 -22,-22 -12,0 -22,10 -22,22 v 134 l -16,-6 c -3,-1 -8,-2 -11,-2 -15,0 -28,12 -28,28 v 50 c 0,12 7,23 18,27 l 37,14 V 44 L 39,37 C 36,36 31,35 28,35 13,35 0,48 0,64 Z M 176,91 99,61 V -91 l 77,30 z"
       transform="scale(0.0029,-0.0029)" />
  </g>
  <g
     id="g330"
     transform="translate(28.2267,7.1142)">
    <path
       id="path328"
       d="m 0.8954,-5.2222 c 1.1955,-1.0203 5.0325,-1.0165 6.226,0.0061 v 0 C 5.9278,-6.1254 2.0908,-6.1292 0.8954,-5.2222 Z"
       fill="currentColor"
       stroke="currentColor"
       stroke-linecap="round"
       stroke-linejoin="round"
       stroke-width="0.0755" />
  </g>
  <g
     id="g334"
     transform="translate(125.1313,5.0333)">
    <polygon
       id="polygon332"
       points="0.0421,0.1347 0.0421,-0.1347 12.0366,-0.1347 12.0366,0.1347 "
       stroke="currentColor"
       fill="currentColor"
       stroke-width="0.0842"
       stroke-linecap="round"
       stroke-linejoin="round" />
  </g>
  <g
     id="g338"
     transform="translate(125.1313,5.6406)">
    <polygon
       id="polygon336"
       points="0.0421,0.1347 0.0421,-0.1347 12.0366,-0.1347 12.0366,0.1347 "
       stroke="currentColor"
       fill="currentColor"
       stroke-width="0.0842"
       stroke-linecap="round"
       stroke-linejoin="round" />
  </g>
  <g
     id="g342"
     transform="translate(125.1313,6.2478)">
    <polygon
       id="polygon340"
       points="0.0421,0.1347 0.0421,-0.1347 12.0366,-0.1347 12.0366,0.1347 "
       stroke="currentColor"
       fill="currentColor"
       stroke-width="0.0842"
       stroke-linecap="round"
       stroke-linejoin="round" />
  </g>
  <g
     id="g346"
     transform="translate(115.1586,7.1142)">
    <path
       id="path344"
       d="m 0.8951,-3.1242 c 1.3463,-1.1041 6.3362,-1.1041 7.6824,0 v 0 c -1.3462,-0.9907 -6.3361,-0.9907 -7.6824,0 z"
       fill="currentColor"
       stroke="currentColor"
       stroke-linecap="round"
       stroke-linejoin="round"
       stroke-width="0.0755" />
  </g>
  <g
     id="g350"
     transform="translate(113.5859,4.5353)">
    <polygon
       id="polygon348"
       points="0.0421,0.1347 0.0421,-0.1347 10.1696,-0.1347 10.1696,0.1347 "
       stroke="currentColor"
       fill="currentColor"
       stroke-width="0.0842"
       stroke-linecap="round"
       stroke-linejoin="round" />
  </g>
  <g
     id="g354"
     transform="translate(113.5859,5.1425)">
    <polygon
       id="polygon352"
       points="0.0421,0.1347 0.0421,-0.1347 10.1696,-0.1347 10.1696,0.1347 "
       stroke="currentColor"
       fill="currentColor"
       stroke-width="0.0842"
       stroke-linecap="round"
       stroke-linejoin="round" />
  </g>
  <g
     id="g358"
     transform="translate(115.9924,5.7497)">
    <polygon
       id="polygon356"
       points="0.0421,0.1347 0.0421,-0.1347 7.7631,-0.1347 7.7631,0.1347 "
       stroke="currentColor"
       fill="currentColor"
       stroke-width="0.0842"
       stroke-linecap="round"
       stroke-linejoin="round" />
  </g>
  <g
     id="g362"
     transform="translate(103.6132,7.1142)">
    <path
       id="path360"
       d="m 0.8951,-4.0998 c 1.3463,-1.1041 6.3362,-1.1041 7.6824,0 v 0 c -1.3462,-0.9908 -6.3361,-0.9908 -7.6824,0 z"
       fill="currentColor"
       stroke="currentColor"
       stroke-linecap="round"
       stroke-linejoin="round"
       stroke-width="0.0755" />
  </g>
  <g
     id="g366"
     transform="translate(102.0405,3.5597)">
    <polygon
       id="polygon364"
       points="0.0421,0.1347 0.0421,-0.1347 10.1696,-0.1347 10.1696,0.1347 "
       stroke="currentColor"
       fill="currentColor"
       stroke-width="0.0842"
       stroke-linecap="round"
       stroke-linejoin="round" />
  </g>
  <g
     id="g370"
     transform="translate(102.0405,4.1669)">
    <polygon
       id="polygon368"
       points="0.0421,0.1347 0.0421,-0.1347 10.1696,-0.1347 10.1696,0.1347 "
       stroke="currentColor"
       fill="currentColor"
       stroke-width="0.0842"
       stroke-linecap="round"
       stroke-linejoin="round" />
  </g>
  <g
     id="g374"
     transform="translate(104.4469,4.7741)">
    <polygon
       id="polygon372"
       points="0.0421,0.1347 0.0421,-0.1347 7.7631,-0.1347 7.7631,0.1347 "
       stroke="currentColor"
       fill="currentColor"
       stroke-width="0.0842"
       stroke-linecap="round"
       stroke-linejoin="round" />
  </g>
  <g
     id="g378"
     transform="translate(90.8843,7.1142)">
    <path
       id="path376"
       d="m 0.8951,-4.8367 c 1.1945,-1.0214 5.0315,-1.0214 6.226,0 v 0 c -1.1945,-0.9081 -5.0315,-0.9081 -6.226,0 z"
       fill="currentColor"
       stroke="currentColor"
       stroke-linecap="round"
       stroke-linejoin="round"
       stroke-width="0.0755" />
  </g>
  <g
     id="g382"
     transform="translate(89.3116,2.8228)">
    <polygon
       id="polygon380"
       points="0.0421,0.1347 0.0421,-0.1347 8.7131,-0.1347 8.7131,0.1347 "
       stroke="currentColor"
       fill="currentColor"
       stroke-width="0.0842"
       stroke-linecap="round"
       stroke-linejoin="round" />
  </g>
  <g
     id="g386"
     transform="translate(89.3116,3.43)">
    <polygon
       id="polygon384"
       points="0.0421,0.1347 0.0421,-0.1347 8.7131,-0.1347 8.7131,0.1347 "
       stroke="currentColor"
       fill="currentColor"
       stroke-width="0.0842"
       stroke-linecap="round"
       stroke-linejoin="round" />
  </g>
  <g
     id="g390"
     transform="translate(91.7181,4.0373)">
    <polygon
       id="polygon388"
       points="0.0421,0.1347 0.0421,-0.1347 4.7501,-0.1347 4.7501,0.1347 "
       stroke="currentColor"
       fill="currentColor"
       stroke-width="0.0842"
       stroke-linecap="round"
       stroke-linejoin="round" />
  </g>
  <g
     id="g394"
     transform="translate(80.1954,7.1142)">
    <path
       id="path392"
       d="m 0.8951,-5.5735 c 1.2114,-1.0313 5.1646,-1.0313 6.376,0 v 0 c -1.2114,-0.918 -5.1646,-0.918 -6.376,0 z"
       fill="currentColor"
       stroke="currentColor"
       stroke-linecap="round"
       stroke-linejoin="round"
       stroke-width="0.0755" />
  </g>
  <g
     id="g398"
     transform="translate(78.6226,2.086)">
    <polygon
       id="polygon396"
       points="0.0421,0.1347 0.0421,-0.1347 8.8631,-0.1347 8.8631,0.1347 "
       stroke="currentColor"
       fill="currentColor"
       stroke-width="0.0842"
       stroke-linecap="round"
       stroke-linejoin="round" />
  </g>
  <g
     id="g402"
     transform="translate(78.6226,2.6932)">
    <polygon
       id="polygon400"
       points="0.0421,0.1347 0.0421,-0.1347 8.8631,-0.1347 8.8631,0.1347 "
       stroke="currentColor"
       fill="currentColor"
       stroke-width="0.0842"
       stroke-linecap="round"
       stroke-linejoin="round" />
  </g>
  <g
     id="g406"
     transform="translate(81.0291,3.3004)">
    <polygon
       id="polygon404"
       points="0.0421,0.1347 0.0421,-0.1347 4.6501,-0.1347 4.6501,0.1347 "
       stroke="currentColor"
       fill="currentColor"
       stroke-width="0.0842"
       stroke-linecap="round"
       stroke-linejoin="round" />
  </g>
  <g
     id="g410"
     transform="translate(69.6565,7.1142)">
    <path
       id="path408"
       d="m 0.8951,-6.3104 c 1.1945,-1.0214 5.0315,-1.0214 6.226,0 v 0 c -1.1945,-0.9081 -5.0315,-0.9081 -6.226,0 z"
       fill="currentColor"
       stroke="currentColor"
       stroke-linecap="round"
       stroke-linejoin="round"
       stroke-width="0.0755" />
  </g>
  <g
     id="g414"
     transform="translate(68.0837,1.3491)">
    <polygon
       id="polygon412"
       points="0.0421,0.1347 0.0421,-0.1347 8.7131,-0.1347 8.7131,0.1347 "
       stroke="currentColor"
       fill="currentColor"
       stroke-width="0.0842"
       stroke-linecap="round"
       stroke-linejoin="round" />
  </g>
  <g
     id="g418"
     transform="translate(68.0837,1.9564)">
    <polygon
       id="polygon416"
       points="0.0421,0.1347 0.0421,-0.1347 8.7131,-0.1347 8.7131,0.1347 "
       stroke="currentColor"
       fill="currentColor"
       stroke-width="0.0842"
       stroke-linecap="round"
       stroke-linejoin="round" />
  </g>
  <g
     id="g422"
     transform="translate(70.4902,2.5636)">
    <polygon
       id="polygon420"
       points="0.0421,0.1347 0.0421,-0.1347 4.7501,-0.1347 4.7501,0.1347 "
       stroke="currentColor"
       fill="currentColor"
       stroke-width="0.0842"
       stroke-linecap="round"
       stroke-linejoin="round" />
  </g>
  <g
     id="g426"
     transform="translate(57.5497,7.1142)">
    <path
       id="path424"
       d="m 0.9559,-4.7137 c 1.3817,-0.78 5.2367,-0.0313 6.2259,1.2091 v 0 C 6.171,-4.6338 2.316,-5.3825 0.9559,-4.7137 Z"
       fill="currentColor"
       stroke="currentColor"
       stroke-linecap="round"
       stroke-linejoin="round"
       stroke-width="0.0755" />
  </g>
  <g
     id="g430"
     transform="translate(56.4769,2.5636)">
    <polygon
       id="polygon428"
       points="0.0421,0.1347 0.0421,-0.1347 8.2131,1.4686 8.2131,1.738 "
       stroke="currentColor"
       fill="currentColor"
       stroke-width="0.0842"
       stroke-linecap="round"
       stroke-linejoin="round" />
  </g>
  <g
     id="g434"
     transform="translate(56.4769,3.1708)">
    <polygon
       id="polygon432"
       points="0.0421,0.1347 0.0421,-0.1347 8.2131,1.4686 8.2131,1.738 "
       stroke="currentColor"
       fill="currentColor"
       stroke-width="0.0842"
       stroke-linecap="round"
       stroke-linejoin="round" />
  </g>
  <g
     id="g438"
     transform="translate(58.3834,4.1483)">
    <polygon
       id="polygon436"
       points="0.0421,0.1347 0.0421,-0.1347 4.7501,0.796 4.7501,1.0655 "
       stroke="currentColor"
       fill="currentColor"
       stroke-width="0.0842"
       stroke-linecap="round"
       stroke-linejoin="round" />
  </g>
  <g
     id="g442"
     transform="translate(47.601,4.1669)">
    <polygon
       id="polygon440"
       points="0.0421,0.1347 0.0421,-0.1347 6.8001,-1.0012 6.8001,-0.7317 "
       stroke="currentColor"
       fill="currentColor"
       stroke-width="0.0842"
       stroke-linecap="round"
       stroke-linejoin="round" />
  </g>
  <g
     id="g446"
     transform="translate(47.601,4.7741)">
    <polygon
       id="polygon444"
       points="0.0421,0.1347 0.0421,-0.1347 6.8001,-1.0012 6.8001,-0.7317 "
       stroke="currentColor"
       fill="currentColor"
       stroke-width="0.0842"
       stroke-linecap="round"
       stroke-linejoin="round" />
  </g>
  <g
     id="g450"
     transform="translate(38.725,5.6406)">
    <polygon
       id="polygon448"
       points="0.0421,0.1347 0.0421,-0.1347 6.8001,-1.24 6.8001,-0.9705 "
       stroke="currentColor"
       fill="currentColor"
       stroke-width="0.0842"
       stroke-linecap="round"
       stroke-linejoin="round" />
  </g>
  <g
     id="g454"
     transform="translate(38.725,6.2478)">
    <polygon
       id="polygon452"
       points="0.0421,0.1347 0.0421,-0.1347 6.8001,-1.24 6.8001,-0.9705 "
       stroke="currentColor"
       fill="currentColor"
       stroke-width="0.0842"
       stroke-linecap="round"
       stroke-linejoin="round" />
  </g>
  <g
     id="g458"
     transform="translate(129.4662,7.1142)">
    <rect
       id="rect456"
       fill="currentColor"
       ry="0.042100001"
       height="4.1722002"
       width="0.1228"
       y="-2.0809"
       x="-0.0614" />
  </g>
  <g
     id="g462"
     transform="translate(27.1539,2.086)">
    <polygon
       id="polygon460"
       points="0.0421,0.1347 0.0421,-0.1347 8.2131,1.3389 8.2131,1.6084 "
       stroke="currentColor"
       fill="currentColor"
       stroke-width="0.0842"
       stroke-linecap="round"
       stroke-linejoin="round" />
  </g>
  <g
     id="g466"
     transform="translate(27.1539,2.6932)">
    <polygon
       id="polygon464"
       points="0.0421,0.1347 0.0421,-0.1347 8.2131,1.3389 8.2131,1.6084 "
       stroke="currentColor"
       fill="currentColor"
       stroke-width="0.0842"
       stroke-linecap="round"
       stroke-linejoin="round" />
  </g>
  <g
     id="g470"
     transform="translate(29.0604,3.6408)">
    <polygon
       id="polygon468"
       points="0.0421,0.1347 0.0421,-0.1347 4.7501,0.7208 4.7501,0.9902 "
       stroke="currentColor"
       fill="currentColor"
       stroke-width="0.0842"
       stroke-linecap="round"
       stroke-linejoin="round" />
  </g>
  <g
     id="g474"
     transform="translate(18.028,3.7985)">
    <polygon
       id="polygon472"
       points="0.0421,0.1347 0.0421,-0.1347 6.8001,-0.8716 6.8001,-0.6021 "
       stroke="currentColor"
       fill="currentColor"
       stroke-width="0.0842"
       stroke-linecap="round"
       stroke-linejoin="round" />
  </g>
  <g
     id="g478"
     transform="translate(18.028,4.4057)">
    <polygon
       id="polygon476"
       points="0.0421,0.1347 0.0421,-0.1347 6.8001,-0.8716 6.8001,-0.6021 "
       stroke="currentColor"
       fill="currentColor"
       stroke-width="0.0842"
       stroke-linecap="round"
       stroke-linejoin="round" />
  </g>
  <g
     id="g482"
     transform="translate(8.3357,5.0333)">
    <polygon
       id="polygon480"
       points="0.0421,0.1347 0.0421,-0.1347 7.6165,-1.1308 7.6165,-0.8614 "
       stroke="currentColor"
       fill="currentColor"
       stroke-width="0.0842"
       stroke-linecap="round"
       stroke-linejoin="round" />
  </g>
  <g
     id="g486"
     transform="translate(8.3357,5.6406)">
    <polygon
       id="polygon484"
       points="0.0421,0.1347 0.0421,-0.1347 7.6165,-1.1308 7.6165,-0.8614 "
       stroke="currentColor"
       fill="currentColor"
       stroke-width="0.0842"
       stroke-linecap="round"
       stroke-linejoin="round" />
  </g>
  <g
     id="g490"
     transform="translate(116.0537,7.1142)">
    <rect
       id="rect488"
       fill="currentColor"
       ry="0.042100001"
       height="2.4597001"
       width="0.1228"
       y="-2.5789001"
       x="-0.0614" />
  </g>
  <g
     id="g494"
     transform="translate(116.7151,7.4827)">
    <path
       id="path492"
       fill="currentColor"
       d="m 208,139 c 61,0 117,-33 117,-99 0,-71 -52,-119 -99,-147 -34,-20 -71,-32 -110,-32 -61,0 -116,33 -116,99 0,71 51,119 98,147 34,20 71,32 110,32 z"
       transform="scale(0.0029,-0.0029)" />
  </g>
  <g
     id="g498"
     transform="translate(117.6102,7.1142)">
    <rect
       id="rect496"
       fill="currentColor"
       ry="0.042100001"
       height="2.8281"
       width="0.1228"
       y="-2.5789001"
       x="-0.0614" />
  </g>
  <g
     id="g502"
     transform="translate(115.1586,7.1142)">
    <path
       id="path500"
       fill="currentColor"
       d="m 208,139 c 61,0 117,-33 117,-99 0,-71 -52,-119 -99,-147 -34,-20 -71,-32 -110,-32 -61,0 -116,33 -116,99 0,71 51,119 98,147 34,20 71,32 110,32 z"
       transform="scale(0.0029,-0.0029)" />
  </g>
  <g
     id="g506"
     transform="translate(118.2716,7.8511)">
    <path
       id="path504"
       fill="currentColor"
       d="m 208,139 c 61,0 117,-33 117,-99 0,-71 -52,-119 -99,-147 -34,-20 -71,-32 -110,-32 -61,0 -116,33 -116,99 0,71 51,119 98,147 34,20 71,32 110,32 z"
       transform="scale(0.0029,-0.0029)" />
  </g>
  <g
     id="g510"
     transform="translate(119.1667,7.1142)">
    <rect
       id="rect508"
       fill="currentColor"
       ry="0.042100001"
       height="3.1966"
       width="0.1228"
       y="-2.5789001"
       x="-0.0614" />
  </g>
  <g
     id="g514"
     transform="translate(113.6473,7.1142)">
    <rect
       id="rect512"
       fill="currentColor"
       ry="0.042100001"
       height="3.1966"
       width="0.1228"
       y="-2.5789001"
       x="-0.0614" />
  </g>
  <g
     id="g518"
     transform="translate(112.7521,7.8511)">
    <path
       id="path516"
       fill="currentColor"
       d="m 208,139 c 61,0 117,-33 117,-99 0,-71 -52,-119 -99,-147 -34,-20 -71,-32 -110,-32 -61,0 -116,33 -116,99 0,71 51,119 98,147 34,20 71,32 110,32 z"
       transform="scale(0.0029,-0.0029)" />
  </g>
  <g
     id="g522"
     transform="translate(112.1908,7.1142)">
    <rect
       id="rect520"
       fill="currentColor"
       ry="0.042100001"
       height="3.0669"
       width="0.1228"
       y="-3.5546"
       x="-0.0614" />
  </g>
  <g
     id="g526"
     transform="translate(111.2957,6.7458)">
    <path
       id="path524"
       fill="currentColor"
       d="m 208,139 c 61,0 117,-33 117,-99 0,-71 -52,-119 -99,-147 -34,-20 -71,-32 -110,-32 -61,0 -116,33 -116,99 0,71 51,119 98,147 34,20 71,32 110,32 z"
       transform="scale(0.0029,-0.0029)" />
  </g>
  <g
     id="g530"
     transform="translate(128.5711,9.3248)">
    <path
       id="path528"
       fill="currentColor"
       d="m 208,139 c 61,0 117,-33 117,-99 0,-71 -52,-119 -99,-147 -34,-20 -71,-32 -110,-32 -61,0 -116,33 -116,99 0,71 51,119 98,147 34,20 71,32 110,32 z"
       transform="scale(0.0029,-0.0029)" />
  </g>
  <g
     id="g534"
     transform="translate(126.7492,7.1142)">
    <rect
       id="rect532"
       fill="currentColor"
       ry="0.042100001"
       height="3.8038001"
       width="0.1228"
       y="-2.0809"
       x="-0.0614" />
  </g>
  <g
     id="g538"
     transform="translate(125.854,8.9564)">
    <path
       id="path536"
       fill="currentColor"
       d="m 208,139 c 61,0 117,-33 117,-99 0,-71 -52,-119 -99,-147 -34,-20 -71,-32 -110,-32 -61,0 -116,33 -116,99 0,71 51,119 98,147 34,20 71,32 110,32 z"
       transform="scale(0.0029,-0.0029)" />
  </g>
  <g
     id="g542"
     transform="translate(125.1927,7.1142)">
    <rect
       id="rect540"
       fill="currentColor"
       ry="0.042100001"
       height="3.4354"
       width="0.1228"
       y="-2.0809"
       x="-0.0614" />
  </g>
  <g
     id="g546"
     transform="translate(124.2976,8.5879)">
    <path
       id="path544"
       fill="currentColor"
       d="m 208,139 c 61,0 117,-33 117,-99 0,-71 -52,-119 -99,-147 -34,-20 -71,-32 -110,-32 -61,0 -116,33 -116,99 0,71 51,119 98,147 34,20 71,32 110,32 z"
       transform="scale(0.0029,-0.0029)" />
  </g>
  <g
     id="g550"
     transform="translate(123.7362,7.1142)">
    <rect
       id="rect548"
       fill="currentColor"
       ry="0.042100001"
       height="3.1966"
       width="0.1228"
       y="-2.5789001"
       x="-0.0614" />
  </g>
  <g
     id="g554"
     transform="translate(122.8411,7.8511)">
    <path
       id="path552"
       fill="currentColor"
       d="m 208,139 c 61,0 117,-33 117,-99 0,-71 -52,-119 -99,-147 -34,-20 -71,-32 -110,-32 -61,0 -116,33 -116,99 0,71 51,119 98,147 34,20 71,32 110,32 z"
       transform="scale(0.0029,-0.0029)" />
  </g>
  <g
     id="g558"
     transform="translate(122.2797,7.1142)">
    <rect
       id="rect556"
       fill="currentColor"
       ry="0.042100001"
       height="2.4597001"
       width="0.1228"
       y="-2.5789001"
       x="-0.0614" />
  </g>
  <g
     id="g562"
     transform="translate(121.3846,7.1142)">
    <path
       id="path560"
       fill="currentColor"
       d="m 208,139 c 61,0 117,-33 117,-99 0,-71 -52,-119 -99,-147 -34,-20 -71,-32 -110,-32 -61,0 -116,33 -116,99 0,71 51,119 98,147 34,20 71,32 110,32 z"
       transform="scale(0.0029,-0.0029)" />
  </g>
  <g
     id="g566"
     transform="translate(120.7232,7.1142)">
    <rect
       id="rect564"
       fill="currentColor"
       ry="0.042100001"
       height="2.8281"
       width="0.1228"
       y="-2.5789001"
       x="-0.0614" />
  </g>
  <g
     id="g570"
     transform="translate(119.8281,7.4827)">
    <path
       id="path568"
       fill="currentColor"
       d="m 208,139 c 61,0 117,-33 117,-99 0,-71 -52,-119 -99,-147 -34,-20 -71,-32 -110,-32 -61,0 -116,33 -116,99 0,71 51,119 98,147 34,20 71,32 110,32 z"
       transform="scale(0.0029,-0.0029)" />
  </g>
  <g
     id="g574"
     transform="translate(31.3397,8.5879)">
    <path
       id="path572"
       fill="currentColor"
       d="m 208,139 c 61,0 117,-33 117,-99 0,-71 -52,-119 -99,-147 -34,-20 -71,-32 -110,-32 -61,0 -116,33 -116,99 0,71 51,119 98,147 34,20 71,32 110,32 z"
       transform="scale(0.0029,-0.0029)" />
  </g>
  <g
     id="g578"
     transform="translate(32.2348,7.1142)">
    <rect
       id="rect576"
       fill="currentColor"
       ry="0.042100001"
       height="5.4756999"
       width="0.1228"
       y="-4.1213002"
       x="-0.0614" />
  </g>
  <g
     id="g582"
     transform="translate(32.8962,8.2195)">
    <path
       id="path580"
       fill="currentColor"
       d="m 208,139 c 61,0 117,-33 117,-99 0,-71 -52,-119 -99,-147 -34,-20 -71,-32 -110,-32 -61,0 -116,33 -116,99 0,71 51,119 98,147 34,20 71,32 110,32 z"
       transform="scale(0.0029,-0.0029)" />
  </g>
  <g
     id="g586"
     transform="translate(33.7913,7.1142)">
    <rect
       id="rect584"
       fill="currentColor"
       ry="0.042100001"
       height="4.8294001"
       width="0.1228"
       y="-3.8434"
       x="-0.0614" />
  </g>
  <g
     id="g590"
     transform="translate(34.4527,7.8511)">
    <path
       id="path588"
       fill="currentColor"
       d="m 208,139 c 61,0 117,-33 117,-99 0,-71 -52,-119 -99,-147 -34,-20 -71,-32 -110,-32 -61,0 -116,33 -116,99 0,71 51,119 98,147 34,20 71,32 110,32 z"
       transform="scale(0.0029,-0.0029)" />
  </g>
  <g
     id="g594"
     transform="translate(35.3478,7.1142)">
    <rect
       id="rect592"
       fill="currentColor"
       ry="0.042100001"
       height="4.1831999"
       width="0.1228"
       y="-3.5655"
       x="-0.0614" />
  </g>
  <g
     id="g598"
     transform="translate(30.6783,7.1142)">
    <rect
       id="rect596"
       fill="currentColor"
       ry="0.042100001"
       height="5.3852"
       width="0.1228"
       y="-4.3990998"
       x="-0.0614" />
  </g>
  <g
     id="g602"
     transform="translate(29.7832,8.2195)">
    <path
       id="path600"
       fill="currentColor"
       d="m 208,139 c 61,0 117,-33 117,-99 0,-71 -52,-119 -99,-147 -34,-20 -71,-32 -110,-32 -61,0 -116,33 -116,99 0,71 51,119 98,147 34,20 71,32 110,32 z"
       transform="scale(0.0029,-0.0029)" />
  </g>
  <g
     id="g606"
     transform="translate(29.1218,7.1142)">
    <rect
       id="rect604"
       fill="currentColor"
       ry="0.042100001"
       height="5.2946"
       width="0.1228"
       y="-4.677"
       x="-0.0614" />
  </g>
  <g
     id="g610"
     transform="translate(28.2267,7.8511)">
    <path
       id="path608"
       fill="currentColor"
       d="m 208,139 c 61,0 117,-33 117,-99 0,-71 -52,-119 -99,-147 -34,-20 -71,-32 -110,-32 -61,0 -116,33 -116,99 0,71 51,119 98,147 34,20 71,32 110,32 z"
       transform="scale(0.0029,-0.0029)" />
  </g>
  <g
     id="g614"
     transform="translate(27.2153,7.1142)">
    <rect
       id="rect612"
       fill="currentColor"
       ry="0.042100001"
       height="2.3190999"
       width="0.1228"
       y="-5.0173001"
       x="-0.0614" />
  </g>
  <g
     id="g618"
     transform="translate(26.3202,4.5353)">
    <path
       id="path616"
       fill="currentColor"
       d="m 208,139 c 61,0 117,-33 117,-99 0,-71 -52,-119 -99,-147 -34,-20 -71,-32 -110,-32 -61,0 -116,33 -116,99 0,71 51,119 98,147 34,20 71,32 110,32 z"
       transform="scale(0.0029,-0.0029)" />
  </g>
  <g
     id="g622"
     transform="translate(43.3494,7.1142)">
    <rect
       id="rect620"
       fill="currentColor"
       ry="0.042100001"
       height="2.4698999"
       width="0.1228"
       y="-2.2207"
       x="-0.0614" />
  </g>
  <g
     id="g626"
     transform="translate(42.4543,7.4827)">
    <path
       id="path624"
       fill="currentColor"
       d="m 208,139 c 61,0 117,-33 117,-99 0,-71 -52,-119 -99,-147 -34,-20 -71,-32 -110,-32 -61,0 -116,33 -116,99 0,71 51,119 98,147 34,20 71,32 110,32 z"
       transform="scale(0.0029,-0.0029)" />
  </g>
  <g
     id="g630"
     transform="translate(41.1929,7.1142)">
    <rect
       id="rect628"
       fill="currentColor"
       ry="0.042100001"
       height="2.4899001"
       width="0.1228"
       y="-1.8723"
       x="-0.0614" />
  </g>
  <g
     id="g634"
     transform="translate(40.2978,7.8511)">
    <path
       id="path632"
       fill="currentColor"
       d="m 208,139 c 61,0 117,-33 117,-99 0,-71 -52,-119 -99,-147 -34,-20 -71,-32 -110,-32 -61,0 -116,33 -116,99 0,71 51,119 98,147 34,20 71,32 110,32 z"
       transform="scale(0.0029,-0.0029)" />
  </g>
  <g
     id="g638"
     transform="translate(38.7864,7.1142)">
    <rect
       id="rect636"
       fill="currentColor"
       ry="0.042100001"
       height="3.5748999"
       width="0.1228"
       y="-1.4836"
       x="-0.0614" />
  </g>
  <g
     id="g642"
     transform="translate(37.8913,9.3248)">
    <path
       id="path640"
       fill="currentColor"
       d="m 208,139 c 61,0 117,-33 117,-99 0,-71 -52,-119 -99,-147 -34,-20 -71,-32 -110,-32 -61,0 -116,33 -116,99 0,71 51,119 98,147 34,20 71,32 110,32 z"
       transform="scale(0.0029,-0.0029)" />
  </g>
  <g
     id="g646"
     transform="translate(9.9084,7.4827)">
    <path
       id="path644"
       fill="currentColor"
       d="m 208,139 c 61,0 117,-33 117,-99 0,-71 -52,-119 -99,-147 -34,-20 -71,-32 -110,-32 -61,0 -116,33 -116,99 0,71 51,119 98,147 34,20 71,32 110,32 z"
       transform="scale(0.0029,-0.0029)" />
  </g>
  <g
     id="g650"
     transform="translate(10.8035,7.1142)">
    <rect
       id="rect648"
       fill="currentColor"
       ry="0.042100001"
       height="2.6510999"
       width="0.1228"
       y="-2.4019001"
       x="-0.0614" />
  </g>
  <g
     id="g654"
     transform="translate(8.397,7.1142)">
    <rect
       id="rect652"
       fill="currentColor"
       ry="0.042100001"
       height="3.8118"
       width="0.1228"
       y="-2.0889001"
       x="-0.0614" />
  </g>
  <g
     id="g658"
     transform="translate(12.3208,7.1142)">
    <path
       id="path656"
       fill="currentColor"
       d="m 208,139 c 61,0 117,-33 117,-99 0,-71 -52,-119 -99,-147 -34,-20 -71,-32 -110,-32 -61,0 -116,33 -116,99 0,71 51,119 98,147 34,20 71,32 110,32 z"
       transform="scale(0.0029,-0.0029)" />
  </g>
  <g
     id="g662"
     transform="translate(13.2159,7.1142)">
    <rect
       id="rect660"
       fill="currentColor"
       ry="0.042100001"
       height="2.5964"
       width="0.1228"
       y="-2.7156"
       x="-0.0614" />
  </g>
  <g
     id="g666"
     transform="translate(11.4649,7.1142)">
    <path
       id="path664"
       fill="currentColor"
       d="m -8,375 c 8,5 18,7 27,7 9,0 20,-2 28,-7 l -3,-196 99,24 h 4 c 11,0 20,-8 20,-19 l 8,-559 c -8,-5 -19,-7 -28,-7 -9,0 -19,2 -27,7 l 3,196 -99,-24 h -5 c -11,0 -19,8 -19,19 z M 127,109 42,89 l -2,-198 84,20 z"
       transform="scale(0.0029,-0.0029)" />
  </g>
  <g
     id="g670"
     transform="translate(7.5019,8.9564)">
    <path
       id="path668"
       fill="currentColor"
       d="m 208,139 c 61,0 117,-33 117,-99 0,-71 -52,-119 -99,-147 -34,-20 -71,-32 -110,-32 -61,0 -116,33 -116,99 0,71 51,119 98,147 34,20 71,32 110,32 z"
       transform="scale(0.0029,-0.0029)" />
  </g>
  <g
     id="g674"
     transform="translate(4.4125,7.1142)">
    <path
       id="path672"
       fill="currentColor"
       d="m 33,35 -2,-60 v -11 c 0,-21 2,-43 5,-64 42,38 87,81 87,138 0,32 -13,63 -41,63 C 51,101 34,69 33,35 Z M 32,446 23,109 c 25,26 59,40 95,40 50,0 82,-51 82,-105 0,-77 -80,-117 -137,-169 -18,-17 -26,-48 -52,-48 -16,0 -28,15 -28,32 l -15,587 c 10,6 21,8 32,8 11,0 22,-2 32,-8 z"
       transform="scale(0.0029,-0.0029)" />
  </g>
  <g
     id="g678"
     transform="translate(0.8,7.8511)">
    <path
       id="path676"
       fill="currentColor"
       d="m 381,266 h 9 c 157,0 258,-130 258,-264 0,-77 -33,-156 -108,-212 -22,-16 -46,-28 -71,-36 2,-32 3,-65 3,-97 0,-21 -1,-43 -2,-64 -7,-122 -91,-230 -211,-230 -108,0 -197,88 -197,197 0,58 54,104 113,104 54,0 95,-48 95,-104 0,-52 -43,-95 -95,-95 -8,0 -16,2 -24,4 25,-35 65,-59 111,-59 95,0 155,92 161,190 1,20 2,39 2,59 0,28 -1,55 -3,83 -29,-5 -57,-7 -87,-7 -189,0 -333,174 -333,377 0,176 128,307 242,443 -21,62 -41,124 -50,189 -7,52 -8,106 -8,159 0,113 54,219 146,286 8,6 21,7 29,0 72,-82 136,-244 136,-357 0,-141 -83,-253 -174,-362 22,-67 41,-135 58,-204 z m 83,-466 c 64,25 108,93 108,159 0,87 -62,173 -163,187 24,-113 43,-225 55,-346 z m -126,-18 c 27,0 54,2 80,6 C 405,-87 385,30 360,147 281,140 237,88 237,31 c 0,-43 24,-89 78,-120 5,-5 8,-11 8,-17 0,-13 -11,-24 -24,-24 -3,0 -7,0 -10,2 -81,44 -119,116 -119,187 0,90 60,178 164,201 -14,56 -30,112 -47,167 C 183,305 79,182 79,23 79,-109 206,-218 338,-218 Z M 239,782 c 0,-69 22,-127 41,-183 77,97 140,199 140,323 0,49 -3,69 -19,113 C 302,990 239,890 239,782 Z"
       transform="scale(0.0029,-0.0029)" />
  </g>
  <g
     id="g682"
     transform="translate(19.6008,5.6406)">
    <path
       id="path680"
       fill="currentColor"
       d="m 208,139 c 61,0 117,-33 117,-99 0,-71 -52,-119 -99,-147 -34,-20 -71,-32 -110,-32 -61,0 -116,33 -116,99 0,71 51,119 98,147 34,20 71,32 110,32 z"
       transform="scale(0.0029,-0.0029)" />
  </g>
  <g
     id="g686"
     transform="translate(24.8088,7.1142)">
    <rect
       id="rect684"
       fill="currentColor"
       ry="0.042100001"
       height="1.7163"
       width="0.1228"
       y="-4.046"
       x="-0.0614" />
  </g>
  <g
     id="g690"
     transform="translate(23.9137,4.9037)">
    <path
       id="path688"
       fill="currentColor"
       d="m 208,139 c 61,0 117,-33 117,-99 0,-71 -52,-119 -99,-147 -34,-20 -71,-32 -110,-32 -61,0 -116,33 -116,99 0,71 51,119 98,147 34,20 71,32 110,32 z"
       transform="scale(0.0029,-0.0029)" />
  </g>
  <g
     id="g694"
     transform="translate(22.6523,7.1142)">
    <rect
       id="rect692"
       fill="currentColor"
       ry="0.042100001"
       height="1.8525"
       width="0.1228"
       y="-3.8138001"
       x="-0.0614" />
  </g>
  <g
     id="g698"
     transform="translate(21.7572,5.2721)">
    <path
       id="path696"
       fill="currentColor"
       d="m 208,139 c 61,0 117,-33 117,-99 0,-71 -52,-119 -99,-147 -34,-20 -71,-32 -110,-32 -61,0 -116,33 -116,99 0,71 51,119 98,147 34,20 71,32 110,32 z"
       transform="scale(0.0029,-0.0029)" />
  </g>
  <g
     id="g702"
     transform="translate(20.4959,7.1142)">
    <rect
       id="rect700"
       fill="currentColor"
       ry="0.042100001"
       height="1.9886"
       width="0.1228"
       y="-3.5816"
       x="-0.0614" />
  </g>
  <g
     id="g706"
     transform="translate(18.0894,7.1142)">
    <rect
       id="rect704"
       fill="currentColor"
       ry="0.042100001"
       height="2.4663"
       width="0.1228"
       y="-3.3224001"
       x="-0.0614" />
  </g>
  <g
     id="g710"
     transform="translate(17.1943,6.3774)">
    <path
       id="path708"
       fill="currentColor"
       d="m 208,139 c 61,0 117,-33 117,-99 0,-71 -52,-119 -99,-147 -34,-20 -71,-32 -110,-32 -61,0 -116,33 -116,99 0,71 51,119 98,147 34,20 71,32 110,32 z"
       transform="scale(0.0029,-0.0029)" />
  </g>
  <g
     id="g714"
     transform="translate(13.8773,6.7458)">
    <path
       id="path712"
       fill="currentColor"
       d="m 0,114 c 0,12 7,22 18,26 l 37,15 v 151 c 0,12 10,22 22,22 12,0 22,-10 22,-22 V 172 l 77,29 v 152 c 0,12 10,22 22,22 12,0 22,-10 22,-22 V 219 l 16,6 c 3,1 8,2 11,2 15,0 28,-12 28,-28 v -50 c 0,-12 -7,-23 -18,-27 L 220,108 V -44 l 16,7 c 3,1 8,2 11,2 15,0 28,-13 28,-29 v -50 c 0,-12 -7,-22 -18,-26 l -37,-15 v -151 c 0,-12 -10,-22 -22,-22 -12,0 -22,10 -22,22 v 134 l -77,-29 v -152 c 0,-12 -10,-22 -22,-22 -12,0 -22,10 -22,22 v 134 l -16,-6 c -3,-1 -8,-2 -11,-2 -15,0 -28,12 -28,28 v 50 c 0,12 7,23 18,27 l 37,14 V 44 L 39,37 C 36,36 31,35 28,35 13,35 0,48 0,64 Z M 176,91 99,61 V -91 l 77,30 z"
       transform="scale(0.0029,-0.0029)" />
  </g>
  <g
     id="g718"
     transform="translate(15.9329,7.1142)">
    <rect
       id="rect716"
       fill="currentColor"
       ry="0.042100001"
       height="2.5813999"
       width="0.1228"
       y="-3.069"
       x="-0.0614" />
  </g>
  <g
     id="g722"
     transform="translate(15.0378,6.7458)">
    <path
       id="path720"
       fill="currentColor"
       d="m 208,139 c 61,0 117,-33 117,-99 0,-71 -52,-119 -99,-147 -34,-20 -71,-32 -110,-32 -61,0 -116,33 -116,99 0,71 51,119 98,147 34,20 71,32 110,32 z"
       transform="scale(0.0029,-0.0029)" />
  </g>
  <g
     id="g726"
     transform="translate(60.0013,7.1142)">
    <rect
       id="rect724"
       fill="currentColor"
       ry="0.042100001"
       height="5.2206001"
       width="0.1228"
       y="-3.8662"
       x="-0.0614" />
  </g>
  <g
     id="g730"
     transform="translate(59.1062,8.5879)">
    <path
       id="path728"
       fill="currentColor"
       d="m 208,139 c 61,0 117,-33 117,-99 0,-71 -52,-119 -99,-147 -34,-20 -71,-32 -110,-32 -61,0 -116,33 -116,99 0,71 51,119 98,147 34,20 71,32 110,32 z"
       transform="scale(0.0029,-0.0029)" />
  </g>
  <g
     id="g734"
     transform="translate(44.6108,7.1142)">
    <path
       id="path732"
       fill="currentColor"
       d="m 208,139 c 61,0 117,-33 117,-99 0,-71 -52,-119 -99,-147 -34,-20 -71,-32 -110,-32 -61,0 -116,33 -116,99 0,71 51,119 98,147 34,20 71,32 110,32 z"
       transform="scale(0.0029,-0.0029)" />
  </g>
  <g
     id="g738"
     transform="translate(58.4448,7.1142)">
    <rect
       id="rect736"
       fill="currentColor"
       ry="0.042100001"
       height="5.1545"
       width="0.1228"
       y="-4.1684999"
       x="-0.0614" />
  </g>
  <g
     id="g742"
     transform="translate(57.5497,8.2195)">
    <path
       id="path740"
       fill="currentColor"
       d="m 208,139 c 61,0 117,-33 117,-99 0,-71 -52,-119 -99,-147 -34,-20 -71,-32 -110,-32 -61,0 -116,33 -116,99 0,71 51,119 98,147 34,20 71,32 110,32 z"
       transform="scale(0.0029,-0.0029)" />
  </g>
  <g
     id="g746"
     transform="translate(56.5383,7.1142)">
    <rect
       id="rect744"
       fill="currentColor"
       ry="0.042100001"
       height="2.2090001"
       width="0.1228"
       y="-4.5387998"
       x="-0.0614" />
  </g>
  <g
     id="g750"
     transform="translate(55.6432,4.9037)">
    <path
       id="path748"
       fill="currentColor"
       d="m 208,139 c 61,0 117,-33 117,-99 0,-71 -52,-119 -99,-147 -34,-20 -71,-32 -110,-32 -61,0 -116,33 -116,99 0,71 51,119 98,147 34,20 71,32 110,32 z"
       transform="scale(0.0029,-0.0029)" />
  </g>
  <g
     id="g754"
     transform="translate(64.6707,7.1142)">
    <rect
       id="rect752"
       fill="currentColor"
       ry="0.042100001"
       height="3.9453001"
       width="0.1228"
       y="-2.9593"
       x="-0.0614" />
  </g>
  <g
     id="g758"
     transform="translate(63.7756,8.2195)">
    <path
       id="path756"
       fill="currentColor"
       d="m 208,139 c 61,0 117,-33 117,-99 0,-71 -52,-119 -99,-147 -34,-20 -71,-32 -110,-32 -61,0 -116,33 -116,99 0,71 51,119 98,147 34,20 71,32 110,32 z"
       transform="scale(0.0029,-0.0029)" />
  </g>
  <g
     id="g762"
     transform="translate(67.25,9.6932)">
    <path
       id="path760"
       fill="currentColor"
       d="m 208,139 c 61,0 117,-33 117,-99 0,-71 -52,-119 -99,-147 -34,-20 -71,-32 -110,-32 -61,0 -116,33 -116,99 0,71 51,119 98,147 34,20 71,32 110,32 z"
       transform="scale(0.0029,-0.0029)" />
  </g>
  <g
     id="g766"
     transform="translate(63.1143,7.1142)">
    <rect
       id="rect764"
       fill="currentColor"
       ry="0.042100001"
       height="4.6160002"
       width="0.1228"
       y="-3.2616"
       x="-0.0614" />
  </g>
  <g
     id="g770"
     transform="translate(62.2192,8.5879)">
    <path
       id="path768"
       fill="currentColor"
       d="m 208,139 c 61,0 117,-33 117,-99 0,-71 -52,-119 -99,-147 -34,-20 -71,-32 -110,-32 -61,0 -116,33 -116,99 0,71 51,119 98,147 34,20 71,32 110,32 z"
       transform="scale(0.0029,-0.0029)" />
  </g>
  <g
     id="g774"
     transform="translate(68.1451,7.1142)">
    <rect
       id="rect772"
       fill="currentColor"
       ry="0.042100001"
       height="8.2248001"
       width="0.1228"
       y="-5.7651"
       x="-0.0614" />
  </g>
  <g
     id="g778"
     transform="translate(61.5578,7.1142)">
    <rect
       id="rect776"
       fill="currentColor"
       ry="0.042100001"
       height="5.2867999"
       width="0.1228"
       y="-3.5639"
       x="-0.0614" />
  </g>
  <g
     id="g782"
     transform="translate(60.6627,8.9564)">
    <path
       id="path780"
       fill="currentColor"
       d="m 208,139 c 61,0 117,-33 117,-99 0,-71 -52,-119 -99,-147 -34,-20 -71,-32 -110,-32 -61,0 -116,33 -116,99 0,71 51,119 98,147 34,20 71,32 110,32 z"
       transform="scale(0.0029,-0.0029)" />
  </g>
  <g
     id="g786"
     transform="translate(49.1737,6.009)">
    <path
       id="path784"
       fill="currentColor"
       d="m 208,139 c 61,0 117,-33 117,-99 0,-71 -52,-119 -99,-147 -34,-20 -71,-32 -110,-32 -61,0 -116,33 -116,99 0,71 51,119 98,147 34,20 71,32 110,32 z"
       transform="scale(0.0029,-0.0029)" />
  </g>
  <g
     id="g790"
     transform="translate(72.1081,7.1142)">
    <rect
       id="rect788"
       fill="currentColor"
       ry="0.042100001"
       height="2.6984999"
       width="0.1228"
       y="-5.7651"
       x="-0.0614" />
  </g>
  <g
     id="g794"
     transform="translate(52.2253,7.1142)">
    <rect
       id="rect792"
       fill="currentColor"
       ry="0.042100001"
       height="1.9401"
       width="0.1228"
       y="-3.533"
       x="-0.0614" />
  </g>
  <g
     id="g798"
     transform="translate(51.3302,5.6406)">
    <path
       id="path796"
       fill="currentColor"
       d="m 208,139 c 61,0 117,-33 117,-99 0,-71 -52,-119 -99,-147 -34,-20 -71,-32 -110,-32 -61,0 -116,33 -116,99 0,71 51,119 98,147 34,20 71,32 110,32 z"
       transform="scale(0.0029,-0.0029)" />
  </g>
  <g
     id="g802"
     transform="translate(50.0688,7.1142)">
    <rect
       id="rect800"
       fill="currentColor"
       ry="0.042100001"
       height="2.0353999"
       width="0.1228"
       y="-3.2599001"
       x="-0.0614" />
  </g>
  <g
     id="g806"
     transform="translate(73.6646,7.1142)">
    <rect
       id="rect804"
       fill="currentColor"
       ry="0.042100001"
       height="3.0669"
       width="0.1228"
       y="-5.7651"
       x="-0.0614" />
  </g>
  <g
     id="g810"
     transform="translate(72.7695,4.5353)">
    <path
       id="path808"
       fill="currentColor"
       d="m 208,139 c 61,0 117,-33 117,-99 0,-71 -52,-119 -99,-147 -34,-20 -71,-32 -110,-32 -61,0 -116,33 -116,99 0,71 51,119 98,147 34,20 71,32 110,32 z"
       transform="scale(0.0029,-0.0029)" />
  </g>
  <g
     id="g814"
     transform="translate(47.6624,7.1142)">
    <rect
       id="rect812"
       fill="currentColor"
       ry="0.042100001"
       height="2.4675"
       width="0.1228"
       y="-2.9551001"
       x="-0.0614" />
  </g>
  <g
     id="g818"
     transform="translate(46.7673,6.7458)">
    <path
       id="path816"
       fill="currentColor"
       d="m 208,139 c 61,0 117,-33 117,-99 0,-71 -52,-119 -99,-147 -34,-20 -71,-32 -110,-32 -61,0 -116,33 -116,99 0,71 51,119 98,147 34,20 71,32 110,32 z"
       transform="scale(0.0029,-0.0029)" />
  </g>
  <g
     id="g822"
     transform="translate(53.4867,5.2721)">
    <path
       id="path820"
       fill="currentColor"
       d="m 208,139 c 61,0 117,-33 117,-99 0,-71 -52,-119 -99,-147 -34,-20 -71,-32 -110,-32 -61,0 -116,33 -116,99 0,71 51,119 98,147 34,20 71,32 110,32 z"
       transform="scale(0.0029,-0.0029)" />
  </g>
  <g
     id="g826"
     transform="translate(69.6565,3.7985)">
    <path
       id="path824"
       fill="currentColor"
       d="m 208,139 c 61,0 117,-33 117,-99 0,-71 -52,-119 -99,-147 -34,-20 -71,-32 -110,-32 -61,0 -116,33 -116,99 0,71 51,119 98,147 34,20 71,32 110,32 z"
       transform="scale(0.0029,-0.0029)" />
  </g>
  <g
     id="g830"
     transform="translate(70.5516,7.1142)">
    <rect
       id="rect828"
       fill="currentColor"
       ry="0.042100001"
       height="2.3301001"
       width="0.1228"
       y="-5.7651"
       x="-0.0614" />
  </g>
  <g
     id="g834"
     transform="translate(45.5059,7.1142)">
    <rect
       id="rect832"
       fill="currentColor"
       ry="0.042100001"
       height="2.4498"
       width="0.1228"
       y="-2.569"
       x="-0.0614" />
  </g>
  <g
     id="g838"
     transform="translate(54.3818,7.1142)">
    <rect
       id="rect836"
       fill="currentColor"
       ry="0.042100001"
       height="1.8447"
       width="0.1228"
       y="-3.8060999"
       x="-0.0614" />
  </g>
  <g
     id="g842"
     transform="translate(71.213,4.1669)">
    <path
       id="path840"
       fill="currentColor"
       d="m 208,139 c 61,0 117,-33 117,-99 0,-71 -52,-119 -99,-147 -34,-20 -71,-32 -110,-32 -61,0 -116,33 -116,99 0,71 51,119 98,147 34,20 71,32 110,32 z"
       transform="scale(0.0029,-0.0029)" />
  </g>
</svg>
