<?xml version="1.0" encoding="UTF-8" standalone="no"?>
<svg
   xmlns:dc="http://purl.org/dc/elements/1.1/"
   xmlns:cc="http://creativecommons.org/ns#"
   xmlns:rdf="http://www.w3.org/1999/02/22-rdf-syntax-ns#"
   xmlns:svg="http://www.w3.org/2000/svg"
   xmlns="http://www.w3.org/2000/svg"
   xmlns:sodipodi="http://sodipodi.sourceforge.net/DTD/sodipodi-0.dtd"
   xmlns:inkscape="http://www.inkscape.org/namespaces/inkscape"
   sodipodi:docname="bwv-1004_5_for_PNGs-19.svg"
   id="svg1072"
   viewBox="0 0 177.29909 9.9945009"
   height="16.685158mm"
   width="295.98914mm"
   version="1.2">
  <metadata
     id="metadata1078">
    <rdf:RDF>
      <cc:Work
         rdf:about="">
        <dc:format>image/svg+xml</dc:format>
        <dc:type
           rdf:resource="http://purl.org/dc/dcmitype/StillImage" />
      </cc:Work>
    </rdf:RDF>
  </metadata>
  <defs
     id="defs1076" />
  <sodipodi:namedview
     id="namedview1074"
     inkscape:window-height="480"
     inkscape:window-width="640"
     inkscape:pageshadow="2"
     inkscape:pageopacity="0"
     guidetolerance="10"
     gridtolerance="10"
     objecttolerance="10"
     borderopacity="1"
     bordercolor="#666666"
     pagecolor="#ffffff" />
  <style
     id="style2"
     type="text/css"><![CDATA[
tspan { white-space: pre; }
]]></style>
  <g
     id="g6"
     transform="translate(0,5.9418997)">
    <line
       id="line4"
       y2="0"
       x2="177.25191"
       y1="0"
       x1="0.047200002"
       stroke="currentColor"
       stroke-width="0.0944"
       stroke-linecap="round"
       stroke-linejoin="round" />
  </g>
  <g
     id="g10"
     transform="translate(0,5.2050997)">
    <line
       id="line8"
       y2="0"
       x2="177.25191"
       y1="0"
       x1="0.047200002"
       stroke="currentColor"
       stroke-width="0.0944"
       stroke-linecap="round"
       stroke-linejoin="round" />
  </g>
  <g
     id="g14"
     transform="translate(0,4.4681997)">
    <line
       id="line12"
       y2="0"
       x2="177.25191"
       y1="0"
       x1="0.047200002"
       stroke="currentColor"
       stroke-width="0.0944"
       stroke-linecap="round"
       stroke-linejoin="round" />
  </g>
  <g
     id="g18"
     transform="translate(0,3.7313997)">
    <line
       id="line16"
       y2="0"
       x2="177.25191"
       y1="0"
       x1="0.047200002"
       stroke="currentColor"
       stroke-width="0.0944"
       stroke-linecap="round"
       stroke-linejoin="round" />
  </g>
  <g
     id="g22"
     transform="translate(0,2.9945997)">
    <line
       id="line20"
       y2="0"
       x2="177.25191"
       y1="0"
       x1="0.047200002"
       stroke="currentColor"
       stroke-width="0.0944"
       stroke-linecap="round"
       stroke-linejoin="round" />
  </g>
  <g
     id="g26"
     transform="translate(158.6714,4.4681997)">
    <rect
       id="rect24"
       fill="currentColor"
       ry="0.0000"
       height="2.9474001"
       width="0.1794"
       y="-1.4737"
       x="0" />
  </g>
  <g
     id="g30"
     transform="translate(71.4925,4.4681997)">
    <rect
       id="rect28"
       fill="currentColor"
       ry="0.0000"
       height="2.9474001"
       width="0.1794"
       y="-1.4737"
       x="0" />
  </g>
  <g
     id="g34"
     transform="translate(115.8943,4.4681997)">
    <rect
       id="rect32"
       fill="currentColor"
       ry="0.0000"
       height="2.9474001"
       width="0.1794"
       y="-1.4737"
       x="0" />
  </g>
  <g
     id="g38"
     transform="translate(28.6613,4.4681997)">
    <rect
       id="rect36"
       fill="currentColor"
       ry="0.0000"
       height="2.9474001"
       width="0.1794"
       y="-1.4737"
       x="0" />
  </g>
  <g
     id="g42"
     transform="translate(177.1197,4.4681997)">
    <rect
       id="rect40"
       fill="currentColor"
       ry="0.0000"
       height="2.9474001"
       width="0.1794"
       y="-1.4737"
       x="0" />
  </g>
  <g
     id="g46"
     transform="translate(93.8061,4.4681997)">
    <rect
       id="rect44"
       fill="currentColor"
       ry="0.0000"
       height="2.9474001"
       width="0.1794"
       y="-1.4737"
       x="0" />
  </g>
  <g
     id="g50"
     transform="translate(136.8656,4.4681997)">
    <rect
       id="rect48"
       fill="currentColor"
       ry="0.0000"
       height="2.9474001"
       width="0.1794"
       y="-1.4737"
       x="0" />
  </g>
  <g
     id="g54"
     transform="translate(49.8209,4.4681997)">
    <rect
       id="rect52"
       fill="currentColor"
       ry="0.0000"
       height="2.9474001"
       width="0.1794"
       y="-1.4737"
       x="0" />
  </g>
  <g
     id="g58"
     transform="translate(0,2.2576997)">
    <rect
       id="rect56"
       fill="currentColor"
       ry="0.084100001"
       height="0.1681"
       width="1.4347"
       y="-0.084100001"
       x="154.88071" />
  </g>
  <g
     id="g62"
     transform="translate(0,2.2576997)">
    <rect
       id="rect60"
       fill="currentColor"
       ry="0.084100001"
       height="0.1681"
       width="1.4347"
       y="-0.084100001"
       x="151.53149" />
  </g>
  <g
     id="g66"
     transform="translate(0,2.2576997)">
    <rect
       id="rect64"
       fill="currentColor"
       ry="0.084100001"
       height="0.1681"
       width="1.4347"
       y="-0.084100001"
       x="123.5341" />
  </g>
  <g
     id="g70"
     transform="translate(0,6.6787997)">
    <rect
       id="rect68"
       fill="currentColor"
       ry="0.084100001"
       height="0.1681"
       width="1.4347"
       y="-0.084100001"
       x="89.935898" />
  </g>
  <g
     id="g74"
     transform="translate(0,7.4155997)">
    <rect
       id="rect72"
       fill="currentColor"
       ry="0.084100001"
       height="0.1681"
       width="1.4347"
       y="-0.084100001"
       x="89.935898" />
  </g>
  <g
     id="g78"
     transform="translate(0,6.6787997)">
    <rect
       id="rect76"
       fill="currentColor"
       ry="0.084100001"
       height="0.1681"
       width="1.4347"
       y="-0.084100001"
       x="79.399002" />
  </g>
  <g
     id="g82"
     transform="translate(0,7.4155997)">
    <rect
       id="rect80"
       fill="currentColor"
       ry="0.084100001"
       height="0.1681"
       width="1.4347"
       y="-0.084100001"
       x="79.399002" />
  </g>
  <g
     id="g86"
     transform="translate(0,6.6787997)">
    <rect
       id="rect84"
       fill="currentColor"
       ry="0.084100001"
       height="0.1681"
       width="1.4347"
       y="-0.084100001"
       x="72.332802" />
  </g>
  <g
     id="g90"
     transform="translate(0,7.4155997)">
    <rect
       id="rect88"
       fill="currentColor"
       ry="0.084100001"
       height="0.1681"
       width="1.4347"
       y="-0.084100001"
       x="72.332802" />
  </g>
  <g
     id="g94"
     transform="translate(0,6.6787997)">
    <rect
       id="rect92"
       fill="currentColor"
       ry="0.084100001"
       height="0.1681"
       width="1.4347"
       y="-0.084100001"
       x="67.693703" />
  </g>
  <g
     id="g98"
     transform="translate(0,7.4155997)">
    <rect
       id="rect96"
       fill="currentColor"
       ry="0.084100001"
       height="0.1681"
       width="1.4347"
       y="-0.084100001"
       x="67.693703" />
  </g>
  <g
     id="g102"
     transform="translate(0,6.6787997)">
    <rect
       id="rect100"
       fill="currentColor"
       ry="0.084100001"
       height="0.1681"
       width="1.4347"
       y="-0.084100001"
       x="57.624298" />
  </g>
  <g
     id="g106"
     transform="translate(0,7.4155997)">
    <rect
       id="rect104"
       fill="currentColor"
       ry="0.084100001"
       height="0.1681"
       width="1.4347"
       y="-0.084100001"
       x="57.624298" />
  </g>
  <g
     id="g110"
     transform="translate(0,6.6787997)">
    <rect
       id="rect108"
       fill="currentColor"
       ry="0.084100001"
       height="0.1681"
       width="1.4347"
       y="-0.084100001"
       x="50.661301" />
  </g>
  <g
     id="g114"
     transform="translate(0,6.6787997)">
    <rect
       id="rect112"
       fill="currentColor"
       ry="0.084100001"
       height="0.1681"
       width="1.4347"
       y="-0.084100001"
       x="46.0341" />
  </g>
  <g
     id="g118"
     transform="translate(0,7.4155997)">
    <rect
       id="rect116"
       fill="currentColor"
       ry="0.084100001"
       height="0.1681"
       width="1.4347"
       y="-0.084100001"
       x="46.0341" />
  </g>
  <g
     id="g122"
     transform="translate(0,6.6787997)">
    <rect
       id="rect120"
       fill="currentColor"
       ry="0.084100001"
       height="0.1681"
       width="1.4347"
       y="-0.084100001"
       x="36.2146" />
  </g>
  <g
     id="g126"
     transform="translate(0,7.4155997)">
    <rect
       id="rect124"
       fill="currentColor"
       ry="0.084100001"
       height="0.1681"
       width="1.4347"
       y="-0.084100001"
       x="36.2146" />
  </g>
  <g
     id="g130"
     transform="translate(0,6.6787997)">
    <rect
       id="rect128"
       fill="currentColor"
       ry="0.084100001"
       height="0.1681"
       width="1.4347"
       y="-0.084100001"
       x="29.501699" />
  </g>
  <g
     id="g134"
     transform="translate(120.4167,4.4681997)">
    <path
       id="path132"
       fill="currentColor"
       d="m 208,139 c 61,0 117,-33 117,-99 0,-71 -52,-119 -99,-147 -34,-20 -71,-32 -110,-32 -61,0 -116,33 -116,99 0,71 51,119 98,147 34,20 71,32 110,32 z"
       transform="scale(0.0029,-0.0029)" />
  </g>
  <g
     id="g138"
     transform="translate(120.478,4.4681997)">
    <rect
       id="rect136"
       fill="currentColor"
       ry="0.042100001"
       height="1.9617"
       width="0.1228"
       y="0.1192"
       x="-0.0614" />
  </g>
  <g
     id="g142"
     transform="translate(123.7731,2.2576997)">
    <path
       id="path140"
       fill="currentColor"
       d="m 208,139 c 61,0 117,-33 117,-99 0,-71 -52,-119 -99,-147 -34,-20 -71,-32 -110,-32 -61,0 -116,33 -116,99 0,71 51,119 98,147 34,20 71,32 110,32 z"
       transform="scale(0.0029,-0.0029)" />
  </g>
  <g
     id="g146"
     transform="translate(123.7731,4.0997997)">
    <path
       id="path144"
       fill="currentColor"
       d="m 208,139 c 61,0 117,-33 117,-99 0,-71 -52,-119 -99,-147 -34,-20 -71,-32 -110,-32 -61,0 -116,33 -116,99 0,71 51,119 98,147 34,20 71,32 110,32 z"
       transform="scale(0.0029,-0.0029)" />
  </g>
  <g
     id="g150"
     transform="translate(125.0512,1.8892997)">
    <path
       id="path148"
       fill="currentColor"
       d="M 0,0 C 0,30 25,55 55,55 85,55 109,30 109,0 109,-30 85,-55 55,-55 25,-55 0,-30 0,0 Z"
       transform="scale(0.0029,-0.0029)" />
  </g>
  <g
     id="g154"
     transform="translate(124.6682,4.4681997)">
    <rect
       id="rect152"
       fill="currentColor"
       ry="0.042100001"
       height="1.7229"
       width="0.1228"
       y="-4.0525999"
       x="-0.0614" />
  </g>
  <g
     id="g158"
     transform="translate(117.9553,4.4681997)">
    <rect
       id="rect156"
       fill="currentColor"
       ry="0.042100001"
       height="1.9685"
       width="0.1228"
       y="-3.1930001"
       x="-0.0614" />
  </g>
  <g
     id="g162"
     transform="translate(117.0602,3.3629997)">
    <path
       id="path160"
       fill="currentColor"
       d="m 208,139 c 61,0 117,-33 117,-99 0,-71 -52,-119 -99,-147 -34,-20 -71,-32 -110,-32 -61,0 -116,33 -116,99 0,71 51,119 98,147 34,20 71,32 110,32 z"
       transform="scale(0.0029,-0.0029)" />
  </g>
  <g
     id="g166"
     transform="translate(117.5384,4.0997997)">
    <path
       id="path164"
       fill="currentColor"
       d="m 208,139 c 61,0 117,-33 117,-99 0,-71 -52,-119 -99,-147 -34,-20 -71,-32 -110,-32 -61,0 -116,33 -116,99 0,71 51,119 98,147 34,20 71,32 110,32 z"
       transform="scale(0.0029,-0.0029)" />
  </g>
  <g
     id="g170"
     transform="translate(117.0602,4.8366997)">
    <path
       id="path168"
       fill="currentColor"
       d="m 208,139 c 61,0 117,-33 117,-99 0,-71 -52,-119 -99,-147 -34,-20 -71,-32 -110,-32 -61,0 -116,33 -116,99 0,71 51,119 98,147 34,20 71,32 110,32 z"
       transform="scale(0.0029,-0.0029)" />
  </g>
  <g
     id="g174"
     transform="translate(118.4335,4.4681997)">
    <rect
       id="rect172"
       fill="currentColor"
       ry="0.042100001"
       height="2.2755001"
       width="0.1228"
       y="-2.7632"
       x="-0.0614" />
  </g>
  <g
     id="g178"
     transform="translate(118.4949,1.7471997)">
    <path
       id="path176"
       fill="currentColor"
       d="m 0,0 c 0,-196 207,-334 207,-530 0,-71 -15,-140 -41,-206 -5,-10 -14,-13 -23,-13 -14,0 -28,10 -28,26 0,2 1,3 1,5 26,59 42,123 42,188 0,101 -90,205 -158,280 H -21 V 0 Z"
       transform="scale(0.0029,-0.0029)" />
  </g>
  <g
     id="g182"
     transform="translate(117.1216,4.4681997)">
    <rect
       id="rect180"
       fill="currentColor"
       ry="0.042100001"
       height="1.5933"
       width="0.1228"
       y="0.4876"
       x="-0.0614" />
  </g>
  <g
     id="g186"
     transform="translate(133.5926,2.6260997)">
    <path
       id="path184"
       fill="currentColor"
       d="m 208,139 c 61,0 117,-33 117,-99 0,-71 -52,-119 -99,-147 -34,-20 -71,-32 -110,-32 -61,0 -116,33 -116,99 0,71 51,119 98,147 34,20 71,32 110,32 z"
       transform="scale(0.0029,-0.0029)" />
  </g>
  <g
     id="g190"
     transform="translate(133.5926,4.0997997)">
    <path
       id="path188"
       fill="currentColor"
       d="m 208,139 c 61,0 117,-33 117,-99 0,-71 -52,-119 -99,-147 -34,-20 -71,-32 -110,-32 -61,0 -116,33 -116,99 0,71 51,119 98,147 34,20 71,32 110,32 z"
       transform="scale(0.0029,-0.0029)" />
  </g>
  <g
     id="g194"
     transform="translate(134.4877,4.4681997)">
    <rect
       id="rect192"
       fill="currentColor"
       ry="0.042100001"
       height="2.0913"
       width="0.1228"
       y="-4.0525999"
       x="-0.0614" />
  </g>
  <g
     id="g198"
     transform="translate(134.5491,0.45769969)">
    <path
       id="path196"
       fill="currentColor"
       d="m 0,0 c 0,-196 207,-334 207,-530 0,-71 -15,-140 -41,-206 -5,-10 -14,-13 -23,-13 -14,0 -28,10 -28,26 0,2 1,3 1,5 26,59 42,123 42,188 0,101 -90,205 -158,280 H -21 V 0 Z"
       transform="scale(0.0029,-0.0029)" />
  </g>
  <g
     id="g202"
     transform="translate(133.654,4.4681997)">
    <rect
       id="rect200"
       fill="currentColor"
       ry="0.042100001"
       height="2.3301001"
       width="0.1228"
       y="-0.2492"
       x="-0.0614" />
  </g>
  <g
     id="g206"
     transform="translate(138.156,4.4681997)">
    <rect
       id="rect204"
       fill="currentColor"
       ry="0.042100001"
       height="1.9662"
       width="0.1228"
       y="-0.61760002"
       x="-0.0614" />
  </g>
  <g
     id="g210"
     transform="translate(138.0946,2.9945997)">
    <path
       id="path208"
       fill="currentColor"
       d="m 208,139 c 61,0 117,-33 117,-99 0,-71 -52,-119 -99,-147 -34,-20 -71,-32 -110,-32 -61,0 -116,33 -116,99 0,71 51,119 98,147 34,20 71,32 110,32 z"
       transform="scale(0.0029,-0.0029)" />
  </g>
  <g
     id="g214"
     transform="translate(138.0946,3.7313997)">
    <path
       id="path212"
       fill="currentColor"
       d="m 208,139 c 61,0 117,-33 117,-99 0,-71 -52,-119 -99,-147 -34,-20 -71,-32 -110,-32 -61,0 -116,33 -116,99 0,71 51,119 98,147 34,20 71,32 110,32 z"
       transform="scale(0.0029,-0.0029)" />
  </g>
  <g
     id="g218"
     transform="translate(138.9897,4.4681997)">
    <rect
       id="rect216"
       fill="currentColor"
       ry="0.042100001"
       height="1.7187001"
       width="0.1228"
       y="-3.3116"
       x="-0.0614" />
  </g>
  <g
     id="g222"
     transform="translate(126.941,4.4681997)">
    <rect
       id="rect220"
       fill="currentColor"
       ry="0.042100001"
       height="1.5933"
       width="0.1228"
       y="0.4876"
       x="-0.0614" />
  </g>
  <g
     id="g226"
     transform="translate(123.8345,4.4681997)">
    <rect
       id="rect224"
       fill="currentColor"
       ry="0.042100001"
       height="2.3301001"
       width="0.1228"
       y="-0.2492"
       x="-0.0614" />
  </g>
  <g
     id="g230"
     transform="translate(126.8796,4.8366997)">
    <path
       id="path228"
       fill="currentColor"
       d="m 208,139 c 61,0 117,-33 117,-99 0,-71 -52,-119 -99,-147 -34,-20 -71,-32 -110,-32 -61,0 -116,33 -116,99 0,71 51,119 98,147 34,20 71,32 110,32 z"
       transform="scale(0.0029,-0.0029)" />
  </g>
  <g
     id="g234"
     transform="translate(130.2361,4.4681997)">
    <path
       id="path232"
       fill="currentColor"
       d="m 208,139 c 61,0 117,-33 117,-99 0,-71 -52,-119 -99,-147 -34,-20 -71,-32 -110,-32 -61,0 -116,33 -116,99 0,71 51,119 98,147 34,20 71,32 110,32 z"
       transform="scale(0.0029,-0.0029)" />
  </g>
  <g
     id="g238"
     transform="translate(130.2975,4.4681997)">
    <rect
       id="rect236"
       fill="currentColor"
       ry="0.042100001"
       height="1.9617"
       width="0.1228"
       y="0.1192"
       x="-0.0614" />
  </g>
  <g
     id="g242"
     transform="translate(94.9491,4.4681997)">
    <rect
       id="rect240"
       fill="currentColor"
       ry="0.042100001"
       height="2.0913"
       width="0.1228"
       y="1.9613"
       x="-0.0614" />
  </g>
  <g
     id="g246"
     transform="translate(95.0105,8.4787997)">
    <path
       id="path244"
       fill="currentColor"
       d="m 0,250 c 94,60 217,150 217,259 0,56 -15,110 -41,160 v 6 c 0,16 14,26 28,26 9,0 17,-4 22,-14 25,-56 40,-116 40,-178 C 266,306 0,203 0,0 h -21 v 250 z"
       transform="scale(0.0029,-0.0029)" />
  </g>
  <g
     id="g250"
     transform="translate(98.7224,5.9418997)">
    <path
       id="path248"
       fill="currentColor"
       d="m 208,139 c 61,0 117,-33 117,-99 0,-71 -52,-119 -99,-147 -34,-20 -71,-32 -110,-32 -61,0 -116,33 -116,99 0,71 51,119 98,147 34,20 71,32 110,32 z"
       transform="scale(0.0029,-0.0029)" />
  </g>
  <g
     id="g254"
     transform="translate(99.6175,4.4681997)">
    <rect
       id="rect252"
       fill="currentColor"
       ry="0.042100001"
       height="1.9662"
       width="0.1228"
       y="-0.61180001"
       x="-0.0614" />
  </g>
  <g
     id="g258"
     transform="translate(102.3289,2.9945997)">
    <path
       id="path256"
       fill="currentColor"
       d="m 208,139 c 61,0 117,-33 117,-99 0,-71 -52,-119 -99,-147 -34,-20 -71,-32 -110,-32 -61,0 -116,33 -116,99 0,71 51,119 98,147 34,20 71,32 110,32 z"
       transform="scale(0.0029,-0.0029)" />
  </g>
  <g
     id="g262"
     transform="translate(102.8072,3.7313997)">
    <path
       id="path260"
       fill="currentColor"
       d="m 208,139 c 61,0 117,-33 117,-99 0,-71 -52,-119 -99,-147 -34,-20 -71,-32 -110,-32 -61,0 -116,33 -116,99 0,71 51,119 98,147 34,20 71,32 110,32 z"
       transform="scale(0.0029,-0.0029)" />
  </g>
  <g
     id="g266"
     transform="translate(95.3659,5.5734997)">
    <path
       id="path264"
       fill="currentColor"
       d="m 208,139 c 61,0 117,-33 117,-99 0,-71 -52,-119 -99,-147 -34,-20 -71,-32 -110,-32 -61,0 -116,33 -116,99 0,71 51,119 98,147 34,20 71,32 110,32 z"
       transform="scale(0.0029,-0.0029)" />
  </g>
  <g
     id="g270"
     transform="translate(159.7741,7.7839997)">
    <polygon
       id="polygon268"
       points="0.0421,0.1347 0.0421,-0.1347 3.5966,0.1041 3.5966,0.3735 "
       stroke="currentColor"
       fill="currentColor"
       stroke-width="0.0842"
       stroke-linecap="round"
       stroke-linejoin="round" />
  </g>
  <g
     id="g274"
     transform="translate(90.2363,4.4681997)">
    <rect
       id="rect272"
       fill="currentColor"
       ry="0.042100001"
       height="2.0913"
       width="0.1228"
       y="3.0666001"
       x="-0.0614" />
  </g>
  <g
     id="g278"
     transform="translate(90.2977,9.5839997)">
    <path
       id="path276"
       fill="currentColor"
       d="m 0,250 c 94,60 217,150 217,259 0,56 -15,110 -41,160 v 6 c 0,16 14,26 28,26 9,0 17,-4 22,-14 25,-56 40,-116 40,-178 C 266,306 0,203 0,0 h -21 v 250 z"
       transform="scale(0.0029,-0.0029)" />
  </g>
  <g
     id="g282"
     transform="translate(94.8877,3.7313997)">
    <path
       id="path280"
       fill="currentColor"
       d="m 208,139 c 61,0 117,-33 117,-99 0,-71 -52,-119 -99,-147 -34,-20 -71,-32 -110,-32 -61,0 -116,33 -116,99 0,71 51,119 98,147 34,20 71,32 110,32 z"
       transform="scale(0.0029,-0.0029)" />
  </g>
  <g
     id="g286"
     transform="translate(102.3289,6.3103997)">
    <path
       id="path284"
       fill="currentColor"
       d="m 208,139 c 61,0 117,-33 117,-99 0,-71 -52,-119 -99,-147 -34,-20 -71,-32 -110,-32 -61,0 -116,33 -116,99 0,71 51,119 98,147 34,20 71,32 110,32 z"
       transform="scale(0.0029,-0.0029)" />
  </g>
  <g
     id="g290"
     transform="translate(94.8877,6.3103997)">
    <path
       id="path288"
       fill="currentColor"
       d="m 208,139 c 61,0 117,-33 117,-99 0,-71 -52,-119 -99,-147 -34,-20 -71,-32 -110,-32 -61,0 -116,33 -116,99 0,71 51,119 98,147 34,20 71,32 110,32 z"
       transform="scale(0.0029,-0.0029)" />
  </g>
  <g
     id="g294"
     transform="translate(95.7828,4.4681997)">
    <rect
       id="rect292"
       fill="currentColor"
       ry="0.042100001"
       height="2.0913"
       width="0.1228"
       y="-2.9474001"
       x="-0.0614" />
  </g>
  <g
     id="g298"
     transform="translate(96.261,4.4681997)">
    <rect
       id="rect296"
       fill="currentColor"
       ry="0.042100001"
       height="1.8479"
       width="0.1228"
       y="-0.86189997"
       x="-0.0614" />
  </g>
  <g
     id="g302"
     transform="translate(113.3549,0.82609969)">
    <path
       id="path300"
       fill="currentColor"
       d="m 0,0 c 0,-196 207,-334 207,-530 0,-71 -15,-140 -41,-206 -5,-10 -14,-13 -23,-13 -14,0 -28,10 -28,26 0,2 1,3 1,5 26,59 42,123 42,188 0,101 -90,205 -158,280 H -21 V 0 Z"
       transform="scale(0.0029,-0.0029)" />
  </g>
  <g
     id="g306"
     transform="translate(109.0419,5.5734997)">
    <path
       id="path304"
       fill="currentColor"
       d="m 208,139 c 61,0 117,-33 117,-99 0,-71 -52,-119 -99,-147 -34,-20 -71,-32 -110,-32 -61,0 -116,33 -116,99 0,71 51,119 98,147 34,20 71,32 110,32 z"
       transform="scale(0.0029,-0.0029)" />
  </g>
  <g
     id="g310"
     transform="translate(109.1033,4.4681997)">
    <rect
       id="rect308"
       fill="currentColor"
       ry="0.042100001"
       height="1.9265"
       width="0.1228"
       y="1.2244999"
       x="-0.0614" />
  </g>
  <g
     id="g314"
     transform="translate(112.3984,2.9945997)">
    <path
       id="path312"
       fill="currentColor"
       d="m 208,139 c 61,0 117,-33 117,-99 0,-71 -52,-119 -99,-147 -34,-20 -71,-32 -110,-32 -61,0 -116,33 -116,99 0,71 51,119 98,147 34,20 71,32 110,32 z"
       transform="scale(0.0029,-0.0029)" />
  </g>
  <g
     id="g318"
     transform="translate(112.8766,3.7313997)">
    <path
       id="path316"
       fill="currentColor"
       d="m 208,139 c 61,0 117,-33 117,-99 0,-71 -52,-119 -99,-147 -34,-20 -71,-32 -110,-32 -61,0 -116,33 -116,99 0,71 51,119 98,147 34,20 71,32 110,32 z"
       transform="scale(0.0029,-0.0029)" />
  </g>
  <g
     id="g322"
     transform="translate(112.3984,5.2050997)">
    <path
       id="path320"
       fill="currentColor"
       d="m 208,139 c 61,0 117,-33 117,-99 0,-71 -52,-119 -99,-147 -34,-20 -71,-32 -110,-32 -61,0 -116,33 -116,99 0,71 51,119 98,147 34,20 71,32 110,32 z"
       transform="scale(0.0029,-0.0029)" />
  </g>
  <g
     id="g326"
     transform="translate(113.2935,4.4681997)">
    <rect
       id="rect324"
       fill="currentColor"
       ry="0.042100001"
       height="2.0913"
       width="0.1228"
       y="-3.6842"
       x="-0.0614" />
  </g>
  <g
     id="g330"
     transform="translate(113.7717,4.4681997)">
    <rect
       id="rect328"
       fill="currentColor"
       ry="0.042100001"
       height="2.1833999"
       width="0.1228"
       y="-3.0395"
       x="-0.0614" />
  </g>
  <g
     id="g334"
     transform="translate(113.8331,1.4708997)">
    <path
       id="path332"
       fill="currentColor"
       d="m 0,0 c 0,-196 207,-334 207,-530 0,-71 -15,-140 -41,-206 -5,-10 -14,-13 -23,-13 -14,0 -28,10 -28,26 0,2 1,3 1,5 26,59 42,123 42,188 0,101 -90,205 -158,280 H -21 V 0 Z"
       transform="scale(0.0029,-0.0029)" />
  </g>
  <g
     id="g338"
     transform="translate(112.4598,4.4681997)">
    <rect
       id="rect336"
       fill="currentColor"
       ry="0.042100001"
       height="2.095"
       width="0.1228"
       y="0.85610002"
       x="-0.0614" />
  </g>
  <g
     id="g342"
     transform="translate(104.0852,2.6260997)">
    <path
       id="path340"
       fill="currentColor"
       d="M 0,0 C 0,30 25,55 55,55 85,55 109,30 109,0 109,-30 85,-55 55,-55 25,-55 0,-30 0,0 Z"
       transform="scale(0.0029,-0.0029)" />
  </g>
  <g
     id="g346"
     transform="translate(103.224,4.4681997)">
    <rect
       id="rect344"
       fill="currentColor"
       ry="0.042100001"
       height="1.8457"
       width="0.1228"
       y="-3.4386001"
       x="-0.0614" />
  </g>
  <g
     id="g350"
     transform="translate(104.0852,3.3629997)">
    <path
       id="path348"
       fill="currentColor"
       d="M 0,0 C 0,30 25,55 55,55 85,55 109,30 109,0 109,-30 85,-55 55,-55 25,-55 0,-30 0,0 Z"
       transform="scale(0.0029,-0.0029)" />
  </g>
  <g
     id="g354"
     transform="translate(103.7023,4.4681997)">
    <rect
       id="rect352"
       fill="currentColor"
       ry="0.042100001"
       height="2.0913"
       width="0.1228"
       y="-2.9474001"
       x="-0.0614" />
  </g>
  <g
     id="g358"
     transform="translate(102.3903,4.4681997)">
    <rect
       id="rect356"
       fill="currentColor"
       ry="0.042100001"
       height="1.5896"
       width="0.1228"
       y="1.9613"
       x="-0.0614" />
  </g>
  <g
     id="g362"
     transform="translate(105.6854,5.9418997)">
    <path
       id="path360"
       fill="currentColor"
       d="m 208,139 c 61,0 117,-33 117,-99 0,-71 -52,-119 -99,-147 -34,-20 -71,-32 -110,-32 -61,0 -116,33 -116,99 0,71 51,119 98,147 34,20 71,32 110,32 z"
       transform="scale(0.0029,-0.0029)" />
  </g>
  <g
     id="g366"
     transform="translate(105.7468,4.4681997)">
    <rect
       id="rect364"
       fill="currentColor"
       ry="0.042100001"
       height="1.758"
       width="0.1228"
       y="1.5929"
       x="-0.0614" />
  </g>
  <g
     id="g370"
     transform="translate(163.29,2.9945997)">
    <path
       id="path368"
       fill="currentColor"
       d="m 208,139 c 61,0 117,-33 117,-99 0,-71 -52,-119 -99,-147 -34,-20 -71,-32 -110,-32 -61,0 -116,33 -116,99 0,71 51,119 98,147 34,20 71,32 110,32 z"
       transform="scale(0.0029,-0.0029)" />
  </g>
  <g
     id="g374"
     transform="translate(163.7682,3.7313997)">
    <path
       id="path372"
       fill="currentColor"
       d="m 208,139 c 61,0 117,-33 117,-99 0,-71 -52,-119 -99,-147 -34,-20 -71,-32 -110,-32 -61,0 -116,33 -116,99 0,71 51,119 98,147 34,20 71,32 110,32 z"
       transform="scale(0.0029,-0.0029)" />
  </g>
  <g
     id="g378"
     transform="translate(163.29,6.3103997)">
    <path
       id="path376"
       fill="currentColor"
       d="m 208,139 c 61,0 117,-33 117,-99 0,-71 -52,-119 -99,-147 -34,-20 -71,-32 -110,-32 -61,0 -116,33 -116,99 0,71 51,119 98,147 34,20 71,32 110,32 z"
       transform="scale(0.0029,-0.0029)" />
  </g>
  <g
     id="g382"
     transform="translate(164.1851,4.4681997)">
    <rect
       id="rect380"
       fill="currentColor"
       ry="0.042100001"
       height="1.7269"
       width="0.1228"
       y="-3.3197999"
       x="-0.0614" />
  </g>
  <g
     id="g386"
     transform="translate(164.6633,4.4681997)">
    <rect
       id="rect384"
       fill="currentColor"
       ry="0.042100001"
       height="1.7187999"
       width="0.1228"
       y="-2.5748999"
       x="-0.0614" />
  </g>
  <g
     id="g390"
     transform="translate(163.3514,4.4681997)">
    <rect
       id="rect388"
       fill="currentColor"
       ry="0.042100001"
       height="1.5892"
       width="0.1228"
       y="1.9613"
       x="-0.0614" />
  </g>
  <g
     id="g394"
     transform="translate(166.8892,3.3629997)">
    <path
       id="path392"
       fill="currentColor"
       d="m 308,62 c 0,23 -20,39 -40,39 -4,0 -7,0 -11,-1 C 228,92 183,62 148,39 113,16 69,-13 49,-36 43,-44 39,-52 39,-62 c 0,-23 20,-39 40,-39 4,0 7,0 11,1 29,8 74,38 109,61 35,23 79,52 99,75 6,8 10,16 10,26 z M 0,-59 c 0,142 114,198 251,198 53,0 96,-22 96,-80 0,-142 -115,-198 -252,-198 -53,0 -95,22 -95,80 z"
       transform="scale(0.0029,-0.0029)" />
  </g>
  <g
     id="g398"
     transform="translate(167.9111,3.7313997)">
    <path
       id="path396"
       fill="currentColor"
       d="m 208,139 c 61,0 117,-33 117,-99 0,-71 -52,-119 -99,-147 -34,-20 -71,-32 -110,-32 -61,0 -116,33 -116,99 0,71 51,119 98,147 34,20 71,32 110,32 z"
       transform="scale(0.0029,-0.0029)" />
  </g>
  <g
     id="g402"
     transform="translate(166.8892,4.8366997)">
    <path
       id="path400"
       fill="currentColor"
       d="m 308,62 c 0,23 -20,39 -40,39 -4,0 -7,0 -11,-1 C 228,92 183,62 148,39 113,16 69,-13 49,-36 43,-44 39,-52 39,-62 c 0,-23 20,-39 40,-39 4,0 7,0 11,1 29,8 74,38 109,61 35,23 79,52 99,75 6,8 10,16 10,26 z M 0,-59 c 0,142 114,198 251,198 53,0 96,-22 96,-80 0,-142 -115,-198 -252,-198 -53,0 -95,22 -95,80 z"
       transform="scale(0.0029,-0.0029)" />
  </g>
  <g
     id="g406"
     transform="translate(160.6692,4.4681997)">
    <rect
       id="rect404"
       fill="currentColor"
       ry="0.042100001"
       height="1.5892"
       width="0.1228"
       y="-3.5506001"
       x="-0.0614" />
  </g>
  <g
     id="g410"
     transform="translate(161.1474,4.4681997)">
    <rect
       id="rect408"
       fill="currentColor"
       ry="0.042100001"
       height="1.8565"
       width="0.1228"
       y="-2.3441999"
       x="-0.0614" />
  </g>
  <g
     id="g414"
     transform="translate(159.8355,4.4681997)">
    <rect
       id="rect412"
       fill="currentColor"
       ry="0.042100001"
       height="1.7269"
       width="0.1228"
       y="1.5929"
       x="-0.0614" />
  </g>
  <g
     id="g418"
     transform="translate(167.8497,4.4681997)">
    <rect
       id="rect416"
       fill="currentColor"
       ry="0.042100001"
       height="1.9134001"
       width="0.1228"
       y="-3.1930001"
       x="-0.0614" />
  </g>
  <g
     id="g422"
     transform="translate(102.3289,8.0227997)">
    <polygon
       id="polygon420"
       points="0.0421,0.1347 0.0421,-0.1347 10.1501,-0.742 10.1501,-0.4725 "
       stroke="currentColor"
       fill="currentColor"
       stroke-width="0.0842"
       stroke-linecap="round"
       stroke-linejoin="round" />
  </g>
  <g
     id="g426"
     transform="translate(9.2547,3.1241997)">
    <polygon
       id="polygon424"
       points="0.0421,0.1347 0.0421,-0.1347 16.8631,-0.394 16.8631,-0.1245 "
       stroke="currentColor"
       fill="currentColor"
       stroke-width="0.0842"
       stroke-linecap="round"
       stroke-linejoin="round" />
  </g>
  <g
     id="g430"
     transform="translate(30.5745,1.8892997)">
    <polygon
       id="polygon428"
       points="0.0421,0.1347 0.0421,-0.1347 16.6131,-0.1347 16.6131,0.1347 "
       stroke="currentColor"
       fill="currentColor"
       stroke-width="0.0842"
       stroke-linecap="round"
       stroke-linejoin="round" />
  </g>
  <g
     id="g434"
     transform="translate(51.7341,1.1524997)">
    <polygon
       id="polygon432"
       points="0.0421,0.1347 0.0421,-0.1347 17.1131,0.2337 17.1131,0.5032 "
       stroke="currentColor"
       fill="currentColor"
       stroke-width="0.0842"
       stroke-linecap="round"
       stroke-linejoin="round" />
  </g>
  <g
     id="g438"
     transform="translate(73.4056,1.8892997)">
    <polygon
       id="polygon436"
       points="0.0421,0.1347 0.0421,-0.1347 17.6837,-0.5032 17.6837,-0.2337 "
       stroke="currentColor"
       fill="currentColor"
       stroke-width="0.0842"
       stroke-linecap="round"
       stroke-linejoin="round" />
  </g>
  <g
     id="g442"
     transform="translate(73.8839,3.1241997)">
    <polygon
       id="polygon440"
       points="0.0421,0.1347 0.0421,-0.1347 3.5513,0.3429 3.5513,0.6123 "
       stroke="currentColor"
       fill="currentColor"
       stroke-width="0.0842"
       stroke-linecap="round"
       stroke-linejoin="round" />
  </g>
  <g
     id="g446"
     transform="translate(80.9501,2.9945997)">
    <polygon
       id="polygon444"
       points="0.0421,0.1347 0.0421,-0.1347 3.6763,-0.2644 3.6763,0.0051 "
       stroke="currentColor"
       fill="currentColor"
       stroke-width="0.0842"
       stroke-linecap="round"
       stroke-linejoin="round" />
  </g>
  <g
     id="g450"
     transform="translate(88.1413,2.8648997)">
    <polygon
       id="polygon448"
       points="0.0421,0.1347 0.0421,-0.1347 3.4263,0.1245 3.4263,0.394 "
       stroke="currentColor"
       fill="currentColor"
       stroke-width="0.0842"
       stroke-linecap="round"
       stroke-linejoin="round" />
  </g>
  <g
     id="g454"
     transform="translate(96.1997,3.6017997)">
    <polygon
       id="polygon452"
       points="0.0421,0.1347 0.0421,-0.1347 3.4371,0.1245 3.4371,0.394 "
       stroke="currentColor"
       fill="currentColor"
       stroke-width="0.0842"
       stroke-linecap="round"
       stroke-linejoin="round" />
  </g>
  <g
     id="g458"
     transform="translate(117.0602,6.5491997)">
    <polygon
       id="polygon456"
       points="0.0421,0.1347 0.0421,-0.1347 16.6131,-0.1347 16.6131,0.1347 "
       stroke="currentColor"
       fill="currentColor"
       stroke-width="0.0842"
       stroke-linecap="round"
       stroke-linejoin="round" />
  </g>
  <g
     id="g462"
     transform="translate(138.9283,1.1524997)">
    <polygon
       id="polygon460"
       points="0.0421,0.1347 0.0421,-0.1347 3.4371,0.1041 3.4371,0.3735 "
       stroke="currentColor"
       fill="currentColor"
       stroke-width="0.0842"
       stroke-linecap="round"
       stroke-linejoin="round" />
  </g>
  <g
     id="g466"
     transform="translate(138.0946,5.8122997)">
    <polygon
       id="polygon464"
       points="0.0421,0.1347 0.0421,-0.1347 3.4371,0.1245 3.4371,0.394 "
       stroke="currentColor"
       fill="currentColor"
       stroke-width="0.0842"
       stroke-linecap="round"
       stroke-linejoin="round" />
  </g>
  <g
     id="g470"
     transform="translate(145.7663,0.91369969)">
    <polygon
       id="polygon468"
       points="0.0421,0.1347 0.0421,-0.1347 3.4371,0.1041 3.4371,0.3735 "
       stroke="currentColor"
       fill="currentColor"
       stroke-width="0.0842"
       stroke-linecap="round"
       stroke-linejoin="round" />
  </g>
  <g
     id="g474"
     transform="translate(144.9326,6.5491997)">
    <polygon
       id="polygon472"
       points="0.0421,0.1347 0.0421,-0.1347 3.4371,0.1245 3.4371,0.394 "
       stroke="currentColor"
       fill="currentColor"
       stroke-width="0.0842"
       stroke-linecap="round"
       stroke-linejoin="round" />
  </g>
  <g
     id="g478"
     transform="translate(152.6043,0.17679969)">
    <polygon
       id="polygon476"
       points="0.0421,0.1347 0.0421,-0.1347 3.4299,0.1041 3.4299,0.3735 "
       stroke="currentColor"
       fill="currentColor"
       stroke-width="0.0842"
       stroke-linecap="round"
       stroke-linejoin="round" />
  </g>
  <g
     id="g482"
     transform="translate(153.0825,0.91369969)">
    <polygon
       id="polygon480"
       points="0.0421,0.1347 0.0421,-0.1347 3.4299,0.3429 3.4299,0.6123 "
       stroke="currentColor"
       fill="currentColor"
       stroke-width="0.0842"
       stroke-linecap="round"
       stroke-linejoin="round" />
  </g>
  <g
     id="g486"
     transform="translate(151.7705,7.0471997)">
    <polygon
       id="polygon484"
       points="0.0421,0.1347 0.0421,-0.1347 3.4299,0.1041 3.4299,0.3735 "
       stroke="currentColor"
       fill="currentColor"
       stroke-width="0.0842"
       stroke-linecap="round"
       stroke-linejoin="round" />
  </g>
  <g
     id="g490"
     transform="translate(160.6078,0.91369969)">
    <polygon
       id="polygon488"
       points="0.0421,0.1347 0.0421,-0.1347 3.5966,0.1041 3.5966,0.3735 "
       stroke="currentColor"
       fill="currentColor"
       stroke-width="0.0842"
       stroke-linecap="round"
       stroke-linejoin="round" />
  </g>
  <g
     id="g494"
     transform="translate(161.0861,2.1280997)">
    <polygon
       id="polygon492"
       points="0.0421,0.1347 0.0421,-0.1347 3.5966,-0.3735 3.5966,-0.1041 "
       stroke="currentColor"
       fill="currentColor"
       stroke-width="0.0842"
       stroke-linecap="round"
       stroke-linejoin="round" />
  </g>
  <g
     id="g498"
     transform="translate(168.8062,4.4681997)">
    <rect
       id="rect496"
       fill="currentColor"
       ry="0.042100001"
       height="2.0913"
       width="0.1228"
       y="-2.9474001"
       x="-0.0614" />
  </g>
  <g
     id="g502"
     transform="translate(166.9506,4.4681997)">
    <rect
       id="rect500"
       fill="currentColor"
       ry="0.042100001"
       height="2.1589999"
       width="0.1228"
       y="0.54269999"
       x="-0.0614" />
  </g>
  <g
     id="g506"
     transform="translate(172.4676,4.0997997)">
    <path
       id="path504"
       fill="currentColor"
       d="m 208,139 c 61,0 117,-33 117,-99 0,-71 -52,-119 -99,-147 -34,-20 -71,-32 -110,-32 -61,0 -116,33 -116,99 0,71 51,119 98,147 34,20 71,32 110,32 z"
       transform="scale(0.0029,-0.0029)" />
  </g>
  <g
     id="g510"
     transform="translate(173.3627,4.4681997)">
    <rect
       id="rect508"
       fill="currentColor"
       ry="0.042100001"
       height="2.2140999"
       width="0.1228"
       y="-2.7018001"
       x="-0.0614" />
  </g>
  <g
     id="g514"
     transform="translate(144.9326,4.4681997)">
    <path
       id="path512"
       fill="currentColor"
       d="m 208,139 c 61,0 117,-33 117,-99 0,-71 -52,-119 -99,-147 -34,-20 -71,-32 -110,-32 -61,0 -116,33 -116,99 0,71 51,119 98,147 34,20 71,32 110,32 z"
       transform="scale(0.0029,-0.0029)" />
  </g>
  <g
     id="g518"
     transform="translate(145.8277,4.4681997)">
    <rect
       id="rect516"
       fill="currentColor"
       ry="0.042100001"
       height="1.589"
       width="0.1228"
       y="-3.5504"
       x="-0.0614" />
  </g>
  <g
     id="g522"
     transform="translate(144.994,4.4681997)">
    <rect
       id="rect520"
       fill="currentColor"
       ry="0.042100001"
       height="1.9662"
       width="0.1228"
       y="0.1192"
       x="-0.0614" />
  </g>
  <g
     id="g526"
     transform="translate(144.9326,2.6260997)">
    <path
       id="path524"
       fill="currentColor"
       d="m 208,139 c 61,0 117,-33 117,-99 0,-71 -52,-119 -99,-147 -34,-20 -71,-32 -110,-32 -61,0 -116,33 -116,99 0,71 51,119 98,147 34,20 71,32 110,32 z"
       transform="scale(0.0029,-0.0029)" />
  </g>
  <g
     id="g530"
     transform="translate(148.2891,2.9945997)">
    <path
       id="path528"
       fill="currentColor"
       d="m 208,139 c 61,0 117,-33 117,-99 0,-71 -52,-119 -99,-147 -34,-20 -71,-32 -110,-32 -61,0 -116,33 -116,99 0,71 51,119 98,147 34,20 71,32 110,32 z"
       transform="scale(0.0029,-0.0029)" />
  </g>
  <g
     id="g534"
     transform="translate(148.2891,4.8366997)">
    <path
       id="path532"
       fill="currentColor"
       d="m 208,139 c 61,0 117,-33 117,-99 0,-71 -52,-119 -99,-147 -34,-20 -71,-32 -110,-32 -61,0 -116,33 -116,99 0,71 51,119 98,147 34,20 71,32 110,32 z"
       transform="scale(0.0029,-0.0029)" />
  </g>
  <g
     id="g538"
     transform="translate(149.1842,4.4681997)">
    <rect
       id="rect536"
       fill="currentColor"
       ry="0.042100001"
       height="1.7271"
       width="0.1228"
       y="-3.3199999"
       x="-0.0614" />
  </g>
  <g
     id="g542"
     transform="translate(148.3504,4.4681997)">
    <rect
       id="rect540"
       fill="currentColor"
       ry="0.042100001"
       height="1.8479"
       width="0.1228"
       y="0.4876"
       x="-0.0614" />
  </g>
  <g
     id="g546"
     transform="translate(142.3462,4.4681997)">
    <rect
       id="rect544"
       fill="currentColor"
       ry="0.042100001"
       height="1.8566999"
       width="0.1228"
       y="-3.0811999"
       x="-0.0614" />
  </g>
  <g
     id="g550"
     transform="translate(141.4511,3.3629997)">
    <path
       id="path548"
       fill="currentColor"
       d="m 208,139 c 61,0 117,-33 117,-99 0,-71 -52,-119 -99,-147 -34,-20 -71,-32 -110,-32 -61,0 -116,33 -116,99 0,71 51,119 98,147 34,20 71,32 110,32 z"
       transform="scale(0.0029,-0.0029)" />
  </g>
  <g
     id="g554"
     transform="translate(141.4511,4.0997997)">
    <path
       id="path552"
       fill="currentColor"
       d="m 208,139 c 61,0 117,-33 117,-99 0,-71 -52,-119 -99,-147 -34,-20 -71,-32 -110,-32 -61,0 -116,33 -116,99 0,71 51,119 98,147 34,20 71,32 110,32 z"
       transform="scale(0.0029,-0.0029)" />
  </g>
  <g
     id="g558"
     transform="translate(141.5125,4.4681997)">
    <rect
       id="rect556"
       fill="currentColor"
       ry="0.042100001"
       height="1.8479"
       width="0.1228"
       y="-0.2492"
       x="-0.0614" />
  </g>
  <g
     id="g562"
     transform="translate(155.598,4.4681997)">
    <path
       id="path560"
       fill="currentColor"
       d="m 208,139 c 61,0 117,-33 117,-99 0,-71 -52,-119 -99,-147 -34,-20 -71,-32 -110,-32 -61,0 -116,33 -116,99 0,71 51,119 98,147 34,20 71,32 110,32 z"
       transform="scale(0.0029,-0.0029)" />
  </g>
  <g
     id="g566"
     transform="translate(155.1198,5.5734997)">
    <path
       id="path564"
       fill="currentColor"
       d="m 208,139 c 61,0 117,-33 117,-99 0,-71 -52,-119 -99,-147 -34,-20 -71,-32 -110,-32 -61,0 -116,33 -116,99 0,71 51,119 98,147 34,20 71,32 110,32 z"
       transform="scale(0.0029,-0.0029)" />
  </g>
  <g
     id="g570"
     transform="translate(156.0149,4.4681997)">
    <rect
       id="rect568"
       fill="currentColor"
       ry="0.042100001"
       height="1.7271"
       width="0.1228"
       y="-4.0569"
       x="-0.0614" />
  </g>
  <g
     id="g574"
     transform="translate(156.4931,4.4681997)">
    <rect
       id="rect572"
       fill="currentColor"
       ry="0.042100001"
       height="2.9662001"
       width="0.1228"
       y="-3.0854001"
       x="-0.0614" />
  </g>
  <g
     id="g578"
     transform="translate(155.1198,2.2576997)">
    <path
       id="path576"
       fill="currentColor"
       d="m 208,139 c 61,0 117,-33 117,-99 0,-71 -52,-119 -99,-147 -34,-20 -71,-32 -110,-32 -61,0 -116,33 -116,99 0,71 51,119 98,147 34,20 71,32 110,32 z"
       transform="scale(0.0029,-0.0029)" />
  </g>
  <g
     id="g582"
     transform="translate(155.1812,4.4681997)">
    <rect
       id="rect580"
       fill="currentColor"
       ry="0.042100001"
       height="1.589"
       width="0.1228"
       y="1.2244999"
       x="-0.0614" />
  </g>
  <g
     id="g586"
     transform="translate(159.7741,2.6260997)">
    <path
       id="path584"
       fill="currentColor"
       d="m 208,139 c 61,0 117,-33 117,-99 0,-71 -52,-119 -99,-147 -34,-20 -71,-32 -110,-32 -61,0 -116,33 -116,99 0,71 51,119 98,147 34,20 71,32 110,32 z"
       transform="scale(0.0029,-0.0029)" />
  </g>
  <g
     id="g590"
     transform="translate(160.2523,4.0997997)">
    <path
       id="path588"
       fill="currentColor"
       d="m 208,139 c 61,0 117,-33 117,-99 0,-71 -52,-119 -99,-147 -34,-20 -71,-32 -110,-32 -61,0 -116,33 -116,99 0,71 51,119 98,147 34,20 71,32 110,32 z"
       transform="scale(0.0029,-0.0029)" />
  </g>
  <g
     id="g594"
     transform="translate(159.7741,5.9418997)">
    <path
       id="path592"
       fill="currentColor"
       d="m 208,139 c 61,0 117,-33 117,-99 0,-71 -52,-119 -99,-147 -34,-20 -71,-32 -110,-32 -61,0 -116,33 -116,99 0,71 51,119 98,147 34,20 71,32 110,32 z"
       transform="scale(0.0029,-0.0029)" />
  </g>
  <g
     id="g598"
     transform="translate(153.1439,4.4681997)">
    <rect
       id="rect596"
       fill="currentColor"
       ry="0.042100001"
       height="2.6901"
       width="0.1228"
       y="-3.5460999"
       x="-0.0614" />
  </g>
  <g
     id="g602"
     transform="translate(151.7705,1.8892997)">
    <path
       id="path600"
       fill="currentColor"
       d="m 208,139 c 61,0 117,-33 117,-99 0,-71 -52,-119 -99,-147 -34,-20 -71,-32 -110,-32 -61,0 -116,33 -116,99 0,71 51,119 98,147 34,20 71,32 110,32 z"
       transform="scale(0.0029,-0.0029)" />
  </g>
  <g
     id="g606"
     transform="translate(152.2488,3.7313997)">
    <path
       id="path604"
       fill="currentColor"
       d="m 208,139 c 61,0 117,-33 117,-99 0,-71 -52,-119 -99,-147 -34,-20 -71,-32 -110,-32 -61,0 -116,33 -116,99 0,71 51,119 98,147 34,20 71,32 110,32 z"
       transform="scale(0.0029,-0.0029)" />
  </g>
  <g
     id="g610"
     transform="translate(151.7705,5.2050997)">
    <path
       id="path608"
       fill="currentColor"
       d="m 208,139 c 61,0 117,-33 117,-99 0,-71 -52,-119 -99,-147 -34,-20 -71,-32 -110,-32 -61,0 -116,33 -116,99 0,71 51,119 98,147 34,20 71,32 110,32 z"
       transform="scale(0.0029,-0.0029)" />
  </g>
  <g
     id="g614"
     transform="translate(152.6657,4.4681997)">
    <rect
       id="rect612"
       fill="currentColor"
       ry="0.042100001"
       height="1.589"
       width="0.1228"
       y="-4.2872"
       x="-0.0614" />
  </g>
  <g
     id="g618"
     transform="translate(151.8319,4.4681997)">
    <rect
       id="rect616"
       fill="currentColor"
       ry="0.042100001"
       height="1.7271"
       width="0.1228"
       y="0.85610002"
       x="-0.0614" />
  </g>
  <g
     id="g622"
     transform="translate(39.8102,3.7313997)">
    <path
       id="path620"
       fill="currentColor"
       d="m 208,139 c 61,0 117,-33 117,-99 0,-71 -52,-119 -99,-147 -34,-20 -71,-32 -110,-32 -61,0 -116,33 -116,99 0,71 51,119 98,147 34,20 71,32 110,32 z"
       transform="scale(0.0029,-0.0029)" />
  </g>
  <g
     id="g626"
     transform="translate(37.8271,4.4681997)">
    <rect
       id="rect624"
       fill="currentColor"
       ry="0.042100001"
       height="2.4597001"
       width="0.1228"
       y="-1.1052999"
       x="-0.0614" />
  </g>
  <g
     id="g630"
     transform="translate(38.21,7.7839997)">
    <path
       id="path628"
       fill="currentColor"
       d="M 0,0 C 0,30 25,55 55,55 85,55 109,30 109,0 109,-30 85,-55 55,-55 25,-55 0,-30 0,0 Z"
       transform="scale(0.0029,-0.0029)" />
  </g>
  <g
     id="g634"
     transform="translate(36.5151,4.4681997)">
    <rect
       id="rect632"
       fill="currentColor"
       ry="0.042100001"
       height="1.7229"
       width="0.1228"
       y="3.0666001"
       x="-0.0614" />
  </g>
  <g
     id="g638"
     transform="translate(38.21,5.5734997)">
    <path
       id="path636"
       fill="currentColor"
       d="M 0,0 C 0,30 25,55 55,55 85,55 109,30 109,0 109,-30 85,-55 55,-55 25,-55 0,-30 0,0 Z"
       transform="scale(0.0029,-0.0029)" />
  </g>
  <g
     id="g642"
     transform="translate(40.7053,4.4681997)">
    <rect
       id="rect640"
       fill="currentColor"
       ry="0.042100001"
       height="1.7229"
       width="0.1228"
       y="-2.5789001"
       x="-0.0614" />
  </g>
  <g
     id="g646"
     transform="translate(42.9167,4.4681997)">
    <path
       id="path644"
       fill="currentColor"
       d="m 208,139 c 61,0 117,-33 117,-99 0,-71 -52,-119 -99,-147 -34,-20 -71,-32 -110,-32 -61,0 -116,33 -116,99 0,71 51,119 98,147 34,20 71,32 110,32 z"
       transform="scale(0.0029,-0.0029)" />
  </g>
  <g
     id="g650"
     transform="translate(43.8118,4.4681997)">
    <rect
       id="rect648"
       fill="currentColor"
       ry="0.042100001"
       height="2.4597001"
       width="0.1228"
       y="-2.5789001"
       x="-0.0614" />
  </g>
  <g
     id="g654"
     transform="translate(33.0972,4.4681997)">
    <path
       id="path652"
       fill="currentColor"
       d="m 208,139 c 61,0 117,-33 117,-99 0,-71 -52,-119 -99,-147 -34,-20 -71,-32 -110,-32 -61,0 -116,33 -116,99 0,71 51,119 98,147 34,20 71,32 110,32 z"
       transform="scale(0.0029,-0.0029)" />
  </g>
  <g
     id="g658"
     transform="translate(33.9923,4.4681997)">
    <rect
       id="rect656"
       fill="currentColor"
       ry="0.042100001"
       height="2.4597001"
       width="0.1228"
       y="-2.5789001"
       x="-0.0614" />
  </g>
  <g
     id="g662"
     transform="translate(36.4537,4.0997997)">
    <path
       id="path660"
       fill="currentColor"
       d="m 208,139 c 61,0 117,-33 117,-99 0,-71 -52,-119 -99,-147 -34,-20 -71,-32 -110,-32 -61,0 -116,33 -116,99 0,71 51,119 98,147 34,20 71,32 110,32 z"
       transform="scale(0.0029,-0.0029)" />
  </g>
  <g
     id="g666"
     transform="translate(36.932,5.9418997)">
    <path
       id="path664"
       fill="currentColor"
       d="m 208,139 c 61,0 117,-33 117,-99 0,-71 -52,-119 -99,-147 -34,-20 -71,-32 -110,-32 -61,0 -116,33 -116,99 0,71 51,119 98,147 34,20 71,32 110,32 z"
       transform="scale(0.0029,-0.0029)" />
  </g>
  <g
     id="g670"
     transform="translate(36.4537,7.4155997)">
    <path
       id="path668"
       fill="currentColor"
       d="m 208,139 c 61,0 117,-33 117,-99 0,-71 -52,-119 -99,-147 -34,-20 -71,-32 -110,-32 -61,0 -116,33 -116,99 0,71 51,119 98,147 34,20 71,32 110,32 z"
       transform="scale(0.0029,-0.0029)" />
  </g>
  <g
     id="g674"
     transform="translate(37.3488,4.4681997)">
    <rect
       id="rect672"
       fill="currentColor"
       ry="0.042100001"
       height="2.0913"
       width="0.1228"
       y="-2.5789001"
       x="-0.0614" />
  </g>
  <g
     id="g678"
     transform="translate(51.7955,4.4681997)">
    <rect
       id="rect676"
       fill="currentColor"
       ry="0.042100001"
       height="2.4584"
       width="0.1228"
       y="-3.3145001"
       x="-0.0614" />
  </g>
  <g
     id="g682"
     transform="translate(52.2737,4.4681997)">
    <rect
       id="rect680"
       fill="currentColor"
       ry="0.042100001"
       height="2.4597001"
       width="0.1228"
       y="-1.4737"
       x="-0.0614" />
  </g>
  <g
     id="g686"
     transform="translate(91.5483,4.4681997)">
    <rect
       id="rect684"
       fill="currentColor"
       ry="0.042100001"
       height="2.7031"
       width="0.1228"
       y="-1.3486"
       x="-0.0614" />
  </g>
  <g
     id="g690"
     transform="translate(46.2732,4.0997997)">
    <path
       id="path688"
       fill="currentColor"
       d="m 208,139 c 61,0 117,-33 117,-99 0,-71 -52,-119 -99,-147 -34,-20 -71,-32 -110,-32 -61,0 -116,33 -116,99 0,71 51,119 98,147 34,20 71,32 110,32 z"
       transform="scale(0.0029,-0.0029)" />
  </g>
  <g
     id="g694"
     transform="translate(46.7514,5.2050997)">
    <path
       id="path692"
       fill="currentColor"
       d="m 208,139 c 61,0 117,-33 117,-99 0,-71 -52,-119 -99,-147 -34,-20 -71,-32 -110,-32 -61,0 -116,33 -116,99 0,71 51,119 98,147 34,20 71,32 110,32 z"
       transform="scale(0.0029,-0.0029)" />
  </g>
  <g
     id="g698"
     transform="translate(46.2732,7.4155997)">
    <path
       id="path696"
       fill="currentColor"
       d="m 208,139 c 61,0 117,-33 117,-99 0,-71 -52,-119 -99,-147 -34,-20 -71,-32 -110,-32 -61,0 -116,33 -116,99 0,71 51,119 98,147 34,20 71,32 110,32 z"
       transform="scale(0.0029,-0.0029)" />
  </g>
  <g
     id="g702"
     transform="translate(47.1683,4.4681997)">
    <rect
       id="rect700"
       fill="currentColor"
       ry="0.042100001"
       height="2.0913"
       width="0.1228"
       y="-2.5789001"
       x="-0.0614" />
  </g>
  <g
     id="g706"
     transform="translate(47.6465,4.4681997)">
    <rect
       id="rect704"
       fill="currentColor"
       ry="0.042100001"
       height="2.4597001"
       width="0.1228"
       y="-1.8421"
       x="-0.0614" />
  </g>
  <g
     id="g710"
     transform="translate(47.7079,2.6681997)">
    <path
       id="path708"
       fill="currentColor"
       d="m 0,0 c 0,-196 207,-334 207,-530 0,-71 -15,-140 -41,-206 -5,-10 -14,-13 -23,-13 -14,0 -28,10 -28,26 0,2 1,3 1,5 26,59 42,123 42,188 0,101 -90,205 -158,280 H -21 V 0 Z"
       transform="scale(0.0029,-0.0029)" />
  </g>
  <g
     id="g714"
     transform="translate(46.3346,4.4681997)">
    <rect
       id="rect712"
       fill="currentColor"
       ry="0.042100001"
       height="2.0913"
       width="0.1228"
       y="3.0666001"
       x="-0.0614" />
  </g>
  <g
     id="g718"
     transform="translate(46.3959,9.5839997)">
    <path
       id="path716"
       fill="currentColor"
       d="m 0,250 c 94,60 217,150 217,259 0,56 -15,110 -41,160 v 6 c 0,16 14,26 28,26 9,0 17,-4 22,-14 25,-56 40,-116 40,-178 C 266,306 0,203 0,0 h -21 v 250 z"
       transform="scale(0.0029,-0.0029)" />
  </g>
  <g
     id="g722"
     transform="translate(50.9004,3.7313997)">
    <path
       id="path720"
       fill="currentColor"
       d="m 208,139 c 61,0 117,-33 117,-99 0,-71 -52,-119 -99,-147 -34,-20 -71,-32 -110,-32 -61,0 -116,33 -116,99 0,71 51,119 98,147 34,20 71,32 110,32 z"
       transform="scale(0.0029,-0.0029)" />
  </g>
  <g
     id="g726"
     transform="translate(51.3786,5.5734997)">
    <path
       id="path724"
       fill="currentColor"
       d="m 208,139 c 61,0 117,-33 117,-99 0,-71 -52,-119 -99,-147 -34,-20 -71,-32 -110,-32 -61,0 -116,33 -116,99 0,71 51,119 98,147 34,20 71,32 110,32 z"
       transform="scale(0.0029,-0.0029)" />
  </g>
  <g
     id="g730"
     transform="translate(50.9004,7.0471997)">
    <path
       id="path728"
       fill="currentColor"
       d="m 208,139 c 61,0 117,-33 117,-99 0,-71 -52,-119 -99,-147 -34,-20 -71,-32 -110,-32 -61,0 -116,33 -116,99 0,71 51,119 98,147 34,20 71,32 110,32 z"
       transform="scale(0.0029,-0.0029)" />
  </g>
  <g
     id="g734"
     transform="translate(16.0291,4.4681997)">
    <rect
       id="rect732"
       fill="currentColor"
       ry="0.042100001"
       height="3.1708"
       width="0.1228"
       y="-1.4479001"
       x="-0.0614" />
  </g>
  <g
     id="g738"
     transform="translate(11.7775,5.9418997)">
    <path
       id="path736"
       fill="currentColor"
       d="m 208,139 c 61,0 117,-33 117,-99 0,-71 -52,-119 -99,-147 -34,-20 -71,-32 -110,-32 -61,0 -116,33 -116,99 0,71 51,119 98,147 34,20 71,32 110,32 z"
       transform="scale(0.0029,-0.0029)" />
  </g>
  <g
     id="g742"
     transform="translate(12.6726,4.4681997)">
    <rect
       id="rect740"
       fill="currentColor"
       ry="0.042100001"
       height="2.7509"
       width="0.1228"
       y="-1.3965"
       x="-0.0614" />
  </g>
  <g
     id="g746"
     transform="translate(15.134,6.3103997)">
    <path
       id="path744"
       fill="currentColor"
       d="m 208,139 c 61,0 117,-33 117,-99 0,-71 -52,-119 -99,-147 -34,-20 -71,-32 -110,-32 -61,0 -116,33 -116,99 0,71 51,119 98,147 34,20 71,32 110,32 z"
       transform="scale(0.0029,-0.0029)" />
  </g>
  <g
     id="g750"
     transform="translate(16.0905,6.3103997)">
    <path
       id="path748"
       fill="currentColor"
       d="m 208,139 c 61,0 117,-33 117,-99 0,-71 -52,-119 -99,-147 -34,-20 -71,-32 -110,-32 -61,0 -116,33 -116,99 0,71 51,119 98,147 34,20 71,32 110,32 z"
       transform="scale(0.0029,-0.0029)" />
  </g>
  <g
     id="g754"
     transform="translate(17.3685,6.3103997)">
    <path
       id="path752"
       fill="currentColor"
       d="M 0,0 C 0,30 25,55 55,55 85,55 109,30 109,0 109,-30 85,-55 55,-55 25,-55 0,-30 0,0 Z"
       transform="scale(0.0029,-0.0029)" />
  </g>
  <g
     id="g758"
     transform="translate(16.1519,4.4681997)">
    <rect
       id="rect756"
       fill="currentColor"
       ry="0.042100001"
       height="1.7229"
       width="0.1228"
       y="1.9613"
       x="-0.0614" />
  </g>
  <g
     id="g762"
     transform="translate(0.8,5.2050997)">
    <path
       id="path760"
       fill="currentColor"
       d="m 381,266 h 9 c 157,0 258,-130 258,-264 0,-77 -33,-156 -108,-212 -22,-16 -46,-28 -71,-36 2,-32 3,-65 3,-97 0,-21 -1,-43 -2,-64 -7,-122 -91,-230 -211,-230 -108,0 -197,88 -197,197 0,58 54,104 113,104 54,0 95,-48 95,-104 0,-52 -43,-95 -95,-95 -8,0 -16,2 -24,4 25,-35 65,-59 111,-59 95,0 155,92 161,190 1,20 2,39 2,59 0,28 -1,55 -3,83 -29,-5 -57,-7 -87,-7 -189,0 -333,174 -333,377 0,176 128,307 242,443 -21,62 -41,124 -50,189 -7,52 -8,106 -8,159 0,113 54,219 146,286 8,6 21,7 29,0 72,-82 136,-244 136,-357 0,-141 -83,-253 -174,-362 22,-67 41,-135 58,-204 z m 83,-466 c 64,25 108,93 108,159 0,87 -62,173 -163,187 24,-113 43,-225 55,-346 z m -126,-18 c 27,0 54,2 80,6 C 405,-87 385,30 360,147 281,140 237,88 237,31 c 0,-43 24,-89 78,-120 5,-5 8,-11 8,-17 0,-13 -11,-24 -24,-24 -3,0 -7,0 -10,2 -81,44 -119,116 -119,187 0,90 60,178 164,201 -14,56 -30,112 -47,167 C 183,305 79,182 79,23 79,-109 206,-218 338,-218 Z M 239,782 c 0,-69 22,-127 41,-183 77,97 140,199 140,323 0,49 -3,69 -19,113 C 302,990 239,890 239,782 Z"
       transform="scale(0.0029,-0.0029)" />
  </g>
  <g
     id="g766"
     transform="translate(4.3,2.9945997)">
    <path
       id="path764"
       fill="currentColor"
       d="m 0,114 c 0,12 7,22 18,26 l 37,15 v 151 c 0,12 10,22 22,22 12,0 22,-10 22,-22 V 172 l 77,29 v 152 c 0,12 10,22 22,22 12,0 22,-10 22,-22 V 219 l 16,6 c 3,1 8,2 11,2 15,0 28,-12 28,-28 v -50 c 0,-12 -7,-23 -18,-27 L 220,108 V -44 l 16,7 c 3,1 8,2 11,2 15,0 28,-13 28,-29 v -50 c 0,-12 -7,-22 -18,-26 l -37,-15 v -151 c 0,-12 -10,-22 -22,-22 -12,0 -22,10 -22,22 v 134 l -77,-29 v -152 c 0,-12 -10,-22 -22,-22 -12,0 -22,10 -22,22 v 134 l -16,-6 c -3,-1 -8,-2 -11,-2 -15,0 -28,12 -28,28 v 50 c 0,12 7,23 18,27 l 37,14 V 44 L 39,37 C 36,36 31,35 28,35 13,35 0,48 0,64 Z M 176,91 99,61 V -91 l 77,30 z"
       transform="scale(0.0029,-0.0029)" />
  </g>
  <g
     id="g770"
     transform="translate(5.1105,4.0997997)">
    <path
       id="path768"
       fill="currentColor"
       d="m 0,114 c 0,12 7,22 18,26 l 37,15 v 151 c 0,12 10,22 22,22 12,0 22,-10 22,-22 V 172 l 77,29 v 152 c 0,12 10,22 22,22 12,0 22,-10 22,-22 V 219 l 16,6 c 3,1 8,2 11,2 15,0 28,-12 28,-28 v -50 c 0,-12 -7,-23 -18,-27 L 220,108 V -44 l 16,7 c 3,1 8,2 11,2 15,0 28,-13 28,-29 v -50 c 0,-12 -7,-22 -18,-26 l -37,-15 v -151 c 0,-12 -10,-22 -22,-22 -12,0 -22,10 -22,22 v 134 l -77,-29 v -152 c 0,-12 -10,-22 -22,-22 -12,0 -22,10 -22,22 v 134 l -16,-6 c -3,-1 -8,-2 -11,-2 -15,0 -28,12 -28,28 v 50 c 0,12 7,23 18,27 l 37,14 V 44 L 39,37 C 36,36 31,35 28,35 13,35 0,48 0,64 Z M 176,91 99,61 V -91 l 77,30 z"
       transform="scale(0.0029,-0.0029)" />
  </g>
  <g
     id="g774"
     transform="translate(8.421,5.5734997)">
    <path
       id="path772"
       fill="currentColor"
       d="m 208,139 c 61,0 117,-33 117,-99 0,-71 -52,-119 -99,-147 -34,-20 -71,-32 -110,-32 -61,0 -116,33 -116,99 0,71 51,119 98,147 34,20 71,32 110,32 z"
       transform="scale(0.0029,-0.0029)" />
  </g>
  <g
     id="g778"
     transform="translate(8.421,6.3103997)">
    <path
       id="path776"
       fill="currentColor"
       d="m 208,139 c 61,0 117,-33 117,-99 0,-71 -52,-119 -99,-147 -34,-20 -71,-32 -110,-32 -61,0 -116,33 -116,99 0,71 51,119 98,147 34,20 71,32 110,32 z"
       transform="scale(0.0029,-0.0029)" />
  </g>
  <g
     id="g782"
     transform="translate(9.3161,4.4681997)">
    <rect
       id="rect780"
       fill="currentColor"
       ry="0.042100001"
       height="2.3310001"
       width="0.1228"
       y="-1.345"
       x="-0.0614" />
  </g>
  <g
     id="g786"
     transform="translate(8.4824,4.4681997)">
    <rect
       id="rect784"
       fill="currentColor"
       ry="0.042100001"
       height="1.7229"
       width="0.1228"
       y="1.9613"
       x="-0.0614" />
  </g>
  <g
     id="g790"
     transform="translate(24.0429,5.2050997)">
    <path
       id="path788"
       fill="currentColor"
       d="m 0,114 c 0,12 7,22 18,26 l 37,15 v 151 c 0,12 10,22 22,22 12,0 22,-10 22,-22 V 172 l 77,29 v 152 c 0,12 10,22 22,22 12,0 22,-10 22,-22 V 219 l 16,6 c 3,1 8,2 11,2 15,0 28,-12 28,-28 v -50 c 0,-12 -7,-23 -18,-27 L 220,108 V -44 l 16,7 c 3,1 8,2 11,2 15,0 28,-13 28,-29 v -50 c 0,-12 -7,-22 -18,-26 l -37,-15 v -151 c 0,-12 -10,-22 -22,-22 -12,0 -22,10 -22,22 v 134 l -77,-29 v -152 c 0,-12 -10,-22 -22,-22 -12,0 -22,10 -22,22 v 134 l -16,-6 c -3,-1 -8,-2 -11,-2 -15,0 -28,12 -28,28 v 50 c 0,12 7,23 18,27 l 37,14 V 44 L 39,37 C 36,36 31,35 28,35 13,35 0,48 0,64 Z M 176,91 99,61 V -91 l 77,30 z"
       transform="scale(0.0029,-0.0029)" />
  </g>
  <g
     id="g794"
     transform="translate(29.7407,4.8366997)">
    <path
       id="path792"
       fill="currentColor"
       d="m 208,139 c 61,0 117,-33 117,-99 0,-71 -52,-119 -99,-147 -34,-20 -71,-32 -110,-32 -61,0 -116,33 -116,99 0,71 51,119 98,147 34,20 71,32 110,32 z"
       transform="scale(0.0029,-0.0029)" />
  </g>
  <g
     id="g798"
     transform="translate(30.219,5.9418997)">
    <path
       id="path796"
       fill="currentColor"
       d="m 208,139 c 61,0 117,-33 117,-99 0,-71 -52,-119 -99,-147 -34,-20 -71,-32 -110,-32 -61,0 -116,33 -116,99 0,71 51,119 98,147 34,20 71,32 110,32 z"
       transform="scale(0.0029,-0.0029)" />
  </g>
  <g
     id="g802"
     transform="translate(29.7407,6.6787997)">
    <path
       id="path800"
       fill="currentColor"
       d="m 208,139 c 61,0 117,-33 117,-99 0,-71 -52,-119 -99,-147 -34,-20 -71,-32 -110,-32 -61,0 -116,33 -116,99 0,71 51,119 98,147 34,20 71,32 110,32 z"
       transform="scale(0.0029,-0.0029)" />
  </g>
  <g
     id="g806"
     transform="translate(30.6358,4.4681997)">
    <rect
       id="rect804"
       fill="currentColor"
       ry="0.042100001"
       height="2.8281"
       width="0.1228"
       y="-2.5789001"
       x="-0.0614" />
  </g>
  <g
     id="g810"
     transform="translate(25.3262,8.4787997)">
    <path
       id="path808"
       fill="currentColor"
       d="m 0,250 c 94,60 217,150 217,259 0,56 -15,110 -41,160 v 6 c 0,16 14,26 28,26 9,0 17,-4 22,-14 25,-56 40,-116 40,-178 C 266,306 0,203 0,0 h -21 v 250 z"
       transform="scale(0.0029,-0.0029)" />
  </g>
  <g
     id="g814"
     transform="translate(31.1141,4.4681997)">
    <rect
       id="rect812"
       fill="currentColor"
       ry="0.042100001"
       height="2.4597001"
       width="0.1228"
       y="-1.1052999"
       x="-0.0614" />
  </g>
  <g
     id="g818"
     transform="translate(29.8021,4.4681997)">
    <rect
       id="rect816"
       fill="currentColor"
       ry="0.042100001"
       height="1.7229"
       width="0.1228"
       y="2.3297999"
       x="-0.0614" />
  </g>
  <g
     id="g822"
     transform="translate(18.4905,5.9418997)">
    <path
       id="path820"
       fill="currentColor"
       d="m 208,139 c 61,0 117,-33 117,-99 0,-71 -52,-119 -99,-147 -34,-20 -71,-32 -110,-32 -61,0 -116,33 -116,99 0,71 51,119 98,147 34,20 71,32 110,32 z"
       transform="scale(0.0029,-0.0029)" />
  </g>
  <g
     id="g826"
     transform="translate(19.3856,4.4681997)">
    <rect
       id="rect824"
       fill="currentColor"
       ry="0.042100001"
       height="2.8539"
       width="0.1228"
       y="-1.4994"
       x="-0.0614" />
  </g>
  <g
     id="g830"
     transform="translate(21.847,5.5734997)">
    <path
       id="path828"
       fill="currentColor"
       d="m 208,139 c 61,0 117,-33 117,-99 0,-71 -52,-119 -99,-147 -34,-20 -71,-32 -110,-32 -61,0 -116,33 -116,99 0,71 51,119 98,147 34,20 71,32 110,32 z"
       transform="scale(0.0029,-0.0029)" />
  </g>
  <g
     id="g834"
     transform="translate(22.7421,4.4681997)">
    <rect
       id="rect832"
       fill="currentColor"
       ry="0.042100001"
       height="2.5369"
       width="0.1228"
       y="-1.5509"
       x="-0.0614" />
  </g>
  <g
     id="g838"
     transform="translate(50.9618,4.4681997)">
    <rect
       id="rect836"
       fill="currentColor"
       ry="0.042100001"
       height="1.7229"
       width="0.1228"
       y="2.6982"
       x="-0.0614" />
  </g>
  <g
     id="g842"
     transform="translate(25.2035,5.2050997)">
    <path
       id="path840"
       fill="currentColor"
       d="m 208,139 c 61,0 117,-33 117,-99 0,-71 -52,-119 -99,-147 -34,-20 -71,-32 -110,-32 -61,0 -116,33 -116,99 0,71 51,119 98,147 34,20 71,32 110,32 z"
       transform="scale(0.0029,-0.0029)" />
  </g>
  <g
     id="g846"
     transform="translate(25.2035,6.3103997)">
    <path
       id="path844"
       fill="currentColor"
       d="m 208,139 c 61,0 117,-33 117,-99 0,-71 -52,-119 -99,-147 -34,-20 -71,-32 -110,-32 -61,0 -116,33 -116,99 0,71 51,119 98,147 34,20 71,32 110,32 z"
       transform="scale(0.0029,-0.0029)" />
  </g>
  <g
     id="g850"
     transform="translate(26.0986,4.4681997)">
    <rect
       id="rect848"
       fill="currentColor"
       ry="0.042100001"
       height="2.22"
       width="0.1228"
       y="-1.6023999"
       x="-0.0614" />
  </g>
  <g
     id="g854"
     transform="translate(25.2648,4.4681997)">
    <rect
       id="rect852"
       fill="currentColor"
       ry="0.042100001"
       height="2.0913"
       width="0.1228"
       y="1.9613"
       x="-0.0614" />
  </g>
  <g
     id="g858"
     transform="translate(76.0425,4.4681997)">
    <path
       id="path856"
       fill="currentColor"
       d="m 208,139 c 61,0 117,-33 117,-99 0,-71 -52,-119 -99,-147 -34,-20 -71,-32 -110,-32 -61,0 -116,33 -116,99 0,71 51,119 98,147 34,20 71,32 110,32 z"
       transform="scale(0.0029,-0.0029)" />
  </g>
  <g
     id="g862"
     transform="translate(76.5208,6.3103997)">
    <path
       id="path860"
       fill="currentColor"
       d="m 208,139 c 61,0 117,-33 117,-99 0,-71 -52,-119 -99,-147 -34,-20 -71,-32 -110,-32 -61,0 -116,33 -116,99 0,71 51,119 98,147 34,20 71,32 110,32 z"
       transform="scale(0.0029,-0.0029)" />
  </g>
  <g
     id="g866"
     transform="translate(76.9376,4.4681997)">
    <rect
       id="rect864"
       fill="currentColor"
       ry="0.042100001"
       height="2.5330999"
       width="0.1228"
       y="-2.6524"
       x="-0.0614" />
  </g>
  <g
     id="g870"
     transform="translate(77.4159,4.4681997)">
    <rect
       id="rect868"
       fill="currentColor"
       ry="0.042100001"
       height="2.5975001"
       width="0.1228"
       y="-0.87459999"
       x="-0.0614" />
  </g>
  <g
     id="g874"
     transform="translate(79.6381,4.0997997)">
    <path
       id="path872"
       fill="currentColor"
       d="m 208,139 c 61,0 117,-33 117,-99 0,-71 -52,-119 -99,-147 -34,-20 -71,-32 -110,-32 -61,0 -116,33 -116,99 0,71 51,119 98,147 34,20 71,32 110,32 z"
       transform="scale(0.0029,-0.0029)" />
  </g>
  <g
     id="g878"
     transform="translate(80.1164,5.9418997)">
    <path
       id="path876"
       fill="currentColor"
       d="m 208,139 c 61,0 117,-33 117,-99 0,-71 -52,-119 -99,-147 -34,-20 -71,-32 -110,-32 -61,0 -116,33 -116,99 0,71 51,119 98,147 34,20 71,32 110,32 z"
       transform="scale(0.0029,-0.0029)" />
  </g>
  <g
     id="g882"
     transform="translate(79.6381,7.4155997)">
    <path
       id="path880"
       fill="currentColor"
       d="m 208,139 c 61,0 117,-33 117,-99 0,-71 -52,-119 -99,-147 -34,-20 -71,-32 -110,-32 -61,0 -116,33 -116,99 0,71 51,119 98,147 34,20 71,32 110,32 z"
       transform="scale(0.0029,-0.0029)" />
  </g>
  <g
     id="g886"
     transform="translate(80.5332,4.4681997)">
    <rect
       id="rect884"
       fill="currentColor"
       ry="0.042100001"
       height="2.2393999"
       width="0.1228"
       y="-2.7270999"
       x="-0.0614" />
  </g>
  <g
     id="g890"
     transform="translate(81.0115,4.4681997)">
    <rect
       id="rect888"
       fill="currentColor"
       ry="0.042100001"
       height="2.8303001"
       width="0.1228"
       y="-1.4758"
       x="-0.0614" />
  </g>
  <g
     id="g894"
     transform="translate(73.467,4.4681997)">
    <rect
       id="rect892"
       fill="currentColor"
       ry="0.042100001"
       height="2.8294001"
       width="0.1228"
       y="-2.5802"
       x="-0.0614" />
  </g>
  <g
     id="g898"
     transform="translate(73.9453,4.4681997)">
    <rect
       id="rect896"
       fill="currentColor"
       ry="0.042100001"
       height="2.3218999"
       width="0.1228"
       y="-1.3358999"
       x="-0.0614" />
  </g>
  <g
     id="g902"
     transform="translate(86.8293,3.3629997)">
    <path
       id="path900"
       fill="currentColor"
       d="m 208,139 c 61,0 117,-33 117,-99 0,-71 -52,-119 -99,-147 -34,-20 -71,-32 -110,-32 -61,0 -116,33 -116,99 0,71 51,119 98,147 34,20 71,32 110,32 z"
       transform="scale(0.0029,-0.0029)" />
  </g>
  <g
     id="g906"
     transform="translate(87.3076,5.2050997)">
    <path
       id="path904"
       fill="currentColor"
       d="m 208,139 c 61,0 117,-33 117,-99 0,-71 -52,-119 -99,-147 -34,-20 -71,-32 -110,-32 -61,0 -116,33 -116,99 0,71 51,119 98,147 34,20 71,32 110,32 z"
       transform="scale(0.0029,-0.0029)" />
  </g>
  <g
     id="g910"
     transform="translate(87.7245,4.4681997)">
    <rect
       id="rect908"
       fill="currentColor"
       ry="0.042100001"
       height="1.6521"
       width="0.1228"
       y="-2.8766"
       x="-0.0614" />
  </g>
  <g
     id="g914"
     transform="translate(88.2027,4.4681997)">
    <rect
       id="rect912"
       fill="currentColor"
       ry="0.042100001"
       height="2.2163"
       width="0.1228"
       y="-1.5987"
       x="-0.0614" />
  </g>
  <g
     id="g918"
     transform="translate(90.175,4.0997997)">
    <path
       id="path916"
       fill="currentColor"
       d="m 208,139 c 61,0 117,-33 117,-99 0,-71 -52,-119 -99,-147 -34,-20 -71,-32 -110,-32 -61,0 -116,33 -116,99 0,71 51,119 98,147 34,20 71,32 110,32 z"
       transform="scale(0.0029,-0.0029)" />
  </g>
  <g
     id="g922"
     transform="translate(90.6532,5.9418997)">
    <path
       id="path920"
       fill="currentColor"
       d="m 208,139 c 61,0 117,-33 117,-99 0,-71 -52,-119 -99,-147 -34,-20 -71,-32 -110,-32 -61,0 -116,33 -116,99 0,71 51,119 98,147 34,20 71,32 110,32 z"
       transform="scale(0.0029,-0.0029)" />
  </g>
  <g
     id="g926"
     transform="translate(90.175,7.4155997)">
    <path
       id="path924"
       fill="currentColor"
       d="m 208,139 c 61,0 117,-33 117,-99 0,-71 -52,-119 -99,-147 -34,-20 -71,-32 -110,-32 -61,0 -116,33 -116,99 0,71 51,119 98,147 34,20 71,32 110,32 z"
       transform="scale(0.0029,-0.0029)" />
  </g>
  <g
     id="g930"
     transform="translate(91.0701,4.4681997)">
    <rect
       id="rect928"
       fill="currentColor"
       ry="0.042100001"
       height="2.4584"
       width="0.1228"
       y="-2.9461"
       x="-0.0614" />
  </g>
  <g
     id="g934"
     transform="translate(83.2337,3.7313997)">
    <path
       id="path932"
       fill="currentColor"
       d="m 208,139 c 61,0 117,-33 117,-99 0,-71 -52,-119 -99,-147 -34,-20 -71,-32 -110,-32 -61,0 -116,33 -116,99 0,71 51,119 98,147 34,20 71,32 110,32 z"
       transform="scale(0.0029,-0.0029)" />
  </g>
  <g
     id="g938"
     transform="translate(80.9162,7.7839997)">
    <path
       id="path936"
       fill="currentColor"
       d="M 0,0 C 0,30 25,55 55,55 85,55 109,30 109,0 109,-30 85,-55 55,-55 25,-55 0,-30 0,0 Z"
       transform="scale(0.0029,-0.0029)" />
  </g>
  <g
     id="g942"
     transform="translate(79.6995,4.4681997)">
    <rect
       id="rect940"
       fill="currentColor"
       ry="0.042100001"
       height="1.7229"
       width="0.1228"
       y="3.0666001"
       x="-0.0614" />
  </g>
  <g
     id="g946"
     transform="translate(72.6333,4.4681997)">
    <rect
       id="rect944"
       fill="currentColor"
       ry="0.042100001"
       height="1.7229"
       width="0.1228"
       y="3.0666001"
       x="-0.0614" />
  </g>
  <g
     id="g950"
     transform="translate(83.712,5.5734997)">
    <path
       id="path948"
       fill="currentColor"
       d="m 208,139 c 61,0 117,-33 117,-99 0,-71 -52,-119 -99,-147 -34,-20 -71,-32 -110,-32 -61,0 -116,33 -116,99 0,71 51,119 98,147 34,20 71,32 110,32 z"
       transform="scale(0.0029,-0.0029)" />
  </g>
  <g
     id="g954"
     transform="translate(84.1288,4.4681997)">
    <rect
       id="rect952"
       fill="currentColor"
       ry="0.042100001"
       height="1.9457999"
       width="0.1228"
       y="-2.8018"
       x="-0.0614" />
  </g>
  <g
     id="g958"
     transform="translate(84.6071,4.4681997)">
    <rect
       id="rect956"
       fill="currentColor"
       ry="0.042100001"
       height="2.5871999"
       width="0.1228"
       y="-1.6012"
       x="-0.0614" />
  </g>
  <g
     id="g962"
     transform="translate(65.4714,4.4681997)">
    <rect
       id="rect960"
       fill="currentColor"
       ry="0.042100001"
       height="2.5330999"
       width="0.1228"
       y="-3.0208001"
       x="-0.0614" />
  </g>
  <g
     id="g966"
     transform="translate(59.2367,4.4681997)">
    <rect
       id="rect964"
       fill="currentColor"
       ry="0.042100001"
       height="2.3369"
       width="0.1228"
       y="-2.4561"
       x="-0.0614" />
  </g>
  <g
     id="g970"
     transform="translate(60.0979,4.0997997)">
    <path
       id="path968"
       fill="currentColor"
       d="M 0,0 C 0,30 25,55 55,55 85,55 109,30 109,0 109,-30 85,-55 55,-55 25,-55 0,-30 0,0 Z"
       transform="scale(0.0029,-0.0029)" />
  </g>
  <g
     id="g974"
     transform="translate(64.5763,4.0997997)">
    <path
       id="path972"
       fill="currentColor"
       d="m 208,139 c 61,0 117,-33 117,-99 0,-71 -52,-119 -99,-147 -34,-20 -71,-32 -110,-32 -61,0 -116,33 -116,99 0,71 51,119 98,147 34,20 71,32 110,32 z"
       transform="scale(0.0029,-0.0029)" />
  </g>
  <g
     id="g978"
     transform="translate(58.7585,4.4681997)">
    <rect
       id="rect976"
       fill="currentColor"
       ry="0.042100001"
       height="1.9404"
       width="0.1228"
       y="-3.1649001"
       x="-0.0614" />
  </g>
  <g
     id="g982"
     transform="translate(58.8198,5.2050997)">
    <path
       id="path980"
       fill="currentColor"
       d="m 208,139 c 61,0 117,-33 117,-99 0,-71 -52,-119 -99,-147 -34,-20 -71,-32 -110,-32 -61,0 -116,33 -116,99 0,71 51,119 98,147 34,20 71,32 110,32 z"
       transform="scale(0.0029,-0.0029)" />
  </g>
  <g
     id="g986"
     transform="translate(67.9328,4.4681997)">
    <path
       id="path984"
       fill="currentColor"
       d="m 208,139 c 61,0 117,-33 117,-99 0,-71 -52,-119 -99,-147 -34,-20 -71,-32 -110,-32 -61,0 -116,33 -116,99 0,71 51,119 98,147 34,20 71,32 110,32 z"
       transform="scale(0.0029,-0.0029)" />
  </g>
  <g
     id="g990"
     transform="translate(59.7149,4.4681997)">
    <rect
       id="rect988"
       fill="currentColor"
       ry="0.042100001"
       height="2.4597001"
       width="0.1228"
       y="-1.8421"
       x="-0.0614" />
  </g>
  <g
     id="g994"
     transform="translate(60.0979,4.8366997)">
    <path
       id="path992"
       fill="currentColor"
       d="M 0,0 C 0,30 25,55 55,55 85,55 109,30 109,0 109,-30 85,-55 55,-55 25,-55 0,-30 0,0 Z"
       transform="scale(0.0029,-0.0029)" />
  </g>
  <g
     id="g998"
     transform="translate(60.0979,7.7839997)">
    <path
       id="path996"
       fill="currentColor"
       d="M 0,0 C 0,30 25,55 55,55 85,55 109,30 109,0 109,-30 85,-55 55,-55 25,-55 0,-30 0,0 Z"
       transform="scale(0.0029,-0.0029)" />
  </g>
  <g
     id="g1002"
     transform="translate(57.9247,4.4681997)">
    <rect
       id="rect1000"
       fill="currentColor"
       ry="0.042100001"
       height="1.7229"
       width="0.1228"
       y="3.4349999"
       x="-0.0614" />
  </g>
  <g
     id="g1006"
     transform="translate(57.8633,7.7839997)">
    <path
       id="path1004"
       fill="currentColor"
       d="m 208,139 c 61,0 117,-33 117,-99 0,-71 -52,-119 -99,-147 -34,-20 -71,-32 -110,-32 -61,0 -116,33 -116,99 0,71 51,119 98,147 34,20 71,32 110,32 z"
       transform="scale(0.0029,-0.0029)" />
  </g>
  <g
     id="g1010"
     transform="translate(61.2198,3.7313997)">
    <path
       id="path1008"
       fill="currentColor"
       d="m 208,139 c 61,0 117,-33 117,-99 0,-71 -52,-119 -99,-147 -34,-20 -71,-32 -110,-32 -61,0 -116,33 -116,99 0,71 51,119 98,147 34,20 71,32 110,32 z"
       transform="scale(0.0029,-0.0029)" />
  </g>
  <g
     id="g1014"
     transform="translate(62.1149,4.4681997)">
    <rect
       id="rect1012"
       fill="currentColor"
       ry="0.042100001"
       height="2.2368"
       width="0.1228"
       y="-3.0929"
       x="-0.0614" />
  </g>
  <g
     id="g1018"
     transform="translate(68.0556,9.9524997)">
    <path
       id="path1016"
       fill="currentColor"
       d="m 0,250 c 94,60 217,150 217,259 0,56 -15,110 -41,160 v 6 c 0,16 14,26 28,26 9,0 17,-4 22,-14 25,-56 40,-116 40,-178 C 266,306 0,203 0,0 h -21 v 250 z"
       transform="scale(0.0029,-0.0029)" />
  </g>
  <g
     id="g1022"
     transform="translate(72.5719,4.8366997)">
    <path
       id="path1020"
       fill="currentColor"
       d="m 208,139 c 61,0 117,-33 117,-99 0,-71 -52,-119 -99,-147 -34,-20 -71,-32 -110,-32 -61,0 -116,33 -116,99 0,71 51,119 98,147 34,20 71,32 110,32 z"
       transform="scale(0.0029,-0.0029)" />
  </g>
  <g
     id="g1026"
     transform="translate(67.9942,4.4681997)">
    <rect
       id="rect1024"
       fill="currentColor"
       ry="0.042100001"
       height="2.0913"
       width="0.1228"
       y="3.4349999"
       x="-0.0614" />
  </g>
  <g
     id="g1030"
     transform="translate(55.402,4.4681997)">
    <rect
       id="rect1028"
       fill="currentColor"
       ry="0.042100001"
       height="1.6441"
       width="0.1228"
       y="-3.237"
       x="-0.0614" />
  </g>
  <g
     id="g1034"
     transform="translate(69.3675,2.6681997)">
    <path
       id="path1032"
       fill="currentColor"
       d="m 0,0 c 0,-196 207,-334 207,-530 0,-71 -15,-140 -41,-206 -5,-10 -14,-13 -23,-13 -14,0 -28,10 -28,26 0,2 1,3 1,5 26,59 42,123 42,188 0,101 -90,205 -158,280 H -21 V 0 Z"
       transform="scale(0.0029,-0.0029)" />
  </g>
  <g
     id="g1038"
     transform="translate(68.4111,5.2050997)">
    <path
       id="path1036"
       fill="currentColor"
       d="m 208,139 c 61,0 117,-33 117,-99 0,-71 -52,-119 -99,-147 -34,-20 -71,-32 -110,-32 -61,0 -116,33 -116,99 0,71 51,119 98,147 34,20 71,32 110,32 z"
       transform="scale(0.0029,-0.0029)" />
  </g>
  <g
     id="g1042"
     transform="translate(54.5069,2.9945997)">
    <path
       id="path1040"
       fill="currentColor"
       d="m 208,139 c 61,0 117,-33 117,-99 0,-71 -52,-119 -99,-147 -34,-20 -71,-32 -110,-32 -61,0 -116,33 -116,99 0,71 51,119 98,147 34,20 71,32 110,32 z"
       transform="scale(0.0029,-0.0029)" />
  </g>
  <g
     id="g1046"
     transform="translate(73.0502,5.5734997)">
    <path
       id="path1044"
       fill="currentColor"
       d="m 208,139 c 61,0 117,-33 117,-99 0,-71 -52,-119 -99,-147 -34,-20 -71,-32 -110,-32 -61,0 -116,33 -116,99 0,71 51,119 98,147 34,20 71,32 110,32 z"
       transform="scale(0.0029,-0.0029)" />
  </g>
  <g
     id="g1050"
     transform="translate(72.5719,7.4155997)">
    <path
       id="path1048"
       fill="currentColor"
       d="m 208,139 c 61,0 117,-33 117,-99 0,-71 -52,-119 -99,-147 -34,-20 -71,-32 -110,-32 -61,0 -116,33 -116,99 0,71 51,119 98,147 34,20 71,32 110,32 z"
       transform="scale(0.0029,-0.0029)" />
  </g>
  <g
     id="g1054"
     transform="translate(69.3062,4.4681997)">
    <rect
       id="rect1052"
       fill="currentColor"
       ry="0.042100001"
       height="2.4597001"
       width="0.1228"
       y="-1.8421"
       x="-0.0614" />
  </g>
  <g
     id="g1058"
     transform="translate(58.3416,4.4681997)">
    <path
       id="path1056"
       fill="currentColor"
       d="m 208,139 c 61,0 117,-33 117,-99 0,-71 -52,-119 -99,-147 -34,-20 -71,-32 -110,-32 -61,0 -116,33 -116,99 0,71 51,119 98,147 34,20 71,32 110,32 z"
       transform="scale(0.0029,-0.0029)" />
  </g>
  <g
     id="g1062"
     transform="translate(57.8633,3.3629997)">
    <path
       id="path1060"
       fill="currentColor"
       d="m 208,139 c 61,0 117,-33 117,-99 0,-71 -52,-119 -99,-147 -34,-20 -71,-32 -110,-32 -61,0 -116,33 -116,99 0,71 51,119 98,147 34,20 71,32 110,32 z"
       transform="scale(0.0029,-0.0029)" />
  </g>
  <g
     id="g1066"
     transform="translate(67.9328,7.7839997)">
    <path
       id="path1064"
       fill="currentColor"
       d="m 208,139 c 61,0 117,-33 117,-99 0,-71 -52,-119 -99,-147 -34,-20 -71,-32 -110,-32 -61,0 -116,33 -116,99 0,71 51,119 98,147 34,20 71,32 110,32 z"
       transform="scale(0.0029,-0.0029)" />
  </g>
  <g
     id="g1070"
     transform="translate(68.8279,4.4681997)">
    <rect
       id="rect1068"
       fill="currentColor"
       ry="0.042100001"
       height="2.8295"
       width="0.1228"
       y="-2.9487"
       x="-0.0614" />
  </g>
</svg>
