<?xml version="1.0" encoding="UTF-8" standalone="no"?>
<svg
   xmlns:dc="http://purl.org/dc/elements/1.1/"
   xmlns:cc="http://creativecommons.org/ns#"
   xmlns:rdf="http://www.w3.org/1999/02/22-rdf-syntax-ns#"
   xmlns:svg="http://www.w3.org/2000/svg"
   xmlns="http://www.w3.org/2000/svg"
   xmlns:sodipodi="http://sodipodi.sourceforge.net/DTD/sodipodi-0.dtd"
   xmlns:inkscape="http://www.inkscape.org/namespaces/inkscape"
   sodipodi:docname="bwv-1004_5_for_PNGs-4.svg"
   id="svg1052"
   viewBox="0 0 216.77478 10.338783"
   height="17.259914mm"
   width="361.8912mm"
   version="1.2">
  <metadata
     id="metadata1058">
    <rdf:RDF>
      <cc:Work
         rdf:about="">
        <dc:format>image/svg+xml</dc:format>
        <dc:type
           rdf:resource="http://purl.org/dc/dcmitype/StillImage" />
      </cc:Work>
    </rdf:RDF>
  </metadata>
  <defs
     id="defs1056" />
  <sodipodi:namedview
     id="namedview1054"
     inkscape:window-height="480"
     inkscape:window-width="640"
     inkscape:pageshadow="2"
     inkscape:pageopacity="0"
     guidetolerance="10"
     gridtolerance="10"
     objecttolerance="10"
     borderopacity="1"
     bordercolor="#666666"
     pagecolor="#ffffff" />
  <style
     id="style2"
     type="text/css"><![CDATA[
tspan { white-space: pre; }
]]></style>
  <g
     id="g6"
     transform="translate(0,6.2861827)">
    <line
       id="line4"
       y2="0"
       x2="216.7276"
       y1="0"
       x1="0.047200002"
       stroke="currentColor"
       stroke-width="0.0944"
       stroke-linecap="round"
       stroke-linejoin="round" />
  </g>
  <g
     id="g10"
     transform="translate(0,5.5493827)">
    <line
       id="line8"
       y2="0"
       x2="216.7276"
       y1="0"
       x1="0.047200002"
       stroke="currentColor"
       stroke-width="0.0944"
       stroke-linecap="round"
       stroke-linejoin="round" />
  </g>
  <g
     id="g14"
     transform="translate(0,4.8124827)">
    <line
       id="line12"
       y2="0"
       x2="216.7276"
       y1="0"
       x1="0.047200002"
       stroke="currentColor"
       stroke-width="0.0944"
       stroke-linecap="round"
       stroke-linejoin="round" />
  </g>
  <g
     id="g18"
     transform="translate(0,4.0756827)">
    <line
       id="line16"
       y2="0"
       x2="216.7276"
       y1="0"
       x1="0.047200002"
       stroke="currentColor"
       stroke-width="0.0944"
       stroke-linecap="round"
       stroke-linejoin="round" />
  </g>
  <g
     id="g22"
     transform="translate(0,3.3388827)">
    <line
       id="line20"
       y2="0"
       x2="216.7276"
       y1="0"
       x1="0.047200002"
       stroke="currentColor"
       stroke-width="0.0944"
       stroke-linecap="round"
       stroke-linejoin="round" />
  </g>
  <g
     id="g26"
     transform="translate(27.9507,4.8124827)">
    <rect
       id="rect24"
       fill="currentColor"
       ry="0.0000"
       height="2.9474001"
       width="0.1794"
       y="-1.4737"
       x="0" />
  </g>
  <g
     id="g30"
     transform="translate(186.8656,4.8124827)">
    <rect
       id="rect28"
       fill="currentColor"
       ry="0.0000"
       height="2.9474001"
       width="0.1794"
       y="-1.4737"
       x="0" />
  </g>
  <g
     id="g34"
     transform="translate(128.7444,4.8124827)">
    <rect
       id="rect32"
       fill="currentColor"
       ry="0.0000"
       height="2.9474001"
       width="0.1794"
       y="-1.4737"
       x="0" />
  </g>
  <g
     id="g38"
     transform="translate(100.1645,4.8124827)">
    <rect
       id="rect36"
       fill="currentColor"
       ry="0.0000"
       height="2.9474001"
       width="0.1794"
       y="-1.4737"
       x="0" />
  </g>
  <g
     id="g42"
     transform="translate(50.5805,4.8124827)">
    <rect
       id="rect40"
       fill="currentColor"
       ry="0.0000"
       height="2.9474001"
       width="0.1794"
       y="-1.4737"
       x="0" />
  </g>
  <g
     id="g46"
     transform="translate(216.5954,4.8124827)">
    <rect
       id="rect44"
       fill="currentColor"
       ry="0.0000"
       height="2.9474001"
       width="0.1794"
       y="-1.4737"
       x="0" />
  </g>
  <g
     id="g50"
     transform="translate(158.0254,4.8124827)">
    <rect
       id="rect48"
       fill="currentColor"
       ry="0.0000"
       height="2.9474001"
       width="0.1794"
       y="-1.4737"
       x="0" />
  </g>
  <g
     id="g54"
     transform="translate(74.8702,4.8124827)">
    <rect
       id="rect52"
       fill="currentColor"
       ry="0.0000"
       height="2.9474001"
       width="0.1794"
       y="-1.4737"
       x="0" />
  </g>
  <g
     id="g58"
     transform="translate(0,7.0230827)">
    <rect
       id="rect56"
       fill="currentColor"
       ry="0.084100001"
       height="0.1681"
       width="1.4347"
       y="-0.084100001"
       x="207.1348" />
  </g>
  <g
     id="g62"
     transform="translate(0,7.7598827)">
    <rect
       id="rect60"
       fill="currentColor"
       ry="0.084100001"
       height="0.1681"
       width="1.4347"
       y="-0.084100001"
       x="207.1348" />
  </g>
  <g
     id="g66"
     transform="translate(0,7.0230827)">
    <rect
       id="rect64"
       fill="currentColor"
       ry="0.084100001"
       height="0.1681"
       width="1.4347"
       y="-0.084100001"
       x="167.8022" />
  </g>
  <g
     id="g70"
     transform="translate(0,7.0230827)">
    <rect
       id="rect68"
       fill="currentColor"
       ry="0.084100001"
       height="0.1681"
       width="1.4347"
       y="-0.084100001"
       x="165.6458" />
  </g>
  <g
     id="g74"
     transform="translate(0,7.7598827)">
    <rect
       id="rect72"
       fill="currentColor"
       ry="0.084100001"
       height="0.1681"
       width="1.4347"
       y="-0.084100001"
       x="165.6458" />
  </g>
  <g
     id="g78"
     transform="translate(0,7.0230827)">
    <rect
       id="rect76"
       fill="currentColor"
       ry="0.084100001"
       height="0.1681"
       width="1.3706"
       y="-0.084100001"
       x="161.6469" />
  </g>
  <g
     id="g82"
     transform="translate(0,7.0230827)">
    <rect
       id="rect80"
       fill="currentColor"
       ry="0.084100001"
       height="0.1681"
       width="1.3706"
       y="-0.084100001"
       x="139.6458" />
  </g>
  <g
     id="g86"
     transform="translate(0,7.0230827)">
    <rect
       id="rect84"
       fill="currentColor"
       ry="0.084100001"
       height="0.1681"
       width="1.4347"
       y="-0.084100001"
       x="82.1735" />
  </g>
  <g
     id="g90"
     transform="translate(0,7.7598827)">
    <rect
       id="rect88"
       fill="currentColor"
       ry="0.084100001"
       height="0.1681"
       width="1.4347"
       y="-0.084100001"
       x="82.1735" />
  </g>
  <g
     id="g94"
     transform="translate(0,7.0230827)">
    <rect
       id="rect92"
       fill="currentColor"
       ry="0.084100001"
       height="0.1681"
       width="1.4347"
       y="-0.084100001"
       x="78.817001" />
  </g>
  <g
     id="g98"
     transform="translate(0,7.7598827)">
    <rect
       id="rect96"
       fill="currentColor"
       ry="0.084100001"
       height="0.1681"
       width="1.4347"
       y="-0.084100001"
       x="78.817001" />
  </g>
  <g
     id="g102"
     transform="translate(0,7.0230827)">
    <rect
       id="rect100"
       fill="currentColor"
       ry="0.084100001"
       height="0.1681"
       width="1.4347"
       y="-0.084100001"
       x="58.842499" />
  </g>
  <g
     id="g106"
     transform="translate(0,7.0230827)">
    <rect
       id="rect104"
       fill="currentColor"
       ry="0.084100001"
       height="0.1681"
       width="1.3706"
       y="-0.084100001"
       x="36.526901" />
  </g>
  <g
     id="g110"
     transform="translate(152.2483,4.8124827)">
    <rect
       id="rect108"
       fill="currentColor"
       ry="0.042100001"
       height="3.4354"
       width="0.1228"
       y="-2.8176999"
       x="-0.0614" />
  </g>
  <g
     id="g114"
     transform="translate(168.0413,7.3914827)">
    <path
       id="path112"
       fill="currentColor"
       d="m 208,139 c 61,0 117,-33 117,-99 0,-71 -52,-119 -99,-147 -34,-20 -71,-32 -110,-32 -61,0 -116,33 -116,99 0,71 51,119 98,147 34,20 71,32 110,32 z"
       transform="scale(0.0029,-0.0029)" />
  </g>
  <g
     id="g118"
     transform="translate(149.1967,5.1809827)">
    <path
       id="path116"
       fill="currentColor"
       d="m 208,139 c 61,0 117,-33 117,-99 0,-71 -52,-119 -99,-147 -34,-20 -71,-32 -110,-32 -61,0 -116,33 -116,99 0,71 51,119 98,147 34,20 71,32 110,32 z"
       transform="scale(0.0029,-0.0029)" />
  </g>
  <g
     id="g122"
     transform="translate(150.0919,4.8124827)">
    <rect
       id="rect120"
       fill="currentColor"
       ry="0.042100001"
       height="3.0669"
       width="0.1228"
       y="-2.8176999"
       x="-0.0614" />
  </g>
  <g
     id="g126"
     transform="translate(151.3532,5.5493827)">
    <path
       id="path124"
       fill="currentColor"
       d="m 208,139 c 61,0 117,-33 117,-99 0,-71 -52,-119 -99,-147 -34,-20 -71,-32 -110,-32 -61,0 -116,33 -116,99 0,71 51,119 98,147 34,20 71,32 110,32 z"
       transform="scale(0.0029,-0.0029)" />
  </g>
  <g
     id="g130"
     transform="translate(153.7597,3.7072827)">
    <path
       id="path128"
       fill="currentColor"
       d="m 208,139 c 61,0 117,-33 117,-99 0,-71 -52,-119 -99,-147 -34,-20 -71,-32 -110,-32 -61,0 -116,33 -116,99 0,71 51,119 98,147 34,20 71,32 110,32 z"
       transform="scale(0.0029,-0.0029)" />
  </g>
  <g
     id="g134"
     transform="translate(111.5172,4.8124827)">
    <rect
       id="rect132"
       fill="currentColor"
       ry="0.042100001"
       height="1.9617"
       width="0.1228"
       y="-3.5546"
       x="-0.0614" />
  </g>
  <g
     id="g138"
     transform="translate(154.6548,4.8124827)">
    <rect
       id="rect136"
       fill="currentColor"
       ry="0.042100001"
       height="1.5933"
       width="0.1228"
       y="-2.8176999"
       x="-0.0614" />
  </g>
  <g
     id="g142"
     transform="translate(138.6603,7.0230827)">
    <path
       id="path140"
       fill="currentColor"
       d="m 0,114 c 0,12 7,22 18,26 l 37,15 v 151 c 0,12 10,22 22,22 12,0 22,-10 22,-22 V 172 l 77,29 v 152 c 0,12 10,22 22,22 12,0 22,-10 22,-22 V 219 l 16,6 c 3,1 8,2 11,2 15,0 28,-12 28,-28 v -50 c 0,-12 -7,-23 -18,-27 L 220,108 V -44 l 16,7 c 3,1 8,2 11,2 15,0 28,-13 28,-29 v -50 c 0,-12 -7,-22 -18,-26 l -37,-15 v -151 c 0,-12 -10,-22 -22,-22 -12,0 -22,10 -22,22 v 134 l -77,-29 v -152 c 0,-12 -10,-22 -22,-22 -12,0 -22,10 -22,22 v 134 l -16,-6 c -3,-1 -8,-2 -11,-2 -15,0 -28,12 -28,28 v 50 c 0,12 7,23 18,27 l 37,14 V 44 L 39,37 C 36,36 31,35 28,35 13,35 0,48 0,64 Z M 176,91 99,61 V -91 l 77,30 z"
       transform="scale(0.0029,-0.0029)" />
  </g>
  <g
     id="g146"
     transform="translate(142.2273,6.2861827)">
    <path
       id="path144"
       fill="currentColor"
       d="m 208,139 c 61,0 117,-33 117,-99 0,-71 -52,-119 -99,-147 -34,-20 -71,-32 -110,-32 -61,0 -116,33 -116,99 0,71 51,119 98,147 34,20 71,32 110,32 z"
       transform="scale(0.0029,-0.0029)" />
  </g>
  <g
     id="g150"
     transform="translate(143.1224,4.8124827)">
    <rect
       id="rect148"
       fill="currentColor"
       ry="0.042100001"
       height="2.5431001"
       width="0.1228"
       y="-1.1885999"
       x="-0.0614" />
  </g>
  <g
     id="g154"
     transform="translate(144.6338,5.5493827)">
    <path
       id="path152"
       fill="currentColor"
       d="m 208,139 c 61,0 117,-33 117,-99 0,-71 -52,-119 -99,-147 -34,-20 -71,-32 -110,-32 -61,0 -116,33 -116,99 0,71 51,119 98,147 34,20 71,32 110,32 z"
       transform="scale(0.0029,-0.0029)" />
  </g>
  <g
     id="g158"
     transform="translate(145.5289,4.8124827)">
    <rect
       id="rect156"
       fill="currentColor"
       ry="0.042100001"
       height="2.2467"
       width="0.1228"
       y="-1.6291"
       x="-0.0614" />
  </g>
  <g
     id="g162"
     transform="translate(147.0403,4.8124827)">
    <path
       id="path160"
       fill="currentColor"
       d="m 208,139 c 61,0 117,-33 117,-99 0,-71 -52,-119 -99,-147 -34,-20 -71,-32 -110,-32 -61,0 -116,33 -116,99 0,71 51,119 98,147 34,20 71,32 110,32 z"
       transform="scale(0.0029,-0.0029)" />
  </g>
  <g
     id="g166"
     transform="translate(147.9354,4.8124827)">
    <rect
       id="rect164"
       fill="currentColor"
       ry="0.042100001"
       height="1.9504"
       width="0.1228"
       y="-2.0697"
       x="-0.0614" />
  </g>
  <g
     id="g170"
     transform="translate(161.8219,7.0230827)">
    <path
       id="path168"
       fill="currentColor"
       d="m 208,139 c 61,0 117,-33 117,-99 0,-71 -52,-119 -99,-147 -34,-20 -71,-32 -110,-32 -61,0 -116,33 -116,99 0,71 51,119 98,147 34,20 71,32 110,32 z"
       transform="scale(0.0029,-0.0029)" />
  </g>
  <g
     id="g174"
     transform="translate(162.717,4.8124827)">
    <rect
       id="rect172"
       fill="currentColor"
       ry="0.042100001"
       height="2.4540999"
       width="0.1228"
       y="-0.3628"
       x="-0.0614" />
  </g>
  <g
     id="g178"
     transform="translate(160.6613,7.0230827)">
    <path
       id="path176"
       fill="currentColor"
       d="m 0,114 c 0,12 7,22 18,26 l 37,15 v 151 c 0,12 10,22 22,22 12,0 22,-10 22,-22 V 172 l 77,29 v 152 c 0,12 10,22 22,22 12,0 22,-10 22,-22 V 219 l 16,6 c 3,1 8,2 11,2 15,0 28,-12 28,-28 v -50 c 0,-12 -7,-23 -18,-27 L 220,108 V -44 l 16,7 c 3,1 8,2 11,2 15,0 28,-13 28,-29 v -50 c 0,-12 -7,-22 -18,-26 l -37,-15 v -151 c 0,-12 -10,-22 -22,-22 -12,0 -22,10 -22,22 v 134 l -77,-29 v -152 c 0,-12 -10,-22 -22,-22 -12,0 -22,10 -22,22 v 134 l -16,-6 c -3,-1 -8,-2 -11,-2 -15,0 -28,12 -28,28 v 50 c 0,12 7,23 18,27 l 37,14 V 44 L 39,37 C 36,36 31,35 28,35 13,35 0,48 0,64 Z M 176,91 99,61 V -91 l 77,30 z"
       transform="scale(0.0029,-0.0029)" />
  </g>
  <g
     id="g182"
     transform="translate(163.9784,6.6546827)">
    <path
       id="path180"
       fill="currentColor"
       d="m 208,139 c 61,0 117,-33 117,-99 0,-71 -52,-119 -99,-147 -34,-20 -71,-32 -110,-32 -61,0 -116,33 -116,99 0,71 51,119 98,147 34,20 71,32 110,32 z"
       transform="scale(0.0029,-0.0029)" />
  </g>
  <g
     id="g186"
     transform="translate(164.8735,4.8124827)">
    <rect
       id="rect184"
       fill="currentColor"
       ry="0.042100001"
       height="1.896"
       width="0.1228"
       y="-0.17309999"
       x="-0.0614" />
  </g>
  <g
     id="g190"
     transform="translate(155.6662,5.5493827)">
    <path
       id="path188"
       fill="currentColor"
       d="m 208,139 c 61,0 117,-33 117,-99 0,-71 -52,-119 -99,-147 -34,-20 -71,-32 -110,-32 -61,0 -116,33 -116,99 0,71 51,119 98,147 34,20 71,32 110,32 z"
       transform="scale(0.0029,-0.0029)" />
  </g>
  <g
     id="g194"
     transform="translate(156.5613,4.8124827)">
    <rect
       id="rect192"
       fill="currentColor"
       ry="0.042100001"
       height="3.4354"
       width="0.1228"
       y="-2.8176999"
       x="-0.0614" />
  </g>
  <g
     id="g198"
     transform="translate(159.1049,5.9177827)">
    <path
       id="path196"
       fill="currentColor"
       d="m 208,139 c 61,0 117,-33 117,-99 0,-71 -52,-119 -99,-147 -34,-20 -71,-32 -110,-32 -61,0 -116,33 -116,99 0,71 51,119 98,147 34,20 71,32 110,32 z"
       transform="scale(0.0029,-0.0029)" />
  </g>
  <g
     id="g202"
     transform="translate(165.8848,7.7598827)">
    <path
       id="path200"
       fill="currentColor"
       d="m 208,139 c 61,0 117,-33 117,-99 0,-71 -52,-119 -99,-147 -34,-20 -71,-32 -110,-32 -61,0 -116,33 -116,99 0,71 51,119 98,147 34,20 71,32 110,32 z"
       transform="scale(0.0029,-0.0029)" />
  </g>
  <g
     id="g206"
     transform="translate(166.7799,4.8124827)">
    <rect
       id="rect204"
       fill="currentColor"
       ry="0.042100001"
       height="2.8334999"
       width="0.1228"
       y="-0.0054000001"
       x="-0.0614" />
  </g>
  <g
     id="g210"
     transform="translate(160,4.8124827)">
    <rect
       id="rect208"
       fill="currentColor"
       ry="0.042100001"
       height="1.5879"
       width="0.1228"
       y="-0.60180002"
       x="-0.0614" />
  </g>
  <g
     id="g214"
     transform="translate(119.498,3.7072827)">
    <path
       id="path212"
       fill="currentColor"
       d="m 208,139 c 61,0 117,-33 117,-99 0,-71 -52,-119 -99,-147 -34,-20 -71,-32 -110,-32 -61,0 -116,33 -116,99 0,71 51,119 98,147 34,20 71,32 110,32 z"
       transform="scale(0.0029,-0.0029)" />
  </g>
  <g
     id="g218"
     transform="translate(120.3931,4.8124827)">
    <rect
       id="rect216"
       fill="currentColor"
       ry="0.042100001"
       height="1.8503"
       width="0.1228"
       y="-3.0748"
       x="-0.0614" />
  </g>
  <g
     id="g222"
     transform="translate(121.6545,4.0756827)">
    <path
       id="path220"
       fill="currentColor"
       d="m 208,139 c 61,0 117,-33 117,-99 0,-71 -52,-119 -99,-147 -34,-20 -71,-32 -110,-32 -61,0 -116,33 -116,99 0,71 51,119 98,147 34,20 71,32 110,32 z"
       transform="scale(0.0029,-0.0029)" />
  </g>
  <g
     id="g226"
     transform="translate(122.5496,4.8124827)">
    <rect
       id="rect224"
       fill="currentColor"
       ry="0.042100001"
       height="2.1405001"
       width="0.1228"
       y="-2.9965999"
       x="-0.0614" />
  </g>
  <g
     id="g230"
     transform="translate(124.3715,4.4440827)">
    <path
       id="path228"
       fill="currentColor"
       d="m 208,139 c 61,0 117,-33 117,-99 0,-71 -52,-119 -99,-147 -34,-20 -71,-32 -110,-32 -61,0 -116,33 -116,99 0,71 51,119 98,147 34,20 71,32 110,32 z"
       transform="scale(0.0029,-0.0029)" />
  </g>
  <g
     id="g234"
     transform="translate(125.2666,4.8124827)">
    <rect
       id="rect232"
       fill="currentColor"
       ry="0.042100001"
       height="2.4105"
       width="0.1228"
       y="-2.8980999"
       x="-0.0614" />
  </g>
  <g
     id="g238"
     transform="translate(123.211,4.4440827)">
    <path
       id="path236"
       fill="currentColor"
       d="m 0,114 c 0,12 7,22 18,26 l 37,15 v 151 c 0,12 10,22 22,22 12,0 22,-10 22,-22 V 172 l 77,29 v 152 c 0,12 10,22 22,22 12,0 22,-10 22,-22 V 219 l 16,6 c 3,1 8,2 11,2 15,0 28,-12 28,-28 v -50 c 0,-12 -7,-23 -18,-27 L 220,108 V -44 l 16,7 c 3,1 8,2 11,2 15,0 28,-13 28,-29 v -50 c 0,-12 -7,-22 -18,-26 l -37,-15 v -151 c 0,-12 -10,-22 -22,-22 -12,0 -22,10 -22,22 v 134 l -77,-29 v -152 c 0,-12 -10,-22 -22,-22 -12,0 -22,10 -22,22 v 134 l -16,-6 c -3,-1 -8,-2 -11,-2 -15,0 -28,12 -28,28 v 50 c 0,12 7,23 18,27 l 37,14 V 44 L 39,37 C 36,36 31,35 28,35 13,35 0,48 0,64 Z M 176,91 99,61 V -91 l 77,30 z"
       transform="scale(0.0029,-0.0029)" />
  </g>
  <g
     id="g242"
     transform="translate(207.3738,4.8124827)">
    <path
       id="path240"
       d="m 0.8302,-2.0317 c 0.8226,-1.1092 3.6167,-1.6898 4.813,-1.0001 v 0 c -1.1733,-0.5787 -3.9673,0.0019 -4.813,1.0001 z"
       fill="currentColor"
       stroke="currentColor"
       stroke-linecap="round"
       stroke-linejoin="round"
       stroke-width="0.0755" />
  </g>
  <g
     id="g246"
     transform="translate(112.7786,3.7072827)">
    <path
       id="path244"
       fill="currentColor"
       d="m 208,139 c 61,0 117,-33 117,-99 0,-71 -52,-119 -99,-147 -34,-20 -71,-32 -110,-32 -61,0 -116,33 -116,99 0,71 51,119 98,147 34,20 71,32 110,32 z"
       transform="scale(0.0029,-0.0029)" />
  </g>
  <g
     id="g250"
     transform="translate(113.6737,4.8124827)">
    <rect
       id="rect248"
       fill="currentColor"
       ry="0.042100001"
       height="2.3301001"
       width="0.1228"
       y="-3.5546"
       x="-0.0614" />
  </g>
  <g
     id="g254"
     transform="translate(126.528,4.0756827)">
    <path
       id="path252"
       fill="currentColor"
       d="m 208,139 c 61,0 117,-33 117,-99 0,-71 -52,-119 -99,-147 -34,-20 -71,-32 -110,-32 -61,0 -116,33 -116,99 0,71 51,119 98,147 34,20 71,32 110,32 z"
       transform="scale(0.0029,-0.0029)" />
  </g>
  <g
     id="g258"
     transform="translate(115.185,2.9703827)">
    <path
       id="path256"
       fill="currentColor"
       d="m 208,139 c 61,0 117,-33 117,-99 0,-71 -52,-119 -99,-147 -34,-20 -71,-32 -110,-32 -61,0 -116,33 -116,99 0,71 51,119 98,147 34,20 71,32 110,32 z"
       transform="scale(0.0029,-0.0029)" />
  </g>
  <g
     id="g262"
     transform="translate(116.0801,4.8124827)">
    <rect
       id="rect260"
       fill="currentColor"
       ry="0.042100001"
       height="1.5933"
       width="0.1228"
       y="-3.5546"
       x="-0.0614" />
  </g>
  <g
     id="g266"
     transform="translate(117.3415,3.3388827)">
    <path
       id="path264"
       fill="currentColor"
       d="m 208,139 c 61,0 117,-33 117,-99 0,-71 -52,-119 -99,-147 -34,-20 -71,-32 -110,-32 -61,0 -116,33 -116,99 0,71 51,119 98,147 34,20 71,32 110,32 z"
       transform="scale(0.0029,-0.0029)" />
  </g>
  <g
     id="g270"
     transform="translate(118.2366,4.8124827)">
    <rect
       id="rect268"
       fill="currentColor"
       ry="0.042100001"
       height="1.9617"
       width="0.1228"
       y="-3.5546"
       x="-0.0614" />
  </g>
  <g
     id="g274"
     transform="translate(133.1254,4.8124827)">
    <rect
       id="rect272"
       fill="currentColor"
       ry="0.042100001"
       height="1.9617"
       width="0.1228"
       y="-2.0809"
       x="-0.0614" />
  </g>
  <g
     id="g278"
     transform="translate(134.9473,5.9177827)">
    <path
       id="path276"
       fill="currentColor"
       d="m 208,139 c 61,0 117,-33 117,-99 0,-71 -52,-119 -99,-147 -34,-20 -71,-32 -110,-32 -61,0 -116,33 -116,99 0,71 51,119 98,147 34,20 71,32 110,32 z"
       transform="scale(0.0029,-0.0029)" />
  </g>
  <g
     id="g282"
     transform="translate(135.8424,4.8124827)">
    <rect
       id="rect280"
       fill="currentColor"
       ry="0.042100001"
       height="3.0669"
       width="0.1228"
       y="-2.0809"
       x="-0.0614" />
  </g>
  <g
     id="g286"
     transform="translate(132.2303,4.8124827)">
    <path
       id="path284"
       fill="currentColor"
       d="m 208,139 c 61,0 117,-33 117,-99 0,-71 -52,-119 -99,-147 -34,-20 -71,-32 -110,-32 -61,0 -116,33 -116,99 0,71 51,119 98,147 34,20 71,32 110,32 z"
       transform="scale(0.0029,-0.0029)" />
  </g>
  <g
     id="g290"
     transform="translate(133.7868,5.9177827)">
    <path
       id="path288"
       fill="currentColor"
       d="m 0,114 c 0,12 7,22 18,26 l 37,15 v 151 c 0,12 10,22 22,22 12,0 22,-10 22,-22 V 172 l 77,29 v 152 c 0,12 10,22 22,22 12,0 22,-10 22,-22 V 219 l 16,6 c 3,1 8,2 11,2 15,0 28,-12 28,-28 v -50 c 0,-12 -7,-23 -18,-27 L 220,108 V -44 l 16,7 c 3,1 8,2 11,2 15,0 28,-13 28,-29 v -50 c 0,-12 -7,-22 -18,-26 l -37,-15 v -151 c 0,-12 -10,-22 -22,-22 -12,0 -22,10 -22,22 v 134 l -77,-29 v -152 c 0,-12 -10,-22 -22,-22 -12,0 -22,10 -22,22 v 134 l -16,-6 c -3,-1 -8,-2 -11,-2 -15,0 -28,12 -28,28 v 50 c 0,12 7,23 18,27 l 37,14 V 44 L 39,37 C 36,36 31,35 28,35 13,35 0,48 0,64 Z M 176,91 99,61 V -91 l 77,30 z"
       transform="scale(0.0029,-0.0029)" />
  </g>
  <g
     id="g294"
     transform="translate(137.1038,5.5493827)">
    <path
       id="path292"
       fill="currentColor"
       d="m 208,139 c 61,0 117,-33 117,-99 0,-71 -52,-119 -99,-147 -34,-20 -71,-32 -110,-32 -61,0 -116,33 -116,99 0,71 51,119 98,147 34,20 71,32 110,32 z"
       transform="scale(0.0029,-0.0029)" />
  </g>
  <g
     id="g298"
     transform="translate(137.9989,4.8124827)">
    <rect
       id="rect296"
       fill="currentColor"
       ry="0.042100001"
       height="2.6984999"
       width="0.1228"
       y="-2.0809"
       x="-0.0614" />
  </g>
  <g
     id="g302"
     transform="translate(139.8208,7.0230827)">
    <path
       id="path300"
       fill="currentColor"
       d="m 208,139 c 61,0 117,-33 117,-99 0,-71 -52,-119 -99,-147 -34,-20 -71,-32 -110,-32 -61,0 -116,33 -116,99 0,71 51,119 98,147 34,20 71,32 110,32 z"
       transform="scale(0.0029,-0.0029)" />
  </g>
  <g
     id="g306"
     transform="translate(140.7159,4.8124827)">
    <rect
       id="rect304"
       fill="currentColor"
       ry="0.042100001"
       height="2.8394001"
       width="0.1228"
       y="-0.74809998"
       x="-0.0614" />
  </g>
  <g
     id="g310"
     transform="translate(127.4231,4.8124827)">
    <rect
       id="rect308"
       fill="currentColor"
       ry="0.042100001"
       height="1.9639"
       width="0.1228"
       y="-2.8199999"
       x="-0.0614" />
  </g>
  <g
     id="g314"
     transform="translate(129.8238,5.5493827)">
    <path
       id="path312"
       fill="currentColor"
       d="m 208,139 c 61,0 117,-33 117,-99 0,-71 -52,-119 -99,-147 -34,-20 -71,-32 -110,-32 -61,0 -116,33 -116,99 0,71 51,119 98,147 34,20 71,32 110,32 z"
       transform="scale(0.0029,-0.0029)" />
  </g>
  <g
     id="g318"
     transform="translate(130.7189,4.8124827)">
    <rect
       id="rect316"
       fill="currentColor"
       ry="0.042100001"
       height="2.6984999"
       width="0.1228"
       y="-2.0809"
       x="-0.0614" />
  </g>
  <g
     id="g322"
     transform="translate(209.7803,6.2861827)">
    <path
       id="path320"
       fill="currentColor"
       d="m 208,139 c 61,0 117,-33 117,-99 0,-71 -52,-119 -99,-147 -34,-20 -71,-32 -110,-32 -61,0 -116,33 -116,99 0,71 51,119 98,147 34,20 71,32 110,32 z"
       transform="scale(0.0029,-0.0029)" />
  </g>
  <g
     id="g326"
     transform="translate(207.3738,7.7598827)">
    <path
       id="path324"
       fill="currentColor"
       d="m 208,139 c 61,0 117,-33 117,-99 0,-71 -52,-119 -99,-147 -34,-20 -71,-32 -110,-32 -61,0 -116,33 -116,99 0,71 51,119 98,147 34,20 71,32 110,32 z"
       transform="scale(0.0029,-0.0029)" />
  </g>
  <g
     id="g330"
     transform="translate(208.2689,4.8124827)">
    <rect
       id="rect328"
       fill="currentColor"
       ry="0.042100001"
       height="4.3146"
       width="0.1228"
       y="-1.4864"
       x="-0.0614" />
  </g>
  <g
     id="g334"
     transform="translate(206.3625,4.8124827)">
    <rect
       id="rect332"
       fill="currentColor"
       ry="0.042100001"
       height="2.6984999"
       width="0.1228"
       y="-3.5546"
       x="-0.0614" />
  </g>
  <g
     id="g338"
     transform="translate(210.6754,4.8124827)">
    <rect
       id="rect336"
       fill="currentColor"
       ry="0.042100001"
       height="3.3408999"
       width="0.1228"
       y="-1.9865"
       x="-0.0614" />
  </g>
  <g
     id="g342"
     transform="translate(212.1868,4.0756827)">
    <path
       id="path340"
       fill="currentColor"
       d="m 208,139 c 61,0 117,-33 117,-99 0,-71 -52,-119 -99,-147 -34,-20 -71,-32 -110,-32 -61,0 -116,33 -116,99 0,71 51,119 98,147 34,20 71,32 110,32 z"
       transform="scale(0.0029,-0.0029)" />
  </g>
  <g
     id="g346"
     transform="translate(213.0819,4.8124827)">
    <rect
       id="rect344"
       fill="currentColor"
       ry="0.042100001"
       height="1.6303999"
       width="0.1228"
       y="-2.4865"
       x="-0.0614" />
  </g>
  <g
     id="g350"
     transform="translate(198.1874,3.7072827)">
    <path
       id="path348"
       fill="currentColor"
       d="m 208,139 c 61,0 117,-33 117,-99 0,-71 -52,-119 -99,-147 -34,-20 -71,-32 -110,-32 -61,0 -116,33 -116,99 0,71 51,119 98,147 34,20 71,32 110,32 z"
       transform="scale(0.0029,-0.0029)" />
  </g>
  <g
     id="g354"
     transform="translate(199.0825,4.8124827)">
    <rect
       id="rect352"
       fill="currentColor"
       ry="0.042100001"
       height="2.3301001"
       width="0.1228"
       y="-3.5546"
       x="-0.0614" />
  </g>
  <g
     id="g358"
     transform="translate(200.5938,2.9703827)">
    <path
       id="path356"
       fill="currentColor"
       d="m 208,139 c 61,0 117,-33 117,-99 0,-71 -52,-119 -99,-147 -34,-20 -71,-32 -110,-32 -61,0 -116,33 -116,99 0,71 51,119 98,147 34,20 71,32 110,32 z"
       transform="scale(0.0029,-0.0029)" />
  </g>
  <g
     id="g362"
     transform="translate(201.4889,4.8124827)">
    <rect
       id="rect360"
       fill="currentColor"
       ry="0.042100001"
       height="1.5933"
       width="0.1228"
       y="-3.5546"
       x="-0.0614" />
  </g>
  <g
     id="g366"
     transform="translate(203.3109,4.4440827)">
    <path
       id="path364"
       fill="currentColor"
       d="m 208,139 c 61,0 117,-33 117,-99 0,-71 -52,-119 -99,-147 -34,-20 -71,-32 -110,-32 -61,0 -116,33 -116,99 0,71 51,119 98,147 34,20 71,32 110,32 z"
       transform="scale(0.0029,-0.0029)" />
  </g>
  <g
     id="g370"
     transform="translate(204.206,4.8124827)">
    <rect
       id="rect368"
       fill="currentColor"
       ry="0.042100001"
       height="3.0669"
       width="0.1228"
       y="-3.5546"
       x="-0.0614" />
  </g>
  <g
     id="g374"
     transform="translate(202.1503,4.4440827)">
    <path
       id="path372"
       fill="currentColor"
       d="m 0,114 c 0,12 7,22 18,26 l 37,15 v 151 c 0,12 10,22 22,22 12,0 22,-10 22,-22 V 172 l 77,29 v 152 c 0,12 10,22 22,22 12,0 22,-10 22,-22 V 219 l 16,6 c 3,1 8,2 11,2 15,0 28,-12 28,-28 v -50 c 0,-12 -7,-23 -18,-27 L 220,108 V -44 l 16,7 c 3,1 8,2 11,2 15,0 28,-13 28,-29 v -50 c 0,-12 -7,-22 -18,-26 l -37,-15 v -151 c 0,-12 -10,-22 -22,-22 -12,0 -22,10 -22,22 v 134 l -77,-29 v -152 c 0,-12 -10,-22 -22,-22 -12,0 -22,10 -22,22 v 134 l -16,-6 c -3,-1 -8,-2 -11,-2 -15,0 -28,12 -28,28 v 50 c 0,12 7,23 18,27 l 37,14 V 44 L 39,37 C 36,36 31,35 28,35 13,35 0,48 0,64 Z M 176,91 99,61 V -91 l 77,30 z"
       transform="scale(0.0029,-0.0029)" />
  </g>
  <g
     id="g378"
     transform="translate(205.4673,4.0756827)">
    <path
       id="path376"
       fill="currentColor"
       d="m 208,139 c 61,0 117,-33 117,-99 0,-71 -52,-119 -99,-147 -34,-20 -71,-32 -110,-32 -61,0 -116,33 -116,99 0,71 51,119 98,147 34,20 71,32 110,32 z"
       transform="scale(0.0029,-0.0029)" />
  </g>
  <g
     id="g382"
     transform="translate(140.6545,4.0756827)">
    <polygon
       id="polygon380"
       points="0.0421,0.1347 0.0421,-0.1347 7.3001,-1.4788 7.3001,-1.2093 "
       stroke="currentColor"
       fill="currentColor"
       stroke-width="0.0842"
       stroke-linecap="round"
       stroke-linejoin="round" />
  </g>
  <g
     id="g386"
     transform="translate(140.6545,4.6828827)">
    <polygon
       id="polygon384"
       points="0.0421,0.1347 0.0421,-0.1347 7.3001,-1.4788 7.3001,-1.2093 "
       stroke="currentColor"
       fill="currentColor"
       stroke-width="0.0842"
       stroke-linecap="round"
       stroke-linejoin="round" />
  </g>
  <g
     id="g390"
     transform="translate(69.9011,4.8124827)">
    <path
       id="path388"
       d="m 0.8979,-3.6382 c 0.6812,-0.6387 2.0471,-0.6267 2.717,0.0237 v 0 C 2.944,-4.1516 1.5781,-4.1635 0.8979,-3.6382 Z"
       fill="currentColor"
       stroke="currentColor"
       stroke-linecap="round"
       stroke-linejoin="round"
       stroke-width="0.0755" />
  </g>
  <g
     id="g394"
     transform="translate(76.7833,2.2335827)">
    <polygon
       id="polygon392"
       points="0.0421,0.1347 0.0421,-0.1347 3.1871,0.8409 3.1871,1.1104 "
       stroke="currentColor"
       fill="currentColor"
       stroke-width="0.0842"
       stroke-linecap="round"
       stroke-linejoin="round" />
  </g>
  <g
     id="g398"
     transform="translate(83.2463,3.4684827)">
    <polygon
       id="polygon396"
       points="0.0421,0.1347 0.0421,-0.1347 6.8001,-1.0012 6.8001,-0.7317 "
       stroke="currentColor"
       fill="currentColor"
       stroke-width="0.0842"
       stroke-linecap="round"
       stroke-linejoin="round" />
  </g>
  <g
     id="g402"
     transform="translate(83.2463,4.0756827)">
    <polygon
       id="polygon400"
       points="0.0421,0.1347 0.0421,-0.1347 6.8001,-1.0012 6.8001,-0.7317 "
       stroke="currentColor"
       fill="currentColor"
       stroke-width="0.0842"
       stroke-linecap="round"
       stroke-linejoin="round" />
  </g>
  <g
     id="g406"
     transform="translate(92.1222,2.7315827)">
    <polygon
       id="polygon404"
       points="0.0421,0.1347 0.0421,-0.1347 6.5501,0.4725 6.5501,0.742 "
       stroke="currentColor"
       fill="currentColor"
       stroke-width="0.0842"
       stroke-linecap="round"
       stroke-linejoin="round" />
  </g>
  <g
     id="g410"
     transform="translate(92.1222,3.3388827)">
    <polygon
       id="polygon408"
       points="0.0421,0.1347 0.0421,-0.1347 6.5501,0.4725 6.5501,0.742 "
       stroke="currentColor"
       fill="currentColor"
       stroke-width="0.0842"
       stroke-linecap="round"
       stroke-linejoin="round" />
  </g>
  <g
     id="g414"
     transform="translate(102.0798,2.7315827)">
    <polygon
       id="polygon412"
       points="0.0421,0.1347 0.0421,-0.1347 7.3001,-1.6084 7.3001,-1.3389 "
       stroke="currentColor"
       fill="currentColor"
       stroke-width="0.0842"
       stroke-linecap="round"
       stroke-linejoin="round" />
  </g>
  <g
     id="g418"
     transform="translate(102.0798,3.3388827)">
    <polygon
       id="polygon416"
       points="0.0421,0.1347 0.0421,-0.1347 7.3001,-1.6084 7.3001,-1.3389 "
       stroke="currentColor"
       fill="currentColor"
       stroke-width="0.0842"
       stroke-linecap="round"
       stroke-linejoin="round" />
  </g>
  <g
     id="g422"
     transform="translate(101.2461,4.8124827)">
    <path
       id="path420"
       d="m 0.8324,-2.6385 c 1.0754,-1.3257 5.7157,-2.2571 7.2194,-1.449 v 0 c -1.4814,-0.697 -6.1217,0.2344 -7.2194,1.449 z"
       fill="currentColor"
       stroke="currentColor"
       stroke-linecap="round"
       stroke-linejoin="round"
       stroke-width="0.0755" />
  </g>
  <g
     id="g426"
     transform="translate(111.4558,1.2579827)">
    <polygon
       id="polygon424"
       points="0.0421,0.1347 0.0421,-0.1347 6.8001,-0.1347 6.8001,0.1347 "
       stroke="currentColor"
       fill="currentColor"
       stroke-width="0.0842"
       stroke-linecap="round"
       stroke-linejoin="round" />
  </g>
  <g
     id="g430"
     transform="translate(111.4558,1.8651827)">
    <polygon
       id="polygon428"
       points="0.0421,0.1347 0.0421,-0.1347 6.8001,-0.1347 6.8001,0.1347 "
       stroke="currentColor"
       fill="currentColor"
       stroke-width="0.0842"
       stroke-linecap="round"
       stroke-linejoin="round" />
  </g>
  <g
     id="g434"
     transform="translate(110.6221,4.8124827)">
    <path
       id="path432"
       d="m 0.9098,-4.0998 c 1.9314,-1.2254 14.0958,-0.6636 15.906,0.7346 v 0 C 15.0004,-4.6502 2.8359,-5.212 0.9098,-4.0998 Z"
       fill="currentColor"
       stroke="currentColor"
       stroke-linecap="round"
       stroke-linejoin="round"
       stroke-width="0.0755" />
  </g>
  <g
     id="g438"
     transform="translate(120.3317,1.7355827)">
    <polygon
       id="polygon436"
       points="0.0421,0.1347 0.0421,-0.1347 7.1107,0.1245 7.1107,0.394 "
       stroke="currentColor"
       fill="currentColor"
       stroke-width="0.0842"
       stroke-linecap="round"
       stroke-linejoin="round" />
  </g>
  <g
     id="g442"
     transform="translate(120.3317,2.3427827)">
    <polygon
       id="polygon440"
       points="0.0421,0.1347 0.0421,-0.1347 7.1107,0.1245 7.1107,0.394 "
       stroke="currentColor"
       fill="currentColor"
       stroke-width="0.0842"
       stroke-linecap="round"
       stroke-linejoin="round" />
  </g>
  <g
     id="g446"
     transform="translate(130.6575,2.7315827)">
    <polygon
       id="polygon444"
       points="0.0421,0.1347 0.0421,-0.1347 7.3607,-0.1347 7.3607,0.1347 "
       stroke="currentColor"
       fill="currentColor"
       stroke-width="0.0842"
       stroke-linecap="round"
       stroke-linejoin="round" />
  </g>
  <g
     id="g450"
     transform="translate(130.6575,3.3388827)">
    <polygon
       id="polygon448"
       points="0.0421,0.1347 0.0421,-0.1347 7.3607,-0.1347 7.3607,0.1347 "
       stroke="currentColor"
       fill="currentColor"
       stroke-width="0.0842"
       stroke-linecap="round"
       stroke-linejoin="round" />
  </g>
  <g
     id="g454"
     transform="translate(59.9153,3.4684827)">
    <polygon
       id="polygon452"
       points="0.0421,0.1347 0.0421,-0.1347 13.6171,-1.8677 13.6171,-1.5982 "
       stroke="currentColor"
       fill="currentColor"
       stroke-width="0.0842"
       stroke-linecap="round"
       stroke-linejoin="round" />
  </g>
  <g
     id="g458"
     transform="translate(70.7348,2.7030827)">
    <polygon
       id="polygon456"
       points="0.0421,0.1347 0.0421,-0.1347 2.7977,-0.495 2.7977,-0.2255 "
       stroke="currentColor"
       fill="currentColor"
       stroke-width="0.0842"
       stroke-linecap="round"
       stroke-linejoin="round" />
  </g>
  <g
     id="g462"
     transform="translate(139.8208,4.8124827)">
    <path
       id="path460"
       d="M 0.8377,-1.2933 C 1.6838,-2.38 4.4745,-2.8909 5.6507,-2.1744 v 0 c -1.1558,-0.605 -3.9465,-0.0941 -4.813,0.8811 z"
       fill="currentColor"
       stroke="currentColor"
       stroke-linecap="round"
       stroke-linejoin="round"
       stroke-width="0.0755" />
  </g>
  <g
     id="g466"
     transform="translate(150.0305,1.9947827)">
    <polygon
       id="polygon464"
       points="0.0421,0.1347 0.0421,-0.1347 6.5501,-0.1347 6.5501,0.1347 "
       stroke="currentColor"
       fill="currentColor"
       stroke-width="0.0842"
       stroke-linecap="round"
       stroke-linejoin="round" />
  </g>
  <g
     id="g470"
     transform="translate(150.0305,2.6019827)">
    <polygon
       id="polygon468"
       points="0.0421,0.1347 0.0421,-0.1347 6.5501,-0.1347 6.5501,0.1347 "
       stroke="currentColor"
       fill="currentColor"
       stroke-width="0.0842"
       stroke-linecap="round"
       stroke-linejoin="round" />
  </g>
  <g
     id="g474"
     transform="translate(159.9386,4.2052827)">
    <polygon
       id="polygon472"
       points="0.0421,0.1347 0.0421,-0.1347 6.8607,0.4725 6.8607,0.742 "
       stroke="currentColor"
       fill="currentColor"
       stroke-width="0.0842"
       stroke-linecap="round"
       stroke-linejoin="round" />
  </g>
  <g
     id="g478"
     transform="translate(159.9386,4.8124827)">
    <polygon
       id="polygon476"
       points="0.0421,0.1347 0.0421,-0.1347 6.8607,0.4725 6.8607,0.742 "
       stroke="currentColor"
       fill="currentColor"
       stroke-width="0.0842"
       stroke-linecap="round"
       stroke-linejoin="round" />
  </g>
  <g
     id="g482"
     transform="translate(168.8751,4.0756827)">
    <polygon
       id="polygon480"
       points="0.0421,0.1347 0.0421,-0.1347 7.0501,-1.4788 7.0501,-1.2093 "
       stroke="currentColor"
       fill="currentColor"
       stroke-width="0.0842"
       stroke-linecap="round"
       stroke-linejoin="round" />
  </g>
  <g
     id="g486"
     transform="translate(168.8751,4.6828827)">
    <polygon
       id="polygon484"
       points="0.0421,0.1347 0.0421,-0.1347 7.0501,-1.4788 7.0501,-1.2093 "
       stroke="currentColor"
       fill="currentColor"
       stroke-width="0.0842"
       stroke-linecap="round"
       stroke-linejoin="round" />
  </g>
  <g
     id="g490"
     transform="translate(168.0413,4.8124827)">
    <path
       id="path488"
       d="m 0.8357,-1.2937 c 0.84,-1.0926 3.6316,-1.6216 4.813,-0.9122 v 0 C 4.4884,-2.804 1.6968,-2.275 0.8357,-1.2937 Z"
       fill="currentColor"
       stroke="currentColor"
       stroke-linecap="round"
       stroke-linejoin="round"
       stroke-width="0.0755" />
  </g>
  <g
     id="g494"
     transform="translate(178.001,1.2579827)">
    <polygon
       id="polygon492"
       points="0.0421,0.1347 0.0421,-0.1347 7.5626,-0.1347 7.5626,0.1347 "
       stroke="currentColor"
       fill="currentColor"
       stroke-width="0.0842"
       stroke-linecap="round"
       stroke-linejoin="round" />
  </g>
  <g
     id="g498"
     transform="translate(178.001,1.8651827)">
    <polygon
       id="polygon496"
       points="0.0421,0.1347 0.0421,-0.1347 7.5626,-0.1347 7.5626,0.1347 "
       stroke="currentColor"
       fill="currentColor"
       stroke-width="0.0842"
       stroke-linecap="round"
       stroke-linejoin="round" />
  </g>
  <g
     id="g502"
     transform="translate(189.6393,2.7315827)">
    <polygon
       id="polygon500"
       points="0.0421,0.1347 0.0421,-0.1347 7.306,-1.3696 7.306,-1.1002 "
       stroke="currentColor"
       fill="currentColor"
       stroke-width="0.0842"
       stroke-linecap="round"
       stroke-linejoin="round" />
  </g>
  <g
     id="g506"
     transform="translate(189.6393,3.3388827)">
    <polygon
       id="polygon504"
       points="0.0421,0.1347 0.0421,-0.1347 7.306,-1.3696 7.306,-1.1002 "
       stroke="currentColor"
       fill="currentColor"
       stroke-width="0.0842"
       stroke-linecap="round"
       stroke-linejoin="round" />
  </g>
  <g
     id="g510"
     transform="translate(188.8056,4.8124827)">
    <path
       id="path508"
       d="m 0.8423,-2.6365 c 0.861,-1.0734 3.6542,-1.5429 4.8188,-0.8098 v 0 C 4.5153,-4.0676 1.7221,-3.5982 0.8423,-2.6365 Z"
       fill="currentColor"
       stroke="currentColor"
       stroke-linecap="round"
       stroke-linejoin="round"
       stroke-width="0.0755" />
  </g>
  <g
     id="g514"
     transform="translate(199.0211,1.2579827)">
    <polygon
       id="polygon512"
       points="0.0421,0.1347 0.0421,-0.1347 7.3607,-0.1347 7.3607,0.1347 "
       stroke="currentColor"
       fill="currentColor"
       stroke-width="0.0842"
       stroke-linecap="round"
       stroke-linejoin="round" />
  </g>
  <g
     id="g518"
     transform="translate(199.0211,1.8651827)">
    <polygon
       id="polygon516"
       points="0.0421,0.1347 0.0421,-0.1347 7.3607,-0.1347 7.3607,0.1347 "
       stroke="currentColor"
       fill="currentColor"
       stroke-width="0.0842"
       stroke-linecap="round"
       stroke-linejoin="round" />
  </g>
  <g
     id="g522"
     transform="translate(208.2076,3.3388827)">
    <polygon
       id="polygon520"
       points="0.0421,0.1347 0.0421,-0.1347 7.0501,-1.6084 7.0501,-1.3389 "
       stroke="currentColor"
       fill="currentColor"
       stroke-width="0.0842"
       stroke-linecap="round"
       stroke-linejoin="round" />
  </g>
  <g
     id="g526"
     transform="translate(208.2076,3.9460827)">
    <polygon
       id="polygon524"
       points="0.0421,0.1347 0.0421,-0.1347 7.0501,-1.6084 7.0501,-1.3389 "
       stroke="currentColor"
       fill="currentColor"
       stroke-width="0.0842"
       stroke-linecap="round"
       stroke-linejoin="round" />
  </g>
  <g
     id="g530"
     transform="translate(214.3433,4.4440827)">
    <path
       id="path528"
       fill="currentColor"
       d="m 208,139 c 61,0 117,-33 117,-99 0,-71 -52,-119 -99,-147 -34,-20 -71,-32 -110,-32 -61,0 -116,33 -116,99 0,71 51,119 98,147 34,20 71,32 110,32 z"
       transform="scale(0.0029,-0.0029)" />
  </g>
  <g
     id="g534"
     transform="translate(215.2384,4.8124827)">
    <rect
       id="rect532"
       fill="currentColor"
       ry="0.042100001"
       height="2.447"
       width="0.1228"
       y="-2.9346001"
       x="-0.0614" />
  </g>
  <g
     id="g538"
     transform="translate(8.3357,1.4967827)">
    <polygon
       id="polygon536"
       points="0.0421,0.1347 0.0421,-0.1347 17.1131,-0.1347 17.1131,0.1347 "
       stroke="currentColor"
       fill="currentColor"
       stroke-width="0.0842"
       stroke-linecap="round"
       stroke-linejoin="round" />
  </g>
  <g
     id="g542"
     transform="translate(29.8661,3.2091827)">
    <polygon
       id="polygon540"
       points="0.0421,0.1347 0.0421,-0.1347 5.5936,-0.6123 5.5936,-0.3429 "
       stroke="currentColor"
       fill="currentColor"
       stroke-width="0.0842"
       stroke-linecap="round"
       stroke-linejoin="round" />
  </g>
  <g
     id="g546"
     transform="translate(33.2226,3.5319827)">
    <polygon
       id="polygon544"
       points="0.0421,0.1347 0.0421,-0.1347 2.2371,-0.3279 2.2371,-0.0584 "
       stroke="currentColor"
       fill="currentColor"
       stroke-width="0.0842"
       stroke-linecap="round"
       stroke-linejoin="round" />
  </g>
  <g
     id="g550"
     transform="translate(32.3889,4.8124827)">
    <path
       id="path548"
       d="M 0.8682,-2.4382 C 1.3844,-3.0314 2.416,-3.1188 3.0247,-2.621 v 0 C 2.4256,-3.0059 1.3939,-2.9184 0.8682,-2.4382 Z"
       fill="currentColor"
       stroke="currentColor"
       stroke-linecap="round"
       stroke-linejoin="round"
       stroke-width="0.0755" />
  </g>
  <g
     id="g554"
     transform="translate(37.5356,2.7315827)">
    <polygon
       id="polygon552"
       points="0.0421,0.1347 0.0421,-0.1347 10.4001,-0.1347 10.4001,0.1347 "
       stroke="currentColor"
       fill="currentColor"
       stroke-width="0.0842"
       stroke-linecap="round"
       stroke-linejoin="round" />
  </g>
  <g
     id="g558"
     transform="translate(52.4959,3.2091827)">
    <polygon
       id="polygon556"
       points="0.0421,0.1347 0.0421,-0.1347 5.5936,-0.6123 5.5936,-0.3429 "
       stroke="currentColor"
       fill="currentColor"
       stroke-width="0.0842"
       stroke-linecap="round"
       stroke-linejoin="round" />
  </g>
  <g
     id="g562"
     transform="translate(55.8524,3.5319827)">
    <polygon
       id="polygon560"
       points="0.0421,0.1347 0.0421,-0.1347 2.2371,-0.3279 2.2371,-0.0584 "
       stroke="currentColor"
       fill="currentColor"
       stroke-width="0.0842"
       stroke-linecap="round"
       stroke-linejoin="round" />
  </g>
  <g
     id="g566"
     transform="translate(55.0186,4.8124827)">
    <path
       id="path564"
       d="M 0.8682,-2.4382 C 1.3844,-3.0314 2.416,-3.1188 3.0247,-2.621 v 0 C 2.4256,-3.0059 1.3939,-2.9184 0.8682,-2.4382 Z"
       fill="currentColor"
       stroke="currentColor"
       stroke-linecap="round"
       stroke-linejoin="round"
       stroke-width="0.0755" />
  </g>
  <g
     id="g570"
     transform="translate(177.1673,4.8124827)">
    <path
       id="path568"
       fill="currentColor"
       d="m 208,139 c 61,0 117,-33 117,-99 0,-71 -52,-119 -99,-147 -34,-20 -71,-32 -110,-32 -61,0 -116,33 -116,99 0,71 51,119 98,147 34,20 71,32 110,32 z"
       transform="scale(0.0029,-0.0029)" />
  </g>
  <g
     id="g574"
     transform="translate(178.0624,4.8124827)">
    <rect
       id="rect572"
       fill="currentColor"
       ry="0.042100001"
       height="3.4354"
       width="0.1228"
       y="-3.5546"
       x="-0.0614" />
  </g>
  <g
     id="g578"
     transform="translate(179.7757,3.7072827)">
    <path
       id="path576"
       fill="currentColor"
       d="m 208,139 c 61,0 117,-33 117,-99 0,-71 -52,-119 -99,-147 -34,-20 -71,-32 -110,-32 -61,0 -116,33 -116,99 0,71 51,119 98,147 34,20 71,32 110,32 z"
       transform="scale(0.0029,-0.0029)" />
  </g>
  <g
     id="g582"
     transform="translate(180.6708,4.8124827)">
    <rect
       id="rect580"
       fill="currentColor"
       ry="0.042100001"
       height="2.3301001"
       width="0.1228"
       y="-3.5546"
       x="-0.0614" />
  </g>
  <g
     id="g586"
     transform="translate(178.8363,3.7072827)">
    <path
       id="path584"
       fill="currentColor"
       d="m 33,35 -2,-60 v -11 c 0,-21 2,-43 5,-64 42,38 87,81 87,138 0,32 -13,63 -41,63 C 51,101 34,69 33,35 Z M 32,446 23,109 c 25,26 59,40 95,40 50,0 82,-51 82,-105 0,-77 -80,-117 -137,-169 -18,-17 -26,-48 -52,-48 -16,0 -28,15 -28,32 l -15,587 c 10,6 21,8 32,8 11,0 22,-2 32,-8 z"
       transform="scale(0.0029,-0.0029)" />
  </g>
  <g
     id="g590"
     transform="translate(182.4928,4.4440827)">
    <path
       id="path588"
       fill="currentColor"
       d="m 208,139 c 61,0 117,-33 117,-99 0,-71 -52,-119 -99,-147 -34,-20 -71,-32 -110,-32 -61,0 -116,33 -116,99 0,71 51,119 98,147 34,20 71,32 110,32 z"
       transform="scale(0.0029,-0.0029)" />
  </g>
  <g
     id="g594"
     transform="translate(183.3879,4.8124827)">
    <rect
       id="rect592"
       fill="currentColor"
       ry="0.042100001"
       height="3.0669"
       width="0.1228"
       y="-3.5546"
       x="-0.0614" />
  </g>
  <g
     id="g598"
     transform="translate(181.3322,4.4440827)">
    <path
       id="path596"
       fill="currentColor"
       d="m 0,114 c 0,12 7,22 18,26 l 37,15 v 151 c 0,12 10,22 22,22 12,0 22,-10 22,-22 V 172 l 77,29 v 152 c 0,12 10,22 22,22 12,0 22,-10 22,-22 V 219 l 16,6 c 3,1 8,2 11,2 15,0 28,-12 28,-28 v -50 c 0,-12 -7,-23 -18,-27 L 220,108 V -44 l 16,7 c 3,1 8,2 11,2 15,0 28,-13 28,-29 v -50 c 0,-12 -7,-22 -18,-26 l -37,-15 v -151 c 0,-12 -10,-22 -22,-22 -12,0 -22,10 -22,22 v 134 l -77,-29 v -152 c 0,-12 -10,-22 -22,-22 -12,0 -22,10 -22,22 v 134 l -16,-6 c -3,-1 -8,-2 -11,-2 -15,0 -28,12 -28,28 v 50 c 0,12 7,23 18,27 l 37,14 V 44 L 39,37 C 36,36 31,35 28,35 13,35 0,48 0,64 Z M 176,91 99,61 V -91 l 77,30 z"
       transform="scale(0.0029,-0.0029)" />
  </g>
  <g
     id="g602"
     transform="translate(172.8543,5.5493827)">
    <path
       id="path600"
       fill="currentColor"
       d="m 208,139 c 61,0 117,-33 117,-99 0,-71 -52,-119 -99,-147 -34,-20 -71,-32 -110,-32 -61,0 -116,33 -116,99 0,71 51,119 98,147 34,20 71,32 110,32 z"
       transform="scale(0.0029,-0.0029)" />
  </g>
  <g
     id="g606"
     transform="translate(170.4478,6.6546827)">
    <path
       id="path604"
       fill="currentColor"
       d="m 208,139 c 61,0 117,-33 117,-99 0,-71 -52,-119 -99,-147 -34,-20 -71,-32 -110,-32 -61,0 -116,33 -116,99 0,71 51,119 98,147 34,20 71,32 110,32 z"
       transform="scale(0.0029,-0.0029)" />
  </g>
  <g
     id="g610"
     transform="translate(171.3429,4.8124827)">
    <rect
       id="rect608"
       fill="currentColor"
       ry="0.042100001"
       height="2.9274001"
       width="0.1228"
       y="-1.2045"
       x="-0.0614" />
  </g>
  <g
     id="g614"
     transform="translate(173.7494,4.8124827)">
    <rect
       id="rect612"
       fill="currentColor"
       ry="0.042100001"
       height="2.2781999"
       width="0.1228"
       y="-1.6605999"
       x="-0.0614" />
  </g>
  <g
     id="g618"
     transform="translate(175.0108,5.1809827)">
    <path
       id="path616"
       fill="currentColor"
       d="m 208,139 c 61,0 117,-33 117,-99 0,-71 -52,-119 -99,-147 -34,-20 -71,-32 -110,-32 -61,0 -116,33 -116,99 0,71 51,119 98,147 34,20 71,32 110,32 z"
       transform="scale(0.0029,-0.0029)" />
  </g>
  <g
     id="g622"
     transform="translate(175.9059,4.8124827)">
    <rect
       id="rect620"
       fill="currentColor"
       ry="0.042100001"
       height="2.3185"
       width="0.1228"
       y="-2.0692999"
       x="-0.0614" />
  </g>
  <g
     id="g626"
     transform="translate(193.6244,4.0756827)">
    <path
       id="path624"
       fill="currentColor"
       d="m 208,139 c 61,0 117,-33 117,-99 0,-71 -52,-119 -99,-147 -34,-20 -71,-32 -110,-32 -61,0 -116,33 -116,99 0,71 51,119 98,147 34,20 71,32 110,32 z"
       transform="scale(0.0029,-0.0029)" />
  </g>
  <g
     id="g630"
     transform="translate(191.2179,4.8124827)">
    <path
       id="path628"
       fill="currentColor"
       d="m 208,139 c 61,0 117,-33 117,-99 0,-71 -52,-119 -99,-147 -34,-20 -71,-32 -110,-32 -61,0 -116,33 -116,99 0,71 51,119 98,147 34,20 71,32 110,32 z"
       transform="scale(0.0029,-0.0029)" />
  </g>
  <g
     id="g634"
     transform="translate(192.113,4.8124827)">
    <rect
       id="rect632"
       fill="currentColor"
       ry="0.042100001"
       height="2.3773999"
       width="0.1228"
       y="-2.4965999"
       x="-0.0614" />
  </g>
  <g
     id="g638"
     transform="translate(190.362,4.8124827)">
    <path
       id="path636"
       fill="currentColor"
       d="m -8,375 c 8,5 18,7 27,7 9,0 20,-2 28,-7 l -3,-196 99,24 h 4 c 11,0 20,-8 20,-19 l 8,-559 c -8,-5 -19,-7 -28,-7 -9,0 -19,2 -27,7 l 3,196 -99,-24 h -5 c -11,0 -19,8 -19,19 z M 127,109 42,89 l -2,-198 84,20 z"
       transform="scale(0.0029,-0.0029)" />
  </g>
  <g
     id="g642"
     transform="translate(194.5195,4.8124827)">
    <rect
       id="rect640"
       fill="currentColor"
       ry="0.042100001"
       height="2.0450001"
       width="0.1228"
       y="-2.901"
       x="-0.0614" />
  </g>
  <g
     id="g646"
     transform="translate(196.0309,3.3388827)">
    <path
       id="path644"
       fill="currentColor"
       d="m 208,139 c 61,0 117,-33 117,-99 0,-71 -52,-119 -99,-147 -34,-20 -71,-32 -110,-32 -61,0 -116,33 -116,99 0,71 51,119 98,147 34,20 71,32 110,32 z"
       transform="scale(0.0029,-0.0029)" />
  </g>
  <g
     id="g650"
     transform="translate(196.926,4.8124827)">
    <rect
       id="rect648"
       fill="currentColor"
       ry="0.042100001"
       height="1.7126"
       width="0.1228"
       y="-3.3055"
       x="-0.0614" />
  </g>
  <g
     id="g654"
     transform="translate(184.6492,4.0756827)">
    <path
       id="path652"
       fill="currentColor"
       d="m 208,139 c 61,0 117,-33 117,-99 0,-71 -52,-119 -99,-147 -34,-20 -71,-32 -110,-32 -61,0 -116,33 -116,99 0,71 51,119 98,147 34,20 71,32 110,32 z"
       transform="scale(0.0029,-0.0029)" />
  </g>
  <g
     id="g658"
     transform="translate(185.5443,4.8124827)">
    <rect
       id="rect656"
       fill="currentColor"
       ry="0.042100001"
       height="2.6984999"
       width="0.1228"
       y="-3.5546"
       x="-0.0614" />
  </g>
  <g
     id="g662"
     transform="translate(188.8056,5.5493827)">
    <path
       id="path660"
       fill="currentColor"
       d="m 208,139 c 61,0 117,-33 117,-99 0,-71 -52,-119 -99,-147 -34,-20 -71,-32 -110,-32 -61,0 -116,33 -116,99 0,71 51,119 98,147 34,20 71,32 110,32 z"
       transform="scale(0.0029,-0.0029)" />
  </g>
  <g
     id="g666"
     transform="translate(189.7007,4.8124827)">
    <rect
       id="rect664"
       fill="currentColor"
       ry="0.042100001"
       height="2.7088001"
       width="0.1228"
       y="-2.0912001"
       x="-0.0614" />
  </g>
  <g
     id="g670"
     transform="translate(168.9364,4.8124827)">
    <rect
       id="rect668"
       fill="currentColor"
       ry="0.042100001"
       height="3.2082"
       width="0.1228"
       y="-0.74849999"
       x="-0.0614" />
  </g>
  <g
     id="g674"
     transform="translate(187.645,5.5493827)">
    <path
       id="path672"
       fill="currentColor"
       d="m 0,114 c 0,12 7,22 18,26 l 37,15 v 151 c 0,12 10,22 22,22 12,0 22,-10 22,-22 V 172 l 77,29 v 152 c 0,12 10,22 22,22 12,0 22,-10 22,-22 V 219 l 16,6 c 3,1 8,2 11,2 15,0 28,-12 28,-28 v -50 c 0,-12 -7,-23 -18,-27 L 220,108 V -44 l 16,7 c 3,1 8,2 11,2 15,0 28,-13 28,-29 v -50 c 0,-12 -7,-22 -18,-26 l -37,-15 v -151 c 0,-12 -10,-22 -22,-22 -12,0 -22,10 -22,22 v 134 l -77,-29 v -152 c 0,-12 -10,-22 -22,-22 -12,0 -22,10 -22,22 v 134 l -16,-6 c -3,-1 -8,-2 -11,-2 -15,0 -28,12 -28,28 v 50 c 0,12 7,23 18,27 l 37,14 V 44 L 39,37 C 36,36 31,35 28,35 13,35 0,48 0,64 Z M 176,91 99,61 V -91 l 77,30 z"
       transform="scale(0.0029,-0.0029)" />
  </g>
  <g
     id="g678"
     transform="translate(51.6622,5.9177827)">
    <path
       id="path676"
       fill="currentColor"
       d="m 208,139 c 61,0 117,-33 117,-99 0,-71 -52,-119 -99,-147 -34,-20 -71,-32 -110,-32 -61,0 -116,33 -116,99 0,71 51,119 98,147 34,20 71,32 110,32 z"
       transform="scale(0.0029,-0.0029)" />
  </g>
  <g
     id="g682"
     transform="translate(47.0213,5.5493827)">
    <path
       id="path680"
       fill="currentColor"
       d="m 208,139 c 61,0 117,-33 117,-99 0,-71 -52,-119 -99,-147 -34,-20 -71,-32 -110,-32 -61,0 -116,33 -116,99 0,71 51,119 98,147 34,20 71,32 110,32 z"
       transform="scale(0.0029,-0.0029)" />
  </g>
  <g
     id="g686"
     transform="translate(47.9164,4.8124827)">
    <rect
       id="rect684"
       fill="currentColor"
       ry="0.042100001"
       height="2.6984999"
       width="0.1228"
       y="-2.0809"
       x="-0.0614" />
  </g>
  <g
     id="g690"
     transform="translate(44.5599,4.8124827)">
    <rect
       id="rect688"
       fill="currentColor"
       ry="0.042100001"
       height="2.3301001"
       width="0.1228"
       y="-2.0809"
       x="-0.0614" />
  </g>
  <g
     id="g694"
     transform="translate(51.6622,6.6546827)">
    <path
       id="path692"
       fill="currentColor"
       d="m 208,139 c 61,0 117,-33 117,-99 0,-71 -52,-119 -99,-147 -34,-20 -71,-32 -110,-32 -61,0 -116,33 -116,99 0,71 51,119 98,147 34,20 71,32 110,32 z"
       transform="scale(0.0029,-0.0029)" />
  </g>
  <g
     id="g698"
     transform="translate(52.5573,4.8124827)">
    <rect
       id="rect696"
       fill="currentColor"
       ry="0.042100001"
       height="2.5945001"
       width="0.1228"
       y="-1.6085"
       x="-0.0614" />
  </g>
  <g
     id="g702"
     transform="translate(51.7235,4.8124827)">
    <rect
       id="rect700"
       fill="currentColor"
       ry="0.042100001"
       height="2.0913"
       width="0.1228"
       y="1.9613"
       x="-0.0614" />
  </g>
  <g
     id="g706"
     transform="translate(34.5454,4.8124827)">
    <path
       id="path704"
       fill="currentColor"
       d="m 208,139 c 61,0 117,-33 117,-99 0,-71 -52,-119 -99,-147 -34,-20 -71,-32 -110,-32 -61,0 -116,33 -116,99 0,71 51,119 98,147 34,20 71,32 110,32 z"
       transform="scale(0.0029,-0.0029)" />
  </g>
  <g
     id="g710"
     transform="translate(35.4405,4.8124827)">
    <rect
       id="rect708"
       fill="currentColor"
       ry="0.042100001"
       height="1.9565001"
       width="0.1228"
       y="-2.0757"
       x="-0.0614" />
  </g>
  <g
     id="g714"
     transform="translate(36.7018,7.0230827)">
    <path
       id="path712"
       fill="currentColor"
       d="m 208,139 c 61,0 117,-33 117,-99 0,-71 -52,-119 -99,-147 -34,-20 -71,-32 -110,-32 -61,0 -116,33 -116,99 0,71 51,119 98,147 34,20 71,32 110,32 z"
       transform="scale(0.0029,-0.0029)" />
  </g>
  <g
     id="g718"
     transform="translate(37.5969,4.8124827)">
    <rect
       id="rect716"
       fill="currentColor"
       ry="0.042100001"
       height="4.1722002"
       width="0.1228"
       y="-2.0809"
       x="-0.0614" />
  </g>
  <g
     id="g722"
     transform="translate(51.7849,8.8230827)">
    <path
       id="path720"
       fill="currentColor"
       d="m 0,250 c 94,60 217,150 217,259 0,56 -15,110 -41,160 v 6 c 0,16 14,26 28,26 9,0 17,-4 22,-14 25,-56 40,-116 40,-178 C 266,306 0,203 0,0 h -21 v 250 z"
       transform="scale(0.0029,-0.0029)" />
  </g>
  <g
     id="g726"
     transform="translate(35.5413,7.0230827)">
    <path
       id="path724"
       fill="currentColor"
       d="m 0,114 c 0,12 7,22 18,26 l 37,15 v 151 c 0,12 10,22 22,22 12,0 22,-10 22,-22 V 172 l 77,29 v 152 c 0,12 10,22 22,22 12,0 22,-10 22,-22 V 219 l 16,6 c 3,1 8,2 11,2 15,0 28,-12 28,-28 v -50 c 0,-12 -7,-23 -18,-27 L 220,108 V -44 l 16,7 c 3,1 8,2 11,2 15,0 28,-13 28,-29 v -50 c 0,-12 -7,-22 -18,-26 l -37,-15 v -151 c 0,-12 -10,-22 -22,-22 -12,0 -22,10 -22,22 v 134 l -77,-29 v -152 c 0,-12 -10,-22 -22,-22 -12,0 -22,10 -22,22 v 134 l -16,-6 c -3,-1 -8,-2 -11,-2 -15,0 -28,12 -28,28 v 50 c 0,12 7,23 18,27 l 37,14 V 44 L 39,37 C 36,36 31,35 28,35 13,35 0,48 0,64 Z M 176,91 99,61 V -91 l 77,30 z"
       transform="scale(0.0029,-0.0029)" />
  </g>
  <g
     id="g730"
     transform="translate(40.3083,4.8124827)">
    <path
       id="path728"
       fill="currentColor"
       d="m 208,139 c 61,0 117,-33 117,-99 0,-71 -52,-119 -99,-147 -34,-20 -71,-32 -110,-32 -61,0 -116,33 -116,99 0,71 51,119 98,147 34,20 71,32 110,32 z"
       transform="scale(0.0029,-0.0029)" />
  </g>
  <g
     id="g734"
     transform="translate(41.2034,4.8124827)">
    <rect
       id="rect732"
       fill="currentColor"
       ry="0.042100001"
       height="1.9617"
       width="0.1228"
       y="-2.0809"
       x="-0.0614" />
  </g>
  <g
     id="g738"
     transform="translate(43.6648,5.1809827)">
    <path
       id="path736"
       fill="currentColor"
       d="m 208,139 c 61,0 117,-33 117,-99 0,-71 -52,-119 -99,-147 -34,-20 -71,-32 -110,-32 -61,0 -116,33 -116,99 0,71 51,119 98,147 34,20 71,32 110,32 z"
       transform="scale(0.0029,-0.0029)" />
  </g>
  <g
     id="g742"
     transform="translate(59.0816,7.3914827)">
    <path
       id="path740"
       fill="currentColor"
       d="m 208,139 c 61,0 117,-33 117,-99 0,-71 -52,-119 -99,-147 -34,-20 -71,-32 -110,-32 -61,0 -116,33 -116,99 0,71 51,119 98,147 34,20 71,32 110,32 z"
       transform="scale(0.0029,-0.0029)" />
  </g>
  <g
     id="g746"
     transform="translate(59.9767,4.8124827)">
    <rect
       id="rect744"
       fill="currentColor"
       ry="0.042100001"
       height="3.8116"
       width="0.1228"
       y="-1.3518"
       x="-0.0614" />
  </g>
  <g
     id="g750"
     transform="translate(110.6221,3.3388827)">
    <path
       id="path748"
       fill="currentColor"
       d="m 208,139 c 61,0 117,-33 117,-99 0,-71 -52,-119 -99,-147 -34,-20 -71,-32 -110,-32 -61,0 -116,33 -116,99 0,71 51,119 98,147 34,20 71,32 110,32 z"
       transform="scale(0.0029,-0.0029)" />
  </g>
  <g
     id="g754"
     transform="translate(62.6881,6.6546827)">
    <path
       id="path752"
       fill="currentColor"
       d="m 208,139 c 61,0 117,-33 117,-99 0,-71 -52,-119 -99,-147 -34,-20 -71,-32 -110,-32 -61,0 -116,33 -116,99 0,71 51,119 98,147 34,20 71,32 110,32 z"
       transform="scale(0.0029,-0.0029)" />
  </g>
  <g
     id="g758"
     transform="translate(63.5832,4.8124827)">
    <rect
       id="rect756"
       fill="currentColor"
       ry="0.042100001"
       height="3.5323"
       width="0.1228"
       y="-1.8094"
       x="-0.0614" />
  </g>
  <g
     id="g762"
     transform="translate(66.2946,5.5493827)">
    <path
       id="path760"
       fill="currentColor"
       d="m 208,139 c 61,0 117,-33 117,-99 0,-71 -52,-119 -99,-147 -34,-20 -71,-32 -110,-32 -61,0 -116,33 -116,99 0,71 51,119 98,147 34,20 71,32 110,32 z"
       transform="scale(0.0029,-0.0029)" />
  </g>
  <g
     id="g766"
     transform="translate(67.1897,4.8124827)">
    <rect
       id="rect764"
       fill="currentColor"
       ry="0.042100001"
       height="2.8845999"
       width="0.1228"
       y="-2.2669001"
       x="-0.0614" />
  </g>
  <g
     id="g770"
     transform="translate(69.9011,4.0756827)">
    <path
       id="path768"
       fill="currentColor"
       d="m 208,139 c 61,0 117,-33 117,-99 0,-71 -52,-119 -99,-147 -34,-20 -71,-32 -110,-32 -61,0 -116,33 -116,99 0,71 51,119 98,147 34,20 71,32 110,32 z"
       transform="scale(0.0029,-0.0029)" />
  </g>
  <g
     id="g774"
     transform="translate(70.7962,4.8124827)">
    <rect
       id="rect772"
       fill="currentColor"
       ry="0.042100001"
       height="1.8684"
       width="0.1228"
       y="-2.7244999"
       x="-0.0614" />
  </g>
  <g
     id="g778"
     transform="translate(55.0186,5.5493827)">
    <path
       id="path776"
       fill="currentColor"
       d="m 208,139 c 61,0 117,-33 117,-99 0,-71 -52,-119 -99,-147 -34,-20 -71,-32 -110,-32 -61,0 -116,33 -116,99 0,71 51,119 98,147 34,20 71,32 110,32 z"
       transform="scale(0.0029,-0.0029)" />
  </g>
  <g
     id="g782"
     transform="translate(55.9137,4.8124827)">
    <rect
       id="rect780"
       fill="currentColor"
       ry="0.042100001"
       height="2.5106001"
       width="0.1228"
       y="-1.893"
       x="-0.0614" />
  </g>
  <g
     id="g786"
     transform="translate(57.1751,5.1809827)">
    <path
       id="path784"
       fill="currentColor"
       d="m 208,139 c 61,0 117,-33 117,-99 0,-71 -52,-119 -99,-147 -34,-20 -71,-32 -110,-32 -61,0 -116,33 -116,99 0,71 51,119 98,147 34,20 71,32 110,32 z"
       transform="scale(0.0029,-0.0029)" />
  </g>
  <g
     id="g790"
     transform="translate(58.0702,4.8124827)">
    <rect
       id="rect788"
       fill="currentColor"
       ry="0.042100001"
       height="2.3248999"
       width="0.1228"
       y="-2.0757"
       x="-0.0614" />
  </g>
  <g
     id="g794"
     transform="translate(7.6247,8.8230827)">
    <path
       id="path792"
       fill="currentColor"
       d="m 0,250 c 94,60 217,150 217,259 0,56 -15,110 -41,160 v 6 c 0,16 14,26 28,26 9,0 17,-4 22,-14 25,-56 40,-116 40,-178 C 266,306 0,203 0,0 h -21 v 250 z"
       transform="scale(0.0029,-0.0029)" />
  </g>
  <g
     id="g798"
     transform="translate(11.1084,3.3388827)">
    <path
       id="path796"
       fill="currentColor"
       d="m 208,139 c 61,0 117,-33 117,-99 0,-71 -52,-119 -99,-147 -34,-20 -71,-32 -110,-32 -61,0 -116,33 -116,99 0,71 51,119 98,147 34,20 71,32 110,32 z"
       transform="scale(0.0029,-0.0029)" />
  </g>
  <g
     id="g802"
     transform="translate(12.0035,4.8124827)">
    <rect
       id="rect800"
       fill="currentColor"
       ry="0.042100001"
       height="1.7229"
       width="0.1228"
       y="-3.3158"
       x="-0.0614" />
  </g>
  <g
     id="g806"
     transform="translate(7.5633,4.8124827)">
    <rect
       id="rect804"
       fill="currentColor"
       ry="0.042100001"
       height="2.0913"
       width="0.1228"
       y="1.9613"
       x="-0.0614" />
  </g>
  <g
     id="g810"
     transform="translate(14.4649,3.7072827)">
    <path
       id="path808"
       fill="currentColor"
       d="m 208,139 c 61,0 117,-33 117,-99 0,-71 -52,-119 -99,-147 -34,-20 -71,-32 -110,-32 -61,0 -116,33 -116,99 0,71 51,119 98,147 34,20 71,32 110,32 z"
       transform="scale(0.0029,-0.0029)" />
  </g>
  <g
     id="g814"
     transform="translate(15.36,4.8124827)">
    <rect
       id="rect812"
       fill="currentColor"
       ry="0.042100001"
       height="2.0913"
       width="0.1228"
       y="-3.3158"
       x="-0.0614" />
  </g>
  <g
     id="g818"
     transform="translate(17.8214,4.0756827)">
    <path
       id="path816"
       fill="currentColor"
       d="m 208,139 c 61,0 117,-33 117,-99 0,-71 -52,-119 -99,-147 -34,-20 -71,-32 -110,-32 -61,0 -116,33 -116,99 0,71 51,119 98,147 34,20 71,32 110,32 z"
       transform="scale(0.0029,-0.0029)" />
  </g>
  <g
     id="g822"
     transform="translate(18.7165,4.8124827)">
    <rect
       id="rect820"
       fill="currentColor"
       ry="0.042100001"
       height="2.4597001"
       width="0.1228"
       y="-3.3158"
       x="-0.0614" />
  </g>
  <g
     id="g826"
     transform="translate(0.8,5.5493827)">
    <path
       id="path824"
       fill="currentColor"
       d="m 381,266 h 9 c 157,0 258,-130 258,-264 0,-77 -33,-156 -108,-212 -22,-16 -46,-28 -71,-36 2,-32 3,-65 3,-97 0,-21 -1,-43 -2,-64 -7,-122 -91,-230 -211,-230 -108,0 -197,88 -197,197 0,58 54,104 113,104 54,0 95,-48 95,-104 0,-52 -43,-95 -95,-95 -8,0 -16,2 -24,4 25,-35 65,-59 111,-59 95,0 155,92 161,190 1,20 2,39 2,59 0,28 -1,55 -3,83 -29,-5 -57,-7 -87,-7 -189,0 -333,174 -333,377 0,176 128,307 242,443 -21,62 -41,124 -50,189 -7,52 -8,106 -8,159 0,113 54,219 146,286 8,6 21,7 29,0 72,-82 136,-244 136,-357 0,-141 -83,-253 -174,-362 22,-67 41,-135 58,-204 z m 83,-466 c 64,25 108,93 108,159 0,87 -62,173 -163,187 24,-113 43,-225 55,-346 z m -126,-18 c 27,0 54,2 80,6 C 405,-87 385,30 360,147 281,140 237,88 237,31 c 0,-43 24,-89 78,-120 5,-5 8,-11 8,-17 0,-13 -11,-24 -24,-24 -3,0 -7,0 -10,2 -81,44 -119,116 -119,187 0,90 60,178 164,201 -14,56 -30,112 -47,167 C 183,305 79,182 79,23 79,-109 206,-218 338,-218 Z M 239,782 c 0,-69 22,-127 41,-183 77,97 140,199 140,323 0,49 -3,69 -19,113 C 302,990 239,890 239,782 Z"
       transform="scale(0.0029,-0.0029)" />
  </g>
  <g
     id="g830"
     transform="translate(4.4125,4.8124827)">
    <path
       id="path828"
       fill="currentColor"
       d="m 33,35 -2,-60 v -11 c 0,-21 2,-43 5,-64 42,38 87,81 87,138 0,32 -13,63 -41,63 C 51,101 34,69 33,35 Z M 32,446 23,109 c 25,26 59,40 95,40 50,0 82,-51 82,-105 0,-77 -80,-117 -137,-169 -18,-17 -26,-48 -52,-48 -16,0 -28,15 -28,32 l -15,587 c 10,6 21,8 32,8 11,0 22,-2 32,-8 z"
       transform="scale(0.0029,-0.0029)" />
  </g>
  <g
     id="g834"
     transform="translate(7.5019,5.9177827)">
    <path
       id="path832"
       fill="currentColor"
       d="m 208,139 c 61,0 117,-33 117,-99 0,-71 -52,-119 -99,-147 -34,-20 -71,-32 -110,-32 -61,0 -116,33 -116,99 0,71 51,119 98,147 34,20 71,32 110,32 z"
       transform="scale(0.0029,-0.0029)" />
  </g>
  <g
     id="g838"
     transform="translate(7.5019,6.6546827)">
    <path
       id="path836"
       fill="currentColor"
       d="m 208,139 c 61,0 117,-33 117,-99 0,-71 -52,-119 -99,-147 -34,-20 -71,-32 -110,-32 -61,0 -116,33 -116,99 0,71 51,119 98,147 34,20 71,32 110,32 z"
       transform="scale(0.0029,-0.0029)" />
  </g>
  <g
     id="g842"
     transform="translate(8.397,4.8124827)">
    <rect
       id="rect840"
       fill="currentColor"
       ry="0.042100001"
       height="4.3017998"
       width="0.1228"
       y="-3.3158"
       x="-0.0614" />
  </g>
  <g
     id="g846"
     transform="translate(29.0938,4.8124827)">
    <rect
       id="rect844"
       fill="currentColor"
       ry="0.042100001"
       height="2.0913"
       width="0.1228"
       y="1.9613"
       x="-0.0614" />
  </g>
  <g
     id="g850"
     transform="translate(29.1551,8.8230827)">
    <path
       id="path848"
       fill="currentColor"
       d="m 0,250 c 94,60 217,150 217,259 0,56 -15,110 -41,160 v 6 c 0,16 14,26 28,26 9,0 17,-4 22,-14 25,-56 40,-116 40,-178 C 266,306 0,203 0,0 h -21 v 250 z"
       transform="scale(0.0029,-0.0029)" />
  </g>
  <g
     id="g854"
     transform="translate(32.3889,5.1809827)">
    <path
       id="path852"
       fill="currentColor"
       d="m 208,139 c 61,0 117,-33 117,-99 0,-71 -52,-119 -99,-147 -34,-20 -71,-32 -110,-32 -61,0 -116,33 -116,99 0,71 51,119 98,147 34,20 71,32 110,32 z"
       transform="scale(0.0029,-0.0029)" />
  </g>
  <g
     id="g858"
     transform="translate(33.284,4.8124827)">
    <rect
       id="rect856"
       fill="currentColor"
       ry="0.042100001"
       height="2.1421001"
       width="0.1228"
       y="-1.893"
       x="-0.0614" />
  </g>
  <g
     id="g862"
     transform="translate(25.4295,4.8124827)">
    <rect
       id="rect860"
       fill="currentColor"
       ry="0.042100001"
       height="2.4597001"
       width="0.1228"
       y="-3.3158"
       x="-0.0614" />
  </g>
  <g
     id="g866"
     transform="translate(21.1779,4.4440827)">
    <path
       id="path864"
       fill="currentColor"
       d="m 208,139 c 61,0 117,-33 117,-99 0,-71 -52,-119 -99,-147 -34,-20 -71,-32 -110,-32 -61,0 -116,33 -116,99 0,71 51,119 98,147 34,20 71,32 110,32 z"
       transform="scale(0.0029,-0.0029)" />
  </g>
  <g
     id="g870"
     transform="translate(22.073,4.8124827)">
    <rect
       id="rect868"
       fill="currentColor"
       ry="0.042100001"
       height="2.8281"
       width="0.1228"
       y="-3.3158"
       x="-0.0614" />
  </g>
  <g
     id="g874"
     transform="translate(20.0174,4.4440827)">
    <path
       id="path872"
       fill="currentColor"
       d="m 0,114 c 0,12 7,22 18,26 l 37,15 v 151 c 0,12 10,22 22,22 12,0 22,-10 22,-22 V 172 l 77,29 v 152 c 0,12 10,22 22,22 12,0 22,-10 22,-22 V 219 l 16,6 c 3,1 8,2 11,2 15,0 28,-12 28,-28 v -50 c 0,-12 -7,-23 -18,-27 L 220,108 V -44 l 16,7 c 3,1 8,2 11,2 15,0 28,-13 28,-29 v -50 c 0,-12 -7,-22 -18,-26 l -37,-15 v -151 c 0,-12 -10,-22 -22,-22 -12,0 -22,10 -22,22 v 134 l -77,-29 v -152 c 0,-12 -10,-22 -22,-22 -12,0 -22,10 -22,22 v 134 l -16,-6 c -3,-1 -8,-2 -11,-2 -15,0 -28,12 -28,28 v 50 c 0,12 7,23 18,27 l 37,14 V 44 L 39,37 C 36,36 31,35 28,35 13,35 0,48 0,64 Z M 176,91 99,61 V -91 l 77,30 z"
       transform="scale(0.0029,-0.0029)" />
  </g>
  <g
     id="g878"
     transform="translate(24.5344,4.0756827)">
    <path
       id="path876"
       fill="currentColor"
       d="m 208,139 c 61,0 117,-33 117,-99 0,-71 -52,-119 -99,-147 -34,-20 -71,-32 -110,-32 -61,0 -116,33 -116,99 0,71 51,119 98,147 34,20 71,32 110,32 z"
       transform="scale(0.0029,-0.0029)" />
  </g>
  <g
     id="g882"
     transform="translate(29.0324,5.5493827)">
    <path
       id="path880"
       fill="currentColor"
       d="m 208,139 c 61,0 117,-33 117,-99 0,-71 -52,-119 -99,-147 -34,-20 -71,-32 -110,-32 -61,0 -116,33 -116,99 0,71 51,119 98,147 34,20 71,32 110,32 z"
       transform="scale(0.0029,-0.0029)" />
  </g>
  <g
     id="g886"
     transform="translate(29.0324,6.6546827)">
    <path
       id="path884"
       fill="currentColor"
       d="m 208,139 c 61,0 117,-33 117,-99 0,-71 -52,-119 -99,-147 -34,-20 -71,-32 -110,-32 -61,0 -116,33 -116,99 0,71 51,119 98,147 34,20 71,32 110,32 z"
       transform="scale(0.0029,-0.0029)" />
  </g>
  <g
     id="g890"
     transform="translate(29.9275,4.8124827)">
    <rect
       id="rect888"
       fill="currentColor"
       ry="0.042100001"
       height="2.2261"
       width="0.1228"
       y="-1.6085"
       x="-0.0614" />
  </g>
  <g
     id="g894"
     transform="translate(86.7255,5.5493827)">
    <path
       id="path892"
       fill="currentColor"
       d="m 208,139 c 61,0 117,-33 117,-99 0,-71 -52,-119 -99,-147 -34,-20 -71,-32 -110,-32 -61,0 -116,33 -116,99 0,71 51,119 98,147 34,20 71,32 110,32 z"
       transform="scale(0.0029,-0.0029)" />
  </g>
  <g
     id="g898"
     transform="translate(87.6207,4.8124827)">
    <rect
       id="rect896"
       fill="currentColor"
       ry="0.042100001"
       height="2.5156"
       width="0.1228"
       y="-1.898"
       x="-0.0614" />
  </g>
  <g
     id="g902"
     transform="translate(101.3689,9.0072827)">
    <path
       id="path900"
       fill="currentColor"
       d="m 266,659 c 0,-44 -15,-80 -38,-114 16,-35 25,-73 25,-111 C 253,254 1,180 0,1 V 0 H -21 V 500 H 0 v -70 c 94,49 217,126 217,229 0,20 -5,41 -14,59 v 5 c 0,16 13,26 27,26 32,0 36,-61 36,-90 z M 0,205 c 88,51 204,130 204,229 0,22 -4,44 -12,65 C 113,414 0,344 0,225 Z"
       transform="scale(0.0029,-0.0029)" />
  </g>
  <g
     id="g906"
     transform="translate(89.132,4.8124827)">
    <path
       id="path904"
       fill="currentColor"
       d="m 208,139 c 61,0 117,-33 117,-99 0,-71 -52,-119 -99,-147 -34,-20 -71,-32 -110,-32 -61,0 -116,33 -116,99 0,71 51,119 98,147 34,20 71,32 110,32 z"
       transform="scale(0.0029,-0.0029)" />
  </g>
  <g
     id="g910"
     transform="translate(90.0271,4.8124827)">
    <rect
       id="rect908"
       fill="currentColor"
       ry="0.042100001"
       height="2.0834999"
       width="0.1228"
       y="-2.2028"
       x="-0.0614" />
  </g>
  <g
     id="g914"
     transform="translate(82.474,4.8124827)">
    <rect
       id="rect912"
       fill="currentColor"
       ry="0.042100001"
       height="2.2755001"
       width="0.1228"
       y="3.0666001"
       x="-0.0614" />
  </g>
  <g
     id="g918"
     transform="translate(84.5691,5.9177827)">
    <path
       id="path916"
       fill="currentColor"
       d="m 208,139 c 61,0 117,-33 117,-99 0,-71 -52,-119 -99,-147 -34,-20 -71,-32 -110,-32 -61,0 -116,33 -116,99 0,71 51,119 98,147 34,20 71,32 110,32 z"
       transform="scale(0.0029,-0.0029)" />
  </g>
  <g
     id="g922"
     transform="translate(85.4642,4.8124827)">
    <rect
       id="rect920"
       fill="currentColor"
       ry="0.042100001"
       height="2.6110001"
       width="0.1228"
       y="-1.6249"
       x="-0.0614" />
  </g>
  <g
     id="g926"
     transform="translate(95.6015,5.9177827)">
    <path
       id="path924"
       fill="currentColor"
       d="m 208,139 c 61,0 117,-33 117,-99 0,-71 -52,-119 -99,-147 -34,-20 -71,-32 -110,-32 -61,0 -116,33 -116,99 0,71 51,119 98,147 34,20 71,32 110,32 z"
       transform="scale(0.0029,-0.0029)" />
  </g>
  <g
     id="g930"
     transform="translate(96.4966,4.8124827)">
    <rect
       id="rect928"
       fill="currentColor"
       ry="0.042100001"
       height="2.664"
       width="0.1228"
       y="-1.678"
       x="-0.0614" />
  </g>
  <g
     id="g934"
     transform="translate(97.758,6.2861827)">
    <path
       id="path932"
       fill="currentColor"
       d="m 208,139 c 61,0 117,-33 117,-99 0,-71 -52,-119 -99,-147 -34,-20 -71,-32 -110,-32 -61,0 -116,33 -116,99 0,71 51,119 98,147 34,20 71,32 110,32 z"
       transform="scale(0.0029,-0.0029)" />
  </g>
  <g
     id="g938"
     transform="translate(101.2461,6.6546827)">
    <path
       id="path936"
       fill="currentColor"
       d="m 208,139 c 61,0 117,-33 117,-99 0,-71 -52,-119 -99,-147 -34,-20 -71,-32 -110,-32 -61,0 -116,33 -116,99 0,71 51,119 98,147 34,20 71,32 110,32 z"
       transform="scale(0.0029,-0.0029)" />
  </g>
  <g
     id="g942"
     transform="translate(98.6531,4.8124827)">
    <rect
       id="rect940"
       fill="currentColor"
       ry="0.042100001"
       height="2.8338001"
       width="0.1228"
       y="-1.4793"
       x="-0.0614" />
  </g>
  <g
     id="g946"
     transform="translate(101.2461,5.9177827)">
    <path
       id="path944"
       fill="currentColor"
       d="m 208,139 c 61,0 117,-33 117,-99 0,-71 -52,-119 -99,-147 -34,-20 -71,-32 -110,-32 -61,0 -116,33 -116,99 0,71 51,119 98,147 34,20 71,32 110,32 z"
       transform="scale(0.0029,-0.0029)" />
  </g>
  <g
     id="g950"
     transform="translate(101.3075,4.8124827)">
    <rect
       id="rect948"
       fill="currentColor"
       ry="0.042100001"
       height="2.2755001"
       width="0.1228"
       y="1.9613"
       x="-0.0614" />
  </g>
  <g
     id="g954"
     transform="translate(91.2885,5.1809827)">
    <path
       id="path952"
       fill="currentColor"
       d="m 208,139 c 61,0 117,-33 117,-99 0,-71 -52,-119 -99,-147 -34,-20 -71,-32 -110,-32 -61,0 -116,33 -116,99 0,71 51,119 98,147 34,20 71,32 110,32 z"
       transform="scale(0.0029,-0.0029)" />
  </g>
  <g
     id="g958"
     transform="translate(92.1836,4.8124827)">
    <rect
       id="rect956"
       fill="currentColor"
       ry="0.042100001"
       height="2.3243999"
       width="0.1228"
       y="-2.0752001"
       x="-0.0614" />
  </g>
  <g
     id="g962"
     transform="translate(82.5353,10.112483)">
    <path
       id="path960"
       fill="currentColor"
       d="m 266,659 c 0,-44 -15,-80 -38,-114 16,-35 25,-73 25,-111 C 253,254 1,180 0,1 V 0 H -21 V 500 H 0 v -70 c 94,49 217,126 217,229 0,20 -5,41 -14,59 v 5 c 0,16 13,26 27,26 32,0 36,-61 36,-90 z M 0,205 c 88,51 204,130 204,229 0,22 -4,44 -12,65 C 113,414 0,344 0,225 Z"
       transform="scale(0.0029,-0.0029)" />
  </g>
  <g
     id="g966"
     transform="translate(93.445,5.5493827)">
    <path
       id="path964"
       fill="currentColor"
       d="m 208,139 c 61,0 117,-33 117,-99 0,-71 -52,-119 -99,-147 -34,-20 -71,-32 -110,-32 -61,0 -116,33 -116,99 0,71 51,119 98,147 34,20 71,32 110,32 z"
       transform="scale(0.0029,-0.0029)" />
  </g>
  <g
     id="g970"
     transform="translate(94.3401,4.8124827)">
    <rect
       id="rect968"
       fill="currentColor"
       ry="0.042100001"
       height="2.4942"
       width="0.1228"
       y="-1.8766"
       x="-0.0614" />
  </g>
  <g
     id="g974"
     transform="translate(102.1412,4.8124827)">
    <rect
       id="rect972"
       fill="currentColor"
       ry="0.042100001"
       height="3.0792999"
       width="0.1228"
       y="-2.0932"
       x="-0.0614" />
  </g>
  <g
     id="g978"
     transform="translate(76.8447,4.8124827)">
    <rect
       id="rect976"
       fill="currentColor"
       ry="0.042100001"
       height="1.7043"
       width="0.1228"
       y="-2.5604"
       x="-0.0614" />
  </g>
  <g
     id="g982"
     transform="translate(108.4656,3.3388827)">
    <path
       id="path980"
       fill="currentColor"
       d="m 208,139 c 61,0 117,-33 117,-99 0,-71 -52,-119 -99,-147 -34,-20 -71,-32 -110,-32 -61,0 -116,33 -116,99 0,71 51,119 98,147 34,20 71,32 110,32 z"
       transform="scale(0.0029,-0.0029)" />
  </g>
  <g
     id="g986"
     transform="translate(106.9542,4.8124827)">
    <rect
       id="rect984"
       fill="currentColor"
       ry="0.042100001"
       height="2.2032001"
       width="0.1228"
       y="-3.0592999"
       x="-0.0614" />
  </g>
  <g
     id="g990"
     transform="translate(72.6181,4.4440827)">
    <path
       id="path988"
       fill="currentColor"
       d="m 208,139 c 61,0 117,-33 117,-99 0,-71 -52,-119 -99,-147 -34,-20 -71,-32 -110,-32 -61,0 -116,33 -116,99 0,71 51,119 98,147 34,20 71,32 110,32 z"
       transform="scale(0.0029,-0.0029)" />
  </g>
  <g
     id="g994"
     transform="translate(73.5132,4.8124827)">
    <rect
       id="rect992"
       fill="currentColor"
       ry="0.042100001"
       height="2.5816"
       width="0.1228"
       y="-3.0692"
       x="-0.0614" />
  </g>
  <g
     id="g998"
     transform="translate(71.4576,4.4440827)">
    <path
       id="path996"
       fill="currentColor"
       d="m 0,114 c 0,12 7,22 18,26 l 37,15 v 151 c 0,12 10,22 22,22 12,0 22,-10 22,-22 V 172 l 77,29 v 152 c 0,12 10,22 22,22 12,0 22,-10 22,-22 V 219 l 16,6 c 3,1 8,2 11,2 15,0 28,-12 28,-28 v -50 c 0,-12 -7,-23 -18,-27 L 220,108 V -44 l 16,7 c 3,1 8,2 11,2 15,0 28,-13 28,-29 v -50 c 0,-12 -7,-22 -18,-26 l -37,-15 v -151 c 0,-12 -10,-22 -22,-22 -12,0 -22,10 -22,22 v 134 l -77,-29 v -152 c 0,-12 -10,-22 -22,-22 -12,0 -22,10 -22,22 v 134 l -16,-6 c -3,-1 -8,-2 -11,-2 -15,0 -28,12 -28,28 v 50 c 0,12 7,23 18,27 l 37,14 V 44 L 39,37 C 36,36 31,35 28,35 13,35 0,48 0,64 Z M 176,91 99,61 V -91 l 77,30 z"
       transform="scale(0.0029,-0.0029)" />
  </g>
  <g
     id="g1002"
     transform="translate(109.3607,4.8124827)">
    <rect
       id="rect1000"
       fill="currentColor"
       ry="0.042100001"
       height="1.9493999"
       width="0.1228"
       y="-3.5423"
       x="-0.0614" />
  </g>
  <g
     id="g1006"
     transform="translate(75.9496,4.0756827)">
    <path
       id="path1004"
       fill="currentColor"
       d="m 208,139 c 61,0 117,-33 117,-99 0,-71 -52,-119 -99,-147 -34,-20 -71,-32 -110,-32 -61,0 -116,33 -116,99 0,71 51,119 98,147 34,20 71,32 110,32 z"
       transform="scale(0.0029,-0.0029)" />
  </g>
  <g
     id="g1010"
     transform="translate(79.1175,4.8124827)">
    <rect
       id="rect1008"
       fill="currentColor"
       ry="0.042100001"
       height="2.0913"
       width="0.1228"
       y="3.4349999"
       x="-0.0614" />
  </g>
  <g
     id="g1014"
     transform="translate(79.1789,10.296783)">
    <path
       id="path1012"
       fill="currentColor"
       d="m 0,250 c 94,60 217,150 217,259 0,56 -15,110 -41,160 v 6 c 0,16 14,26 28,26 9,0 17,-4 22,-14 25,-56 40,-116 40,-178 C 266,306 0,203 0,0 h -21 v 250 z"
       transform="scale(0.0029,-0.0029)" />
  </g>
  <g
     id="g1018"
     transform="translate(106.0591,4.0756827)">
    <path
       id="path1016"
       fill="currentColor"
       d="m 208,139 c 61,0 117,-33 117,-99 0,-71 -52,-119 -99,-147 -34,-20 -71,-32 -110,-32 -61,0 -116,33 -116,99 0,71 51,119 98,147 34,20 71,32 110,32 z"
       transform="scale(0.0029,-0.0029)" />
  </g>
  <g
     id="g1022"
     transform="translate(104.5477,4.8124827)">
    <rect
       id="rect1020"
       fill="currentColor"
       ry="0.042100001"
       height="2.8254001"
       width="0.1228"
       y="-2.5762"
       x="-0.0614" />
  </g>
  <g
     id="g1026"
     transform="translate(103.6526,5.1809827)">
    <path
       id="path1024"
       fill="currentColor"
       d="m 208,139 c 61,0 117,-33 117,-99 0,-71 -52,-119 -99,-147 -34,-20 -71,-32 -110,-32 -61,0 -116,33 -116,99 0,71 51,119 98,147 34,20 71,32 110,32 z"
       transform="scale(0.0029,-0.0029)" />
  </g>
  <g
     id="g1030"
     transform="translate(82.4126,6.2861827)">
    <path
       id="path1028"
       fill="currentColor"
       d="m 208,139 c 61,0 117,-33 117,-99 0,-71 -52,-119 -99,-147 -34,-20 -71,-32 -110,-32 -61,0 -116,33 -116,99 0,71 51,119 98,147 34,20 71,32 110,32 z"
       transform="scale(0.0029,-0.0029)" />
  </g>
  <g
     id="g1034"
     transform="translate(82.4126,7.7598827)">
    <path
       id="path1032"
       fill="currentColor"
       d="m 208,139 c 61,0 117,-33 117,-99 0,-71 -52,-119 -99,-147 -34,-20 -71,-32 -110,-32 -61,0 -116,33 -116,99 0,71 51,119 98,147 34,20 71,32 110,32 z"
       transform="scale(0.0029,-0.0029)" />
  </g>
  <g
     id="g1038"
     transform="translate(83.3077,4.8124827)">
    <rect
       id="rect1036"
       fill="currentColor"
       ry="0.042100001"
       height="2.7063"
       width="0.1228"
       y="-1.3518"
       x="-0.0614" />
  </g>
  <g
     id="g1042"
     transform="translate(79.0561,5.9177827)">
    <path
       id="path1040"
       fill="currentColor"
       d="m 208,139 c 61,0 117,-33 117,-99 0,-71 -52,-119 -99,-147 -34,-20 -71,-32 -110,-32 -61,0 -116,33 -116,99 0,71 51,119 98,147 34,20 71,32 110,32 z"
       transform="scale(0.0029,-0.0029)" />
  </g>
  <g
     id="g1046"
     transform="translate(79.0561,8.1282827)">
    <path
       id="path1044"
       fill="currentColor"
       d="m 208,139 c 61,0 117,-33 117,-99 0,-71 -52,-119 -99,-147 -34,-20 -71,-32 -110,-32 -61,0 -116,33 -116,99 0,71 51,119 98,147 34,20 71,32 110,32 z"
       transform="scale(0.0029,-0.0029)" />
  </g>
  <g
     id="g1050"
     transform="translate(79.9512,4.8124827)">
    <rect
       id="rect1048"
       fill="currentColor"
       ry="0.042100001"
       height="2.6078999"
       width="0.1228"
       y="-1.6219"
       x="-0.0614" />
  </g>
</svg>
