<?xml version="1.0" encoding="UTF-8" standalone="no"?>
<svg
   xmlns:dc="http://purl.org/dc/elements/1.1/"
   xmlns:cc="http://creativecommons.org/ns#"
   xmlns:rdf="http://www.w3.org/1999/02/22-rdf-syntax-ns#"
   xmlns:svg="http://www.w3.org/2000/svg"
   xmlns="http://www.w3.org/2000/svg"
   xmlns:sodipodi="http://sodipodi.sourceforge.net/DTD/sodipodi-0.dtd"
   xmlns:inkscape="http://www.inkscape.org/namespaces/inkscape"
   sodipodi:docname="bwv-1004_5_for_PNGs-16.svg"
   id="svg884"
   viewBox="0 0 144.27729 9.1582504"
   height="15.289093mm"
   width="240.86142mm"
   version="1.2">
  <metadata
     id="metadata890">
    <rdf:RDF>
      <cc:Work
         rdf:about="">
        <dc:format>image/svg+xml</dc:format>
        <dc:type
           rdf:resource="http://purl.org/dc/dcmitype/StillImage" />
      </cc:Work>
    </rdf:RDF>
  </metadata>
  <defs
     id="defs888" />
  <sodipodi:namedview
     id="namedview886"
     inkscape:window-height="480"
     inkscape:window-width="640"
     inkscape:pageshadow="2"
     inkscape:pageopacity="0"
     guidetolerance="10"
     gridtolerance="10"
     objecttolerance="10"
     borderopacity="1"
     bordercolor="#666666"
     pagecolor="#ffffff" />
  <style
     id="style2"
     type="text/css"><![CDATA[
tspan { white-space: pre; }
]]></style>
  <g
     id="g6"
     transform="translate(0,6.91305)">
    <line
       id="line4"
       y2="0"
       x2="144.2301"
       y1="0"
       x1="0.047200002"
       stroke="currentColor"
       stroke-width="0.0944"
       stroke-linecap="round"
       stroke-linejoin="round" />
  </g>
  <g
     id="g10"
     transform="translate(0,6.17625)">
    <line
       id="line8"
       y2="0"
       x2="144.2301"
       y1="0"
       x1="0.047200002"
       stroke="currentColor"
       stroke-width="0.0944"
       stroke-linecap="round"
       stroke-linejoin="round" />
  </g>
  <g
     id="g14"
     transform="translate(0,5.43935)">
    <line
       id="line12"
       y2="0"
       x2="144.2301"
       y1="0"
       x1="0.047200002"
       stroke="currentColor"
       stroke-width="0.0944"
       stroke-linecap="round"
       stroke-linejoin="round" />
  </g>
  <g
     id="g18"
     transform="translate(0,4.70255)">
    <line
       id="line16"
       y2="0"
       x2="144.2301"
       y1="0"
       x1="0.047200002"
       stroke="currentColor"
       stroke-width="0.0944"
       stroke-linecap="round"
       stroke-linejoin="round" />
  </g>
  <g
     id="g22"
     transform="translate(0,3.96575)">
    <line
       id="line20"
       y2="0"
       x2="144.2301"
       y1="0"
       x1="0.047200002"
       stroke="currentColor"
       stroke-width="0.0944"
       stroke-linecap="round"
       stroke-linejoin="round" />
  </g>
  <g
     id="g26"
     transform="translate(144.0979,5.43935)">
    <rect
       id="rect24"
       fill="currentColor"
       ry="0.0000"
       height="2.9474001"
       width="0.1794"
       y="-1.4737"
       x="0" />
  </g>
  <g
     id="g30"
     transform="translate(75.2799,5.43935)">
    <rect
       id="rect28"
       fill="currentColor"
       ry="0.0000"
       height="2.9474001"
       width="0.1794"
       y="-1.4737"
       x="0" />
  </g>
  <g
     id="g34"
     transform="translate(40.3252,5.43935)">
    <rect
       id="rect32"
       fill="currentColor"
       ry="0.0000"
       height="2.9474001"
       width="0.1794"
       y="-1.4737"
       x="0" />
  </g>
  <g
     id="g38"
     transform="translate(109.1826,5.43935)">
    <rect
       id="rect36"
       fill="currentColor"
       ry="0.0000"
       height="2.9474001"
       width="0.1794"
       y="-1.4737"
       x="0" />
  </g>
  <g
     id="g42"
     transform="translate(0,7.64995)">
    <rect
       id="rect40"
       fill="currentColor"
       ry="0.084100001"
       height="0.1681"
       width="1.4347"
       y="-0.084100001"
       x="133.1171" />
  </g>
  <g
     id="g46"
     transform="translate(0,8.38675)">
    <rect
       id="rect44"
       fill="currentColor"
       ry="0.084100001"
       height="0.1681"
       width="1.4347"
       y="-0.084100001"
       x="133.1171" />
  </g>
  <g
     id="g50"
     transform="translate(0,7.64995)">
    <rect
       id="rect48"
       fill="currentColor"
       ry="0.084100001"
       height="0.1681"
       width="1.4347"
       y="-0.084100001"
       x="130.96069" />
  </g>
  <g
     id="g54"
     transform="translate(0,8.38675)">
    <rect
       id="rect52"
       fill="currentColor"
       ry="0.084100001"
       height="0.1681"
       width="1.4347"
       y="-0.084100001"
       x="130.96069" />
  </g>
  <g
     id="g58"
     transform="translate(0,7.64995)">
    <rect
       id="rect56"
       fill="currentColor"
       ry="0.084100001"
       height="0.1681"
       width="1.4347"
       y="-0.084100001"
       x="122.5782" />
  </g>
  <g
     id="g62"
     transform="translate(0,8.38675)">
    <rect
       id="rect60"
       fill="currentColor"
       ry="0.084100001"
       height="0.1681"
       width="1.4347"
       y="-0.084100001"
       x="122.5782" />
  </g>
  <g
     id="g66"
     transform="translate(0,7.64995)">
    <rect
       id="rect64"
       fill="currentColor"
       ry="0.084100001"
       height="0.1681"
       width="1.4347"
       y="-0.084100001"
       x="120.4217" />
  </g>
  <g
     id="g70"
     transform="translate(0,8.38675)">
    <rect
       id="rect68"
       fill="currentColor"
       ry="0.084100001"
       height="0.1681"
       width="1.4347"
       y="-0.084100001"
       x="120.4217" />
  </g>
  <g
     id="g74"
     transform="translate(0,7.64995)">
    <rect
       id="rect72"
       fill="currentColor"
       ry="0.084100001"
       height="0.1681"
       width="1.4347"
       y="-0.084100001"
       x="110.0229" />
  </g>
  <g
     id="g78"
     transform="translate(0,8.38675)">
    <rect
       id="rect76"
       fill="currentColor"
       ry="0.084100001"
       height="0.1681"
       width="1.4347"
       y="-0.084100001"
       x="110.0229" />
  </g>
  <g
     id="g82"
     transform="translate(0,7.64995)">
    <rect
       id="rect80"
       fill="currentColor"
       ry="0.084100001"
       height="0.1681"
       width="1.4347"
       y="-0.084100001"
       x="106.537" />
  </g>
  <g
     id="g86"
     transform="translate(0,7.64995)">
    <rect
       id="rect84"
       fill="currentColor"
       ry="0.084100001"
       height="0.1681"
       width="1.4347"
       y="-0.084100001"
       x="76.120201" />
  </g>
  <g
     id="g90"
     transform="translate(0,7.64995)">
    <rect
       id="rect88"
       fill="currentColor"
       ry="0.084100001"
       height="0.1681"
       width="1.4347"
       y="-0.084100001"
       x="72.6343" />
  </g>
  <g
     id="g94"
     transform="translate(0,7.64995)">
    <rect
       id="rect92"
       fill="currentColor"
       ry="0.084100001"
       height="0.1681"
       width="1.4347"
       y="-0.084100001"
       x="41.1656" />
  </g>
  <g
     id="g98"
     transform="translate(97.0872,6.54465)">
    <path
       id="path96"
       fill="currentColor"
       d="m 208,139 c 61,0 117,-33 117,-99 0,-71 -52,-119 -99,-147 -34,-20 -71,-32 -110,-32 -61,0 -116,33 -116,99 0,71 51,119 98,147 34,20 71,32 110,32 z"
       transform="scale(0.0029,-0.0029)" />
  </g>
  <g
     id="g102"
     transform="translate(97.9823,5.43935)">
    <rect
       id="rect100"
       fill="currentColor"
       ry="0.042100001"
       height="3.5650001"
       width="0.1228"
       y="-2.5789001"
       x="-0.0614" />
  </g>
  <g
     id="g106"
     transform="translate(101.0952,5.43935)">
    <rect
       id="rect104"
       fill="currentColor"
       ry="0.042100001"
       height="3.5650001"
       width="0.1228"
       y="-3.3158"
       x="-0.0614" />
  </g>
  <g
     id="g110"
     transform="translate(98.6436,6.17625)">
    <path
       id="path108"
       fill="currentColor"
       d="m 208,139 c 61,0 117,-33 117,-99 0,-71 -52,-119 -99,-147 -34,-20 -71,-32 -110,-32 -61,0 -116,33 -116,99 0,71 51,119 98,147 34,20 71,32 110,32 z"
       transform="scale(0.0029,-0.0029)" />
  </g>
  <g
     id="g114"
     transform="translate(99.5388,5.43935)">
    <rect
       id="rect112"
       fill="currentColor"
       ry="0.042100001"
       height="3.9333999"
       width="0.1228"
       y="-3.3158"
       x="-0.0614" />
  </g>
  <g
     id="g118"
     transform="translate(100.2001,5.80785)">
    <path
       id="path116"
       fill="currentColor"
       d="m 208,139 c 61,0 117,-33 117,-99 0,-71 -52,-119 -99,-147 -34,-20 -71,-32 -110,-32 -61,0 -116,33 -116,99 0,71 51,119 98,147 34,20 71,32 110,32 z"
       transform="scale(0.0029,-0.0029)" />
  </g>
  <g
     id="g122"
     transform="translate(93.9742,5.80785)">
    <path
       id="path120"
       fill="currentColor"
       d="m 208,139 c 61,0 117,-33 117,-99 0,-71 -52,-119 -99,-147 -34,-20 -71,-32 -110,-32 -61,0 -116,33 -116,99 0,71 51,119 98,147 34,20 71,32 110,32 z"
       transform="scale(0.0029,-0.0029)" />
  </g>
  <g
     id="g126"
     transform="translate(92.4177,6.17625)">
    <path
       id="path124"
       fill="currentColor"
       d="m 208,139 c 61,0 117,-33 117,-99 0,-71 -52,-119 -99,-147 -34,-20 -71,-32 -110,-32 -61,0 -116,33 -116,99 0,71 51,119 98,147 34,20 71,32 110,32 z"
       transform="scale(0.0029,-0.0029)" />
  </g>
  <g
     id="g130"
     transform="translate(93.3128,5.43935)">
    <rect
       id="rect128"
       fill="currentColor"
       ry="0.042100001"
       height="3.1966"
       width="0.1228"
       y="-2.5789001"
       x="-0.0614" />
  </g>
  <g
     id="g134"
     transform="translate(94.8693,5.43935)">
    <rect
       id="rect132"
       fill="currentColor"
       ry="0.042100001"
       height="2.8281"
       width="0.1228"
       y="-2.5789001"
       x="-0.0614" />
  </g>
  <g
     id="g138"
     transform="translate(95.5307,6.17625)">
    <path
       id="path136"
       fill="currentColor"
       d="m 208,139 c 61,0 117,-33 117,-99 0,-71 -52,-119 -99,-147 -34,-20 -71,-32 -110,-32 -61,0 -116,33 -116,99 0,71 51,119 98,147 34,20 71,32 110,32 z"
       transform="scale(0.0029,-0.0029)" />
  </g>
  <g
     id="g142"
     transform="translate(96.4258,5.43935)">
    <rect
       id="rect140"
       fill="currentColor"
       ry="0.042100001"
       height="3.1966"
       width="0.1228"
       y="-2.5789001"
       x="-0.0614" />
  </g>
  <g
     id="g146"
     transform="translate(106.7761,8.01835)">
    <path
       id="path144"
       fill="currentColor"
       d="m 208,139 c 61,0 117,-33 117,-99 0,-71 -52,-119 -99,-147 -34,-20 -71,-32 -110,-32 -61,0 -116,33 -116,99 0,71 51,119 98,147 34,20 71,32 110,32 z"
       transform="scale(0.0029,-0.0029)" />
  </g>
  <g
     id="g150"
     transform="translate(107.6712,5.43935)">
    <rect
       id="rect148"
       fill="currentColor"
       ry="0.042100001"
       height="5.7754998"
       width="0.1228"
       y="-3.3158"
       x="-0.0614" />
  </g>
  <g
     id="g154"
     transform="translate(105.7647,5.43935)">
    <rect
       id="rect152"
       fill="currentColor"
       ry="0.042100001"
       height="2.4597001"
       width="0.1228"
       y="-3.3158"
       x="-0.0614" />
  </g>
  <g
     id="g158"
     transform="translate(110.262,8.38675)">
    <path
       id="path156"
       fill="currentColor"
       d="m 208,139 c 61,0 117,-33 117,-99 0,-71 -52,-119 -99,-147 -34,-20 -71,-32 -110,-32 -61,0 -116,33 -116,99 0,71 51,119 98,147 34,20 71,32 110,32 z"
       transform="scale(0.0029,-0.0029)" />
  </g>
  <g
     id="g162"
     transform="translate(111.1571,5.43935)">
    <rect
       id="rect160"
       fill="currentColor"
       ry="0.042100001"
       height="6.1438999"
       width="0.1228"
       y="-3.3158"
       x="-0.0614" />
  </g>
  <g
     id="g166"
     transform="translate(101.7566,5.43935)">
    <path
       id="path164"
       fill="currentColor"
       d="m 208,139 c 61,0 117,-33 117,-99 0,-71 -52,-119 -99,-147 -34,-20 -71,-32 -110,-32 -61,0 -116,33 -116,99 0,71 51,119 98,147 34,20 71,32 110,32 z"
       transform="scale(0.0029,-0.0029)" />
  </g>
  <g
     id="g170"
     transform="translate(102.6517,5.43935)">
    <rect
       id="rect168"
       fill="currentColor"
       ry="0.042100001"
       height="3.1966"
       width="0.1228"
       y="-3.3158"
       x="-0.0614" />
  </g>
  <g
     id="g174"
     transform="translate(103.3131,5.07095)">
    <path
       id="path172"
       fill="currentColor"
       d="m 208,139 c 61,0 117,-33 117,-99 0,-71 -52,-119 -99,-147 -34,-20 -71,-32 -110,-32 -61,0 -116,33 -116,99 0,71 51,119 98,147 34,20 71,32 110,32 z"
       transform="scale(0.0029,-0.0029)" />
  </g>
  <g
     id="g178"
     transform="translate(104.2082,5.43935)">
    <rect
       id="rect176"
       fill="currentColor"
       ry="0.042100001"
       height="2.8281"
       width="0.1228"
       y="-3.3158"
       x="-0.0614" />
  </g>
  <g
     id="g182"
     transform="translate(104.8696,4.70255)">
    <path
       id="path180"
       fill="currentColor"
       d="m 208,139 c 61,0 117,-33 117,-99 0,-71 -52,-119 -99,-147 -34,-20 -71,-32 -110,-32 -61,0 -116,33 -116,99 0,71 51,119 98,147 34,20 71,32 110,32 z"
       transform="scale(0.0029,-0.0029)" />
  </g>
  <g
     id="g186"
     transform="translate(80.8609,5.43935)">
    <rect
       id="rect184"
       fill="currentColor"
       ry="0.042100001"
       height="2.4597001"
       width="0.1228"
       y="-3.3158"
       x="-0.0614" />
  </g>
  <g
     id="g190"
     transform="translate(79.9658,4.70255)">
    <path
       id="path188"
       fill="currentColor"
       d="m 208,139 c 61,0 117,-33 117,-99 0,-71 -52,-119 -99,-147 -34,-20 -71,-32 -110,-32 -61,0 -116,33 -116,99 0,71 51,119 98,147 34,20 71,32 110,32 z"
       transform="scale(0.0029,-0.0029)" />
  </g>
  <g
     id="g194"
     transform="translate(81.5223,5.07095)">
    <path
       id="path192"
       fill="currentColor"
       d="m 208,139 c 61,0 117,-33 117,-99 0,-71 -52,-119 -99,-147 -34,-20 -71,-32 -110,-32 -61,0 -116,33 -116,99 0,71 51,119 98,147 34,20 71,32 110,32 z"
       transform="scale(0.0029,-0.0029)" />
  </g>
  <g
     id="g198"
     transform="translate(82.4174,5.43935)">
    <rect
       id="rect196"
       fill="currentColor"
       ry="0.042100001"
       height="2.8281"
       width="0.1228"
       y="-3.3158"
       x="-0.0614" />
  </g>
  <g
     id="g202"
     transform="translate(133.3562,5.43935)">
    <path
       id="path200"
       d="m 0.877,-3.8611 c 1.1627,-1.1061 5.1953,-1.3355 6.4759,-0.3684 v 0 C 6.0787,-5.0834 2.0462,-4.854 0.877,-3.8611 Z"
       fill="currentColor"
       stroke="currentColor"
       stroke-linecap="round"
       stroke-linejoin="round"
       stroke-width="0.0755" />
  </g>
  <g
     id="g206"
     transform="translate(70.0274,4.33415)">
    <path
       id="path204"
       fill="currentColor"
       d="m 33,35 -2,-60 v -11 c 0,-21 2,-43 5,-64 42,38 87,81 87,138 0,32 -13,63 -41,63 C 51,101 34,69 33,35 Z M 32,446 23,109 c 25,26 59,40 95,40 50,0 82,-51 82,-105 0,-77 -80,-117 -137,-169 -18,-17 -26,-48 -52,-48 -16,0 -28,15 -28,32 l -15,587 c 10,6 21,8 32,8 11,0 22,-2 32,-8 z"
       transform="scale(0.0029,-0.0029)" />
  </g>
  <g
     id="g210"
     transform="translate(72.8734,7.64995)">
    <path
       id="path208"
       fill="currentColor"
       d="m 208,139 c 61,0 117,-33 117,-99 0,-71 -52,-119 -99,-147 -34,-20 -71,-32 -110,-32 -61,0 -116,33 -116,99 0,71 51,119 98,147 34,20 71,32 110,32 z"
       transform="scale(0.0029,-0.0029)" />
  </g>
  <g
     id="g214"
     transform="translate(73.7685,5.43935)">
    <rect
       id="rect212"
       fill="currentColor"
       ry="0.042100001"
       height="5.6458998"
       width="0.1228"
       y="-3.5546"
       x="-0.0614" />
  </g>
  <g
     id="g218"
     transform="translate(76.3593,8.01835)">
    <path
       id="path216"
       fill="currentColor"
       d="m 208,139 c 61,0 117,-33 117,-99 0,-71 -52,-119 -99,-147 -34,-20 -71,-32 -110,-32 -61,0 -116,33 -116,99 0,71 51,119 98,147 34,20 71,32 110,32 z"
       transform="scale(0.0029,-0.0029)" />
  </g>
  <g
     id="g222"
     transform="translate(77.2544,5.43935)">
    <rect
       id="rect220"
       fill="currentColor"
       ry="0.042100001"
       height="5.7754998"
       width="0.1228"
       y="-3.3158"
       x="-0.0614" />
  </g>
  <g
     id="g226"
     transform="translate(89.3047,5.43935)">
    <path
       id="path224"
       fill="currentColor"
       d="m 208,139 c 61,0 117,-33 117,-99 0,-71 -52,-119 -99,-147 -34,-20 -71,-32 -110,-32 -61,0 -116,33 -116,99 0,71 51,119 98,147 34,20 71,32 110,32 z"
       transform="scale(0.0029,-0.0029)" />
  </g>
  <g
     id="g230"
     transform="translate(87.7482,5.80785)">
    <path
       id="path228"
       fill="currentColor"
       d="m 208,139 c 61,0 117,-33 117,-99 0,-71 -52,-119 -99,-147 -34,-20 -71,-32 -110,-32 -61,0 -116,33 -116,99 0,71 51,119 98,147 34,20 71,32 110,32 z"
       transform="scale(0.0029,-0.0029)" />
  </g>
  <g
     id="g234"
     transform="translate(88.6433,5.43935)">
    <rect
       id="rect232"
       fill="currentColor"
       ry="0.042100001"
       height="2.8281"
       width="0.1228"
       y="-2.5789001"
       x="-0.0614" />
  </g>
  <g
     id="g238"
     transform="translate(90.1998,5.43935)">
    <rect
       id="rect236"
       fill="currentColor"
       ry="0.042100001"
       height="2.4597001"
       width="0.1228"
       y="-2.5789001"
       x="-0.0614" />
  </g>
  <g
     id="g242"
     transform="translate(90.8612,5.80785)">
    <path
       id="path240"
       fill="currentColor"
       d="m 208,139 c 61,0 117,-33 117,-99 0,-71 -52,-119 -99,-147 -34,-20 -71,-32 -110,-32 -61,0 -116,33 -116,99 0,71 51,119 98,147 34,20 71,32 110,32 z"
       transform="scale(0.0029,-0.0029)" />
  </g>
  <g
     id="g246"
     transform="translate(91.7563,5.43935)">
    <rect
       id="rect244"
       fill="currentColor"
       ry="0.042100001"
       height="2.8281"
       width="0.1228"
       y="-2.5789001"
       x="-0.0614" />
  </g>
  <g
     id="g250"
     transform="translate(85.5304,5.43935)">
    <rect
       id="rect248"
       fill="currentColor"
       ry="0.042100001"
       height="2.8281"
       width="0.1228"
       y="-3.3158"
       x="-0.0614" />
  </g>
  <g
     id="g254"
     transform="translate(83.0788,5.43935)">
    <path
       id="path252"
       fill="currentColor"
       d="m 208,139 c 61,0 117,-33 117,-99 0,-71 -52,-119 -99,-147 -34,-20 -71,-32 -110,-32 -61,0 -116,33 -116,99 0,71 51,119 98,147 34,20 71,32 110,32 z"
       transform="scale(0.0029,-0.0029)" />
  </g>
  <g
     id="g258"
     transform="translate(83.9739,5.43935)">
    <rect
       id="rect256"
       fill="currentColor"
       ry="0.042100001"
       height="3.1966"
       width="0.1228"
       y="-3.3158"
       x="-0.0614" />
  </g>
  <g
     id="g262"
     transform="translate(84.6353,5.07095)">
    <path
       id="path260"
       fill="currentColor"
       d="m 208,139 c 61,0 117,-33 117,-99 0,-71 -52,-119 -99,-147 -34,-20 -71,-32 -110,-32 -61,0 -116,33 -116,99 0,71 51,119 98,147 34,20 71,32 110,32 z"
       transform="scale(0.0029,-0.0029)" />
  </g>
  <g
     id="g266"
     transform="translate(86.1917,5.43935)">
    <path
       id="path264"
       fill="currentColor"
       d="m 208,139 c 61,0 117,-33 117,-99 0,-71 -52,-119 -99,-147 -34,-20 -71,-32 -110,-32 -61,0 -116,33 -116,99 0,71 51,119 98,147 34,20 71,32 110,32 z"
       transform="scale(0.0029,-0.0029)" />
  </g>
  <g
     id="g270"
     transform="translate(87.0868,5.43935)">
    <rect
       id="rect268"
       fill="currentColor"
       ry="0.042100001"
       height="2.4597001"
       width="0.1228"
       y="-2.5789001"
       x="-0.0614" />
  </g>
  <g
     id="g274"
     transform="translate(138.2757,5.43935)">
    <path
       id="path272"
       fill="currentColor"
       d="m 208,139 c 61,0 117,-33 117,-99 0,-71 -52,-119 -99,-147 -34,-20 -71,-32 -110,-32 -61,0 -116,33 -116,99 0,71 51,119 98,147 34,20 71,32 110,32 z"
       transform="scale(0.0029,-0.0029)" />
  </g>
  <g
     id="g278"
     transform="translate(136.7192,5.07095)">
    <path
       id="path276"
       fill="currentColor"
       d="m 208,139 c 61,0 117,-33 117,-99 0,-71 -52,-119 -99,-147 -34,-20 -71,-32 -110,-32 -61,0 -116,33 -116,99 0,71 51,119 98,147 34,20 71,32 110,32 z"
       transform="scale(0.0029,-0.0029)" />
  </g>
  <g
     id="g282"
     transform="translate(137.6143,5.43935)">
    <rect
       id="rect280"
       fill="currentColor"
       ry="0.042100001"
       height="2.8281"
       width="0.1228"
       y="-3.3158"
       x="-0.0614" />
  </g>
  <g
     id="g286"
     transform="translate(139.1708,5.43935)">
    <rect
       id="rect284"
       fill="currentColor"
       ry="0.042100001"
       height="3.1966"
       width="0.1228"
       y="-3.3158"
       x="-0.0614" />
  </g>
  <g
     id="g290"
     transform="translate(139.8322,5.07095)">
    <path
       id="path288"
       fill="currentColor"
       d="m 208,139 c 61,0 117,-33 117,-99 0,-71 -52,-119 -99,-147 -34,-20 -71,-32 -110,-32 -61,0 -116,33 -116,99 0,71 51,119 98,147 34,20 71,32 110,32 z"
       transform="scale(0.0029,-0.0029)" />
  </g>
  <g
     id="g294"
     transform="translate(140.7273,5.43935)">
    <rect
       id="rect292"
       fill="currentColor"
       ry="0.042100001"
       height="2.8281"
       width="0.1228"
       y="-3.3158"
       x="-0.0614" />
  </g>
  <g
     id="g298"
     transform="translate(133.3562,8.38675)">
    <path
       id="path296"
       fill="currentColor"
       d="m 208,139 c 61,0 117,-33 117,-99 0,-71 -52,-119 -99,-147 -34,-20 -71,-32 -110,-32 -61,0 -116,33 -116,99 0,71 51,119 98,147 34,20 71,32 110,32 z"
       transform="scale(0.0029,-0.0029)" />
  </g>
  <g
     id="g302"
     transform="translate(131.1997,8.75515)">
    <path
       id="path300"
       fill="currentColor"
       d="m 208,139 c 61,0 117,-33 117,-99 0,-71 -52,-119 -99,-147 -34,-20 -71,-32 -110,-32 -61,0 -116,33 -116,99 0,71 51,119 98,147 34,20 71,32 110,32 z"
       transform="scale(0.0029,-0.0029)" />
  </g>
  <g
     id="g306"
     transform="translate(132.0948,5.43935)">
    <rect
       id="rect304"
       fill="currentColor"
       ry="0.042100001"
       height="6.5124002"
       width="0.1228"
       y="-3.3158"
       x="-0.0614" />
  </g>
  <g
     id="g310"
     transform="translate(134.2513,5.43935)">
    <rect
       id="rect308"
       fill="currentColor"
       ry="0.042100001"
       height="6.1438999"
       width="0.1228"
       y="-3.3158"
       x="-0.0614" />
  </g>
  <g
     id="g314"
     transform="translate(135.1627,4.70255)">
    <path
       id="path312"
       fill="currentColor"
       d="m 208,139 c 61,0 117,-33 117,-99 0,-71 -52,-119 -99,-147 -34,-20 -71,-32 -110,-32 -61,0 -116,33 -116,99 0,71 51,119 98,147 34,20 71,32 110,32 z"
       transform="scale(0.0029,-0.0029)" />
  </g>
  <g
     id="g318"
     transform="translate(136.0578,5.43935)">
    <rect
       id="rect316"
       fill="currentColor"
       ry="0.042100001"
       height="2.4597001"
       width="0.1228"
       y="-3.3158"
       x="-0.0614" />
  </g>
  <g
     id="g322"
     transform="translate(77.193,2.12365)">
    <polygon
       id="polygon320"
       points="0.0421,0.1347 0.0421,-0.1347 8.3566,-0.1347 8.3566,0.1347 "
       stroke="currentColor"
       fill="currentColor"
       stroke-width="0.0842"
       stroke-linecap="round"
       stroke-linejoin="round" />
  </g>
  <g
     id="g326"
     transform="translate(80.7995,2.73085)">
    <polygon
       id="polygon324"
       points="0.0421,0.1347 0.0421,-0.1347 4.7501,-0.1347 4.7501,0.1347 "
       stroke="currentColor"
       fill="currentColor"
       stroke-width="0.0842"
       stroke-linecap="round"
       stroke-linejoin="round" />
  </g>
  <g
     id="g330"
     transform="translate(80.7995,3.33805)">
    <polygon
       id="polygon328"
       points="0.0421,0.1347 0.0421,-0.1347 4.7501,-0.1347 4.7501,0.1347 "
       stroke="currentColor"
       fill="currentColor"
       stroke-width="0.0842"
       stroke-linecap="round"
       stroke-linejoin="round" />
  </g>
  <g
     id="g334"
     transform="translate(8.3357,1.62555)">
    <polygon
       id="polygon332"
       points="0.0421,0.1347 0.0421,-0.1347 8.3566,-0.1347 8.3566,0.1347 "
       stroke="currentColor"
       fill="currentColor"
       stroke-width="0.0842"
       stroke-linecap="round"
       stroke-linejoin="round" />
  </g>
  <g
     id="g338"
     transform="translate(11.9421,2.23275)">
    <polygon
       id="polygon336"
       points="0.0421,0.1347 0.0421,-0.1347 4.7501,-0.1347 4.7501,0.1347 "
       stroke="currentColor"
       fill="currentColor"
       stroke-width="0.0842"
       stroke-linecap="round"
       stroke-linejoin="round" />
  </g>
  <g
     id="g342"
     transform="translate(11.9421,2.84005)">
    <polygon
       id="polygon340"
       points="0.0421,0.1347 0.0421,-0.1347 4.7501,-0.1347 4.7501,0.1347 "
       stroke="currentColor"
       fill="currentColor"
       stroke-width="0.0842"
       stroke-linecap="round"
       stroke-linejoin="round" />
  </g>
  <g
     id="g346"
     transform="translate(11.1084,5.43935)">
    <path
       id="path344"
       d="m 0.8951,-4.3591 c 2.1563,-1.39 22.7475,-1.39 24.9038,0 v 0 c -2.1563,-1.2767 -22.7475,-1.2767 -24.9038,0 z"
       fill="currentColor"
       stroke="currentColor"
       stroke-linecap="round"
       stroke-linejoin="round"
       stroke-width="0.0755" />
  </g>
  <g
     id="g350"
     transform="translate(18.1681,2.12365)">
    <polygon
       id="polygon348"
       points="0.0421,0.1347 0.0421,-0.1347 10.9761,-0.1347 10.9761,0.1347 "
       stroke="currentColor"
       fill="currentColor"
       stroke-width="0.0842"
       stroke-linecap="round"
       stroke-linejoin="round" />
  </g>
  <g
     id="g354"
     transform="translate(18.1681,2.73085)">
    <polygon
       id="polygon352"
       points="0.0421,0.1347 0.0421,-0.1347 10.9761,-0.1347 10.9761,0.1347 "
       stroke="currentColor"
       fill="currentColor"
       stroke-width="0.0842"
       stroke-linecap="round"
       stroke-linejoin="round" />
  </g>
  <g
     id="g358"
     transform="translate(18.1681,3.33805)">
    <polygon
       id="polygon356"
       points="0.0421,0.1347 0.0421,-0.1347 10.9761,-0.1347 10.9761,0.1347 "
       stroke="currentColor"
       fill="currentColor"
       stroke-width="0.0842"
       stroke-linecap="round"
       stroke-linejoin="round" />
  </g>
  <g
     id="g362"
     transform="translate(30.62,1.62555)">
    <polygon
       id="polygon360"
       points="0.0421,0.1347 0.0421,-0.1347 8.2131,-0.1347 8.2131,0.1347 "
       stroke="currentColor"
       fill="currentColor"
       stroke-width="0.0842"
       stroke-linecap="round"
       stroke-linejoin="round" />
  </g>
  <g
     id="g366"
     transform="translate(30.62,2.23275)">
    <polygon
       id="polygon364"
       points="0.0421,0.1347 0.0421,-0.1347 8.2131,-0.1347 8.2131,0.1347 "
       stroke="currentColor"
       fill="currentColor"
       stroke-width="0.0842"
       stroke-linecap="round"
       stroke-linejoin="round" />
  </g>
  <g
     id="g370"
     transform="translate(30.62,2.84005)">
    <polygon
       id="polygon368"
       points="0.0421,0.1347 0.0421,-0.1347 4.7501,-0.1347 4.7501,0.1347 "
       stroke="currentColor"
       fill="currentColor"
       stroke-width="0.0842"
       stroke-linecap="round"
       stroke-linejoin="round" />
  </g>
  <g
     id="g374"
     transform="translate(42.2384,1.88485)">
    <polygon
       id="polygon372"
       points="0.0421,0.1347 0.0421,-0.1347 8.3566,-0.1347 8.3566,0.1347 "
       stroke="currentColor"
       fill="currentColor"
       stroke-width="0.0842"
       stroke-linecap="round"
       stroke-linejoin="round" />
  </g>
  <g
     id="g378"
     transform="translate(45.8448,2.49205)">
    <polygon
       id="polygon376"
       points="0.0421,0.1347 0.0421,-0.1347 4.7501,-0.1347 4.7501,0.1347 "
       stroke="currentColor"
       fill="currentColor"
       stroke-width="0.0842"
       stroke-linecap="round"
       stroke-linejoin="round" />
  </g>
  <g
     id="g382"
     transform="translate(45.8448,3.09925)">
    <polygon
       id="polygon380"
       points="0.0421,0.1347 0.0421,-0.1347 4.7501,-0.1347 4.7501,0.1347 "
       stroke="currentColor"
       fill="currentColor"
       stroke-width="0.0842"
       stroke-linecap="round"
       stroke-linejoin="round" />
  </g>
  <g
     id="g386"
     transform="translate(45.0111,5.43935)">
    <path
       id="path384"
       d="m 0.8951,-4.0998 c 2.18,-1.3957 23.7758,-1.3957 25.9558,0 v 0 c -2.18,-1.2824 -23.7758,-1.2824 -25.9558,0 z"
       fill="currentColor"
       stroke="currentColor"
       stroke-linecap="round"
       stroke-linejoin="round"
       stroke-width="0.0755" />
  </g>
  <g
     id="g390"
     transform="translate(52.0708,2.62165)">
    <polygon
       id="polygon388"
       points="0.0421,0.1347 0.0421,-0.1347 10.9761,-0.1347 10.9761,0.1347 "
       stroke="currentColor"
       fill="currentColor"
       stroke-width="0.0842"
       stroke-linecap="round"
       stroke-linejoin="round" />
  </g>
  <g
     id="g394"
     transform="translate(52.0708,3.22885)">
    <polygon
       id="polygon392"
       points="0.0421,0.1347 0.0421,-0.1347 10.9761,-0.1347 10.9761,0.1347 "
       stroke="currentColor"
       fill="currentColor"
       stroke-width="0.0842"
       stroke-linecap="round"
       stroke-linejoin="round" />
  </g>
  <g
     id="g398"
     transform="translate(52.0708,3.83605)">
    <polygon
       id="polygon396"
       points="0.0421,0.1347 0.0421,-0.1347 10.9761,-0.1347 10.9761,0.1347 "
       stroke="currentColor"
       fill="currentColor"
       stroke-width="0.0842"
       stroke-linecap="round"
       stroke-linejoin="round" />
  </g>
  <g
     id="g402"
     transform="translate(64.5227,1.88485)">
    <polygon
       id="polygon400"
       points="0.0421,0.1347 0.0421,-0.1347 9.2651,-0.1347 9.2651,0.1347 "
       stroke="currentColor"
       fill="currentColor"
       stroke-width="0.0842"
       stroke-linecap="round"
       stroke-linejoin="round" />
  </g>
  <g
     id="g406"
     transform="translate(64.5227,2.49205)">
    <polygon
       id="polygon404"
       points="0.0421,0.1347 0.0421,-0.1347 9.2651,-0.1347 9.2651,0.1347 "
       stroke="currentColor"
       fill="currentColor"
       stroke-width="0.0842"
       stroke-linecap="round"
       stroke-linejoin="round" />
  </g>
  <g
     id="g410"
     transform="translate(64.5227,3.09925)">
    <polygon
       id="polygon408"
       points="0.0421,0.1347 0.0421,-0.1347 4.7501,-0.1347 4.7501,0.1347 "
       stroke="currentColor"
       fill="currentColor"
       stroke-width="0.0842"
       stroke-linecap="round"
       stroke-linejoin="round" />
  </g>
  <g
     id="g414"
     transform="translate(79.9658,5.43935)">
    <path
       id="path412"
       d="m 0.8951,-3.8611 c 2.1563,-1.39 22.7475,-1.39 24.9038,0 v 0 c -2.1563,-1.2767 -22.7475,-1.2767 -24.9038,0 z"
       fill="currentColor"
       stroke="currentColor"
       stroke-linecap="round"
       stroke-linejoin="round"
       stroke-width="0.0755" />
  </g>
  <g
     id="g418"
     transform="translate(87.0255,2.86045)">
    <polygon
       id="polygon416"
       points="0.0421,0.1347 0.0421,-0.1347 10.9761,-0.1347 10.9761,0.1347 "
       stroke="currentColor"
       fill="currentColor"
       stroke-width="0.0842"
       stroke-linecap="round"
       stroke-linejoin="round" />
  </g>
  <g
     id="g422"
     transform="translate(87.0255,3.46765)">
    <polygon
       id="polygon420"
       points="0.0421,0.1347 0.0421,-0.1347 10.9761,-0.1347 10.9761,0.1347 "
       stroke="currentColor"
       fill="currentColor"
       stroke-width="0.0842"
       stroke-linecap="round"
       stroke-linejoin="round" />
  </g>
  <g
     id="g426"
     transform="translate(87.0255,4.07485)">
    <polygon
       id="polygon424"
       points="0.0421,0.1347 0.0421,-0.1347 10.9761,-0.1347 10.9761,0.1347 "
       stroke="currentColor"
       fill="currentColor"
       stroke-width="0.0842"
       stroke-linecap="round"
       stroke-linejoin="round" />
  </g>
  <g
     id="g430"
     transform="translate(99.4774,2.12365)">
    <polygon
       id="polygon428"
       points="0.0421,0.1347 0.0421,-0.1347 8.2131,-0.1347 8.2131,0.1347 "
       stroke="currentColor"
       fill="currentColor"
       stroke-width="0.0842"
       stroke-linecap="round"
       stroke-linejoin="round" />
  </g>
  <g
     id="g434"
     transform="translate(99.4774,2.73085)">
    <polygon
       id="polygon432"
       points="0.0421,0.1347 0.0421,-0.1347 8.2131,-0.1347 8.2131,0.1347 "
       stroke="currentColor"
       fill="currentColor"
       stroke-width="0.0842"
       stroke-linecap="round"
       stroke-linejoin="round" />
  </g>
  <g
     id="g438"
     transform="translate(99.4774,3.33805)">
    <polygon
       id="polygon436"
       points="0.0421,0.1347 0.0421,-0.1347 4.7501,-0.1347 4.7501,0.1347 "
       stroke="currentColor"
       fill="currentColor"
       stroke-width="0.0842"
       stroke-linecap="round"
       stroke-linejoin="round" />
  </g>
  <g
     id="g442"
     transform="translate(111.0957,2.12365)">
    <polygon
       id="polygon440"
       points="0.0421,0.1347 0.0421,-0.1347 10.4795,-0.1347 10.4795,0.1347 "
       stroke="currentColor"
       fill="currentColor"
       stroke-width="0.0842"
       stroke-linecap="round"
       stroke-linejoin="round" />
  </g>
  <g
     id="g446"
     transform="translate(111.0957,2.73085)">
    <polygon
       id="polygon444"
       points="0.0421,0.1347 0.0421,-0.1347 10.4795,-0.1347 10.4795,0.1347 "
       stroke="currentColor"
       fill="currentColor"
       stroke-width="0.0842"
       stroke-linecap="round"
       stroke-linejoin="round" />
  </g>
  <g
     id="g450"
     transform="translate(111.0957,3.33805)">
    <polygon
       id="polygon448"
       points="0.0421,0.1347 0.0421,-0.1347 7.0165,-0.1347 7.0165,0.1347 "
       stroke="currentColor"
       fill="currentColor"
       stroke-width="0.0842"
       stroke-linecap="round"
       stroke-linejoin="round" />
  </g>
  <g
     id="g454"
     transform="translate(110.262,5.43935)">
    <path
       id="path452"
       d="M 0.8813,-3.8611 C 2.251,-5.0619 7.905,-5.3071 9.3736,-4.2295 v 0 C 7.9099,-5.1939 2.2559,-4.9486 0.8813,-3.8611 Z"
       fill="currentColor"
       stroke="currentColor"
       stroke-linecap="round"
       stroke-linejoin="round"
       stroke-width="0.0755" />
  </g>
  <g
     id="g458"
     transform="translate(123.651,2.12365)">
    <polygon
       id="polygon456"
       points="0.0421,0.1347 0.0421,-0.1347 8.4631,-0.1347 8.4631,0.1347 "
       stroke="currentColor"
       fill="currentColor"
       stroke-width="0.0842"
       stroke-linecap="round"
       stroke-linejoin="round" />
  </g>
  <g
     id="g462"
     transform="translate(123.651,2.73085)">
    <polygon
       id="polygon460"
       points="0.0421,0.1347 0.0421,-0.1347 8.4631,-0.1347 8.4631,0.1347 "
       stroke="currentColor"
       fill="currentColor"
       stroke-width="0.0842"
       stroke-linecap="round"
       stroke-linejoin="round" />
  </g>
  <g
     id="g466"
     transform="translate(123.651,3.33805)">
    <polygon
       id="polygon464"
       points="0.0421,0.1347 0.0421,-0.1347 5.0001,-0.1347 5.0001,0.1347 "
       stroke="currentColor"
       fill="currentColor"
       stroke-width="0.0842"
       stroke-linecap="round"
       stroke-linejoin="round" />
  </g>
  <g
     id="g470"
     transform="translate(122.8173,5.43935)">
    <path
       id="path468"
       d="m 0.8951,-3.8611 c 1.2225,-1.0376 5.2534,-1.0376 6.476,0 v 0 c -1.2226,-0.9242 -5.2535,-0.9242 -6.476,0 z"
       fill="currentColor"
       stroke="currentColor"
       stroke-linecap="round"
       stroke-linejoin="round"
       stroke-width="0.0755" />
  </g>
  <g
     id="g474"
     transform="translate(134.1899,2.12365)">
    <polygon
       id="polygon472"
       points="0.0421,0.1347 0.0421,-0.1347 8.4631,-0.1347 8.4631,0.1347 "
       stroke="currentColor"
       fill="currentColor"
       stroke-width="0.0842"
       stroke-linecap="round"
       stroke-linejoin="round" />
  </g>
  <g
     id="g478"
     transform="translate(134.1899,2.73085)">
    <polygon
       id="polygon476"
       points="0.0421,0.1347 0.0421,-0.1347 8.4631,-0.1347 8.4631,0.1347 "
       stroke="currentColor"
       fill="currentColor"
       stroke-width="0.0842"
       stroke-linecap="round"
       stroke-linejoin="round" />
  </g>
  <g
     id="g482"
     transform="translate(134.1899,3.33805)">
    <polygon
       id="polygon480"
       points="0.0421,0.1347 0.0421,-0.1347 5.0001,-0.1347 5.0001,0.1347 "
       stroke="currentColor"
       fill="currentColor"
       stroke-width="0.0842"
       stroke-linecap="round"
       stroke-linejoin="round" />
  </g>
  <g
     id="g486"
     transform="translate(141.7387,6.17625)">
    <path
       id="path484"
       fill="currentColor"
       d="m 208,139 c 61,0 117,-33 117,-99 0,-71 -52,-119 -99,-147 -34,-20 -71,-32 -110,-32 -61,0 -116,33 -116,99 0,71 51,119 98,147 34,20 71,32 110,32 z"
       transform="scale(0.0029,-0.0029)" />
  </g>
  <g
     id="g490"
     transform="translate(142.6338,5.43935)">
    <rect
       id="rect488"
       fill="currentColor"
       ry="0.042100001"
       height="3.9333999"
       width="0.1228"
       y="-3.3158"
       x="-0.0614" />
  </g>
  <g
     id="g494"
     transform="translate(113.625,5.43935)">
    <path
       id="path492"
       fill="currentColor"
       d="m -8,375 c 8,5 18,7 27,7 9,0 20,-2 28,-7 l -3,-196 99,24 h 4 c 11,0 20,-8 20,-19 l 8,-559 c -8,-5 -19,-7 -28,-7 -9,0 -19,2 -27,7 l 3,196 -99,-24 h -5 c -11,0 -19,8 -19,19 z M 127,109 42,89 l -2,-198 84,20 z"
       transform="scale(0.0029,-0.0029)" />
  </g>
  <g
     id="g498"
     transform="translate(117.1978,5.07095)">
    <path
       id="path496"
       fill="currentColor"
       d="m 208,139 c 61,0 117,-33 117,-99 0,-71 -52,-119 -99,-147 -34,-20 -71,-32 -110,-32 -61,0 -116,33 -116,99 0,71 51,119 98,147 34,20 71,32 110,32 z"
       transform="scale(0.0029,-0.0029)" />
  </g>
  <g
     id="g502"
     transform="translate(118.0929,5.43935)">
    <rect
       id="rect500"
       fill="currentColor"
       ry="0.042100001"
       height="2.8281"
       width="0.1228"
       y="-3.3158"
       x="-0.0614" />
  </g>
  <g
     id="g506"
     transform="translate(116.0373,5.07095)">
    <path
       id="path504"
       fill="currentColor"
       d="m 0,114 c 0,12 7,22 18,26 l 37,15 v 151 c 0,12 10,22 22,22 12,0 22,-10 22,-22 V 172 l 77,29 v 152 c 0,12 10,22 22,22 12,0 22,-10 22,-22 V 219 l 16,6 c 3,1 8,2 11,2 15,0 28,-12 28,-28 v -50 c 0,-12 -7,-23 -18,-27 L 220,108 V -44 l 16,7 c 3,1 8,2 11,2 15,0 28,-13 28,-29 v -50 c 0,-12 -7,-22 -18,-26 l -37,-15 v -151 c 0,-12 -10,-22 -22,-22 -12,0 -22,10 -22,22 v 134 l -77,-29 v -152 c 0,-12 -10,-22 -22,-22 -12,0 -22,10 -22,22 v 134 l -16,-6 c -3,-1 -8,-2 -11,-2 -15,0 -28,12 -28,28 v 50 c 0,12 7,23 18,27 l 37,14 V 44 L 39,37 C 36,36 31,35 28,35 13,35 0,48 0,64 Z M 176,91 99,61 V -91 l 77,30 z"
       transform="scale(0.0029,-0.0029)" />
  </g>
  <g
     id="g510"
     transform="translate(118.7543,4.70255)">
    <path
       id="path508"
       fill="currentColor"
       d="m 208,139 c 61,0 117,-33 117,-99 0,-71 -52,-119 -99,-147 -34,-20 -71,-32 -110,-32 -61,0 -116,33 -116,99 0,71 51,119 98,147 34,20 71,32 110,32 z"
       transform="scale(0.0029,-0.0029)" />
  </g>
  <g
     id="g514"
     transform="translate(119.6494,5.43935)">
    <rect
       id="rect512"
       fill="currentColor"
       ry="0.042100001"
       height="2.4597001"
       width="0.1228"
       y="-3.3158"
       x="-0.0614" />
  </g>
  <g
     id="g518"
     transform="translate(112.0685,5.80785)">
    <path
       id="path516"
       fill="currentColor"
       d="m 208,139 c 61,0 117,-33 117,-99 0,-71 -52,-119 -99,-147 -34,-20 -71,-32 -110,-32 -61,0 -116,33 -116,99 0,71 51,119 98,147 34,20 71,32 110,32 z"
       transform="scale(0.0029,-0.0029)" />
  </g>
  <g
     id="g522"
     transform="translate(112.9636,5.43935)">
    <rect
       id="rect520"
       fill="currentColor"
       ry="0.042100001"
       height="3.5650001"
       width="0.1228"
       y="-3.3158"
       x="-0.0614" />
  </g>
  <g
     id="g526"
     transform="translate(114.4808,5.43935)">
    <path
       id="path524"
       fill="currentColor"
       d="m 208,139 c 61,0 117,-33 117,-99 0,-71 -52,-119 -99,-147 -34,-20 -71,-32 -110,-32 -61,0 -116,33 -116,99 0,71 51,119 98,147 34,20 71,32 110,32 z"
       transform="scale(0.0029,-0.0029)" />
  </g>
  <g
     id="g530"
     transform="translate(115.3759,5.43935)">
    <rect
       id="rect528"
       fill="currentColor"
       ry="0.042100001"
       height="3.1966"
       width="0.1228"
       y="-3.3158"
       x="-0.0614" />
  </g>
  <g
     id="g534"
     transform="translate(127.7368,5.07095)">
    <path
       id="path532"
       fill="currentColor"
       d="m 208,139 c 61,0 117,-33 117,-99 0,-71 -52,-119 -99,-147 -34,-20 -71,-32 -110,-32 -61,0 -116,33 -116,99 0,71 51,119 98,147 34,20 71,32 110,32 z"
       transform="scale(0.0029,-0.0029)" />
  </g>
  <g
     id="g538"
     transform="translate(126.1803,5.43935)">
    <path
       id="path536"
       fill="currentColor"
       d="m 208,139 c 61,0 117,-33 117,-99 0,-71 -52,-119 -99,-147 -34,-20 -71,-32 -110,-32 -61,0 -116,33 -116,99 0,71 51,119 98,147 34,20 71,32 110,32 z"
       transform="scale(0.0029,-0.0029)" />
  </g>
  <g
     id="g542"
     transform="translate(127.0754,5.43935)">
    <rect
       id="rect540"
       fill="currentColor"
       ry="0.042100001"
       height="3.1966"
       width="0.1228"
       y="-3.3158"
       x="-0.0614" />
  </g>
  <g
     id="g546"
     transform="translate(128.6319,5.43935)">
    <rect
       id="rect544"
       fill="currentColor"
       ry="0.042100001"
       height="2.8281"
       width="0.1228"
       y="-3.3158"
       x="-0.0614" />
  </g>
  <g
     id="g550"
     transform="translate(129.2933,4.70255)">
    <path
       id="path548"
       fill="currentColor"
       d="m 208,139 c 61,0 117,-33 117,-99 0,-71 -52,-119 -99,-147 -34,-20 -71,-32 -110,-32 -61,0 -116,33 -116,99 0,71 51,119 98,147 34,20 71,32 110,32 z"
       transform="scale(0.0029,-0.0029)" />
  </g>
  <g
     id="g554"
     transform="translate(130.1884,5.43935)">
    <rect
       id="rect552"
       fill="currentColor"
       ry="0.042100001"
       height="2.4597001"
       width="0.1228"
       y="-3.3158"
       x="-0.0614" />
  </g>
  <g
     id="g558"
     transform="translate(123.7124,5.43935)">
    <rect
       id="rect556"
       fill="currentColor"
       ry="0.042100001"
       height="6.5124002"
       width="0.1228"
       y="-3.3158"
       x="-0.0614" />
  </g>
  <g
     id="g562"
     transform="translate(120.6608,8.38675)">
    <path
       id="path560"
       fill="currentColor"
       d="m 208,139 c 61,0 117,-33 117,-99 0,-71 -52,-119 -99,-147 -34,-20 -71,-32 -110,-32 -61,0 -116,33 -116,99 0,71 51,119 98,147 34,20 71,32 110,32 z"
       transform="scale(0.0029,-0.0029)" />
  </g>
  <g
     id="g566"
     transform="translate(121.5559,5.43935)">
    <rect
       id="rect564"
       fill="currentColor"
       ry="0.042100001"
       height="6.1438999"
       width="0.1228"
       y="-3.3158"
       x="-0.0614" />
  </g>
  <g
     id="g570"
     transform="translate(122.8173,8.75515)">
    <path
       id="path568"
       fill="currentColor"
       d="m 208,139 c 61,0 117,-33 117,-99 0,-71 -52,-119 -99,-147 -34,-20 -71,-32 -110,-32 -61,0 -116,33 -116,99 0,71 51,119 98,147 34,20 71,32 110,32 z"
       transform="scale(0.0029,-0.0029)" />
  </g>
  <g
     id="g574"
     transform="translate(124.6238,5.80785)">
    <path
       id="path572"
       fill="currentColor"
       d="m 208,139 c 61,0 117,-33 117,-99 0,-71 -52,-119 -99,-147 -34,-20 -71,-32 -110,-32 -61,0 -116,33 -116,99 0,71 51,119 98,147 34,20 71,32 110,32 z"
       transform="scale(0.0029,-0.0029)" />
  </g>
  <g
     id="g578"
     transform="translate(125.5189,5.43935)">
    <rect
       id="rect576"
       fill="currentColor"
       ry="0.042100001"
       height="3.5650001"
       width="0.1228"
       y="-3.3158"
       x="-0.0614" />
  </g>
  <g
     id="g582"
     transform="translate(29.7863,5.43935)">
    <path
       id="path580"
       fill="currentColor"
       d="m 208,139 c 61,0 117,-33 117,-99 0,-71 -52,-119 -99,-147 -34,-20 -71,-32 -110,-32 -61,0 -116,33 -116,99 0,71 51,119 98,147 34,20 71,32 110,32 z"
       transform="scale(0.0029,-0.0029)" />
  </g>
  <g
     id="g586"
     transform="translate(30.6814,5.43935)">
    <rect
       id="rect584"
       fill="currentColor"
       ry="0.042100001"
       height="3.6946001"
       width="0.1228"
       y="-3.8138001"
       x="-0.0614" />
  </g>
  <g
     id="g590"
     transform="translate(29.1249,5.43935)">
    <rect
       id="rect588"
       fill="currentColor"
       ry="0.042100001"
       height="3.5650001"
       width="0.1228"
       y="-3.3158"
       x="-0.0614" />
  </g>
  <g
     id="g594"
     transform="translate(31.3428,5.07095)">
    <path
       id="path592"
       fill="currentColor"
       d="m 208,139 c 61,0 117,-33 117,-99 0,-71 -52,-119 -99,-147 -34,-20 -71,-32 -110,-32 -61,0 -116,33 -116,99 0,71 51,119 98,147 34,20 71,32 110,32 z"
       transform="scale(0.0029,-0.0029)" />
  </g>
  <g
     id="g598"
     transform="translate(32.2379,5.43935)">
    <rect
       id="rect596"
       fill="currentColor"
       ry="0.042100001"
       height="3.3262"
       width="0.1228"
       y="-3.8138001"
       x="-0.0614" />
  </g>
  <g
     id="g602"
     transform="translate(32.8993,4.70255)">
    <path
       id="path600"
       fill="currentColor"
       d="m 208,139 c 61,0 117,-33 117,-99 0,-71 -52,-119 -99,-147 -34,-20 -71,-32 -110,-32 -61,0 -116,33 -116,99 0,71 51,119 98,147 34,20 71,32 110,32 z"
       transform="scale(0.0029,-0.0029)" />
  </g>
  <g
     id="g606"
     transform="translate(25.1168,5.07095)">
    <path
       id="path604"
       fill="currentColor"
       d="m 208,139 c 61,0 117,-33 117,-99 0,-71 -52,-119 -99,-147 -34,-20 -71,-32 -110,-32 -61,0 -116,33 -116,99 0,71 51,119 98,147 34,20 71,32 110,32 z"
       transform="scale(0.0029,-0.0029)" />
  </g>
  <g
     id="g610"
     transform="translate(26.0119,5.43935)">
    <rect
       id="rect608"
       fill="currentColor"
       ry="0.042100001"
       height="2.8281"
       width="0.1228"
       y="-3.3158"
       x="-0.0614" />
  </g>
  <g
     id="g614"
     transform="translate(33.7944,5.43935)">
    <rect
       id="rect612"
       fill="currentColor"
       ry="0.042100001"
       height="2.9577999"
       width="0.1228"
       y="-3.8138001"
       x="-0.0614" />
  </g>
  <g
     id="g618"
     transform="translate(26.6733,5.43935)">
    <path
       id="path616"
       fill="currentColor"
       d="m 208,139 c 61,0 117,-33 117,-99 0,-71 -52,-119 -99,-147 -34,-20 -71,-32 -110,-32 -61,0 -116,33 -116,99 0,71 51,119 98,147 34,20 71,32 110,32 z"
       transform="scale(0.0029,-0.0029)" />
  </g>
  <g
     id="g622"
     transform="translate(27.5684,5.43935)">
    <rect
       id="rect620"
       fill="currentColor"
       ry="0.042100001"
       height="3.1966"
       width="0.1228"
       y="-3.3158"
       x="-0.0614" />
  </g>
  <g
     id="g626"
     transform="translate(28.2298,5.80785)">
    <path
       id="path624"
       fill="currentColor"
       d="m 208,139 c 61,0 117,-33 117,-99 0,-71 -52,-119 -99,-147 -34,-20 -71,-32 -110,-32 -61,0 -116,33 -116,99 0,71 51,119 98,147 34,20 71,32 110,32 z"
       transform="scale(0.0029,-0.0029)" />
  </g>
  <g
     id="g630"
     transform="translate(42.2997,5.43935)">
    <rect
       id="rect628"
       fill="currentColor"
       ry="0.042100001"
       height="5.6458998"
       width="0.1228"
       y="-3.5546"
       x="-0.0614" />
  </g>
  <g
     id="g634"
     transform="translate(41.4046,7.64995)">
    <path
       id="path632"
       fill="currentColor"
       d="m 208,139 c 61,0 117,-33 117,-99 0,-71 -52,-119 -99,-147 -34,-20 -71,-32 -110,-32 -61,0 -116,33 -116,99 0,71 51,119 98,147 34,20 71,32 110,32 z"
       transform="scale(0.0029,-0.0029)" />
  </g>
  <g
     id="g638"
     transform="translate(37.9187,7.28155)">
    <path
       id="path636"
       fill="currentColor"
       d="m 208,139 c 61,0 117,-33 117,-99 0,-71 -52,-119 -99,-147 -34,-20 -71,-32 -110,-32 -61,0 -116,33 -116,99 0,71 51,119 98,147 34,20 71,32 110,32 z"
       transform="scale(0.0029,-0.0029)" />
  </g>
  <g
     id="g642"
     transform="translate(34.4557,4.33415)">
    <path
       id="path640"
       fill="currentColor"
       d="m 208,139 c 61,0 117,-33 117,-99 0,-71 -52,-119 -99,-147 -34,-20 -71,-32 -110,-32 -61,0 -116,33 -116,99 0,71 51,119 98,147 34,20 71,32 110,32 z"
       transform="scale(0.0029,-0.0029)" />
  </g>
  <g
     id="g646"
     transform="translate(35.3508,5.43935)">
    <rect
       id="rect644"
       fill="currentColor"
       ry="0.042100001"
       height="2.5892999"
       width="0.1228"
       y="-3.8138001"
       x="-0.0614" />
  </g>
  <g
     id="g650"
     transform="translate(24.4554,5.43935)">
    <rect
       id="rect648"
       fill="currentColor"
       ry="0.042100001"
       height="3.1966"
       width="0.1228"
       y="-3.3158"
       x="-0.0614" />
  </g>
  <g
     id="g654"
     transform="translate(36.0122,3.96575)">
    <path
       id="path652"
       fill="currentColor"
       d="m 208,139 c 61,0 117,-33 117,-99 0,-71 -52,-119 -99,-147 -34,-20 -71,-32 -110,-32 -61,0 -116,33 -116,99 0,71 51,119 98,147 34,20 71,32 110,32 z"
       transform="scale(0.0029,-0.0029)" />
  </g>
  <g
     id="g658"
     transform="translate(36.9073,5.43935)">
    <rect
       id="rect656"
       fill="currentColor"
       ry="0.042100001"
       height="2.2209001"
       width="0.1228"
       y="-3.8138001"
       x="-0.0614" />
  </g>
  <g
     id="g662"
     transform="translate(11.1084,3.96575)">
    <path
       id="path660"
       fill="currentColor"
       d="m 208,139 c 61,0 117,-33 117,-99 0,-71 -52,-119 -99,-147 -34,-20 -71,-32 -110,-32 -61,0 -116,33 -116,99 0,71 51,119 98,147 34,20 71,32 110,32 z"
       transform="scale(0.0029,-0.0029)" />
  </g>
  <g
     id="g666"
     transform="translate(12.0035,5.43935)">
    <rect
       id="rect664"
       fill="currentColor"
       ry="0.042100001"
       height="2.2209001"
       width="0.1228"
       y="-3.8138001"
       x="-0.0614" />
  </g>
  <g
     id="g670"
     transform="translate(12.6649,4.33415)">
    <path
       id="path668"
       fill="currentColor"
       d="m 208,139 c 61,0 117,-33 117,-99 0,-71 -52,-119 -99,-147 -34,-20 -71,-32 -110,-32 -61,0 -116,33 -116,99 0,71 51,119 98,147 34,20 71,32 110,32 z"
       transform="scale(0.0029,-0.0029)" />
  </g>
  <g
     id="g674"
     transform="translate(13.56,5.43935)">
    <rect
       id="rect672"
       fill="currentColor"
       ry="0.042100001"
       height="2.5892999"
       width="0.1228"
       y="-3.8138001"
       x="-0.0614" />
  </g>
  <g
     id="g678"
     transform="translate(14.2214,4.70255)">
    <path
       id="path676"
       fill="currentColor"
       d="m 208,139 c 61,0 117,-33 117,-99 0,-71 -52,-119 -99,-147 -34,-20 -71,-32 -110,-32 -61,0 -116,33 -116,99 0,71 51,119 98,147 34,20 71,32 110,32 z"
       transform="scale(0.0029,-0.0029)" />
  </g>
  <g
     id="g682"
     transform="translate(15.1165,5.43935)">
    <rect
       id="rect680"
       fill="currentColor"
       ry="0.042100001"
       height="2.9577999"
       width="0.1228"
       y="-3.8138001"
       x="-0.0614" />
  </g>
  <g
     id="g686"
     transform="translate(0.8,6.17625)">
    <path
       id="path684"
       fill="currentColor"
       d="m 381,266 h 9 c 157,0 258,-130 258,-264 0,-77 -33,-156 -108,-212 -22,-16 -46,-28 -71,-36 2,-32 3,-65 3,-97 0,-21 -1,-43 -2,-64 -7,-122 -91,-230 -211,-230 -108,0 -197,88 -197,197 0,58 54,104 113,104 54,0 95,-48 95,-104 0,-52 -43,-95 -95,-95 -8,0 -16,2 -24,4 25,-35 65,-59 111,-59 95,0 155,92 161,190 1,20 2,39 2,59 0,28 -1,55 -3,83 -29,-5 -57,-7 -87,-7 -189,0 -333,174 -333,377 0,176 128,307 242,443 -21,62 -41,124 -50,189 -7,52 -8,106 -8,159 0,113 54,219 146,286 8,6 21,7 29,0 72,-82 136,-244 136,-357 0,-141 -83,-253 -174,-362 22,-67 41,-135 58,-204 z m 83,-466 c 64,25 108,93 108,159 0,87 -62,173 -163,187 24,-113 43,-225 55,-346 z m -126,-18 c 27,0 54,2 80,6 C 405,-87 385,30 360,147 281,140 237,88 237,31 c 0,-43 24,-89 78,-120 5,-5 8,-11 8,-17 0,-13 -11,-24 -24,-24 -3,0 -7,0 -10,2 -81,44 -119,116 -119,187 0,90 60,178 164,201 -14,56 -30,112 -47,167 C 183,305 79,182 79,23 79,-109 206,-218 338,-218 Z M 239,782 c 0,-69 22,-127 41,-183 77,97 140,199 140,323 0,49 -3,69 -19,113 C 302,990 239,890 239,782 Z"
       transform="scale(0.0029,-0.0029)" />
  </g>
  <g
     id="g690"
     transform="translate(4.4125,5.43935)">
    <path
       id="path688"
       fill="currentColor"
       d="m 33,35 -2,-60 v -11 c 0,-21 2,-43 5,-64 42,38 87,81 87,138 0,32 -13,63 -41,63 C 51,101 34,69 33,35 Z M 32,446 23,109 c 25,26 59,40 95,40 50,0 82,-51 82,-105 0,-77 -80,-117 -137,-169 -18,-17 -26,-48 -52,-48 -16,0 -28,15 -28,32 l -15,587 c 10,6 21,8 32,8 11,0 22,-2 32,-8 z"
       transform="scale(0.0029,-0.0029)" />
  </g>
  <g
     id="g694"
     transform="translate(7.5019,7.28155)">
    <path
       id="path692"
       fill="currentColor"
       d="m 208,139 c 61,0 117,-33 117,-99 0,-71 -52,-119 -99,-147 -34,-20 -71,-32 -110,-32 -61,0 -116,33 -116,99 0,71 51,119 98,147 34,20 71,32 110,32 z"
       transform="scale(0.0029,-0.0029)" />
  </g>
  <g
     id="g698"
     transform="translate(8.397,5.43935)">
    <rect
       id="rect696"
       fill="currentColor"
       ry="0.042100001"
       height="5.5366998"
       width="0.1228"
       y="-3.8138001"
       x="-0.0614" />
  </g>
  <g
     id="g702"
     transform="translate(20.4474,4.70255)">
    <path
       id="path700"
       fill="currentColor"
       d="m 208,139 c 61,0 117,-33 117,-99 0,-71 -52,-119 -99,-147 -34,-20 -71,-32 -110,-32 -61,0 -116,33 -116,99 0,71 51,119 98,147 34,20 71,32 110,32 z"
       transform="scale(0.0029,-0.0029)" />
  </g>
  <g
     id="g706"
     transform="translate(21.3425,5.43935)">
    <rect
       id="rect704"
       fill="currentColor"
       ry="0.042100001"
       height="2.4597001"
       width="0.1228"
       y="-3.3158"
       x="-0.0614" />
  </g>
  <g
     id="g710"
     transform="translate(19.786,5.43935)">
    <rect
       id="rect708"
       fill="currentColor"
       ry="0.042100001"
       height="2.8281"
       width="0.1228"
       y="-3.3158"
       x="-0.0614" />
  </g>
  <g
     id="g714"
     transform="translate(22.0038,5.07095)">
    <path
       id="path712"
       fill="currentColor"
       d="m 208,139 c 61,0 117,-33 117,-99 0,-71 -52,-119 -99,-147 -34,-20 -71,-32 -110,-32 -61,0 -116,33 -116,99 0,71 51,119 98,147 34,20 71,32 110,32 z"
       transform="scale(0.0029,-0.0029)" />
  </g>
  <g
     id="g718"
     transform="translate(22.8989,5.43935)">
    <rect
       id="rect716"
       fill="currentColor"
       ry="0.042100001"
       height="2.8281"
       width="0.1228"
       y="-3.3158"
       x="-0.0614" />
  </g>
  <g
     id="g722"
     transform="translate(23.5603,5.43935)">
    <path
       id="path720"
       fill="currentColor"
       d="m 208,139 c 61,0 117,-33 117,-99 0,-71 -52,-119 -99,-147 -34,-20 -71,-32 -110,-32 -61,0 -116,33 -116,99 0,71 51,119 98,147 34,20 71,32 110,32 z"
       transform="scale(0.0029,-0.0029)" />
  </g>
  <g
     id="g726"
     transform="translate(15.7779,4.33415)">
    <path
       id="path724"
       fill="currentColor"
       d="m 208,139 c 61,0 117,-33 117,-99 0,-71 -52,-119 -99,-147 -34,-20 -71,-32 -110,-32 -61,0 -116,33 -116,99 0,71 51,119 98,147 34,20 71,32 110,32 z"
       transform="scale(0.0029,-0.0029)" />
  </g>
  <g
     id="g730"
     transform="translate(16.673,5.43935)">
    <rect
       id="rect728"
       fill="currentColor"
       ry="0.042100001"
       height="2.5892999"
       width="0.1228"
       y="-3.8138001"
       x="-0.0614" />
  </g>
  <g
     id="g734"
     transform="translate(38.8138,5.43935)">
    <rect
       id="rect732"
       fill="currentColor"
       ry="0.042100001"
       height="5.5366998"
       width="0.1228"
       y="-3.8138001"
       x="-0.0614" />
  </g>
  <g
     id="g738"
     transform="translate(17.3344,4.70255)">
    <path
       id="path736"
       fill="currentColor"
       d="m 208,139 c 61,0 117,-33 117,-99 0,-71 -52,-119 -99,-147 -34,-20 -71,-32 -110,-32 -61,0 -116,33 -116,99 0,71 51,119 98,147 34,20 71,32 110,32 z"
       transform="scale(0.0029,-0.0029)" />
  </g>
  <g
     id="g742"
     transform="translate(18.2295,5.43935)">
    <rect
       id="rect740"
       fill="currentColor"
       ry="0.042100001"
       height="2.4597001"
       width="0.1228"
       y="-3.3158"
       x="-0.0614" />
  </g>
  <g
     id="g746"
     transform="translate(18.8909,5.07095)">
    <path
       id="path744"
       fill="currentColor"
       d="m 208,139 c 61,0 117,-33 117,-99 0,-71 -52,-119 -99,-147 -34,-20 -71,-32 -110,-32 -61,0 -116,33 -116,99 0,71 51,119 98,147 34,20 71,32 110,32 z"
       transform="scale(0.0029,-0.0029)" />
  </g>
  <g
     id="g750"
     transform="translate(59.0195,5.43935)">
    <path
       id="path748"
       fill="currentColor"
       d="m 208,139 c 61,0 117,-33 117,-99 0,-71 -52,-119 -99,-147 -34,-20 -71,-32 -110,-32 -61,0 -116,33 -116,99 0,71 51,119 98,147 34,20 71,32 110,32 z"
       transform="scale(0.0029,-0.0029)" />
  </g>
  <g
     id="g754"
     transform="translate(59.9146,5.43935)">
    <rect
       id="rect752"
       fill="currentColor"
       ry="0.042100001"
       height="2.6984999"
       width="0.1228"
       y="-2.8176999"
       x="-0.0614" />
  </g>
  <g
     id="g758"
     transform="translate(60.576,5.80785)">
    <path
       id="path756"
       fill="currentColor"
       d="m 208,139 c 61,0 117,-33 117,-99 0,-71 -52,-119 -99,-147 -34,-20 -71,-32 -110,-32 -61,0 -116,33 -116,99 0,71 51,119 98,147 34,20 71,32 110,32 z"
       transform="scale(0.0029,-0.0029)" />
  </g>
  <g
     id="g762"
     transform="translate(61.4711,5.43935)">
    <rect
       id="rect760"
       fill="currentColor"
       ry="0.042100001"
       height="3.0669"
       width="0.1228"
       y="-2.8176999"
       x="-0.0614" />
  </g>
  <g
     id="g766"
     transform="translate(62.1325,6.17625)">
    <path
       id="path764"
       fill="currentColor"
       d="m 208,139 c 61,0 117,-33 117,-99 0,-71 -52,-119 -99,-147 -34,-20 -71,-32 -110,-32 -61,0 -116,33 -116,99 0,71 51,119 98,147 34,20 71,32 110,32 z"
       transform="scale(0.0029,-0.0029)" />
  </g>
  <g
     id="g770"
     transform="translate(55.9065,5.43935)">
    <path
       id="path768"
       fill="currentColor"
       d="m 208,139 c 61,0 117,-33 117,-99 0,-71 -52,-119 -99,-147 -34,-20 -71,-32 -110,-32 -61,0 -116,33 -116,99 0,71 51,119 98,147 34,20 71,32 110,32 z"
       transform="scale(0.0029,-0.0029)" />
  </g>
  <g
     id="g774"
     transform="translate(54.35,5.07095)">
    <path
       id="path772"
       fill="currentColor"
       d="m 208,139 c 61,0 117,-33 117,-99 0,-71 -52,-119 -99,-147 -34,-20 -71,-32 -110,-32 -61,0 -116,33 -116,99 0,71 51,119 98,147 34,20 71,32 110,32 z"
       transform="scale(0.0029,-0.0029)" />
  </g>
  <g
     id="g778"
     transform="translate(55.2452,5.43935)">
    <rect
       id="rect776"
       fill="currentColor"
       ry="0.042100001"
       height="2.3301001"
       width="0.1228"
       y="-2.8176999"
       x="-0.0614" />
  </g>
  <g
     id="g782"
     transform="translate(63.0276,5.43935)">
    <rect
       id="rect780"
       fill="currentColor"
       ry="0.042100001"
       height="3.4354"
       width="0.1228"
       y="-2.8176999"
       x="-0.0614" />
  </g>
  <g
     id="g786"
     transform="translate(56.8016,5.43935)">
    <rect
       id="rect784"
       fill="currentColor"
       ry="0.042100001"
       height="2.6984999"
       width="0.1228"
       y="-2.8176999"
       x="-0.0614" />
  </g>
  <g
     id="g790"
     transform="translate(57.463,5.80785)">
    <path
       id="path788"
       fill="currentColor"
       d="m 208,139 c 61,0 117,-33 117,-99 0,-71 -52,-119 -99,-147 -34,-20 -71,-32 -110,-32 -61,0 -116,33 -116,99 0,71 51,119 98,147 34,20 71,32 110,32 z"
       transform="scale(0.0029,-0.0029)" />
  </g>
  <g
     id="g794"
     transform="translate(58.3581,5.43935)">
    <rect
       id="rect792"
       fill="currentColor"
       ry="0.042100001"
       height="3.0669"
       width="0.1228"
       y="-2.8176999"
       x="-0.0614" />
  </g>
  <g
     id="g798"
     transform="translate(66.802,5.07095)">
    <path
       id="path796"
       fill="currentColor"
       d="m 208,139 c 61,0 117,-33 117,-99 0,-71 -52,-119 -99,-147 -34,-20 -71,-32 -110,-32 -61,0 -116,33 -116,99 0,71 51,119 98,147 34,20 71,32 110,32 z"
       transform="scale(0.0029,-0.0029)" />
  </g>
  <g
     id="g802"
     transform="translate(67.6971,5.43935)">
    <rect
       id="rect800"
       fill="currentColor"
       ry="0.042100001"
       height="3.0669"
       width="0.1228"
       y="-3.5546"
       x="-0.0614" />
  </g>
  <g
     id="g806"
     transform="translate(68.3584,4.70255)">
    <path
       id="path804"
       fill="currentColor"
       d="m 208,139 c 61,0 117,-33 117,-99 0,-71 -52,-119 -99,-147 -34,-20 -71,-32 -110,-32 -61,0 -116,33 -116,99 0,71 51,119 98,147 34,20 71,32 110,32 z"
       transform="scale(0.0029,-0.0029)" />
  </g>
  <g
     id="g810"
     transform="translate(69.2535,5.43935)">
    <rect
       id="rect808"
       fill="currentColor"
       ry="0.042100001"
       height="2.6984999"
       width="0.1228"
       y="-3.5546"
       x="-0.0614" />
  </g>
  <g
     id="g814"
     transform="translate(70.9669,4.33415)">
    <path
       id="path812"
       fill="currentColor"
       d="m 208,139 c 61,0 117,-33 117,-99 0,-71 -52,-119 -99,-147 -34,-20 -71,-32 -110,-32 -61,0 -116,33 -116,99 0,71 51,119 98,147 34,20 71,32 110,32 z"
       transform="scale(0.0029,-0.0029)" />
  </g>
  <g
     id="g818"
     transform="translate(71.862,5.43935)">
    <rect
       id="rect816"
       fill="currentColor"
       ry="0.042100001"
       height="2.3301001"
       width="0.1228"
       y="-3.5546"
       x="-0.0614" />
  </g>
  <g
     id="g822"
     transform="translate(66.1406,5.43935)">
    <rect
       id="rect820"
       fill="currentColor"
       ry="0.042100001"
       height="3.4354"
       width="0.1228"
       y="-3.5546"
       x="-0.0614" />
  </g>
  <g
     id="g826"
     transform="translate(65.2455,5.43935)">
    <path
       id="path824"
       fill="currentColor"
       d="m 208,139 c 61,0 117,-33 117,-99 0,-71 -52,-119 -99,-147 -34,-20 -71,-32 -110,-32 -61,0 -116,33 -116,99 0,71 51,119 98,147 34,20 71,32 110,32 z"
       transform="scale(0.0029,-0.0029)" />
  </g>
  <g
     id="g830"
     transform="translate(64.5841,5.43935)">
    <rect
       id="rect828"
       fill="currentColor"
       ry="0.042100001"
       height="3.8038001"
       width="0.1228"
       y="-3.5546"
       x="-0.0614" />
  </g>
  <g
     id="g834"
     transform="translate(63.689,5.80785)">
    <path
       id="path832"
       fill="currentColor"
       d="m 208,139 c 61,0 117,-33 117,-99 0,-71 -52,-119 -99,-147 -34,-20 -71,-32 -110,-32 -61,0 -116,33 -116,99 0,71 51,119 98,147 34,20 71,32 110,32 z"
       transform="scale(0.0029,-0.0029)" />
  </g>
  <g
     id="g838"
     transform="translate(52.1322,5.43935)">
    <rect
       id="rect836"
       fill="currentColor"
       ry="0.042100001"
       height="2.3301001"
       width="0.1228"
       y="-2.8176999"
       x="-0.0614" />
  </g>
  <g
     id="g842"
     transform="translate(51.2371,5.07095)">
    <path
       id="path840"
       fill="currentColor"
       d="m 208,139 c 61,0 117,-33 117,-99 0,-71 -52,-119 -99,-147 -34,-20 -71,-32 -110,-32 -61,0 -116,33 -116,99 0,71 51,119 98,147 34,20 71,32 110,32 z"
       transform="scale(0.0029,-0.0029)" />
  </g>
  <g
     id="g846"
     transform="translate(46.5676,4.70255)">
    <path
       id="path844"
       fill="currentColor"
       d="m 208,139 c 61,0 117,-33 117,-99 0,-71 -52,-119 -99,-147 -34,-20 -71,-32 -110,-32 -61,0 -116,33 -116,99 0,71 51,119 98,147 34,20 71,32 110,32 z"
       transform="scale(0.0029,-0.0029)" />
  </g>
  <g
     id="g850"
     transform="translate(49.6806,4.70255)">
    <path
       id="path848"
       fill="currentColor"
       d="m 208,139 c 61,0 117,-33 117,-99 0,-71 -52,-119 -99,-147 -34,-20 -71,-32 -110,-32 -61,0 -116,33 -116,99 0,71 51,119 98,147 34,20 71,32 110,32 z"
       transform="scale(0.0029,-0.0029)" />
  </g>
  <g
     id="g854"
     transform="translate(47.4627,5.43935)">
    <rect
       id="rect852"
       fill="currentColor"
       ry="0.042100001"
       height="2.6984999"
       width="0.1228"
       y="-3.5546"
       x="-0.0614" />
  </g>
  <g
     id="g858"
     transform="translate(50.5757,5.43935)">
    <rect
       id="rect856"
       fill="currentColor"
       ry="0.042100001"
       height="2.6984999"
       width="0.1228"
       y="-3.5546"
       x="-0.0614" />
  </g>
  <g
     id="g862"
     transform="translate(52.7936,5.43935)">
    <path
       id="path860"
       fill="currentColor"
       d="m 208,139 c 61,0 117,-33 117,-99 0,-71 -52,-119 -99,-147 -34,-20 -71,-32 -110,-32 -61,0 -116,33 -116,99 0,71 51,119 98,147 34,20 71,32 110,32 z"
       transform="scale(0.0029,-0.0029)" />
  </g>
  <g
     id="g866"
     transform="translate(49.0192,5.43935)">
    <rect
       id="rect864"
       fill="currentColor"
       ry="0.042100001"
       height="3.0669"
       width="0.1228"
       y="-3.5546"
       x="-0.0614" />
  </g>
  <g
     id="g870"
     transform="translate(48.1241,5.07095)">
    <path
       id="path868"
       fill="currentColor"
       d="m 208,139 c 61,0 117,-33 117,-99 0,-71 -52,-119 -99,-147 -34,-20 -71,-32 -110,-32 -61,0 -116,33 -116,99 0,71 51,119 98,147 34,20 71,32 110,32 z"
       transform="scale(0.0029,-0.0029)" />
  </g>
  <g
     id="g874"
     transform="translate(53.6887,5.43935)">
    <rect
       id="rect872"
       fill="currentColor"
       ry="0.042100001"
       height="2.6984999"
       width="0.1228"
       y="-2.8176999"
       x="-0.0614" />
  </g>
  <g
     id="g878"
     transform="translate(45.0111,4.33415)">
    <path
       id="path876"
       fill="currentColor"
       d="m 208,139 c 61,0 117,-33 117,-99 0,-71 -52,-119 -99,-147 -34,-20 -71,-32 -110,-32 -61,0 -116,33 -116,99 0,71 51,119 98,147 34,20 71,32 110,32 z"
       transform="scale(0.0029,-0.0029)" />
  </g>
  <g
     id="g882"
     transform="translate(45.9062,5.43935)">
    <rect
       id="rect880"
       fill="currentColor"
       ry="0.042100001"
       height="2.3301001"
       width="0.1228"
       y="-3.5546"
       x="-0.0614" />
  </g>
</svg>
