<?xml version="1.0" encoding="UTF-8" standalone="no"?>
<svg
   xmlns:dc="http://purl.org/dc/elements/1.1/"
   xmlns:cc="http://creativecommons.org/ns#"
   xmlns:rdf="http://www.w3.org/1999/02/22-rdf-syntax-ns#"
   xmlns:svg="http://www.w3.org/2000/svg"
   xmlns="http://www.w3.org/2000/svg"
   xmlns:sodipodi="http://sodipodi.sourceforge.net/DTD/sodipodi-0.dtd"
   xmlns:inkscape="http://www.inkscape.org/namespaces/inkscape"
   sodipodi:docname="bwv-1004_5_for_PNGs-27.svg"
   id="svg1056"
   viewBox="0 0 149.79909 11.517101"
   height="19.227037mm"
   width="250.07971mm"
   version="1.2">
  <metadata
     id="metadata1062">
    <rdf:RDF>
      <cc:Work
         rdf:about="">
        <dc:format>image/svg+xml</dc:format>
        <dc:type
           rdf:resource="http://purl.org/dc/dcmitype/StillImage" />
      </cc:Work>
    </rdf:RDF>
  </metadata>
  <defs
     id="defs1060" />
  <sodipodi:namedview
     id="namedview1058"
     inkscape:window-height="480"
     inkscape:window-width="640"
     inkscape:pageshadow="2"
     inkscape:pageopacity="0"
     guidetolerance="10"
     gridtolerance="10"
     objecttolerance="10"
     borderopacity="1"
     bordercolor="#666666"
     pagecolor="#ffffff" />
  <style
     id="style2"
     type="text/css"><![CDATA[
tspan { white-space: pre; }
]]></style>
  <g
     id="g6"
     transform="translate(0,7.7857)">
    <line
       id="line4"
       y2="0"
       x2="149.75191"
       y1="0"
       x1="0.047200002"
       stroke="currentColor"
       stroke-width="0.0944"
       stroke-linecap="round"
       stroke-linejoin="round" />
  </g>
  <g
     id="g10"
     transform="translate(0,7.0489)">
    <line
       id="line8"
       y2="0"
       x2="149.75191"
       y1="0"
       x1="0.047200002"
       stroke="currentColor"
       stroke-width="0.0944"
       stroke-linecap="round"
       stroke-linejoin="round" />
  </g>
  <g
     id="g14"
     transform="translate(0,6.312)">
    <line
       id="line12"
       y2="0"
       x2="149.75191"
       y1="0"
       x1="0.047200002"
       stroke="currentColor"
       stroke-width="0.0944"
       stroke-linecap="round"
       stroke-linejoin="round" />
  </g>
  <g
     id="g18"
     transform="translate(0,5.5752)">
    <line
       id="line16"
       y2="0"
       x2="149.75191"
       y1="0"
       x1="0.047200002"
       stroke="currentColor"
       stroke-width="0.0944"
       stroke-linecap="round"
       stroke-linejoin="round" />
  </g>
  <g
     id="g22"
     transform="translate(0,4.8384)">
    <line
       id="line20"
       y2="0"
       x2="149.75191"
       y1="0"
       x1="0.047200002"
       stroke="currentColor"
       stroke-width="0.0944"
       stroke-linecap="round"
       stroke-linejoin="round" />
  </g>
  <g
     id="g26"
     transform="translate(38.729,6.312)">
    <rect
       id="rect24"
       fill="currentColor"
       ry="0.0000"
       height="2.9474001"
       width="0.1794"
       y="-1.4737"
       x="0" />
  </g>
  <g
     id="g30"
     transform="translate(109.6913,6.312)">
    <rect
       id="rect28"
       fill="currentColor"
       ry="0.0000"
       height="2.9474001"
       width="0.1794"
       y="-1.4737"
       x="0" />
  </g>
  <g
     id="g34"
     transform="translate(54.6481,6.312)">
    <rect
       id="rect32"
       fill="currentColor"
       ry="0.0000"
       height="2.9474001"
       width="0.1794"
       y="-1.4737"
       x="0" />
  </g>
  <g
     id="g38"
     transform="translate(128.5902,6.312)">
    <rect
       id="rect36"
       fill="currentColor"
       ry="0.0000"
       height="2.9474001"
       width="0.1794"
       y="-1.4737"
       x="0" />
  </g>
  <g
     id="g42"
     transform="translate(22.8177,6.312)">
    <rect
       id="rect40"
       fill="currentColor"
       ry="0.0000"
       height="2.9474001"
       width="0.1794"
       y="-1.4737"
       x="0" />
  </g>
  <g
     id="g46"
     transform="translate(91.2705,6.312)">
    <rect
       id="rect44"
       fill="currentColor"
       ry="0.0000"
       height="2.9474001"
       width="0.1794"
       y="-1.4737"
       x="0" />
  </g>
  <g
     id="g50"
     transform="translate(145.6352,6.312)">
    <rect
       id="rect48"
       fill="currentColor"
       ry="0.0000"
       height="2.9474001"
       width="0.1794"
       y="-1.4737"
       x="0" />
  </g>
  <g
     id="g54"
     transform="translate(73.1524,6.312)">
    <rect
       id="rect52"
       fill="currentColor"
       ry="0.0000"
       height="2.9474001"
       width="0.1794"
       y="-1.4737"
       x="0" />
  </g>
  <g
     id="g58"
     transform="translate(0,8.5226)">
    <rect
       id="rect56"
       fill="currentColor"
       ry="0.084100001"
       height="0.1681"
       width="1.5329"
       y="-0.084100001"
       x="136.76489" />
  </g>
  <g
     id="g62"
     transform="translate(0,9.2594)">
    <rect
       id="rect60"
       fill="currentColor"
       ry="0.084100001"
       height="0.1681"
       width="1.5329"
       y="-0.084100001"
       x="136.76489" />
  </g>
  <g
     id="g66"
     transform="translate(0,4.1015)">
    <rect
       id="rect64"
       fill="currentColor"
       ry="0.084100001"
       height="0.1681"
       width="1.4347"
       y="-0.084100001"
       x="132.9465" />
  </g>
  <g
     id="g70"
     transform="translate(0,8.5226)">
    <rect
       id="rect68"
       fill="currentColor"
       ry="0.084100001"
       height="0.1681"
       width="1.4347"
       y="-0.084100001"
       x="132.9465" />
  </g>
  <g
     id="g74"
     transform="translate(0,9.2594)">
    <rect
       id="rect72"
       fill="currentColor"
       ry="0.084100001"
       height="0.1681"
       width="1.4347"
       y="-0.084100001"
       x="132.9465" />
  </g>
  <g
     id="g78"
     transform="translate(0,8.5226)">
    <rect
       id="rect76"
       fill="currentColor"
       ry="0.084100001"
       height="0.1681"
       width="1.4347"
       y="-0.084100001"
       x="129.4306" />
  </g>
  <g
     id="g82"
     transform="translate(0,8.5226)">
    <rect
       id="rect80"
       fill="currentColor"
       ry="0.084100001"
       height="0.1681"
       width="1.4347"
       y="-0.084100001"
       x="123.3554" />
  </g>
  <g
     id="g86"
     transform="translate(0,9.2594)">
    <rect
       id="rect84"
       fill="currentColor"
       ry="0.084100001"
       height="0.1681"
       width="1.3706"
       y="-0.084100001"
       x="123.4195" />
  </g>
  <g
     id="g90"
     transform="translate(0,8.5226)">
    <rect
       id="rect88"
       fill="currentColor"
       ry="0.084100001"
       height="0.1681"
       width="1.4347"
       y="-0.084100001"
       x="115.6859" />
  </g>
  <g
     id="g94"
     transform="translate(0,9.2594)">
    <rect
       id="rect92"
       fill="currentColor"
       ry="0.084100001"
       height="0.1681"
       width="1.4347"
       y="-0.084100001"
       x="115.6859" />
  </g>
  <g
     id="g98"
     transform="translate(0,8.5226)">
    <rect
       id="rect96"
       fill="currentColor"
       ry="0.084100001"
       height="0.1681"
       width="1.4347"
       y="-0.084100001"
       x="110.5316" />
  </g>
  <g
     id="g102"
     transform="translate(0,9.2594)">
    <rect
       id="rect100"
       fill="currentColor"
       ry="0.084100001"
       height="0.1681"
       width="1.4347"
       y="-0.084100001"
       x="110.5316" />
  </g>
  <g
     id="g106"
     transform="translate(0,8.5226)">
    <rect
       id="rect104"
       fill="currentColor"
       ry="0.084100001"
       height="0.1681"
       width="1.4347"
       y="-0.084100001"
       x="104.2173" />
  </g>
  <g
     id="g110"
     transform="translate(0,9.2594)">
    <rect
       id="rect108"
       fill="currentColor"
       ry="0.084100001"
       height="0.1681"
       width="1.3706"
       y="-0.084100001"
       x="104.2814" />
  </g>
  <g
     id="g114"
     transform="translate(0,8.5226)">
    <rect
       id="rect112"
       fill="currentColor"
       ry="0.084100001"
       height="0.1681"
       width="1.4347"
       y="-0.084100001"
       x="97.0261" />
  </g>
  <g
     id="g118"
     transform="translate(0,9.2594)">
    <rect
       id="rect116"
       fill="currentColor"
       ry="0.084100001"
       height="0.1681"
       width="1.4347"
       y="-0.084100001"
       x="97.0261" />
  </g>
  <g
     id="g122"
     transform="translate(0,8.5226)">
    <rect
       id="rect120"
       fill="currentColor"
       ry="0.084100001"
       height="0.1681"
       width="1.4347"
       y="-0.084100001"
       x="92.110901" />
  </g>
  <g
     id="g126"
     transform="translate(0,9.2594)">
    <rect
       id="rect124"
       fill="currentColor"
       ry="0.084100001"
       height="0.1681"
       width="1.4347"
       y="-0.084100001"
       x="92.110901" />
  </g>
  <g
     id="g130"
     transform="translate(0,8.5226)">
    <rect
       id="rect128"
       fill="currentColor"
       ry="0.084100001"
       height="0.1681"
       width="1.4347"
       y="-0.084100001"
       x="67.914597" />
  </g>
  <g
     id="g134"
     transform="translate(0,9.2594)">
    <rect
       id="rect132"
       fill="currentColor"
       ry="0.084100001"
       height="0.1681"
       width="1.4347"
       y="-0.084100001"
       x="67.914597" />
  </g>
  <g
     id="g138"
     transform="translate(0,8.5226)">
    <rect
       id="rect136"
       fill="currentColor"
       ry="0.084100001"
       height="0.1681"
       width="1.4347"
       y="-0.084100001"
       x="61.201599" />
  </g>
  <g
     id="g142"
     transform="translate(0,9.2594)">
    <rect
       id="rect140"
       fill="currentColor"
       ry="0.084100001"
       height="0.1681"
       width="1.4347"
       y="-0.084100001"
       x="61.201599" />
  </g>
  <g
     id="g146"
     transform="translate(0,4.1015)">
    <rect
       id="rect144"
       fill="currentColor"
       ry="0.084100001"
       height="0.1681"
       width="1.4347"
       y="-0.084100001"
       x="56.348999" />
  </g>
  <g
     id="g150"
     transform="translate(0,8.5226)">
    <rect
       id="rect148"
       fill="currentColor"
       ry="0.084100001"
       height="0.1681"
       width="1.4347"
       y="-0.084100001"
       x="56.348999" />
  </g>
  <g
     id="g154"
     transform="translate(0,9.2594)">
    <rect
       id="rect152"
       fill="currentColor"
       ry="0.084100001"
       height="0.1681"
       width="1.3706"
       y="-0.084100001"
       x="56.413101" />
  </g>
  <g
     id="g158"
     transform="translate(0,8.5226)">
    <rect
       id="rect156"
       fill="currentColor"
       ry="0.084100001"
       height="0.1681"
       width="1.4347"
       y="-0.084100001"
       x="49.581799" />
  </g>
  <g
     id="g162"
     transform="translate(0,9.2594)">
    <rect
       id="rect160"
       fill="currentColor"
       ry="0.084100001"
       height="0.1681"
       width="1.4347"
       y="-0.084100001"
       x="49.581799" />
  </g>
  <g
     id="g166"
     transform="translate(0,4.1015)">
    <rect
       id="rect164"
       fill="currentColor"
       ry="0.084100001"
       height="0.1681"
       width="1.4347"
       y="-0.084100001"
       x="44.547001" />
  </g>
  <g
     id="g170"
     transform="translate(0,8.5226)">
    <rect
       id="rect168"
       fill="currentColor"
       ry="0.084100001"
       height="0.1681"
       width="1.4347"
       y="-0.084100001"
       x="44.547001" />
  </g>
  <g
     id="g174"
     transform="translate(0,9.2594)">
    <rect
       id="rect172"
       fill="currentColor"
       ry="0.084100001"
       height="0.1681"
       width="1.4347"
       y="-0.084100001"
       x="44.547001" />
  </g>
  <g
     id="g178"
     transform="translate(0,8.5226)">
    <rect
       id="rect176"
       fill="currentColor"
       ry="0.084100001"
       height="0.1681"
       width="1.4347"
       y="-0.084100001"
       x="39.569401" />
  </g>
  <g
     id="g182"
     transform="translate(0,9.2594)">
    <rect
       id="rect180"
       fill="currentColor"
       ry="0.084100001"
       height="0.1681"
       width="1.4347"
       y="-0.084100001"
       x="39.569401" />
  </g>
  <g
     id="g186"
     transform="translate(0,8.5226)">
    <rect
       id="rect184"
       fill="currentColor"
       ry="0.084100001"
       height="0.1681"
       width="1.4347"
       y="-0.084100001"
       x="33.4884" />
  </g>
  <g
     id="g190"
     transform="translate(0,9.2594)">
    <rect
       id="rect188"
       fill="currentColor"
       ry="0.084100001"
       height="0.1681"
       width="1.4347"
       y="-0.084100001"
       x="33.4884" />
  </g>
  <g
     id="g194"
     transform="translate(0,8.5226)">
    <rect
       id="rect192"
       fill="currentColor"
       ry="0.084100001"
       height="0.1681"
       width="1.4347"
       y="-0.084100001"
       x="28.5732" />
  </g>
  <g
     id="g198"
     transform="translate(0,8.5226)">
    <rect
       id="rect196"
       fill="currentColor"
       ry="0.084100001"
       height="0.1681"
       width="1.4347"
       y="-0.084100001"
       x="23.658001" />
  </g>
  <g
     id="g202"
     transform="translate(0,8.5226)">
    <rect
       id="rect200"
       fill="currentColor"
       ry="0.084100001"
       height="0.1681"
       width="1.4347"
       y="-0.084100001"
       x="17.5681" />
  </g>
  <g
     id="g206"
     transform="translate(97.2651,9.6278)">
    <path
       id="path204"
       fill="currentColor"
       d="m 208,139 c 61,0 117,-33 117,-99 0,-71 -52,-119 -99,-147 -34,-20 -71,-32 -110,-32 -61,0 -116,33 -116,99 0,71 51,119 98,147 34,20 71,32 110,32 z"
       transform="scale(0.0029,-0.0029)" />
  </g>
  <g
     id="g210"
     transform="translate(98.6385,6.312)">
    <rect
       id="rect208"
       fill="currentColor"
       ry="0.042100001"
       height="1.9662"
       width="0.1228"
       y="-2.0855"
       x="-0.0614" />
  </g>
  <g
     id="g214"
     transform="translate(99.1167,6.312)">
    <rect
       id="rect212"
       fill="currentColor"
       ry="0.042100001"
       height="2.4597001"
       width="0.1228"
       y="-1.1052999"
       x="-0.0614" />
  </g>
  <g
     id="g218"
     transform="translate(97.3265,6.312)">
    <rect
       id="rect216"
       fill="currentColor"
       ry="0.042100001"
       height="1.7229"
       width="0.1228"
       y="3.4349999"
       x="-0.0614" />
  </g>
  <g
     id="g222"
     transform="translate(101.0999,5.9436)">
    <path
       id="path220"
       fill="currentColor"
       d="m 208,139 c 61,0 117,-33 117,-99 0,-71 -52,-119 -99,-147 -34,-20 -71,-32 -110,-32 -61,0 -116,33 -116,99 0,71 51,119 98,147 34,20 71,32 110,32 z"
       transform="scale(0.0029,-0.0029)" />
  </g>
  <g
     id="g226"
     transform="translate(101.995,6.312)">
    <rect
       id="rect224"
       fill="currentColor"
       ry="0.042100001"
       height="1.8479"
       width="0.1228"
       y="-2.3355999"
       x="-0.0614" />
  </g>
  <g
     id="g230"
     transform="translate(92.4113,6.312)">
    <rect
       id="rect228"
       fill="currentColor"
       ry="0.042100001"
       height="1.7229"
       width="0.1228"
       y="3.4349999"
       x="-0.0614" />
  </g>
  <g
     id="g234"
     transform="translate(98.1602,6.312)">
    <rect
       id="rect232"
       fill="currentColor"
       ry="0.042100001"
       height="1.9685"
       width="0.1228"
       y="-3.1930001"
       x="-0.0614" />
  </g>
  <g
     id="g238"
     transform="translate(129.6697,10.8627)">
    <polygon
       id="polygon236"
       points="0.0421,0.1347 0.0421,-0.1347 3.5966,0.3429 3.5966,0.6123 "
       stroke="currentColor"
       fill="currentColor"
       stroke-width="0.0842"
       stroke-linecap="round"
       stroke-linejoin="round" />
  </g>
  <g
     id="g242"
     transform="translate(97.2651,5.2068)">
    <path
       id="path240"
       fill="currentColor"
       d="m 208,139 c 61,0 117,-33 117,-99 0,-71 -52,-119 -99,-147 -34,-20 -71,-32 -110,-32 -61,0 -116,33 -116,99 0,71 51,119 98,147 34,20 71,32 110,32 z"
       transform="scale(0.0029,-0.0029)" />
  </g>
  <g
     id="g246"
     transform="translate(97.7434,6.312)">
    <path
       id="path244"
       fill="currentColor"
       d="m 208,139 c 61,0 117,-33 117,-99 0,-71 -52,-119 -99,-147 -34,-20 -71,-32 -110,-32 -61,0 -116,33 -116,99 0,71 51,119 98,147 34,20 71,32 110,32 z"
       transform="scale(0.0029,-0.0029)" />
  </g>
  <g
     id="g250"
     transform="translate(98.2216,7.7857)">
    <path
       id="path248"
       fill="currentColor"
       d="m 208,139 c 61,0 117,-33 117,-99 0,-71 -52,-119 -99,-147 -34,-20 -71,-32 -110,-32 -61,0 -116,33 -116,99 0,71 51,119 98,147 34,20 71,32 110,32 z"
       transform="scale(0.0029,-0.0029)" />
  </g>
  <g
     id="g254"
     transform="translate(110.7707,9.2594)">
    <path
       id="path252"
       fill="currentColor"
       d="m 208,139 c 61,0 117,-33 117,-99 0,-71 -52,-119 -99,-147 -34,-20 -71,-32 -110,-32 -61,0 -116,33 -116,99 0,71 51,119 98,147 34,20 71,32 110,32 z"
       transform="scale(0.0029,-0.0029)" />
  </g>
  <g
     id="g258"
     transform="translate(103.2958,9.6278)">
    <path
       id="path256"
       fill="currentColor"
       d="m 0,114 c 0,12 7,22 18,26 l 37,15 v 151 c 0,12 10,22 22,22 12,0 22,-10 22,-22 V 172 l 77,29 v 152 c 0,12 10,22 22,22 12,0 22,-10 22,-22 V 219 l 16,6 c 3,1 8,2 11,2 15,0 28,-12 28,-28 v -50 c 0,-12 -7,-23 -18,-27 L 220,108 V -44 l 16,7 c 3,1 8,2 11,2 15,0 28,-13 28,-29 v -50 c 0,-12 -7,-22 -18,-26 l -37,-15 v -151 c 0,-12 -10,-22 -22,-22 -12,0 -22,10 -22,22 v 134 l -77,-29 v -152 c 0,-12 -10,-22 -22,-22 -12,0 -22,10 -22,22 v 134 l -16,-6 c -3,-1 -8,-2 -11,-2 -15,0 -28,12 -28,28 v 50 c 0,12 7,23 18,27 l 37,14 V 44 L 39,37 C 36,36 31,35 28,35 13,35 0,48 0,64 Z M 176,91 99,61 V -91 l 77,30 z"
       transform="scale(0.0029,-0.0029)" />
  </g>
  <g
     id="g262"
     transform="translate(110.7707,5.2068)">
    <path
       id="path260"
       fill="currentColor"
       d="m 208,139 c 61,0 117,-33 117,-99 0,-71 -52,-119 -99,-147 -34,-20 -71,-32 -110,-32 -61,0 -116,33 -116,99 0,71 51,119 98,147 34,20 71,32 110,32 z"
       transform="scale(0.0029,-0.0029)" />
  </g>
  <g
     id="g266"
     transform="translate(111.7272,5.5752)">
    <path
       id="path264"
       fill="currentColor"
       d="m 208,139 c 61,0 117,-33 117,-99 0,-71 -52,-119 -99,-147 -34,-20 -71,-32 -110,-32 -61,0 -116,33 -116,99 0,71 51,119 98,147 34,20 71,32 110,32 z"
       transform="scale(0.0029,-0.0029)" />
  </g>
  <g
     id="g270"
     transform="translate(112.2054,7.7857)">
    <path
       id="path268"
       fill="currentColor"
       d="m 208,139 c 61,0 117,-33 117,-99 0,-71 -52,-119 -99,-147 -34,-20 -71,-32 -110,-32 -61,0 -116,33 -116,99 0,71 51,119 98,147 34,20 71,32 110,32 z"
       transform="scale(0.0029,-0.0029)" />
  </g>
  <g
     id="g274"
     transform="translate(104.5177,6.312)">
    <rect
       id="rect272"
       fill="currentColor"
       ry="0.042100001"
       height="1.7229"
       width="0.1228"
       y="3.4349999"
       x="-0.0614" />
  </g>
  <g
     id="g278"
     transform="translate(111.6658,6.312)">
    <rect
       id="rect276"
       fill="currentColor"
       ry="0.042100001"
       height="1.9685"
       width="0.1228"
       y="-3.1930001"
       x="-0.0614" />
  </g>
  <g
     id="g282"
     transform="translate(112.6223,6.312)">
    <rect
       id="rect280"
       fill="currentColor"
       ry="0.042100001"
       height="2.0913"
       width="0.1228"
       y="-2.9474001"
       x="-0.0614" />
  </g>
  <g
     id="g286"
     transform="translate(104.4564,5.2068)">
    <path
       id="path284"
       fill="currentColor"
       d="m 208,139 c 61,0 117,-33 117,-99 0,-71 -52,-119 -99,-147 -34,-20 -71,-32 -110,-32 -61,0 -116,33 -116,99 0,71 51,119 98,147 34,20 71,32 110,32 z"
       transform="scale(0.0029,-0.0029)" />
  </g>
  <g
     id="g290"
     transform="translate(105.4128,5.5752)">
    <path
       id="path288"
       fill="currentColor"
       d="m 208,139 c 61,0 117,-33 117,-99 0,-71 -52,-119 -99,-147 -34,-20 -71,-32 -110,-32 -61,0 -116,33 -116,99 0,71 51,119 98,147 34,20 71,32 110,32 z"
       transform="scale(0.0029,-0.0029)" />
  </g>
  <g
     id="g294"
     transform="translate(105.8911,7.7857)">
    <path
       id="path292"
       fill="currentColor"
       d="m 208,139 c 61,0 117,-33 117,-99 0,-71 -52,-119 -99,-147 -34,-20 -71,-32 -110,-32 -61,0 -116,33 -116,99 0,71 51,119 98,147 34,20 71,32 110,32 z"
       transform="scale(0.0029,-0.0029)" />
  </g>
  <g
     id="g298"
     transform="translate(104.4564,9.6278)">
    <path
       id="path296"
       fill="currentColor"
       d="m 208,139 c 61,0 117,-33 117,-99 0,-71 -52,-119 -99,-147 -34,-20 -71,-32 -110,-32 -61,0 -116,33 -116,99 0,71 51,119 98,147 34,20 71,32 110,32 z"
       transform="scale(0.0029,-0.0029)" />
  </g>
  <g
     id="g302"
     transform="translate(105.3515,6.312)">
    <rect
       id="rect300"
       fill="currentColor"
       ry="0.042100001"
       height="1.9685"
       width="0.1228"
       y="-3.1930001"
       x="-0.0614" />
  </g>
  <g
     id="g306"
     transform="translate(106.3079,6.312)">
    <rect
       id="rect304"
       fill="currentColor"
       ry="0.042100001"
       height="2.0913"
       width="0.1228"
       y="-2.9474001"
       x="-0.0614" />
  </g>
  <g
     id="g310"
     transform="translate(106.7862,6.312)">
    <rect
       id="rect308"
       fill="currentColor"
       ry="0.042100001"
       height="2.4597001"
       width="0.1228"
       y="-1.1052999"
       x="-0.0614" />
  </g>
  <g
     id="g314"
     transform="translate(80.9383,6.312)">
    <rect
       id="rect312"
       fill="currentColor"
       ry="0.042100001"
       height="2.4597001"
       width="0.1228"
       y="-0.73680001"
       x="-0.0614" />
  </g>
  <g
     id="g318"
     transform="translate(79.1481,6.312)">
    <rect
       id="rect316"
       fill="currentColor"
       ry="0.042100001"
       height="1.7229"
       width="0.1228"
       y="1.9613"
       x="-0.0614" />
  </g>
  <g
     id="g322"
     transform="translate(82.9214,6.312)">
    <path
       id="path320"
       fill="currentColor"
       d="m 208,139 c 61,0 117,-33 117,-99 0,-71 -52,-119 -99,-147 -34,-20 -71,-32 -110,-32 -61,0 -116,33 -116,99 0,71 51,119 98,147 34,20 71,32 110,32 z"
       transform="scale(0.0029,-0.0029)" />
  </g>
  <g
     id="g326"
     transform="translate(83.8165,6.312)">
    <rect
       id="rect324"
       fill="currentColor"
       ry="0.042100001"
       height="2.2163"
       width="0.1228"
       y="-2.3355999"
       x="-0.0614" />
  </g>
  <g
     id="g330"
     transform="translate(86.2779,4.8384)">
    <path
       id="path328"
       fill="currentColor"
       d="m 208,139 c 61,0 117,-33 117,-99 0,-71 -52,-119 -99,-147 -34,-20 -71,-32 -110,-32 -61,0 -116,33 -116,99 0,71 51,119 98,147 34,20 71,32 110,32 z"
       transform="scale(0.0029,-0.0029)" />
  </g>
  <g
     id="g334"
     transform="translate(79.0867,4.8384)">
    <path
       id="path332"
       fill="currentColor"
       d="m 208,139 c 61,0 117,-33 117,-99 0,-71 -52,-119 -99,-147 -34,-20 -71,-32 -110,-32 -61,0 -116,33 -116,99 0,71 51,119 98,147 34,20 71,32 110,32 z"
       transform="scale(0.0029,-0.0029)" />
  </g>
  <g
     id="g338"
     transform="translate(86.7561,5.9436)">
    <path
       id="path336"
       fill="currentColor"
       d="m 208,139 c 61,0 117,-33 117,-99 0,-71 -52,-119 -99,-147 -34,-20 -71,-32 -110,-32 -61,0 -116,33 -116,99 0,71 51,119 98,147 34,20 71,32 110,32 z"
       transform="scale(0.0029,-0.0029)" />
  </g>
  <g
     id="g342"
     transform="translate(79.5649,6.6805)">
    <path
       id="path340"
       fill="currentColor"
       d="m 208,139 c 61,0 117,-33 117,-99 0,-71 -52,-119 -99,-147 -34,-20 -71,-32 -110,-32 -61,0 -116,33 -116,99 0,71 51,119 98,147 34,20 71,32 110,32 z"
       transform="scale(0.0029,-0.0029)" />
  </g>
  <g
     id="g346"
     transform="translate(80.0432,8.1542)">
    <path
       id="path344"
       fill="currentColor"
       d="m 208,139 c 61,0 117,-33 117,-99 0,-71 -52,-119 -99,-147 -34,-20 -71,-32 -110,-32 -61,0 -116,33 -116,99 0,71 51,119 98,147 34,20 71,32 110,32 z"
       transform="scale(0.0029,-0.0029)" />
  </g>
  <g
     id="g350"
     transform="translate(79.0867,8.1542)">
    <path
       id="path348"
       fill="currentColor"
       d="m 208,139 c 61,0 117,-33 117,-99 0,-71 -52,-119 -99,-147 -34,-20 -71,-32 -110,-32 -61,0 -116,33 -116,99 0,71 51,119 98,147 34,20 71,32 110,32 z"
       transform="scale(0.0029,-0.0029)" />
  </g>
  <g
     id="g354"
     transform="translate(79.9818,6.312)">
    <rect
       id="rect352"
       fill="currentColor"
       ry="0.042100001"
       height="1.8457"
       width="0.1228"
       y="-3.4386001"
       x="-0.0614" />
  </g>
  <g
     id="g358"
     transform="translate(80.46,6.312)">
    <rect
       id="rect356"
       fill="currentColor"
       ry="0.042100001"
       height="2.3347001"
       width="0.1228"
       y="-2.0855"
       x="-0.0614" />
  </g>
  <g
     id="g362"
     transform="translate(92.35,4.8384)">
    <path
       id="path360"
       fill="currentColor"
       d="m 208,139 c 61,0 117,-33 117,-99 0,-71 -52,-119 -99,-147 -34,-20 -71,-32 -110,-32 -61,0 -116,33 -116,99 0,71 51,119 98,147 34,20 71,32 110,32 z"
       transform="scale(0.0029,-0.0029)" />
  </g>
  <g
     id="g366"
     transform="translate(92.8282,6.312)">
    <path
       id="path364"
       fill="currentColor"
       d="m 208,139 c 61,0 117,-33 117,-99 0,-71 -52,-119 -99,-147 -34,-20 -71,-32 -110,-32 -61,0 -116,33 -116,99 0,71 51,119 98,147 34,20 71,32 110,32 z"
       transform="scale(0.0029,-0.0029)" />
  </g>
  <g
     id="g370"
     transform="translate(93.3065,8.1542)">
    <path
       id="path368"
       fill="currentColor"
       d="m 208,139 c 61,0 117,-33 117,-99 0,-71 -52,-119 -99,-147 -34,-20 -71,-32 -110,-32 -61,0 -116,33 -116,99 0,71 51,119 98,147 34,20 71,32 110,32 z"
       transform="scale(0.0029,-0.0029)" />
  </g>
  <g
     id="g374"
     transform="translate(92.35,9.6278)">
    <path
       id="path372"
       fill="currentColor"
       d="m 208,139 c 61,0 117,-33 117,-99 0,-71 -52,-119 -99,-147 -34,-20 -71,-32 -110,-32 -61,0 -116,33 -116,99 0,71 51,119 98,147 34,20 71,32 110,32 z"
       transform="scale(0.0029,-0.0029)" />
  </g>
  <g
     id="g378"
     transform="translate(74.2954,6.312)">
    <rect
       id="rect376"
       fill="currentColor"
       ry="0.042100001"
       height="1.7229"
       width="0.1228"
       y="1.9613"
       x="-0.0614" />
  </g>
  <g
     id="g382"
     transform="translate(93.2451,6.312)">
    <rect
       id="rect380"
       fill="currentColor"
       ry="0.042100001"
       height="1.8457"
       width="0.1228"
       y="-3.4386001"
       x="-0.0614" />
  </g>
  <g
     id="g386"
     transform="translate(85.4652,5.9436)">
    <path
       id="path384"
       fill="currentColor"
       d="m -8,375 c 8,5 18,7 27,7 9,0 20,-2 28,-7 l -3,-196 99,24 h 4 c 11,0 20,-8 20,-19 l 8,-559 c -8,-5 -19,-7 -28,-7 -9,0 -19,2 -27,7 l 3,196 -99,-24 h -5 c -11,0 -19,8 -19,19 z M 127,109 42,89 l -2,-198 84,20 z"
       transform="scale(0.0029,-0.0029)" />
  </g>
  <g
     id="g390"
     transform="translate(93.7233,6.312)">
    <rect
       id="rect388"
       fill="currentColor"
       ry="0.042100001"
       height="2.3369"
       width="0.1228"
       y="-2.4561"
       x="-0.0614" />
  </g>
  <g
     id="g394"
     transform="translate(94.2016,6.312)">
    <rect
       id="rect392"
       fill="currentColor"
       ry="0.042100001"
       height="2.4597001"
       width="0.1228"
       y="-0.73680001"
       x="-0.0614" />
  </g>
  <g
     id="g398"
     transform="translate(87.2344,8.1542)">
    <path
       id="path396"
       fill="currentColor"
       d="m 208,139 c 61,0 117,-33 117,-99 0,-71 -52,-119 -99,-147 -34,-20 -71,-32 -110,-32 -61,0 -116,33 -116,99 0,71 51,119 98,147 34,20 71,32 110,32 z"
       transform="scale(0.0029,-0.0029)" />
  </g>
  <g
     id="g402"
     transform="translate(86.2779,8.1542)">
    <path
       id="path400"
       fill="currentColor"
       d="m 208,139 c 61,0 117,-33 117,-99 0,-71 -52,-119 -99,-147 -34,-20 -71,-32 -110,-32 -61,0 -116,33 -116,99 0,71 51,119 98,147 34,20 71,32 110,32 z"
       transform="scale(0.0029,-0.0029)" />
  </g>
  <g
     id="g406"
     transform="translate(87.173,6.312)">
    <rect
       id="rect404"
       fill="currentColor"
       ry="0.042100001"
       height="1.8457"
       width="0.1228"
       y="-3.4386001"
       x="-0.0614" />
  </g>
  <g
     id="g410"
     transform="translate(87.6512,6.312)">
    <rect
       id="rect408"
       fill="currentColor"
       ry="0.042100001"
       height="2.2140999"
       width="0.1228"
       y="-2.7018001"
       x="-0.0614" />
  </g>
  <g
     id="g414"
     transform="translate(88.1295,6.312)">
    <rect
       id="rect412"
       fill="currentColor"
       ry="0.042100001"
       height="2.4597001"
       width="0.1228"
       y="-0.73680001"
       x="-0.0614" />
  </g>
  <g
     id="g418"
     transform="translate(86.3393,6.312)">
    <rect
       id="rect416"
       fill="currentColor"
       ry="0.042100001"
       height="1.7229"
       width="0.1228"
       y="1.9613"
       x="-0.0614" />
  </g>
  <g
     id="g422"
     transform="translate(134.5589,6.312)">
    <rect
       id="rect420"
       fill="currentColor"
       ry="0.042100001"
       height="2.1833999"
       width="0.1228"
       y="-3.0395"
       x="-0.0614" />
  </g>
  <g
     id="g426"
     transform="translate(134.6203,3.3147)">
    <path
       id="path424"
       fill="currentColor"
       d="m 0,0 c 0,-196 207,-334 207,-530 0,-71 -15,-140 -41,-206 -5,-10 -14,-13 -23,-13 -14,0 -28,10 -28,26 0,2 1,3 1,5 26,59 42,123 42,188 0,101 -90,205 -158,280 H -21 V 0 Z"
       transform="scale(0.0029,-0.0029)" />
  </g>
  <g
     id="g430"
     transform="translate(135.0372,6.312)">
    <rect
       id="rect428"
       fill="currentColor"
       ry="0.042100001"
       height="4.9129"
       width="0.1228"
       y="-3.5585001"
       x="-0.0614" />
  </g>
  <g
     id="g434"
     transform="translate(134.0807,6.312)">
    <rect
       id="rect432"
       fill="currentColor"
       ry="0.042100001"
       height="1.5768"
       width="0.1228"
       y="-4.2750001"
       x="-0.0614" />
  </g>
  <g
     id="g438"
     transform="translate(133.247,6.312)">
    <rect
       id="rect436"
       fill="currentColor"
       ry="0.042100001"
       height="1.5852"
       width="0.1228"
       y="3.4349999"
       x="-0.0614" />
  </g>
  <g
     id="g442"
     transform="translate(129.7311,6.312)">
    <rect
       id="rect440"
       fill="currentColor"
       ry="0.042100001"
       height="1.8606"
       width="0.1228"
       y="2.6982"
       x="-0.0614" />
  </g>
  <g
     id="g446"
     transform="translate(137.0203,5.9436)">
    <path
       id="path444"
       fill="currentColor"
       d="m 208,139 c 61,0 117,-33 117,-99 0,-71 -52,-119 -99,-147 -34,-20 -71,-32 -110,-32 -61,0 -116,33 -116,99 0,71 51,119 98,147 34,20 71,32 110,32 z"
       transform="scale(0.0029,-0.0029)" />
  </g>
  <g
     id="g450"
     transform="translate(133.1856,3.7331)">
    <path
       id="path448"
       fill="currentColor"
       d="m 208,139 c 61,0 117,-33 117,-99 0,-71 -52,-119 -99,-147 -34,-20 -71,-32 -110,-32 -61,0 -116,33 -116,99 0,71 51,119 98,147 34,20 71,32 110,32 z"
       transform="scale(0.0029,-0.0029)" />
  </g>
  <g
     id="g454"
     transform="translate(133.6638,5.5752)">
    <path
       id="path452"
       fill="currentColor"
       d="m 208,139 c 61,0 117,-33 117,-99 0,-71 -52,-119 -99,-147 -34,-20 -71,-32 -110,-32 -61,0 -116,33 -116,99 0,71 51,119 98,147 34,20 71,32 110,32 z"
       transform="scale(0.0029,-0.0029)" />
  </g>
  <g
     id="g458"
     transform="translate(134.1421,7.7857)">
    <path
       id="path456"
       fill="currentColor"
       d="m 208,139 c 61,0 117,-33 117,-99 0,-71 -52,-119 -99,-147 -34,-20 -71,-32 -110,-32 -61,0 -116,33 -116,99 0,71 51,119 98,147 34,20 71,32 110,32 z"
       transform="scale(0.0029,-0.0029)" />
  </g>
  <g
     id="g462"
     transform="translate(133.1856,9.6278)">
    <path
       id="path460"
       fill="currentColor"
       d="m 208,139 c 61,0 117,-33 117,-99 0,-71 -52,-119 -99,-147 -34,-20 -71,-32 -110,-32 -61,0 -116,33 -116,99 0,71 51,119 98,147 34,20 71,32 110,32 z"
       transform="scale(0.0029,-0.0029)" />
  </g>
  <g
     id="g466"
     transform="translate(143.2352,3.3147)">
    <path
       id="path464"
       fill="currentColor"
       d="m 0,0 c 0,-196 207,-334 207,-530 0,-71 -15,-140 -41,-206 -5,-10 -14,-13 -23,-13 -14,0 -28,10 -28,26 0,2 1,3 1,5 26,59 42,123 42,188 0,101 -90,205 -158,280 H -21 V 0 Z"
       transform="scale(0.0029,-0.0029)" />
  </g>
  <g
     id="g470"
     transform="translate(148.7096,6.312)">
    <path
       id="path468"
       fill="currentColor"
       d="m 33,35 -2,-60 v -11 c 0,-21 2,-43 5,-64 42,38 87,81 87,138 0,32 -13,63 -41,63 C 51,101 34,69 33,35 Z M 32,446 23,109 c 25,26 59,40 95,40 50,0 82,-51 82,-105 0,-77 -80,-117 -137,-169 -18,-17 -26,-48 -52,-48 -16,0 -28,15 -28,32 l -15,587 c 10,6 21,8 32,8 11,0 22,-2 32,-8 z"
       transform="scale(0.0029,-0.0029)" />
  </g>
  <g
     id="g474"
     transform="translate(146.8147,4.8384)">
    <path
       id="path472"
       fill="currentColor"
       d="m -8,375 c 8,5 18,7 27,7 9,0 20,-2 28,-7 l -3,-196 99,24 h 4 c 11,0 20,-8 20,-19 l 8,-559 c -8,-5 -19,-7 -28,-7 -9,0 -19,2 -27,7 l 3,196 -99,-24 h -5 c -11,0 -19,8 -19,19 z M 127,109 42,89 l -2,-198 84,20 z"
       transform="scale(0.0029,-0.0029)" />
  </g>
  <g
     id="g478"
     transform="translate(147.6059,5.9436)">
    <path
       id="path476"
       fill="currentColor"
       d="m -8,375 c 8,5 18,7 27,7 9,0 20,-2 28,-7 l -3,-196 99,24 h 4 c 11,0 20,-8 20,-19 l 8,-559 c -8,-5 -19,-7 -28,-7 -9,0 -19,2 -27,7 l 3,196 -99,-24 h -5 c -11,0 -19,8 -19,19 z M 127,109 42,89 l -2,-198 84,20 z"
       transform="scale(0.0029,-0.0029)" />
  </g>
  <g
     id="g482"
     transform="translate(62.2744,2.9963)">
    <polygon
       id="polygon480"
       points="0.0421,0.1347 0.0421,-0.1347 3.4371,-0.3735 3.4371,-0.1041 "
       stroke="currentColor"
       fill="currentColor"
       stroke-width="0.0842"
       stroke-linecap="round"
       stroke-linejoin="round" />
  </g>
  <g
     id="g486"
     transform="translate(80.3986,4.2311)">
    <polygon
       id="polygon484"
       points="0.0421,0.1347 0.0421,-0.1347 3.4371,-0.394 3.4371,-0.1245 "
       stroke="currentColor"
       fill="currentColor"
       stroke-width="0.0842"
       stroke-linecap="round"
       stroke-linejoin="round" />
  </g>
  <g
     id="g490"
     transform="translate(98.5771,4.2311)">
    <polygon
       id="polygon488"
       points="0.0421,0.1347 0.0421,-0.1347 3.4371,-0.394 3.4371,-0.1245 "
       stroke="currentColor"
       fill="currentColor"
       stroke-width="0.0842"
       stroke-linecap="round"
       stroke-linejoin="round" />
  </g>
  <g
     id="g494"
     transform="translate(117.7152,5.7048)">
    <polygon
       id="polygon492"
       points="0.0421,0.1347 0.0421,-0.1347 3.4371,-0.394 3.4371,-0.1245 "
       stroke="currentColor"
       fill="currentColor"
       stroke-width="0.0842"
       stroke-linecap="round"
       stroke-linejoin="round" />
  </g>
  <g
     id="g498"
     transform="translate(130.5034,2.9963)">
    <polygon
       id="polygon496"
       points="0.0421,0.1347 0.0421,-0.1347 3.5966,-1.1104 3.5966,-0.8409 "
       stroke="currentColor"
       fill="currentColor"
       stroke-width="0.0842"
       stroke-linecap="round"
       stroke-linejoin="round" />
  </g>
  <g
     id="g502"
     transform="translate(130.9816,2.4982)">
    <polygon
       id="polygon500"
       points="0.0421,0.1347 0.0421,-0.1347 4.0748,0.1245 4.0748,0.394 "
       stroke="currentColor"
       fill="currentColor"
       stroke-width="0.0842"
       stroke-linecap="round"
       stroke-linejoin="round" />
  </g>
  <g
     id="g506"
     transform="translate(137.5313,7.7857)">
    <path
       id="path504"
       fill="currentColor"
       d="m 308,62 c 0,23 -20,39 -40,39 -4,0 -7,0 -11,-1 C 228,92 183,62 148,39 113,16 69,-13 49,-36 43,-44 39,-52 39,-62 c 0,-23 20,-39 40,-39 4,0 7,0 11,1 29,8 74,38 109,61 35,23 79,52 99,75 6,8 10,16 10,26 z M 0,-59 c 0,142 114,198 251,198 53,0 96,-22 96,-80 0,-142 -115,-198 -252,-198 -53,0 -95,22 -95,80 z"
       transform="scale(0.0029,-0.0029)" />
  </g>
  <g
     id="g510"
     transform="translate(137.0203,9.2594)">
    <path
       id="path508"
       fill="currentColor"
       d="m 308,62 c 0,23 -20,39 -40,39 -4,0 -7,0 -11,-1 C 228,92 183,62 148,39 113,16 69,-13 49,-36 43,-44 39,-52 39,-62 c 0,-23 20,-39 40,-39 4,0 7,0 11,1 29,8 74,38 109,61 35,23 79,52 99,75 6,8 10,16 10,26 z M 0,-59 c 0,142 114,198 251,198 53,0 96,-22 96,-80 0,-142 -115,-198 -252,-198 -53,0 -95,22 -95,80 z"
       transform="scale(0.0029,-0.0029)" />
  </g>
  <g
     id="g514"
     transform="translate(138.8747,5.9436)">
    <path
       id="path512"
       fill="currentColor"
       d="M 0,0 C 0,30 25,55 55,55 85,55 109,30 109,0 109,-30 85,-55 55,-55 25,-55 0,-30 0,0 Z"
       transform="scale(0.0029,-0.0029)" />
  </g>
  <g
     id="g518"
     transform="translate(137.9154,6.312)">
    <rect
       id="rect516"
       fill="currentColor"
       ry="0.042100001"
       height="2.2140999"
       width="0.1228"
       y="-2.7018001"
       x="-0.0614" />
  </g>
  <g
     id="g522"
     transform="translate(138.4918,6.312)">
    <rect
       id="rect520"
       fill="currentColor"
       ry="0.042100001"
       height="2.4047"
       width="0.1228"
       y="-1.1052999"
       x="-0.0614" />
  </g>
  <g
     id="g526"
     transform="translate(137.0817,6.312)">
    <rect
       id="rect524"
       fill="currentColor"
       ry="0.042100001"
       height="1.6677999"
       width="0.1228"
       y="3.1217"
       x="-0.0614" />
  </g>
  <g
     id="g530"
     transform="translate(142.2787,5.5752)">
    <path
       id="path528"
       fill="currentColor"
       d="m 208,139 c 61,0 117,-33 117,-99 0,-71 -52,-119 -99,-147 -34,-20 -71,-32 -110,-32 -61,0 -116,33 -116,99 0,71 51,119 98,147 34,20 71,32 110,32 z"
       transform="scale(0.0029,-0.0029)" />
  </g>
  <g
     id="g534"
     transform="translate(143.1738,6.312)">
    <rect
       id="rect532"
       fill="currentColor"
       ry="0.042100001"
       height="2.1833999"
       width="0.1228"
       y="-3.0395"
       x="-0.0614" />
  </g>
  <g
     id="g538"
     transform="translate(115.925,9.2594)">
    <path
       id="path536"
       fill="currentColor"
       d="m 208,139 c 61,0 117,-33 117,-99 0,-71 -52,-119 -99,-147 -34,-20 -71,-32 -110,-32 -61,0 -116,33 -116,99 0,71 51,119 98,147 34,20 71,32 110,32 z"
       transform="scale(0.0029,-0.0029)" />
  </g>
  <g
     id="g542"
     transform="translate(116.8201,6.312)">
    <rect
       id="rect540"
       fill="currentColor"
       ry="0.042100001"
       height="1.9685"
       width="0.1228"
       y="-3.1930001"
       x="-0.0614" />
  </g>
  <g
     id="g546"
     transform="translate(117.2983,6.312)">
    <rect
       id="rect544"
       fill="currentColor"
       ry="0.042100001"
       height="2.2140999"
       width="0.1228"
       y="-2.7018001"
       x="-0.0614" />
  </g>
  <g
     id="g550"
     transform="translate(117.7766,6.312)">
    <rect
       id="rect548"
       fill="currentColor"
       ry="0.042100001"
       height="1.9662"
       width="0.1228"
       y="-0.61180001"
       x="-0.0614" />
  </g>
  <g
     id="g554"
     transform="translate(116.8815,7.7857)">
    <path
       id="path552"
       fill="currentColor"
       d="m 208,139 c 61,0 117,-33 117,-99 0,-71 -52,-119 -99,-147 -34,-20 -71,-32 -110,-32 -61,0 -116,33 -116,99 0,71 51,119 98,147 34,20 71,32 110,32 z"
       transform="scale(0.0029,-0.0029)" />
  </g>
  <g
     id="g558"
     transform="translate(115.9864,6.312)">
    <rect
       id="rect556"
       fill="currentColor"
       ry="0.042100001"
       height="1.7229"
       width="0.1228"
       y="3.0666001"
       x="-0.0614" />
  </g>
  <g
     id="g562"
     transform="translate(120.238,7.4173)">
    <path
       id="path560"
       fill="currentColor"
       d="m 208,139 c 61,0 117,-33 117,-99 0,-71 -52,-119 -99,-147 -34,-20 -71,-32 -110,-32 -61,0 -116,33 -116,99 0,71 51,119 98,147 34,20 71,32 110,32 z"
       transform="scale(0.0029,-0.0029)" />
  </g>
  <g
     id="g566"
     transform="translate(113.1005,6.312)">
    <rect
       id="rect564"
       fill="currentColor"
       ry="0.042100001"
       height="2.4597001"
       width="0.1228"
       y="-1.1052999"
       x="-0.0614" />
  </g>
  <g
     id="g570"
     transform="translate(110.8321,6.312)">
    <rect
       id="rect568"
       fill="currentColor"
       ry="0.042100001"
       height="1.7229"
       width="0.1228"
       y="3.0666001"
       x="-0.0614" />
  </g>
  <g
     id="g574"
     transform="translate(121.1331,6.312)">
    <rect
       id="rect572"
       fill="currentColor"
       ry="0.042100001"
       height="1.8479"
       width="0.1228"
       y="-0.86189997"
       x="-0.0614" />
  </g>
  <g
     id="g578"
     transform="translate(115.925,5.2068)">
    <path
       id="path576"
       fill="currentColor"
       d="m 208,139 c 61,0 117,-33 117,-99 0,-71 -52,-119 -99,-147 -34,-20 -71,-32 -110,-32 -61,0 -116,33 -116,99 0,71 51,119 98,147 34,20 71,32 110,32 z"
       transform="scale(0.0029,-0.0029)" />
  </g>
  <g
     id="g582"
     transform="translate(116.4032,5.9436)">
    <path
       id="path580"
       fill="currentColor"
       d="m 208,139 c 61,0 117,-33 117,-99 0,-71 -52,-119 -99,-147 -34,-20 -71,-32 -110,-32 -61,0 -116,33 -116,99 0,71 51,119 98,147 34,20 71,32 110,32 z"
       transform="scale(0.0029,-0.0029)" />
  </g>
  <g
     id="g586"
     transform="translate(129.6697,8.891)">
    <path
       id="path584"
       fill="currentColor"
       d="m 208,139 c 61,0 117,-33 117,-99 0,-71 -52,-119 -99,-147 -34,-20 -71,-32 -110,-32 -61,0 -116,33 -116,99 0,71 51,119 98,147 34,20 71,32 110,32 z"
       transform="scale(0.0029,-0.0029)" />
  </g>
  <g
     id="g590"
     transform="translate(123.6558,6.312)">
    <rect
       id="rect588"
       fill="currentColor"
       ry="0.042100001"
       height="1.7229"
       width="0.1228"
       y="3.0666001"
       x="-0.0614" />
  </g>
  <g
     id="g594"
     transform="translate(122.4339,9.2594)">
    <path
       id="path592"
       fill="currentColor"
       d="m 0,114 c 0,12 7,22 18,26 l 37,15 v 151 c 0,12 10,22 22,22 12,0 22,-10 22,-22 V 172 l 77,29 v 152 c 0,12 10,22 22,22 12,0 22,-10 22,-22 V 219 l 16,6 c 3,1 8,2 11,2 15,0 28,-12 28,-28 v -50 c 0,-12 -7,-23 -18,-27 L 220,108 V -44 l 16,7 c 3,1 8,2 11,2 15,0 28,-13 28,-29 v -50 c 0,-12 -7,-22 -18,-26 l -37,-15 v -151 c 0,-12 -10,-22 -22,-22 -12,0 -22,10 -22,22 v 134 l -77,-29 v -152 c 0,-12 -10,-22 -22,-22 -12,0 -22,10 -22,22 v 134 l -16,-6 c -3,-1 -8,-2 -11,-2 -15,0 -28,12 -28,28 v 50 c 0,12 7,23 18,27 l 37,14 V 44 L 39,37 C 36,36 31,35 28,35 13,35 0,48 0,64 Z M 176,91 99,61 V -91 l 77,30 z"
       transform="scale(0.0029,-0.0029)" />
  </g>
  <g
     id="g598"
     transform="translate(129.6697,5.5752)">
    <path
       id="path596"
       fill="currentColor"
       d="m 208,139 c 61,0 117,-33 117,-99 0,-71 -52,-119 -99,-147 -34,-20 -71,-32 -110,-32 -61,0 -116,33 -116,99 0,71 51,119 98,147 34,20 71,32 110,32 z"
       transform="scale(0.0029,-0.0029)" />
  </g>
  <g
     id="g602"
     transform="translate(130.1479,7.4173)">
    <path
       id="path600"
       fill="currentColor"
       d="m 208,139 c 61,0 117,-33 117,-99 0,-71 -52,-119 -99,-147 -34,-20 -71,-32 -110,-32 -61,0 -116,33 -116,99 0,71 51,119 98,147 34,20 71,32 110,32 z"
       transform="scale(0.0029,-0.0029)" />
  </g>
  <g
     id="g606"
     transform="translate(130.5648,6.312)">
    <rect
       id="rect604"
       fill="currentColor"
       ry="0.042100001"
       height="2.4762001"
       width="0.1228"
       y="-3.3322001"
       x="-0.0614" />
  </g>
  <g
     id="g610"
     transform="translate(131.043,6.312)">
    <rect
       id="rect608"
       fill="currentColor"
       ry="0.042100001"
       height="4.796"
       width="0.1228"
       y="-3.8099999"
       x="-0.0614" />
  </g>
  <g
     id="g614"
     transform="translate(123.5945,5.2068)">
    <path
       id="path612"
       fill="currentColor"
       d="m 208,139 c 61,0 117,-33 117,-99 0,-71 -52,-119 -99,-147 -34,-20 -71,-32 -110,-32 -61,0 -116,33 -116,99 0,71 51,119 98,147 34,20 71,32 110,32 z"
       transform="scale(0.0029,-0.0029)" />
  </g>
  <g
     id="g618"
     transform="translate(124.0727,5.9436)">
    <path
       id="path616"
       fill="currentColor"
       d="m 208,139 c 61,0 117,-33 117,-99 0,-71 -52,-119 -99,-147 -34,-20 -71,-32 -110,-32 -61,0 -116,33 -116,99 0,71 51,119 98,147 34,20 71,32 110,32 z"
       transform="scale(0.0029,-0.0029)" />
  </g>
  <g
     id="g622"
     transform="translate(124.5509,7.0489)">
    <path
       id="path620"
       fill="currentColor"
       d="m 208,139 c 61,0 117,-33 117,-99 0,-71 -52,-119 -99,-147 -34,-20 -71,-32 -110,-32 -61,0 -116,33 -116,99 0,71 51,119 98,147 34,20 71,32 110,32 z"
       transform="scale(0.0029,-0.0029)" />
  </g>
  <g
     id="g626"
     transform="translate(123.5945,9.2594)">
    <path
       id="path624"
       fill="currentColor"
       d="m 208,139 c 61,0 117,-33 117,-99 0,-71 -52,-119 -99,-147 -34,-20 -71,-32 -110,-32 -61,0 -116,33 -116,99 0,71 51,119 98,147 34,20 71,32 110,32 z"
       transform="scale(0.0029,-0.0029)" />
  </g>
  <g
     id="g630"
     transform="translate(124.4896,6.312)">
    <rect
       id="rect628"
       fill="currentColor"
       ry="0.042100001"
       height="1.9685"
       width="0.1228"
       y="-3.1930001"
       x="-0.0614" />
  </g>
  <g
     id="g634"
     transform="translate(124.9678,6.312)">
    <rect
       id="rect632"
       fill="currentColor"
       ry="0.042100001"
       height="2.2140999"
       width="0.1228"
       y="-2.7018001"
       x="-0.0614" />
  </g>
  <g
     id="g638"
     transform="translate(125.446,6.312)">
    <rect
       id="rect636"
       fill="currentColor"
       ry="0.042100001"
       height="2.4597001"
       width="0.1228"
       y="-1.8421"
       x="-0.0614" />
  </g>
  <g
     id="g642"
     transform="translate(28.8123,4.8384)">
    <path
       id="path640"
       fill="currentColor"
       d="m 208,139 c 61,0 117,-33 117,-99 0,-71 -52,-119 -99,-147 -34,-20 -71,-32 -110,-32 -61,0 -116,33 -116,99 0,71 51,119 98,147 34,20 71,32 110,32 z"
       transform="scale(0.0029,-0.0029)" />
  </g>
  <g
     id="g646"
     transform="translate(29.2905,6.312)">
    <path
       id="path644"
       fill="currentColor"
       d="m 208,139 c 61,0 117,-33 117,-99 0,-71 -52,-119 -99,-147 -34,-20 -71,-32 -110,-32 -61,0 -116,33 -116,99 0,71 51,119 98,147 34,20 71,32 110,32 z"
       transform="scale(0.0029,-0.0029)" />
  </g>
  <g
     id="g650"
     transform="translate(29.7688,8.1542)">
    <path
       id="path648"
       fill="currentColor"
       d="m 208,139 c 61,0 117,-33 117,-99 0,-71 -52,-119 -99,-147 -34,-20 -71,-32 -110,-32 -61,0 -116,33 -116,99 0,71 51,119 98,147 34,20 71,32 110,32 z"
       transform="scale(0.0029,-0.0029)" />
  </g>
  <g
     id="g654"
     transform="translate(28.8123,8.891)">
    <path
       id="path652"
       fill="currentColor"
       d="m 208,139 c 61,0 117,-33 117,-99 0,-71 -52,-119 -99,-147 -34,-20 -71,-32 -110,-32 -61,0 -116,33 -116,99 0,71 51,119 98,147 34,20 71,32 110,32 z"
       transform="scale(0.0029,-0.0029)" />
  </g>
  <g
     id="g658"
     transform="translate(29.7074,6.312)">
    <rect
       id="rect656"
       fill="currentColor"
       ry="0.042100001"
       height="1.8457"
       width="0.1228"
       y="-3.4386001"
       x="-0.0614" />
  </g>
  <g
     id="g662"
     transform="translate(30.1856,6.312)">
    <rect
       id="rect660"
       fill="currentColor"
       ry="0.042100001"
       height="2.3369"
       width="0.1228"
       y="-2.4561"
       x="-0.0614" />
  </g>
  <g
     id="g666"
     transform="translate(30.6639,6.312)">
    <rect
       id="rect664"
       fill="currentColor"
       ry="0.042100001"
       height="2.4597001"
       width="0.1228"
       y="-0.73680001"
       x="-0.0614" />
  </g>
  <g
     id="g670"
     transform="translate(28.8737,6.312)">
    <rect
       id="rect668"
       fill="currentColor"
       ry="0.042100001"
       height="1.7229"
       width="0.1228"
       y="2.6982"
       x="-0.0614" />
  </g>
  <g
     id="g674"
     transform="translate(23.9585,6.312)">
    <rect
       id="rect672"
       fill="currentColor"
       ry="0.042100001"
       height="1.7229"
       width="0.1228"
       y="2.6982"
       x="-0.0614" />
  </g>
  <g
     id="g678"
     transform="translate(25.2705,6.312)">
    <rect
       id="rect676"
       fill="currentColor"
       ry="0.042100001"
       height="2.3369"
       width="0.1228"
       y="-2.4561"
       x="-0.0614" />
  </g>
  <g
     id="g682"
     transform="translate(25.7487,6.312)">
    <rect
       id="rect680"
       fill="currentColor"
       ry="0.042100001"
       height="2.4597001"
       width="0.1228"
       y="-0.73680001"
       x="-0.0614" />
  </g>
  <g
     id="g686"
     transform="translate(76.0856,6.312)">
    <rect
       id="rect684"
       fill="currentColor"
       ry="0.042100001"
       height="2.4597001"
       width="0.1228"
       y="-0.73680001"
       x="-0.0614" />
  </g>
  <g
     id="g690"
     transform="translate(39.8084,5.2068)">
    <path
       id="path688"
       fill="currentColor"
       d="m 208,139 c 61,0 117,-33 117,-99 0,-71 -52,-119 -99,-147 -34,-20 -71,-32 -110,-32 -61,0 -116,33 -116,99 0,71 51,119 98,147 34,20 71,32 110,32 z"
       transform="scale(0.0029,-0.0029)" />
  </g>
  <g
     id="g694"
     transform="translate(40.2867,6.312)">
    <path
       id="path692"
       fill="currentColor"
       d="m 208,139 c 61,0 117,-33 117,-99 0,-71 -52,-119 -99,-147 -34,-20 -71,-32 -110,-32 -61,0 -116,33 -116,99 0,71 51,119 98,147 34,20 71,32 110,32 z"
       transform="scale(0.0029,-0.0029)" />
  </g>
  <g
     id="g698"
     transform="translate(40.7649,8.1542)">
    <path
       id="path696"
       fill="currentColor"
       d="m 208,139 c 61,0 117,-33 117,-99 0,-71 -52,-119 -99,-147 -34,-20 -71,-32 -110,-32 -61,0 -116,33 -116,99 0,71 51,119 98,147 34,20 71,32 110,32 z"
       transform="scale(0.0029,-0.0029)" />
  </g>
  <g
     id="g702"
     transform="translate(39.8084,9.6278)">
    <path
       id="path700"
       fill="currentColor"
       d="m 208,139 c 61,0 117,-33 117,-99 0,-71 -52,-119 -99,-147 -34,-20 -71,-32 -110,-32 -61,0 -116,33 -116,99 0,71 51,119 98,147 34,20 71,32 110,32 z"
       transform="scale(0.0029,-0.0029)" />
  </g>
  <g
     id="g706"
     transform="translate(40.7036,6.312)">
    <rect
       id="rect704"
       fill="currentColor"
       ry="0.042100001"
       height="1.9685"
       width="0.1228"
       y="-3.1930001"
       x="-0.0614" />
  </g>
  <g
     id="g710"
     transform="translate(41.1818,6.312)">
    <rect
       id="rect708"
       fill="currentColor"
       ry="0.042100001"
       height="2.3369"
       width="0.1228"
       y="-2.4561"
       x="-0.0614" />
  </g>
  <g
     id="g714"
     transform="translate(41.66,6.312)">
    <rect
       id="rect712"
       fill="currentColor"
       ry="0.042100001"
       height="2.4597001"
       width="0.1228"
       y="-0.73680001"
       x="-0.0614" />
  </g>
  <g
     id="g718"
     transform="translate(35.1008,6.312)">
    <rect
       id="rect716"
       fill="currentColor"
       ry="0.042100001"
       height="2.3369"
       width="0.1228"
       y="-2.4561"
       x="-0.0614" />
  </g>
  <g
     id="g722"
     transform="translate(33.7275,4.8384)">
    <path
       id="path720"
       fill="currentColor"
       d="m 208,139 c 61,0 117,-33 117,-99 0,-71 -52,-119 -99,-147 -34,-20 -71,-32 -110,-32 -61,0 -116,33 -116,99 0,71 51,119 98,147 34,20 71,32 110,32 z"
       transform="scale(0.0029,-0.0029)" />
  </g>
  <g
     id="g726"
     transform="translate(34.2057,6.312)">
    <path
       id="path724"
       fill="currentColor"
       d="m 208,139 c 61,0 117,-33 117,-99 0,-71 -52,-119 -99,-147 -34,-20 -71,-32 -110,-32 -61,0 -116,33 -116,99 0,71 51,119 98,147 34,20 71,32 110,32 z"
       transform="scale(0.0029,-0.0029)" />
  </g>
  <g
     id="g730"
     transform="translate(34.6839,8.1542)">
    <path
       id="path728"
       fill="currentColor"
       d="m 208,139 c 61,0 117,-33 117,-99 0,-71 -52,-119 -99,-147 -34,-20 -71,-32 -110,-32 -61,0 -116,33 -116,99 0,71 51,119 98,147 34,20 71,32 110,32 z"
       transform="scale(0.0029,-0.0029)" />
  </g>
  <g
     id="g734"
     transform="translate(33.7275,9.2594)">
    <path
       id="path732"
       fill="currentColor"
       d="m 208,139 c 61,0 117,-33 117,-99 0,-71 -52,-119 -99,-147 -34,-20 -71,-32 -110,-32 -61,0 -116,33 -116,99 0,71 51,119 98,147 34,20 71,32 110,32 z"
       transform="scale(0.0029,-0.0029)" />
  </g>
  <g
     id="g738"
     transform="translate(34.6226,6.312)">
    <rect
       id="rect736"
       fill="currentColor"
       ry="0.042100001"
       height="1.8457"
       width="0.1228"
       y="-3.4386001"
       x="-0.0614" />
  </g>
  <g
     id="g742"
     transform="translate(35.579,6.312)">
    <rect
       id="rect740"
       fill="currentColor"
       ry="0.042100001"
       height="2.4597001"
       width="0.1228"
       y="-0.73680001"
       x="-0.0614" />
  </g>
  <g
     id="g746"
     transform="translate(33.7888,6.312)">
    <rect
       id="rect744"
       fill="currentColor"
       ry="0.042100001"
       height="1.7229"
       width="0.1228"
       y="3.0666001"
       x="-0.0614" />
  </g>
  <g
     id="g750"
     transform="translate(8.4824,6.312)">
    <rect
       id="rect748"
       fill="currentColor"
       ry="0.042100001"
       height="1.7229"
       width="0.1228"
       y="1.9613"
       x="-0.0614" />
  </g>
  <g
     id="g754"
     transform="translate(12.892,4.8384)">
    <path
       id="path752"
       fill="currentColor"
       d="m 208,139 c 61,0 117,-33 117,-99 0,-71 -52,-119 -99,-147 -34,-20 -71,-32 -110,-32 -61,0 -116,33 -116,99 0,71 51,119 98,147 34,20 71,32 110,32 z"
       transform="scale(0.0029,-0.0029)" />
  </g>
  <g
     id="g758"
     transform="translate(13.3703,6.6805)">
    <path
       id="path756"
       fill="currentColor"
       d="m 208,139 c 61,0 117,-33 117,-99 0,-71 -52,-119 -99,-147 -34,-20 -71,-32 -110,-32 -61,0 -116,33 -116,99 0,71 51,119 98,147 34,20 71,32 110,32 z"
       transform="scale(0.0029,-0.0029)" />
  </g>
  <g
     id="g762"
     transform="translate(13.8485,8.1542)">
    <path
       id="path760"
       fill="currentColor"
       d="m 208,139 c 61,0 117,-33 117,-99 0,-71 -52,-119 -99,-147 -34,-20 -71,-32 -110,-32 -61,0 -116,33 -116,99 0,71 51,119 98,147 34,20 71,32 110,32 z"
       transform="scale(0.0029,-0.0029)" />
  </g>
  <g
     id="g766"
     transform="translate(12.892,8.1542)">
    <path
       id="path764"
       fill="currentColor"
       d="m 208,139 c 61,0 117,-33 117,-99 0,-71 -52,-119 -99,-147 -34,-20 -71,-32 -110,-32 -61,0 -116,33 -116,99 0,71 51,119 98,147 34,20 71,32 110,32 z"
       transform="scale(0.0029,-0.0029)" />
  </g>
  <g
     id="g770"
     transform="translate(13.7871,6.312)">
    <rect
       id="rect768"
       fill="currentColor"
       ry="0.042100001"
       height="1.8457"
       width="0.1228"
       y="-3.4386001"
       x="-0.0614" />
  </g>
  <g
     id="g774"
     transform="translate(14.2654,6.312)">
    <rect
       id="rect772"
       fill="currentColor"
       ry="0.042100001"
       height="2.4597001"
       width="0.1228"
       y="-2.2105"
       x="-0.0614" />
  </g>
  <g
     id="g778"
     transform="translate(0.8,7.0489)">
    <path
       id="path776"
       fill="currentColor"
       d="m 381,266 h 9 c 157,0 258,-130 258,-264 0,-77 -33,-156 -108,-212 -22,-16 -46,-28 -71,-36 2,-32 3,-65 3,-97 0,-21 -1,-43 -2,-64 -7,-122 -91,-230 -211,-230 -108,0 -197,88 -197,197 0,58 54,104 113,104 54,0 95,-48 95,-104 0,-52 -43,-95 -95,-95 -8,0 -16,2 -24,4 25,-35 65,-59 111,-59 95,0 155,92 161,190 1,20 2,39 2,59 0,28 -1,55 -3,83 -29,-5 -57,-7 -87,-7 -189,0 -333,174 -333,377 0,176 128,307 242,443 -21,62 -41,124 -50,189 -7,52 -8,106 -8,159 0,113 54,219 146,286 8,6 21,7 29,0 72,-82 136,-244 136,-357 0,-141 -83,-253 -174,-362 22,-67 41,-135 58,-204 z m 83,-466 c 64,25 108,93 108,159 0,87 -62,173 -163,187 24,-113 43,-225 55,-346 z m -126,-18 c 27,0 54,2 80,6 C 405,-87 385,30 360,147 281,140 237,88 237,31 c 0,-43 24,-89 78,-120 5,-5 8,-11 8,-17 0,-13 -11,-24 -24,-24 -3,0 -7,0 -10,2 -81,44 -119,116 -119,187 0,90 60,178 164,201 -14,56 -30,112 -47,167 C 183,305 79,182 79,23 79,-109 206,-218 338,-218 Z M 239,782 c 0,-69 22,-127 41,-183 77,97 140,199 140,323 0,49 -3,69 -19,113 C 302,990 239,890 239,782 Z"
       transform="scale(0.0029,-0.0029)" />
  </g>
  <g
     id="g782"
     transform="translate(4.3,4.8384)">
    <path
       id="path780"
       fill="currentColor"
       d="m 0,114 c 0,12 7,22 18,26 l 37,15 v 151 c 0,12 10,22 22,22 12,0 22,-10 22,-22 V 172 l 77,29 v 152 c 0,12 10,22 22,22 12,0 22,-10 22,-22 V 219 l 16,6 c 3,1 8,2 11,2 15,0 28,-12 28,-28 v -50 c 0,-12 -7,-23 -18,-27 L 220,108 V -44 l 16,7 c 3,1 8,2 11,2 15,0 28,-13 28,-29 v -50 c 0,-12 -7,-22 -18,-26 l -37,-15 v -151 c 0,-12 -10,-22 -22,-22 -12,0 -22,10 -22,22 v 134 l -77,-29 v -152 c 0,-12 -10,-22 -22,-22 -12,0 -22,10 -22,22 v 134 l -16,-6 c -3,-1 -8,-2 -11,-2 -15,0 -28,12 -28,28 v 50 c 0,12 7,23 18,27 l 37,14 V 44 L 39,37 C 36,36 31,35 28,35 13,35 0,48 0,64 Z M 176,91 99,61 V -91 l 77,30 z"
       transform="scale(0.0029,-0.0029)" />
  </g>
  <g
     id="g786"
     transform="translate(5.1105,5.9436)">
    <path
       id="path784"
       fill="currentColor"
       d="m 0,114 c 0,12 7,22 18,26 l 37,15 v 151 c 0,12 10,22 22,22 12,0 22,-10 22,-22 V 172 l 77,29 v 152 c 0,12 10,22 22,22 12,0 22,-10 22,-22 V 219 l 16,6 c 3,1 8,2 11,2 15,0 28,-12 28,-28 v -50 c 0,-12 -7,-23 -18,-27 L 220,108 V -44 l 16,7 c 3,1 8,2 11,2 15,0 28,-13 28,-29 v -50 c 0,-12 -7,-22 -18,-26 l -37,-15 v -151 c 0,-12 -10,-22 -22,-22 -12,0 -22,10 -22,22 v 134 l -77,-29 v -152 c 0,-12 -10,-22 -22,-22 -12,0 -22,10 -22,22 v 134 l -16,-6 c -3,-1 -8,-2 -11,-2 -15,0 -28,12 -28,28 v 50 c 0,12 7,23 18,27 l 37,14 V 44 L 39,37 C 36,36 31,35 28,35 13,35 0,48 0,64 Z M 176,91 99,61 V -91 l 77,30 z"
       transform="scale(0.0029,-0.0029)" />
  </g>
  <g
     id="g790"
     transform="translate(8.421,4.8384)">
    <path
       id="path788"
       fill="currentColor"
       d="m 208,139 c 61,0 117,-33 117,-99 0,-71 -52,-119 -99,-147 -34,-20 -71,-32 -110,-32 -61,0 -116,33 -116,99 0,71 51,119 98,147 34,20 71,32 110,32 z"
       transform="scale(0.0029,-0.0029)" />
  </g>
  <g
     id="g794"
     transform="translate(8.421,1.1542)">
    <path
       id="path792"
       fill="currentColor"
       d="m -25,-120 c 0,32 16,43 50,43 28,0 65,-8 99,-20 L 0,51 c -8,9 -11,17 -11,26 0,35 54,68 90,103 22,22 34,51 34,80 0,25 -9,50 -26,71 l -29,34 c -4,4 -5,9 -5,13 0,11 10,20 21,20 5,0 11,-2 15,-7 L 237,214 c 8,-9 10,-17 10,-26 0,-35 -53,-68 -89,-103 -22,-22 -34,-51 -34,-80 0,-25 9,-50 26,-71 l 77,-91 c 4,-4 5,-9 5,-13 0,-11 -10,-20 -21,-20 -5,0 -11,2 -15,7 -15,18 -53,31 -84,31 -42,0 -56,-22 -56,-64 0,-33 11,-71 27,-90 2,-2 2,-5 2,-7 0,-5 -5,-10 -10,-10 -3,0 -6,1 -8,4 -44,52 -92,145 -92,199 z"
       transform="scale(0.0029,-0.0029)" />
  </g>
  <g
     id="g798"
     transform="translate(8.421,8.1542)">
    <path
       id="path796"
       fill="currentColor"
       d="m 208,139 c 61,0 117,-33 117,-99 0,-71 -52,-119 -99,-147 -34,-20 -71,-32 -110,-32 -61,0 -116,33 -116,99 0,71 51,119 98,147 34,20 71,32 110,32 z"
       transform="scale(0.0029,-0.0029)" />
  </g>
  <g
     id="g802"
     transform="translate(9.3161,6.312)">
    <rect
       id="rect800"
       fill="currentColor"
       ry="0.042100001"
       height="1.8457"
       width="0.1228"
       y="-3.4386001"
       x="-0.0614" />
  </g>
  <g
     id="g806"
     transform="translate(19.6588,6.312)">
    <rect
       id="rect804"
       fill="currentColor"
       ry="0.042100001"
       height="2.4597001"
       width="0.1228"
       y="-0.73680001"
       x="-0.0614" />
  </g>
  <g
     id="g810"
     transform="translate(17.8686,6.312)">
    <rect
       id="rect808"
       fill="currentColor"
       ry="0.042100001"
       height="1.7229"
       width="0.1228"
       y="2.3297999"
       x="-0.0614" />
  </g>
  <g
     id="g814"
     transform="translate(19.1805,6.312)">
    <rect
       id="rect812"
       fill="currentColor"
       ry="0.042100001"
       height="2.4597001"
       width="0.1228"
       y="-2.2105"
       x="-0.0614" />
  </g>
  <g
     id="g818"
     transform="translate(23.8971,4.8384)">
    <path
       id="path816"
       fill="currentColor"
       d="m 208,139 c 61,0 117,-33 117,-99 0,-71 -52,-119 -99,-147 -34,-20 -71,-32 -110,-32 -61,0 -116,33 -116,99 0,71 51,119 98,147 34,20 71,32 110,32 z"
       transform="scale(0.0029,-0.0029)" />
  </g>
  <g
     id="g822"
     transform="translate(24.3754,6.312)">
    <path
       id="path820"
       fill="currentColor"
       d="m 208,139 c 61,0 117,-33 117,-99 0,-71 -52,-119 -99,-147 -34,-20 -71,-32 -110,-32 -61,0 -116,33 -116,99 0,71 51,119 98,147 34,20 71,32 110,32 z"
       transform="scale(0.0029,-0.0029)" />
  </g>
  <g
     id="g826"
     transform="translate(24.8536,8.1542)">
    <path
       id="path824"
       fill="currentColor"
       d="m 208,139 c 61,0 117,-33 117,-99 0,-71 -52,-119 -99,-147 -34,-20 -71,-32 -110,-32 -61,0 -116,33 -116,99 0,71 51,119 98,147 34,20 71,32 110,32 z"
       transform="scale(0.0029,-0.0029)" />
  </g>
  <g
     id="g830"
     transform="translate(23.8971,8.891)">
    <path
       id="path828"
       fill="currentColor"
       d="m 208,139 c 61,0 117,-33 117,-99 0,-71 -52,-119 -99,-147 -34,-20 -71,-32 -110,-32 -61,0 -116,33 -116,99 0,71 51,119 98,147 34,20 71,32 110,32 z"
       transform="scale(0.0029,-0.0029)" />
  </g>
  <g
     id="g834"
     transform="translate(24.7922,6.312)">
    <rect
       id="rect832"
       fill="currentColor"
       ry="0.042100001"
       height="1.8457"
       width="0.1228"
       y="-3.4386001"
       x="-0.0614" />
  </g>
  <g
     id="g838"
     transform="translate(14.7436,6.312)">
    <rect
       id="rect836"
       fill="currentColor"
       ry="0.042100001"
       height="2.4597001"
       width="0.1228"
       y="-0.73680001"
       x="-0.0614" />
  </g>
  <g
     id="g842"
     transform="translate(12.9534,6.312)">
    <rect
       id="rect840"
       fill="currentColor"
       ry="0.042100001"
       height="1.7229"
       width="0.1228"
       y="1.9613"
       x="-0.0614" />
  </g>
  <g
     id="g846"
     transform="translate(17.8072,4.8384)">
    <path
       id="path844"
       fill="currentColor"
       d="m 208,139 c 61,0 117,-33 117,-99 0,-71 -52,-119 -99,-147 -34,-20 -71,-32 -110,-32 -61,0 -116,33 -116,99 0,71 51,119 98,147 34,20 71,32 110,32 z"
       transform="scale(0.0029,-0.0029)" />
  </g>
  <g
     id="g850"
     transform="translate(18.2854,6.6805)">
    <path
       id="path848"
       fill="currentColor"
       d="m 208,139 c 61,0 117,-33 117,-99 0,-71 -52,-119 -99,-147 -34,-20 -71,-32 -110,-32 -61,0 -116,33 -116,99 0,71 51,119 98,147 34,20 71,32 110,32 z"
       transform="scale(0.0029,-0.0029)" />
  </g>
  <g
     id="g854"
     transform="translate(18.7637,8.1542)">
    <path
       id="path852"
       fill="currentColor"
       d="m 208,139 c 61,0 117,-33 117,-99 0,-71 -52,-119 -99,-147 -34,-20 -71,-32 -110,-32 -61,0 -116,33 -116,99 0,71 51,119 98,147 34,20 71,32 110,32 z"
       transform="scale(0.0029,-0.0029)" />
  </g>
  <g
     id="g858"
     transform="translate(17.8072,8.5226)">
    <path
       id="path856"
       fill="currentColor"
       d="m 208,139 c 61,0 117,-33 117,-99 0,-71 -52,-119 -99,-147 -34,-20 -71,-32 -110,-32 -61,0 -116,33 -116,99 0,71 51,119 98,147 34,20 71,32 110,32 z"
       transform="scale(0.0029,-0.0029)" />
  </g>
  <g
     id="g862"
     transform="translate(18.7023,6.312)">
    <rect
       id="rect860"
       fill="currentColor"
       ry="0.042100001"
       height="1.8457"
       width="0.1228"
       y="-3.4386001"
       x="-0.0614" />
  </g>
  <g
     id="g866"
     transform="translate(63.7706,6.312)">
    <rect
       id="rect864"
       fill="currentColor"
       ry="0.042100001"
       height="2.4597001"
       width="0.1228"
       y="-1.1052999"
       x="-0.0614" />
  </g>
  <g
     id="g870"
     transform="translate(61.4407,9.2594)">
    <path
       id="path868"
       fill="currentColor"
       d="m 208,139 c 61,0 117,-33 117,-99 0,-71 -52,-119 -99,-147 -34,-20 -71,-32 -110,-32 -61,0 -116,33 -116,99 0,71 51,119 98,147 34,20 71,32 110,32 z"
       transform="scale(0.0029,-0.0029)" />
  </g>
  <g
     id="g874"
     transform="translate(62.3358,6.312)">
    <rect
       id="rect872"
       fill="currentColor"
       ry="0.042100001"
       height="2.0955"
       width="0.1228"
       y="-3.3199999"
       x="-0.0614" />
  </g>
  <g
     id="g878"
     transform="translate(63.2923,6.312)">
    <rect
       id="rect876"
       fill="currentColor"
       ry="0.042100001"
       height="2.0913"
       width="0.1228"
       y="-2.9474001"
       x="-0.0614" />
  </g>
  <g
     id="g882"
     transform="translate(62.8755,7.7857)">
    <path
       id="path880"
       fill="currentColor"
       d="m 208,139 c 61,0 117,-33 117,-99 0,-71 -52,-119 -99,-147 -34,-20 -71,-32 -110,-32 -61,0 -116,33 -116,99 0,71 51,119 98,147 34,20 71,32 110,32 z"
       transform="scale(0.0029,-0.0029)" />
  </g>
  <g
     id="g886"
     transform="translate(61.5021,6.312)">
    <rect
       id="rect884"
       fill="currentColor"
       ry="0.042100001"
       height="1.7229"
       width="0.1228"
       y="3.0666001"
       x="-0.0614" />
  </g>
  <g
     id="g890"
     transform="translate(64.7972,4.8384)">
    <path
       id="path888"
       fill="currentColor"
       d="m 208,139 c 61,0 117,-33 117,-99 0,-71 -52,-119 -99,-147 -34,-20 -71,-32 -110,-32 -61,0 -116,33 -116,99 0,71 51,119 98,147 34,20 71,32 110,32 z"
       transform="scale(0.0029,-0.0029)" />
  </g>
  <g
     id="g894"
     transform="translate(39.8698,6.312)">
    <rect
       id="rect892"
       fill="currentColor"
       ry="0.042100001"
       height="1.7229"
       width="0.1228"
       y="3.4349999"
       x="-0.0614" />
  </g>
  <g
     id="g898"
     transform="translate(56.6494,6.312)">
    <rect
       id="rect896"
       fill="currentColor"
       ry="0.042100001"
       height="1.7229"
       width="0.1228"
       y="3.4349999"
       x="-0.0614" />
  </g>
  <g
     id="g902"
     transform="translate(65.6923,6.312)">
    <rect
       id="rect900"
       fill="currentColor"
       ry="0.042100001"
       height="1.9575"
       width="0.1228"
       y="-3.5504"
       x="-0.0614" />
  </g>
  <g
     id="g906"
     transform="translate(61.4407,5.2068)">
    <path
       id="path904"
       fill="currentColor"
       d="m 208,139 c 61,0 117,-33 117,-99 0,-71 -52,-119 -99,-147 -34,-20 -71,-32 -110,-32 -61,0 -116,33 -116,99 0,71 51,119 98,147 34,20 71,32 110,32 z"
       transform="scale(0.0029,-0.0029)" />
  </g>
  <g
     id="g910"
     transform="translate(62.3972,5.5752)">
    <path
       id="path908"
       fill="currentColor"
       d="m 208,139 c 61,0 117,-33 117,-99 0,-71 -52,-119 -99,-147 -34,-20 -71,-32 -110,-32 -61,0 -116,33 -116,99 0,71 51,119 98,147 34,20 71,32 110,32 z"
       transform="scale(0.0029,-0.0029)" />
  </g>
  <g
     id="g914"
     transform="translate(68.2151,6.312)">
    <rect
       id="rect912"
       fill="currentColor"
       ry="0.042100001"
       height="1.7229"
       width="0.1228"
       y="3.0666001"
       x="-0.0614" />
  </g>
  <g
     id="g918"
     transform="translate(74.234,4.4699)">
    <path
       id="path916"
       fill="currentColor"
       d="m 208,139 c 61,0 117,-33 117,-99 0,-71 -52,-119 -99,-147 -34,-20 -71,-32 -110,-32 -61,0 -116,33 -116,99 0,71 51,119 98,147 34,20 71,32 110,32 z"
       transform="scale(0.0029,-0.0029)" />
  </g>
  <g
     id="g922"
     transform="translate(74.7123,5.5752)">
    <path
       id="path920"
       fill="currentColor"
       d="m 208,139 c 61,0 117,-33 117,-99 0,-71 -52,-119 -99,-147 -34,-20 -71,-32 -110,-32 -61,0 -116,33 -116,99 0,71 51,119 98,147 34,20 71,32 110,32 z"
       transform="scale(0.0029,-0.0029)" />
  </g>
  <g
     id="g926"
     transform="translate(75.1905,8.1542)">
    <path
       id="path924"
       fill="currentColor"
       d="m 208,139 c 61,0 117,-33 117,-99 0,-71 -52,-119 -99,-147 -34,-20 -71,-32 -110,-32 -61,0 -116,33 -116,99 0,71 51,119 98,147 34,20 71,32 110,32 z"
       transform="scale(0.0029,-0.0029)" />
  </g>
  <g
     id="g930"
     transform="translate(74.234,8.1542)">
    <path
       id="path928"
       fill="currentColor"
       d="m 208,139 c 61,0 117,-33 117,-99 0,-71 -52,-119 -99,-147 -34,-20 -71,-32 -110,-32 -61,0 -116,33 -116,99 0,71 51,119 98,147 34,20 71,32 110,32 z"
       transform="scale(0.0029,-0.0029)" />
  </g>
  <g
     id="g934"
     transform="translate(75.1291,6.312)">
    <rect
       id="rect932"
       fill="currentColor"
       ry="0.042100001"
       height="1.7229"
       width="0.1228"
       y="-3.6842"
       x="-0.0614" />
  </g>
  <g
     id="g938"
     transform="translate(75.6074,6.312)">
    <rect
       id="rect936"
       fill="currentColor"
       ry="0.042100001"
       height="2.0913"
       width="0.1228"
       y="-2.9474001"
       x="-0.0614" />
  </g>
  <g
     id="g942"
     transform="translate(68.1537,4.4699)">
    <path
       id="path940"
       fill="currentColor"
       d="m 208,139 c 61,0 117,-33 117,-99 0,-71 -52,-119 -99,-147 -34,-20 -71,-32 -110,-32 -61,0 -116,33 -116,99 0,71 51,119 98,147 34,20 71,32 110,32 z"
       transform="scale(0.0029,-0.0029)" />
  </g>
  <g
     id="g946"
     transform="translate(68.6319,5.9436)">
    <path
       id="path944"
       fill="currentColor"
       d="m 208,139 c 61,0 117,-33 117,-99 0,-71 -52,-119 -99,-147 -34,-20 -71,-32 -110,-32 -61,0 -116,33 -116,99 0,71 51,119 98,147 34,20 71,32 110,32 z"
       transform="scale(0.0029,-0.0029)" />
  </g>
  <g
     id="g950"
     transform="translate(69.1102,7.7857)">
    <path
       id="path948"
       fill="currentColor"
       d="m 208,139 c 61,0 117,-33 117,-99 0,-71 -52,-119 -99,-147 -34,-20 -71,-32 -110,-32 -61,0 -116,33 -116,99 0,71 51,119 98,147 34,20 71,32 110,32 z"
       transform="scale(0.0029,-0.0029)" />
  </g>
  <g
     id="g954"
     transform="translate(68.1537,9.2594)">
    <path
       id="path952"
       fill="currentColor"
       d="m 208,139 c 61,0 117,-33 117,-99 0,-71 -52,-119 -99,-147 -34,-20 -71,-32 -110,-32 -61,0 -116,33 -116,99 0,71 51,119 98,147 34,20 71,32 110,32 z"
       transform="scale(0.0029,-0.0029)" />
  </g>
  <g
     id="g958"
     transform="translate(69.0488,6.312)">
    <rect
       id="rect956"
       fill="currentColor"
       ry="0.042100001"
       height="1.7229"
       width="0.1228"
       y="-3.6842"
       x="-0.0614" />
  </g>
  <g
     id="g962"
     transform="translate(55.4275,9.6278)">
    <path
       id="path960"
       fill="currentColor"
       d="m 0,114 c 0,12 7,22 18,26 l 37,15 v 151 c 0,12 10,22 22,22 12,0 22,-10 22,-22 V 172 l 77,29 v 152 c 0,12 10,22 22,22 12,0 22,-10 22,-22 V 219 l 16,6 c 3,1 8,2 11,2 15,0 28,-12 28,-28 v -50 c 0,-12 -7,-23 -18,-27 L 220,108 V -44 l 16,7 c 3,1 8,2 11,2 15,0 28,-13 28,-29 v -50 c 0,-12 -7,-22 -18,-26 l -37,-15 v -151 c 0,-12 -10,-22 -22,-22 -12,0 -22,10 -22,22 v 134 l -77,-29 v -152 c 0,-12 -10,-22 -22,-22 -12,0 -22,10 -22,22 v 134 l -16,-6 c -3,-1 -8,-2 -11,-2 -15,0 -28,12 -28,28 v 50 c 0,12 7,23 18,27 l 37,14 V 44 L 39,37 C 36,36 31,35 28,35 13,35 0,48 0,64 Z M 176,91 99,61 V -91 l 77,30 z"
       transform="scale(0.0029,-0.0029)" />
  </g>
  <g
     id="g966"
     transform="translate(69.527,6.312)">
    <rect
       id="rect964"
       fill="currentColor"
       ry="0.042100001"
       height="2.2140999"
       width="0.1228"
       y="-2.7018001"
       x="-0.0614" />
  </g>
  <g
     id="g970"
     transform="translate(70.0053,6.312)">
    <rect
       id="rect968"
       fill="currentColor"
       ry="0.042100001"
       height="2.4597001"
       width="0.1228"
       y="-1.1052999"
       x="-0.0614" />
  </g>
  <g
     id="g974"
     transform="translate(49.8208,9.6278)">
    <path
       id="path972"
       fill="currentColor"
       d="m 208,139 c 61,0 117,-33 117,-99 0,-71 -52,-119 -99,-147 -34,-20 -71,-32 -110,-32 -61,0 -116,33 -116,99 0,71 51,119 98,147 34,20 71,32 110,32 z"
       transform="scale(0.0029,-0.0029)" />
  </g>
  <g
     id="g978"
     transform="translate(44.7861,4.1015)">
    <path
       id="path976"
       fill="currentColor"
       d="m 208,139 c 61,0 117,-33 117,-99 0,-71 -52,-119 -99,-147 -34,-20 -71,-32 -110,-32 -61,0 -116,33 -116,99 0,71 51,119 98,147 34,20 71,32 110,32 z"
       transform="scale(0.0029,-0.0029)" />
  </g>
  <g
     id="g982"
     transform="translate(58.4396,6.312)">
    <rect
       id="rect980"
       fill="currentColor"
       ry="0.042100001"
       height="2.4597001"
       width="0.1228"
       y="-1.1052999"
       x="-0.0614" />
  </g>
  <g
     id="g986"
     transform="translate(49.8208,5.9436)">
    <path
       id="path984"
       fill="currentColor"
       d="m 208,139 c 61,0 117,-33 117,-99 0,-71 -52,-119 -99,-147 -34,-20 -71,-32 -110,-32 -61,0 -116,33 -116,99 0,71 51,119 98,147 34,20 71,32 110,32 z"
       transform="scale(0.0029,-0.0029)" />
  </g>
  <g
     id="g990"
     transform="translate(50.2991,7.7857)">
    <path
       id="path988"
       fill="currentColor"
       d="m 208,139 c 61,0 117,-33 117,-99 0,-71 -52,-119 -99,-147 -34,-20 -71,-32 -110,-32 -61,0 -116,33 -116,99 0,71 51,119 98,147 34,20 71,32 110,32 z"
       transform="scale(0.0029,-0.0029)" />
  </g>
  <g
     id="g994"
     transform="translate(44.8475,6.312)">
    <rect
       id="rect992"
       fill="currentColor"
       ry="0.042100001"
       height="1.7229"
       width="0.1228"
       y="3.4349999"
       x="-0.0614" />
  </g>
  <g
     id="g998"
     transform="translate(50.716,6.312)">
    <rect
       id="rect996"
       fill="currentColor"
       ry="0.042100001"
       height="2.2140999"
       width="0.1228"
       y="-2.7018001"
       x="-0.0614" />
  </g>
  <g
     id="g1002"
     transform="translate(51.1942,6.312)">
    <rect
       id="rect1000"
       fill="currentColor"
       ry="0.042100001"
       height="2.4597001"
       width="0.1228"
       y="-1.1052999"
       x="-0.0614" />
  </g>
  <g
     id="g1006"
     transform="translate(45.2644,5.9436)">
    <path
       id="path1004"
       fill="currentColor"
       d="m 208,139 c 61,0 117,-33 117,-99 0,-71 -52,-119 -99,-147 -34,-20 -71,-32 -110,-32 -61,0 -116,33 -116,99 0,71 51,119 98,147 34,20 71,32 110,32 z"
       transform="scale(0.0029,-0.0029)" />
  </g>
  <g
     id="g1010"
     transform="translate(45.7426,7.7857)">
    <path
       id="path1008"
       fill="currentColor"
       d="m 208,139 c 61,0 117,-33 117,-99 0,-71 -52,-119 -99,-147 -34,-20 -71,-32 -110,-32 -61,0 -116,33 -116,99 0,71 51,119 98,147 34,20 71,32 110,32 z"
       transform="scale(0.0029,-0.0029)" />
  </g>
  <g
     id="g1014"
     transform="translate(46.6377,6.312)">
    <rect
       id="rect1012"
       fill="currentColor"
       ry="0.042100001"
       height="2.4597001"
       width="0.1228"
       y="-1.1052999"
       x="-0.0614" />
  </g>
  <g
     id="g1018"
     transform="translate(46.1595,6.312)">
    <rect
       id="rect1016"
       fill="currentColor"
       ry="0.042100001"
       height="2.2140999"
       width="0.1228"
       y="-2.7018001"
       x="-0.0614" />
  </g>
  <g
     id="g1022"
     transform="translate(45.6812,6.312)">
    <rect
       id="rect1020"
       fill="currentColor"
       ry="0.042100001"
       height="1.7229"
       width="0.1228"
       y="-4.0525999"
       x="-0.0614" />
  </g>
  <g
     id="g1026"
     transform="translate(44.7861,9.6278)">
    <path
       id="path1024"
       fill="currentColor"
       d="m 208,139 c 61,0 117,-33 117,-99 0,-71 -52,-119 -99,-147 -34,-20 -71,-32 -110,-32 -61,0 -116,33 -116,99 0,71 51,119 98,147 34,20 71,32 110,32 z"
       transform="scale(0.0029,-0.0029)" />
  </g>
  <g
     id="g1030"
     transform="translate(57.0663,5.5752)">
    <path
       id="path1028"
       fill="currentColor"
       d="m 208,139 c 61,0 117,-33 117,-99 0,-71 -52,-119 -99,-147 -34,-20 -71,-32 -110,-32 -61,0 -116,33 -116,99 0,71 51,119 98,147 34,20 71,32 110,32 z"
       transform="scale(0.0029,-0.0029)" />
  </g>
  <g
     id="g1034"
     transform="translate(57.5445,7.7857)">
    <path
       id="path1032"
       fill="currentColor"
       d="m 208,139 c 61,0 117,-33 117,-99 0,-71 -52,-119 -99,-147 -34,-20 -71,-32 -110,-32 -61,0 -116,33 -116,99 0,71 51,119 98,147 34,20 71,32 110,32 z"
       transform="scale(0.0029,-0.0029)" />
  </g>
  <g
     id="g1038"
     transform="translate(56.588,9.6278)">
    <path
       id="path1036"
       fill="currentColor"
       d="m 208,139 c 61,0 117,-33 117,-99 0,-71 -52,-119 -99,-147 -34,-20 -71,-32 -110,-32 -61,0 -116,33 -116,99 0,71 51,119 98,147 34,20 71,32 110,32 z"
       transform="scale(0.0029,-0.0029)" />
  </g>
  <g
     id="g1042"
     transform="translate(57.4832,6.312)">
    <rect
       id="rect1040"
       fill="currentColor"
       ry="0.042100001"
       height="1.7229"
       width="0.1228"
       y="-4.4211001"
       x="-0.0614" />
  </g>
  <g
     id="g1046"
     transform="translate(57.9614,6.312)">
    <rect
       id="rect1044"
       fill="currentColor"
       ry="0.042100001"
       height="2.0913"
       width="0.1228"
       y="-2.9474001"
       x="-0.0614" />
  </g>
  <g
     id="g1050"
     transform="translate(49.8822,6.312)">
    <rect
       id="rect1048"
       fill="currentColor"
       ry="0.042100001"
       height="1.7229"
       width="0.1228"
       y="3.4349999"
       x="-0.0614" />
  </g>
  <g
     id="g1054"
     transform="translate(56.588,3.7331)">
    <path
       id="path1052"
       fill="currentColor"
       d="m 208,139 c 61,0 117,-33 117,-99 0,-71 -52,-119 -99,-147 -34,-20 -71,-32 -110,-32 -61,0 -116,33 -116,99 0,71 51,119 98,147 34,20 71,32 110,32 z"
       transform="scale(0.0029,-0.0029)" />
  </g>
</svg>
