<?xml version="1.0" encoding="UTF-8" standalone="no"?>
<svg
   xmlns:dc="http://purl.org/dc/elements/1.1/"
   xmlns:cc="http://creativecommons.org/ns#"
   xmlns:rdf="http://www.w3.org/1999/02/22-rdf-syntax-ns#"
   xmlns:svg="http://www.w3.org/2000/svg"
   xmlns="http://www.w3.org/2000/svg"
   xmlns:sodipodi="http://sodipodi.sourceforge.net/DTD/sodipodi-0.dtd"
   xmlns:inkscape="http://www.inkscape.org/namespaces/inkscape"
   sodipodi:docname="bwv-1004_5_for_PNGs-33.svg"
   id="svg796"
   viewBox="0 0 145.2115 8.9174077"
   height="14.887022mm"
   width="242.42102mm"
   version="1.2">
  <metadata
     id="metadata802">
    <rdf:RDF>
      <cc:Work
         rdf:about="">
        <dc:format>image/svg+xml</dc:format>
        <dc:type
           rdf:resource="http://purl.org/dc/dcmitype/StillImage" />
      </cc:Work>
    </rdf:RDF>
  </metadata>
  <defs
     id="defs800" />
  <sodipodi:namedview
     id="namedview798"
     inkscape:window-height="480"
     inkscape:window-width="640"
     inkscape:pageshadow="2"
     inkscape:pageopacity="0"
     guidetolerance="10"
     gridtolerance="10"
     objecttolerance="10"
     borderopacity="1"
     bordercolor="#666666"
     pagecolor="#ffffff" />
  <style
     id="style2"
     type="text/css"><![CDATA[
tspan { white-space: pre; }
]]></style>
  <g
     id="g6"
     transform="translate(0,5.2332069)">
    <line
       id="line4"
       y2="0"
       x2="145.16431"
       y1="0"
       x1="0.047200002"
       stroke="currentColor"
       stroke-width="0.0944"
       stroke-linecap="round"
       stroke-linejoin="round" />
  </g>
  <g
     id="g10"
     transform="translate(0,4.4964069)">
    <line
       id="line8"
       y2="0"
       x2="145.16431"
       y1="0"
       x1="0.047200002"
       stroke="currentColor"
       stroke-width="0.0944"
       stroke-linecap="round"
       stroke-linejoin="round" />
  </g>
  <g
     id="g14"
     transform="translate(0,3.7595069)">
    <line
       id="line12"
       y2="0"
       x2="145.16431"
       y1="0"
       x1="0.047200002"
       stroke="currentColor"
       stroke-width="0.0944"
       stroke-linecap="round"
       stroke-linejoin="round" />
  </g>
  <g
     id="g18"
     transform="translate(0,3.0227069)">
    <line
       id="line16"
       y2="0"
       x2="145.16431"
       y1="0"
       x1="0.047200002"
       stroke="currentColor"
       stroke-width="0.0944"
       stroke-linecap="round"
       stroke-linejoin="round" />
  </g>
  <g
     id="g22"
     transform="translate(0,2.2859069)">
    <line
       id="line20"
       y2="0"
       x2="145.16431"
       y1="0"
       x1="0.047200002"
       stroke="currentColor"
       stroke-width="0.0944"
       stroke-linecap="round"
       stroke-linejoin="round" />
  </g>
  <g
     id="g26"
     transform="translate(70.6006,3.7595069)">
    <rect
       id="rect24"
       fill="currentColor"
       ry="0.0000"
       height="2.9474001"
       width="0.1794"
       y="-1.4737"
       x="0" />
  </g>
  <g
     id="g30"
     transform="translate(89.6252,3.7595069)">
    <rect
       id="rect28"
       fill="currentColor"
       ry="0.0000"
       height="2.9474001"
       width="0.1794"
       y="-1.4737"
       x="0" />
  </g>
  <g
     id="g34"
     transform="translate(51.3844,3.7595069)">
    <rect
       id="rect32"
       fill="currentColor"
       ry="0.0000"
       height="2.9474001"
       width="0.1794"
       y="-1.4737"
       x="0" />
  </g>
  <g
     id="g38"
     transform="translate(104.9636,3.7595069)">
    <rect
       id="rect36"
       fill="currentColor"
       ry="0.0000"
       height="2.9474001"
       width="0.1794"
       y="-1.4737"
       x="0" />
  </g>
  <g
     id="g42"
     transform="translate(37.2219,3.7595069)">
    <rect
       id="rect40"
       fill="currentColor"
       ry="0.0000"
       height="2.9474001"
       width="0.1794"
       y="-1.4737"
       x="0" />
  </g>
  <g
     id="g46"
     transform="translate(22.6102,3.7595069)">
    <rect
       id="rect44"
       fill="currentColor"
       ry="0.0000"
       height="2.9474001"
       width="0.1794"
       y="-1.4737"
       x="0" />
  </g>
  <g
     id="g50"
     transform="translate(129.5812,3.7595069)">
    <rect
       id="rect48"
       fill="currentColor"
       ry="0.0000"
       height="2.9474001"
       width="0.1794"
       y="-1.4737"
       x="0" />
  </g>
  <g
     id="g54"
     transform="translate(145.0321,3.7595069)">
    <rect
       id="rect52"
       fill="currentColor"
       ry="0.0000"
       height="2.9474001"
       width="0.1794"
       y="-1.4737"
       x="0" />
  </g>
  <g
     id="g58"
     transform="translate(0,5.9701069)">
    <rect
       id="rect56"
       fill="currentColor"
       ry="0.084100001"
       height="0.1681"
       width="1.5329"
       y="-0.084100001"
       x="136.1617" />
  </g>
  <g
     id="g62"
     transform="translate(0,6.7069069)">
    <rect
       id="rect60"
       fill="currentColor"
       ry="0.084100001"
       height="0.1681"
       width="1.5329"
       y="-0.084100001"
       x="136.1617" />
  </g>
  <g
     id="g66"
     transform="translate(0,5.9701069)">
    <rect
       id="rect64"
       fill="currentColor"
       ry="0.084100001"
       height="0.1681"
       width="1.4347"
       y="-0.084100001"
       x="130.4216" />
  </g>
  <g
     id="g70"
     transform="translate(0,6.7069069)">
    <rect
       id="rect68"
       fill="currentColor"
       ry="0.084100001"
       height="0.1681"
       width="1.4347"
       y="-0.084100001"
       x="130.4216" />
  </g>
  <g
     id="g74"
     transform="translate(0,5.9701069)">
    <rect
       id="rect72"
       fill="currentColor"
       ry="0.084100001"
       height="0.1681"
       width="1.3706"
       y="-0.084100001"
       x="106.7286" />
  </g>
  <g
     id="g78"
     transform="translate(0,5.9701069)">
    <rect
       id="rect76"
       fill="currentColor"
       ry="0.084100001"
       height="0.1681"
       width="1.4347"
       y="-0.084100001"
       x="99.897301" />
  </g>
  <g
     id="g82"
     transform="translate(0,6.7069069)">
    <rect
       id="rect80"
       fill="currentColor"
       ry="0.084100001"
       height="0.1681"
       width="1.4347"
       y="-0.084100001"
       x="99.897301" />
  </g>
  <g
     id="g86"
     transform="translate(0,5.9701069)">
    <rect
       id="rect84"
       fill="currentColor"
       ry="0.084100001"
       height="0.1681"
       width="1.4347"
       y="-0.084100001"
       x="95.181396" />
  </g>
  <g
     id="g90"
     transform="translate(0,6.7069069)">
    <rect
       id="rect88"
       fill="currentColor"
       ry="0.084100001"
       height="0.1681"
       width="1.4347"
       y="-0.084100001"
       x="95.181396" />
  </g>
  <g
     id="g94"
     transform="translate(0,5.9701069)">
    <rect
       id="rect92"
       fill="currentColor"
       ry="0.084100001"
       height="0.1681"
       width="1.4347"
       y="-0.084100001"
       x="90.4655" />
  </g>
  <g
     id="g98"
     transform="translate(0,5.9701069)">
    <rect
       id="rect96"
       fill="currentColor"
       ry="0.084100001"
       height="0.1681"
       width="1.4347"
       y="-0.084100001"
       x="84.535004" />
  </g>
  <g
     id="g102"
     transform="translate(0,5.9701069)">
    <rect
       id="rect100"
       fill="currentColor"
       ry="0.084100001"
       height="0.1681"
       width="1.3706"
       y="-0.084100001"
       x="61.561298" />
  </g>
  <g
     id="g106"
     transform="translate(0,5.9701069)">
    <rect
       id="rect104"
       fill="currentColor"
       ry="0.084100001"
       height="0.1681"
       width="1.4347"
       y="-0.084100001"
       x="56.940701" />
  </g>
  <g
     id="g110"
     transform="translate(0,6.7069069)">
    <rect
       id="rect108"
       fill="currentColor"
       ry="0.084100001"
       height="0.1681"
       width="1.4347"
       y="-0.084100001"
       x="56.940701" />
  </g>
  <g
     id="g114"
     transform="translate(0,5.9701069)">
    <rect
       id="rect112"
       fill="currentColor"
       ry="0.084100001"
       height="0.1681"
       width="1.4347"
       y="-0.084100001"
       x="52.2248" />
  </g>
  <g
     id="g118"
     transform="translate(0,6.7069069)">
    <rect
       id="rect116"
       fill="currentColor"
       ry="0.084100001"
       height="0.1681"
       width="1.4347"
       y="-0.084100001"
       x="52.2248" />
  </g>
  <g
     id="g122"
     transform="translate(0,5.9701069)">
    <rect
       id="rect120"
       fill="currentColor"
       ry="0.084100001"
       height="0.1681"
       width="1.5329"
       y="-0.084100001"
       x="42.514" />
  </g>
  <g
     id="g126"
     transform="translate(0,5.9701069)">
    <rect
       id="rect124"
       fill="currentColor"
       ry="0.084100001"
       height="0.1681"
       width="1.4524"
       y="-0.084100001"
       x="28.431999" />
  </g>
  <g
     id="g130"
     transform="translate(92.0779,3.7595069)">
    <rect
       id="rect128"
       fill="currentColor"
       ry="0.042100001"
       height="2.4597001"
       width="0.1228"
       y="-1.8421"
       x="-0.0614" />
  </g>
  <g
     id="g134"
     transform="translate(90.766,3.7595069)">
    <rect
       id="rect132"
       fill="currentColor"
       ry="0.042100001"
       height="1.7229"
       width="0.1228"
       y="2.6982"
       x="-0.0614" />
  </g>
  <g
     id="g138"
     transform="translate(91.5997,3.7595069)">
    <rect
       id="rect136"
       fill="currentColor"
       ry="0.042100001"
       height="2.0913"
       width="0.1228"
       y="-2.9474001"
       x="-0.0614" />
  </g>
  <g
     id="g142"
     transform="translate(106.9036,3.7595069)">
    <path
       id="path140"
       d="M 0.8538,-1.2933 C 2.5395,-2.8658 14.6662,-4.4498 16.6992,-3.363 v 0 C 14.6808,-4.3374 2.5542,-2.7535 0.8538,-1.2933 Z"
       fill="currentColor"
       stroke="currentColor"
       stroke-linecap="round"
       stroke-linejoin="round"
       stroke-width="0.0755" />
  </g>
  <g
     id="g146"
     transform="translate(90.7046,6.3385069)">
    <path
       id="path144"
       fill="currentColor"
       d="m 208,139 c 61,0 117,-33 117,-99 0,-71 -52,-119 -99,-147 -34,-20 -71,-32 -110,-32 -61,0 -116,33 -116,99 0,71 51,119 98,147 34,20 71,32 110,32 z"
       transform="scale(0.0029,-0.0029)" />
  </g>
  <g
     id="g150"
     transform="translate(91.1828,4.4964069)">
    <path
       id="path148"
       fill="currentColor"
       d="m 208,139 c 61,0 117,-33 117,-99 0,-71 -52,-119 -99,-147 -34,-20 -71,-32 -110,-32 -61,0 -116,33 -116,99 0,71 51,119 98,147 34,20 71,32 110,32 z"
       transform="scale(0.0029,-0.0029)" />
  </g>
  <g
     id="g154"
     transform="translate(90.7046,3.0227069)">
    <path
       id="path152"
       fill="currentColor"
       d="m 208,139 c 61,0 117,-33 117,-99 0,-71 -52,-119 -99,-147 -34,-20 -71,-32 -110,-32 -61,0 -116,33 -116,99 0,71 51,119 98,147 34,20 71,32 110,32 z"
       transform="scale(0.0029,-0.0029)" />
  </g>
  <g
     id="g158"
     transform="translate(83.6136,4.8648069)">
    <path
       id="path156"
       fill="currentColor"
       d="m 0,114 c 0,12 7,22 18,26 l 37,15 v 151 c 0,12 10,22 22,22 12,0 22,-10 22,-22 V 172 l 77,29 v 152 c 0,12 10,22 22,22 12,0 22,-10 22,-22 V 219 l 16,6 c 3,1 8,2 11,2 15,0 28,-12 28,-28 v -50 c 0,-12 -7,-23 -18,-27 L 220,108 V -44 l 16,7 c 3,1 8,2 11,2 15,0 28,-13 28,-29 v -50 c 0,-12 -7,-22 -18,-26 l -37,-15 v -151 c 0,-12 -10,-22 -22,-22 -12,0 -22,10 -22,22 v 134 l -77,-29 v -152 c 0,-12 -10,-22 -22,-22 -12,0 -22,10 -22,22 v 134 l -16,-6 c -3,-1 -8,-2 -11,-2 -15,0 -28,12 -28,28 v 50 c 0,12 7,23 18,27 l 37,14 V 44 L 39,37 C 36,36 31,35 28,35 13,35 0,48 0,64 Z M 176,91 99,61 V -91 l 77,30 z"
       transform="scale(0.0029,-0.0029)" />
  </g>
  <g
     id="g162"
     transform="translate(84.8355,3.7595069)">
    <rect
       id="rect160"
       fill="currentColor"
       ry="0.042100001"
       height="1.7229"
       width="0.1228"
       y="2.3297999"
       x="-0.0614" />
  </g>
  <g
     id="g166"
     transform="translate(101.5097,3.7595069)">
    <rect
       id="rect164"
       fill="currentColor"
       ry="0.042100001"
       height="2.4597001"
       width="0.1228"
       y="-1.8421"
       x="-0.0614" />
  </g>
  <g
     id="g170"
     transform="translate(101.0315,3.7595069)">
    <rect
       id="rect168"
       fill="currentColor"
       ry="0.042100001"
       height="2.3369"
       width="0.1228"
       y="-2.4561"
       x="-0.0614" />
  </g>
  <g
     id="g174"
     transform="translate(100.1364,7.0753069)">
    <path
       id="path172"
       fill="currentColor"
       d="m 208,139 c 61,0 117,-33 117,-99 0,-71 -52,-119 -99,-147 -34,-20 -71,-32 -110,-32 -61,0 -116,33 -116,99 0,71 51,119 98,147 34,20 71,32 110,32 z"
       transform="scale(0.0029,-0.0029)" />
  </g>
  <g
     id="g178"
     transform="translate(100.6146,4.4964069)">
    <path
       id="path176"
       fill="currentColor"
       d="m 208,139 c 61,0 117,-33 117,-99 0,-71 -52,-119 -99,-147 -34,-20 -71,-32 -110,-32 -61,0 -116,33 -116,99 0,71 51,119 98,147 34,20 71,32 110,32 z"
       transform="scale(0.0029,-0.0029)" />
  </g>
  <g
     id="g182"
     transform="translate(100.1364,3.7595069)">
    <path
       id="path180"
       fill="currentColor"
       d="m 208,139 c 61,0 117,-33 117,-99 0,-71 -52,-119 -99,-147 -34,-20 -71,-32 -110,-32 -61,0 -116,33 -116,99 0,71 51,119 98,147 34,20 71,32 110,32 z"
       transform="scale(0.0029,-0.0029)" />
  </g>
  <g
     id="g186"
     transform="translate(94.4221,4.8648069)">
    <path
       id="path184"
       fill="currentColor"
       d="m 0,114 c 0,12 7,22 18,26 l 37,15 v 151 c 0,12 10,22 22,22 12,0 22,-10 22,-22 V 172 l 77,29 v 152 c 0,12 10,22 22,22 12,0 22,-10 22,-22 V 219 l 16,6 c 3,1 8,2 11,2 15,0 28,-12 28,-28 v -50 c 0,-12 -7,-23 -18,-27 L 220,108 V -44 l 16,7 c 3,1 8,2 11,2 15,0 28,-13 28,-29 v -50 c 0,-12 -7,-22 -18,-26 l -37,-15 v -151 c 0,-12 -10,-22 -22,-22 -12,0 -22,10 -22,22 v 134 l -77,-29 v -152 c 0,-12 -10,-22 -22,-22 -12,0 -22,10 -22,22 v 134 l -16,-6 c -3,-1 -8,-2 -11,-2 -15,0 -28,12 -28,28 v 50 c 0,12 7,23 18,27 l 37,14 V 44 L 39,37 C 36,36 31,35 28,35 13,35 0,48 0,64 Z M 176,91 99,61 V -91 l 77,30 z"
       transform="scale(0.0029,-0.0029)" />
  </g>
  <g
     id="g190"
     transform="translate(95.4819,3.7595069)">
    <rect
       id="rect188"
       fill="currentColor"
       ry="0.042100001"
       height="1.7229"
       width="0.1228"
       y="3.0666001"
       x="-0.0614" />
  </g>
  <g
     id="g194"
     transform="translate(96.7938,3.7595069)">
    <rect
       id="rect192"
       fill="currentColor"
       ry="0.042100001"
       height="2.4597001"
       width="0.1228"
       y="-1.4737"
       x="-0.0614" />
  </g>
  <g
     id="g198"
     transform="translate(96.3156,3.7595069)">
    <rect
       id="rect196"
       fill="currentColor"
       ry="0.042100001"
       height="2.2140999"
       width="0.1228"
       y="-2.7018001"
       x="-0.0614" />
  </g>
  <g
     id="g202"
     transform="translate(95.4205,6.7069069)">
    <path
       id="path200"
       fill="currentColor"
       d="m 208,139 c 61,0 117,-33 117,-99 0,-71 -52,-119 -99,-147 -34,-20 -71,-32 -110,-32 -61,0 -116,33 -116,99 0,71 51,119 98,147 34,20 71,32 110,32 z"
       transform="scale(0.0029,-0.0029)" />
  </g>
  <g
     id="g206"
     transform="translate(95.8987,4.8648069)">
    <path
       id="path204"
       fill="currentColor"
       d="m 208,139 c 61,0 117,-33 117,-99 0,-71 -52,-119 -99,-147 -34,-20 -71,-32 -110,-32 -61,0 -116,33 -116,99 0,71 51,119 98,147 34,20 71,32 110,32 z"
       transform="scale(0.0029,-0.0029)" />
  </g>
  <g
     id="g210"
     transform="translate(95.4205,3.3911069)">
    <path
       id="path208"
       fill="currentColor"
       d="m 208,139 c 61,0 117,-33 117,-99 0,-71 -52,-119 -99,-147 -34,-20 -71,-32 -110,-32 -61,0 -116,33 -116,99 0,71 51,119 98,147 34,20 71,32 110,32 z"
       transform="scale(0.0029,-0.0029)" />
  </g>
  <g
     id="g214"
     transform="translate(76.6403,3.7595069)">
    <rect
       id="rect212"
       fill="currentColor"
       ry="0.042100001"
       height="1.919"
       width="0.1228"
       y="-0.93300003"
       x="-0.0614" />
  </g>
  <g
     id="g218"
     transform="translate(75.7452,4.8648069)">
    <path
       id="path216"
       fill="currentColor"
       d="m 208,139 c 61,0 117,-33 117,-99 0,-71 -52,-119 -99,-147 -34,-20 -71,-32 -110,-32 -61,0 -116,33 -116,99 0,71 51,119 98,147 34,20 71,32 110,32 z"
       transform="scale(0.0029,-0.0029)" />
  </g>
  <g
     id="g222"
     transform="translate(74.4839,3.7595069)">
    <rect
       id="rect220"
       fill="currentColor"
       ry="0.042100001"
       height="2.5023999"
       width="0.1228"
       y="-1.1479"
       x="-0.0614" />
  </g>
  <g
     id="g226"
     transform="translate(73.5887,5.2332069)">
    <path
       id="path224"
       fill="currentColor"
       d="m 208,139 c 61,0 117,-33 117,-99 0,-71 -52,-119 -99,-147 -34,-20 -71,-32 -110,-32 -61,0 -116,33 -116,99 0,71 51,119 98,147 34,20 71,32 110,32 z"
       transform="scale(0.0029,-0.0029)" />
  </g>
  <g
     id="g230"
     transform="translate(71.7436,3.7595069)">
    <rect
       id="rect228"
       fill="currentColor"
       ry="0.042100001"
       height="1.7229"
       width="0.1228"
       y="1.9613"
       x="-0.0614" />
  </g>
  <g
     id="g234"
     transform="translate(72.5774,3.7595069)">
    <rect
       id="rect232"
       fill="currentColor"
       ry="0.042100001"
       height="1.9556"
       width="0.1228"
       y="-1.3379"
       x="-0.0614" />
  </g>
  <g
     id="g238"
     transform="translate(117.1133,0.94180687)">
    <polygon
       id="polygon236"
       points="0.0421,0.1347 0.0421,-0.1347 6.5501,-0.1347 6.5501,0.1347 "
       stroke="currentColor"
       fill="currentColor"
       stroke-width="0.0842"
       stroke-linecap="round"
       stroke-linejoin="round" />
  </g>
  <g
     id="g242"
     transform="translate(117.1133,1.5490069)">
    <polygon
       id="polygon240"
       points="0.0421,0.1347 0.0421,-0.1347 6.5501,-0.1347 6.5501,0.1347 "
       stroke="currentColor"
       fill="currentColor"
       stroke-width="0.0842"
       stroke-linecap="round"
       stroke-linejoin="round" />
  </g>
  <g
     id="g246"
     transform="translate(86.1475,3.7595069)">
    <rect
       id="rect244"
       fill="currentColor"
       ry="0.042100001"
       height="2.4597001"
       width="0.1228"
       y="-1.4737"
       x="-0.0614" />
  </g>
  <g
     id="g250"
     transform="translate(85.6692,3.7595069)">
    <rect
       id="rect248"
       fill="currentColor"
       ry="0.042100001"
       height="2.4597001"
       width="0.1228"
       y="-2.2105"
       x="-0.0614" />
  </g>
  <g
     id="g254"
     transform="translate(84.7741,5.9701069)">
    <path
       id="path252"
       fill="currentColor"
       d="m 208,139 c 61,0 117,-33 117,-99 0,-71 -52,-119 -99,-147 -34,-20 -71,-32 -110,-32 -61,0 -116,33 -116,99 0,71 51,119 98,147 34,20 71,32 110,32 z"
       transform="scale(0.0029,-0.0029)" />
  </g>
  <g
     id="g258"
     transform="translate(85.2524,4.8648069)">
    <path
       id="path256"
       fill="currentColor"
       d="m 208,139 c 61,0 117,-33 117,-99 0,-71 -52,-119 -99,-147 -34,-20 -71,-32 -110,-32 -61,0 -116,33 -116,99 0,71 51,119 98,147 34,20 71,32 110,32 z"
       transform="scale(0.0029,-0.0029)" />
  </g>
  <g
     id="g262"
     transform="translate(84.7741,4.1280069)">
    <path
       id="path260"
       fill="currentColor"
       d="m 208,139 c 61,0 117,-33 117,-99 0,-71 -52,-119 -99,-147 -34,-20 -71,-32 -110,-32 -61,0 -116,33 -116,99 0,71 51,119 98,147 34,20 71,32 110,32 z"
       transform="scale(0.0029,-0.0029)" />
  </g>
  <g
     id="g266"
     transform="translate(80.1196,3.7595069)">
    <rect
       id="rect264"
       fill="currentColor"
       ry="0.042100001"
       height="1.7229"
       width="0.1228"
       y="1.9613"
       x="-0.0614" />
  </g>
  <g
     id="g270"
     transform="translate(100.1978,3.7595069)">
    <rect
       id="rect268"
       fill="currentColor"
       ry="0.042100001"
       height="1.7229"
       width="0.1228"
       y="3.4349999"
       x="-0.0614" />
  </g>
  <g
     id="g274"
     transform="translate(81.4316,3.7595069)">
    <rect
       id="rect272"
       fill="currentColor"
       ry="0.042100001"
       height="2.4597001"
       width="0.1228"
       y="-1.4737"
       x="-0.0614" />
  </g>
  <g
     id="g278"
     transform="translate(80.9533,3.7595069)">
    <rect
       id="rect276"
       fill="currentColor"
       ry="0.042100001"
       height="2.3369"
       width="0.1228"
       y="-2.4561"
       x="-0.0614" />
  </g>
  <g
     id="g282"
     transform="translate(80.0582,5.6017069)">
    <path
       id="path280"
       fill="currentColor"
       d="m 208,139 c 61,0 117,-33 117,-99 0,-71 -52,-119 -99,-147 -34,-20 -71,-32 -110,-32 -61,0 -116,33 -116,99 0,71 51,119 98,147 34,20 71,32 110,32 z"
       transform="scale(0.0029,-0.0029)" />
  </g>
  <g
     id="g286"
     transform="translate(80.5365,4.8648069)">
    <path
       id="path284"
       fill="currentColor"
       d="m 208,139 c 61,0 117,-33 117,-99 0,-71 -52,-119 -99,-147 -34,-20 -71,-32 -110,-32 -61,0 -116,33 -116,99 0,71 51,119 98,147 34,20 71,32 110,32 z"
       transform="scale(0.0029,-0.0029)" />
  </g>
  <g
     id="g290"
     transform="translate(80.0582,3.7595069)">
    <path
       id="path288"
       fill="currentColor"
       d="m 208,139 c 61,0 117,-33 117,-99 0,-71 -52,-119 -99,-147 -34,-20 -71,-32 -110,-32 -61,0 -116,33 -116,99 0,71 51,119 98,147 34,20 71,32 110,32 z"
       transform="scale(0.0029,-0.0029)" />
  </g>
  <g
     id="g294"
     transform="translate(78.5468,3.7595069)">
    <rect
       id="rect292"
       fill="currentColor"
       ry="0.042100001"
       height="2.4658"
       width="0.1228"
       y="-0.74299997"
       x="-0.0614" />
  </g>
  <g
     id="g298"
     transform="translate(77.6517,5.6017069)">
    <path
       id="path296"
       fill="currentColor"
       d="m 208,139 c 61,0 117,-33 117,-99 0,-71 -52,-119 -99,-147 -34,-20 -71,-32 -110,-32 -61,0 -116,33 -116,99 0,71 51,119 98,147 34,20 71,32 110,32 z"
       transform="scale(0.0029,-0.0029)" />
  </g>
  <g
     id="g302"
     transform="translate(133.9557,3.7595069)">
    <rect
       id="rect300"
       fill="currentColor"
       ry="0.042100001"
       height="2.4597001"
       width="0.1228"
       y="-1.1052999"
       x="-0.0614" />
  </g>
  <g
     id="g306"
     transform="translate(133.0606,5.2332069)">
    <path
       id="path304"
       fill="currentColor"
       d="m 208,139 c 61,0 117,-33 117,-99 0,-71 -52,-119 -99,-147 -34,-20 -71,-32 -110,-32 -61,0 -116,33 -116,99 0,71 51,119 98,147 34,20 71,32 110,32 z"
       transform="scale(0.0029,-0.0029)" />
  </g>
  <g
     id="g310"
     transform="translate(130.722,3.7595069)">
    <rect
       id="rect308"
       fill="currentColor"
       ry="0.042100001"
       height="1.7229"
       width="0.1228"
       y="3.4349999"
       x="-0.0614" />
  </g>
  <g
     id="g314"
     transform="translate(134.0171,2.6964069)">
    <path
       id="path312"
       fill="currentColor"
       d="m 0,0 c 0,-196 207,-334 207,-530 0,-71 -15,-140 -41,-206 -5,-10 -14,-13 -23,-13 -14,0 -28,10 -28,26 0,2 1,3 1,5 26,59 42,123 42,188 0,101 -90,205 -158,280 H -21 V 0 Z"
       transform="scale(0.0029,-0.0029)" />
  </g>
  <g
     id="g318"
     transform="translate(72.516,2.4155069)">
    <polygon
       id="polygon316"
       points="0.0421,0.1347 0.0421,-0.1347 6.0501,0.4725 6.0501,0.742 "
       stroke="currentColor"
       fill="currentColor"
       stroke-width="0.0842"
       stroke-linecap="round"
       stroke-linejoin="round" />
  </g>
  <g
     id="g322"
     transform="translate(72.516,3.0227069)">
    <polygon
       id="polygon320"
       points="0.0421,0.1347 0.0421,-0.1347 6.0501,0.4725 6.0501,0.742 "
       stroke="currentColor"
       fill="currentColor"
       stroke-width="0.0842"
       stroke-linecap="round"
       stroke-linejoin="round" />
  </g>
  <g
     id="g326"
     transform="translate(130.6606,7.0753069)">
    <path
       id="path324"
       fill="currentColor"
       d="m 208,139 c 61,0 117,-33 117,-99 0,-71 -52,-119 -99,-147 -34,-20 -71,-32 -110,-32 -61,0 -116,33 -116,99 0,71 51,119 98,147 34,20 71,32 110,32 z"
       transform="scale(0.0029,-0.0029)" />
  </g>
  <g
     id="g330"
     transform="translate(71.6823,3.7595069)">
    <path
       id="path328"
       d="m 0.9267,-1.8832 c 0.558,-0.4464 1.4477,-0.3577 1.9065,0.19 v 0 c -0.4701,-0.435 -1.3598,-0.5236 -1.9065,-0.19 z"
       fill="currentColor"
       stroke="currentColor"
       stroke-linecap="round"
       stroke-linejoin="round"
       stroke-width="0.0755" />
  </g>
  <g
     id="g334"
     transform="translate(124.9669,3.7595069)">
    <rect
       id="rect332"
       fill="currentColor"
       ry="0.042100001"
       height="1.7229"
       width="0.1228"
       y="1.9613"
       x="-0.0614" />
  </g>
  <g
     id="g338"
     transform="translate(125.8006,3.7595069)">
    <rect
       id="rect336"
       fill="currentColor"
       ry="0.042100001"
       height="2.4597001"
       width="0.1228"
       y="-1.4737"
       x="-0.0614" />
  </g>
  <g
     id="g342"
     transform="translate(124.9055,5.6017069)">
    <path
       id="path340"
       fill="currentColor"
       d="m 208,139 c 61,0 117,-33 117,-99 0,-71 -52,-119 -99,-147 -34,-20 -71,-32 -110,-32 -61,0 -116,33 -116,99 0,71 51,119 98,147 34,20 71,32 110,32 z"
       transform="scale(0.0029,-0.0029)" />
  </g>
  <g
     id="g346"
     transform="translate(124.9055,4.8648069)">
    <path
       id="path344"
       fill="currentColor"
       d="m 208,139 c 61,0 117,-33 117,-99 0,-71 -52,-119 -99,-147 -34,-20 -71,-32 -110,-32 -61,0 -116,33 -116,99 0,71 51,119 98,147 34,20 71,32 110,32 z"
       transform="scale(0.0029,-0.0029)" />
  </g>
  <g
     id="g350"
     transform="translate(141.6756,5.6017069)">
    <path
       id="path348"
       fill="currentColor"
       d="m 208,139 c 61,0 117,-33 117,-99 0,-71 -52,-119 -99,-147 -34,-20 -71,-32 -110,-32 -61,0 -116,33 -116,99 0,71 51,119 98,147 34,20 71,32 110,32 z"
       transform="scale(0.0029,-0.0029)" />
  </g>
  <g
     id="g354"
     transform="translate(61.7362,3.7595069)">
    <path
       id="path352"
       d="m 0.9014,-2.0177 c 1.2421,-1.0131 5.2681,-0.9339 6.4694,0.1272 v 0 C 6.1673,-2.8383 2.1412,-2.9175 0.9014,-2.0177 Z"
       fill="currentColor"
       stroke="currentColor"
       stroke-linecap="round"
       stroke-linejoin="round"
       stroke-width="0.0755" />
  </g>
  <g
     id="g358"
     transform="translate(142.6321,3.0648069)">
    <path
       id="path356"
       fill="currentColor"
       d="m 0,0 c 0,-196 207,-334 207,-530 0,-71 -15,-140 -41,-206 -5,-10 -14,-13 -23,-13 -14,0 -28,10 -28,26 0,2 1,3 1,5 26,59 42,123 42,188 0,101 -90,205 -158,280 H -21 V 0 Z"
       transform="scale(0.0029,-0.0029)" />
  </g>
  <g
     id="g362"
     transform="translate(142.5707,3.7595069)">
    <rect
       id="rect360"
       fill="currentColor"
       ry="0.042100001"
       height="2.4597001"
       width="0.1228"
       y="-0.73680001"
       x="-0.0614" />
  </g>
  <g
     id="g366"
     transform="translate(136.4785,3.7595069)">
    <rect
       id="rect364"
       fill="currentColor"
       ry="0.042100001"
       height="1.6677999"
       width="0.1228"
       y="3.1217"
       x="-0.0614" />
  </g>
  <g
     id="g370"
     transform="translate(137.3122,3.7595069)">
    <rect
       id="rect368"
       fill="currentColor"
       ry="0.042100001"
       height="2.4597001"
       width="0.1228"
       y="-1.1052999"
       x="-0.0614" />
  </g>
  <g
     id="g374"
     transform="translate(137.6952,4.8648069)">
    <path
       id="path372"
       fill="currentColor"
       d="M 0,0 C 0,30 25,55 55,55 85,55 109,30 109,0 109,-30 85,-55 55,-55 25,-55 0,-30 0,0 Z"
       transform="scale(0.0029,-0.0029)" />
  </g>
  <g
     id="g378"
     transform="translate(136.4171,6.7069069)">
    <path
       id="path376"
       fill="currentColor"
       d="m 308,62 c 0,23 -20,39 -40,39 -4,0 -7,0 -11,-1 C 228,92 183,62 148,39 113,16 69,-13 49,-36 43,-44 39,-52 39,-62 c 0,-23 20,-39 40,-39 4,0 7,0 11,1 29,8 74,38 109,61 35,23 79,52 99,75 6,8 10,16 10,26 z M 0,-59 c 0,142 114,198 251,198 53,0 96,-22 96,-80 0,-142 -115,-198 -252,-198 -53,0 -95,22 -95,80 z"
       transform="scale(0.0029,-0.0029)" />
  </g>
  <g
     id="g382"
     transform="translate(136.4171,5.2332069)">
    <path
       id="path380"
       fill="currentColor"
       d="m 208,139 c 61,0 117,-33 117,-99 0,-71 -52,-119 -99,-147 -34,-20 -71,-32 -110,-32 -61,0 -116,33 -116,99 0,71 51,119 98,147 34,20 71,32 110,32 z"
       transform="scale(0.0029,-0.0029)" />
  </g>
  <g
     id="g386"
     transform="translate(105.7431,5.9701069)">
    <path
       id="path384"
       fill="currentColor"
       d="m 0,114 c 0,12 7,22 18,26 l 37,15 v 151 c 0,12 10,22 22,22 12,0 22,-10 22,-22 V 172 l 77,29 v 152 c 0,12 10,22 22,22 12,0 22,-10 22,-22 V 219 l 16,6 c 3,1 8,2 11,2 15,0 28,-12 28,-28 v -50 c 0,-12 -7,-23 -18,-27 L 220,108 V -44 l 16,7 c 3,1 8,2 11,2 15,0 28,-13 28,-29 v -50 c 0,-12 -7,-22 -18,-26 l -37,-15 v -151 c 0,-12 -10,-22 -22,-22 -12,0 -22,10 -22,22 v 134 l -77,-29 v -152 c 0,-12 -10,-22 -22,-22 -12,0 -22,10 -22,22 v 134 l -16,-6 c -3,-1 -8,-2 -11,-2 -15,0 -28,12 -28,28 v 50 c 0,12 7,23 18,27 l 37,14 V 44 L 39,37 C 36,36 31,35 28,35 13,35 0,48 0,64 Z M 176,91 99,61 V -91 l 77,30 z"
       transform="scale(0.0029,-0.0029)" />
  </g>
  <g
     id="g390"
     transform="translate(112.6117,3.7595069)">
    <rect
       id="rect388"
       fill="currentColor"
       ry="0.042100001"
       height="2.2467"
       width="0.1228"
       y="-1.6291"
       x="-0.0614" />
  </g>
  <g
     id="g394"
     transform="translate(111.7166,4.4964069)">
    <path
       id="path392"
       fill="currentColor"
       d="m 208,139 c 61,0 117,-33 117,-99 0,-71 -52,-119 -99,-147 -34,-20 -71,-32 -110,-32 -61,0 -116,33 -116,99 0,71 51,119 98,147 34,20 71,32 110,32 z"
       transform="scale(0.0029,-0.0029)" />
  </g>
  <g
     id="g398"
     transform="translate(110.2052,3.7595069)">
    <rect
       id="rect396"
       fill="currentColor"
       ry="0.042100001"
       height="2.5431001"
       width="0.1228"
       y="-1.1885999"
       x="-0.0614" />
  </g>
  <g
     id="g402"
     transform="translate(109.3101,5.2332069)">
    <path
       id="path400"
       fill="currentColor"
       d="m 208,139 c 61,0 117,-33 117,-99 0,-71 -52,-119 -99,-147 -34,-20 -71,-32 -110,-32 -61,0 -116,33 -116,99 0,71 51,119 98,147 34,20 71,32 110,32 z"
       transform="scale(0.0029,-0.0029)" />
  </g>
  <g
     id="g406"
     transform="translate(107.7987,3.7595069)">
    <rect
       id="rect404"
       fill="currentColor"
       ry="0.042100001"
       height="2.8394001"
       width="0.1228"
       y="-0.74809998"
       x="-0.0614" />
  </g>
  <g
     id="g410"
     transform="translate(75.7452,3.7595069)">
    <path
       id="path408"
       d="m 0.9448,-1.5944 c 0.5859,-0.435 1.4769,-0.2945 1.9064,0.3006 v 0 C 2.4041,-1.777 1.5131,-1.9175 0.9448,-1.5944 Z"
       fill="currentColor"
       stroke="currentColor"
       stroke-linecap="round"
       stroke-linejoin="round"
       stroke-width="0.0755" />
  </g>
  <g
     id="g414"
     transform="translate(107.7373,3.0227069)">
    <polygon
       id="polygon412"
       points="0.0421,0.1347 0.0421,-0.1347 7.3001,-1.4788 7.3001,-1.2093 "
       stroke="currentColor"
       fill="currentColor"
       stroke-width="0.0842"
       stroke-linecap="round"
       stroke-linejoin="round" />
  </g>
  <g
     id="g418"
     transform="translate(107.7373,3.6299069)">
    <polygon
       id="polygon416"
       points="0.0421,0.1347 0.0421,-0.1347 7.3001,-1.4788 7.3001,-1.2093 "
       stroke="currentColor"
       fill="currentColor"
       stroke-width="0.0842"
       stroke-linecap="round"
       stroke-linejoin="round" />
  </g>
  <g
     id="g422"
     transform="translate(106.9036,5.9701069)">
    <path
       id="path420"
       fill="currentColor"
       d="m 208,139 c 61,0 117,-33 117,-99 0,-71 -52,-119 -99,-147 -34,-20 -71,-32 -110,-32 -61,0 -116,33 -116,99 0,71 51,119 98,147 34,20 71,32 110,32 z"
       transform="scale(0.0029,-0.0029)" />
  </g>
  <g
     id="g426"
     transform="translate(118.436,4.4964069)">
    <path
       id="path424"
       fill="currentColor"
       d="m 208,139 c 61,0 117,-33 117,-99 0,-71 -52,-119 -99,-147 -34,-20 -71,-32 -110,-32 -61,0 -116,33 -116,99 0,71 51,119 98,147 34,20 71,32 110,32 z"
       transform="scale(0.0029,-0.0029)" />
  </g>
  <g
     id="g430"
     transform="translate(123.6441,3.7595069)">
    <rect
       id="rect428"
       fill="currentColor"
       ry="0.042100001"
       height="3.4354"
       width="0.1228"
       y="-2.8176999"
       x="-0.0614" />
  </g>
  <g
     id="g434"
     transform="translate(122.749,4.4964069)">
    <path
       id="path432"
       fill="currentColor"
       d="m 208,139 c 61,0 117,-33 117,-99 0,-71 -52,-119 -99,-147 -34,-20 -71,-32 -110,-32 -61,0 -116,33 -116,99 0,71 51,119 98,147 34,20 71,32 110,32 z"
       transform="scale(0.0029,-0.0029)" />
  </g>
  <g
     id="g438"
     transform="translate(121.7376,3.7595069)">
    <rect
       id="rect436"
       fill="currentColor"
       ry="0.042100001"
       height="1.5933"
       width="0.1228"
       y="-2.8176999"
       x="-0.0614" />
  </g>
  <g
     id="g442"
     transform="translate(120.8425,2.6543069)">
    <path
       id="path440"
       fill="currentColor"
       d="m 208,139 c 61,0 117,-33 117,-99 0,-71 -52,-119 -99,-147 -34,-20 -71,-32 -110,-32 -61,0 -116,33 -116,99 0,71 51,119 98,147 34,20 71,32 110,32 z"
       transform="scale(0.0029,-0.0029)" />
  </g>
  <g
     id="g446"
     transform="translate(119.3311,3.7595069)">
    <rect
       id="rect444"
       fill="currentColor"
       ry="0.042100001"
       height="3.4354"
       width="0.1228"
       y="-2.8176999"
       x="-0.0614" />
  </g>
  <g
     id="g450"
     transform="translate(62.5699,2.2859069)">
    <polygon
       id="polygon448"
       points="0.0421,0.1347 0.0421,-0.1347 6.5501,-0.0051 6.5501,0.2644 "
       stroke="currentColor"
       fill="currentColor"
       stroke-width="0.0842"
       stroke-linecap="round"
       stroke-linejoin="round" />
  </g>
  <g
     id="g454"
     transform="translate(62.5699,2.8931069)">
    <polygon
       id="polygon452"
       points="0.0421,0.1347 0.0421,-0.1347 6.5501,-0.0051 6.5501,0.2644 "
       stroke="currentColor"
       fill="currentColor"
       stroke-width="0.0842"
       stroke-linecap="round"
       stroke-linejoin="round" />
  </g>
  <g
     id="g458"
     transform="translate(117.1747,3.7595069)">
    <rect
       id="rect456"
       fill="currentColor"
       ry="0.042100001"
       height="3.0669"
       width="0.1228"
       y="-2.8176999"
       x="-0.0614" />
  </g>
  <g
     id="g462"
     transform="translate(116.2796,4.1280069)">
    <path
       id="path460"
       fill="currentColor"
       d="m 208,139 c 61,0 117,-33 117,-99 0,-71 -52,-119 -99,-147 -34,-20 -71,-32 -110,-32 -61,0 -116,33 -116,99 0,71 51,119 98,147 34,20 71,32 110,32 z"
       transform="scale(0.0029,-0.0029)" />
  </g>
  <g
     id="g466"
     transform="translate(115.0182,3.7595069)">
    <rect
       id="rect464"
       fill="currentColor"
       ry="0.042100001"
       height="1.9504"
       width="0.1228"
       y="-2.0697"
       x="-0.0614" />
  </g>
  <g
     id="g470"
     transform="translate(114.1231,3.7595069)">
    <path
       id="path468"
       fill="currentColor"
       d="m 208,139 c 61,0 117,-33 117,-99 0,-71 -52,-119 -99,-147 -34,-20 -71,-32 -110,-32 -61,0 -116,33 -116,99 0,71 51,119 98,147 34,20 71,32 110,32 z"
       transform="scale(0.0029,-0.0029)" />
  </g>
  <g
     id="g474"
     transform="translate(30.0785,3.7595069)">
    <rect
       id="rect472"
       fill="currentColor"
       ry="0.042100001"
       height="2.4047"
       width="0.1228"
       y="-2.2105"
       x="-0.0614" />
  </g>
  <g
     id="g478"
     transform="translate(29.118,4.1280069)">
    <path
       id="path476"
       fill="currentColor"
       d="m 308,62 c 0,23 -20,39 -40,39 -4,0 -7,0 -11,-1 C 228,92 183,62 148,39 113,16 69,-13 49,-36 43,-44 39,-52 39,-62 c 0,-23 20,-39 40,-39 4,0 7,0 11,1 29,8 74,38 109,61 35,23 79,52 99,75 6,8 10,16 10,26 z M 0,-59 c 0,142 114,198 251,198 53,0 96,-22 96,-80 0,-142 -115,-198 -252,-198 -53,0 -95,22 -95,80 z"
       transform="scale(0.0029,-0.0029)" />
  </g>
  <g
     id="g482"
     transform="translate(30.1399,4.4964069)">
    <path
       id="path480"
       fill="currentColor"
       d="m 308,62 c 0,23 -20,39 -40,39 -4,0 -7,0 -11,-1 C 228,92 183,62 148,39 113,16 69,-13 49,-36 43,-44 39,-52 39,-62 c 0,-23 20,-39 40,-39 4,0 7,0 11,1 29,8 74,38 109,61 35,23 79,52 99,75 6,8 10,16 10,26 z M 0,-59 c 0,142 114,198 251,198 53,0 96,-22 96,-80 0,-142 -115,-198 -252,-198 -53,0 -95,22 -95,80 z"
       transform="scale(0.0029,-0.0029)" />
  </g>
  <g
     id="g486"
     transform="translate(28.607,5.9701069)">
    <path
       id="path484"
       fill="currentColor"
       d="m 308,62 c 0,23 -20,39 -40,39 -4,0 -7,0 -11,-1 C 228,92 183,62 148,39 113,16 69,-13 49,-36 43,-44 39,-52 39,-62 c 0,-23 20,-39 40,-39 4,0 7,0 11,1 29,8 74,38 109,61 35,23 79,52 99,75 6,8 10,16 10,26 z M 0,-59 c 0,142 114,198 251,198 53,0 96,-22 96,-80 0,-142 -115,-198 -252,-198 -53,0 -95,22 -95,80 z"
       transform="scale(0.0029,-0.0029)" />
  </g>
  <g
     id="g490"
     transform="translate(31.4833,2.6543069)">
    <path
       id="path488"
       fill="currentColor"
       d="M 0,0 C 0,30 25,55 55,55 85,55 109,30 109,0 109,-30 85,-55 55,-55 25,-55 0,-30 0,0 Z"
       transform="scale(0.0029,-0.0029)" />
  </g>
  <g
     id="g494"
     transform="translate(29.5021,3.7595069)">
    <rect
       id="rect492"
       fill="currentColor"
       ry="0.042100001"
       height="1.9685"
       width="0.1228"
       y="-3.1930001"
       x="-0.0614" />
  </g>
  <g
     id="g498"
     transform="translate(28.607,2.6543069)">
    <path
       id="path496"
       fill="currentColor"
       d="m 208,139 c 61,0 117,-33 117,-99 0,-71 -52,-119 -99,-147 -34,-20 -71,-32 -110,-32 -61,0 -116,33 -116,99 0,71 51,119 98,147 34,20 71,32 110,32 z"
       transform="scale(0.0029,-0.0029)" />
  </g>
  <g
     id="g502"
     transform="translate(31.1004,3.7595069)">
    <rect
       id="rect500"
       fill="currentColor"
       ry="0.042100001"
       height="2.4047"
       width="0.1228"
       y="-1.8421"
       x="-0.0614" />
  </g>
  <g
     id="g506"
     transform="translate(28.6684,3.7595069)">
    <rect
       id="rect504"
       fill="currentColor"
       ry="0.042100001"
       height="1.6677999"
       width="0.1228"
       y="2.3848"
       x="-0.0614" />
  </g>
  <g
     id="g510"
     transform="translate(23.7532,3.7595069)">
    <rect
       id="rect508"
       fill="currentColor"
       ry="0.042100001"
       height="1.7229"
       width="0.1228"
       y="1.9613"
       x="-0.0614" />
  </g>
  <g
     id="g514"
     transform="translate(39.2601,4.8648069)">
    <path
       id="path512"
       fill="currentColor"
       d="m 208,139 c 61,0 117,-33 117,-99 0,-71 -52,-119 -99,-147 -34,-20 -71,-32 -110,-32 -61,0 -116,33 -116,99 0,71 51,119 98,147 34,20 71,32 110,32 z"
       transform="scale(0.0029,-0.0029)" />
  </g>
  <g
     id="g518"
     transform="translate(40.1552,3.7595069)">
    <rect
       id="rect516"
       fill="currentColor"
       ry="0.042100001"
       height="2.4597001"
       width="0.1228"
       y="-1.4737"
       x="-0.0614" />
  </g>
  <g
     id="g522"
     transform="translate(39.6769,3.7595069)">
    <rect
       id="rect520"
       fill="currentColor"
       ry="0.042100001"
       height="2.4597001"
       width="0.1228"
       y="-2.2105"
       x="-0.0614" />
  </g>
  <g
     id="g526"
     transform="translate(39.1987,3.7595069)">
    <rect
       id="rect524"
       fill="currentColor"
       ry="0.042100001"
       height="1.8457"
       width="0.1228"
       y="-3.4386001"
       x="-0.0614" />
  </g>
  <g
     id="g530"
     transform="translate(38.3036,5.6017069)">
    <path
       id="path528"
       fill="currentColor"
       d="m 208,139 c 61,0 117,-33 117,-99 0,-71 -52,-119 -99,-147 -34,-20 -71,-32 -110,-32 -61,0 -116,33 -116,99 0,71 51,119 98,147 34,20 71,32 110,32 z"
       transform="scale(0.0029,-0.0029)" />
  </g>
  <g
     id="g534"
     transform="translate(25.5434,3.7595069)">
    <rect
       id="rect532"
       fill="currentColor"
       ry="0.042100001"
       height="2.4597001"
       width="0.1228"
       y="-1.8421"
       x="-0.0614" />
  </g>
  <g
     id="g538"
     transform="translate(38.7818,4.1280069)">
    <path
       id="path536"
       fill="currentColor"
       d="m 208,139 c 61,0 117,-33 117,-99 0,-71 -52,-119 -99,-147 -34,-20 -71,-32 -110,-32 -61,0 -116,33 -116,99 0,71 51,119 98,147 34,20 71,32 110,32 z"
       transform="scale(0.0029,-0.0029)" />
  </g>
  <g
     id="g542"
     transform="translate(38.3036,2.2859069)">
    <path
       id="path540"
       fill="currentColor"
       d="m 208,139 c 61,0 117,-33 117,-99 0,-71 -52,-119 -99,-147 -34,-20 -71,-32 -110,-32 -61,0 -116,33 -116,99 0,71 51,119 98,147 34,20 71,32 110,32 z"
       transform="scale(0.0029,-0.0029)" />
  </g>
  <g
     id="g546"
     transform="translate(34.8219,0.48590687)">
    <path
       id="path544"
       fill="currentColor"
       d="m 0,0 c 0,-196 207,-334 207,-530 0,-71 -15,-140 -41,-206 -5,-10 -14,-13 -23,-13 -14,0 -28,10 -28,26 0,2 1,3 1,5 26,59 42,123 42,188 0,101 -90,205 -158,280 H -21 V 0 Z"
       transform="scale(0.0029,-0.0029)" />
  </g>
  <g
     id="g550"
     transform="translate(34.7606,3.7595069)">
    <rect
       id="rect548"
       fill="currentColor"
       ry="0.042100001"
       height="2.0913"
       width="0.1228"
       y="-3.3158"
       x="-0.0614" />
  </g>
  <g
     id="g554"
     transform="translate(33.8655,2.6543069)">
    <path
       id="path552"
       fill="currentColor"
       d="m 208,139 c 61,0 117,-33 117,-99 0,-71 -52,-119 -99,-147 -34,-20 -71,-32 -110,-32 -61,0 -116,33 -116,99 0,71 51,119 98,147 34,20 71,32 110,32 z"
       transform="scale(0.0029,-0.0029)" />
  </g>
  <g
     id="g558"
     transform="translate(27.4465,5.9701069)">
    <path
       id="path556"
       fill="currentColor"
       d="m 0,114 c 0,12 7,22 18,26 l 37,15 v 151 c 0,12 10,22 22,22 12,0 22,-10 22,-22 V 172 l 77,29 v 152 c 0,12 10,22 22,22 12,0 22,-10 22,-22 V 219 l 16,6 c 3,1 8,2 11,2 15,0 28,-12 28,-28 v -50 c 0,-12 -7,-23 -18,-27 L 220,108 V -44 l 16,7 c 3,1 8,2 11,2 15,0 28,-13 28,-29 v -50 c 0,-12 -7,-22 -18,-26 l -37,-15 v -151 c 0,-12 -10,-22 -22,-22 -12,0 -22,10 -22,22 v 134 l -77,-29 v -152 c 0,-12 -10,-22 -22,-22 -12,0 -22,10 -22,22 v 134 l -16,-6 c -3,-1 -8,-2 -11,-2 -15,0 -28,12 -28,28 v 50 c 0,12 7,23 18,27 l 37,14 V 44 L 39,37 C 36,36 31,35 28,35 13,35 0,48 0,64 Z M 176,91 99,61 V -91 l 77,30 z"
       transform="scale(0.0029,-0.0029)" />
  </g>
  <g
     id="g562"
     transform="translate(8.397,3.7595069)">
    <rect
       id="rect560"
       fill="currentColor"
       ry="0.042100001"
       height="2.4597001"
       width="0.1228"
       y="-0.73680001"
       x="-0.0614" />
  </g>
  <g
     id="g566"
     transform="translate(8.4584,3.0648069)">
    <path
       id="path564"
       fill="currentColor"
       d="m 0,0 c 0,-196 207,-334 207,-530 0,-71 -15,-140 -41,-206 -5,-10 -14,-13 -23,-13 -14,0 -28,10 -28,26 0,2 1,3 1,5 26,59 42,123 42,188 0,101 -90,205 -158,280 H -21 V 0 Z"
       transform="scale(0.0029,-0.0029)" />
  </g>
  <g
     id="g570"
     transform="translate(10.8584,2.2859069)">
    <path
       id="path568"
       fill="currentColor"
       d="M 63,-250 182,75 C 150,64 117,54 83,54 36,54 -4,88 -4,133 c 0,40 34,72 75,72 25,0 48,-13 56,-36 10,-26 4,-58 32,-58 13,0 48,38 54,50 8,15 30,15 37,0 L 133,-250 c -10,-8 -23,-13 -35,-13 -12,0 -25,5 -35,13 z"
       transform="scale(0.0029,-0.0029)" />
  </g>
  <g
     id="g574"
     transform="translate(7.5019,5.6017069)">
    <path
       id="path572"
       fill="currentColor"
       d="m 208,139 c 61,0 117,-33 117,-99 0,-71 -52,-119 -99,-147 -34,-20 -71,-32 -110,-32 -61,0 -116,33 -116,99 0,71 51,119 98,147 34,20 71,32 110,32 z"
       transform="scale(0.0029,-0.0029)" />
  </g>
  <g
     id="g578"
     transform="translate(13.9953,4.1280069)">
    <path
       id="path576"
       fill="currentColor"
       d="m 208,139 c 61,0 117,-33 117,-99 0,-71 -52,-119 -99,-147 -34,-20 -71,-32 -110,-32 -61,0 -116,33 -116,99 0,71 51,119 98,147 34,20 71,32 110,32 z"
       transform="scale(0.0029,-0.0029)" />
  </g>
  <g
     id="g582"
     transform="translate(14.5062,4.8648069)">
    <path
       id="path580"
       fill="currentColor"
       d="m 308,62 c 0,23 -20,39 -40,39 -4,0 -7,0 -11,-1 C 228,92 183,62 148,39 113,16 69,-13 49,-36 43,-44 39,-52 39,-62 c 0,-23 20,-39 40,-39 4,0 7,0 11,1 29,8 74,38 109,61 35,23 79,52 99,75 6,8 10,16 10,26 z M 0,-59 c 0,142 114,198 251,198 53,0 96,-22 96,-80 0,-142 -115,-198 -252,-198 -53,0 -95,22 -95,80 z"
       transform="scale(0.0029,-0.0029)" />
  </g>
  <g
     id="g586"
     transform="translate(13.9953,5.6017069)">
    <path
       id="path584"
       fill="currentColor"
       d="m 308,62 c 0,23 -20,39 -40,39 -4,0 -7,0 -11,-1 C 228,92 183,62 148,39 113,16 69,-13 49,-36 43,-44 39,-52 39,-62 c 0,-23 20,-39 40,-39 4,0 7,0 11,1 29,8 74,38 109,61 35,23 79,52 99,75 6,8 10,16 10,26 z M 0,-59 c 0,142 114,198 251,198 53,0 96,-22 96,-80 0,-142 -115,-198 -252,-198 -53,0 -95,22 -95,80 z"
       transform="scale(0.0029,-0.0029)" />
  </g>
  <g
     id="g590"
     transform="translate(15.8497,4.1280069)">
    <path
       id="path588"
       fill="currentColor"
       d="M 0,0 C 0,30 25,55 55,55 85,55 109,30 109,0 109,-30 85,-55 55,-55 25,-55 0,-30 0,0 Z"
       transform="scale(0.0029,-0.0029)" />
  </g>
  <g
     id="g594"
     transform="translate(14.8904,3.7595069)">
    <rect
       id="rect592"
       fill="currentColor"
       ry="0.042100001"
       height="2.4597001"
       width="0.1228"
       y="-2.2105"
       x="-0.0614" />
  </g>
  <g
     id="g598"
     transform="translate(4.4125,3.7595069)">
    <path
       id="path596"
       fill="currentColor"
       d="m 33,35 -2,-60 v -11 c 0,-21 2,-43 5,-64 42,38 87,81 87,138 0,32 -13,63 -41,63 C 51,101 34,69 33,35 Z M 32,446 23,109 c 25,26 59,40 95,40 50,0 82,-51 82,-105 0,-77 -80,-117 -137,-169 -18,-17 -26,-48 -52,-48 -16,0 -28,15 -28,32 l -15,587 c 10,6 21,8 32,8 11,0 22,-2 32,-8 z"
       transform="scale(0.0029,-0.0029)" />
  </g>
  <g
     id="g602"
     transform="translate(0.8,4.4964069)">
    <path
       id="path600"
       fill="currentColor"
       d="m 381,266 h 9 c 157,0 258,-130 258,-264 0,-77 -33,-156 -108,-212 -22,-16 -46,-28 -71,-36 2,-32 3,-65 3,-97 0,-21 -1,-43 -2,-64 -7,-122 -91,-230 -211,-230 -108,0 -197,88 -197,197 0,58 54,104 113,104 54,0 95,-48 95,-104 0,-52 -43,-95 -95,-95 -8,0 -16,2 -24,4 25,-35 65,-59 111,-59 95,0 155,92 161,190 1,20 2,39 2,59 0,28 -1,55 -3,83 -29,-5 -57,-7 -87,-7 -189,0 -333,174 -333,377 0,176 128,307 242,443 -21,62 -41,124 -50,189 -7,52 -8,106 -8,159 0,113 54,219 146,286 8,6 21,7 29,0 72,-82 136,-244 136,-357 0,-141 -83,-253 -174,-362 22,-67 41,-135 58,-204 z m 83,-466 c 64,25 108,93 108,159 0,87 -62,173 -163,187 24,-113 43,-225 55,-346 z m -126,-18 c 27,0 54,2 80,6 C 405,-87 385,30 360,147 281,140 237,88 237,31 c 0,-43 24,-89 78,-120 5,-5 8,-11 8,-17 0,-13 -11,-24 -24,-24 -3,0 -7,0 -10,2 -81,44 -119,116 -119,187 0,90 60,178 164,201 -14,56 -30,112 -47,167 C 183,305 79,182 79,23 79,-109 206,-218 338,-218 Z M 239,782 c 0,-69 22,-127 41,-183 77,97 140,199 140,323 0,49 -3,69 -19,113 C 302,990 239,890 239,782 Z"
       transform="scale(0.0029,-0.0029)" />
  </g>
  <g
     id="g606"
     transform="translate(0,3.7595069)">
    <path
       id="path604"
       d="m 5.002,1.0631 c 0.7347,-0.6945 2.299,-0.6945 3.0337,0 v 0 C 7.301,0.4819 5.7367,0.4819 5.002,1.0631 Z"
       fill="currentColor"
       stroke="currentColor"
       stroke-linecap="round"
       stroke-linejoin="round"
       stroke-width="0.0755" />
  </g>
  <g
     id="g610"
     transform="translate(25.0652,3.7595069)">
    <rect
       id="rect608"
       fill="currentColor"
       ry="0.042100001"
       height="2.3369"
       width="0.1228"
       y="-2.4561"
       x="-0.0614" />
  </g>
  <g
     id="g614"
     transform="translate(24.5869,3.7595069)">
    <rect
       id="rect612"
       fill="currentColor"
       ry="0.042100001"
       height="1.9685"
       width="0.1228"
       y="-3.1930001"
       x="-0.0614" />
  </g>
  <g
     id="g618"
     transform="translate(23.6918,5.6017069)">
    <path
       id="path616"
       fill="currentColor"
       d="m 208,139 c 61,0 117,-33 117,-99 0,-71 -52,-119 -99,-147 -34,-20 -71,-32 -110,-32 -61,0 -116,33 -116,99 0,71 51,119 98,147 34,20 71,32 110,32 z"
       transform="scale(0.0029,-0.0029)" />
  </g>
  <g
     id="g622"
     transform="translate(24.6483,4.4964069)">
    <path
       id="path620"
       fill="currentColor"
       d="m 208,139 c 61,0 117,-33 117,-99 0,-71 -52,-119 -99,-147 -34,-20 -71,-32 -110,-32 -61,0 -116,33 -116,99 0,71 51,119 98,147 34,20 71,32 110,32 z"
       transform="scale(0.0029,-0.0029)" />
  </g>
  <g
     id="g626"
     transform="translate(24.1701,3.7595069)">
    <path
       id="path624"
       fill="currentColor"
       d="m 208,139 c 61,0 117,-33 117,-99 0,-71 -52,-119 -99,-147 -34,-20 -71,-32 -110,-32 -61,0 -116,33 -116,99 0,71 51,119 98,147 34,20 71,32 110,32 z"
       transform="scale(0.0029,-0.0029)" />
  </g>
  <g
     id="g630"
     transform="translate(23.6918,2.6543069)">
    <path
       id="path628"
       fill="currentColor"
       d="m 208,139 c 61,0 117,-33 117,-99 0,-71 -52,-119 -99,-147 -34,-20 -71,-32 -110,-32 -61,0 -116,33 -116,99 0,71 51,119 98,147 34,20 71,32 110,32 z"
       transform="scale(0.0029,-0.0029)" />
  </g>
  <g
     id="g634"
     transform="translate(71.6823,4.4964069)">
    <path
       id="path632"
       fill="currentColor"
       d="m 208,139 c 61,0 117,-33 117,-99 0,-71 -52,-119 -99,-147 -34,-20 -71,-32 -110,-32 -61,0 -116,33 -116,99 0,71 51,119 98,147 34,20 71,32 110,32 z"
       transform="scale(0.0029,-0.0029)" />
  </g>
  <g
     id="g638"
     transform="translate(20.2102,1.5911069)">
    <path
       id="path636"
       fill="currentColor"
       d="m 0,0 c 0,-196 207,-334 207,-530 0,-71 -15,-140 -41,-206 -5,-10 -14,-13 -23,-13 -14,0 -28,10 -28,26 0,2 1,3 1,5 26,59 42,123 42,188 0,101 -90,205 -158,280 H -21 V 0 Z"
       transform="scale(0.0029,-0.0029)" />
  </g>
  <g
     id="g642"
     transform="translate(20.1488,3.7595069)">
    <rect
       id="rect640"
       fill="currentColor"
       ry="0.042100001"
       height="2.4597001"
       width="0.1228"
       y="-2.2105"
       x="-0.0614" />
  </g>
  <g
     id="g646"
     transform="translate(19.2537,4.1280069)">
    <path
       id="path644"
       fill="currentColor"
       d="m 208,139 c 61,0 117,-33 117,-99 0,-71 -52,-119 -99,-147 -34,-20 -71,-32 -110,-32 -61,0 -116,33 -116,99 0,71 51,119 98,147 34,20 71,32 110,32 z"
       transform="scale(0.0029,-0.0029)" />
  </g>
  <g
     id="g650"
     transform="translate(14.0567,3.7595069)">
    <rect
       id="rect648"
       fill="currentColor"
       ry="0.042100001"
       height="1.6677999"
       width="0.1228"
       y="2.0164001"
       x="-0.0614" />
  </g>
  <g
     id="g654"
     transform="translate(15.4667,3.7595069)">
    <rect
       id="rect652"
       fill="currentColor"
       ry="0.042100001"
       height="2.4047"
       width="0.1228"
       y="-1.4737"
       x="-0.0614" />
  </g>
  <g
     id="g658"
     transform="translate(57.658,4.8648069)">
    <path
       id="path656"
       fill="currentColor"
       d="m 208,139 c 61,0 117,-33 117,-99 0,-71 -52,-119 -99,-147 -34,-20 -71,-32 -110,-32 -61,0 -116,33 -116,99 0,71 51,119 98,147 34,20 71,32 110,32 z"
       transform="scale(0.0029,-0.0029)" />
  </g>
  <g
     id="g662"
     transform="translate(57.1797,6.7069069)">
    <path
       id="path660"
       fill="currentColor"
       d="m 208,139 c 61,0 117,-33 117,-99 0,-71 -52,-119 -99,-147 -34,-20 -71,-32 -110,-32 -61,0 -116,33 -116,99 0,71 51,119 98,147 34,20 71,32 110,32 z"
       transform="scale(0.0029,-0.0029)" />
  </g>
  <g
     id="g666"
     transform="translate(58.0748,3.7595069)">
    <rect
       id="rect664"
       fill="currentColor"
       ry="0.042100001"
       height="2.4597001"
       width="0.1228"
       y="-2.2105"
       x="-0.0614" />
  </g>
  <g
     id="g670"
     transform="translate(58.5531,3.7595069)">
    <rect
       id="rect668"
       fill="currentColor"
       ry="0.042100001"
       height="2.4597001"
       width="0.1228"
       y="-1.4737"
       x="-0.0614" />
  </g>
  <g
     id="g674"
     transform="translate(57.1797,4.1280069)">
    <path
       id="path672"
       fill="currentColor"
       d="m 208,139 c 61,0 117,-33 117,-99 0,-71 -52,-119 -99,-147 -34,-20 -71,-32 -110,-32 -61,0 -116,33 -116,99 0,71 51,119 98,147 34,20 71,32 110,32 z"
       transform="scale(0.0029,-0.0029)" />
  </g>
  <g
     id="g678"
     transform="translate(57.2411,3.7595069)">
    <rect
       id="rect676"
       fill="currentColor"
       ry="0.042100001"
       height="1.7229"
       width="0.1228"
       y="3.0666001"
       x="-0.0614" />
  </g>
  <g
     id="g682"
     transform="translate(61.7362,4.4964069)">
    <path
       id="path680"
       fill="currentColor"
       d="m 208,139 c 61,0 117,-33 117,-99 0,-71 -52,-119 -99,-147 -34,-20 -71,-32 -110,-32 -61,0 -116,33 -116,99 0,71 51,119 98,147 34,20 71,32 110,32 z"
       transform="scale(0.0029,-0.0029)" />
  </g>
  <g
     id="g686"
     transform="translate(61.7362,5.9701069)">
    <path
       id="path684"
       fill="currentColor"
       d="m 208,139 c 61,0 117,-33 117,-99 0,-71 -52,-119 -99,-147 -34,-20 -71,-32 -110,-32 -61,0 -116,33 -116,99 0,71 51,119 98,147 34,20 71,32 110,32 z"
       transform="scale(0.0029,-0.0029)" />
  </g>
  <g
     id="g690"
     transform="translate(38.365,3.7595069)">
    <rect
       id="rect688"
       fill="currentColor"
       ry="0.042100001"
       height="1.7229"
       width="0.1228"
       y="1.9613"
       x="-0.0614" />
  </g>
  <g
     id="g694"
     transform="translate(52.5252,3.7595069)">
    <rect
       id="rect692"
       fill="currentColor"
       ry="0.042100001"
       height="1.7229"
       width="0.1228"
       y="3.4349999"
       x="-0.0614" />
  </g>
  <g
     id="g698"
     transform="translate(71.6823,5.6017069)">
    <path
       id="path696"
       fill="currentColor"
       d="m 208,139 c 61,0 117,-33 117,-99 0,-71 -52,-119 -99,-147 -34,-20 -71,-32 -110,-32 -61,0 -116,33 -116,99 0,71 51,119 98,147 34,20 71,32 110,32 z"
       transform="scale(0.0029,-0.0029)" />
  </g>
  <g
     id="g702"
     transform="translate(69.1008,3.7595069)">
    <rect
       id="rect700"
       fill="currentColor"
       ry="0.042100001"
       height="2.3313"
       width="0.1228"
       y="-1.3453"
       x="-0.0614" />
  </g>
  <g
     id="g706"
     transform="translate(68.2057,4.8648069)">
    <path
       id="path704"
       fill="currentColor"
       d="m 208,139 c 61,0 117,-33 117,-99 0,-71 -52,-119 -99,-147 -34,-20 -71,-32 -110,-32 -61,0 -116,33 -116,99 0,71 51,119 98,147 34,20 71,32 110,32 z"
       transform="scale(0.0029,-0.0029)" />
  </g>
  <g
     id="g710"
     transform="translate(66.9443,3.7595069)">
    <rect
       id="rect708"
       fill="currentColor"
       ry="0.042100001"
       height="2.7421"
       width="0.1228"
       y="-1.3877"
       x="-0.0614" />
  </g>
  <g
     id="g714"
     transform="translate(66.0492,5.2332069)">
    <path
       id="path712"
       fill="currentColor"
       d="m 208,139 c 61,0 117,-33 117,-99 0,-71 -52,-119 -99,-147 -34,-20 -71,-32 -110,-32 -61,0 -116,33 -116,99 0,71 51,119 98,147 34,20 71,32 110,32 z"
       transform="scale(0.0029,-0.0029)" />
  </g>
  <g
     id="g718"
     transform="translate(64.7878,3.7595069)">
    <rect
       id="rect716"
       fill="currentColor"
       ry="0.042100001"
       height="2.4161"
       width="0.1228"
       y="-1.4301"
       x="-0.0614" />
  </g>
  <g
     id="g722"
     transform="translate(63.8927,4.8648069)">
    <path
       id="path720"
       fill="currentColor"
       d="m 208,139 c 61,0 117,-33 117,-99 0,-71 -52,-119 -99,-147 -34,-20 -71,-32 -110,-32 -61,0 -116,33 -116,99 0,71 51,119 98,147 34,20 71,32 110,32 z"
       transform="scale(0.0029,-0.0029)" />
  </g>
  <g
     id="g726"
     transform="translate(60.5757,5.9701069)">
    <path
       id="path724"
       fill="currentColor"
       d="m 0,114 c 0,12 7,22 18,26 l 37,15 v 151 c 0,12 10,22 22,22 12,0 22,-10 22,-22 V 172 l 77,29 v 152 c 0,12 10,22 22,22 12,0 22,-10 22,-22 V 219 l 16,6 c 3,1 8,2 11,2 15,0 28,-12 28,-28 v -50 c 0,-12 -7,-23 -18,-27 L 220,108 V -44 l 16,7 c 3,1 8,2 11,2 15,0 28,-13 28,-29 v -50 c 0,-12 -7,-22 -18,-26 l -37,-15 v -151 c 0,-12 -10,-22 -22,-22 -12,0 -22,10 -22,22 v 134 l -77,-29 v -152 c 0,-12 -10,-22 -22,-22 -12,0 -22,10 -22,22 v 134 l -16,-6 c -3,-1 -8,-2 -11,-2 -15,0 -28,12 -28,28 v 50 c 0,12 7,23 18,27 l 37,14 V 44 L 39,37 C 36,36 31,35 28,35 13,35 0,48 0,64 Z M 176,91 99,61 V -91 l 77,30 z"
       transform="scale(0.0029,-0.0029)" />
  </g>
  <g
     id="g730"
     transform="translate(61.7976,3.7595069)">
    <rect
       id="rect728"
       fill="currentColor"
       ry="0.042100001"
       height="1.7229"
       width="0.1228"
       y="2.3297999"
       x="-0.0614" />
  </g>
  <g
     id="g734"
     transform="translate(62.6313,3.7595069)">
    <rect
       id="rect732"
       fill="currentColor"
       ry="0.042100001"
       height="2.0901"
       width="0.1228"
       y="-1.4725"
       x="-0.0614" />
  </g>
  <g
     id="g738"
     transform="translate(44.6239,2.6543069)">
    <path
       id="path736"
       fill="currentColor"
       d="M 0,0 C 0,30 25,55 55,55 85,55 109,30 109,0 109,-30 85,-55 55,-55 25,-55 0,-30 0,0 Z"
       transform="scale(0.0029,-0.0029)" />
  </g>
  <g
     id="g742"
     transform="translate(42.8309,3.7595069)">
    <rect
       id="rect740"
       fill="currentColor"
       ry="0.042100001"
       height="1.6677999"
       width="0.1228"
       y="2.7532001"
       x="-0.0614" />
  </g>
  <g
     id="g746"
     transform="translate(53.8372,3.7595069)">
    <rect
       id="rect744"
       fill="currentColor"
       ry="0.042100001"
       height="2.4597001"
       width="0.1228"
       y="-1.8421"
       x="-0.0614" />
  </g>
  <g
     id="g750"
     transform="translate(44.2409,3.7595069)">
    <rect
       id="rect748"
       fill="currentColor"
       ry="0.042100001"
       height="2.4047"
       width="0.1228"
       y="-1.4737"
       x="-0.0614" />
  </g>
  <g
     id="g754"
     transform="translate(43.6646,3.7595069)">
    <rect
       id="rect752"
       fill="currentColor"
       ry="0.042100001"
       height="2.0913"
       width="0.1228"
       y="-2.9474001"
       x="-0.0614" />
  </g>
  <g
     id="g758"
     transform="translate(42.7695,6.3385069)">
    <path
       id="path756"
       fill="currentColor"
       d="m 308,62 c 0,23 -20,39 -40,39 -4,0 -7,0 -11,-1 C 228,92 183,62 148,39 113,16 69,-13 49,-36 43,-44 39,-52 39,-62 c 0,-23 20,-39 40,-39 4,0 7,0 11,1 29,8 74,38 109,61 35,23 79,52 99,75 6,8 10,16 10,26 z M 0,-59 c 0,142 114,198 251,198 53,0 96,-22 96,-80 0,-142 -115,-198 -252,-198 -53,0 -95,22 -95,80 z"
       transform="scale(0.0029,-0.0029)" />
  </g>
  <g
     id="g762"
     transform="translate(43.2804,4.8648069)">
    <path
       id="path760"
       fill="currentColor"
       d="m 308,62 c 0,23 -20,39 -40,39 -4,0 -7,0 -11,-1 C 228,92 183,62 148,39 113,16 69,-13 49,-36 43,-44 39,-52 39,-62 c 0,-23 20,-39 40,-39 4,0 7,0 11,1 29,8 74,38 109,61 35,23 79,52 99,75 6,8 10,16 10,26 z M 0,-59 c 0,142 114,198 251,198 53,0 96,-22 96,-80 0,-142 -115,-198 -252,-198 -53,0 -95,22 -95,80 z"
       transform="scale(0.0029,-0.0029)" />
  </g>
  <g
     id="g766"
     transform="translate(42.7695,3.0227069)">
    <path
       id="path764"
       fill="currentColor"
       d="m 208,139 c 61,0 117,-33 117,-99 0,-71 -52,-119 -99,-147 -34,-20 -71,-32 -110,-32 -61,0 -116,33 -116,99 0,71 51,119 98,147 34,20 71,32 110,32 z"
       transform="scale(0.0029,-0.0029)" />
  </g>
  <g
     id="g770"
     transform="translate(52.4638,3.7595069)">
    <path
       id="path768"
       fill="currentColor"
       d="m 208,139 c 61,0 117,-33 117,-99 0,-71 -52,-119 -99,-147 -34,-20 -71,-32 -110,-32 -61,0 -116,33 -116,99 0,71 51,119 98,147 34,20 71,32 110,32 z"
       transform="scale(0.0029,-0.0029)" />
  </g>
  <g
     id="g774"
     transform="translate(48.9844,1.0385069)">
    <path
       id="path772"
       fill="currentColor"
       d="m 0,0 c 0,-196 207,-334 207,-530 0,-71 -15,-140 -41,-206 -5,-10 -14,-13 -23,-13 -14,0 -28,10 -28,26 0,2 1,3 1,5 26,59 42,123 42,188 0,101 -90,205 -158,280 H -21 V 0 Z"
       transform="scale(0.0029,-0.0029)" />
  </g>
  <g
     id="g778"
     transform="translate(48.923,3.7595069)">
    <rect
       id="rect776"
       fill="currentColor"
       ry="0.042100001"
       height="2.2755001"
       width="0.1228"
       y="-2.7632"
       x="-0.0614" />
  </g>
  <g
     id="g782"
     transform="translate(53.3589,3.7595069)">
    <rect
       id="rect780"
       fill="currentColor"
       ry="0.042100001"
       height="2.3369"
       width="0.1228"
       y="-2.4561"
       x="-0.0614" />
  </g>
  <g
     id="g786"
     transform="translate(48.0279,3.3911069)">
    <path
       id="path784"
       fill="currentColor"
       d="m 208,139 c 61,0 117,-33 117,-99 0,-71 -52,-119 -99,-147 -34,-20 -71,-32 -110,-32 -61,0 -116,33 -116,99 0,71 51,119 98,147 34,20 71,32 110,32 z"
       transform="scale(0.0029,-0.0029)" />
  </g>
  <g
     id="g790"
     transform="translate(52.9421,4.4964069)">
    <path
       id="path788"
       fill="currentColor"
       d="m 208,139 c 61,0 117,-33 117,-99 0,-71 -52,-119 -99,-147 -34,-20 -71,-32 -110,-32 -61,0 -116,33 -116,99 0,71 51,119 98,147 34,20 71,32 110,32 z"
       transform="scale(0.0029,-0.0029)" />
  </g>
  <g
     id="g794"
     transform="translate(52.4638,7.0753069)">
    <path
       id="path792"
       fill="currentColor"
       d="m 208,139 c 61,0 117,-33 117,-99 0,-71 -52,-119 -99,-147 -34,-20 -71,-32 -110,-32 -61,0 -116,33 -116,99 0,71 51,119 98,147 34,20 71,32 110,32 z"
       transform="scale(0.0029,-0.0029)" />
  </g>
</svg>
