<?xml version="1.0" encoding="UTF-8" standalone="no"?>
<svg
   xmlns:dc="http://purl.org/dc/elements/1.1/"
   xmlns:cc="http://creativecommons.org/ns#"
   xmlns:rdf="http://www.w3.org/1999/02/22-rdf-syntax-ns#"
   xmlns:svg="http://www.w3.org/2000/svg"
   xmlns="http://www.w3.org/2000/svg"
   xmlns:sodipodi="http://sodipodi.sourceforge.net/DTD/sodipodi-0.dtd"
   xmlns:inkscape="http://www.inkscape.org/namespaces/inkscape"
   sodipodi:docname="bwv-1004_5_for_PNGs-28.svg"
   id="svg1244"
   viewBox="0 0 191.32608 10.345676"
   height="17.271421mm"
   width="319.40628mm"
   version="1.2">
  <metadata
     id="metadata1250">
    <rdf:RDF>
      <cc:Work
         rdf:about="">
        <dc:format>image/svg+xml</dc:format>
        <dc:type
           rdf:resource="http://purl.org/dc/dcmitype/StillImage" />
      </cc:Work>
    </rdf:RDF>
  </metadata>
  <defs
     id="defs1248" />
  <sodipodi:namedview
     id="namedview1246"
     inkscape:window-height="480"
     inkscape:window-width="640"
     inkscape:pageshadow="2"
     inkscape:pageopacity="0"
     guidetolerance="10"
     gridtolerance="10"
     objecttolerance="10"
     borderopacity="1"
     bordercolor="#666666"
     pagecolor="#ffffff" />
  <style
     id="style2"
     type="text/css"><![CDATA[
tspan { white-space: pre; }
]]></style>
  <g
     id="g6"
     transform="translate(0,6.293075)">
    <line
       id="line4"
       y2="0"
       x2="191.2789"
       y1="0"
       x1="0.047200002"
       stroke="currentColor"
       stroke-width="0.0944"
       stroke-linecap="round"
       stroke-linejoin="round" />
  </g>
  <g
     id="g10"
     transform="translate(0,5.556275)">
    <line
       id="line8"
       y2="0"
       x2="191.2789"
       y1="0"
       x1="0.047200002"
       stroke="currentColor"
       stroke-width="0.0944"
       stroke-linecap="round"
       stroke-linejoin="round" />
  </g>
  <g
     id="g14"
     transform="translate(0,4.819375)">
    <line
       id="line12"
       y2="0"
       x2="191.2789"
       y1="0"
       x1="0.047200002"
       stroke="currentColor"
       stroke-width="0.0944"
       stroke-linecap="round"
       stroke-linejoin="round" />
  </g>
  <g
     id="g18"
     transform="translate(0,4.082575)">
    <line
       id="line16"
       y2="0"
       x2="191.2789"
       y1="0"
       x1="0.047200002"
       stroke="currentColor"
       stroke-width="0.0944"
       stroke-linecap="round"
       stroke-linejoin="round" />
  </g>
  <g
     id="g22"
     transform="translate(0,3.345775)">
    <line
       id="line20"
       y2="0"
       x2="191.2789"
       y1="0"
       x1="0.047200002"
       stroke="currentColor"
       stroke-width="0.0944"
       stroke-linecap="round"
       stroke-linejoin="round" />
  </g>
  <g
     id="g26"
     transform="translate(66.181,4.819375)">
    <rect
       id="rect24"
       fill="currentColor"
       ry="0.0000"
       height="2.9474001"
       width="0.1794"
       y="-1.4737"
       x="0" />
  </g>
  <g
     id="g30"
     transform="translate(20.5484,4.819375)">
    <rect
       id="rect28"
       fill="currentColor"
       ry="0.0000"
       height="2.9474001"
       width="0.1794"
       y="-1.4737"
       x="0" />
  </g>
  <g
     id="g34"
     transform="translate(166.917,4.819375)">
    <rect
       id="rect32"
       fill="currentColor"
       ry="0.0000"
       height="2.9474001"
       width="0.1794"
       y="-1.4737"
       x="0" />
  </g>
  <g
     id="g38"
     transform="translate(140.4247,4.819375)">
    <rect
       id="rect36"
       fill="currentColor"
       ry="0.0000"
       height="2.9474001"
       width="0.1794"
       y="-1.4737"
       x="0" />
  </g>
  <g
     id="g42"
     transform="translate(115.6765,4.819375)">
    <rect
       id="rect40"
       fill="currentColor"
       ry="0.0000"
       height="2.9474001"
       width="0.1794"
       y="-1.4737"
       x="0" />
  </g>
  <g
     id="g46"
     transform="translate(90.1505,4.819375)">
    <rect
       id="rect44"
       fill="currentColor"
       ry="0.0000"
       height="2.9474001"
       width="0.1794"
       y="-1.4737"
       x="0" />
  </g>
  <g
     id="g50"
     transform="translate(191.1467,4.819375)">
    <rect
       id="rect48"
       fill="currentColor"
       ry="0.0000"
       height="2.9474001"
       width="0.1794"
       y="-1.4737"
       x="0" />
  </g>
  <g
     id="g54"
     transform="translate(42.8967,4.819375)">
    <rect
       id="rect52"
       fill="currentColor"
       ry="0.0000"
       height="2.9474001"
       width="0.1794"
       y="-1.4737"
       x="0" />
  </g>
  <g
     id="g58"
     transform="translate(0,7.029975)">
    <rect
       id="rect56"
       fill="currentColor"
       ry="0.084100001"
       height="0.1681"
       width="1.4347"
       y="-0.084100001"
       x="175.6497" />
  </g>
  <g
     id="g62"
     transform="translate(0,7.766775)">
    <rect
       id="rect60"
       fill="currentColor"
       ry="0.084100001"
       height="0.1681"
       width="1.4347"
       y="-0.084100001"
       x="175.6497" />
  </g>
  <g
     id="g66"
     transform="translate(0,7.029975)">
    <rect
       id="rect64"
       fill="currentColor"
       ry="0.084100001"
       height="0.1681"
       width="1.4347"
       y="-0.084100001"
       x="172.1338" />
  </g>
  <g
     id="g70"
     transform="translate(0,7.766775)">
    <rect
       id="rect68"
       fill="currentColor"
       ry="0.084100001"
       height="0.1681"
       width="1.4347"
       y="-0.084100001"
       x="172.1338" />
  </g>
  <g
     id="g74"
     transform="translate(0,7.029975)">
    <rect
       id="rect72"
       fill="currentColor"
       ry="0.084100001"
       height="0.1681"
       width="1.4347"
       y="-0.084100001"
       x="168.6179" />
  </g>
  <g
     id="g78"
     transform="translate(0,7.766775)">
    <rect
       id="rect76"
       fill="currentColor"
       ry="0.084100001"
       height="0.1681"
       width="1.4347"
       y="-0.084100001"
       x="168.6179" />
  </g>
  <g
     id="g82"
     transform="translate(0,7.029975)">
    <rect
       id="rect80"
       fill="currentColor"
       ry="0.084100001"
       height="0.1681"
       width="1.4347"
       y="-0.084100001"
       x="142.017" />
  </g>
  <g
     id="g86"
     transform="translate(0,7.029975)">
    <rect
       id="rect84"
       fill="currentColor"
       ry="0.084100001"
       height="0.1681"
       width="1.4347"
       y="-0.084100001"
       x="137.7791" />
  </g>
  <g
     id="g90"
     transform="translate(0,7.766775)">
    <rect
       id="rect88"
       fill="currentColor"
       ry="0.084100001"
       height="0.1681"
       width="1.4347"
       y="-0.084100001"
       x="137.7791" />
  </g>
  <g
     id="g94"
     transform="translate(0,7.029975)">
    <rect
       id="rect92"
       fill="currentColor"
       ry="0.084100001"
       height="0.1681"
       width="1.4347"
       y="-0.084100001"
       x="116.5168" />
  </g>
  <g
     id="g98"
     transform="translate(0,7.766775)">
    <rect
       id="rect96"
       fill="currentColor"
       ry="0.084100001"
       height="0.1681"
       width="1.4347"
       y="-0.084100001"
       x="116.5168" />
  </g>
  <g
     id="g102"
     transform="translate(0,7.029975)">
    <rect
       id="rect100"
       fill="currentColor"
       ry="0.084100001"
       height="0.1681"
       width="1.4347"
       y="-0.084100001"
       x="86.339798" />
  </g>
  <g
     id="g106"
     transform="translate(0,7.029975)">
    <rect
       id="rect104"
       fill="currentColor"
       ry="0.084100001"
       height="0.1681"
       width="1.3706"
       y="-0.084100001"
       x="82.797401" />
  </g>
  <g
     id="g110"
     transform="translate(0,7.029975)">
    <rect
       id="rect108"
       fill="currentColor"
       ry="0.084100001"
       height="0.1681"
       width="1.4347"
       y="-0.084100001"
       x="67.0214" />
  </g>
  <g
     id="g114"
     transform="translate(0,7.766775)">
    <rect
       id="rect112"
       fill="currentColor"
       ry="0.084100001"
       height="0.1681"
       width="1.4347"
       y="-0.084100001"
       x="67.0214" />
  </g>
  <g
     id="g118"
     transform="translate(0,7.029975)">
    <rect
       id="rect116"
       fill="currentColor"
       ry="0.084100001"
       height="0.1681"
       width="1.4347"
       y="-0.084100001"
       x="62.723202" />
  </g>
  <g
     id="g122"
     transform="translate(0,7.029975)">
    <rect
       id="rect120"
       fill="currentColor"
       ry="0.084100001"
       height="0.1681"
       width="1.4347"
       y="-0.084100001"
       x="58.6385" />
  </g>
  <g
     id="g126"
     transform="translate(0,7.029975)">
    <rect
       id="rect124"
       fill="currentColor"
       ry="0.084100001"
       height="0.1681"
       width="1.4347"
       y="-0.084100001"
       x="43.737099" />
  </g>
  <g
     id="g130"
     transform="translate(0,7.029975)">
    <rect
       id="rect128"
       fill="currentColor"
       ry="0.084100001"
       height="0.1681"
       width="1.4347"
       y="-0.084100001"
       x="39.086102" />
  </g>
  <g
     id="g134"
     transform="translate(0,7.029975)">
    <rect
       id="rect132"
       fill="currentColor"
       ry="0.084100001"
       height="0.1681"
       width="1.4347"
       y="-0.084100001"
       x="35.479599" />
  </g>
  <g
     id="g138"
     transform="translate(0,7.029975)">
    <rect
       id="rect136"
       fill="currentColor"
       ry="0.084100001"
       height="0.1681"
       width="1.4347"
       y="-0.084100001"
       x="21.3887" />
  </g>
  <g
     id="g142"
     transform="translate(134.2052,4.450975)">
    <path
       id="path140"
       fill="currentColor"
       d="m 208,139 c 61,0 117,-33 117,-99 0,-71 -52,-119 -99,-147 -34,-20 -71,-32 -110,-32 -61,0 -116,33 -116,99 0,71 51,119 98,147 34,20 71,32 110,32 z"
       transform="scale(0.0029,-0.0029)" />
  </g>
  <g
     id="g146"
     transform="translate(135.1003,4.819375)">
    <rect
       id="rect144"
       fill="currentColor"
       ry="0.042100001"
       height="2.0056"
       width="0.1228"
       y="-2.4933"
       x="-0.0614" />
  </g>
  <g
     id="g150"
     transform="translate(136.1117,5.924675)">
    <path
       id="path148"
       fill="currentColor"
       d="m 208,139 c 61,0 117,-33 117,-99 0,-71 -52,-119 -99,-147 -34,-20 -71,-32 -110,-32 -61,0 -116,33 -116,99 0,71 51,119 98,147 34,20 71,32 110,32 z"
       transform="scale(0.0029,-0.0029)" />
  </g>
  <g
     id="g154"
     transform="translate(137.0068,4.819375)">
    <rect
       id="rect152"
       fill="currentColor"
       ry="0.042100001"
       height="2.9138"
       width="0.1228"
       y="-1.9278001"
       x="-0.0614" />
  </g>
  <g
     id="g158"
     transform="translate(138.0182,7.766775)">
    <path
       id="path156"
       fill="currentColor"
       d="m 208,139 c 61,0 117,-33 117,-99 0,-71 -52,-119 -99,-147 -34,-20 -71,-32 -110,-32 -61,0 -116,33 -116,99 0,71 51,119 98,147 34,20 71,32 110,32 z"
       transform="scale(0.0029,-0.0029)" />
  </g>
  <g
     id="g162"
     transform="translate(138.9133,4.819375)">
    <rect
       id="rect160"
       fill="currentColor"
       ry="0.042100001"
       height="4.1904001"
       width="0.1228"
       y="-1.3623"
       x="-0.0614" />
  </g>
  <g
     id="g166"
     transform="translate(127.9858,3.714175)">
    <path
       id="path164"
       fill="currentColor"
       d="m 208,139 c 61,0 117,-33 117,-99 0,-71 -52,-119 -99,-147 -34,-20 -71,-32 -110,-32 -61,0 -116,33 -116,99 0,71 51,119 98,147 34,20 71,32 110,32 z"
       transform="scale(0.0029,-0.0029)" />
  </g>
  <g
     id="g170"
     transform="translate(128.8809,4.819375)">
    <rect
       id="rect168"
       fill="currentColor"
       ry="0.042100001"
       height="2.6041"
       width="0.1228"
       y="-3.8285999"
       x="-0.0614" />
  </g>
  <g
     id="g174"
     transform="translate(127.0463,3.714175)">
    <path
       id="path172"
       fill="currentColor"
       d="m 33,35 -2,-60 v -11 c 0,-21 2,-43 5,-64 42,38 87,81 87,138 0,32 -13,63 -41,63 C 51,101 34,69 33,35 Z M 32,446 23,109 c 25,26 59,40 95,40 50,0 82,-51 82,-105 0,-77 -80,-117 -137,-169 -18,-17 -26,-48 -52,-48 -16,0 -28,15 -28,32 l -15,587 c 10,6 21,8 32,8 11,0 22,-2 32,-8 z"
       transform="scale(0.0029,-0.0029)" />
  </g>
  <g
     id="g178"
     transform="translate(142.2561,3.714175)">
    <path
       id="path176"
       fill="currentColor"
       d="m 208,139 c 61,0 117,-33 117,-99 0,-71 -52,-119 -99,-147 -34,-20 -71,-32 -110,-32 -61,0 -116,33 -116,99 0,71 51,119 98,147 34,20 71,32 110,32 z"
       transform="scale(0.0029,-0.0029)" />
  </g>
  <g
     id="g182"
     transform="translate(130.1423,4.082575)">
    <path
       id="path180"
       fill="currentColor"
       d="m 208,139 c 61,0 117,-33 117,-99 0,-71 -52,-119 -99,-147 -34,-20 -71,-32 -110,-32 -61,0 -116,33 -116,99 0,71 51,119 98,147 34,20 71,32 110,32 z"
       transform="scale(0.0029,-0.0029)" />
  </g>
  <g
     id="g186"
     transform="translate(131.0374,4.819375)">
    <rect
       id="rect184"
       fill="currentColor"
       ry="0.042100001"
       height="3.1903999"
       width="0.1228"
       y="-4.0464001"
       x="-0.0614" />
  </g>
  <g
     id="g190"
     transform="translate(132.2987,3.714175)">
    <path
       id="path188"
       fill="currentColor"
       d="m 208,139 c 61,0 117,-33 117,-99 0,-71 -52,-119 -99,-147 -34,-20 -71,-32 -110,-32 -61,0 -116,33 -116,99 0,71 51,119 98,147 34,20 71,32 110,32 z"
       transform="scale(0.0029,-0.0029)" />
  </g>
  <g
     id="g194"
     transform="translate(133.1939,4.819375)">
    <rect
       id="rect192"
       fill="currentColor"
       ry="0.042100001"
       height="1.8343"
       width="0.1228"
       y="-3.0588"
       x="-0.0614" />
  </g>
  <g
     id="g198"
     transform="translate(142.3789,9.566775)">
    <path
       id="path196"
       fill="currentColor"
       d="m 0,250 c 94,60 217,150 217,259 0,56 -15,110 -41,160 v 6 c 0,16 14,26 28,26 9,0 17,-4 22,-14 25,-56 40,-116 40,-178 C 266,306 0,203 0,0 h -21 v 250 z"
       transform="scale(0.0029,-0.0029)" />
  </g>
  <g
     id="g202"
     transform="translate(141.3166,3.714175)">
    <path
       id="path200"
       fill="currentColor"
       d="m 33,35 -2,-60 v -11 c 0,-21 2,-43 5,-64 42,38 87,81 87,138 0,32 -13,63 -41,63 C 51,101 34,69 33,35 Z M 32,446 23,109 c 25,26 59,40 95,40 50,0 82,-51 82,-105 0,-77 -80,-117 -137,-169 -18,-17 -26,-48 -52,-48 -16,0 -28,15 -28,32 l -15,587 c 10,6 21,8 32,8 11,0 22,-2 32,-8 z"
       transform="scale(0.0029,-0.0029)" />
  </g>
  <g
     id="g206"
     transform="translate(142.3175,4.819375)">
    <rect
       id="rect204"
       fill="currentColor"
       ry="0.042100001"
       height="2.0913"
       width="0.1228"
       y="2.6982"
       x="-0.0614" />
  </g>
  <g
     id="g210"
     transform="translate(146.5434,4.450975)">
    <path
       id="path208"
       fill="currentColor"
       d="m 208,139 c 61,0 117,-33 117,-99 0,-71 -52,-119 -99,-147 -34,-20 -71,-32 -110,-32 -61,0 -116,33 -116,99 0,71 51,119 98,147 34,20 71,32 110,32 z"
       transform="scale(0.0029,-0.0029)" />
  </g>
  <g
     id="g214"
     transform="translate(147.4385,4.819375)">
    <rect
       id="rect212"
       fill="currentColor"
       ry="0.042100001"
       height="2.0982001"
       width="0.1228"
       y="-2.5859001"
       x="-0.0614" />
  </g>
  <g
     id="g218"
     transform="translate(145.3829,4.450975)">
    <path
       id="path216"
       fill="currentColor"
       d="m 0,114 c 0,12 7,22 18,26 l 37,15 v 151 c 0,12 10,22 22,22 12,0 22,-10 22,-22 V 172 l 77,29 v 152 c 0,12 10,22 22,22 12,0 22,-10 22,-22 V 219 l 16,6 c 3,1 8,2 11,2 15,0 28,-12 28,-28 v -50 c 0,-12 -7,-23 -18,-27 L 220,108 V -44 l 16,7 c 3,1 8,2 11,2 15,0 28,-13 28,-29 v -50 c 0,-12 -7,-22 -18,-26 l -37,-15 v -151 c 0,-12 -10,-22 -22,-22 -12,0 -22,10 -22,22 v 134 l -77,-29 v -152 c 0,-12 -10,-22 -22,-22 -12,0 -22,10 -22,22 v 134 l -16,-6 c -3,-1 -8,-2 -11,-2 -15,0 -28,12 -28,28 v 50 c 0,12 7,23 18,27 l 37,14 V 44 L 39,37 C 36,36 31,35 28,35 13,35 0,48 0,64 Z M 176,91 99,61 V -91 l 77,30 z"
       transform="scale(0.0029,-0.0029)" />
  </g>
  <g
     id="g222"
     transform="translate(142.7343,5.924675)">
    <path
       id="path220"
       fill="currentColor"
       d="m 208,139 c 61,0 117,-33 117,-99 0,-71 -52,-119 -99,-147 -34,-20 -71,-32 -110,-32 -61,0 -116,33 -116,99 0,71 51,119 98,147 34,20 71,32 110,32 z"
       transform="scale(0.0029,-0.0029)" />
  </g>
  <g
     id="g226"
     transform="translate(142.2561,7.398375)">
    <path
       id="path224"
       fill="currentColor"
       d="m 208,139 c 61,0 117,-33 117,-99 0,-71 -52,-119 -99,-147 -34,-20 -71,-32 -110,-32 -61,0 -116,33 -116,99 0,71 51,119 98,147 34,20 71,32 110,32 z"
       transform="scale(0.0029,-0.0029)" />
  </g>
  <g
     id="g230"
     transform="translate(144.5613,3.714175)">
    <path
       id="path228"
       fill="currentColor"
       d="M 0,0 C 0,30 25,55 55,55 85,55 109,30 109,0 109,-30 85,-55 55,-55 25,-55 0,-30 0,0 Z"
       transform="scale(0.0029,-0.0029)" />
  </g>
  <g
     id="g234"
     transform="translate(143.1512,4.819375)">
    <rect
       id="rect232"
       fill="currentColor"
       ry="0.042100001"
       height="1.8456"
       width="0.1228"
       y="-3.0701001"
       x="-0.0614" />
  </g>
  <g
     id="g238"
     transform="translate(149.595,4.819375)">
    <rect
       id="rect236"
       fill="currentColor"
       ry="0.042100001"
       height="2.0836"
       width="0.1228"
       y="-2.9396999"
       x="-0.0614" />
  </g>
  <g
     id="g242"
     transform="translate(148.6999,4.082575)">
    <path
       id="path240"
       fill="currentColor"
       d="m 208,139 c 61,0 117,-33 117,-99 0,-71 -52,-119 -99,-147 -34,-20 -71,-32 -110,-32 -61,0 -116,33 -116,99 0,71 51,119 98,147 34,20 71,32 110,32 z"
       transform="scale(0.0029,-0.0029)" />
  </g>
  <g
     id="g246"
     transform="translate(144.5613,5.924675)">
    <path
       id="path244"
       fill="currentColor"
       d="M 0,0 C 0,30 25,55 55,55 85,55 109,30 109,0 109,-30 85,-55 55,-55 25,-55 0,-30 0,0 Z"
       transform="scale(0.0029,-0.0029)" />
  </g>
  <g
     id="g250"
     transform="translate(143.6294,4.819375)">
    <rect
       id="rect248"
       fill="currentColor"
       ry="0.042100001"
       height="2.4597001"
       width="0.1228"
       y="-1.4737"
       x="-0.0614" />
  </g>
  <g
     id="g254"
     transform="translate(143.6908,3.387875)">
    <path
       id="path252"
       fill="currentColor"
       d="m 0,0 c 0,-196 207,-334 207,-530 0,-71 -15,-140 -41,-206 -5,-10 -14,-13 -23,-13 -14,0 -28,10 -28,26 0,2 1,3 1,5 26,59 42,123 42,188 0,101 -90,205 -158,280 H -21 V 0 Z"
       transform="scale(0.0029,-0.0029)" />
  </g>
  <g
     id="g258"
     transform="translate(144.5613,7.398375)">
    <path
       id="path256"
       fill="currentColor"
       d="M 0,0 C 0,30 25,55 55,55 85,55 109,30 109,0 109,-30 85,-55 55,-55 25,-55 0,-30 0,0 Z"
       transform="scale(0.0029,-0.0029)" />
  </g>
  <g
     id="g262"
     transform="translate(109.29,3.714175)">
    <path
       id="path260"
       fill="currentColor"
       d="m 208,139 c 61,0 117,-33 117,-99 0,-71 -52,-119 -99,-147 -34,-20 -71,-32 -110,-32 -61,0 -116,33 -116,99 0,71 51,119 98,147 34,20 71,32 110,32 z"
       transform="scale(0.0029,-0.0029)" />
  </g>
  <g
     id="g266"
     transform="translate(110.1851,4.819375)">
    <rect
       id="rect264"
       fill="currentColor"
       ry="0.042100001"
       height="2.0913"
       width="0.1228"
       y="-3.3158"
       x="-0.0614" />
  </g>
  <g
     id="g270"
     transform="translate(111.4465,3.345775)">
    <path
       id="path268"
       fill="currentColor"
       d="m 208,139 c 61,0 117,-33 117,-99 0,-71 -52,-119 -99,-147 -34,-20 -71,-32 -110,-32 -61,0 -116,33 -116,99 0,71 51,119 98,147 34,20 71,32 110,32 z"
       transform="scale(0.0029,-0.0029)" />
  </g>
  <g
     id="g274"
     transform="translate(112.3416,4.819375)">
    <rect
       id="rect272"
       fill="currentColor"
       ry="0.042100001"
       height="1.7229"
       width="0.1228"
       y="-3.3158"
       x="-0.0614" />
  </g>
  <g
     id="g278"
     transform="translate(113.353,5.187875)">
    <path
       id="path276"
       fill="currentColor"
       d="m 208,139 c 61,0 117,-33 117,-99 0,-71 -52,-119 -99,-147 -34,-20 -71,-32 -110,-32 -61,0 -116,33 -116,99 0,71 51,119 98,147 34,20 71,32 110,32 z"
       transform="scale(0.0029,-0.0029)" />
  </g>
  <g
     id="g282"
     transform="translate(114.2481,4.819375)">
    <rect
       id="rect280"
       fill="currentColor"
       ry="0.042100001"
       height="3.5650001"
       width="0.1228"
       y="-3.3158"
       x="-0.0614" />
  </g>
  <g
     id="g286"
     transform="translate(116.7559,3.345775)">
    <path
       id="path284"
       fill="currentColor"
       d="m 208,139 c 61,0 117,-33 117,-99 0,-71 -52,-119 -99,-147 -34,-20 -71,-32 -110,-32 -61,0 -116,33 -116,99 0,71 51,119 98,147 34,20 71,32 110,32 z"
       transform="scale(0.0029,-0.0029)" />
  </g>
  <g
     id="g290"
     transform="translate(117.2341,4.819375)">
    <path
       id="path288"
       fill="currentColor"
       d="m 208,139 c 61,0 117,-33 117,-99 0,-71 -52,-119 -99,-147 -34,-20 -71,-32 -110,-32 -61,0 -116,33 -116,99 0,71 51,119 98,147 34,20 71,32 110,32 z"
       transform="scale(0.0029,-0.0029)" />
  </g>
  <g
     id="g294"
     transform="translate(117.7124,6.661575)">
    <path
       id="path292"
       fill="currentColor"
       d="m 208,139 c 61,0 117,-33 117,-99 0,-71 -52,-119 -99,-147 -34,-20 -71,-32 -110,-32 -61,0 -116,33 -116,99 0,71 51,119 98,147 34,20 71,32 110,32 z"
       transform="scale(0.0029,-0.0029)" />
  </g>
  <g
     id="g298"
     transform="translate(116.7559,8.135175)">
    <path
       id="path296"
       fill="currentColor"
       d="m 208,139 c 61,0 117,-33 117,-99 0,-71 -52,-119 -99,-147 -34,-20 -71,-32 -110,-32 -61,0 -116,33 -116,99 0,71 51,119 98,147 34,20 71,32 110,32 z"
       transform="scale(0.0029,-0.0029)" />
  </g>
  <g
     id="g302"
     transform="translate(182.1037,4.819375)">
    <path
       id="path300"
       d="m 0.8951,-4.0998 c 1.0169,-0.9091 3.7961,-0.9091 4.813,0 v 0 c -1.0169,-0.7958 -3.7961,-0.7958 -4.813,0 z"
       fill="currentColor"
       stroke="currentColor"
       stroke-linecap="round"
       stroke-linejoin="round"
       stroke-width="0.0755" />
  </g>
  <g
     id="g306"
     transform="translate(102.26,4.082575)">
    <path
       id="path304"
       fill="currentColor"
       d="m 208,139 c 61,0 117,-33 117,-99 0,-71 -52,-119 -99,-147 -34,-20 -71,-32 -110,-32 -61,0 -116,33 -116,99 0,71 51,119 98,147 34,20 71,32 110,32 z"
       transform="scale(0.0029,-0.0029)" />
  </g>
  <g
     id="g310"
     transform="translate(103.1551,4.819375)">
    <rect
       id="rect308"
       fill="currentColor"
       ry="0.042100001"
       height="1.6942"
       width="0.1228"
       y="-2.5502"
       x="-0.0614" />
  </g>
  <g
     id="g314"
     transform="translate(104.977,4.450975)">
    <path
       id="path312"
       fill="currentColor"
       d="m 208,139 c 61,0 117,-33 117,-99 0,-71 -52,-119 -99,-147 -34,-20 -71,-32 -110,-32 -61,0 -116,33 -116,99 0,71 51,119 98,147 34,20 71,32 110,32 z"
       transform="scale(0.0029,-0.0029)" />
  </g>
  <g
     id="g318"
     transform="translate(105.8721,4.819375)">
    <rect
       id="rect316"
       fill="currentColor"
       ry="0.042100001"
       height="2.3241999"
       width="0.1228"
       y="-2.8118"
       x="-0.0614" />
  </g>
  <g
     id="g322"
     transform="translate(103.8165,4.450975)">
    <path
       id="path320"
       fill="currentColor"
       d="m 0,114 c 0,12 7,22 18,26 l 37,15 v 151 c 0,12 10,22 22,22 12,0 22,-10 22,-22 V 172 l 77,29 v 152 c 0,12 10,22 22,22 12,0 22,-10 22,-22 V 219 l 16,6 c 3,1 8,2 11,2 15,0 28,-12 28,-28 v -50 c 0,-12 -7,-23 -18,-27 L 220,108 V -44 l 16,7 c 3,1 8,2 11,2 15,0 28,-13 28,-29 v -50 c 0,-12 -7,-22 -18,-26 l -37,-15 v -151 c 0,-12 -10,-22 -22,-22 -12,0 -22,10 -22,22 v 134 l -77,-29 v -152 c 0,-12 -10,-22 -22,-22 -12,0 -22,10 -22,22 v 134 l -16,-6 c -3,-1 -8,-2 -11,-2 -15,0 -28,12 -28,28 v 50 c 0,12 7,23 18,27 l 37,14 V 44 L 39,37 C 36,36 31,35 28,35 13,35 0,48 0,64 Z M 176,91 99,61 V -91 l 77,30 z"
       transform="scale(0.0029,-0.0029)" />
  </g>
  <g
     id="g326"
     transform="translate(107.1335,4.082575)">
    <path
       id="path324"
       fill="currentColor"
       d="m 208,139 c 61,0 117,-33 117,-99 0,-71 -52,-119 -99,-147 -34,-20 -71,-32 -110,-32 -61,0 -116,33 -116,99 0,71 51,119 98,147 34,20 71,32 110,32 z"
       transform="scale(0.0029,-0.0029)" />
  </g>
  <g
     id="g330"
     transform="translate(108.0286,4.819375)">
    <rect
       id="rect328"
       fill="currentColor"
       ry="0.042100001"
       height="2.4597001"
       width="0.1228"
       y="-3.3158"
       x="-0.0614" />
  </g>
  <g
     id="g334"
     transform="translate(121.4594,4.819375)">
    <rect
       id="rect332"
       fill="currentColor"
       ry="0.042100001"
       height="3.9563999"
       width="0.1228"
       y="-2.2335"
       x="-0.0614" />
  </g>
  <g
     id="g338"
     transform="translate(120.5643,6.661575)">
    <path
       id="path336"
       fill="currentColor"
       d="m 208,139 c 61,0 117,-33 117,-99 0,-71 -52,-119 -99,-147 -34,-20 -71,-32 -110,-32 -61,0 -116,33 -116,99 0,71 51,119 98,147 34,20 71,32 110,32 z"
       transform="scale(0.0029,-0.0029)" />
  </g>
  <g
     id="g342"
     transform="translate(122.9708,5.556275)">
    <path
       id="path340"
       fill="currentColor"
       d="m 208,139 c 61,0 117,-33 117,-99 0,-71 -52,-119 -99,-147 -34,-20 -71,-32 -110,-32 -61,0 -116,33 -116,99 0,71 51,119 98,147 34,20 71,32 110,32 z"
       transform="scale(0.0029,-0.0029)" />
  </g>
  <g
     id="g346"
     transform="translate(123.8659,4.819375)">
    <rect
       id="rect344"
       fill="currentColor"
       ry="0.042100001"
       height="3.9396"
       width="0.1228"
       y="-3.322"
       x="-0.0614" />
  </g>
  <g
     id="g350"
     transform="translate(125.3773,4.819375)">
    <path
       id="path348"
       fill="currentColor"
       d="m 208,139 c 61,0 117,-33 117,-99 0,-71 -52,-119 -99,-147 -34,-20 -71,-32 -110,-32 -61,0 -116,33 -116,99 0,71 51,119 98,147 34,20 71,32 110,32 z"
       transform="scale(0.0029,-0.0029)" />
  </g>
  <g
     id="g354"
     transform="translate(119.5394,2.977275)">
    <path
       id="path352"
       fill="currentColor"
       d="M 0,0 C 0,30 25,55 55,55 85,55 109,30 109,0 109,-30 85,-55 55,-55 25,-55 0,-30 0,0 Z"
       transform="scale(0.0029,-0.0029)" />
  </g>
  <g
     id="g358"
     transform="translate(117.651,4.819375)">
    <rect
       id="rect356"
       fill="currentColor"
       ry="0.042100001"
       height="2.0683"
       width="0.1228"
       y="-3.6612"
       x="-0.0614" />
  </g>
  <g
     id="g362"
     transform="translate(119.5394,4.450975)">
    <path
       id="path360"
       fill="currentColor"
       d="M 0,0 C 0,30 25,55 55,55 85,55 109,30 109,0 109,-30 85,-55 55,-55 25,-55 0,-30 0,0 Z"
       transform="scale(0.0029,-0.0029)" />
  </g>
  <g
     id="g366"
     transform="translate(118.1292,4.819375)">
    <rect
       id="rect364"
       fill="currentColor"
       ry="0.042100001"
       height="2.3676"
       width="0.1228"
       y="-2.4868"
       x="-0.0614" />
  </g>
  <g
     id="g370"
     transform="translate(118.1906,2.374675)">
    <path
       id="path368"
       fill="currentColor"
       d="m 0,0 c 0,-196 207,-334 207,-530 0,-71 -15,-140 -41,-206 -5,-10 -14,-13 -23,-13 -14,0 -28,10 -28,26 0,2 1,3 1,5 26,59 42,123 42,188 0,101 -90,205 -158,280 H -21 V 0 Z"
       transform="scale(0.0029,-0.0029)" />
  </g>
  <g
     id="g374"
     transform="translate(126.2724,4.819375)">
    <rect
       id="rect372"
       fill="currentColor"
       ry="0.042100001"
       height="3.4459"
       width="0.1228"
       y="-3.5651"
       x="-0.0614" />
  </g>
  <g
     id="g378"
     transform="translate(119.5394,6.661575)">
    <path
       id="path376"
       fill="currentColor"
       d="M 0,0 C 0,30 25,55 55,55 85,55 109,30 109,0 109,-30 85,-55 55,-55 25,-55 0,-30 0,0 Z"
       transform="scale(0.0029,-0.0029)" />
  </g>
  <g
     id="g382"
     transform="translate(118.6075,4.819375)">
    <rect
       id="rect380"
       fill="currentColor"
       ry="0.042100001"
       height="2.4597001"
       width="0.1228"
       y="-0.73680001"
       x="-0.0614" />
  </g>
  <g
     id="g386"
     transform="translate(118.6689,4.124675)">
    <path
       id="path384"
       fill="currentColor"
       d="m 0,0 c 0,-196 207,-334 207,-530 0,-71 -15,-140 -41,-206 -5,-10 -14,-13 -23,-13 -14,0 -28,10 -28,26 0,2 1,3 1,5 26,59 42,123 42,188 0,101 -90,205 -158,280 H -21 V 0 Z"
       transform="scale(0.0029,-0.0029)" />
  </g>
  <g
     id="g390"
     transform="translate(119.5394,8.135175)">
    <path
       id="path388"
       fill="currentColor"
       d="M 0,0 C 0,30 25,55 55,55 85,55 109,30 109,0 109,-30 85,-55 55,-55 25,-55 0,-30 0,0 Z"
       transform="scale(0.0029,-0.0029)" />
  </g>
  <g
     id="g394"
     transform="translate(116.8173,4.819375)">
    <rect
       id="rect392"
       fill="currentColor"
       ry="0.042100001"
       height="2.0913"
       width="0.1228"
       y="3.4349999"
       x="-0.0614" />
  </g>
  <g
     id="g398"
     transform="translate(116.8787,10.303675)">
    <path
       id="path396"
       fill="currentColor"
       d="m 0,250 c 94,60 217,150 217,259 0,56 -15,110 -41,160 v 6 c 0,16 14,26 28,26 9,0 17,-4 22,-14 25,-56 40,-116 40,-178 C 266,306 0,203 0,0 h -21 v 250 z"
       transform="scale(0.0029,-0.0029)" />
  </g>
  <g
     id="g402"
     transform="translate(179.9472,4.819375)">
    <path
       id="path400"
       fill="currentColor"
       d="m 208,139 c 61,0 117,-33 117,-99 0,-71 -52,-119 -99,-147 -34,-20 -71,-32 -110,-32 -61,0 -116,33 -116,99 0,71 51,119 98,147 34,20 71,32 110,32 z"
       transform="scale(0.0029,-0.0029)" />
  </g>
  <g
     id="g406"
     transform="translate(180.8423,4.819375)">
    <rect
       id="rect404"
       fill="currentColor"
       ry="0.042100001"
       height="2.4651"
       width="0.1228"
       y="-2.5843999"
       x="-0.0614" />
  </g>
  <g
     id="g410"
     transform="translate(179.0914,4.819375)">
    <path
       id="path408"
       fill="currentColor"
       d="m -8,375 c 8,5 18,7 27,7 9,0 20,-2 28,-7 l -3,-196 99,24 h 4 c 11,0 20,-8 20,-19 l 8,-559 c -8,-5 -19,-7 -28,-7 -9,0 -19,2 -27,7 l 3,196 -99,-24 h -5 c -11,0 -19,8 -19,19 z M 127,109 42,89 l -2,-198 84,20 z"
       transform="scale(0.0029,-0.0029)" />
  </g>
  <g
     id="g414"
     transform="translate(182.1037,4.450975)">
    <path
       id="path412"
       fill="currentColor"
       d="m 208,139 c 61,0 117,-33 117,-99 0,-71 -52,-119 -99,-147 -34,-20 -71,-32 -110,-32 -61,0 -116,33 -116,99 0,71 51,119 98,147 34,20 71,32 110,32 z"
       transform="scale(0.0029,-0.0029)" />
  </g>
  <g
     id="g418"
     transform="translate(182.9988,4.819375)">
    <rect
       id="rect416"
       fill="currentColor"
       ry="0.042100001"
       height="3.0669"
       width="0.1228"
       y="-3.5546"
       x="-0.0614" />
  </g>
  <g
     id="g422"
     transform="translate(184.5102,3.714175)">
    <path
       id="path420"
       fill="currentColor"
       d="m 208,139 c 61,0 117,-33 117,-99 0,-71 -52,-119 -99,-147 -34,-20 -71,-32 -110,-32 -61,0 -116,33 -116,99 0,71 51,119 98,147 34,20 71,32 110,32 z"
       transform="scale(0.0029,-0.0029)" />
  </g>
  <g
     id="g426"
     transform="translate(185.4053,4.819375)">
    <rect
       id="rect424"
       fill="currentColor"
       ry="0.042100001"
       height="2.3301001"
       width="0.1228"
       y="-3.5546"
       x="-0.0614" />
  </g>
  <g
     id="g430"
     transform="translate(186.9167,2.977275)">
    <path
       id="path428"
       fill="currentColor"
       d="m 208,139 c 61,0 117,-33 117,-99 0,-71 -52,-119 -99,-147 -34,-20 -71,-32 -110,-32 -61,0 -116,33 -116,99 0,71 51,119 98,147 34,20 71,32 110,32 z"
       transform="scale(0.0029,-0.0029)" />
  </g>
  <g
     id="g434"
     transform="translate(187.8118,4.819375)">
    <rect
       id="rect432"
       fill="currentColor"
       ry="0.042100001"
       height="1.5933"
       width="0.1228"
       y="-3.5546"
       x="-0.0614" />
  </g>
  <g
     id="g438"
     transform="translate(175.8888,4.082575)">
    <path
       id="path436"
       fill="currentColor"
       d="m 208,139 c 61,0 117,-33 117,-99 0,-71 -52,-119 -99,-147 -34,-20 -71,-32 -110,-32 -61,0 -116,33 -116,99 0,71 51,119 98,147 34,20 71,32 110,32 z"
       transform="scale(0.0029,-0.0029)" />
  </g>
  <g
     id="g442"
     transform="translate(176.367,6.293075)">
    <path
       id="path440"
       fill="currentColor"
       d="m 208,139 c 61,0 117,-33 117,-99 0,-71 -52,-119 -99,-147 -34,-20 -71,-32 -110,-32 -61,0 -116,33 -116,99 0,71 51,119 98,147 34,20 71,32 110,32 z"
       transform="scale(0.0029,-0.0029)" />
  </g>
  <g
     id="g446"
     transform="translate(175.8888,7.766775)">
    <path
       id="path444"
       fill="currentColor"
       d="m 208,139 c 61,0 117,-33 117,-99 0,-71 -52,-119 -99,-147 -34,-20 -71,-32 -110,-32 -61,0 -116,33 -116,99 0,71 51,119 98,147 34,20 71,32 110,32 z"
       transform="scale(0.0029,-0.0029)" />
  </g>
  <g
     id="g450"
     transform="translate(178.194,3.714175)">
    <path
       id="path448"
       fill="currentColor"
       d="M 0,0 C 0,30 25,55 55,55 85,55 109,30 109,0 109,-30 85,-55 55,-55 25,-55 0,-30 0,0 Z"
       transform="scale(0.0029,-0.0029)" />
  </g>
  <g
     id="g454"
     transform="translate(176.7839,4.819375)">
    <rect
       id="rect452"
       fill="currentColor"
       ry="0.042100001"
       height="2.0859001"
       width="0.1228"
       y="-2.9419999"
       x="-0.0614" />
  </g>
  <g
     id="g458"
     transform="translate(178.194,5.924675)">
    <path
       id="path456"
       fill="currentColor"
       d="M 0,0 C 0,30 25,55 55,55 85,55 109,30 109,0 109,-30 85,-55 55,-55 25,-55 0,-30 0,0 Z"
       transform="scale(0.0029,-0.0029)" />
  </g>
  <g
     id="g462"
     transform="translate(177.2621,4.819375)">
    <rect
       id="rect460"
       fill="currentColor"
       ry="0.042100001"
       height="2.4597001"
       width="0.1228"
       y="-1.1052999"
       x="-0.0614" />
  </g>
  <g
     id="g466"
     transform="translate(177.3235,3.756275)">
    <path
       id="path464"
       fill="currentColor"
       d="m 0,0 c 0,-196 207,-334 207,-530 0,-71 -15,-140 -41,-206 -5,-10 -14,-13 -23,-13 -14,0 -28,10 -28,26 0,2 1,3 1,5 26,59 42,123 42,188 0,101 -90,205 -158,280 H -21 V 0 Z"
       transform="scale(0.0029,-0.0029)" />
  </g>
  <g
     id="g470"
     transform="translate(178.194,8.135175)">
    <path
       id="path468"
       fill="currentColor"
       d="M 0,0 C 0,30 25,55 55,55 85,55 109,30 109,0 109,-30 85,-55 55,-55 25,-55 0,-30 0,0 Z"
       transform="scale(0.0029,-0.0029)" />
  </g>
  <g
     id="g474"
     transform="translate(175.9502,4.819375)">
    <rect
       id="rect472"
       fill="currentColor"
       ry="0.042100001"
       height="2.0913"
       width="0.1228"
       y="3.0666001"
       x="-0.0614" />
  </g>
  <g
     id="g478"
     transform="translate(176.0116,9.935175)">
    <path
       id="path476"
       fill="currentColor"
       d="m 0,250 c 94,60 217,150 217,259 0,56 -15,110 -41,160 v 6 c 0,16 14,26 28,26 9,0 17,-4 22,-14 25,-56 40,-116 40,-178 C 266,306 0,203 0,0 h -21 v 250 z"
       transform="scale(0.0029,-0.0029)" />
  </g>
  <g
     id="g482"
     transform="translate(123.8045,1.503675)">
    <polygon
       id="polygon480"
       points="0.0421,0.1347 0.0421,-0.1347 7.2521,-0.8716 7.2521,-0.6021 "
       stroke="currentColor"
       fill="currentColor"
       stroke-width="0.0842"
       stroke-linecap="round"
       stroke-linejoin="round" />
  </g>
  <g
     id="g486"
     transform="translate(123.8045,2.110875)">
    <polygon
       id="polygon484"
       points="0.0421,0.1347 0.0421,-0.1347 7.2521,-0.8716 7.2521,-0.6021 "
       stroke="currentColor"
       fill="currentColor"
       stroke-width="0.0842"
       stroke-linecap="round"
       stroke-linejoin="round" />
  </g>
  <g
     id="g490"
     transform="translate(50.1911,4.819375)">
    <path
       id="path488"
       d="m 0.923,-2.6208 c 1.3461,-0.9432 5.6193,-0.5673 6.78,0.5965 v 0 C 6.5324,-3.0753 2.2592,-3.4512 0.923,-2.6208 Z"
       fill="currentColor"
       stroke="currentColor"
       stroke-linecap="round"
       stroke-linejoin="round"
       stroke-width="0.0755" />
  </g>
  <g
     id="g494"
     transform="translate(59.7113,4.212175)">
    <polygon
       id="polygon492"
       points="0.0421,0.1347 0.0421,-0.1347 3.6871,-1.0012 3.6871,-0.7317 "
       stroke="currentColor"
       fill="currentColor"
       stroke-width="0.0842"
       stroke-linecap="round"
       stroke-linejoin="round" />
  </g>
  <g
     id="g498"
     transform="translate(68.0942,2.479275)">
    <polygon
       id="polygon496"
       points="0.0421,0.1347 0.0421,-0.1347 4.3891,-1.1104 4.3891,-0.8409 "
       stroke="currentColor"
       fill="currentColor"
       stroke-width="0.0842"
       stroke-linecap="round"
       stroke-linejoin="round" />
  </g>
  <g
     id="g502"
     transform="translate(71.364,2.366575)">
    <polygon
       id="polygon500"
       points="0.0421,0.1347 0.0421,-0.1347 1.1193,-0.3904 1.1193,-0.121 "
       stroke="currentColor"
       fill="currentColor"
       stroke-width="0.0842"
       stroke-linecap="round"
       stroke-linejoin="round" />
  </g>
  <g
     id="g506"
     transform="translate(75.1196,2.240475)">
    <polygon
       id="polygon504"
       points="0.0421,0.1347 0.0421,-0.1347 6.0501,0.3633 6.0501,0.6328 "
       stroke="currentColor"
       fill="currentColor"
       stroke-width="0.0842"
       stroke-linecap="round"
       stroke-linejoin="round" />
  </g>
  <g
     id="g510"
     transform="translate(75.1196,2.847675)">
    <polygon
       id="polygon508"
       points="0.0421,0.1347 0.0421,-0.1347 6.0501,0.3633 6.0501,0.6328 "
       stroke="currentColor"
       fill="currentColor"
       stroke-width="0.0842"
       stroke-linecap="round"
       stroke-linejoin="round" />
  </g>
  <g
     id="g514"
     transform="translate(74.2859,4.819375)">
    <path
       id="path512"
       d="m 0.9211,-3.1192 c 1.245,-0.9068 4.8882,-0.609 5.9694,0.488 v 0 C 5.8001,-3.6152 2.1569,-3.913 0.9211,-3.1192 Z"
       fill="currentColor"
       stroke="currentColor"
       stroke-linecap="round"
       stroke-linejoin="round"
       stroke-width="0.0755" />
  </g>
  <g
     id="g518"
     transform="translate(83.8061,4.212175)">
    <polygon
       id="polygon516"
       points="0.0421,0.1347 0.0421,-0.1347 3.6871,-1.1308 3.6871,-0.8614 "
       stroke="currentColor"
       fill="currentColor"
       stroke-width="0.0842"
       stroke-linecap="round"
       stroke-linejoin="round" />
  </g>
  <g
     id="g522"
     transform="translate(92.0658,3.475375)">
    <polygon
       id="polygon520"
       points="0.0421,0.1347 0.0421,-0.1347 3.8891,0.4725 3.8891,0.742 "
       stroke="currentColor"
       fill="currentColor"
       stroke-width="0.0842"
       stroke-linecap="round"
       stroke-linejoin="round" />
  </g>
  <g
     id="g526"
     transform="translate(94.8356,4.510375)">
    <polygon
       id="polygon524"
       points="0.0421,0.1347 0.0421,-0.1347 1.1193,0.0447 1.1193,0.3141 "
       stroke="currentColor"
       fill="currentColor"
       stroke-width="0.0842"
       stroke-linecap="round"
       stroke-linejoin="round" />
  </g>
  <g
     id="g530"
     transform="translate(98.2807,2.738475)">
    <polygon
       id="polygon528"
       points="0.0421,0.1347 0.0421,-0.1347 7.6107,-0.8716 7.6107,-0.6021 "
       stroke="currentColor"
       fill="currentColor"
       stroke-width="0.0842"
       stroke-linecap="round"
       stroke-linejoin="round" />
  </g>
  <g
     id="g534"
     transform="translate(98.2807,3.345775)">
    <polygon
       id="polygon532"
       points="0.0421,0.1347 0.0421,-0.1347 7.6107,-0.8716 7.6107,-0.6021 "
       stroke="currentColor"
       fill="currentColor"
       stroke-width="0.0842"
       stroke-linecap="round"
       stroke-linejoin="round" />
  </g>
  <g
     id="g538"
     transform="translate(107.9672,1.503675)">
    <polygon
       id="polygon536"
       points="0.0421,0.1347 0.0421,-0.1347 6.3001,-0.1347 6.3001,0.1347 "
       stroke="currentColor"
       fill="currentColor"
       stroke-width="0.0842"
       stroke-linecap="round"
       stroke-linejoin="round" />
  </g>
  <g
     id="g542"
     transform="translate(107.9672,2.110875)">
    <polygon
       id="polygon540"
       points="0.0421,0.1347 0.0421,-0.1347 6.3001,-0.1347 6.3001,0.1347 "
       stroke="currentColor"
       fill="currentColor"
       stroke-width="0.0842"
       stroke-linecap="round"
       stroke-linejoin="round" />
  </g>
  <g
     id="g546"
     transform="translate(107.1335,4.819375)">
    <path
       id="path544"
       d="m 0.8951,-3.8611 c 0.9451,-0.8585 3.3678,-0.8585 4.313,0 v 0 c -0.9452,-0.7452 -3.3679,-0.7452 -4.313,0 z"
       fill="currentColor"
       stroke="currentColor"
       stroke-linecap="round"
       stroke-linejoin="round"
       stroke-width="0.0755" />
  </g>
  <g
     id="g550"
     transform="translate(117.5896,1.135175)">
    <polygon
       id="polygon548"
       points="0.0421,0.1347 0.0421,-0.1347 3.8891,1.3389 3.8891,1.6084 "
       stroke="currentColor"
       fill="currentColor"
       stroke-width="0.0842"
       stroke-linecap="round"
       stroke-linejoin="round" />
  </g>
  <g
     id="g554"
     transform="translate(120.3594,2.780775)">
    <polygon
       id="polygon552"
       points="0.0421,0.1347 0.0421,-0.1347 1.1193,0.3006 1.1193,0.5701 "
       stroke="currentColor"
       fill="currentColor"
       stroke-width="0.0842"
       stroke-linecap="round"
       stroke-linejoin="round" />
  </g>
  <g
     id="g558"
     transform="translate(51.0248,2.738475)">
    <polygon
       id="polygon556"
       points="0.0421,0.1347 0.0421,-0.1347 6.8607,0.4725 6.8607,0.742 "
       stroke="currentColor"
       fill="currentColor"
       stroke-width="0.0842"
       stroke-linecap="round"
       stroke-linejoin="round" />
  </g>
  <g
     id="g562"
     transform="translate(51.0248,3.345775)">
    <polygon
       id="polygon560"
       points="0.0421,0.1347 0.0421,-0.1347 6.8607,0.4725 6.8607,0.742 "
       stroke="currentColor"
       fill="currentColor"
       stroke-width="0.0842"
       stroke-linecap="round"
       stroke-linejoin="round" />
  </g>
  <g
     id="g566"
     transform="translate(133.1325,1.742475)">
    <polygon
       id="polygon564"
       points="0.0421,0.1347 0.0421,-0.1347 5.8001,1.5982 5.8001,1.8677 "
       stroke="currentColor"
       fill="currentColor"
       stroke-width="0.0842"
       stroke-linecap="round"
       stroke-linejoin="round" />
  </g>
  <g
     id="g570"
     transform="translate(133.1325,2.349675)">
    <polygon
       id="polygon568"
       points="0.0421,0.1347 0.0421,-0.1347 5.8001,1.5982 5.8001,1.8677 "
       stroke="currentColor"
       fill="currentColor"
       stroke-width="0.0842"
       stroke-linecap="round"
       stroke-linejoin="round" />
  </g>
  <g
     id="g574"
     transform="translate(132.2987,4.819375)">
    <path
       id="path572"
       d="m 0.9858,-3.604 c 1.4015,-0.6311 4.8886,0.4033 5.7194,1.6965 v 0 C 5.8422,-3.0921 2.3551,-4.1264 0.9858,-3.604 Z"
       fill="currentColor"
       stroke="currentColor"
       stroke-linecap="round"
       stroke-linejoin="round"
       stroke-width="0.0755" />
  </g>
  <g
     id="g578"
     transform="translate(143.0898,1.742475)">
    <polygon
       id="polygon576"
       points="0.0421,0.1347 0.0421,-0.1347 4.368,0.3633 4.368,0.6328 "
       stroke="currentColor"
       fill="currentColor"
       stroke-width="0.0842"
       stroke-linecap="round"
       stroke-linejoin="round" />
  </g>
  <g
     id="g582"
     transform="translate(146.3385,2.716575)">
    <polygon
       id="polygon580"
       points="0.0421,0.1347 0.0421,-0.1347 1.1193,-0.0036 1.1193,0.2659 "
       stroke="currentColor"
       fill="currentColor"
       stroke-width="0.0842"
       stroke-linecap="round"
       stroke-linejoin="round" />
  </g>
  <g
     id="g586"
     transform="translate(149.5336,1.872075)">
    <polygon
       id="polygon584"
       points="0.0421,0.1347 0.0421,-0.1347 6.8607,0.7317 6.8607,1.0012 "
       stroke="currentColor"
       fill="currentColor"
       stroke-width="0.0842"
       stroke-linecap="round"
       stroke-linejoin="round" />
  </g>
  <g
     id="g590"
     transform="translate(149.5336,2.479275)">
    <polygon
       id="polygon588"
       points="0.0421,0.1347 0.0421,-0.1347 6.8607,0.7317 6.8607,1.0012 "
       stroke="currentColor"
       fill="currentColor"
       stroke-width="0.0842"
       stroke-linecap="round"
       stroke-linejoin="round" />
  </g>
  <g
     id="g594"
     transform="translate(158.4701,3.345775)">
    <polygon
       id="polygon592"
       points="0.0421,0.1347 0.0421,-0.1347 7.0021,-0.1347 7.0021,0.1347 "
       stroke="currentColor"
       fill="currentColor"
       stroke-width="0.0842"
       stroke-linecap="round"
       stroke-linejoin="round" />
  </g>
  <g
     id="g598"
     transform="translate(158.4701,3.952975)">
    <polygon
       id="polygon596"
       points="0.0421,0.1347 0.0421,-0.1347 7.0021,-0.1347 7.0021,0.1347 "
       stroke="currentColor"
       fill="currentColor"
       stroke-width="0.0842"
       stroke-linecap="round"
       stroke-linejoin="round" />
  </g>
  <g
     id="g602"
     transform="translate(157.6364,4.819375)">
    <path
       id="path600"
       d="m 0.8951,-2.0189 c 1.2704,-1.0643 5.6511,-1.0643 6.9214,0 v 0 c -1.2703,-0.951 -5.651,-0.951 -6.9214,0 z"
       fill="currentColor"
       stroke="currentColor"
       stroke-linecap="round"
       stroke-linejoin="round"
       stroke-width="0.0755" />
  </g>
  <g
     id="g606"
     transform="translate(169.6907,2.479275)">
    <polygon
       id="polygon604"
       points="0.0421,0.1347 0.0421,-0.1347 3.5966,-0.3735 3.5966,-0.1041 "
       stroke="currentColor"
       fill="currentColor"
       stroke-width="0.0842"
       stroke-linecap="round"
       stroke-linejoin="round" />
  </g>
  <g
     id="g610"
     transform="translate(170.169,2.479275)">
    <polygon
       id="polygon608"
       points="0.0421,0.1347 0.0421,-0.1347 3.5966,0.1245 3.5966,0.394 "
       stroke="currentColor"
       fill="currentColor"
       stroke-width="0.0842"
       stroke-linecap="round"
       stroke-linejoin="round" />
  </g>
  <g
     id="g614"
     transform="translate(168.857,9.608875)">
    <polygon
       id="polygon612"
       points="0.0421,0.1347 0.0421,-0.1347 3.5966,0.1041 3.5966,0.3735 "
       stroke="currentColor"
       fill="currentColor"
       stroke-width="0.0842"
       stroke-linecap="round"
       stroke-linejoin="round" />
  </g>
  <g
     id="g618"
     transform="translate(176.7225,1.872075)">
    <polygon
       id="polygon616"
       points="0.0421,0.1347 0.0421,-0.1347 4.1391,0.2337 4.1391,0.5032 "
       stroke="currentColor"
       fill="currentColor"
       stroke-width="0.0842"
       stroke-linecap="round"
       stroke-linejoin="round" />
  </g>
  <g
     id="g622"
     transform="translate(179.7423,2.745375)">
    <polygon
       id="polygon620"
       points="0.0421,0.1347 0.0421,-0.1347 1.1193,-0.0324 1.1193,0.2371 "
       stroke="currentColor"
       fill="currentColor"
       stroke-width="0.0842"
       stroke-linecap="round"
       stroke-linejoin="round" />
  </g>
  <g
     id="g626"
     transform="translate(182.9374,1.264875)">
    <polygon
       id="polygon624"
       points="0.0421,0.1347 0.0421,-0.1347 6.8001,-0.1347 6.8001,0.1347 "
       stroke="currentColor"
       fill="currentColor"
       stroke-width="0.0842"
       stroke-linecap="round"
       stroke-linejoin="round" />
  </g>
  <g
     id="g630"
     transform="translate(182.9374,1.872075)">
    <polygon
       id="polygon628"
       points="0.0421,0.1347 0.0421,-0.1347 6.8001,-0.1347 6.8001,0.1347 "
       stroke="currentColor"
       fill="currentColor"
       stroke-width="0.0842"
       stroke-linecap="round"
       stroke-linejoin="round" />
  </g>
  <g
     id="g634"
     transform="translate(188.8232,5.187875)">
    <path
       id="path632"
       fill="currentColor"
       d="m 208,139 c 61,0 117,-33 117,-99 0,-71 -52,-119 -99,-147 -34,-20 -71,-32 -110,-32 -61,0 -116,33 -116,99 0,71 51,119 98,147 34,20 71,32 110,32 z"
       transform="scale(0.0029,-0.0029)" />
  </g>
  <g
     id="g638"
     transform="translate(189.7183,4.819375)">
    <rect
       id="rect636"
       fill="currentColor"
       ry="0.042100001"
       height="3.8038001"
       width="0.1228"
       y="-3.5546"
       x="-0.0614" />
  </g>
  <g
     id="g642"
     transform="translate(22.4615,2.240475)">
    <polygon
       id="polygon640"
       points="0.0421,0.1347 0.0421,-0.1347 4.3891,-0.8716 4.3891,-0.6021 "
       stroke="currentColor"
       fill="currentColor"
       stroke-width="0.0842"
       stroke-linecap="round"
       stroke-linejoin="round" />
  </g>
  <g
     id="g646"
     transform="translate(25.7313,2.303975)">
    <polygon
       id="polygon644"
       points="0.0421,0.1347 0.0421,-0.1347 1.1193,-0.3279 1.1193,-0.0584 "
       stroke="currentColor"
       fill="currentColor"
       stroke-width="0.0842"
       stroke-linecap="round"
       stroke-linejoin="round" />
  </g>
  <g
     id="g650"
     transform="translate(28.6764,2.738475)">
    <polygon
       id="polygon648"
       points="0.0421,0.1347 0.0421,-0.1347 6.0501,0.4725 6.0501,0.742 "
       stroke="currentColor"
       fill="currentColor"
       stroke-width="0.0842"
       stroke-linecap="round"
       stroke-linejoin="round" />
  </g>
  <g
     id="g654"
     transform="translate(28.6764,3.345775)">
    <polygon
       id="polygon652"
       points="0.0421,0.1347 0.0421,-0.1347 6.0501,0.4725 6.0501,0.742 "
       stroke="currentColor"
       fill="currentColor"
       stroke-width="0.0842"
       stroke-linecap="round"
       stroke-linejoin="round" />
  </g>
  <g
     id="g658"
     transform="translate(27.8427,4.819375)">
    <path
       id="path656"
       d="m 0.9267,-2.62 c 1.2622,-0.8851 4.9068,-0.5219 5.9695,0.5949 v 0 C 5.8223,-3.0291 2.1777,-3.3924 0.9267,-2.62 Z"
       fill="currentColor"
       stroke="currentColor"
       stroke-linecap="round"
       stroke-linejoin="round"
       stroke-width="0.0755" />
  </g>
  <g
     id="g662"
     transform="translate(36.5524,4.212175)">
    <polygon
       id="polygon660"
       points="0.0421,0.1347 0.0421,-0.1347 3.6871,-1.1308 3.6871,-0.8614 "
       stroke="currentColor"
       fill="currentColor"
       stroke-width="0.0842"
       stroke-linecap="round"
       stroke-linejoin="round" />
  </g>
  <g
     id="g666"
     transform="translate(44.8099,2.479275)">
    <polygon
       id="polygon664"
       points="0.0421,0.1347 0.0421,-0.1347 4.3891,-0.742 4.3891,-0.4725 "
       stroke="currentColor"
       fill="currentColor"
       stroke-width="0.0842"
       stroke-linecap="round"
       stroke-linejoin="round" />
  </g>
  <g
     id="g670"
     transform="translate(48.0797,2.638375)">
    <polygon
       id="polygon668"
       points="0.0421,0.1347 0.0421,-0.1347 1.1193,-0.2939 1.1193,-0.0244 "
       stroke="currentColor"
       fill="currentColor"
       stroke-width="0.0842"
       stroke-linecap="round"
       stroke-linejoin="round" />
  </g>
  <g
     id="g674"
     transform="translate(159.5429,6.661575)">
    <path
       id="path672"
       fill="currentColor"
       d="m 208,139 c 61,0 117,-33 117,-99 0,-71 -52,-119 -99,-147 -34,-20 -71,-32 -110,-32 -61,0 -116,33 -116,99 0,71 51,119 98,147 34,20 71,32 110,32 z"
       transform="scale(0.0029,-0.0029)" />
  </g>
  <g
     id="g678"
     transform="translate(160.438,4.819375)">
    <rect
       id="rect676"
       fill="currentColor"
       ry="0.042100001"
       height="3.1966"
       width="0.1228"
       y="-1.4737"
       x="-0.0614" />
  </g>
  <g
     id="g682"
     transform="translate(162.1513,6.293075)">
    <path
       id="path680"
       fill="currentColor"
       d="m 208,139 c 61,0 117,-33 117,-99 0,-71 -52,-119 -99,-147 -34,-20 -71,-32 -110,-32 -61,0 -116,33 -116,99 0,71 51,119 98,147 34,20 71,32 110,32 z"
       transform="scale(0.0029,-0.0029)" />
  </g>
  <g
     id="g686"
     transform="translate(163.0464,4.819375)">
    <rect
       id="rect684"
       fill="currentColor"
       ry="0.042100001"
       height="2.8281"
       width="0.1228"
       y="-1.4737"
       x="-0.0614" />
  </g>
  <g
     id="g690"
     transform="translate(161.2119,6.293075)">
    <path
       id="path688"
       fill="currentColor"
       d="m 33,35 -2,-60 v -11 c 0,-21 2,-43 5,-64 42,38 87,81 87,138 0,32 -13,63 -41,63 C 51,101 34,69 33,35 Z M 32,446 23,109 c 25,26 59,40 95,40 50,0 82,-51 82,-105 0,-77 -80,-117 -137,-169 -18,-17 -26,-48 -52,-48 -16,0 -28,15 -28,32 l -15,587 c 10,6 21,8 32,8 11,0 22,-2 32,-8 z"
       transform="scale(0.0029,-0.0029)" />
  </g>
  <g
     id="g694"
     transform="translate(164.5578,5.556275)">
    <path
       id="path692"
       fill="currentColor"
       d="m 208,139 c 61,0 117,-33 117,-99 0,-71 -52,-119 -99,-147 -34,-20 -71,-32 -110,-32 -61,0 -116,33 -116,99 0,71 51,119 98,147 34,20 71,32 110,32 z"
       transform="scale(0.0029,-0.0029)" />
  </g>
  <g
     id="g698"
     transform="translate(165.4529,4.819375)">
    <rect
       id="rect696"
       fill="currentColor"
       ry="0.042100001"
       height="2.0913"
       width="0.1228"
       y="-1.4737"
       x="-0.0614" />
  </g>
  <g
     id="g702"
     transform="translate(168.857,4.450975)">
    <path
       id="path700"
       fill="currentColor"
       d="m 208,139 c 61,0 117,-33 117,-99 0,-71 -52,-119 -99,-147 -34,-20 -71,-32 -110,-32 -61,0 -116,33 -116,99 0,71 51,119 98,147 34,20 71,32 110,32 z"
       transform="scale(0.0029,-0.0029)" />
  </g>
  <g
     id="g706"
     transform="translate(155.4799,5.924675)">
    <path
       id="path704"
       fill="currentColor"
       d="m 208,139 c 61,0 117,-33 117,-99 0,-71 -52,-119 -99,-147 -34,-20 -71,-32 -110,-32 -61,0 -116,33 -116,99 0,71 51,119 98,147 34,20 71,32 110,32 z"
       transform="scale(0.0029,-0.0029)" />
  </g>
  <g
     id="g710"
     transform="translate(151.5015,4.819375)">
    <rect
       id="rect708"
       fill="currentColor"
       ry="0.042100001"
       height="2.9495001"
       width="0.1228"
       y="-2.7004001"
       x="-0.0614" />
  </g>
  <g
     id="g714"
     transform="translate(152.7629,4.819375)">
    <path
       id="path712"
       fill="currentColor"
       d="m 208,139 c 61,0 117,-33 117,-99 0,-71 -52,-119 -99,-147 -34,-20 -71,-32 -110,-32 -61,0 -116,33 -116,99 0,71 51,119 98,147 34,20 71,32 110,32 z"
       transform="scale(0.0029,-0.0029)" />
  </g>
  <g
     id="g718"
     transform="translate(153.658,4.819375)">
    <rect
       id="rect716"
       fill="currentColor"
       ry="0.042100001"
       height="2.3104"
       width="0.1228"
       y="-2.4296999"
       x="-0.0614" />
  </g>
  <g
     id="g722"
     transform="translate(169.3352,5.556275)">
    <path
       id="path720"
       fill="currentColor"
       d="m 208,139 c 61,0 117,-33 117,-99 0,-71 -52,-119 -99,-147 -34,-20 -71,-32 -110,-32 -61,0 -116,33 -116,99 0,71 51,119 98,147 34,20 71,32 110,32 z"
       transform="scale(0.0029,-0.0029)" />
  </g>
  <g
     id="g726"
     transform="translate(156.375,4.819375)">
    <rect
       id="rect724"
       fill="currentColor"
       ry="0.042100001"
       height="3.0746"
       width="0.1228"
       y="-2.0885999"
       x="-0.0614" />
  </g>
  <g
     id="g730"
     transform="translate(154.3194,5.924675)">
    <path
       id="path728"
       fill="currentColor"
       d="m 0,114 c 0,12 7,22 18,26 l 37,15 v 151 c 0,12 10,22 22,22 12,0 22,-10 22,-22 V 172 l 77,29 v 152 c 0,12 10,22 22,22 12,0 22,-10 22,-22 V 219 l 16,6 c 3,1 8,2 11,2 15,0 28,-12 28,-28 v -50 c 0,-12 -7,-23 -18,-27 L 220,108 V -44 l 16,7 c 3,1 8,2 11,2 15,0 28,-13 28,-29 v -50 c 0,-12 -7,-22 -18,-26 l -37,-15 v -151 c 0,-12 -10,-22 -22,-22 -12,0 -22,10 -22,22 v 134 l -77,-29 v -152 c 0,-12 -10,-22 -22,-22 -12,0 -22,10 -22,22 v 134 l -16,-6 c -3,-1 -8,-2 -11,-2 -15,0 -28,12 -28,28 v 50 c 0,12 7,23 18,27 l 37,14 V 44 L 39,37 C 36,36 31,35 28,35 13,35 0,48 0,64 Z M 176,91 99,61 V -91 l 77,30 z"
       transform="scale(0.0029,-0.0029)" />
  </g>
  <g
     id="g734"
     transform="translate(157.6364,5.556275)">
    <path
       id="path732"
       fill="currentColor"
       d="m 208,139 c 61,0 117,-33 117,-99 0,-71 -52,-119 -99,-147 -34,-20 -71,-32 -110,-32 -61,0 -116,33 -116,99 0,71 51,119 98,147 34,20 71,32 110,32 z"
       transform="scale(0.0029,-0.0029)" />
  </g>
  <g
     id="g738"
     transform="translate(158.5315,4.819375)">
    <rect
       id="rect736"
       fill="currentColor"
       ry="0.042100001"
       height="2.0913"
       width="0.1228"
       y="-1.4737"
       x="-0.0614" />
  </g>
  <g
     id="g742"
     transform="translate(172.3729,4.082575)">
    <path
       id="path740"
       fill="currentColor"
       d="m 208,139 c 61,0 117,-33 117,-99 0,-71 -52,-119 -99,-147 -34,-20 -71,-32 -110,-32 -61,0 -116,33 -116,99 0,71 51,119 98,147 34,20 71,32 110,32 z"
       transform="scale(0.0029,-0.0029)" />
  </g>
  <g
     id="g746"
     transform="translate(172.8511,5.924675)">
    <path
       id="path744"
       fill="currentColor"
       d="m 208,139 c 61,0 117,-33 117,-99 0,-71 -52,-119 -99,-147 -34,-20 -71,-32 -110,-32 -61,0 -116,33 -116,99 0,71 51,119 98,147 34,20 71,32 110,32 z"
       transform="scale(0.0029,-0.0029)" />
  </g>
  <g
     id="g750"
     transform="translate(172.3729,8.135175)">
    <path
       id="path748"
       fill="currentColor"
       d="m 208,139 c 61,0 117,-33 117,-99 0,-71 -52,-119 -99,-147 -34,-20 -71,-32 -110,-32 -61,0 -116,33 -116,99 0,71 51,119 98,147 34,20 71,32 110,32 z"
       transform="scale(0.0029,-0.0029)" />
  </g>
  <g
     id="g754"
     transform="translate(173.268,4.819375)">
    <rect
       id="rect752"
       fill="currentColor"
       ry="0.042100001"
       height="1.7187999"
       width="0.1228"
       y="-2.5748999"
       x="-0.0614" />
  </g>
  <g
     id="g758"
     transform="translate(173.7462,4.819375)">
    <rect
       id="rect756"
       fill="currentColor"
       ry="0.042100001"
       height="3.0713"
       width="0.1228"
       y="-2.0853"
       x="-0.0614" />
  </g>
  <g
     id="g762"
     transform="translate(172.4343,4.819375)">
    <rect
       id="rect760"
       fill="currentColor"
       ry="0.042100001"
       height="1.5892"
       width="0.1228"
       y="3.4349999"
       x="-0.0614" />
  </g>
  <g
     id="g766"
     transform="translate(168.857,7.766775)">
    <path
       id="path764"
       fill="currentColor"
       d="m 208,139 c 61,0 117,-33 117,-99 0,-71 -52,-119 -99,-147 -34,-20 -71,-32 -110,-32 -61,0 -116,33 -116,99 0,71 51,119 98,147 34,20 71,32 110,32 z"
       transform="scale(0.0029,-0.0029)" />
  </g>
  <g
     id="g770"
     transform="translate(169.7521,4.819375)">
    <rect
       id="rect768"
       fill="currentColor"
       ry="0.042100001"
       height="1.8565"
       width="0.1228"
       y="-2.3441999"
       x="-0.0614" />
  </g>
  <g
     id="g774"
     transform="translate(170.2303,4.819375)">
    <rect
       id="rect772"
       fill="currentColor"
       ry="0.042100001"
       height="2.9533999"
       width="0.1228"
       y="-2.3357999"
       x="-0.0614" />
  </g>
  <g
     id="g778"
     transform="translate(150.6064,5.187875)">
    <path
       id="path776"
       fill="currentColor"
       d="m 208,139 c 61,0 117,-33 117,-99 0,-71 -52,-119 -99,-147 -34,-20 -71,-32 -110,-32 -61,0 -116,33 -116,99 0,71 51,119 98,147 34,20 71,32 110,32 z"
       transform="scale(0.0029,-0.0029)" />
  </g>
  <g
     id="g782"
     transform="translate(168.9184,4.819375)">
    <rect
       id="rect780"
       fill="currentColor"
       ry="0.042100001"
       height="1.7269"
       width="0.1228"
       y="3.0666001"
       x="-0.0614" />
  </g>
  <g
     id="g786"
     transform="translate(167.6965,4.450975)">
    <path
       id="path784"
       fill="currentColor"
       d="m 0,114 c 0,12 7,22 18,26 l 37,15 v 151 c 0,12 10,22 22,22 12,0 22,-10 22,-22 V 172 l 77,29 v 152 c 0,12 10,22 22,22 12,0 22,-10 22,-22 V 219 l 16,6 c 3,1 8,2 11,2 15,0 28,-12 28,-28 v -50 c 0,-12 -7,-23 -18,-27 L 220,108 V -44 l 16,7 c 3,1 8,2 11,2 15,0 28,-13 28,-29 v -50 c 0,-12 -7,-22 -18,-26 l -37,-15 v -151 c 0,-12 -10,-22 -22,-22 -12,0 -22,10 -22,22 v 134 l -77,-29 v -152 c 0,-12 -10,-22 -22,-22 -12,0 -22,10 -22,22 v 134 l -16,-6 c -3,-1 -8,-2 -11,-2 -15,0 -28,12 -28,28 v 50 c 0,12 7,23 18,27 l 37,14 V 44 L 39,37 C 36,36 31,35 28,35 13,35 0,48 0,64 Z M 176,91 99,61 V -91 l 77,30 z"
       transform="scale(0.0029,-0.0029)" />
  </g>
  <g
     id="g790"
     transform="translate(39.8034,6.293075)">
    <path
       id="path788"
       fill="currentColor"
       d="m 208,139 c 61,0 117,-33 117,-99 0,-71 -52,-119 -99,-147 -34,-20 -71,-32 -110,-32 -61,0 -116,33 -116,99 0,71 51,119 98,147 34,20 71,32 110,32 z"
       transform="scale(0.0029,-0.0029)" />
  </g>
  <g
     id="g794"
     transform="translate(39.3252,7.029975)">
    <path
       id="path792"
       fill="currentColor"
       d="m 208,139 c 61,0 117,-33 117,-99 0,-71 -52,-119 -99,-147 -34,-20 -71,-32 -110,-32 -61,0 -116,33 -116,99 0,71 51,119 98,147 34,20 71,32 110,32 z"
       transform="scale(0.0029,-0.0029)" />
  </g>
  <g
     id="g798"
     transform="translate(40.2203,4.819375)">
    <rect
       id="rect796"
       fill="currentColor"
       ry="0.042100001"
       height="1.8361"
       width="0.1228"
       y="-1.5869"
       x="-0.0614" />
  </g>
  <g
     id="g802"
     transform="translate(40.6985,4.819375)">
    <rect
       id="rect800"
       fill="currentColor"
       ry="0.042100001"
       height="2.4597001"
       width="0.1228"
       y="-1.1052999"
       x="-0.0614" />
  </g>
  <g
     id="g806"
     transform="translate(40.7599,3.756275)">
    <path
       id="path804"
       fill="currentColor"
       d="m 0,0 c 0,-196 207,-334 207,-530 0,-71 -15,-140 -41,-206 -5,-10 -14,-13 -23,-13 -14,0 -28,10 -28,26 0,2 1,3 1,5 26,59 42,123 42,188 0,101 -90,205 -158,280 H -21 V 0 Z"
       transform="scale(0.0029,-0.0029)" />
  </g>
  <g
     id="g810"
     transform="translate(39.3252,5.187875)">
    <path
       id="path808"
       fill="currentColor"
       d="m 208,139 c 61,0 117,-33 117,-99 0,-71 -52,-119 -99,-147 -34,-20 -71,-32 -110,-32 -61,0 -116,33 -116,99 0,71 51,119 98,147 34,20 71,32 110,32 z"
       transform="scale(0.0029,-0.0029)" />
  </g>
  <g
     id="g814"
     transform="translate(39.3865,4.819375)">
    <rect
       id="rect812"
       fill="currentColor"
       ry="0.042100001"
       height="2.0913"
       width="0.1228"
       y="2.3297999"
       x="-0.0614" />
  </g>
  <g
     id="g818"
     transform="translate(39.4479,9.198375)">
    <path
       id="path816"
       fill="currentColor"
       d="m 0,250 c 94,60 217,150 217,259 0,56 -15,110 -41,160 v 6 c 0,16 14,26 28,26 9,0 17,-4 22,-14 25,-56 40,-116 40,-178 C 266,306 0,203 0,0 h -21 v 250 z"
       transform="scale(0.0029,-0.0029)" />
  </g>
  <g
     id="g822"
     transform="translate(43.9762,5.187875)">
    <path
       id="path820"
       fill="currentColor"
       d="m 208,139 c 61,0 117,-33 117,-99 0,-71 -52,-119 -99,-147 -34,-20 -71,-32 -110,-32 -61,0 -116,33 -116,99 0,71 51,119 98,147 34,20 71,32 110,32 z"
       transform="scale(0.0029,-0.0029)" />
  </g>
  <g
     id="g826"
     transform="translate(44.4544,6.661575)">
    <path
       id="path824"
       fill="currentColor"
       d="m 208,139 c 61,0 117,-33 117,-99 0,-71 -52,-119 -99,-147 -34,-20 -71,-32 -110,-32 -61,0 -116,33 -116,99 0,71 51,119 98,147 34,20 71,32 110,32 z"
       transform="scale(0.0029,-0.0029)" />
  </g>
  <g
     id="g830"
     transform="translate(43.9762,7.398375)">
    <path
       id="path828"
       fill="currentColor"
       d="m 208,139 c 61,0 117,-33 117,-99 0,-71 -52,-119 -99,-147 -34,-20 -71,-32 -110,-32 -61,0 -116,33 -116,99 0,71 51,119 98,147 34,20 71,32 110,32 z"
       transform="scale(0.0029,-0.0029)" />
  </g>
  <g
     id="g834"
     transform="translate(33.8122,6.293075)">
    <path
       id="path832"
       fill="currentColor"
       d="m 208,139 c 61,0 117,-33 117,-99 0,-71 -52,-119 -99,-147 -34,-20 -71,-32 -110,-32 -61,0 -116,33 -116,99 0,71 51,119 98,147 34,20 71,32 110,32 z"
       transform="scale(0.0029,-0.0029)" />
  </g>
  <g
     id="g838"
     transform="translate(30.6443,4.819375)">
    <rect
       id="rect836"
       fill="currentColor"
       ry="0.042100001"
       height="2.5023999"
       width="0.1228"
       y="-1.8848"
       x="-0.0614" />
  </g>
  <g
     id="g842"
     transform="translate(31.9057,5.187875)">
    <path
       id="path840"
       fill="currentColor"
       d="m 208,139 c 61,0 117,-33 117,-99 0,-71 -52,-119 -99,-147 -34,-20 -71,-32 -110,-32 -61,0 -116,33 -116,99 0,71 51,119 98,147 34,20 71,32 110,32 z"
       transform="scale(0.0029,-0.0029)" />
  </g>
  <g
     id="g846"
     transform="translate(32.8008,4.819375)">
    <rect
       id="rect844"
       fill="currentColor"
       ry="0.042100001"
       height="1.919"
       width="0.1228"
       y="-1.6698"
       x="-0.0614" />
  </g>
  <g
     id="g850"
     transform="translate(46.2814,5.187875)">
    <path
       id="path848"
       fill="currentColor"
       d="M 0,0 C 0,30 25,55 55,55 85,55 109,30 109,0 109,-30 85,-55 55,-55 25,-55 0,-30 0,0 Z"
       transform="scale(0.0029,-0.0029)" />
  </g>
  <g
     id="g854"
     transform="translate(34.7073,4.819375)">
    <rect
       id="rect852"
       fill="currentColor"
       ry="0.042100001"
       height="2.8343"
       width="0.1228"
       y="-1.4798"
       x="-0.0614" />
  </g>
  <g
     id="g858"
     transform="translate(35.7187,7.029975)">
    <path
       id="path856"
       fill="currentColor"
       d="m 208,139 c 61,0 117,-33 117,-99 0,-71 -52,-119 -99,-147 -34,-20 -71,-32 -110,-32 -61,0 -116,33 -116,99 0,71 51,119 98,147 34,20 71,32 110,32 z"
       transform="scale(0.0029,-0.0029)" />
  </g>
  <g
     id="g862"
     transform="translate(36.6138,4.819375)">
    <rect
       id="rect860"
       fill="currentColor"
       ry="0.042100001"
       height="2.7149"
       width="0.1228"
       y="-0.62360001"
       x="-0.0614" />
  </g>
  <g
     id="g866"
     transform="translate(48.2846,4.082575)">
    <path
       id="path864"
       fill="currentColor"
       d="m 208,139 c 61,0 117,-33 117,-99 0,-71 -52,-119 -99,-147 -34,-20 -71,-32 -110,-32 -61,0 -116,33 -116,99 0,71 51,119 98,147 34,20 71,32 110,32 z"
       transform="scale(0.0029,-0.0029)" />
  </g>
  <g
     id="g870"
     transform="translate(49.1797,4.819375)">
    <rect
       id="rect868"
       fill="currentColor"
       ry="0.042100001"
       height="2.0829"
       width="0.1228"
       y="-2.9389999"
       x="-0.0614" />
  </g>
  <g
     id="g874"
     transform="translate(50.1911,5.187875)">
    <path
       id="path872"
       fill="currentColor"
       d="m 208,139 c 61,0 117,-33 117,-99 0,-71 -52,-119 -99,-147 -34,-20 -71,-32 -110,-32 -61,0 -116,33 -116,99 0,71 51,119 98,147 34,20 71,32 110,32 z"
       transform="scale(0.0029,-0.0029)" />
  </g>
  <g
     id="g878"
     transform="translate(51.0862,4.819375)">
    <rect
       id="rect876"
       fill="currentColor"
       ry="0.042100001"
       height="2.3247001"
       width="0.1228"
       y="-2.0755"
       x="-0.0614" />
  </g>
  <g
     id="g882"
     transform="translate(52.9081,5.924675)">
    <path
       id="path880"
       fill="currentColor"
       d="m 208,139 c 61,0 117,-33 117,-99 0,-71 -52,-119 -99,-147 -34,-20 -71,-32 -110,-32 -61,0 -116,33 -116,99 0,71 51,119 98,147 34,20 71,32 110,32 z"
       transform="scale(0.0029,-0.0029)" />
  </g>
  <g
     id="g886"
     transform="translate(53.8032,4.819375)">
    <rect
       id="rect884"
       fill="currentColor"
       ry="0.042100001"
       height="2.8225"
       width="0.1228"
       y="-1.8365"
       x="-0.0614" />
  </g>
  <g
     id="g890"
     transform="translate(51.7476,5.924675)">
    <path
       id="path888"
       fill="currentColor"
       d="m 0,114 c 0,12 7,22 18,26 l 37,15 v 151 c 0,12 10,22 22,22 12,0 22,-10 22,-22 V 172 l 77,29 v 152 c 0,12 10,22 22,22 12,0 22,-10 22,-22 V 219 l 16,6 c 3,1 8,2 11,2 15,0 28,-12 28,-28 v -50 c 0,-12 -7,-23 -18,-27 L 220,108 V -44 l 16,7 c 3,1 8,2 11,2 15,0 28,-13 28,-29 v -50 c 0,-12 -7,-22 -18,-26 l -37,-15 v -151 c 0,-12 -10,-22 -22,-22 -12,0 -22,10 -22,22 v 134 l -77,-29 v -152 c 0,-12 -10,-22 -22,-22 -12,0 -22,10 -22,22 v 134 l -16,-6 c -3,-1 -8,-2 -11,-2 -15,0 -28,12 -28,28 v 50 c 0,12 7,23 18,27 l 37,14 V 44 L 39,37 C 36,36 31,35 28,35 13,35 0,48 0,64 Z M 176,91 99,61 V -91 l 77,30 z"
       transform="scale(0.0029,-0.0029)" />
  </g>
  <g
     id="g894"
     transform="translate(46.2814,7.398375)">
    <path
       id="path892"
       fill="currentColor"
       d="M 0,0 C 0,30 25,55 55,55 85,55 109,30 109,0 109,-30 85,-55 55,-55 25,-55 0,-30 0,0 Z"
       transform="scale(0.0029,-0.0029)" />
  </g>
  <g
     id="g898"
     transform="translate(44.8713,4.819375)">
    <rect
       id="rect896"
       fill="currentColor"
       ry="0.042100001"
       height="2.5978"
       width="0.1228"
       y="-2.3485999"
       x="-0.0614" />
  </g>
  <g
     id="g902"
     transform="translate(46.2814,6.661575)">
    <path
       id="path900"
       fill="currentColor"
       d="M 0,0 C 0,30 25,55 55,55 85,55 109,30 109,0 109,-30 85,-55 55,-55 25,-55 0,-30 0,0 Z"
       transform="scale(0.0029,-0.0029)" />
  </g>
  <g
     id="g906"
     transform="translate(45.3495,4.819375)">
    <rect
       id="rect904"
       fill="currentColor"
       ry="0.042100001"
       height="2.4597001"
       width="0.1228"
       y="-0.73680001"
       x="-0.0614" />
  </g>
  <g
     id="g910"
     transform="translate(45.4109,4.124675)">
    <path
       id="path908"
       fill="currentColor"
       d="m 0,0 c 0,-196 207,-334 207,-530 0,-71 -15,-140 -41,-206 -5,-10 -14,-13 -23,-13 -14,0 -28,10 -28,26 0,2 1,3 1,5 26,59 42,123 42,188 0,101 -90,205 -158,280 H -21 V 0 Z"
       transform="scale(0.0029,-0.0029)" />
  </g>
  <g
     id="g914"
     transform="translate(29.7492,5.556275)">
    <path
       id="path912"
       fill="currentColor"
       d="m 208,139 c 61,0 117,-33 117,-99 0,-71 -52,-119 -99,-147 -34,-20 -71,-32 -110,-32 -61,0 -116,33 -116,99 0,71 51,119 98,147 34,20 71,32 110,32 z"
       transform="scale(0.0029,-0.0029)" />
  </g>
  <g
     id="g918"
     transform="translate(44.0375,4.819375)">
    <rect
       id="rect916"
       fill="currentColor"
       ry="0.042100001"
       height="2.0913"
       width="0.1228"
       y="2.6982"
       x="-0.0614" />
  </g>
  <g
     id="g922"
     transform="translate(44.0989,9.566775)">
    <path
       id="path920"
       fill="currentColor"
       d="m 0,250 c 94,60 217,150 217,259 0,56 -15,110 -41,160 v 6 c 0,16 14,26 28,26 9,0 17,-4 22,-14 25,-56 40,-116 40,-178 C 266,306 0,203 0,0 h -21 v 250 z"
       transform="scale(0.0029,-0.0029)" />
  </g>
  <g
     id="g926"
     transform="translate(11.9334,4.819375)">
    <path
       id="path924"
       fill="currentColor"
       d="m 208,139 c 61,0 117,-33 117,-99 0,-71 -52,-119 -99,-147 -34,-20 -71,-32 -110,-32 -61,0 -116,33 -116,99 0,71 51,119 98,147 34,20 71,32 110,32 z"
       transform="scale(0.0029,-0.0029)" />
  </g>
  <g
     id="g930"
     transform="translate(12.4444,5.924675)">
    <path
       id="path928"
       fill="currentColor"
       d="m 308,62 c 0,23 -20,39 -40,39 -4,0 -7,0 -11,-1 C 228,92 183,62 148,39 113,16 69,-13 49,-36 43,-44 39,-52 39,-62 c 0,-23 20,-39 40,-39 4,0 7,0 11,1 29,8 74,38 109,61 35,23 79,52 99,75 6,8 10,16 10,26 z M 0,-59 c 0,142 114,198 251,198 53,0 96,-22 96,-80 0,-142 -115,-198 -252,-198 -53,0 -95,22 -95,80 z"
       transform="scale(0.0029,-0.0029)" />
  </g>
  <g
     id="g934"
     transform="translate(11.9334,6.661575)">
    <path
       id="path932"
       fill="currentColor"
       d="m 308,62 c 0,23 -20,39 -40,39 -4,0 -7,0 -11,-1 C 228,92 183,62 148,39 113,16 69,-13 49,-36 43,-44 39,-52 39,-62 c 0,-23 20,-39 40,-39 4,0 7,0 11,1 29,8 74,38 109,61 35,23 79,52 99,75 6,8 10,16 10,26 z M 0,-59 c 0,142 114,198 251,198 53,0 96,-22 96,-80 0,-142 -115,-198 -252,-198 -53,0 -95,22 -95,80 z"
       transform="scale(0.0029,-0.0029)" />
  </g>
  <g
     id="g938"
     transform="translate(13.7878,4.450975)">
    <path
       id="path936"
       fill="currentColor"
       d="M 0,0 C 0,30 25,55 55,55 85,55 109,30 109,0 109,-30 85,-55 55,-55 25,-55 0,-30 0,0 Z"
       transform="scale(0.0029,-0.0029)" />
  </g>
  <g
     id="g942"
     transform="translate(12.8285,4.819375)">
    <rect
       id="rect940"
       fill="currentColor"
       ry="0.042100001"
       height="2.3369"
       width="0.1228"
       y="-2.4561"
       x="-0.0614" />
  </g>
  <g
     id="g946"
     transform="translate(7.5633,4.819375)">
    <rect
       id="rect944"
       fill="currentColor"
       ry="0.042100001"
       height="1.7229"
       width="0.1228"
       y="1.9613"
       x="-0.0614" />
  </g>
  <g
     id="g950"
     transform="translate(13.4049,4.819375)">
    <rect
       id="rect948"
       fill="currentColor"
       ry="0.042100001"
       height="2.4047"
       width="0.1228"
       y="-1.4737"
       x="-0.0614" />
  </g>
  <g
     id="g954"
     transform="translate(11.9948,4.819375)">
    <rect
       id="rect952"
       fill="currentColor"
       ry="0.042100001"
       height="1.6677999"
       width="0.1228"
       y="2.0164001"
       x="-0.0614" />
  </g>
  <g
     id="g958"
     transform="translate(17.1919,4.819375)">
    <path
       id="path956"
       fill="currentColor"
       d="m 208,139 c 61,0 117,-33 117,-99 0,-71 -52,-119 -99,-147 -34,-20 -71,-32 -110,-32 -61,0 -116,33 -116,99 0,71 51,119 98,147 34,20 71,32 110,32 z"
       transform="scale(0.0029,-0.0029)" />
  </g>
  <g
     id="g962"
     transform="translate(0.8,5.556275)">
    <path
       id="path960"
       fill="currentColor"
       d="m 381,266 h 9 c 157,0 258,-130 258,-264 0,-77 -33,-156 -108,-212 -22,-16 -46,-28 -71,-36 2,-32 3,-65 3,-97 0,-21 -1,-43 -2,-64 -7,-122 -91,-230 -211,-230 -108,0 -197,88 -197,197 0,58 54,104 113,104 54,0 95,-48 95,-104 0,-52 -43,-95 -95,-95 -8,0 -16,2 -24,4 25,-35 65,-59 111,-59 95,0 155,92 161,190 1,20 2,39 2,59 0,28 -1,55 -3,83 -29,-5 -57,-7 -87,-7 -189,0 -333,174 -333,377 0,176 128,307 242,443 -21,62 -41,124 -50,189 -7,52 -8,106 -8,159 0,113 54,219 146,286 8,6 21,7 29,0 72,-82 136,-244 136,-357 0,-141 -83,-253 -174,-362 22,-67 41,-135 58,-204 z m 83,-466 c 64,25 108,93 108,159 0,87 -62,173 -163,187 24,-113 43,-225 55,-346 z m -126,-18 c 27,0 54,2 80,6 C 405,-87 385,30 360,147 281,140 237,88 237,31 c 0,-43 24,-89 78,-120 5,-5 8,-11 8,-17 0,-13 -11,-24 -24,-24 -3,0 -7,0 -10,2 -81,44 -119,116 -119,187 0,90 60,178 164,201 -14,56 -30,112 -47,167 C 183,305 79,182 79,23 79,-109 206,-218 338,-218 Z M 239,782 c 0,-69 22,-127 41,-183 77,97 140,199 140,323 0,49 -3,69 -19,113 C 302,990 239,890 239,782 Z"
       transform="scale(0.0029,-0.0029)" />
  </g>
  <g
     id="g966"
     transform="translate(4.4125,4.819375)">
    <path
       id="path964"
       fill="currentColor"
       d="m 33,35 -2,-60 v -11 c 0,-21 2,-43 5,-64 42,38 87,81 87,138 0,32 -13,63 -41,63 C 51,101 34,69 33,35 Z M 32,446 23,109 c 25,26 59,40 95,40 50,0 82,-51 82,-105 0,-77 -80,-117 -137,-169 -18,-17 -26,-48 -52,-48 -16,0 -28,15 -28,32 l -15,587 c 10,6 21,8 32,8 11,0 22,-2 32,-8 z"
       transform="scale(0.0029,-0.0029)" />
  </g>
  <g
     id="g970"
     transform="translate(18.087,4.819375)">
    <rect
       id="rect968"
       fill="currentColor"
       ry="0.042100001"
       height="2.3676"
       width="0.1228"
       y="-2.4868"
       x="-0.0614" />
  </g>
  <g
     id="g974"
     transform="translate(7.5019,4.082575)">
    <path
       id="path972"
       fill="currentColor"
       d="m 208,139 c 61,0 117,-33 117,-99 0,-71 -52,-119 -99,-147 -34,-20 -71,-32 -110,-32 -61,0 -116,33 -116,99 0,71 51,119 98,147 34,20 71,32 110,32 z"
       transform="scale(0.0029,-0.0029)" />
  </g>
  <g
     id="g978"
     transform="translate(7.5019,6.661575)">
    <path
       id="path976"
       fill="currentColor"
       d="m 208,139 c 61,0 117,-33 117,-99 0,-71 -52,-119 -99,-147 -34,-20 -71,-32 -110,-32 -61,0 -116,33 -116,99 0,71 51,119 98,147 34,20 71,32 110,32 z"
       transform="scale(0.0029,-0.0029)" />
  </g>
  <g
     id="g982"
     transform="translate(8.397,4.819375)">
    <rect
       id="rect980"
       fill="currentColor"
       ry="0.042100001"
       height="2.0913"
       width="0.1228"
       y="-2.9474001"
       x="-0.0614" />
  </g>
  <g
     id="g986"
     transform="translate(25.9362,3.714175)">
    <path
       id="path984"
       fill="currentColor"
       d="m 208,139 c 61,0 117,-33 117,-99 0,-71 -52,-119 -99,-147 -34,-20 -71,-32 -110,-32 -61,0 -116,33 -116,99 0,71 51,119 98,147 34,20 71,32 110,32 z"
       transform="scale(0.0029,-0.0029)" />
  </g>
  <g
     id="g990"
     transform="translate(26.8313,4.819375)">
    <rect
       id="rect988"
       fill="currentColor"
       ry="0.042100001"
       height="2.0811"
       width="0.1228"
       y="-3.3055999"
       x="-0.0614" />
  </g>
  <g
     id="g994"
     transform="translate(27.8427,4.819375)">
    <path
       id="path992"
       fill="currentColor"
       d="m 208,139 c 61,0 117,-33 117,-99 0,-71 -52,-119 -99,-147 -34,-20 -71,-32 -110,-32 -61,0 -116,33 -116,99 0,71 51,119 98,147 34,20 71,32 110,32 z"
       transform="scale(0.0029,-0.0029)" />
  </g>
  <g
     id="g998"
     transform="translate(28.7378,4.819375)">
    <rect
       id="rect996"
       fill="currentColor"
       ry="0.042100001"
       height="1.9556"
       width="0.1228"
       y="-2.0748"
       x="-0.0614" />
  </g>
  <g
     id="g1002"
     transform="translate(18.1484,2.374675)">
    <path
       id="path1000"
       fill="currentColor"
       d="m 0,0 c 0,-196 207,-334 207,-530 0,-71 -15,-140 -41,-206 -5,-10 -14,-13 -23,-13 -14,0 -28,10 -28,26 0,2 1,3 1,5 26,59 42,123 42,188 0,101 -90,205 -158,280 H -21 V 0 Z"
       transform="scale(0.0029,-0.0029)" />
  </g>
  <g
     id="g1006"
     transform="translate(21.6278,4.819375)">
    <path
       id="path1004"
       fill="currentColor"
       d="m 208,139 c 61,0 117,-33 117,-99 0,-71 -52,-119 -99,-147 -34,-20 -71,-32 -110,-32 -61,0 -116,33 -116,99 0,71 51,119 98,147 34,20 71,32 110,32 z"
       transform="scale(0.0029,-0.0029)" />
  </g>
  <g
     id="g1010"
     transform="translate(22.106,6.293075)">
    <path
       id="path1008"
       fill="currentColor"
       d="m 208,139 c 61,0 117,-33 117,-99 0,-71 -52,-119 -99,-147 -34,-20 -71,-32 -110,-32 -61,0 -116,33 -116,99 0,71 51,119 98,147 34,20 71,32 110,32 z"
       transform="scale(0.0029,-0.0029)" />
  </g>
  <g
     id="g1014"
     transform="translate(21.6278,7.029975)">
    <path
       id="path1012"
       fill="currentColor"
       d="m 208,139 c 61,0 117,-33 117,-99 0,-71 -52,-119 -99,-147 -34,-20 -71,-32 -110,-32 -61,0 -116,33 -116,99 0,71 51,119 98,147 34,20 71,32 110,32 z"
       transform="scale(0.0029,-0.0029)" />
  </g>
  <g
     id="g1018"
     transform="translate(23.933,4.450975)">
    <path
       id="path1016"
       fill="currentColor"
       d="M 0,0 C 0,30 25,55 55,55 85,55 109,30 109,0 109,-30 85,-55 55,-55 25,-55 0,-30 0,0 Z"
       transform="scale(0.0029,-0.0029)" />
  </g>
  <g
     id="g1022"
     transform="translate(22.5229,4.819375)">
    <rect
       id="rect1020"
       fill="currentColor"
       ry="0.042100001"
       height="2.4698999"
       width="0.1228"
       y="-2.5892"
       x="-0.0614" />
  </g>
  <g
     id="g1026"
     transform="translate(100.7486,4.819375)">
    <rect
       id="rect1024"
       fill="currentColor"
       ry="0.042100001"
       height="2.5676999"
       width="0.1228"
       y="-2.3185"
       x="-0.0614" />
  </g>
  <g
     id="g1030"
     transform="translate(23.933,5.924675)">
    <path
       id="path1028"
       fill="currentColor"
       d="M 0,0 C 0,30 25,55 55,55 85,55 109,30 109,0 109,-30 85,-55 55,-55 25,-55 0,-30 0,0 Z"
       transform="scale(0.0029,-0.0029)" />
  </g>
  <g
     id="g1034"
     transform="translate(23.0011,4.819375)">
    <rect
       id="rect1032"
       fill="currentColor"
       ry="0.042100001"
       height="2.4597001"
       width="0.1228"
       y="-1.1052999"
       x="-0.0614" />
  </g>
  <g
     id="g1038"
     transform="translate(23.0625,3.756275)">
    <path
       id="path1036"
       fill="currentColor"
       d="m 0,0 c 0,-196 207,-334 207,-530 0,-71 -15,-140 -41,-206 -5,-10 -14,-13 -23,-13 -14,0 -28,10 -28,26 0,2 1,3 1,5 26,59 42,123 42,188 0,101 -90,205 -158,280 H -21 V 0 Z"
       transform="scale(0.0029,-0.0029)" />
  </g>
  <g
     id="g1042"
     transform="translate(21.6892,4.819375)">
    <rect
       id="rect1040"
       fill="currentColor"
       ry="0.042100001"
       height="1.7229"
       width="0.1228"
       y="2.3297999"
       x="-0.0614" />
  </g>
  <g
     id="g1046"
     transform="translate(87.0571,6.293075)">
    <path
       id="path1044"
       fill="currentColor"
       d="m 208,139 c 61,0 117,-33 117,-99 0,-71 -52,-119 -99,-147 -34,-20 -71,-32 -110,-32 -61,0 -116,33 -116,99 0,71 51,119 98,147 34,20 71,32 110,32 z"
       transform="scale(0.0029,-0.0029)" />
  </g>
  <g
     id="g1050"
     transform="translate(82.9724,7.029975)">
    <path
       id="path1048"
       fill="currentColor"
       d="m 208,139 c 61,0 117,-33 117,-99 0,-71 -52,-119 -99,-147 -34,-20 -71,-32 -110,-32 -61,0 -116,33 -116,99 0,71 51,119 98,147 34,20 71,32 110,32 z"
       transform="scale(0.0029,-0.0029)" />
  </g>
  <g
     id="g1054"
     transform="translate(83.8675,4.819375)">
    <rect
       id="rect1052"
       fill="currentColor"
       ry="0.042100001"
       height="2.7149"
       width="0.1228"
       y="-0.62360001"
       x="-0.0614" />
  </g>
  <g
     id="g1058"
     transform="translate(81.8119,7.029975)">
    <path
       id="path1056"
       fill="currentColor"
       d="m 0,114 c 0,12 7,22 18,26 l 37,15 v 151 c 0,12 10,22 22,22 12,0 22,-10 22,-22 V 172 l 77,29 v 152 c 0,12 10,22 22,22 12,0 22,-10 22,-22 V 219 l 16,6 c 3,1 8,2 11,2 15,0 28,-12 28,-28 v -50 c 0,-12 -7,-23 -18,-27 L 220,108 V -44 l 16,7 c 3,1 8,2 11,2 15,0 28,-13 28,-29 v -50 c 0,-12 -7,-22 -18,-26 l -37,-15 v -151 c 0,-12 -10,-22 -22,-22 -12,0 -22,10 -22,22 v 134 l -77,-29 v -152 c 0,-12 -10,-22 -22,-22 -12,0 -22,10 -22,22 v 134 l -16,-6 c -3,-1 -8,-2 -11,-2 -15,0 -28,12 -28,28 v 50 c 0,12 7,23 18,27 l 37,14 V 44 L 39,37 C 36,36 31,35 28,35 13,35 0,48 0,64 Z M 176,91 99,61 V -91 l 77,30 z"
       transform="scale(0.0029,-0.0029)" />
  </g>
  <g
     id="g1062"
     transform="translate(86.5789,5.187875)">
    <path
       id="path1060"
       fill="currentColor"
       d="m 208,139 c 61,0 117,-33 117,-99 0,-71 -52,-119 -99,-147 -34,-20 -71,-32 -110,-32 -61,0 -116,33 -116,99 0,71 51,119 98,147 34,20 71,32 110,32 z"
       transform="scale(0.0029,-0.0029)" />
  </g>
  <g
     id="g1066"
     transform="translate(86.5789,7.029975)">
    <path
       id="path1064"
       fill="currentColor"
       d="m 208,139 c 61,0 117,-33 117,-99 0,-71 -52,-119 -99,-147 -34,-20 -71,-32 -110,-32 -61,0 -116,33 -116,99 0,71 51,119 98,147 34,20 71,32 110,32 z"
       transform="scale(0.0029,-0.0029)" />
  </g>
  <g
     id="g1070"
     transform="translate(87.474,4.819375)">
    <rect
       id="rect1068"
       fill="currentColor"
       ry="0.042100001"
       height="1.8361"
       width="0.1228"
       y="-1.5869"
       x="-0.0614" />
  </g>
  <g
     id="g1074"
     transform="translate(87.9522,4.819375)">
    <rect
       id="rect1072"
       fill="currentColor"
       ry="0.042100001"
       height="2.4597001"
       width="0.1228"
       y="-1.1052999"
       x="-0.0614" />
  </g>
  <g
     id="g1078"
     transform="translate(88.0136,3.756275)">
    <path
       id="path1076"
       fill="currentColor"
       d="m 0,0 c 0,-196 207,-334 207,-530 0,-71 -15,-140 -41,-206 -5,-10 -14,-13 -23,-13 -14,0 -28,10 -28,26 0,2 1,3 1,5 26,59 42,123 42,188 0,101 -90,205 -158,280 H -21 V 0 Z"
       transform="scale(0.0029,-0.0029)" />
  </g>
  <g
     id="g1082"
     transform="translate(75.181,4.819375)">
    <rect
       id="rect1080"
       fill="currentColor"
       ry="0.042100001"
       height="2.0862999"
       width="0.1228"
       y="-2.5739"
       x="-0.0614" />
  </g>
  <g
     id="g1086"
     transform="translate(73.1254,4.450975)">
    <path
       id="path1084"
       fill="currentColor"
       d="m 0,114 c 0,12 7,22 18,26 l 37,15 v 151 c 0,12 10,22 22,22 12,0 22,-10 22,-22 V 172 l 77,29 v 152 c 0,12 10,22 22,22 12,0 22,-10 22,-22 V 219 l 16,6 c 3,1 8,2 11,2 15,0 28,-12 28,-28 v -50 c 0,-12 -7,-23 -18,-27 L 220,108 V -44 l 16,7 c 3,1 8,2 11,2 15,0 28,-13 28,-29 v -50 c 0,-12 -7,-22 -18,-26 l -37,-15 v -151 c 0,-12 -10,-22 -22,-22 -12,0 -22,10 -22,22 v 134 l -77,-29 v -152 c 0,-12 -10,-22 -22,-22 -12,0 -22,10 -22,22 v 134 l -16,-6 c -3,-1 -8,-2 -11,-2 -15,0 -28,12 -28,28 v 50 c 0,12 7,23 18,27 l 37,14 V 44 L 39,37 C 36,36 31,35 28,35 13,35 0,48 0,64 Z M 176,91 99,61 V -91 l 77,30 z"
       transform="scale(0.0029,-0.0029)" />
  </g>
  <g
     id="g1090"
     transform="translate(76.1924,5.187875)">
    <path
       id="path1088"
       fill="currentColor"
       d="m 208,139 c 61,0 117,-33 117,-99 0,-71 -52,-119 -99,-147 -34,-20 -71,-32 -110,-32 -61,0 -116,33 -116,99 0,71 51,119 98,147 34,20 71,32 110,32 z"
       transform="scale(0.0029,-0.0029)" />
  </g>
  <g
     id="g1094"
     transform="translate(77.0875,4.819375)">
    <rect
       id="rect1092"
       fill="currentColor"
       ry="0.042100001"
       height="2.6673"
       width="0.1228"
       y="-2.4181001"
       x="-0.0614" />
  </g>
  <g
     id="g1098"
     transform="translate(78.3489,4.819375)">
    <path
       id="path1096"
       fill="currentColor"
       d="m 208,139 c 61,0 117,-33 117,-99 0,-71 -52,-119 -99,-147 -34,-20 -71,-32 -110,-32 -61,0 -116,33 -116,99 0,71 51,119 98,147 34,20 71,32 110,32 z"
       transform="scale(0.0029,-0.0029)" />
  </g>
  <g
     id="g1102"
     transform="translate(79.244,4.819375)">
    <rect
       id="rect1100"
       fill="currentColor"
       ry="0.042100001"
       height="2.1224999"
       width="0.1228"
       y="-2.2418001"
       x="-0.0614" />
  </g>
  <g
     id="g1106"
     transform="translate(80.2554,5.556275)">
    <path
       id="path1104"
       fill="currentColor"
       d="m 208,139 c 61,0 117,-33 117,-99 0,-71 -52,-119 -99,-147 -34,-20 -71,-32 -110,-32 -61,0 -116,33 -116,99 0,71 51,119 98,147 34,20 71,32 110,32 z"
       transform="scale(0.0029,-0.0029)" />
  </g>
  <g
     id="g1110"
     transform="translate(81.1505,4.819375)">
    <rect
       id="rect1108"
       fill="currentColor"
       ry="0.042100001"
       height="2.7035"
       width="0.1228"
       y="-2.0859001"
       x="-0.0614" />
  </g>
  <g
     id="g1114"
     transform="translate(95.0405,6.661575)">
    <path
       id="path1112"
       fill="currentColor"
       d="m 208,139 c 61,0 117,-33 117,-99 0,-71 -52,-119 -99,-147 -34,-20 -71,-32 -110,-32 -61,0 -116,33 -116,99 0,71 51,119 98,147 34,20 71,32 110,32 z"
       transform="scale(0.0029,-0.0029)" />
  </g>
  <g
     id="g1118"
     transform="translate(95.9356,4.819375)">
    <rect
       id="rect1116"
       fill="currentColor"
       ry="0.042100001"
       height="2.4691999"
       width="0.1228"
       y="-0.74629998"
       x="-0.0614" />
  </g>
  <g
     id="g1122"
     transform="translate(97.447,5.924675)">
    <path
       id="path1120"
       fill="currentColor"
       d="m 208,139 c 61,0 117,-33 117,-99 0,-71 -52,-119 -99,-147 -34,-20 -71,-32 -110,-32 -61,0 -116,33 -116,99 0,71 51,119 98,147 34,20 71,32 110,32 z"
       transform="scale(0.0029,-0.0029)" />
  </g>
  <g
     id="g1126"
     transform="translate(98.3421,4.819375)">
    <rect
       id="rect1124"
       fill="currentColor"
       ry="0.042100001"
       height="3.0727999"
       width="0.1228"
       y="-2.0868001"
       x="-0.0614" />
  </g>
  <g
     id="g1130"
     transform="translate(99.8535,5.187875)">
    <path
       id="path1128"
       fill="currentColor"
       d="m 208,139 c 61,0 117,-33 117,-99 0,-71 -52,-119 -99,-147 -34,-20 -71,-32 -110,-32 -61,0 -116,33 -116,99 0,71 51,119 98,147 34,20 71,32 110,32 z"
       transform="scale(0.0029,-0.0029)" />
  </g>
  <g
     id="g1134"
     transform="translate(92.1272,4.819375)">
    <rect
       id="rect1132"
       fill="currentColor"
       ry="0.042100001"
       height="2.3206"
       width="0.1228"
       y="-1.3346"
       x="-0.0614" />
  </g>
  <g
     id="g1138"
     transform="translate(86.6403,4.819375)">
    <rect
       id="rect1136"
       fill="currentColor"
       ry="0.042100001"
       height="2.0913"
       width="0.1228"
       y="2.3297999"
       x="-0.0614" />
  </g>
  <g
     id="g1142"
     transform="translate(86.7016,9.198375)">
    <path
       id="path1140"
       fill="currentColor"
       d="m 0,250 c 94,60 217,150 217,259 0,56 -15,110 -41,160 v 6 c 0,16 14,26 28,26 9,0 17,-4 22,-14 25,-56 40,-116 40,-178 C 266,306 0,203 0,0 h -21 v 250 z"
       transform="scale(0.0029,-0.0029)" />
  </g>
  <g
     id="g1146"
     transform="translate(91.2321,5.924675)">
    <path
       id="path1144"
       fill="currentColor"
       d="m 208,139 c 61,0 117,-33 117,-99 0,-71 -52,-119 -99,-147 -34,-20 -71,-32 -110,-32 -61,0 -116,33 -116,99 0,71 51,119 98,147 34,20 71,32 110,32 z"
       transform="scale(0.0029,-0.0029)" />
  </g>
  <g
     id="g1150"
     transform="translate(91.2321,6.661575)">
    <path
       id="path1148"
       fill="currentColor"
       d="m 208,139 c 61,0 117,-33 117,-99 0,-71 -52,-119 -99,-147 -34,-20 -71,-32 -110,-32 -61,0 -116,33 -116,99 0,71 51,119 98,147 34,20 71,32 110,32 z"
       transform="scale(0.0029,-0.0029)" />
  </g>
  <g
     id="g1154"
     transform="translate(92.5101,5.924675)">
    <path
       id="path1152"
       fill="currentColor"
       d="M 0,0 C 0,30 25,55 55,55 85,55 109,30 109,0 109,-30 85,-55 55,-55 25,-55 0,-30 0,0 Z"
       transform="scale(0.0029,-0.0029)" />
  </g>
  <g
     id="g1158"
     transform="translate(55.0646,5.556275)">
    <path
       id="path1156"
       fill="currentColor"
       d="m 208,139 c 61,0 117,-33 117,-99 0,-71 -52,-119 -99,-147 -34,-20 -71,-32 -110,-32 -61,0 -116,33 -116,99 0,71 51,119 98,147 34,20 71,32 110,32 z"
       transform="scale(0.0029,-0.0029)" />
  </g>
  <g
     id="g1162"
     transform="translate(92.5101,6.661575)">
    <path
       id="path1160"
       fill="currentColor"
       d="M 0,0 C 0,30 25,55 55,55 85,55 109,30 109,0 109,-30 85,-55 55,-55 25,-55 0,-30 0,0 Z"
       transform="scale(0.0029,-0.0029)" />
  </g>
  <g
     id="g1166"
     transform="translate(91.2935,4.819375)">
    <rect
       id="rect1164"
       fill="currentColor"
       ry="0.042100001"
       height="2.0913"
       width="0.1228"
       y="1.9613"
       x="-0.0614" />
  </g>
  <g
     id="g1170"
     transform="translate(91.3549,8.829975)">
    <path
       id="path1168"
       fill="currentColor"
       d="m 0,250 c 94,60 217,150 217,259 0,56 -15,110 -41,160 v 6 c 0,16 14,26 28,26 9,0 17,-4 22,-14 25,-56 40,-116 40,-178 C 266,306 0,203 0,0 h -21 v 250 z"
       transform="scale(0.0029,-0.0029)" />
  </g>
  <g
     id="g1174"
     transform="translate(62.9623,7.398375)">
    <path
       id="path1172"
       fill="currentColor"
       d="m 208,139 c 61,0 117,-33 117,-99 0,-71 -52,-119 -99,-147 -34,-20 -71,-32 -110,-32 -61,0 -116,33 -116,99 0,71 51,119 98,147 34,20 71,32 110,32 z"
       transform="scale(0.0029,-0.0029)" />
  </g>
  <g
     id="g1178"
     transform="translate(62.4841,5.556275)">
    <path
       id="path1176"
       fill="currentColor"
       d="m 208,139 c 61,0 117,-33 117,-99 0,-71 -52,-119 -99,-147 -34,-20 -71,-32 -110,-32 -61,0 -116,33 -116,99 0,71 51,119 98,147 34,20 71,32 110,32 z"
       transform="scale(0.0029,-0.0029)" />
  </g>
  <g
     id="g1182"
     transform="translate(67.3218,4.819375)">
    <rect
       id="rect1180"
       fill="currentColor"
       ry="0.042100001"
       height="1.7229"
       width="0.1228"
       y="3.0666001"
       x="-0.0614" />
  </g>
  <g
     id="g1186"
     transform="translate(58.8776,7.398375)">
    <path
       id="path1184"
       fill="currentColor"
       d="m 208,139 c 61,0 117,-33 117,-99 0,-71 -52,-119 -99,-147 -34,-20 -71,-32 -110,-32 -61,0 -116,33 -116,99 0,71 51,119 98,147 34,20 71,32 110,32 z"
       transform="scale(0.0029,-0.0029)" />
  </g>
  <g
     id="g1190"
     transform="translate(68.1556,4.819375)">
    <rect
       id="rect1188"
       fill="currentColor"
       ry="0.042100001"
       height="2.9712999"
       width="0.1228"
       y="-2.3536999"
       x="-0.0614" />
  </g>
  <g
     id="g1194"
     transform="translate(68.5385,5.187875)">
    <path
       id="path1192"
       fill="currentColor"
       d="M 0,0 C 0,30 25,55 55,55 85,55 109,30 109,0 109,-30 85,-55 55,-55 25,-55 0,-30 0,0 Z"
       transform="scale(0.0029,-0.0029)" />
  </g>
  <g
     id="g1198"
     transform="translate(59.7727,4.819375)">
    <rect
       id="rect1196"
       fill="currentColor"
       ry="0.042100001"
       height="3.0811999"
       width="0.1228"
       y="-0.62150002"
       x="-0.0614" />
  </g>
  <g
     id="g1202"
     transform="translate(67.2605,7.766775)">
    <path
       id="path1200"
       fill="currentColor"
       d="m 208,139 c 61,0 117,-33 117,-99 0,-71 -52,-119 -99,-147 -34,-20 -71,-32 -110,-32 -61,0 -116,33 -116,99 0,71 51,119 98,147 34,20 71,32 110,32 z"
       transform="scale(0.0029,-0.0029)" />
  </g>
  <g
     id="g1206"
     transform="translate(67.2605,5.556275)">
    <path
       id="path1204"
       fill="currentColor"
       d="m 208,139 c 61,0 117,-33 117,-99 0,-71 -52,-119 -99,-147 -34,-20 -71,-32 -110,-32 -61,0 -116,33 -116,99 0,71 51,119 98,147 34,20 71,32 110,32 z"
       transform="scale(0.0029,-0.0029)" />
  </g>
  <g
     id="g1210"
     transform="translate(74.2859,4.450975)">
    <path
       id="path1208"
       fill="currentColor"
       d="m 208,139 c 61,0 117,-33 117,-99 0,-71 -52,-119 -99,-147 -34,-20 -71,-32 -110,-32 -61,0 -116,33 -116,99 0,71 51,119 98,147 34,20 71,32 110,32 z"
       transform="scale(0.0029,-0.0029)" />
  </g>
  <g
     id="g1214"
     transform="translate(71.5689,3.714175)">
    <path
       id="path1212"
       fill="currentColor"
       d="m 208,139 c 61,0 117,-33 117,-99 0,-71 -52,-119 -99,-147 -34,-20 -71,-32 -110,-32 -61,0 -116,33 -116,99 0,71 51,119 98,147 34,20 71,32 110,32 z"
       transform="scale(0.0029,-0.0029)" />
  </g>
  <g
     id="g1218"
     transform="translate(72.464,4.819375)">
    <rect
       id="rect1216"
       fill="currentColor"
       ry="0.042100001"
       height="2.0778"
       width="0.1228"
       y="-3.3023"
       x="-0.0614" />
  </g>
  <g
     id="g1222"
     transform="translate(55.9597,4.819375)">
    <rect
       id="rect1220"
       fill="currentColor"
       ry="0.042100001"
       height="2.2644"
       width="0.1228"
       y="-1.6468"
       x="-0.0614" />
  </g>
  <g
     id="g1226"
     transform="translate(63.3792,4.819375)">
    <rect
       id="rect1224"
       fill="currentColor"
       ry="0.042100001"
       height="2.0769999"
       width="0.1228"
       y="-1.4594001"
       x="-0.0614" />
  </g>
  <g
     id="g1230"
     transform="translate(63.8574,4.819375)">
    <rect
       id="rect1228"
       fill="currentColor"
       ry="0.042100001"
       height="2.4597001"
       width="0.1228"
       y="0"
       x="-0.0614" />
  </g>
  <g
     id="g1234"
     transform="translate(57.8662,4.819375)">
    <rect
       id="rect1232"
       fill="currentColor"
       ry="0.042100001"
       height="3.2019999"
       width="0.1228"
       y="-1.4791"
       x="-0.0614" />
  </g>
  <g
     id="g1238"
     transform="translate(63.9188,4.861575)">
    <path
       id="path1236"
       fill="currentColor"
       d="m 0,0 c 0,-196 207,-334 207,-530 0,-71 -15,-140 -41,-206 -5,-10 -14,-13 -23,-13 -14,0 -28,10 -28,26 0,2 1,3 1,5 26,59 42,123 42,188 0,101 -90,205 -158,280 H -21 V 0 Z"
       transform="scale(0.0029,-0.0029)" />
  </g>
  <g
     id="g1242"
     transform="translate(56.9711,6.661575)">
    <path
       id="path1240"
       fill="currentColor"
       d="m 208,139 c 61,0 117,-33 117,-99 0,-71 -52,-119 -99,-147 -34,-20 -71,-32 -110,-32 -61,0 -116,33 -116,99 0,71 51,119 98,147 34,20 71,32 110,32 z"
       transform="scale(0.0029,-0.0029)" />
  </g>
</svg>
