<?xml version="1.0" encoding="UTF-8" standalone="no"?>
<svg
   xmlns:dc="http://purl.org/dc/elements/1.1/"
   xmlns:cc="http://creativecommons.org/ns#"
   xmlns:rdf="http://www.w3.org/1999/02/22-rdf-syntax-ns#"
   xmlns:svg="http://www.w3.org/2000/svg"
   xmlns="http://www.w3.org/2000/svg"
   xmlns:sodipodi="http://sodipodi.sourceforge.net/DTD/sodipodi-0.dtd"
   xmlns:inkscape="http://www.inkscape.org/namespaces/inkscape"
   sodipodi:docname="bwv-1004_5_for_PNGs-20.svg"
   id="svg808"
   viewBox="0 0 113.40249 11.702445"
   height="19.536457mm"
   width="189.31798mm"
   version="1.2">
  <metadata
     id="metadata814">
    <rdf:RDF>
      <cc:Work
         rdf:about="">
        <dc:format>image/svg+xml</dc:format>
        <dc:type
           rdf:resource="http://purl.org/dc/dcmitype/StillImage" />
      </cc:Work>
    </rdf:RDF>
  </metadata>
  <defs
     id="defs812" />
  <sodipodi:namedview
     id="namedview810"
     inkscape:window-height="480"
     inkscape:window-width="640"
     inkscape:pageshadow="2"
     inkscape:pageopacity="0"
     guidetolerance="10"
     gridtolerance="10"
     objecttolerance="10"
     borderopacity="1"
     bordercolor="#666666"
     pagecolor="#ffffff" />
  <style
     id="style2"
     type="text/css"><![CDATA[
tspan { white-space: pre; }
]]></style>
  <g
     id="g6"
     transform="translate(0,6.9564954)">
    <line
       id="line4"
       y2="0"
       x2="113.3553"
       y1="0"
       x1="0.047200002"
       stroke="currentColor"
       stroke-width="0.0944"
       stroke-linecap="round"
       stroke-linejoin="round" />
  </g>
  <g
     id="g10"
     transform="translate(0,6.2196954)">
    <line
       id="line8"
       y2="0"
       x2="113.3553"
       y1="0"
       x1="0.047200002"
       stroke="currentColor"
       stroke-width="0.0944"
       stroke-linecap="round"
       stroke-linejoin="round" />
  </g>
  <g
     id="g14"
     transform="translate(0,5.4827954)">
    <line
       id="line12"
       y2="0"
       x2="113.3553"
       y1="0"
       x1="0.047200002"
       stroke="currentColor"
       stroke-width="0.0944"
       stroke-linecap="round"
       stroke-linejoin="round" />
  </g>
  <g
     id="g18"
     transform="translate(0,4.7459954)">
    <line
       id="line16"
       y2="0"
       x2="113.3553"
       y1="0"
       x1="0.047200002"
       stroke="currentColor"
       stroke-width="0.0944"
       stroke-linecap="round"
       stroke-linejoin="round" />
  </g>
  <g
     id="g22"
     transform="translate(0,4.0091954)">
    <line
       id="line20"
       y2="0"
       x2="113.3553"
       y1="0"
       x1="0.047200002"
       stroke="currentColor"
       stroke-width="0.0944"
       stroke-linecap="round"
       stroke-linejoin="round" />
  </g>
  <g
     id="g26"
     transform="translate(0,3.2722954)">
    <rect
       id="rect24"
       fill="currentColor"
       ry="0.084100001"
       height="0.1681"
       width="1.4347"
       y="-0.084100001"
       x="104.3338" />
  </g>
  <g
     id="g30"
     transform="translate(0,3.2722954)">
    <rect
       id="rect28"
       fill="currentColor"
       ry="0.084100001"
       height="0.1681"
       width="1.4347"
       y="-0.084100001"
       x="102.4274" />
  </g>
  <g
     id="g34"
     transform="translate(0,7.6933954)">
    <rect
       id="rect32"
       fill="currentColor"
       ry="0.084100001"
       height="0.1681"
       width="1.4347"
       y="-0.084100001"
       x="86.454697" />
  </g>
  <g
     id="g38"
     transform="translate(0,8.4301954)">
    <rect
       id="rect36"
       fill="currentColor"
       ry="0.084100001"
       height="0.1681"
       width="1.4347"
       y="-0.084100001"
       x="86.454697" />
  </g>
  <g
     id="g42"
     transform="translate(0,7.6933954)">
    <rect
       id="rect40"
       fill="currentColor"
       ry="0.084100001"
       height="0.1681"
       width="1.4347"
       y="-0.084100001"
       x="81.839401" />
  </g>
  <g
     id="g46"
     transform="translate(0,8.4301954)">
    <rect
       id="rect44"
       fill="currentColor"
       ry="0.084100001"
       height="0.1681"
       width="1.3706"
       y="-0.084100001"
       x="81.903603" />
  </g>
  <g
     id="g50"
     transform="translate(0,7.6933954)">
    <rect
       id="rect48"
       fill="currentColor"
       ry="0.084100001"
       height="0.1681"
       width="1.4347"
       y="-0.084100001"
       x="71.498299" />
  </g>
  <g
     id="g54"
     transform="translate(0,7.6933954)">
    <rect
       id="rect52"
       fill="currentColor"
       ry="0.084100001"
       height="0.1681"
       width="1.4347"
       y="-0.084100001"
       x="69.091797" />
  </g>
  <g
     id="g58"
     transform="translate(0,8.4301954)">
    <rect
       id="rect56"
       fill="currentColor"
       ry="0.084100001"
       height="0.1681"
       width="1.4347"
       y="-0.084100001"
       x="69.091797" />
  </g>
  <g
     id="g62"
     transform="translate(0,7.6933954)">
    <rect
       id="rect60"
       fill="currentColor"
       ry="0.084100001"
       height="0.1681"
       width="1.4347"
       y="-0.084100001"
       x="67.185303" />
  </g>
  <g
     id="g66"
     transform="translate(0,7.6933954)">
    <rect
       id="rect64"
       fill="currentColor"
       ry="0.084100001"
       height="0.1681"
       width="1.4347"
       y="-0.084100001"
       x="63.122398" />
  </g>
  <g
     id="g70"
     transform="translate(0,7.6933954)">
    <rect
       id="rect68"
       fill="currentColor"
       ry="0.084100001"
       height="0.1681"
       width="1.4347"
       y="-0.084100001"
       x="60.7159" />
  </g>
  <g
     id="g74"
     transform="translate(0,7.6933954)">
    <rect
       id="rect72"
       fill="currentColor"
       ry="0.084100001"
       height="0.1681"
       width="1.4347"
       y="-0.084100001"
       x="55.915199" />
  </g>
  <g
     id="g78"
     transform="translate(0,8.4301954)">
    <rect
       id="rect76"
       fill="currentColor"
       ry="0.084100001"
       height="0.1681"
       width="1.3706"
       y="-0.084100001"
       x="55.979401" />
  </g>
  <g
     id="g82"
     transform="translate(0,7.6933954)">
    <rect
       id="rect80"
       fill="currentColor"
       ry="0.084100001"
       height="0.1681"
       width="1.4347"
       y="-0.084100001"
       x="45.5741" />
  </g>
  <g
     id="g86"
     transform="translate(0,7.6933954)">
    <rect
       id="rect84"
       fill="currentColor"
       ry="0.084100001"
       height="0.1681"
       width="1.4347"
       y="-0.084100001"
       x="43.167599" />
  </g>
  <g
     id="g90"
     transform="translate(0,8.4301954)">
    <rect
       id="rect88"
       fill="currentColor"
       ry="0.084100001"
       height="0.1681"
       width="1.4347"
       y="-0.084100001"
       x="43.167599" />
  </g>
  <g
     id="g94"
     transform="translate(0,7.6933954)">
    <rect
       id="rect92"
       fill="currentColor"
       ry="0.084100001"
       height="0.1681"
       width="1.4347"
       y="-0.084100001"
       x="41.011101" />
  </g>
  <g
     id="g98"
     transform="translate(0,7.6933954)">
    <rect
       id="rect96"
       fill="currentColor"
       ry="0.084100001"
       height="0.1681"
       width="1.4347"
       y="-0.084100001"
       x="39.104599" />
  </g>
  <g
     id="g102"
     transform="translate(0,7.6933954)">
    <rect
       id="rect100"
       fill="currentColor"
       ry="0.084100001"
       height="0.1681"
       width="1.4347"
       y="-0.084100001"
       x="34.791698" />
  </g>
  <g
     id="g106"
     transform="translate(59.8755,5.4827954)">
    <rect
       id="rect104"
       fill="currentColor"
       ry="0.0000"
       height="2.9474001"
       width="0.1794"
       y="-1.4737"
       x="0" />
  </g>
  <g
     id="g110"
     transform="translate(113.223,5.4827954)">
    <rect
       id="rect108"
       fill="currentColor"
       ry="0.0000"
       height="2.9474001"
       width="0.1794"
       y="-1.4737"
       x="0" />
  </g>
  <g
     id="g114"
     transform="translate(85.6144,5.4827954)">
    <rect
       id="rect112"
       fill="currentColor"
       ry="0.0000"
       height="2.9474001"
       width="0.1794"
       y="-1.4737"
       x="0" />
  </g>
  <g
     id="g118"
     transform="translate(33.9513,5.4827954)">
    <rect
       id="rect116"
       fill="currentColor"
       ry="0.0000"
       height="2.9474001"
       width="0.1794"
       y="-1.4737"
       x="0" />
  </g>
  <g
     id="g122"
     transform="translate(76.5504,6.5880954)">
    <path
       id="path120"
       fill="currentColor"
       d="m 208,139 c 61,0 117,-33 117,-99 0,-71 -52,-119 -99,-147 -34,-20 -71,-32 -110,-32 -61,0 -116,33 -116,99 0,71 51,119 98,147 34,20 71,32 110,32 z"
       transform="scale(0.0029,-0.0029)" />
  </g>
  <g
     id="g126"
     transform="translate(71.7374,8.0617954)">
    <path
       id="path124"
       fill="currentColor"
       d="m 208,139 c 61,0 117,-33 117,-99 0,-71 -52,-119 -99,-147 -34,-20 -71,-32 -110,-32 -61,0 -116,33 -116,99 0,71 51,119 98,147 34,20 71,32 110,32 z"
       transform="scale(0.0029,-0.0029)" />
  </g>
  <g
     id="g130"
     transform="translate(71.7988,5.4827954)">
    <rect
       id="rect128"
       fill="currentColor"
       ry="0.042100001"
       height="2.1743"
       width="0.1228"
       y="2.6982"
       x="-0.0614" />
  </g>
  <g
     id="g134"
     transform="translate(74.1439,7.3249954)">
    <path
       id="path132"
       fill="currentColor"
       d="m 208,139 c 61,0 117,-33 117,-99 0,-71 -52,-119 -99,-147 -34,-20 -71,-32 -110,-32 -61,0 -116,33 -116,99 0,71 51,119 98,147 34,20 71,32 110,32 z"
       transform="scale(0.0029,-0.0029)" />
  </g>
  <g
     id="g138"
     transform="translate(74.2053,5.4827954)">
    <rect
       id="rect136"
       fill="currentColor"
       ry="0.042100001"
       height="2.5064001"
       width="0.1228"
       y="1.9613"
       x="-0.0614" />
  </g>
  <g
     id="g142"
     transform="translate(67.4858,5.4827954)">
    <rect
       id="rect140"
       fill="currentColor"
       ry="0.042100001"
       height="1.8525"
       width="0.1228"
       y="2.6982"
       x="-0.0614" />
  </g>
  <g
     id="g146"
     transform="translate(69.3923,5.4827954)">
    <rect
       id="rect144"
       fill="currentColor"
       ry="0.042100001"
       height="1.8422"
       width="0.1228"
       y="3.4349999"
       x="-0.0614" />
  </g>
  <g
     id="g150"
     transform="translate(69.3309,8.7985954)">
    <path
       id="path148"
       fill="currentColor"
       d="m 208,139 c 61,0 117,-33 117,-99 0,-71 -52,-119 -99,-147 -34,-20 -71,-32 -110,-32 -61,0 -116,33 -116,99 0,71 51,119 98,147 34,20 71,32 110,32 z"
       transform="scale(0.0029,-0.0029)" />
  </g>
  <g
     id="g154"
     transform="translate(69.3309,4.0091954)">
    <path
       id="path152"
       fill="currentColor"
       d="m -25,-120 c 0,32 16,43 50,43 28,0 65,-8 99,-20 L 0,51 c -8,9 -11,17 -11,26 0,35 54,68 90,103 22,22 34,51 34,80 0,25 -9,50 -26,71 l -29,34 c -4,4 -5,9 -5,13 0,11 10,20 21,20 5,0 11,-2 15,-7 L 237,214 c 8,-9 10,-17 10,-26 0,-35 -53,-68 -89,-103 -22,-22 -34,-51 -34,-80 0,-25 9,-50 26,-71 l 77,-91 c 4,-4 5,-9 5,-13 0,-11 -10,-20 -21,-20 -5,0 -11,2 -15,7 -15,18 -53,31 -84,31 -42,0 -56,-22 -56,-64 0,-33 11,-71 27,-90 2,-2 2,-5 2,-7 0,-5 -5,-10 -10,-10 -3,0 -6,1 -8,4 -44,52 -92,145 -92,199 z"
       transform="scale(0.0029,-0.0029)" />
  </g>
  <g
     id="g158"
     transform="translate(57.5891,2.7617954)">
    <path
       id="path156"
       fill="currentColor"
       d="m 0,0 c 0,-196 207,-334 207,-530 0,-71 -15,-140 -41,-206 -5,-10 -14,-13 -23,-13 -14,0 -28,10 -28,26 0,2 1,3 1,5 26,59 42,123 42,188 0,101 -90,205 -158,280 H -21 V 0 Z"
       transform="scale(0.0029,-0.0029)" />
  </g>
  <g
     id="g162"
     transform="translate(83.5133,4.4196954)">
    <path
       id="path160"
       fill="currentColor"
       d="m 0,0 c 0,-196 207,-334 207,-530 0,-71 -15,-140 -41,-206 -5,-10 -14,-13 -23,-13 -14,0 -28,10 -28,26 0,2 1,3 1,5 26,59 42,123 42,188 0,101 -90,205 -158,280 H -21 V 0 Z"
       transform="scale(0.0029,-0.0029)" />
  </g>
  <g
     id="g166"
     transform="translate(83.4519,5.4827954)">
    <rect
       id="rect164"
       fill="currentColor"
       ry="0.042100001"
       height="2.4597001"
       width="0.1228"
       y="-1.1052999"
       x="-0.0614" />
  </g>
  <g
     id="g170"
     transform="translate(82.9736,5.4827954)">
    <rect
       id="rect168"
       fill="currentColor"
       ry="0.042100001"
       height="1.7035"
       width="0.1228"
       y="-2.5595"
       x="-0.0614" />
  </g>
  <g
     id="g174"
     transform="translate(82.0785,8.7985954)">
    <path
       id="path172"
       fill="currentColor"
       d="m 208,139 c 61,0 117,-33 117,-99 0,-71 -52,-119 -99,-147 -34,-20 -71,-32 -110,-32 -61,0 -116,33 -116,99 0,71 51,119 98,147 34,20 71,32 110,32 z"
       transform="scale(0.0029,-0.0029)" />
  </g>
  <g
     id="g178"
     transform="translate(82.5568,6.9564954)">
    <path
       id="path176"
       fill="currentColor"
       d="m 208,139 c 61,0 117,-33 117,-99 0,-71 -52,-119 -99,-147 -34,-20 -71,-32 -110,-32 -61,0 -116,33 -116,99 0,71 51,119 98,147 34,20 71,32 110,32 z"
       transform="scale(0.0029,-0.0029)" />
  </g>
  <g
     id="g182"
     transform="translate(82.0785,4.7459954)">
    <path
       id="path180"
       fill="currentColor"
       d="m 208,139 c 61,0 117,-33 117,-99 0,-71 -52,-119 -99,-147 -34,-20 -71,-32 -110,-32 -61,0 -116,33 -116,99 0,71 51,119 98,147 34,20 71,32 110,32 z"
       transform="scale(0.0029,-0.0029)" />
  </g>
  <g
     id="g186"
     transform="translate(76.6118,5.4827954)">
    <rect
       id="rect184"
       fill="currentColor"
       ry="0.042100001"
       height="2.8385"
       width="0.1228"
       y="1.2244999"
       x="-0.0614" />
  </g>
  <g
     id="g190"
     transform="translate(79.602,5.4827954)">
    <rect
       id="rect188"
       fill="currentColor"
       ry="0.042100001"
       height="2.8476"
       width="0.1228"
       y="-1.4931"
       x="-0.0614" />
  </g>
  <g
     id="g194"
     transform="translate(78.7069,8.7985954)">
    <path
       id="path192"
       fill="currentColor"
       d="M 63,-250 182,75 C 150,64 117,54 83,54 36,54 -4,88 -4,133 c 0,40 34,72 75,72 25,0 48,-13 56,-36 10,-26 4,-58 32,-58 13,0 48,38 54,50 8,15 30,15 37,0 L 133,-250 c -10,-8 -23,-13 -35,-13 -12,0 -25,5 -35,13 z"
       transform="scale(0.0029,-0.0029)" />
  </g>
  <g
     id="g198"
     transform="translate(78.7069,6.9564954)">
    <path
       id="path196"
       fill="currentColor"
       d="m 208,139 c 61,0 117,-33 117,-99 0,-71 -52,-119 -99,-147 -34,-20 -71,-32 -110,-32 -61,0 -116,33 -116,99 0,71 51,119 98,147 34,20 71,32 110,32 z"
       transform="scale(0.0029,-0.0029)" />
  </g>
  <g
     id="g202"
     transform="translate(62.3897,4.0512954)">
    <path
       id="path200"
       fill="currentColor"
       d="m 0,0 c 0,-196 207,-334 207,-530 0,-71 -15,-140 -41,-206 -5,-10 -14,-13 -23,-13 -14,0 -28,10 -28,26 0,2 1,3 1,5 26,59 42,123 42,188 0,101 -90,205 -158,280 H -21 V 0 Z"
       transform="scale(0.0029,-0.0029)" />
  </g>
  <g
     id="g206"
     transform="translate(62.3283,5.4827954)">
    <rect
       id="rect204"
       fill="currentColor"
       ry="0.042100001"
       height="2.4597001"
       width="0.1228"
       y="-1.4737"
       x="-0.0614" />
  </g>
  <g
     id="g210"
     transform="translate(61.9114,2.4854954)">
    <path
       id="path208"
       fill="currentColor"
       d="m 0,0 c 0,-196 207,-334 207,-530 0,-71 -15,-140 -41,-206 -5,-10 -14,-13 -23,-13 -14,0 -28,10 -28,26 0,2 1,3 1,5 26,59 42,123 42,188 0,101 -90,205 -158,280 H -21 V 0 Z"
       transform="scale(0.0029,-0.0029)" />
  </g>
  <g
     id="g214"
     transform="translate(61.8501,5.4827954)">
    <rect
       id="rect212"
       fill="currentColor"
       ry="0.042100001"
       height="2.1833999"
       width="0.1228"
       y="-3.0395"
       x="-0.0614" />
  </g>
  <g
     id="g218"
     transform="translate(60.955,8.0617954)">
    <path
       id="path216"
       fill="currentColor"
       d="m 208,139 c 61,0 117,-33 117,-99 0,-71 -52,-119 -99,-147 -34,-20 -71,-32 -110,-32 -61,0 -116,33 -116,99 0,71 51,119 98,147 34,20 71,32 110,32 z"
       transform="scale(0.0029,-0.0029)" />
  </g>
  <g
     id="g222"
     transform="translate(61.4332,6.5880954)">
    <path
       id="path220"
       fill="currentColor"
       d="m 208,139 c 61,0 117,-33 117,-99 0,-71 -52,-119 -99,-147 -34,-20 -71,-32 -110,-32 -61,0 -116,33 -116,99 0,71 51,119 98,147 34,20 71,32 110,32 z"
       transform="scale(0.0029,-0.0029)" />
  </g>
  <g
     id="g226"
     transform="translate(60.955,4.7459954)">
    <path
       id="path224"
       fill="currentColor"
       d="m 208,139 c 61,0 117,-33 117,-99 0,-71 -52,-119 -99,-147 -34,-20 -71,-32 -110,-32 -61,0 -116,33 -116,99 0,71 51,119 98,147 34,20 71,32 110,32 z"
       transform="scale(0.0029,-0.0029)" />
  </g>
  <g
     id="g230"
     transform="translate(61.0163,5.4827954)">
    <rect
       id="rect228"
       fill="currentColor"
       ry="0.042100001"
       height="1.8525"
       width="0.1228"
       y="2.6982"
       x="-0.0614" />
  </g>
  <g
     id="g234"
     transform="translate(54.9938,8.4301954)">
    <path
       id="path232"
       fill="currentColor"
       d="m 0,114 c 0,12 7,22 18,26 l 37,15 v 151 c 0,12 10,22 22,22 12,0 22,-10 22,-22 V 172 l 77,29 v 152 c 0,12 10,22 22,22 12,0 22,-10 22,-22 V 219 l 16,6 c 3,1 8,2 11,2 15,0 28,-12 28,-28 v -50 c 0,-12 -7,-23 -18,-27 L 220,108 V -44 l 16,7 c 3,1 8,2 11,2 15,0 28,-13 28,-29 v -50 c 0,-12 -7,-22 -18,-26 l -37,-15 v -151 c 0,-12 -10,-22 -22,-22 -12,0 -22,10 -22,22 v 134 l -77,-29 v -152 c 0,-12 -10,-22 -22,-22 -12,0 -22,10 -22,22 v 134 l -16,-6 c -3,-1 -8,-2 -11,-2 -15,0 -28,12 -28,28 v 50 c 0,12 7,23 18,27 l 37,14 V 44 L 39,37 C 36,36 31,35 28,35 13,35 0,48 0,64 Z M 176,91 99,61 V -91 l 77,30 z"
       transform="scale(0.0029,-0.0029)" />
  </g>
  <g
     id="g238"
     transform="translate(56.2771,10.598595)">
    <path
       id="path236"
       fill="currentColor"
       d="m 0,250 c 94,60 217,150 217,259 0,56 -15,110 -41,160 v 6 c 0,16 14,26 28,26 9,0 17,-4 22,-14 25,-56 40,-116 40,-178 C 266,306 0,203 0,0 h -21 v 250 z"
       transform="scale(0.0029,-0.0029)" />
  </g>
  <g
     id="g242"
     transform="translate(56.2157,5.4827954)">
    <rect
       id="rect240"
       fill="currentColor"
       ry="0.042100001"
       height="2.0913"
       width="0.1228"
       y="3.0666001"
       x="-0.0614" />
  </g>
  <g
     id="g246"
     transform="translate(58.0673,4.0512954)">
    <path
       id="path244"
       fill="currentColor"
       d="m 0,0 c 0,-196 207,-334 207,-530 0,-71 -15,-140 -41,-206 -5,-10 -14,-13 -23,-13 -14,0 -28,10 -28,26 0,2 1,3 1,5 26,59 42,123 42,188 0,101 -90,205 -158,280 H -21 V 0 Z"
       transform="scale(0.0029,-0.0029)" />
  </g>
  <g
     id="g250"
     transform="translate(58.0059,5.4827954)">
    <rect
       id="rect248"
       fill="currentColor"
       ry="0.042100001"
       height="2.4597001"
       width="0.1228"
       y="-1.4737"
       x="-0.0614" />
  </g>
  <g
     id="g254"
     transform="translate(105.4066,1.4301954)">
    <polygon
       id="polygon252"
       points="0.0421,0.1347 0.0421,-0.1347 6.5501,0.6021 6.5501,0.8716 "
       stroke="currentColor"
       fill="currentColor"
       stroke-width="0.0842"
       stroke-linecap="round"
       stroke-linejoin="round" />
  </g>
  <g
     id="g258"
     transform="translate(105.4066,2.0373954)">
    <polygon
       id="polygon256"
       points="0.0421,0.1347 0.0421,-0.1347 6.5501,0.6021 6.5501,0.8716 "
       stroke="currentColor"
       fill="currentColor"
       stroke-width="0.0842"
       stroke-linecap="round"
       stroke-linejoin="round" />
  </g>
  <g
     id="g262"
     transform="translate(65.5793,5.4827954)">
    <rect
       id="rect260"
       fill="currentColor"
       ry="0.042100001"
       height="2.5892999"
       width="0.1228"
       y="1.9613"
       x="-0.0614" />
  </g>
  <g
     id="g266"
     transform="translate(65.5179,7.3249954)">
    <path
       id="path264"
       fill="currentColor"
       d="m 208,139 c 61,0 117,-33 117,-99 0,-71 -52,-119 -99,-147 -34,-20 -71,-32 -110,-32 -61,0 -116,33 -116,99 0,71 51,119 98,147 34,20 71,32 110,32 z"
       transform="scale(0.0029,-0.0029)" />
  </g>
  <g
     id="g270"
     transform="translate(65.5179,4.0091954)">
    <path
       id="path268"
       fill="currentColor"
       d="M 63,-250 182,75 C 150,64 117,54 83,54 36,54 -4,88 -4,133 c 0,40 34,72 75,72 25,0 48,-13 56,-36 10,-26 4,-58 32,-58 13,0 48,38 54,50 8,15 30,15 37,0 L 133,-250 c -10,-8 -23,-13 -35,-13 -12,0 -25,5 -35,13 z"
       transform="scale(0.0029,-0.0029)" />
  </g>
  <g
     id="g274"
     transform="translate(67.4244,8.0617954)">
    <path
       id="path272"
       fill="currentColor"
       d="m 208,139 c 61,0 117,-33 117,-99 0,-71 -52,-119 -99,-147 -34,-20 -71,-32 -110,-32 -61,0 -116,33 -116,99 0,71 51,119 98,147 34,20 71,32 110,32 z"
       transform="scale(0.0029,-0.0029)" />
  </g>
  <g
     id="g278"
     transform="translate(63.4228,5.4827954)">
    <rect
       id="rect276"
       fill="currentColor"
       ry="0.042100001"
       height="2.2209001"
       width="0.1228"
       y="2.3297999"
       x="-0.0614" />
  </g>
  <g
     id="g282"
     transform="translate(63.3614,7.6933954)">
    <path
       id="path280"
       fill="currentColor"
       d="m 208,139 c 61,0 117,-33 117,-99 0,-71 -52,-119 -99,-147 -34,-20 -71,-32 -110,-32 -61,0 -116,33 -116,99 0,71 51,119 98,147 34,20 71,32 110,32 z"
       transform="scale(0.0029,-0.0029)" />
  </g>
  <g
     id="g286"
     transform="translate(105.468,5.4827954)">
    <rect
       id="rect284"
       fill="currentColor"
       ry="0.042100001"
       height="1.716"
       width="0.1228"
       y="-4.0458002"
       x="-0.0614" />
  </g>
  <g
     id="g290"
     transform="translate(109.781,5.4827954)">
    <rect
       id="rect288"
       fill="currentColor"
       ry="0.042100001"
       height="1.9708"
       width="0.1228"
       y="-3.5637"
       x="-0.0614" />
  </g>
  <g
     id="g294"
     transform="translate(108.8859,4.0091954)">
    <path
       id="path292"
       fill="currentColor"
       d="m 208,139 c 61,0 117,-33 117,-99 0,-71 -52,-119 -99,-147 -34,-20 -71,-32 -110,-32 -61,0 -116,33 -116,99 0,71 51,119 98,147 34,20 71,32 110,32 z"
       transform="scale(0.0029,-0.0029)" />
  </g>
  <g
     id="g298"
     transform="translate(107.6245,5.4827954)">
    <rect
       id="rect296"
       fill="currentColor"
       ry="0.042100001"
       height="1.8434"
       width="0.1228"
       y="-3.8046999"
       x="-0.0614" />
  </g>
  <g
     id="g302"
     transform="translate(106.7294,3.6406954)">
    <path
       id="path300"
       fill="currentColor"
       d="m 208,139 c 61,0 117,-33 117,-99 0,-71 -52,-119 -99,-147 -34,-20 -71,-32 -110,-32 -61,0 -116,33 -116,99 0,71 51,119 98,147 34,20 71,32 110,32 z"
       transform="scale(0.0029,-0.0029)" />
  </g>
  <g
     id="g306"
     transform="translate(104.5729,3.2722954)">
    <path
       id="path304"
       fill="currentColor"
       d="m 208,139 c 61,0 117,-33 117,-99 0,-71 -52,-119 -99,-147 -34,-20 -71,-32 -110,-32 -61,0 -116,33 -116,99 0,71 51,119 98,147 34,20 71,32 110,32 z"
       transform="scale(0.0029,-0.0029)" />
  </g>
  <g
     id="g310"
     transform="translate(103.5615,5.4827954)">
    <rect
       id="rect308"
       fill="currentColor"
       ry="0.042100001"
       height="1.8422"
       width="0.1228"
       y="-4.5404"
       x="-0.0614" />
  </g>
  <g
     id="g314"
     transform="translate(102.6664,2.9038954)">
    <path
       id="path312"
       fill="currentColor"
       d="m 208,139 c 61,0 117,-33 117,-99 0,-71 -52,-119 -99,-147 -34,-20 -71,-32 -110,-32 -61,0 -116,33 -116,99 0,71 51,119 98,147 34,20 71,32 110,32 z"
       transform="scale(0.0029,-0.0029)" />
  </g>
  <g
     id="g318"
     transform="translate(101.1551,5.4827954)">
    <rect
       id="rect316"
       fill="currentColor"
       ry="0.042100001"
       height="2.1743"
       width="0.1228"
       y="-4.1356001"
       x="-0.0614" />
  </g>
  <g
     id="g322"
     transform="translate(100.26,3.6406954)">
    <path
       id="path320"
       fill="currentColor"
       d="m 208,139 c 61,0 117,-33 117,-99 0,-71 -52,-119 -99,-147 -34,-20 -71,-32 -110,-32 -61,0 -116,33 -116,99 0,71 51,119 98,147 34,20 71,32 110,32 z"
       transform="scale(0.0029,-0.0029)" />
  </g>
  <g
     id="g326"
     transform="translate(95.447,5.4827954)">
    <path
       id="path324"
       d="M 0.8422,-3.8714 C 1.955,-5.1597 6.5887,-5.9391 8.0617,-5.0856 v 0 C 6.6075,-5.8273 1.9738,-5.048 0.8422,-3.8714 Z"
       fill="currentColor"
       stroke="currentColor"
       stroke-linecap="round"
       stroke-linejoin="round"
       stroke-width="0.0755" />
  </g>
  <g
     id="g330"
     transform="translate(96.2807,2.1670954)">
    <polygon
       id="polygon328"
       points="0.0421,0.1347 0.0421,-0.1347 7.3001,-1.3696 7.3001,-1.1002 "
       stroke="currentColor"
       fill="currentColor"
       stroke-width="0.0842"
       stroke-linecap="round"
       stroke-linejoin="round" />
  </g>
  <g
     id="g334"
     transform="translate(96.2807,2.7742954)">
    <polygon
       id="polygon332"
       points="0.0421,0.1347 0.0421,-0.1347 7.3001,-1.3696 7.3001,-1.1002 "
       stroke="currentColor"
       fill="currentColor"
       stroke-width="0.0842"
       stroke-linecap="round"
       stroke-linejoin="round" />
  </g>
  <g
     id="g338"
     transform="translate(87.5275,2.6650954)">
    <polygon
       id="polygon336"
       points="0.0421,0.1347 0.0421,-0.1347 6.6773,0.1041 6.6773,0.3735 "
       stroke="currentColor"
       fill="currentColor"
       stroke-width="0.0842"
       stroke-linecap="round"
       stroke-linejoin="round" />
  </g>
  <g
     id="g342"
     transform="translate(87.5275,3.2722954)">
    <polygon
       id="polygon340"
       points="0.0421,0.1347 0.0421,-0.1347 6.6773,0.1041 6.6773,0.3735 "
       stroke="currentColor"
       fill="currentColor"
       stroke-width="0.0842"
       stroke-linecap="round"
       stroke-linejoin="round" />
  </g>
  <g
     id="g346"
     transform="translate(79.5406,4.0091954)">
    <polygon
       id="polygon344"
       points="0.0421,0.1347 0.0421,-0.1347 3.4523,-1.24 3.4523,-0.9705 "
       stroke="currentColor"
       fill="currentColor"
       stroke-width="0.0842"
       stroke-linecap="round"
       stroke-linejoin="round" />
  </g>
  <g
     id="g350"
     transform="translate(69.3309,5.4827954)">
    <path
       id="path348"
       d="m 0.1143,5.8225 c 1.473,0.8534 6.1066,0.0741 7.2194,-1.2143 v 0 C 6.2021,5.7848 1.5685,6.5642 0.1143,5.8225 Z"
       fill="currentColor"
       stroke="currentColor"
       stroke-linecap="round"
       stroke-linejoin="round"
       stroke-width="0.0755" />
  </g>
  <g
     id="g354"
     transform="translate(69.3309,10.163095)">
    <polygon
       id="polygon352"
       points="0.0421,0.1347 0.0421,-0.1347 7.3001,-1.3696 7.3001,-1.1002 "
       stroke="currentColor"
       fill="currentColor"
       stroke-width="0.0842"
       stroke-linecap="round"
       stroke-linejoin="round" />
  </g>
  <g
     id="g358"
     transform="translate(69.3309,10.770395)">
    <polygon
       id="polygon356"
       points="0.0421,0.1347 0.0421,-0.1347 7.3001,-1.3696 7.3001,-1.1002 "
       stroke="currentColor"
       fill="currentColor"
       stroke-width="0.0842"
       stroke-linecap="round"
       stroke-linejoin="round" />
  </g>
  <g
     id="g362"
     transform="translate(60.955,9.4262954)">
    <polygon
       id="polygon360"
       points="0.0421,0.1347 0.0421,-0.1347 6.5501,-0.1347 6.5501,0.1347 "
       stroke="currentColor"
       fill="currentColor"
       stroke-width="0.0842"
       stroke-linecap="round"
       stroke-linejoin="round" />
  </g>
  <g
     id="g366"
     transform="translate(60.955,10.033495)">
    <polygon
       id="polygon364"
       points="0.0421,0.1347 0.0421,-0.1347 6.5501,-0.1347 6.5501,0.1347 "
       stroke="currentColor"
       fill="currentColor"
       stroke-width="0.0842"
       stroke-linecap="round"
       stroke-linejoin="round" />
  </g>
  <g
     id="g370"
     transform="translate(53.6164,3.8794954)">
    <polygon
       id="polygon368"
       points="0.0421,0.1347 0.0421,-0.1347 3.4523,-1.3492 3.4523,-1.0797 "
       stroke="currentColor"
       fill="currentColor"
       stroke-width="0.0842"
       stroke-linecap="round"
       stroke-linejoin="round" />
  </g>
  <g
     id="g374"
     transform="translate(43.4067,5.4827954)">
    <path
       id="path372"
       d="m 0.1143,5.3244 c 1.473,0.8535 6.1066,0.0741 7.2194,-1.2142 v 0 C 6.2021,5.2868 1.5685,6.0661 0.1143,5.3244 Z"
       fill="currentColor"
       stroke="currentColor"
       stroke-linecap="round"
       stroke-linejoin="round"
       stroke-width="0.0755" />
  </g>
  <g
     id="g378"
     transform="translate(43.4067,9.6650954)">
    <polygon
       id="polygon376"
       points="0.0421,0.1347 0.0421,-0.1347 7.3001,-1.3696 7.3001,-1.1002 "
       stroke="currentColor"
       fill="currentColor"
       stroke-width="0.0842"
       stroke-linecap="round"
       stroke-linejoin="round" />
  </g>
  <g
     id="g382"
     transform="translate(43.4067,10.272295)">
    <polygon
       id="polygon380"
       points="0.0421,0.1347 0.0421,-0.1347 7.3001,-1.3696 7.3001,-1.1002 "
       stroke="currentColor"
       fill="currentColor"
       stroke-width="0.0842"
       stroke-linecap="round"
       stroke-linejoin="round" />
  </g>
  <g
     id="g386"
     transform="translate(35.0308,9.1670954)">
    <polygon
       id="polygon384"
       points="0.0421,0.1347 0.0421,-0.1347 6.3001,0.1245 6.3001,0.394 "
       stroke="currentColor"
       fill="currentColor"
       stroke-width="0.0842"
       stroke-linecap="round"
       stroke-linejoin="round" />
  </g>
  <g
     id="g390"
     transform="translate(35.0308,9.7742954)">
    <polygon
       id="polygon388"
       points="0.0421,0.1347 0.0421,-0.1347 6.3001,0.1245 6.3001,0.394 "
       stroke="currentColor"
       fill="currentColor"
       stroke-width="0.0842"
       stroke-linecap="round"
       stroke-linejoin="round" />
  </g>
  <g
     id="g394"
     transform="translate(27.8172,2.6650954)">
    <polygon
       id="polygon392"
       points="0.0421,0.1347 0.0421,-0.1347 3.3273,-0.1347 3.3273,0.1347 "
       stroke="currentColor"
       fill="currentColor"
       stroke-width="0.0842"
       stroke-linecap="round"
       stroke-linejoin="round" />
  </g>
  <g
     id="g398"
     transform="translate(17.6075,5.4827954)">
    <path
       id="path396"
       d="M 0.8422,-2.6365 C 1.955,-3.9249 6.5887,-4.7042 8.0617,-3.8507 v 0 C 6.6075,-4.5924 1.9738,-3.8131 0.8422,-2.6365 Z"
       fill="currentColor"
       stroke="currentColor"
       stroke-linecap="round"
       stroke-linejoin="round"
       stroke-width="0.0755" />
  </g>
  <g
     id="g402"
     transform="translate(18.4412,3.4018954)">
    <polygon
       id="polygon400"
       points="0.0421,0.1347 0.0421,-0.1347 7.3001,-1.3696 7.3001,-1.1002 "
       stroke="currentColor"
       fill="currentColor"
       stroke-width="0.0842"
       stroke-linecap="round"
       stroke-linejoin="round" />
  </g>
  <g
     id="g406"
     transform="translate(18.4412,4.0091954)">
    <polygon
       id="polygon404"
       points="0.0421,0.1347 0.0421,-0.1347 7.3001,-1.3696 7.3001,-1.1002 "
       stroke="currentColor"
       fill="currentColor"
       stroke-width="0.0842"
       stroke-linecap="round"
       stroke-linejoin="round" />
  </g>
  <g
     id="g410"
     transform="translate(9.2547,2.6650954)">
    <polygon
       id="polygon408"
       points="0.0421,0.1347 0.0421,-0.1347 6.5501,0.4725 6.5501,0.742 "
       stroke="currentColor"
       fill="currentColor"
       stroke-width="0.0842"
       stroke-linecap="round"
       stroke-linejoin="round" />
  </g>
  <g
     id="g414"
     transform="translate(9.2547,3.2722954)">
    <polygon
       id="polygon412"
       points="0.0421,0.1347 0.0421,-0.1347 6.5501,0.4725 6.5501,0.742 "
       stroke="currentColor"
       fill="currentColor"
       stroke-width="0.0842"
       stroke-linecap="round"
       stroke-linejoin="round" />
  </g>
  <g
     id="g418"
     transform="translate(111.9375,5.4827954)">
    <rect
       id="rect416"
       fill="currentColor"
       ry="0.042100001"
       height="2.0982001"
       width="0.1228"
       y="-3.3227"
       x="-0.0614" />
  </g>
  <g
     id="g422"
     transform="translate(111.0424,4.3775954)">
    <path
       id="path420"
       fill="currentColor"
       d="m 208,139 c 61,0 117,-33 117,-99 0,-71 -52,-119 -99,-147 -34,-20 -71,-32 -110,-32 -61,0 -116,33 -116,99 0,71 51,119 98,147 34,20 71,32 110,32 z"
       transform="scale(0.0029,-0.0029)" />
  </g>
  <g
     id="g426"
     transform="translate(86.8166,10.782795)">
    <path
       id="path424"
       fill="currentColor"
       d="m 266,659 c 0,-44 -15,-80 -38,-114 16,-35 25,-73 25,-111 C 253,254 1,180 0,1 V 0 H -21 V 500 H 0 v -70 c 94,49 217,126 217,229 0,20 -5,41 -14,59 v 5 c 0,16 13,26 27,26 32,0 36,-61 36,-90 z M 0,205 c 88,51 204,130 204,229 0,22 -4,44 -12,65 C 113,414 0,344 0,225 Z"
       transform="scale(0.0029,-0.0029)" />
  </g>
  <g
     id="g430"
     transform="translate(86.7552,5.4827954)">
    <rect
       id="rect428"
       fill="currentColor"
       ry="0.042100001"
       height="2.2755001"
       width="0.1228"
       y="3.0666001"
       x="-0.0614" />
  </g>
  <g
     id="g434"
     transform="translate(88.1285,4.4196954)">
    <path
       id="path432"
       fill="currentColor"
       d="m 0,-212 v -213 213 c 0,-114 85,-201 146,-295 4,13 6,26 6,40 0,94 -87,188 -152,255 z M 0,0 c 0,-177 201,-290 201,-467 0,-33 -9,-66 -23,-96 18,-36 29,-74 29,-116 0,-63 -15,-125 -41,-182 -5,-10 -14,-13 -23,-13 -14,0 -28,10 -28,26 0,2 1,3 1,5 26,51 42,107 42,164 0,95 -90,188 -158,254 v -75 H -21 V 0 Z"
       transform="scale(0.0029,-0.0029)" />
  </g>
  <g
     id="g438"
     transform="translate(88.0672,5.4827954)">
    <rect
       id="rect436"
       fill="currentColor"
       ry="0.042100001"
       height="2.4597001"
       width="0.1228"
       y="-1.1052999"
       x="-0.0614" />
  </g>
  <g
     id="g442"
     transform="translate(87.5889,5.4827954)">
    <rect
       id="rect440"
       fill="currentColor"
       ry="0.042100001"
       height="2.3278999"
       width="0.1228"
       y="-2.8155999"
       x="-0.0614" />
  </g>
  <g
     id="g446"
     transform="translate(86.6938,8.4301954)">
    <path
       id="path444"
       fill="currentColor"
       d="m 208,139 c 61,0 117,-33 117,-99 0,-71 -52,-119 -99,-147 -34,-20 -71,-32 -110,-32 -61,0 -116,33 -116,99 0,71 51,119 98,147 34,20 71,32 110,32 z"
       transform="scale(0.0029,-0.0029)" />
  </g>
  <g
     id="g450"
     transform="translate(87.1721,6.9564954)">
    <path
       id="path448"
       fill="currentColor"
       d="m 208,139 c 61,0 117,-33 117,-99 0,-71 -52,-119 -99,-147 -34,-20 -71,-32 -110,-32 -61,0 -116,33 -116,99 0,71 51,119 98,147 34,20 71,32 110,32 z"
       transform="scale(0.0029,-0.0029)" />
  </g>
  <g
     id="g454"
     transform="translate(86.6938,5.1143954)">
    <path
       id="path452"
       fill="currentColor"
       d="m 208,139 c 61,0 117,-33 117,-99 0,-71 -52,-119 -99,-147 -34,-20 -71,-32 -110,-32 -61,0 -116,33 -116,99 0,71 51,119 98,147 34,20 71,32 110,32 z"
       transform="scale(0.0029,-0.0029)" />
  </g>
  <g
     id="g458"
     transform="translate(80.918,8.7985954)">
    <path
       id="path456"
       fill="currentColor"
       d="m 0,114 c 0,12 7,22 18,26 l 37,15 v 151 c 0,12 10,22 22,22 12,0 22,-10 22,-22 V 172 l 77,29 v 152 c 0,12 10,22 22,22 12,0 22,-10 22,-22 V 219 l 16,6 c 3,1 8,2 11,2 15,0 28,-12 28,-28 v -50 c 0,-12 -7,-23 -18,-27 L 220,108 V -44 l 16,7 c 3,1 8,2 11,2 15,0 28,-13 28,-29 v -50 c 0,-12 -7,-22 -18,-26 l -37,-15 v -151 c 0,-12 -10,-22 -22,-22 -12,0 -22,10 -22,22 v 134 l -77,-29 v -152 c 0,-12 -10,-22 -22,-22 -12,0 -22,10 -22,22 v 134 l -16,-6 c -3,-1 -8,-2 -11,-2 -15,0 -28,12 -28,28 v 50 c 0,12 7,23 18,27 l 37,14 V 44 L 39,37 C 36,36 31,35 28,35 13,35 0,48 0,64 Z M 176,91 99,61 V -91 l 77,30 z"
       transform="scale(0.0029,-0.0029)" />
  </g>
  <g
     id="g462"
     transform="translate(82.2013,10.967095)">
    <path
       id="path460"
       fill="currentColor"
       d="m 0,250 c 94,60 217,150 217,259 0,56 -15,110 -41,160 v 6 c 0,16 14,26 28,26 9,0 17,-4 22,-14 25,-56 40,-116 40,-178 C 266,306 0,203 0,0 h -21 v 250 z"
       transform="scale(0.0029,-0.0029)" />
  </g>
  <g
     id="g466"
     transform="translate(98.7486,5.4827954)">
    <rect
       id="rect464"
       fill="currentColor"
       ry="0.042100001"
       height="2.5064001"
       width="0.1228"
       y="-3.7309"
       x="-0.0614" />
  </g>
  <g
     id="g470"
     transform="translate(97.8535,4.3775954)">
    <path
       id="path468"
       fill="currentColor"
       d="m 208,139 c 61,0 117,-33 117,-99 0,-71 -52,-119 -99,-147 -34,-20 -71,-32 -110,-32 -61,0 -116,33 -116,99 0,71 51,119 98,147 34,20 71,32 110,32 z"
       transform="scale(0.0029,-0.0029)" />
  </g>
  <g
     id="g474"
     transform="translate(96.3421,5.4827954)">
    <rect
       id="rect472"
       fill="currentColor"
       ry="0.042100001"
       height="2.8385"
       width="0.1228"
       y="-3.3261001"
       x="-0.0614" />
  </g>
  <g
     id="g478"
     transform="translate(95.447,5.1143954)">
    <path
       id="path476"
       fill="currentColor"
       d="m 208,139 c 61,0 117,-33 117,-99 0,-71 -52,-119 -99,-147 -34,-20 -71,-32 -110,-32 -61,0 -116,33 -116,99 0,71 51,119 98,147 34,20 71,32 110,32 z"
       transform="scale(0.0029,-0.0029)" />
  </g>
  <g
     id="g482"
     transform="translate(94.1856,5.4827954)">
    <rect
       id="rect480"
       fill="currentColor"
       ry="0.042100001"
       height="2.4619"
       width="0.1228"
       y="-2.5811"
       x="-0.0614" />
  </g>
  <g
     id="g486"
     transform="translate(93.2905,5.4827954)">
    <path
       id="path484"
       fill="currentColor"
       d="m 208,139 c 61,0 117,-33 117,-99 0,-71 -52,-119 -99,-147 -34,-20 -71,-32 -110,-32 -61,0 -116,33 -116,99 0,71 51,119 98,147 34,20 71,32 110,32 z"
       transform="scale(0.0029,-0.0029)" />
  </g>
  <g
     id="g490"
     transform="translate(82.1399,5.4827954)">
    <rect
       id="rect488"
       fill="currentColor"
       ry="0.042100001"
       height="2.0913"
       width="0.1228"
       y="3.4349999"
       x="-0.0614" />
  </g>
  <g
     id="g494"
     transform="translate(92.0291,5.4827954)">
    <rect
       id="rect492"
       fill="currentColor"
       ry="0.042100001"
       height="2.9070001"
       width="0.1228"
       y="-2.6578"
       x="-0.0614" />
  </g>
  <g
     id="g498"
     transform="translate(91.134,5.8512954)">
    <path
       id="path496"
       fill="currentColor"
       d="m 208,139 c 61,0 117,-33 117,-99 0,-71 -52,-119 -99,-147 -34,-20 -71,-32 -110,-32 -61,0 -116,33 -116,99 0,71 51,119 98,147 34,20 71,32 110,32 z"
       transform="scale(0.0029,-0.0029)" />
  </g>
  <g
     id="g502"
     transform="translate(89.8726,5.4827954)">
    <rect
       id="rect500"
       fill="currentColor"
       ry="0.042100001"
       height="2.6152"
       width="0.1228"
       y="-2.7344"
       x="-0.0614" />
  </g>
  <g
     id="g506"
     transform="translate(88.9775,5.4827954)">
    <path
       id="path504"
       fill="currentColor"
       d="m 208,139 c 61,0 117,-33 117,-99 0,-71 -52,-119 -99,-147 -34,-20 -71,-32 -110,-32 -61,0 -116,33 -116,99 0,71 51,119 98,147 34,20 71,32 110,32 z"
       transform="scale(0.0029,-0.0029)" />
  </g>
  <g
     id="g510"
     transform="translate(25.7221,5.4827954)">
    <rect
       id="rect508"
       fill="currentColor"
       ry="0.042100001"
       height="1.7126"
       width="0.1228"
       y="-3.3055"
       x="-0.0614" />
  </g>
  <g
     id="g514"
     transform="translate(27.8786,5.4827954)">
    <rect
       id="rect512"
       fill="currentColor"
       ry="0.042100001"
       height="1.5933"
       width="0.1228"
       y="-2.8176999"
       x="-0.0614" />
  </g>
  <g
     id="g518"
     transform="translate(26.9835,6.9564954)">
    <path
       id="path516"
       fill="currentColor"
       d="M 63,-250 182,75 C 150,64 117,54 83,54 36,54 -4,88 -4,133 c 0,40 34,72 75,72 25,0 48,-13 56,-36 10,-26 4,-58 32,-58 13,0 48,38 54,50 8,15 30,15 37,0 L 133,-250 c -10,-8 -23,-13 -35,-13 -12,0 -25,5 -35,13 z"
       transform="scale(0.0029,-0.0029)" />
  </g>
  <g
     id="g522"
     transform="translate(26.9835,4.3775954)">
    <path
       id="path520"
       fill="currentColor"
       d="m 208,139 c 61,0 117,-33 117,-99 0,-71 -52,-119 -99,-147 -34,-20 -71,-32 -110,-32 -61,0 -116,33 -116,99 0,71 51,119 98,147 34,20 71,32 110,32 z"
       transform="scale(0.0029,-0.0029)" />
  </g>
  <g
     id="g526"
     transform="translate(24.827,4.0091954)">
    <path
       id="path524"
       fill="currentColor"
       d="m 208,139 c 61,0 117,-33 117,-99 0,-71 -52,-119 -99,-147 -34,-20 -71,-32 -110,-32 -61,0 -116,33 -116,99 0,71 51,119 98,147 34,20 71,32 110,32 z"
       transform="scale(0.0029,-0.0029)" />
  </g>
  <g
     id="g530"
     transform="translate(23.3156,5.4827954)">
    <rect
       id="rect528"
       fill="currentColor"
       ry="0.042100001"
       height="2.0446"
       width="0.1228"
       y="-2.9007001"
       x="-0.0614" />
  </g>
  <g
     id="g534"
     transform="translate(22.4205,4.7459954)">
    <path
       id="path532"
       fill="currentColor"
       d="m 208,139 c 61,0 117,-33 117,-99 0,-71 -52,-119 -99,-147 -34,-20 -71,-32 -110,-32 -61,0 -116,33 -116,99 0,71 51,119 98,147 34,20 71,32 110,32 z"
       transform="scale(0.0029,-0.0029)" />
  </g>
  <g
     id="g538"
     transform="translate(20.9091,5.4827954)">
    <rect
       id="rect536"
       fill="currentColor"
       ry="0.042100001"
       height="2.3766999"
       width="0.1228"
       y="-2.4960001"
       x="-0.0614" />
  </g>
  <g
     id="g542"
     transform="translate(20.014,5.4827954)">
    <path
       id="path540"
       fill="currentColor"
       d="m 208,139 c 61,0 117,-33 117,-99 0,-71 -52,-119 -99,-147 -34,-20 -71,-32 -110,-32 -61,0 -116,33 -116,99 0,71 51,119 98,147 34,20 71,32 110,32 z"
       transform="scale(0.0029,-0.0029)" />
  </g>
  <g
     id="g546"
     transform="translate(16.447,6.2196954)">
    <path
       id="path544"
       fill="currentColor"
       d="m 0,114 c 0,12 7,22 18,26 l 37,15 v 151 c 0,12 10,22 22,22 12,0 22,-10 22,-22 V 172 l 77,29 v 152 c 0,12 10,22 22,22 12,0 22,-10 22,-22 V 219 l 16,6 c 3,1 8,2 11,2 15,0 28,-12 28,-28 v -50 c 0,-12 -7,-23 -18,-27 L 220,108 V -44 l 16,7 c 3,1 8,2 11,2 15,0 28,-13 28,-29 v -50 c 0,-12 -7,-22 -18,-26 l -37,-15 v -151 c 0,-12 -10,-22 -22,-22 -12,0 -22,10 -22,22 v 134 l -77,-29 v -152 c 0,-12 -10,-22 -22,-22 -12,0 -22,10 -22,22 v 134 l -16,-6 c -3,-1 -8,-2 -11,-2 -15,0 -28,12 -28,28 v 50 c 0,12 7,23 18,27 l 37,14 V 44 L 39,37 C 36,36 31,35 28,35 13,35 0,48 0,64 Z M 176,91 99,61 V -91 l 77,30 z"
       transform="scale(0.0029,-0.0029)" />
  </g>
  <g
     id="g550"
     transform="translate(32.0817,5.4827954)">
    <rect
       id="rect548"
       fill="currentColor"
       ry="0.042100001"
       height="2.4597001"
       width="0.1228"
       y="-1.8421"
       x="-0.0614" />
  </g>
  <g
     id="g554"
     transform="translate(35.0308,7.6933954)">
    <path
       id="path552"
       fill="currentColor"
       d="m 208,139 c 61,0 117,-33 117,-99 0,-71 -52,-119 -99,-147 -34,-20 -71,-32 -110,-32 -61,0 -116,33 -116,99 0,71 51,119 98,147 34,20 71,32 110,32 z"
       transform="scale(0.0029,-0.0029)" />
  </g>
  <g
     id="g558"
     transform="translate(35.9872,5.8512954)">
    <path
       id="path556"
       fill="currentColor"
       d="m 208,139 c 61,0 117,-33 117,-99 0,-71 -52,-119 -99,-147 -34,-20 -71,-32 -110,-32 -61,0 -116,33 -116,99 0,71 51,119 98,147 34,20 71,32 110,32 z"
       transform="scale(0.0029,-0.0029)" />
  </g>
  <g
     id="g562"
     transform="translate(35.509,5.1143954)">
    <path
       id="path560"
       fill="currentColor"
       d="m 208,139 c 61,0 117,-33 117,-99 0,-71 -52,-119 -99,-147 -34,-20 -71,-32 -110,-32 -61,0 -116,33 -116,99 0,71 51,119 98,147 34,20 71,32 110,32 z"
       transform="scale(0.0029,-0.0029)" />
  </g>
  <g
     id="g566"
     transform="translate(35.0308,4.3775954)">
    <path
       id="path564"
       fill="currentColor"
       d="m 208,139 c 61,0 117,-33 117,-99 0,-71 -52,-119 -99,-147 -34,-20 -71,-32 -110,-32 -61,0 -116,33 -116,99 0,71 51,119 98,147 34,20 71,32 110,32 z"
       transform="scale(0.0029,-0.0029)" />
  </g>
  <g
     id="g570"
     transform="translate(30.3529,9.4933954)">
    <path
       id="path568"
       fill="currentColor"
       d="m 0,250 c 94,60 217,150 217,259 0,56 -15,110 -41,160 v 6 c 0,16 14,26 28,26 9,0 17,-4 22,-14 25,-56 40,-116 40,-178 C 266,306 0,203 0,0 h -21 v 250 z"
       transform="scale(0.0029,-0.0029)" />
  </g>
  <g
     id="g574"
     transform="translate(30.2915,5.4827954)">
    <rect
       id="rect572"
       fill="currentColor"
       ry="0.042100001"
       height="2.0913"
       width="0.1228"
       y="1.9613"
       x="-0.0614" />
  </g>
  <g
     id="g578"
     transform="translate(32.1431,3.6827954)">
    <path
       id="path576"
       fill="currentColor"
       d="m 0,0 c 0,-196 207,-334 207,-530 0,-71 -15,-140 -41,-206 -5,-10 -14,-13 -23,-13 -14,0 -28,10 -28,26 0,2 1,3 1,5 26,59 42,123 42,188 0,101 -90,205 -158,280 H -21 V 0 Z"
       transform="scale(0.0029,-0.0029)" />
  </g>
  <g
     id="g582"
     transform="translate(31.6648,3.0380954)">
    <path
       id="path580"
       fill="currentColor"
       d="m 0,0 c 0,-196 207,-334 207,-530 0,-71 -15,-140 -41,-206 -5,-10 -14,-13 -23,-13 -14,0 -28,10 -28,26 0,2 1,3 1,5 26,59 42,123 42,188 0,101 -90,205 -158,280 H -21 V 0 Z"
       transform="scale(0.0029,-0.0029)" />
  </g>
  <g
     id="g586"
     transform="translate(31.6035,5.4827954)">
    <rect
       id="rect584"
       fill="currentColor"
       ry="0.042100001"
       height="2.3676"
       width="0.1228"
       y="-2.4868"
       x="-0.0614" />
  </g>
  <g
     id="g590"
     transform="translate(31.1252,5.4827954)">
    <rect
       id="rect588"
       fill="currentColor"
       ry="0.042100001"
       height="1.5933"
       width="0.1228"
       y="-2.8176999"
       x="-0.0614" />
  </g>
  <g
     id="g594"
     transform="translate(30.2301,7.3249954)">
    <path
       id="path592"
       fill="currentColor"
       d="m 208,139 c 61,0 117,-33 117,-99 0,-71 -52,-119 -99,-147 -34,-20 -71,-32 -110,-32 -61,0 -116,33 -116,99 0,71 51,119 98,147 34,20 71,32 110,32 z"
       transform="scale(0.0029,-0.0029)" />
  </g>
  <g
     id="g598"
     transform="translate(31.1866,6.2196954)">
    <path
       id="path596"
       fill="currentColor"
       d="m 208,139 c 61,0 117,-33 117,-99 0,-71 -52,-119 -99,-147 -34,-20 -71,-32 -110,-32 -61,0 -116,33 -116,99 0,71 51,119 98,147 34,20 71,32 110,32 z"
       transform="scale(0.0029,-0.0029)" />
  </g>
  <g
     id="g602"
     transform="translate(30.7084,5.4827954)">
    <path
       id="path600"
       fill="currentColor"
       d="m 208,139 c 61,0 117,-33 117,-99 0,-71 -52,-119 -99,-147 -34,-20 -71,-32 -110,-32 -61,0 -116,33 -116,99 0,71 51,119 98,147 34,20 71,32 110,32 z"
       transform="scale(0.0029,-0.0029)" />
  </g>
  <g
     id="g606"
     transform="translate(30.2301,4.3775954)">
    <path
       id="path604"
       fill="currentColor"
       d="m 208,139 c 61,0 117,-33 117,-99 0,-71 -52,-119 -99,-147 -34,-20 -71,-32 -110,-32 -61,0 -116,33 -116,99 0,71 51,119 98,147 34,20 71,32 110,32 z"
       transform="scale(0.0029,-0.0029)" />
  </g>
  <g
     id="g610"
     transform="translate(8.421,7.3249954)">
    <path
       id="path608"
       fill="currentColor"
       d="m 208,139 c 61,0 117,-33 117,-99 0,-71 -52,-119 -99,-147 -34,-20 -71,-32 -110,-32 -61,0 -116,33 -116,99 0,71 51,119 98,147 34,20 71,32 110,32 z"
       transform="scale(0.0029,-0.0029)" />
  </g>
  <g
     id="g614"
     transform="translate(11.4726,5.4827954)">
    <rect
       id="rect612"
       fill="currentColor"
       ry="0.042100001"
       height="2.1257999"
       width="0.1228"
       y="-2.6135001"
       x="-0.0614" />
  </g>
  <g
     id="g618"
     transform="translate(10.5775,5.1143954)">
    <path
       id="path616"
       fill="currentColor"
       d="m 208,139 c 61,0 117,-33 117,-99 0,-71 -52,-119 -99,-147 -34,-20 -71,-32 -110,-32 -61,0 -116,33 -116,99 0,71 51,119 98,147 34,20 71,32 110,32 z"
       transform="scale(0.0029,-0.0029)" />
  </g>
  <g
     id="g622"
     transform="translate(8.5438,9.4933954)">
    <path
       id="path620"
       fill="currentColor"
       d="m 0,250 c 94,60 217,150 217,259 0,56 -15,110 -41,160 v 6 c 0,16 14,26 28,26 9,0 17,-4 22,-14 25,-56 40,-116 40,-178 C 266,306 0,203 0,0 h -21 v 250 z"
       transform="scale(0.0029,-0.0029)" />
  </g>
  <g
     id="g626"
     transform="translate(8.4824,5.4827954)">
    <rect
       id="rect624"
       fill="currentColor"
       ry="0.042100001"
       height="2.0913"
       width="0.1228"
       y="1.9613"
       x="-0.0614" />
  </g>
  <g
     id="g630"
     transform="translate(9.3161,5.4827954)">
    <rect
       id="rect628"
       fill="currentColor"
       ry="0.042100001"
       height="1.956"
       width="0.1228"
       y="-2.8120999"
       x="-0.0614" />
  </g>
  <g
     id="g634"
     transform="translate(8.421,4.7459954)">
    <path
       id="path632"
       fill="currentColor"
       d="m 208,139 c 61,0 117,-33 117,-99 0,-71 -52,-119 -99,-147 -34,-20 -71,-32 -110,-32 -61,0 -116,33 -116,99 0,71 51,119 98,147 34,20 71,32 110,32 z"
       transform="scale(0.0029,-0.0029)" />
  </g>
  <g
     id="g638"
     transform="translate(4.3,4.0091954)">
    <path
       id="path636"
       fill="currentColor"
       d="m 0,114 c 0,12 7,22 18,26 l 37,15 v 151 c 0,12 10,22 22,22 12,0 22,-10 22,-22 V 172 l 77,29 v 152 c 0,12 10,22 22,22 12,0 22,-10 22,-22 V 219 l 16,6 c 3,1 8,2 11,2 15,0 28,-12 28,-28 v -50 c 0,-12 -7,-23 -18,-27 L 220,108 V -44 l 16,7 c 3,1 8,2 11,2 15,0 28,-13 28,-29 v -50 c 0,-12 -7,-22 -18,-26 l -37,-15 v -151 c 0,-12 -10,-22 -22,-22 -12,0 -22,10 -22,22 v 134 l -77,-29 v -152 c 0,-12 -10,-22 -22,-22 -12,0 -22,10 -22,22 v 134 l -16,-6 c -3,-1 -8,-2 -11,-2 -15,0 -28,12 -28,28 v 50 c 0,12 7,23 18,27 l 37,14 V 44 L 39,37 C 36,36 31,35 28,35 13,35 0,48 0,64 Z M 176,91 99,61 V -91 l 77,30 z"
       transform="scale(0.0029,-0.0029)" />
  </g>
  <g
     id="g642"
     transform="translate(5.1105,5.1143954)">
    <path
       id="path640"
       fill="currentColor"
       d="m 0,114 c 0,12 7,22 18,26 l 37,15 v 151 c 0,12 10,22 22,22 12,0 22,-10 22,-22 V 172 l 77,29 v 152 c 0,12 10,22 22,22 12,0 22,-10 22,-22 V 219 l 16,6 c 3,1 8,2 11,2 15,0 28,-12 28,-28 v -50 c 0,-12 -7,-23 -18,-27 L 220,108 V -44 l 16,7 c 3,1 8,2 11,2 15,0 28,-13 28,-29 v -50 c 0,-12 -7,-22 -18,-26 l -37,-15 v -151 c 0,-12 -10,-22 -22,-22 -12,0 -22,10 -22,22 v 134 l -77,-29 v -152 c 0,-12 -10,-22 -22,-22 -12,0 -22,10 -22,22 v 134 l -16,-6 c -3,-1 -8,-2 -11,-2 -15,0 -28,12 -28,28 v 50 c 0,12 7,23 18,27 l 37,14 V 44 L 39,37 C 36,36 31,35 28,35 13,35 0,48 0,64 Z M 176,91 99,61 V -91 l 77,30 z"
       transform="scale(0.0029,-0.0029)" />
  </g>
  <g
     id="g646"
     transform="translate(0.8,6.2196954)">
    <path
       id="path644"
       fill="currentColor"
       d="m 381,266 h 9 c 157,0 258,-130 258,-264 0,-77 -33,-156 -108,-212 -22,-16 -46,-28 -71,-36 2,-32 3,-65 3,-97 0,-21 -1,-43 -2,-64 -7,-122 -91,-230 -211,-230 -108,0 -197,88 -197,197 0,58 54,104 113,104 54,0 95,-48 95,-104 0,-52 -43,-95 -95,-95 -8,0 -16,2 -24,4 25,-35 65,-59 111,-59 95,0 155,92 161,190 1,20 2,39 2,59 0,28 -1,55 -3,83 -29,-5 -57,-7 -87,-7 -189,0 -333,174 -333,377 0,176 128,307 242,443 -21,62 -41,124 -50,189 -7,52 -8,106 -8,159 0,113 54,219 146,286 8,6 21,7 29,0 72,-82 136,-244 136,-357 0,-141 -83,-253 -174,-362 22,-67 41,-135 58,-204 z m 83,-466 c 64,25 108,93 108,159 0,87 -62,173 -163,187 24,-113 43,-225 55,-346 z m -126,-18 c 27,0 54,2 80,6 C 405,-87 385,30 360,147 281,140 237,88 237,31 c 0,-43 24,-89 78,-120 5,-5 8,-11 8,-17 0,-13 -11,-24 -24,-24 -3,0 -7,0 -10,2 -81,44 -119,116 -119,187 0,90 60,178 164,201 -14,56 -30,112 -47,167 C 183,305 79,182 79,23 79,-109 206,-218 338,-218 Z M 239,782 c 0,-69 22,-127 41,-183 77,97 140,199 140,323 0,49 -3,69 -19,113 C 302,990 239,890 239,782 Z"
       transform="scale(0.0029,-0.0029)" />
  </g>
  <g
     id="g650"
     transform="translate(15.7856,5.4827954)">
    <rect
       id="rect648"
       fill="currentColor"
       ry="0.042100001"
       height="2.4654"
       width="0.1228"
       y="-2.2162001"
       x="-0.0614" />
  </g>
  <g
     id="g654"
     transform="translate(18.5026,5.4827954)">
    <rect
       id="rect652"
       fill="currentColor"
       ry="0.042100001"
       height="2.7088001"
       width="0.1228"
       y="-2.0912001"
       x="-0.0614" />
  </g>
  <g
     id="g658"
     transform="translate(17.6075,8.4301954)">
    <path
       id="path656"
       fill="currentColor"
       d="m -25,-120 c 0,32 16,43 50,43 28,0 65,-8 99,-20 L 0,51 c -8,9 -11,17 -11,26 0,35 54,68 90,103 22,22 34,51 34,80 0,25 -9,50 -26,71 l -29,34 c -4,4 -5,9 -5,13 0,11 10,20 21,20 5,0 11,-2 15,-7 L 237,214 c 8,-9 10,-17 10,-26 0,-35 -53,-68 -89,-103 -22,-22 -34,-51 -34,-80 0,-25 9,-50 26,-71 l 77,-91 c 4,-4 5,-9 5,-13 0,-11 -10,-20 -21,-20 -5,0 -11,2 -15,7 -15,18 -53,31 -84,31 -42,0 -56,-22 -56,-64 0,-33 11,-71 27,-90 2,-2 2,-5 2,-7 0,-5 -5,-10 -10,-10 -3,0 -6,1 -8,4 -44,52 -92,145 -92,199 z"
       transform="scale(0.0029,-0.0029)" />
  </g>
  <g
     id="g662"
     transform="translate(17.6075,6.2196954)">
    <path
       id="path660"
       fill="currentColor"
       d="m 208,139 c 61,0 117,-33 117,-99 0,-71 -52,-119 -99,-147 -34,-20 -71,-32 -110,-32 -61,0 -116,33 -116,99 0,71 51,119 98,147 34,20 71,32 110,32 z"
       transform="scale(0.0029,-0.0029)" />
  </g>
  <g
     id="g666"
     transform="translate(14.8905,5.8512954)">
    <path
       id="path664"
       fill="currentColor"
       d="m 208,139 c 61,0 117,-33 117,-99 0,-71 -52,-119 -99,-147 -34,-20 -71,-32 -110,-32 -61,0 -116,33 -116,99 0,71 51,119 98,147 34,20 71,32 110,32 z"
       transform="scale(0.0029,-0.0029)" />
  </g>
  <g
     id="g670"
     transform="translate(13.6291,5.4827954)">
    <rect
       id="rect668"
       fill="currentColor"
       ry="0.042100001"
       height="2.2955999"
       width="0.1228"
       y="-2.4147999"
       x="-0.0614" />
  </g>
  <g
     id="g674"
     transform="translate(12.734,7.6933954)">
    <path
       id="path672"
       fill="currentColor"
       d="M 63,-250 182,75 C 150,64 117,54 83,54 36,54 -4,88 -4,133 c 0,40 34,72 75,72 25,0 48,-13 56,-36 10,-26 4,-58 32,-58 13,0 48,38 54,50 8,15 30,15 37,0 L 133,-250 c -10,-8 -23,-13 -35,-13 -12,0 -25,5 -35,13 z"
       transform="scale(0.0029,-0.0029)" />
  </g>
  <g
     id="g678"
     transform="translate(12.734,5.4827954)">
    <path
       id="path676"
       fill="currentColor"
       d="m 208,139 c 61,0 117,-33 117,-99 0,-71 -52,-119 -99,-147 -34,-20 -71,-32 -110,-32 -61,0 -116,33 -116,99 0,71 51,119 98,147 34,20 71,32 110,32 z"
       transform="scale(0.0029,-0.0029)" />
  </g>
  <g
     id="g682"
     transform="translate(43.4681,5.4827954)">
    <rect
       id="rect680"
       fill="currentColor"
       ry="0.042100001"
       height="1.7126"
       width="0.1228"
       y="3.0666001"
       x="-0.0614" />
  </g>
  <g
     id="g686"
     transform="translate(48.2811,5.4827954)">
    <rect
       id="rect684"
       fill="currentColor"
       ry="0.042100001"
       height="2.3766999"
       width="0.1228"
       y="1.5929"
       x="-0.0614" />
  </g>
  <g
     id="g690"
     transform="translate(48.2197,6.9564954)">
    <path
       id="path688"
       fill="currentColor"
       d="m 208,139 c 61,0 117,-33 117,-99 0,-71 -52,-119 -99,-147 -34,-20 -71,-32 -110,-32 -61,0 -116,33 -116,99 0,71 51,119 98,147 34,20 71,32 110,32 z"
       transform="scale(0.0029,-0.0029)" />
  </g>
  <g
     id="g694"
     transform="translate(45.8746,5.4827954)">
    <rect
       id="rect692"
       fill="currentColor"
       ry="0.042100001"
       height="2.0446"
       width="0.1228"
       y="2.3297999"
       x="-0.0614" />
  </g>
  <g
     id="g698"
     transform="translate(45.8132,7.6933954)">
    <path
       id="path696"
       fill="currentColor"
       d="m 208,139 c 61,0 117,-33 117,-99 0,-71 -52,-119 -99,-147 -34,-20 -71,-32 -110,-32 -61,0 -116,33 -116,99 0,71 51,119 98,147 34,20 71,32 110,32 z"
       transform="scale(0.0029,-0.0029)" />
  </g>
  <g
     id="g702"
     transform="translate(43.4067,8.4301954)">
    <path
       id="path700"
       fill="currentColor"
       d="m 208,139 c 61,0 117,-33 117,-99 0,-71 -52,-119 -99,-147 -34,-20 -71,-32 -110,-32 -61,0 -116,33 -116,99 0,71 51,119 98,147 34,20 71,32 110,32 z"
       transform="scale(0.0029,-0.0029)" />
  </g>
  <g
     id="g706"
     transform="translate(43.4067,4.0091954)">
    <path
       id="path704"
       fill="currentColor"
       d="m -25,-120 c 0,32 16,43 50,43 28,0 65,-8 99,-20 L 0,51 c -8,9 -11,17 -11,26 0,35 54,68 90,103 22,22 34,51 34,80 0,25 -9,50 -26,71 l -29,34 c -4,4 -5,9 -5,13 0,11 10,20 21,20 5,0 11,-2 15,-7 L 237,214 c 8,-9 10,-17 10,-26 0,-35 -53,-68 -89,-103 -22,-22 -34,-51 -34,-80 0,-25 9,-50 26,-71 l 77,-91 c 4,-4 5,-9 5,-13 0,-11 -10,-20 -21,-20 -5,0 -11,2 -15,7 -15,18 -53,31 -84,31 -42,0 -56,-22 -56,-64 0,-33 11,-71 27,-90 2,-2 2,-5 2,-7 0,-5 -5,-10 -10,-10 -3,0 -6,1 -8,4 -44,52 -92,145 -92,199 z"
       transform="scale(0.0029,-0.0029)" />
  </g>
  <g
     id="g710"
     transform="translate(41.3116,5.4827954)">
    <rect
       id="rect708"
       fill="currentColor"
       ry="0.042100001"
       height="1.85"
       width="0.1228"
       y="2.6982"
       x="-0.0614" />
  </g>
  <g
     id="g714"
     transform="translate(41.2502,8.0617954)">
    <path
       id="path712"
       fill="currentColor"
       d="m 208,139 c 61,0 117,-33 117,-99 0,-71 -52,-119 -99,-147 -34,-20 -71,-32 -110,-32 -61,0 -116,33 -116,99 0,71 51,119 98,147 34,20 71,32 110,32 z"
       transform="scale(0.0029,-0.0029)" />
  </g>
  <g
     id="g718"
     transform="translate(57.5277,5.4827954)">
    <rect
       id="rect716"
       fill="currentColor"
       ry="0.042100001"
       height="2.2755001"
       width="0.1228"
       y="-2.7632"
       x="-0.0614" />
  </g>
  <g
     id="g722"
     transform="translate(57.0494,5.4827954)">
    <rect
       id="rect720"
       fill="currentColor"
       ry="0.042100001"
       height="1.5719"
       width="0.1228"
       y="-2.7964001"
       x="-0.0614" />
  </g>
  <g
     id="g726"
     transform="translate(56.1543,8.4301954)">
    <path
       id="path724"
       fill="currentColor"
       d="m 208,139 c 61,0 117,-33 117,-99 0,-71 -52,-119 -99,-147 -34,-20 -71,-32 -110,-32 -61,0 -116,33 -116,99 0,71 51,119 98,147 34,20 71,32 110,32 z"
       transform="scale(0.0029,-0.0029)" />
  </g>
  <g
     id="g730"
     transform="translate(57.1108,6.5880954)">
    <path
       id="path728"
       fill="currentColor"
       d="m 208,139 c 61,0 117,-33 117,-99 0,-71 -52,-119 -99,-147 -34,-20 -71,-32 -110,-32 -61,0 -116,33 -116,99 0,71 51,119 98,147 34,20 71,32 110,32 z"
       transform="scale(0.0029,-0.0029)" />
  </g>
  <g
     id="g734"
     transform="translate(56.6326,5.1143954)">
    <path
       id="path732"
       fill="currentColor"
       d="m 208,139 c 61,0 117,-33 117,-99 0,-71 -52,-119 -99,-147 -34,-20 -71,-32 -110,-32 -61,0 -116,33 -116,99 0,71 51,119 98,147 34,20 71,32 110,32 z"
       transform="scale(0.0029,-0.0029)" />
  </g>
  <g
     id="g738"
     transform="translate(56.1543,4.3775954)">
    <path
       id="path736"
       fill="currentColor"
       d="m 208,139 c 61,0 117,-33 117,-99 0,-71 -52,-119 -99,-147 -34,-20 -71,-32 -110,-32 -61,0 -116,33 -116,99 0,71 51,119 98,147 34,20 71,32 110,32 z"
       transform="scale(0.0029,-0.0029)" />
  </g>
  <g
     id="g742"
     transform="translate(35.9259,5.4827954)">
    <rect
       id="rect740"
       fill="currentColor"
       ry="0.042100001"
       height="2.0913"
       width="0.1228"
       y="-3.3158"
       x="-0.0614" />
  </g>
  <g
     id="g746"
     transform="translate(53.6778,5.4827954)">
    <rect
       id="rect744"
       fill="currentColor"
       ry="0.042100001"
       height="2.6106999"
       width="0.1228"
       y="-1.6246001"
       x="-0.0614" />
  </g>
  <g
     id="g750"
     transform="translate(52.7827,8.4301954)">
    <path
       id="path748"
       fill="currentColor"
       d="M 63,-250 182,75 C 150,64 117,54 83,54 36,54 -4,88 -4,133 c 0,40 34,72 75,72 25,0 48,-13 56,-36 10,-26 4,-58 32,-58 13,0 48,38 54,50 8,15 30,15 37,0 L 133,-250 c -10,-8 -23,-13 -35,-13 -12,0 -25,5 -35,13 z"
       transform="scale(0.0029,-0.0029)" />
  </g>
  <g
     id="g754"
     transform="translate(52.7827,6.5880954)">
    <path
       id="path752"
       fill="currentColor"
       d="m 208,139 c 61,0 117,-33 117,-99 0,-71 -52,-119 -99,-147 -34,-20 -71,-32 -110,-32 -61,0 -116,33 -116,99 0,71 51,119 98,147 34,20 71,32 110,32 z"
       transform="scale(0.0029,-0.0029)" />
  </g>
  <g
     id="g758"
     transform="translate(50.6876,5.4827954)">
    <rect
       id="rect756"
       fill="currentColor"
       ry="0.042100001"
       height="2.7088001"
       width="0.1228"
       y="0.85610002"
       x="-0.0614" />
  </g>
  <g
     id="g762"
     transform="translate(50.6262,6.2196954)">
    <path
       id="path760"
       fill="currentColor"
       d="m 208,139 c 61,0 117,-33 117,-99 0,-71 -52,-119 -99,-147 -34,-20 -71,-32 -110,-32 -61,0 -116,33 -116,99 0,71 51,119 98,147 34,20 71,32 110,32 z"
       transform="scale(0.0029,-0.0029)" />
  </g>
  <g
     id="g766"
     transform="translate(36.8823,5.4827954)">
    <rect
       id="rect764"
       fill="currentColor"
       ry="0.042100001"
       height="2.4597001"
       width="0.1228"
       y="-2.2105"
       x="-0.0614" />
  </g>
  <g
     id="g770"
     transform="translate(36.9437,3.3143954)">
    <path
       id="path768"
       fill="currentColor"
       d="m 0,0 c 0,-196 207,-334 207,-530 0,-71 -15,-140 -41,-206 -5,-10 -14,-13 -23,-13 -14,0 -28,10 -28,26 0,2 1,3 1,5 26,59 42,123 42,188 0,101 -90,205 -158,280 H -21 V 0 Z"
       transform="scale(0.0029,-0.0029)" />
  </g>
  <g
     id="g774"
     transform="translate(37.2486,5.4827954)">
    <rect
       id="rect772"
       fill="currentColor"
       ry="0.042100001"
       height="2.4208"
       width="0.1228"
       y="1.9613"
       x="-0.0614" />
  </g>
  <g
     id="g778"
     transform="translate(37.1872,7.3249954)">
    <path
       id="path776"
       fill="currentColor"
       d="m 208,139 c 61,0 117,-33 117,-99 0,-71 -52,-119 -99,-147 -34,-20 -71,-32 -110,-32 -61,0 -116,33 -116,99 0,71 51,119 98,147 34,20 71,32 110,32 z"
       transform="scale(0.0029,-0.0029)" />
  </g>
  <g
     id="g782"
     transform="translate(35.0921,5.4827954)">
    <rect
       id="rect780"
       fill="currentColor"
       ry="0.042100001"
       height="1.9642"
       width="0.1228"
       y="2.3297999"
       x="-0.0614" />
  </g>
  <g
     id="g786"
     transform="translate(35.9872,2.2091954)">
    <path
       id="path784"
       fill="currentColor"
       d="m 0,0 c 0,-196 207,-334 207,-530 0,-71 -15,-140 -41,-206 -5,-10 -14,-13 -23,-13 -14,0 -28,10 -28,26 0,2 1,3 1,5 26,59 42,123 42,188 0,101 -90,205 -158,280 H -21 V 0 Z"
       transform="scale(0.0029,-0.0029)" />
  </g>
  <g
     id="g790"
     transform="translate(39.4051,5.4827954)">
    <rect
       id="rect788"
       fill="currentColor"
       ry="0.042100001"
       height="2.1405001"
       width="0.1228"
       y="2.3297999"
       x="-0.0614" />
  </g>
  <g
     id="g794"
     transform="translate(36.4041,5.4827954)">
    <rect
       id="rect792"
       fill="currentColor"
       ry="0.042100001"
       height="2.2755001"
       width="0.1228"
       y="-2.7632"
       x="-0.0614" />
  </g>
  <g
     id="g798"
     transform="translate(39.3437,7.6933954)">
    <path
       id="path796"
       fill="currentColor"
       d="m 208,139 c 61,0 117,-33 117,-99 0,-71 -52,-119 -99,-147 -34,-20 -71,-32 -110,-32 -61,0 -116,33 -116,99 0,71 51,119 98,147 34,20 71,32 110,32 z"
       transform="scale(0.0029,-0.0029)" />
  </g>
  <g
     id="g802"
     transform="translate(39.3437,4.0091954)">
    <path
       id="path800"
       fill="currentColor"
       d="M 63,-250 182,75 C 150,64 117,54 83,54 36,54 -4,88 -4,133 c 0,40 34,72 75,72 25,0 48,-13 56,-36 10,-26 4,-58 32,-58 13,0 48,38 54,50 8,15 30,15 37,0 L 133,-250 c -10,-8 -23,-13 -35,-13 -12,0 -25,5 -35,13 z"
       transform="scale(0.0029,-0.0029)" />
  </g>
  <g
     id="g806"
     transform="translate(36.4655,2.7617954)">
    <path
       id="path804"
       fill="currentColor"
       d="m 0,0 c 0,-196 207,-334 207,-530 0,-71 -15,-140 -41,-206 -5,-10 -14,-13 -23,-13 -14,0 -28,10 -28,26 0,2 1,3 1,5 26,59 42,123 42,188 0,101 -90,205 -158,280 H -21 V 0 Z"
       transform="scale(0.0029,-0.0029)" />
  </g>
</svg>
