<?xml version="1.0" encoding="UTF-8" standalone="no"?>
<svg
   xmlns:dc="http://purl.org/dc/elements/1.1/"
   xmlns:cc="http://creativecommons.org/ns#"
   xmlns:rdf="http://www.w3.org/1999/02/22-rdf-syntax-ns#"
   xmlns:svg="http://www.w3.org/2000/svg"
   xmlns="http://www.w3.org/2000/svg"
   xmlns:sodipodi="http://sodipodi.sourceforge.net/DTD/sodipodi-0.dtd"
   xmlns:inkscape="http://www.inkscape.org/namespaces/inkscape"
   sodipodi:docname="bwv-1004_5_for_PNGs-7.svg"
   id="svg1192"
   viewBox="0 0 230.02469 9.9384652"
   height="16.59161mm"
   width="384.01105mm"
   version="1.2">
  <metadata
     id="metadata1198">
    <rdf:RDF>
      <cc:Work
         rdf:about="">
        <dc:format>image/svg+xml</dc:format>
        <dc:type
           rdf:resource="http://purl.org/dc/dcmitype/StillImage" />
      </cc:Work>
    </rdf:RDF>
  </metadata>
  <defs
     id="defs1196" />
  <sodipodi:namedview
     id="namedview1194"
     inkscape:window-height="480"
     inkscape:window-width="640"
     inkscape:pageshadow="2"
     inkscape:pageopacity="0"
     guidetolerance="10"
     gridtolerance="10"
     objecttolerance="10"
     borderopacity="1"
     bordercolor="#666666"
     pagecolor="#ffffff" />
  <style
     id="style2"
     type="text/css"><![CDATA[
tspan { white-space: pre; }
]]></style>
  <g
     id="g6"
     transform="translate(0,7.6932643)">
    <line
       id="line4"
       y2="0"
       x2="229.97749"
       y1="0"
       x1="0.047200002"
       stroke="currentColor"
       stroke-width="0.0944"
       stroke-linecap="round"
       stroke-linejoin="round" />
  </g>
  <g
     id="g10"
     transform="translate(0,6.9564643)">
    <line
       id="line8"
       y2="0"
       x2="229.97749"
       y1="0"
       x1="0.047200002"
       stroke="currentColor"
       stroke-width="0.0944"
       stroke-linecap="round"
       stroke-linejoin="round" />
  </g>
  <g
     id="g14"
     transform="translate(0,6.2195643)">
    <line
       id="line12"
       y2="0"
       x2="229.97749"
       y1="0"
       x1="0.047200002"
       stroke="currentColor"
       stroke-width="0.0944"
       stroke-linecap="round"
       stroke-linejoin="round" />
  </g>
  <g
     id="g18"
     transform="translate(0,5.4827643)">
    <line
       id="line16"
       y2="0"
       x2="229.97749"
       y1="0"
       x1="0.047200002"
       stroke="currentColor"
       stroke-width="0.0944"
       stroke-linecap="round"
       stroke-linejoin="round" />
  </g>
  <g
     id="g22"
     transform="translate(0,4.7459643)">
    <line
       id="line20"
       y2="0"
       x2="229.97749"
       y1="0"
       x1="0.047200002"
       stroke="currentColor"
       stroke-width="0.0944"
       stroke-linecap="round"
       stroke-linejoin="round" />
  </g>
  <g
     id="g26"
     transform="translate(173.2355,6.2195643)">
    <rect
       id="rect24"
       fill="currentColor"
       ry="0.0000"
       height="2.9474001"
       width="0.1794"
       y="-1.4737"
       x="0" />
  </g>
  <g
     id="g30"
     transform="translate(229.8453,6.2195643)">
    <rect
       id="rect28"
       fill="currentColor"
       ry="0.0000"
       height="2.9474001"
       width="0.1794"
       y="-1.4737"
       x="0" />
  </g>
  <g
     id="g34"
     transform="translate(88.6926,6.2195643)">
    <rect
       id="rect32"
       fill="currentColor"
       ry="0.0000"
       height="2.9474001"
       width="0.1794"
       y="-1.4737"
       x="0" />
  </g>
  <g
     id="g38"
     transform="translate(117.5709,6.2195643)">
    <rect
       id="rect36"
       fill="currentColor"
       ry="0.0000"
       height="2.9474001"
       width="0.1794"
       y="-1.4737"
       x="0" />
  </g>
  <g
     id="g42"
     transform="translate(60.7775,6.2195643)">
    <rect
       id="rect40"
       fill="currentColor"
       ry="0.0000"
       height="2.9474001"
       width="0.1794"
       y="-1.4737"
       x="0" />
  </g>
  <g
     id="g46"
     transform="translate(145.5282,6.2195643)">
    <rect
       id="rect44"
       fill="currentColor"
       ry="0.0000"
       height="2.9474001"
       width="0.1794"
       y="-1.4737"
       x="0" />
  </g>
  <g
     id="g50"
     transform="translate(200.9428,6.2195643)">
    <rect
       id="rect48"
       fill="currentColor"
       ry="0.0000"
       height="2.9474001"
       width="0.1794"
       y="-1.4737"
       x="0" />
  </g>
  <g
     id="g54"
     transform="translate(33.3682,6.2195643)">
    <rect
       id="rect52"
       fill="currentColor"
       ry="0.0000"
       height="2.9474001"
       width="0.1794"
       y="-1.4737"
       x="0" />
  </g>
  <g
     id="g58"
     transform="translate(0,2.5353643)">
    <rect
       id="rect56"
       fill="currentColor"
       ry="0.084100001"
       height="0.1681"
       width="1.4347"
       y="-0.084100001"
       x="221.2061" />
  </g>
  <g
     id="g62"
     transform="translate(0,3.2722643)">
    <rect
       id="rect60"
       fill="currentColor"
       ry="0.084100001"
       height="0.1681"
       width="1.4347"
       y="-0.084100001"
       x="221.2061" />
  </g>
  <g
     id="g66"
     transform="translate(0,4.0090643)">
    <rect
       id="rect64"
       fill="currentColor"
       ry="0.084100001"
       height="0.1681"
       width="1.4347"
       y="-0.084100001"
       x="221.2061" />
  </g>
  <g
     id="g70"
     transform="translate(0,3.2722643)">
    <rect
       id="rect68"
       fill="currentColor"
       ry="0.084100001"
       height="0.1681"
       width="1.3706"
       y="-0.084100001"
       x="218.86369" />
  </g>
  <g
     id="g74"
     transform="translate(0,4.0090643)">
    <rect
       id="rect72"
       fill="currentColor"
       ry="0.084100001"
       height="0.1681"
       width="1.4347"
       y="-0.084100001"
       x="218.79961" />
  </g>
  <g
     id="g78"
     transform="translate(0,4.0090643)">
    <rect
       id="rect76"
       fill="currentColor"
       ry="0.084100001"
       height="0.1681"
       width="1.4347"
       y="-0.084100001"
       x="216.0826" />
  </g>
  <g
     id="g82"
     transform="translate(0,4.0090643)">
    <rect
       id="rect80"
       fill="currentColor"
       ry="0.084100001"
       height="0.1681"
       width="1.4347"
       y="-0.084100001"
       x="211.76961" />
  </g>
  <g
     id="g86"
     transform="translate(0,8.4301643)">
    <rect
       id="rect84"
       fill="currentColor"
       ry="0.084100001"
       height="0.1681"
       width="1.4347"
       y="-0.084100001"
       x="175.9823" />
  </g>
  <g
     id="g90"
     transform="translate(0,4.0090643)">
    <rect
       id="rect88"
       fill="currentColor"
       ry="0.084100001"
       height="0.1681"
       width="1.4347"
       y="-0.084100001"
       x="170.8399" />
  </g>
  <g
     id="g94"
     transform="translate(0,8.4301643)">
    <rect
       id="rect92"
       fill="currentColor"
       ry="0.084100001"
       height="0.1681"
       width="1.4347"
       y="-0.084100001"
       x="148.27499" />
  </g>
  <g
     id="g98"
     transform="translate(0,4.0090643)">
    <rect
       id="rect96"
       fill="currentColor"
       ry="0.084100001"
       height="0.1681"
       width="1.4347"
       y="-0.084100001"
       x="143.1326" />
  </g>
  <g
     id="g102"
     transform="translate(0,4.0090643)">
    <rect
       id="rect100"
       fill="currentColor"
       ry="0.084100001"
       height="0.1681"
       width="1.4347"
       y="-0.084100001"
       x="140.7262" />
  </g>
  <g
     id="g106"
     transform="translate(0,8.4301643)">
    <rect
       id="rect104"
       fill="currentColor"
       ry="0.084100001"
       height="0.1681"
       width="1.4347"
       y="-0.084100001"
       x="94.706398" />
  </g>
  <g
     id="g110"
     transform="translate(0,8.4301643)">
    <rect
       id="rect108"
       fill="currentColor"
       ry="0.084100001"
       height="0.1681"
       width="1.4347"
       y="-0.084100001"
       x="92.300003" />
  </g>
  <g
     id="g114"
     transform="translate(0,9.1669643)">
    <rect
       id="rect112"
       fill="currentColor"
       ry="0.084100001"
       height="0.1681"
       width="1.4347"
       y="-0.084100001"
       x="92.300003" />
  </g>
  <g
     id="g118"
     transform="translate(0,8.4301643)">
    <rect
       id="rect116"
       fill="currentColor"
       ry="0.084100001"
       height="0.1681"
       width="1.3706"
       y="-0.084100001"
       x="90.457603" />
  </g>
  <g
     id="g122"
     transform="translate(0,8.4301643)">
    <rect
       id="rect120"
       fill="currentColor"
       ry="0.084100001"
       height="0.1681"
       width="1.4347"
       y="-0.084100001"
       x="79.071701" />
  </g>
  <g
     id="g126"
     transform="translate(0,9.1669643)">
    <rect
       id="rect124"
       fill="currentColor"
       ry="0.084100001"
       height="0.1681"
       width="1.4347"
       y="-0.084100001"
       x="79.071701" />
  </g>
  <g
     id="g130"
     transform="translate(0,8.4301643)">
    <rect
       id="rect128"
       fill="currentColor"
       ry="0.084100001"
       height="0.1681"
       width="1.4347"
       y="-0.084100001"
       x="76.915199" />
  </g>
  <g
     id="g134"
     transform="translate(0,9.1669643)">
    <rect
       id="rect132"
       fill="currentColor"
       ry="0.084100001"
       height="0.1681"
       width="1.4347"
       y="-0.084100001"
       x="76.915199" />
  </g>
  <g
     id="g138"
     transform="translate(0,8.4301643)">
    <rect
       id="rect136"
       fill="currentColor"
       ry="0.084100001"
       height="0.1681"
       width="1.4347"
       y="-0.084100001"
       x="74.758698" />
  </g>
  <g
     id="g142"
     transform="translate(0,8.4301643)">
    <rect
       id="rect140"
       fill="currentColor"
       ry="0.084100001"
       height="0.1681"
       width="1.4347"
       y="-0.084100001"
       x="72.852203" />
  </g>
  <g
     id="g146"
     transform="translate(0,8.4301643)">
    <rect
       id="rect144"
       fill="currentColor"
       ry="0.084100001"
       height="0.1681"
       width="1.4347"
       y="-0.084100001"
       x="51.210499" />
  </g>
  <g
     id="g150"
     transform="translate(0,9.1669643)">
    <rect
       id="rect148"
       fill="currentColor"
       ry="0.084100001"
       height="0.1681"
       width="1.4347"
       y="-0.084100001"
       x="51.210499" />
  </g>
  <g
     id="g154"
     transform="translate(0,8.4301643)">
    <rect
       id="rect152"
       fill="currentColor"
       ry="0.084100001"
       height="0.1681"
       width="1.4347"
       y="-0.084100001"
       x="49.054001" />
  </g>
  <g
     id="g158"
     transform="translate(0,8.4301643)">
    <rect
       id="rect156"
       fill="currentColor"
       ry="0.084100001"
       height="0.1681"
       width="1.4347"
       y="-0.084100001"
       x="47.147499" />
  </g>
  <g
     id="g162"
     transform="translate(0,8.4301643)">
    <rect
       id="rect160"
       fill="currentColor"
       ry="0.084100001"
       height="0.1681"
       width="1.4347"
       y="-0.084100001"
       x="24.264799" />
  </g>
  <g
     id="g166"
     transform="translate(0,8.4301643)">
    <rect
       id="rect164"
       fill="currentColor"
       ry="0.084100001"
       height="0.1681"
       width="1.4347"
       y="-0.084100001"
       x="22.358299" />
  </g>
  <g
     id="g170"
     transform="translate(155.7336,5.8511643)">
    <path
       id="path168"
       fill="currentColor"
       d="m 208,139 c 61,0 117,-33 117,-99 0,-71 -52,-119 -99,-147 -34,-20 -71,-32 -110,-32 -61,0 -116,33 -116,99 0,71 51,119 98,147 34,20 71,32 110,32 z"
       transform="scale(0.0029,-0.0029)" />
  </g>
  <g
     id="g174"
     transform="translate(156.6287,6.2195643)">
    <rect
       id="rect172"
       fill="currentColor"
       ry="0.042100001"
       height="1.7283"
       width="0.1228"
       y="-2.2160001"
       x="-0.0614" />
  </g>
  <g
     id="g178"
     transform="translate(157.6401,6.9564643)">
    <path
       id="path176"
       fill="currentColor"
       d="m 208,139 c 61,0 117,-33 117,-99 0,-71 -52,-119 -99,-147 -34,-20 -71,-32 -110,-32 -61,0 -116,33 -116,99 0,71 51,119 98,147 34,20 71,32 110,32 z"
       transform="scale(0.0029,-0.0029)" />
  </g>
  <g
     id="g182"
     transform="translate(158.5352,6.2195643)">
    <rect
       id="rect180"
       fill="currentColor"
       ry="0.042100001"
       height="3.0028"
       width="0.1228"
       y="-2.3852"
       x="-0.0614" />
  </g>
  <g
     id="g186"
     transform="translate(160.0466,5.8511643)">
    <path
       id="path184"
       fill="currentColor"
       d="m 208,139 c 61,0 117,-33 117,-99 0,-71 -52,-119 -99,-147 -34,-20 -71,-32 -110,-32 -61,0 -116,33 -116,99 0,71 51,119 98,147 34,20 71,32 110,32 z"
       transform="scale(0.0029,-0.0029)" />
  </g>
  <g
     id="g190"
     transform="translate(160.9417,6.2195643)">
    <rect
       id="rect188"
       fill="currentColor"
       ry="0.042100001"
       height="2.1111"
       width="0.1228"
       y="-2.5987"
       x="-0.0614" />
  </g>
  <g
     id="g194"
     transform="translate(148.5141,8.4301643)">
    <path
       id="path192"
       fill="currentColor"
       d="m 208,139 c 61,0 117,-33 117,-99 0,-71 -52,-119 -99,-147 -34,-20 -71,-32 -110,-32 -61,0 -116,33 -116,99 0,71 51,119 98,147 34,20 71,32 110,32 z"
       transform="scale(0.0029,-0.0029)" />
  </g>
  <g
     id="g198"
     transform="translate(149.4092,6.2195643)">
    <rect
       id="rect196"
       fill="currentColor"
       ry="0.042100001"
       height="4.6971002"
       width="0.1228"
       y="-2.6057999"
       x="-0.0614" />
  </g>
  <g
     id="g202"
     transform="translate(154.2222,6.2195643)">
    <rect
       id="rect200"
       fill="currentColor"
       ry="0.042100001"
       height="2.7051001"
       width="0.1228"
       y="-2.0875001"
       x="-0.0614" />
  </g>
  <g
     id="g206"
     transform="translate(150.9206,7.6932643)">
    <path
       id="path204"
       fill="currentColor"
       d="m 208,139 c 61,0 117,-33 117,-99 0,-71 -52,-119 -99,-147 -34,-20 -71,-32 -110,-32 -61,0 -116,33 -116,99 0,71 51,119 98,147 34,20 71,32 110,32 z"
       transform="scale(0.0029,-0.0029)" />
  </g>
  <g
     id="g210"
     transform="translate(151.8157,6.2195643)">
    <rect
       id="rect208"
       fill="currentColor"
       ry="0.042100001"
       height="3.7011001"
       width="0.1228"
       y="-2.3467"
       x="-0.0614" />
  </g>
  <g
     id="g214"
     transform="translate(153.3271,6.9564643)">
    <path
       id="path212"
       fill="currentColor"
       d="m 208,139 c 61,0 117,-33 117,-99 0,-71 -52,-119 -99,-147 -34,-20 -71,-32 -110,-32 -61,0 -116,33 -116,99 0,71 51,119 98,147 34,20 71,32 110,32 z"
       transform="scale(0.0029,-0.0029)" />
  </g>
  <g
     id="g218"
     transform="translate(175.21,6.2195643)">
    <rect
       id="rect216"
       fill="currentColor"
       ry="0.042100001"
       height="1.9551001"
       width="0.1228"
       y="-2.8111"
       x="-0.0614" />
  </g>
  <g
     id="g222"
     transform="translate(171.079,4.0090643)">
    <path
       id="path220"
       fill="currentColor"
       d="m 208,139 c 61,0 117,-33 117,-99 0,-71 -52,-119 -99,-147 -34,-20 -71,-32 -110,-32 -61,0 -116,33 -116,99 0,71 51,119 98,147 34,20 71,32 110,32 z"
       transform="scale(0.0029,-0.0029)" />
  </g>
  <g
     id="g226"
     transform="translate(171.9741,6.2195643)">
    <rect
       id="rect224"
       fill="currentColor"
       ry="0.042100001"
       height="1.9507999"
       width="0.1228"
       y="-4.2804999"
       x="-0.0614" />
  </g>
  <g
     id="g230"
     transform="translate(174.3149,5.4827643)">
    <path
       id="path228"
       fill="currentColor"
       d="m 208,139 c 61,0 117,-33 117,-99 0,-71 -52,-119 -99,-147 -34,-20 -71,-32 -110,-32 -61,0 -116,33 -116,99 0,71 51,119 98,147 34,20 71,32 110,32 z"
       transform="scale(0.0029,-0.0029)" />
  </g>
  <g
     id="g234"
     transform="translate(162.4531,5.1143643)">
    <path
       id="path232"
       fill="currentColor"
       d="m 208,139 c 61,0 117,-33 117,-99 0,-71 -52,-119 -99,-147 -34,-20 -71,-32 -110,-32 -61,0 -116,33 -116,99 0,71 51,119 98,147 34,20 71,32 110,32 z"
       transform="scale(0.0029,-0.0029)" />
  </g>
  <g
     id="g238"
     transform="translate(163.3482,6.2195643)">
    <rect
       id="rect236"
       fill="currentColor"
       ry="0.042100001"
       height="1.5878"
       width="0.1228"
       y="-2.8123"
       x="-0.0614" />
  </g>
  <g
     id="g242"
     transform="translate(164.3595,6.5880643)">
    <path
       id="path240"
       fill="currentColor"
       d="m 208,139 c 61,0 117,-33 117,-99 0,-71 -52,-119 -99,-147 -34,-20 -71,-32 -110,-32 -61,0 -116,33 -116,99 0,71 51,119 98,147 34,20 71,32 110,32 z"
       transform="scale(0.0029,-0.0029)" />
  </g>
  <g
     id="g246"
     transform="translate(165.2546,6.2195643)">
    <rect
       id="rect244"
       fill="currentColor"
       ry="0.042100001"
       height="3.3371"
       width="0.1228"
       y="-3.0878999"
       x="-0.0614" />
  </g>
  <g
     id="g250"
     transform="translate(166.766,4.7459643)">
    <path
       id="path248"
       fill="currentColor"
       d="m 208,139 c 61,0 117,-33 117,-99 0,-71 -52,-119 -99,-147 -34,-20 -71,-32 -110,-32 -61,0 -116,33 -116,99 0,71 51,119 98,147 34,20 71,32 110,32 z"
       transform="scale(0.0029,-0.0029)" />
  </g>
  <g
     id="g254"
     transform="translate(167.6611,6.2195643)">
    <rect
       id="rect252"
       fill="currentColor"
       ry="0.042100001"
       height="1.9220999"
       width="0.1228"
       y="-3.5150001"
       x="-0.0614" />
  </g>
  <g
     id="g258"
     transform="translate(168.9225,4.3774643)">
    <path
       id="path256"
       fill="currentColor"
       d="m 208,139 c 61,0 117,-33 117,-99 0,-71 -52,-119 -99,-147 -34,-20 -71,-32 -110,-32 -61,0 -116,33 -116,99 0,71 51,119 98,147 34,20 71,32 110,32 z"
       transform="scale(0.0029,-0.0029)" />
  </g>
  <g
     id="g262"
     transform="translate(169.8176,6.2195643)">
    <rect
       id="rect260"
       fill="currentColor"
       ry="0.042100001"
       height="1.9364001"
       width="0.1228"
       y="-3.8978"
       x="-0.0614" />
  </g>
  <g
     id="g266"
     transform="translate(125.3698,6.5880643)">
    <path
       id="path264"
       fill="currentColor"
       d="m 208,139 c 61,0 117,-33 117,-99 0,-71 -52,-119 -99,-147 -34,-20 -71,-32 -110,-32 -61,0 -116,33 -116,99 0,71 51,119 98,147 34,20 71,32 110,32 z"
       transform="scale(0.0029,-0.0029)" />
  </g>
  <g
     id="g270"
     transform="translate(121.4519,6.2195643)">
    <rect
       id="rect268"
       fill="currentColor"
       ry="0.042100001"
       height="3.3712001"
       width="0.1228"
       y="-1.6483001"
       x="-0.0614" />
  </g>
  <g
     id="g274"
     transform="translate(122.9633,7.3248643)">
    <path
       id="path272"
       fill="currentColor"
       d="m 208,139 c 61,0 117,-33 117,-99 0,-71 -52,-119 -99,-147 -34,-20 -71,-32 -110,-32 -61,0 -116,33 -116,99 0,71 51,119 98,147 34,20 71,32 110,32 z"
       transform="scale(0.0029,-0.0029)" />
  </g>
  <g
     id="g278"
     transform="translate(123.8584,6.2195643)">
    <rect
       id="rect276"
       fill="currentColor"
       ry="0.042100001"
       height="2.8478999"
       width="0.1228"
       y="-1.8619"
       x="-0.0614" />
  </g>
  <g
     id="g282"
     transform="translate(120.5568,8.0617643)">
    <path
       id="path280"
       fill="currentColor"
       d="m 208,139 c 61,0 117,-33 117,-99 0,-71 -52,-119 -99,-147 -34,-20 -71,-32 -110,-32 -61,0 -116,33 -116,99 0,71 51,119 98,147 34,20 71,32 110,32 z"
       transform="scale(0.0029,-0.0029)" />
  </g>
  <g
     id="g286"
     transform="translate(126.2649,6.2195643)">
    <rect
       id="rect284"
       fill="currentColor"
       ry="0.042100001"
       height="2.3246"
       width="0.1228"
       y="-2.0755"
       x="-0.0614" />
  </g>
  <g
     id="g290"
     transform="translate(127.7763,5.4827643)">
    <path
       id="path288"
       fill="currentColor"
       d="m 208,139 c 61,0 117,-33 117,-99 0,-71 -52,-119 -99,-147 -34,-20 -71,-32 -110,-32 -61,0 -116,33 -116,99 0,71 51,119 98,147 34,20 71,32 110,32 z"
       transform="scale(0.0029,-0.0029)" />
  </g>
  <g
     id="g294"
     transform="translate(128.6714,6.2195643)">
    <rect
       id="rect292"
       fill="currentColor"
       ry="0.042100001"
       height="2.0967"
       width="0.1228"
       y="-2.9528"
       x="-0.0614" />
  </g>
  <g
     id="g298"
     transform="translate(119.5455,6.2195643)">
    <rect
       id="rect296"
       fill="currentColor"
       ry="0.042100001"
       height="2.4651999"
       width="0.1228"
       y="-1.4791"
       x="-0.0614" />
  </g>
  <g
     id="g302"
     transform="translate(223.3516,6.2195643)">
    <path
       id="path300"
       d="m 0.9612,-5.8933 c 1.1186,-0.651 3.5546,-0.1348 4.313,0.914 v 0 C 4.4923,-5.9172 2.0563,-6.4335 0.9612,-5.8933 Z"
       fill="currentColor"
       stroke="currentColor"
       stroke-linecap="round"
       stroke-linejoin="round"
       stroke-width="0.0755" />
  </g>
  <g
     id="g306"
     transform="translate(115.1644,7.6932643)">
    <path
       id="path304"
       fill="currentColor"
       d="m 208,139 c 61,0 117,-33 117,-99 0,-71 -52,-119 -99,-147 -34,-20 -71,-32 -110,-32 -61,0 -116,33 -116,99 0,71 51,119 98,147 34,20 71,32 110,32 z"
       transform="scale(0.0029,-0.0029)" />
  </g>
  <g
     id="g310"
     transform="translate(116.0595,6.2195643)">
    <rect
       id="rect308"
       fill="currentColor"
       ry="0.042100001"
       height="3.4477999"
       width="0.1228"
       y="-2.0933001"
       x="-0.0614" />
  </g>
  <g
     id="g314"
     transform="translate(118.6504,7.3248643)">
    <path
       id="path312"
       fill="currentColor"
       d="m 208,139 c 61,0 117,-33 117,-99 0,-71 -52,-119 -99,-147 -34,-20 -71,-32 -110,-32 -61,0 -116,33 -116,99 0,71 51,119 98,147 34,20 71,32 110,32 z"
       transform="scale(0.0029,-0.0029)" />
  </g>
  <g
     id="g318"
     transform="translate(129.6828,6.5880643)">
    <path
       id="path316"
       fill="currentColor"
       d="m 208,139 c 61,0 117,-33 117,-99 0,-71 -52,-119 -99,-147 -34,-20 -71,-32 -110,-32 -61,0 -116,33 -116,99 0,71 51,119 98,147 34,20 71,32 110,32 z"
       transform="scale(0.0029,-0.0029)" />
  </g>
  <g
     id="g322"
     transform="translate(138.8087,4.3774643)">
    <path
       id="path320"
       fill="currentColor"
       d="m 208,139 c 61,0 117,-33 117,-99 0,-71 -52,-119 -99,-147 -34,-20 -71,-32 -110,-32 -61,0 -116,33 -116,99 0,71 51,119 98,147 34,20 71,32 110,32 z"
       transform="scale(0.0029,-0.0029)" />
  </g>
  <g
     id="g326"
     transform="translate(139.7039,6.2195643)">
    <rect
       id="rect324"
       fill="currentColor"
       ry="0.042100001"
       height="2.023"
       width="0.1228"
       y="-3.9842999"
       x="-0.0614" />
  </g>
  <g
     id="g330"
     transform="translate(140.9652,4.0090643)">
    <path
       id="path328"
       fill="currentColor"
       d="m 208,139 c 61,0 117,-33 117,-99 0,-71 -52,-119 -99,-147 -34,-20 -71,-32 -110,-32 -61,0 -116,33 -116,99 0,71 51,119 98,147 34,20 71,32 110,32 z"
       transform="scale(0.0029,-0.0029)" />
  </g>
  <g
     id="g334"
     transform="translate(141.8603,6.2195643)">
    <rect
       id="rect332"
       fill="currentColor"
       ry="0.042100001"
       height="2.03"
       width="0.1228"
       y="-4.3597999"
       x="-0.0614" />
  </g>
  <g
     id="g338"
     transform="translate(143.3717,3.6406643)">
    <path
       id="path336"
       fill="currentColor"
       d="m 208,139 c 61,0 117,-33 117,-99 0,-71 -52,-119 -99,-147 -34,-20 -71,-32 -110,-32 -61,0 -116,33 -116,99 0,71 51,119 98,147 34,20 71,32 110,32 z"
       transform="scale(0.0029,-0.0029)" />
  </g>
  <g
     id="g342"
     transform="translate(144.2668,6.2195643)">
    <rect
       id="rect340"
       fill="currentColor"
       ry="0.042100001"
       height="2.0806"
       width="0.1228"
       y="-4.7788"
       x="-0.0614" />
  </g>
  <g
     id="g346"
     transform="translate(146.6076,5.1143643)">
    <path
       id="path344"
       fill="currentColor"
       d="m 208,139 c 61,0 117,-33 117,-99 0,-71 -52,-119 -99,-147 -34,-20 -71,-32 -110,-32 -61,0 -116,33 -116,99 0,71 51,119 98,147 34,20 71,32 110,32 z"
       transform="scale(0.0029,-0.0029)" />
  </g>
  <g
     id="g350"
     transform="translate(147.5027,6.2195643)">
    <rect
       id="rect348"
       fill="currentColor"
       ry="0.042100001"
       height="1.5865999"
       width="0.1228"
       y="-2.8111"
       x="-0.0614" />
  </g>
  <g
     id="g354"
     transform="translate(134.4958,4.7459643)">
    <path
       id="path352"
       fill="currentColor"
       d="m 208,139 c 61,0 117,-33 117,-99 0,-71 -52,-119 -99,-147 -34,-20 -71,-32 -110,-32 -61,0 -116,33 -116,99 0,71 51,119 98,147 34,20 71,32 110,32 z"
       transform="scale(0.0029,-0.0029)" />
  </g>
  <g
     id="g358"
     transform="translate(130.5779,6.2195643)">
    <rect
       id="rect356"
       fill="currentColor"
       ry="0.042100001"
       height="3.3712001"
       width="0.1228"
       y="-3.122"
       x="-0.0614" />
  </g>
  <g
     id="g362"
     transform="translate(132.0893,5.4827643)">
    <path
       id="path360"
       fill="currentColor"
       d="m 208,139 c 61,0 117,-33 117,-99 0,-71 -52,-119 -99,-147 -34,-20 -71,-32 -110,-32 -61,0 -116,33 -116,99 0,71 51,119 98,147 34,20 71,32 110,32 z"
       transform="scale(0.0029,-0.0029)" />
  </g>
  <g
     id="g366"
     transform="translate(132.9844,6.2195643)">
    <rect
       id="rect364"
       fill="currentColor"
       ry="0.042100001"
       height="2.4795001"
       width="0.1228"
       y="-3.3355999"
       x="-0.0614" />
  </g>
  <g
     id="g370"
     transform="translate(135.3909,6.2195643)">
    <rect
       id="rect368"
       fill="currentColor"
       ry="0.042100001"
       height="1.9562"
       width="0.1228"
       y="-3.5490999"
       x="-0.0614" />
  </g>
  <g
     id="g374"
     transform="translate(136.4023,6.2195643)">
    <path
       id="path372"
       fill="currentColor"
       d="m 208,139 c 61,0 117,-33 117,-99 0,-71 -52,-119 -99,-147 -34,-20 -71,-32 -110,-32 -61,0 -116,33 -116,99 0,71 51,119 98,147 34,20 71,32 110,32 z"
       transform="scale(0.0029,-0.0029)" />
  </g>
  <g
     id="g378"
     transform="translate(137.2974,6.2195643)">
    <rect
       id="rect376"
       fill="currentColor"
       ry="0.042100001"
       height="3.4460001"
       width="0.1228"
       y="-3.5653"
       x="-0.0614" />
  </g>
  <g
     id="g382"
     transform="translate(219.9338,6.2195643)">
    <rect
       id="rect380"
       fill="currentColor"
       ry="0.042100001"
       height="2.2146001"
       width="0.1228"
       y="-5.2811999"
       x="-0.0614" />
  </g>
  <g
     id="g386"
     transform="translate(217.8781,3.2722643)">
    <path
       id="path384"
       fill="currentColor"
       d="m 0,114 c 0,12 7,22 18,26 l 37,15 v 151 c 0,12 10,22 22,22 12,0 22,-10 22,-22 V 172 l 77,29 v 152 c 0,12 10,22 22,22 12,0 22,-10 22,-22 V 219 l 16,6 c 3,1 8,2 11,2 15,0 28,-12 28,-28 v -50 c 0,-12 -7,-23 -18,-27 L 220,108 V -44 l 16,7 c 3,1 8,2 11,2 15,0 28,-13 28,-29 v -50 c 0,-12 -7,-22 -18,-26 l -37,-15 v -151 c 0,-12 -10,-22 -22,-22 -12,0 -22,10 -22,22 v 134 l -77,-29 v -152 c 0,-12 -10,-22 -22,-22 -12,0 -22,10 -22,22 v 134 l -16,-6 c -3,-1 -8,-2 -11,-2 -15,0 -28,12 -28,28 v 50 c 0,12 7,23 18,27 l 37,14 V 44 L 39,37 C 36,36 31,35 28,35 13,35 0,48 0,64 Z M 176,91 99,61 V -91 l 77,30 z"
       transform="scale(0.0029,-0.0029)" />
  </g>
  <g
     id="g390"
     transform="translate(221.4452,2.5353643)">
    <path
       id="path388"
       fill="currentColor"
       d="m 208,139 c 61,0 117,-33 117,-99 0,-71 -52,-119 -99,-147 -34,-20 -71,-32 -110,-32 -61,0 -116,33 -116,99 0,71 51,119 98,147 34,20 71,32 110,32 z"
       transform="scale(0.0029,-0.0029)" />
  </g>
  <g
     id="g394"
     transform="translate(222.3403,6.2195643)">
    <rect
       id="rect392"
       fill="currentColor"
       ry="0.042100001"
       height="1.9487"
       width="0.1228"
       y="-5.7521"
       x="-0.0614" />
  </g>
  <g
     id="g398"
     transform="translate(219.0387,3.2722643)">
    <path
       id="path396"
       fill="currentColor"
       d="m 208,139 c 61,0 117,-33 117,-99 0,-71 -52,-119 -99,-147 -34,-20 -71,-32 -110,-32 -61,0 -116,33 -116,99 0,71 51,119 98,147 34,20 71,32 110,32 z"
       transform="scale(0.0029,-0.0029)" />
  </g>
  <g
     id="g402"
     transform="translate(223.3516,4.3774643)">
    <path
       id="path400"
       fill="currentColor"
       d="m 208,139 c 61,0 117,-33 117,-99 0,-71 -52,-119 -99,-147 -34,-20 -71,-32 -110,-32 -61,0 -116,33 -116,99 0,71 51,119 98,147 34,20 71,32 110,32 z"
       transform="scale(0.0029,-0.0029)" />
  </g>
  <g
     id="g406"
     transform="translate(224.2467,6.2195643)">
    <rect
       id="rect404"
       fill="currentColor"
       ry="0.042100001"
       height="3.3866999"
       width="0.1228"
       y="-5.3481002"
       x="-0.0614" />
  </g>
  <g
     id="g410"
     transform="translate(225.5081,4.7459643)">
    <path
       id="path408"
       fill="currentColor"
       d="m 208,139 c 61,0 117,-33 117,-99 0,-71 -52,-119 -99,-147 -34,-20 -71,-32 -110,-32 -61,0 -116,33 -116,99 0,71 51,119 98,147 34,20 71,32 110,32 z"
       transform="scale(0.0029,-0.0029)" />
  </g>
  <g
     id="g414"
     transform="translate(226.4032,6.2195643)">
    <rect
       id="rect412"
       fill="currentColor"
       ry="0.042100001"
       height="3.2981999"
       width="0.1228"
       y="-4.8910999"
       x="-0.0614" />
  </g>
  <g
     id="g418"
     transform="translate(213.9152,5.1143643)">
    <path
       id="path416"
       fill="currentColor"
       d="m 208,139 c 61,0 117,-33 117,-99 0,-71 -52,-119 -99,-147 -34,-20 -71,-32 -110,-32 -61,0 -116,33 -116,99 0,71 51,119 98,147 34,20 71,32 110,32 z"
       transform="scale(0.0029,-0.0029)" />
  </g>
  <g
     id="g422"
     transform="translate(210.4973,6.2195643)">
    <rect
       id="rect420"
       fill="currentColor"
       ry="0.042100001"
       height="1.848"
       width="0.1228"
       y="-3.0725"
       x="-0.0614" />
  </g>
  <g
     id="g426"
     transform="translate(212.0087,4.0090643)">
    <path
       id="path424"
       fill="currentColor"
       d="m 208,139 c 61,0 117,-33 117,-99 0,-71 -52,-119 -99,-147 -34,-20 -71,-32 -110,-32 -61,0 -116,33 -116,99 0,71 51,119 98,147 34,20 71,32 110,32 z"
       transform="scale(0.0029,-0.0029)" />
  </g>
  <g
     id="g430"
     transform="translate(212.9038,6.2195643)">
    <rect
       id="rect428"
       fill="currentColor"
       ry="0.042100001"
       height="2.2272"
       width="0.1228"
       y="-4.5570002"
       x="-0.0614" />
  </g>
  <g
     id="g434"
     transform="translate(214.8103,6.2195643)">
    <rect
       id="rect432"
       fill="currentColor"
       ry="0.042100001"
       height="3.5288999"
       width="0.1228"
       y="-4.7533998"
       x="-0.0614" />
  </g>
  <g
     id="g438"
     transform="translate(216.3217,4.0090643)">
    <path
       id="path436"
       fill="currentColor"
       d="m 208,139 c 61,0 117,-33 117,-99 0,-71 -52,-119 -99,-147 -34,-20 -71,-32 -110,-32 -61,0 -116,33 -116,99 0,71 51,119 98,147 34,20 71,32 110,32 z"
       transform="scale(0.0029,-0.0029)" />
  </g>
  <g
     id="g442"
     transform="translate(217.2168,6.2195643)">
    <rect
       id="rect440"
       fill="currentColor"
       ry="0.042100001"
       height="2.6715"
       width="0.1228"
       y="-5.0012999"
       x="-0.0614" />
  </g>
  <g
     id="g446"
     transform="translate(138.8087,6.2195643)">
    <path
       id="path444"
       d="m 0.8404,-4.5296 c 0.8239,-1.0483 3.4333,-1.5027 4.563,-0.7944 v 0 C 4.2931,-5.9206 1.6837,-5.4663 0.8404,-4.5296 Z"
       fill="currentColor"
       stroke="currentColor"
       stroke-linecap="round"
       stroke-linejoin="round"
       stroke-width="0.0755" />
  </g>
  <g
     id="g450"
     transform="translate(52.2833,4.1386643)">
    <polygon
       id="polygon448"
       points="0.0421,0.1347 0.0421,-0.1347 7.0021,-0.1347 7.0021,0.1347 "
       stroke="currentColor"
       fill="currentColor"
       stroke-width="0.0842"
       stroke-linecap="round"
       stroke-linejoin="round" />
  </g>
  <g
     id="g454"
     transform="translate(52.2833,4.7459643)">
    <polygon
       id="polygon452"
       points="0.0421,0.1347 0.0421,-0.1347 7.0021,-0.1347 7.0021,0.1347 "
       stroke="currentColor"
       fill="currentColor"
       stroke-width="0.0842"
       stroke-linecap="round"
       stroke-linejoin="round" />
  </g>
  <g
     id="g458"
     transform="translate(62.6906,4.1386643)">
    <polygon
       id="polygon456"
       points="0.0421,0.1347 0.0421,-0.1347 7.0021,-0.1347 7.0021,0.1347 "
       stroke="currentColor"
       fill="currentColor"
       stroke-width="0.0842"
       stroke-linecap="round"
       stroke-linejoin="round" />
  </g>
  <g
     id="g462"
     transform="translate(62.6906,4.7459643)">
    <polygon
       id="polygon460"
       points="0.0421,0.1347 0.0421,-0.1347 7.0021,-0.1347 7.0021,0.1347 "
       stroke="currentColor"
       fill="currentColor"
       stroke-width="0.0842"
       stroke-linecap="round"
       stroke-linejoin="round" />
  </g>
  <g
     id="g466"
     transform="translate(64.2634,6.2195643)">
    <path
       id="path464"
       d="m 0.9427,-2.6262 c 1.9962,-1.0101 13.0305,0.66 14.6384,2.2156 v 0 C 13.9563,-1.8541 2.9219,-3.5242 0.9427,-2.6262 Z"
       fill="currentColor"
       stroke="currentColor"
       stroke-linecap="round"
       stroke-linejoin="round"
       stroke-width="0.0755" />
  </g>
  <g
     id="g470"
     transform="translate(71.7686,5.8511643)">
    <polygon
       id="polygon468"
       points="0.0421,0.1347 0.0421,-0.1347 6.3001,0.2337 6.3001,0.5032 "
       stroke="currentColor"
       fill="currentColor"
       stroke-width="0.0842"
       stroke-linecap="round"
       stroke-linejoin="round" />
  </g>
  <g
     id="g474"
     transform="translate(71.7686,6.4583643)">
    <polygon
       id="polygon472"
       points="0.0421,0.1347 0.0421,-0.1347 6.3001,0.2337 6.3001,0.5032 "
       stroke="currentColor"
       fill="currentColor"
       stroke-width="0.0842"
       stroke-linecap="round"
       stroke-linejoin="round" />
  </g>
  <g
     id="g478"
     transform="translate(80.1445,4.1386643)">
    <polygon
       id="polygon476"
       points="0.0421,0.1347 0.0421,-0.1347 7.056,-0.1347 7.056,0.1347 "
       stroke="currentColor"
       fill="currentColor"
       stroke-width="0.0842"
       stroke-linecap="round"
       stroke-linejoin="round" />
  </g>
  <g
     id="g482"
     transform="translate(80.1445,4.7459643)">
    <polygon
       id="polygon480"
       points="0.0421,0.1347 0.0421,-0.1347 7.056,-0.1347 7.056,0.1347 "
       stroke="currentColor"
       fill="currentColor"
       stroke-width="0.0842"
       stroke-linecap="round"
       stroke-linejoin="round" />
  </g>
  <g
     id="g486"
     transform="translate(91.4663,6.2195643)">
    <polygon
       id="polygon484"
       points="0.0421,0.1347 0.0421,-0.1347 6.8001,-0.742 6.8001,-0.4725 "
       stroke="currentColor"
       fill="currentColor"
       stroke-width="0.0842"
       stroke-linecap="round"
       stroke-linejoin="round" />
  </g>
  <g
     id="g490"
     transform="translate(91.4663,6.8268643)">
    <polygon
       id="polygon488"
       points="0.0421,0.1347 0.0421,-0.1347 6.8001,-0.742 6.8001,-0.4725 "
       stroke="currentColor"
       fill="currentColor"
       stroke-width="0.0842"
       stroke-linecap="round"
       stroke-linejoin="round" />
  </g>
  <g
     id="g494"
     transform="translate(100.5922,4.0090643)">
    <polygon
       id="polygon492"
       points="0.0421,0.1347 0.0421,-0.1347 7.1107,-0.742 7.1107,-0.4725 "
       stroke="currentColor"
       fill="currentColor"
       stroke-width="0.0842"
       stroke-linecap="round"
       stroke-linejoin="round" />
  </g>
  <g
     id="g498"
     transform="translate(100.5922,4.6162643)">
    <polygon
       id="polygon496"
       points="0.0421,0.1347 0.0421,-0.1347 7.1107,-0.742 7.1107,-0.4725 "
       stroke="currentColor"
       fill="currentColor"
       stroke-width="0.0842"
       stroke-linecap="round"
       stroke-linejoin="round" />
  </g>
  <g
     id="g502"
     transform="translate(110.0287,2.9038643)">
    <polygon
       id="polygon500"
       points="0.0421,0.1347 0.0421,-0.1347 6.0501,1.1002 6.0501,1.3696 "
       stroke="currentColor"
       fill="currentColor"
       stroke-width="0.0842"
       stroke-linecap="round"
       stroke-linejoin="round" />
  </g>
  <g
     id="g506"
     transform="translate(110.0287,3.5110643)">
    <polygon
       id="polygon504"
       points="0.0421,0.1347 0.0421,-0.1347 6.0501,1.1002 6.0501,1.3696 "
       stroke="currentColor"
       fill="currentColor"
       stroke-width="0.0842"
       stroke-linecap="round"
       stroke-linejoin="round" />
  </g>
  <g
     id="g510"
     transform="translate(119.4841,4.7459643)">
    <polygon
       id="polygon508"
       points="0.0421,0.1347 0.0421,-0.1347 6.8001,-0.742 6.8001,-0.4725 "
       stroke="currentColor"
       fill="currentColor"
       stroke-width="0.0842"
       stroke-linecap="round"
       stroke-linejoin="round" />
  </g>
  <g
     id="g514"
     transform="translate(119.4841,5.3531643)">
    <polygon
       id="polygon512"
       points="0.0421,0.1347 0.0421,-0.1347 6.8001,-0.742 6.8001,-0.4725 "
       stroke="currentColor"
       fill="currentColor"
       stroke-width="0.0842"
       stroke-linecap="round"
       stroke-linejoin="round" />
  </g>
  <g
     id="g518"
     transform="translate(128.61,3.2722643)">
    <polygon
       id="polygon516"
       points="0.0421,0.1347 0.0421,-0.1347 6.8001,-0.742 6.8001,-0.4725 "
       stroke="currentColor"
       fill="currentColor"
       stroke-width="0.0842"
       stroke-linecap="round"
       stroke-linejoin="round" />
  </g>
  <g
     id="g522"
     transform="translate(128.61,3.8794643)">
    <polygon
       id="polygon520"
       points="0.0421,0.1347 0.0421,-0.1347 6.8001,-0.742 6.8001,-0.4725 "
       stroke="currentColor"
       fill="currentColor"
       stroke-width="0.0842"
       stroke-linecap="round"
       stroke-linejoin="round" />
  </g>
  <g
     id="g526"
     transform="translate(137.236,2.6650643)">
    <polygon
       id="polygon524"
       points="0.0421,0.1347 0.0421,-0.1347 7.0501,-1.3696 7.0501,-1.1002 "
       stroke="currentColor"
       fill="currentColor"
       stroke-width="0.0842"
       stroke-linecap="round"
       stroke-linejoin="round" />
  </g>
  <g
     id="g530"
     transform="translate(137.236,3.2722643)">
    <polygon
       id="polygon528"
       points="0.0421,0.1347 0.0421,-0.1347 7.0501,-1.3696 7.0501,-1.1002 "
       stroke="currentColor"
       fill="currentColor"
       stroke-width="0.0842"
       stroke-linecap="round"
       stroke-linejoin="round" />
  </g>
  <g
     id="g534"
     transform="translate(43.9073,5.6123643)">
    <polygon
       id="polygon532"
       points="0.0421,0.1347 0.0421,-0.1347 6.3001,0.4725 6.3001,0.742 "
       stroke="currentColor"
       fill="currentColor"
       stroke-width="0.0842"
       stroke-linecap="round"
       stroke-linejoin="round" />
  </g>
  <g
     id="g538"
     transform="translate(43.9073,6.2195643)">
    <polygon
       id="polygon536"
       points="0.0421,0.1347 0.0421,-0.1347 6.3001,0.4725 6.3001,0.742 "
       stroke="currentColor"
       fill="currentColor"
       stroke-width="0.0842"
       stroke-linecap="round"
       stroke-linejoin="round" />
  </g>
  <g
     id="g542"
     transform="translate(147.4414,3.4018643)">
    <polygon
       id="polygon540"
       points="0.0421,0.1347 0.0421,-0.1347 6.8001,0.6021 6.8001,0.8716 "
       stroke="currentColor"
       fill="currentColor"
       stroke-width="0.0842"
       stroke-linecap="round"
       stroke-linejoin="round" />
  </g>
  <g
     id="g546"
     transform="translate(147.4414,4.0090643)">
    <polygon
       id="polygon544"
       points="0.0421,0.1347 0.0421,-0.1347 6.8001,0.6021 6.8001,0.8716 "
       stroke="currentColor"
       fill="currentColor"
       stroke-width="0.0842"
       stroke-linecap="round"
       stroke-linejoin="round" />
  </g>
  <g
     id="g550"
     transform="translate(156.5673,4.0090643)">
    <polygon
       id="polygon548"
       points="0.0421,0.1347 0.0421,-0.1347 6.8001,-0.742 6.8001,-0.4725 "
       stroke="currentColor"
       fill="currentColor"
       stroke-width="0.0842"
       stroke-linecap="round"
       stroke-linejoin="round" />
  </g>
  <g
     id="g554"
     transform="translate(156.5673,4.6162643)">
    <polygon
       id="polygon552"
       points="0.0421,0.1347 0.0421,-0.1347 6.8001,-0.742 6.8001,-0.4725 "
       stroke="currentColor"
       fill="currentColor"
       stroke-width="0.0842"
       stroke-linecap="round"
       stroke-linejoin="round" />
  </g>
  <g
     id="g558"
     transform="translate(165.1933,3.1426643)">
    <polygon
       id="polygon556"
       points="0.0421,0.1347 0.0421,-0.1347 6.8001,-1.3492 6.8001,-1.0797 "
       stroke="currentColor"
       fill="currentColor"
       stroke-width="0.0842"
       stroke-linecap="round"
       stroke-linejoin="round" />
  </g>
  <g
     id="g562"
     transform="translate(165.1933,3.7498643)">
    <polygon
       id="polygon560"
       points="0.0421,0.1347 0.0421,-0.1347 6.8001,-1.3492 6.8001,-1.0797 "
       stroke="currentColor"
       fill="currentColor"
       stroke-width="0.0842"
       stroke-linecap="round"
       stroke-linejoin="round" />
  </g>
  <g
     id="g566"
     transform="translate(166.766,6.2195643)">
    <path
       id="path564"
       d="m 0.8394,-4.0603 c 0.7891,-1.0193 3.2212,-1.451 4.313,-0.7655 v 0 c -1.072,-0.5739 -3.5041,-0.1423 -4.313,0.7655 z"
       fill="currentColor"
       stroke="currentColor"
       stroke-linecap="round"
       stroke-linejoin="round"
       stroke-width="0.0755" />
  </g>
  <g
     id="g570"
     transform="translate(175.1486,3.4018643)">
    <polygon
       id="polygon568"
       points="0.0421,0.1347 0.0421,-0.1347 6.8001,0.6021 6.8001,0.8716 "
       stroke="currentColor"
       fill="currentColor"
       stroke-width="0.0842"
       stroke-linecap="round"
       stroke-linejoin="round" />
  </g>
  <g
     id="g574"
     transform="translate(175.1486,4.0090643)">
    <polygon
       id="polygon572"
       points="0.0421,0.1347 0.0421,-0.1347 6.8001,0.6021 6.8001,0.8716 "
       stroke="currentColor"
       fill="currentColor"
       stroke-width="0.0842"
       stroke-linecap="round"
       stroke-linejoin="round" />
  </g>
  <g
     id="g578"
     transform="translate(184.2746,4.0090643)">
    <polygon
       id="polygon576"
       points="0.0421,0.1347 0.0421,-0.1347 6.8001,-0.742 6.8001,-0.4725 "
       stroke="currentColor"
       fill="currentColor"
       stroke-width="0.0842"
       stroke-linecap="round"
       stroke-linejoin="round" />
  </g>
  <g
     id="g582"
     transform="translate(184.2746,4.6162643)">
    <polygon
       id="polygon580"
       points="0.0421,0.1347 0.0421,-0.1347 6.8001,-0.742 6.8001,-0.4725 "
       stroke="currentColor"
       fill="currentColor"
       stroke-width="0.0842"
       stroke-linecap="round"
       stroke-linejoin="round" />
  </g>
  <g
     id="g586"
     transform="translate(192.9005,3.4018643)">
    <polygon
       id="polygon584"
       points="0.0421,0.1347 0.0421,-0.1347 6.8001,-1.3696 6.8001,-1.1002 "
       stroke="currentColor"
       fill="currentColor"
       stroke-width="0.0842"
       stroke-linecap="round"
       stroke-linejoin="round" />
  </g>
  <g
     id="g590"
     transform="translate(192.9005,4.0090643)">
    <polygon
       id="polygon588"
       points="0.0421,0.1347 0.0421,-0.1347 6.8001,-1.3696 6.8001,-1.1002 "
       stroke="currentColor"
       fill="currentColor"
       stroke-width="0.0842"
       stroke-linecap="round"
       stroke-linejoin="round" />
  </g>
  <g
     id="g594"
     transform="translate(194.4733,6.2195643)">
    <path
       id="path592"
       d="m 0.8385,-3.8084 c 0.7864,-1.0219 3.2189,-1.461 4.313,-0.7784 v 0 c -1.074,-0.571 -3.5064,-0.132 -4.313,0.7784 z"
       fill="currentColor"
       stroke="currentColor"
       stroke-linecap="round"
       stroke-linejoin="round"
       stroke-width="0.0755" />
  </g>
  <g
     id="g598"
     transform="translate(203.7164,3.6406643)">
    <polygon
       id="polygon596"
       points="0.0421,0.1347 0.0421,-0.1347 6.8001,-0.6328 6.8001,-0.3633 "
       stroke="currentColor"
       fill="currentColor"
       stroke-width="0.0842"
       stroke-linecap="round"
       stroke-linejoin="round" />
  </g>
  <g
     id="g602"
     transform="translate(203.7164,4.2478643)">
    <polygon
       id="polygon600"
       points="0.0421,0.1347 0.0421,-0.1347 6.8001,-0.6328 6.8001,-0.3633 "
       stroke="currentColor"
       fill="currentColor"
       stroke-width="0.0842"
       stroke-linecap="round"
       stroke-linejoin="round" />
  </g>
  <g
     id="g606"
     transform="translate(212.8424,1.6689643)">
    <polygon
       id="polygon604"
       points="0.0421,0.1347 0.0421,-0.1347 7.1107,-0.8716 7.1107,-0.6021 "
       stroke="currentColor"
       fill="currentColor"
       stroke-width="0.0842"
       stroke-linecap="round"
       stroke-linejoin="round" />
  </g>
  <g
     id="g610"
     transform="translate(212.8424,2.2761643)">
    <polygon
       id="polygon608"
       points="0.0421,0.1347 0.0421,-0.1347 7.1107,-0.8716 7.1107,-0.6021 "
       stroke="currentColor"
       fill="currentColor"
       stroke-width="0.0842"
       stroke-linecap="round"
       stroke-linejoin="round" />
  </g>
  <g
     id="g614"
     transform="translate(222.2789,0.45446426)">
    <polygon
       id="polygon612"
       points="0.0421,0.1347 0.0421,-0.1347 6.3001,1.2093 6.3001,1.4788 "
       stroke="currentColor"
       fill="currentColor"
       stroke-width="0.0842"
       stroke-linecap="round"
       stroke-linejoin="round" />
  </g>
  <g
     id="g618"
     transform="translate(222.2789,1.0617643)">
    <polygon
       id="polygon616"
       points="0.0421,0.1347 0.0421,-0.1347 6.3001,1.2093 6.3001,1.4788 "
       stroke="currentColor"
       fill="currentColor"
       stroke-width="0.0842"
       stroke-linecap="round"
       stroke-linejoin="round" />
  </g>
  <g
     id="g622"
     transform="translate(227.6646,5.1143643)">
    <path
       id="path620"
       fill="currentColor"
       d="m 208,139 c 61,0 117,-33 117,-99 0,-71 -52,-119 -99,-147 -34,-20 -71,-32 -110,-32 -61,0 -116,33 -116,99 0,71 51,119 98,147 34,20 71,32 110,32 z"
       transform="scale(0.0029,-0.0029)" />
  </g>
  <g
     id="g626"
     transform="translate(228.5597,6.2195643)">
    <rect
       id="rect624"
       fill="currentColor"
       ry="0.042100001"
       height="3.2096"
       width="0.1228"
       y="-4.4341002"
       x="-0.0614" />
  </g>
  <g
     id="g630"
     transform="translate(209.6022,5.1143643)">
    <path
       id="path628"
       fill="currentColor"
       d="m 208,139 c 61,0 117,-33 117,-99 0,-71 -52,-119 -99,-147 -34,-20 -71,-32 -110,-32 -61,0 -116,33 -116,99 0,71 51,119 98,147 34,20 71,32 110,32 z"
       transform="scale(0.0029,-0.0029)" />
  </g>
  <g
     id="g634"
     transform="translate(8.3357,3.6406643)">
    <polygon
       id="polygon632"
       points="0.0421,0.1347 0.0421,-0.1347 6.5501,-0.1347 6.5501,0.1347 "
       stroke="currentColor"
       fill="currentColor"
       stroke-width="0.0842"
       stroke-linecap="round"
       stroke-linejoin="round" />
  </g>
  <g
     id="g638"
     transform="translate(8.3357,4.2478643)">
    <polygon
       id="polygon636"
       points="0.0421,0.1347 0.0421,-0.1347 6.5501,-0.1347 6.5501,0.1347 "
       stroke="currentColor"
       fill="currentColor"
       stroke-width="0.0842"
       stroke-linecap="round"
       stroke-linejoin="round" />
  </g>
  <g
     id="g642"
     transform="translate(9.9084,6.2195643)">
    <path
       id="path640"
       d="m 0.9469,-3.1242 c 1.9885,-0.9795 12.615,0.7777 14.1822,2.3452 v 0 C 13.5434,-2.2347 2.9169,-3.9919 0.9469,-3.1242 Z"
       fill="currentColor"
       stroke="currentColor"
       stroke-linecap="round"
       stroke-linejoin="round"
       stroke-width="0.0755" />
  </g>
  <g
     id="g646"
     transform="translate(16.9616,4.8755643)">
    <polygon
       id="polygon644"
       points="0.0421,0.1347 0.0421,-0.1347 6.5501,0.4725 6.5501,0.742 "
       stroke="currentColor"
       fill="currentColor"
       stroke-width="0.0842"
       stroke-linecap="round"
       stroke-linejoin="round" />
  </g>
  <g
     id="g650"
     transform="translate(16.9616,5.4827643)">
    <polygon
       id="polygon648"
       points="0.0421,0.1347 0.0421,-0.1347 6.5501,0.4725 6.5501,0.742 "
       stroke="currentColor"
       fill="currentColor"
       stroke-width="0.0842"
       stroke-linecap="round"
       stroke-linejoin="round" />
  </g>
  <g
     id="g654"
     transform="translate(25.3376,3.6406643)">
    <polygon
       id="polygon652"
       points="0.0421,0.1347 0.0421,-0.1347 6.5501,-0.1347 6.5501,0.1347 "
       stroke="currentColor"
       fill="currentColor"
       stroke-width="0.0842"
       stroke-linecap="round"
       stroke-linejoin="round" />
  </g>
  <g
     id="g658"
     transform="translate(25.3376,4.2478643)">
    <polygon
       id="polygon656"
       points="0.0421,0.1347 0.0421,-0.1347 6.5501,-0.1347 6.5501,0.1347 "
       stroke="currentColor"
       fill="currentColor"
       stroke-width="0.0842"
       stroke-linecap="round"
       stroke-linejoin="round" />
  </g>
  <g
     id="g662"
     transform="translate(35.2814,4.1386643)">
    <polygon
       id="polygon660"
       points="0.0421,0.1347 0.0421,-0.1347 6.5501,-0.1347 6.5501,0.1347 "
       stroke="currentColor"
       fill="currentColor"
       stroke-width="0.0842"
       stroke-linecap="round"
       stroke-linejoin="round" />
  </g>
  <g
     id="g666"
     transform="translate(35.2814,4.7459643)">
    <polygon
       id="polygon664"
       points="0.0421,0.1347 0.0421,-0.1347 6.5501,-0.1347 6.5501,0.1347 "
       stroke="currentColor"
       fill="currentColor"
       stroke-width="0.0842"
       stroke-linecap="round"
       stroke-linejoin="round" />
  </g>
  <g
     id="g670"
     transform="translate(36.8542,6.2195643)">
    <path
       id="path668"
       d="m 0.9441,-2.6262 c 1.9787,-0.997 12.6046,0.6626 14.185,2.2156 v 0 C 13.5312,-1.8516 2.9053,-3.5113 0.9441,-2.6262 Z"
       fill="currentColor"
       stroke="currentColor"
       stroke-linecap="round"
       stroke-linejoin="round"
       stroke-width="0.0755" />
  </g>
  <g
     id="g674"
     transform="translate(190.1603,5.4827643)">
    <path
       id="path672"
       fill="currentColor"
       d="m 208,139 c 61,0 117,-33 117,-99 0,-71 -52,-119 -99,-147 -34,-20 -71,-32 -110,-32 -61,0 -116,33 -116,99 0,71 51,119 98,147 34,20 71,32 110,32 z"
       transform="scale(0.0029,-0.0029)" />
  </g>
  <g
     id="g678"
     transform="translate(186.2425,6.2195643)">
    <rect
       id="rect676"
       fill="currentColor"
       ry="0.042100001"
       height="3.3712001"
       width="0.1228"
       y="-2.3852"
       x="-0.0614" />
  </g>
  <g
     id="g682"
     transform="translate(187.7538,6.2195643)">
    <path
       id="path680"
       fill="currentColor"
       d="m 208,139 c 61,0 117,-33 117,-99 0,-71 -52,-119 -99,-147 -34,-20 -71,-32 -110,-32 -61,0 -116,33 -116,99 0,71 51,119 98,147 34,20 71,32 110,32 z"
       transform="scale(0.0029,-0.0029)" />
  </g>
  <g
     id="g686"
     transform="translate(188.649,6.2195643)">
    <rect
       id="rect684"
       fill="currentColor"
       ry="0.042100001"
       height="2.4795001"
       width="0.1228"
       y="-2.5987"
       x="-0.0614" />
  </g>
  <g
     id="g690"
     transform="translate(185.3474,7.3248643)">
    <path
       id="path688"
       fill="currentColor"
       d="m 208,139 c 61,0 117,-33 117,-99 0,-71 -52,-119 -99,-147 -34,-20 -71,-32 -110,-32 -61,0 -116,33 -116,99 0,71 51,119 98,147 34,20 71,32 110,32 z"
       transform="scale(0.0029,-0.0029)" />
  </g>
  <g
     id="g694"
     transform="translate(191.0554,6.2195643)">
    <rect
       id="rect692"
       fill="currentColor"
       ry="0.042100001"
       height="1.9562"
       width="0.1228"
       y="-2.8123"
       x="-0.0614" />
  </g>
  <g
     id="g698"
     transform="translate(192.0668,6.9564643)">
    <path
       id="path696"
       fill="currentColor"
       d="m 208,139 c 61,0 117,-33 117,-99 0,-71 -52,-119 -99,-147 -34,-20 -71,-32 -110,-32 -61,0 -116,33 -116,99 0,71 51,119 98,147 34,20 71,32 110,32 z"
       transform="scale(0.0029,-0.0029)" />
  </g>
  <g
     id="g702"
     transform="translate(192.9619,6.2195643)">
    <rect
       id="rect700"
       fill="currentColor"
       ry="0.042100001"
       height="3.4463999"
       width="0.1228"
       y="-2.8288"
       x="-0.0614" />
  </g>
  <g
     id="g706"
     transform="translate(181.0344,7.3248643)">
    <path
       id="path704"
       fill="currentColor"
       d="m 208,139 c 61,0 117,-33 117,-99 0,-71 -52,-119 -99,-147 -34,-20 -71,-32 -110,-32 -61,0 -116,33 -116,99 0,71 51,119 98,147 34,20 71,32 110,32 z"
       transform="scale(0.0029,-0.0029)" />
  </g>
  <g
     id="g710"
     transform="translate(177.1165,6.2195643)">
    <rect
       id="rect708"
       fill="currentColor"
       ry="0.042100001"
       height="5.0654998"
       width="0.1228"
       y="-2.6057999"
       x="-0.0614" />
  </g>
  <g
     id="g714"
     transform="translate(178.6279,8.0617643)">
    <path
       id="path712"
       fill="currentColor"
       d="m 208,139 c 61,0 117,-33 117,-99 0,-71 -52,-119 -99,-147 -34,-20 -71,-32 -110,-32 -61,0 -116,33 -116,99 0,71 51,119 98,147 34,20 71,32 110,32 z"
       transform="scale(0.0029,-0.0029)" />
  </g>
  <g
     id="g718"
     transform="translate(179.523,6.2195643)">
    <rect
       id="rect716"
       fill="currentColor"
       ry="0.042100001"
       height="4.0695"
       width="0.1228"
       y="-2.3467"
       x="-0.0614" />
  </g>
  <g
     id="g722"
     transform="translate(194.4733,5.1143643)">
    <path
       id="path720"
       fill="currentColor"
       d="m 208,139 c 61,0 117,-33 117,-99 0,-71 -52,-119 -99,-147 -34,-20 -71,-32 -110,-32 -61,0 -116,33 -116,99 0,71 51,119 98,147 34,20 71,32 110,32 z"
       transform="scale(0.0029,-0.0029)" />
  </g>
  <g
     id="g726"
     transform="translate(181.9295,6.2195643)">
    <rect
       id="rect724"
       fill="currentColor"
       ry="0.042100001"
       height="3.0734999"
       width="0.1228"
       y="-2.0875001"
       x="-0.0614" />
  </g>
  <g
     id="g730"
     transform="translate(183.4409,6.2195643)">
    <path
       id="path728"
       fill="currentColor"
       d="m 208,139 c 61,0 117,-33 117,-99 0,-71 -52,-119 -99,-147 -34,-20 -71,-32 -110,-32 -61,0 -116,33 -116,99 0,71 51,119 98,147 34,20 71,32 110,32 z"
       transform="scale(0.0029,-0.0029)" />
  </g>
  <g
     id="g734"
     transform="translate(184.336,6.2195643)">
    <rect
       id="rect732"
       fill="currentColor"
       ry="0.042100001"
       height="2.0967"
       width="0.1228"
       y="-2.2160001"
       x="-0.0614" />
  </g>
  <g
     id="g738"
     transform="translate(204.7892,6.5880643)">
    <path
       id="path736"
       fill="currentColor"
       d="m 208,139 c 61,0 117,-33 117,-99 0,-71 -52,-119 -99,-147 -34,-20 -71,-32 -110,-32 -61,0 -116,33 -116,99 0,71 51,119 98,147 34,20 71,32 110,32 z"
       transform="scale(0.0029,-0.0029)" />
  </g>
  <g
     id="g742"
     transform="translate(201.7222,5.8511643)">
    <path
       id="path740"
       fill="currentColor"
       d="m 0,114 c 0,12 7,22 18,26 l 37,15 v 151 c 0,12 10,22 22,22 12,0 22,-10 22,-22 V 172 l 77,29 v 152 c 0,12 10,22 22,22 12,0 22,-10 22,-22 V 219 l 16,6 c 3,1 8,2 11,2 15,0 28,-12 28,-28 v -50 c 0,-12 -7,-23 -18,-27 L 220,108 V -44 l 16,7 c 3,1 8,2 11,2 15,0 28,-13 28,-29 v -50 c 0,-12 -7,-22 -18,-26 l -37,-15 v -151 c 0,-12 -10,-22 -22,-22 -12,0 -22,10 -22,22 v 134 l -77,-29 v -152 c 0,-12 -10,-22 -22,-22 -12,0 -22,10 -22,22 v 134 l -16,-6 c -3,-1 -8,-2 -11,-2 -15,0 -28,12 -28,28 v 50 c 0,12 7,23 18,27 l 37,14 V 44 L 39,37 C 36,36 31,35 28,35 13,35 0,48 0,64 Z M 176,91 99,61 V -91 l 77,30 z"
       transform="scale(0.0029,-0.0029)" />
  </g>
  <g
     id="g746"
     transform="translate(205.6843,6.2195643)">
    <rect
       id="rect744"
       fill="currentColor"
       ry="0.042100001"
       height="2.9714"
       width="0.1228"
       y="-2.7221999"
       x="-0.0614" />
  </g>
  <g
     id="g750"
     transform="translate(207.1957,5.8511643)">
    <path
       id="path748"
       fill="currentColor"
       d="m 208,139 c 61,0 117,-33 117,-99 0,-71 -52,-119 -99,-147 -34,-20 -71,-32 -110,-32 -61,0 -116,33 -116,99 0,71 51,119 98,147 34,20 71,32 110,32 z"
       transform="scale(0.0029,-0.0029)" />
  </g>
  <g
     id="g754"
     transform="translate(208.0908,6.2195643)">
    <rect
       id="rect752"
       fill="currentColor"
       ry="0.042100001"
       height="2.4096999"
       width="0.1228"
       y="-2.8973999"
       x="-0.0614" />
  </g>
  <g
     id="g758"
     transform="translate(198.7863,4.3774643)">
    <path
       id="path756"
       fill="currentColor"
       d="m 208,139 c 61,0 117,-33 117,-99 0,-71 -52,-119 -99,-147 -34,-20 -71,-32 -110,-32 -61,0 -116,33 -116,99 0,71 51,119 98,147 34,20 71,32 110,32 z"
       transform="scale(0.0029,-0.0029)" />
  </g>
  <g
     id="g762"
     transform="translate(195.3684,6.2195643)">
    <rect
       id="rect760"
       fill="currentColor"
       ry="0.042100001"
       height="2.0387001"
       width="0.1228"
       y="-3.2630999"
       x="-0.0614" />
  </g>
  <g
     id="g766"
     transform="translate(196.6298,4.7459643)">
    <path
       id="path764"
       fill="currentColor"
       d="m 208,139 c 61,0 117,-33 117,-99 0,-71 -52,-119 -99,-147 -34,-20 -71,-32 -110,-32 -61,0 -116,33 -116,99 0,71 51,119 98,147 34,20 71,32 110,32 z"
       transform="scale(0.0029,-0.0029)" />
  </g>
  <g
     id="g770"
     transform="translate(197.5249,6.2195643)">
    <rect
       id="rect768"
       fill="currentColor"
       ry="0.042100001"
       height="2.0594001"
       width="0.1228"
       y="-3.6522999"
       x="-0.0614" />
  </g>
  <g
     id="g774"
     transform="translate(176.2214,8.7985643)">
    <path
       id="path772"
       fill="currentColor"
       d="m 208,139 c 61,0 117,-33 117,-99 0,-71 -52,-119 -99,-147 -34,-20 -71,-32 -110,-32 -61,0 -116,33 -116,99 0,71 51,119 98,147 34,20 71,32 110,32 z"
       transform="scale(0.0029,-0.0029)" />
  </g>
  <g
     id="g778"
     transform="translate(199.6814,6.2195643)">
    <rect
       id="rect776"
       fill="currentColor"
       ry="0.042100001"
       height="2.0802"
       width="0.1228"
       y="-4.0416002"
       x="-0.0614" />
  </g>
  <g
     id="g782"
     transform="translate(202.8827,5.8511643)">
    <path
       id="path780"
       fill="currentColor"
       d="m 208,139 c 61,0 117,-33 117,-99 0,-71 -52,-119 -99,-147 -34,-20 -71,-32 -110,-32 -61,0 -116,33 -116,99 0,71 51,119 98,147 34,20 71,32 110,32 z"
       transform="scale(0.0029,-0.0029)" />
  </g>
  <g
     id="g786"
     transform="translate(203.7778,6.2195643)">
    <rect
       id="rect784"
       fill="currentColor"
       ry="0.042100001"
       height="2.0957999"
       width="0.1228"
       y="-2.5834"
       x="-0.0614" />
  </g>
  <g
     id="g790"
     transform="translate(43.0736,7.6932643)">
    <path
       id="path788"
       fill="currentColor"
       d="m 208,139 c 61,0 117,-33 117,-99 0,-71 -52,-119 -99,-147 -34,-20 -71,-32 -110,-32 -61,0 -116,33 -116,99 0,71 51,119 98,147 34,20 71,32 110,32 z"
       transform="scale(0.0029,-0.0029)" />
  </g>
  <g
     id="g794"
     transform="translate(43.9687,6.2195643)">
    <rect
       id="rect792"
       fill="currentColor"
       ry="0.042100001"
       height="1.9558001"
       width="0.1228"
       y="-0.6013"
       x="-0.0614" />
  </g>
  <g
     id="g798"
     transform="translate(45.2301,8.0617643)">
    <path
       id="path796"
       fill="currentColor"
       d="m 208,139 c 61,0 117,-33 117,-99 0,-71 -52,-119 -99,-147 -34,-20 -71,-32 -110,-32 -61,0 -116,33 -116,99 0,71 51,119 98,147 34,20 71,32 110,32 z"
       transform="scale(0.0029,-0.0029)" />
  </g>
  <g
     id="g802"
     transform="translate(46.1252,6.2195643)">
    <rect
       id="rect800"
       fill="currentColor"
       ry="0.042100001"
       height="2.1178"
       width="0.1228"
       y="-0.39489999"
       x="-0.0614" />
  </g>
  <g
     id="g806"
     transform="translate(47.3866,8.4301643)">
    <path
       id="path804"
       fill="currentColor"
       d="m 208,139 c 61,0 117,-33 117,-99 0,-71 -52,-119 -99,-147 -34,-20 -71,-32 -110,-32 -61,0 -116,33 -116,99 0,71 51,119 98,147 34,20 71,32 110,32 z"
       transform="scale(0.0029,-0.0029)" />
  </g>
  <g
     id="g810"
     transform="translate(48.2817,6.2195643)">
    <rect
       id="rect808"
       fill="currentColor"
       ry="0.042100001"
       height="2.2797"
       width="0.1228"
       y="-0.1884"
       x="-0.0614" />
  </g>
  <g
     id="g814"
     transform="translate(49.2931,8.7985643)">
    <path
       id="path812"
       fill="currentColor"
       d="m 208,139 c 61,0 117,-33 117,-99 0,-71 -52,-119 -99,-147 -34,-20 -71,-32 -110,-32 -61,0 -116,33 -116,99 0,71 51,119 98,147 34,20 71,32 110,32 z"
       transform="scale(0.0029,-0.0029)" />
  </g>
  <g
     id="g818"
     transform="translate(50.1882,6.2195643)">
    <rect
       id="rect816"
       fill="currentColor"
       ry="0.042100001"
       height="2.4656"
       width="0.1228"
       y="-0.0059000002"
       x="-0.0614" />
  </g>
  <g
     id="g822"
     transform="translate(36.8542,5.8511643)">
    <path
       id="path820"
       fill="currentColor"
       d="m 208,139 c 61,0 117,-33 117,-99 0,-71 -52,-119 -99,-147 -34,-20 -71,-32 -110,-32 -61,0 -116,33 -116,99 0,71 51,119 98,147 34,20 71,32 110,32 z"
       transform="scale(0.0029,-0.0029)" />
  </g>
  <g
     id="g826"
     transform="translate(37.7493,6.2195643)">
    <rect
       id="rect824"
       fill="currentColor"
       ry="0.042100001"
       height="1.5933"
       width="0.1228"
       y="-2.0809"
       x="-0.0614" />
  </g>
  <g
     id="g830"
     transform="translate(38.7606,6.9564643)">
    <path
       id="path828"
       fill="currentColor"
       d="m 208,139 c 61,0 117,-33 117,-99 0,-71 -52,-119 -99,-147 -34,-20 -71,-32 -110,-32 -61,0 -116,33 -116,99 0,71 51,119 98,147 34,20 71,32 110,32 z"
       transform="scale(0.0029,-0.0029)" />
  </g>
  <g
     id="g834"
     transform="translate(39.6557,6.2195643)">
    <rect
       id="rect832"
       fill="currentColor"
       ry="0.042100001"
       height="2.6984999"
       width="0.1228"
       y="-2.0809"
       x="-0.0614" />
  </g>
  <g
     id="g838"
     transform="translate(40.9171,7.3248643)">
    <path
       id="path836"
       fill="currentColor"
       d="m 208,139 c 61,0 117,-33 117,-99 0,-71 -52,-119 -99,-147 -34,-20 -71,-32 -110,-32 -61,0 -116,33 -116,99 0,71 51,119 98,147 34,20 71,32 110,32 z"
       transform="scale(0.0029,-0.0029)" />
  </g>
  <g
     id="g842"
     transform="translate(41.8122,6.2195643)">
    <rect
       id="rect840"
       fill="currentColor"
       ry="0.042100001"
       height="3.0669"
       width="0.1228"
       y="-2.0809"
       x="-0.0614" />
  </g>
  <g
     id="g846"
     transform="translate(57.4315,7.6932643)">
    <path
       id="path844"
       fill="currentColor"
       d="m 33,35 -2,-60 v -11 c 0,-21 2,-43 5,-64 42,38 87,81 87,138 0,32 -13,63 -41,63 C 51,101 34,69 33,35 Z M 32,446 23,109 c 25,26 59,40 95,40 50,0 82,-51 82,-105 0,-77 -80,-117 -137,-169 -18,-17 -26,-48 -52,-48 -16,0 -28,15 -28,32 l -15,587 c 10,6 21,8 32,8 11,0 22,-2 32,-8 z"
       transform="scale(0.0029,-0.0029)" />
  </g>
  <g
     id="g850"
     transform="translate(61.8569,8.0617643)">
    <path
       id="path848"
       fill="currentColor"
       d="m 208,139 c 61,0 117,-33 117,-99 0,-71 -52,-119 -99,-147 -34,-20 -71,-32 -110,-32 -61,0 -116,33 -116,99 0,71 51,119 98,147 34,20 71,32 110,32 z"
       transform="scale(0.0029,-0.0029)" />
  </g>
  <g
     id="g854"
     transform="translate(62.752,6.2195643)">
    <rect
       id="rect852"
       fill="currentColor"
       ry="0.042100001"
       height="3.8038001"
       width="0.1228"
       y="-2.0809"
       x="-0.0614" />
  </g>
  <g
     id="g858"
     transform="translate(64.2634,6.2195643)">
    <path
       id="path856"
       fill="currentColor"
       d="m 208,139 c 61,0 117,-33 117,-99 0,-71 -52,-119 -99,-147 -34,-20 -71,-32 -110,-32 -61,0 -116,33 -116,99 0,71 51,119 98,147 34,20 71,32 110,32 z"
       transform="scale(0.0029,-0.0029)" />
  </g>
  <g
     id="g862"
     transform="translate(65.1585,6.2195643)">
    <rect
       id="rect860"
       fill="currentColor"
       ry="0.042100001"
       height="1.9617"
       width="0.1228"
       y="-2.0809"
       x="-0.0614" />
  </g>
  <g
     id="g866"
     transform="translate(51.4496,9.1669643)">
    <path
       id="path864"
       fill="currentColor"
       d="m 208,139 c 61,0 117,-33 117,-99 0,-71 -52,-119 -99,-147 -34,-20 -71,-32 -110,-32 -61,0 -116,33 -116,99 0,71 51,119 98,147 34,20 71,32 110,32 z"
       transform="scale(0.0029,-0.0029)" />
  </g>
  <g
     id="g870"
     transform="translate(52.3447,6.2195643)">
    <rect
       id="rect868"
       fill="currentColor"
       ry="0.042100001"
       height="4.9089999"
       width="0.1228"
       y="-2.0809"
       x="-0.0614" />
  </g>
  <g
     id="g874"
     transform="translate(53.8561,5.8511643)">
    <path
       id="path872"
       fill="currentColor"
       d="m 208,139 c 61,0 117,-33 117,-99 0,-71 -52,-119 -99,-147 -34,-20 -71,-32 -110,-32 -61,0 -116,33 -116,99 0,71 51,119 98,147 34,20 71,32 110,32 z"
       transform="scale(0.0029,-0.0029)" />
  </g>
  <g
     id="g878"
     transform="translate(54.7512,6.2195643)">
    <rect
       id="rect876"
       fill="currentColor"
       ry="0.042100001"
       height="1.5933"
       width="0.1228"
       y="-2.0809"
       x="-0.0614" />
  </g>
  <g
     id="g882"
     transform="translate(55.7625,7.3248643)">
    <path
       id="path880"
       fill="currentColor"
       d="m 208,139 c 61,0 117,-33 117,-99 0,-71 -52,-119 -99,-147 -34,-20 -71,-32 -110,-32 -61,0 -116,33 -116,99 0,71 51,119 98,147 34,20 71,32 110,32 z"
       transform="scale(0.0029,-0.0029)" />
  </g>
  <g
     id="g886"
     transform="translate(56.6576,6.2195643)">
    <rect
       id="rect884"
       fill="currentColor"
       ry="0.042100001"
       height="3.0669"
       width="0.1228"
       y="-2.0809"
       x="-0.0614" />
  </g>
  <g
     id="g890"
     transform="translate(58.371,7.6932643)">
    <path
       id="path888"
       fill="currentColor"
       d="m 208,139 c 61,0 117,-33 117,-99 0,-71 -52,-119 -99,-147 -34,-20 -71,-32 -110,-32 -61,0 -116,33 -116,99 0,71 51,119 98,147 34,20 71,32 110,32 z"
       transform="scale(0.0029,-0.0029)" />
  </g>
  <g
     id="g894"
     transform="translate(59.2661,6.2195643)">
    <rect
       id="rect892"
       fill="currentColor"
       ry="0.042100001"
       height="3.4354"
       width="0.1228"
       y="-2.0809"
       x="-0.0614" />
  </g>
  <g
     id="g898"
     transform="translate(11.8149,6.5880643)">
    <path
       id="path896"
       fill="currentColor"
       d="m 208,139 c 61,0 117,-33 117,-99 0,-71 -52,-119 -99,-147 -34,-20 -71,-32 -110,-32 -61,0 -116,33 -116,99 0,71 51,119 98,147 34,20 71,32 110,32 z"
       transform="scale(0.0029,-0.0029)" />
  </g>
  <g
     id="g902"
     transform="translate(12.71,6.2195643)">
    <rect
       id="rect900"
       fill="currentColor"
       ry="0.042100001"
       height="2.8281"
       width="0.1228"
       y="-2.5789001"
       x="-0.0614" />
  </g>
  <g
     id="g906"
     transform="translate(13.9714,6.9564643)">
    <path
       id="path904"
       fill="currentColor"
       d="m 208,139 c 61,0 117,-33 117,-99 0,-71 -52,-119 -99,-147 -34,-20 -71,-32 -110,-32 -61,0 -116,33 -116,99 0,71 51,119 98,147 34,20 71,32 110,32 z"
       transform="scale(0.0029,-0.0029)" />
  </g>
  <g
     id="g910"
     transform="translate(14.8665,6.2195643)">
    <rect
       id="rect908"
       fill="currentColor"
       ry="0.042100001"
       height="3.1966"
       width="0.1228"
       y="-2.5789001"
       x="-0.0614" />
  </g>
  <g
     id="g914"
     transform="translate(16.1279,7.3248643)">
    <path
       id="path912"
       fill="currentColor"
       d="m 208,139 c 61,0 117,-33 117,-99 0,-71 -52,-119 -99,-147 -34,-20 -71,-32 -110,-32 -61,0 -116,33 -116,99 0,71 51,119 98,147 34,20 71,32 110,32 z"
       transform="scale(0.0029,-0.0029)" />
  </g>
  <g
     id="g918"
     transform="translate(17.023,6.2195643)">
    <rect
       id="rect916"
       fill="currentColor"
       ry="0.042100001"
       height="2.3243999"
       width="0.1228"
       y="-1.3384"
       x="-0.0614" />
  </g>
  <g
     id="g922"
     transform="translate(18.2844,7.6932643)">
    <path
       id="path920"
       fill="currentColor"
       d="m 208,139 c 61,0 117,-33 117,-99 0,-71 -52,-119 -99,-147 -34,-20 -71,-32 -110,-32 -61,0 -116,33 -116,99 0,71 51,119 98,147 34,20 71,32 110,32 z"
       transform="scale(0.0029,-0.0029)" />
  </g>
  <g
     id="g926"
     transform="translate(19.1795,6.2195643)">
    <rect
       id="rect924"
       fill="currentColor"
       ry="0.042100001"
       height="2.4942"
       width="0.1228"
       y="-1.1398"
       x="-0.0614" />
  </g>
  <g
     id="g930"
     transform="translate(0.8,6.9564643)">
    <path
       id="path928"
       fill="currentColor"
       d="m 381,266 h 9 c 157,0 258,-130 258,-264 0,-77 -33,-156 -108,-212 -22,-16 -46,-28 -71,-36 2,-32 3,-65 3,-97 0,-21 -1,-43 -2,-64 -7,-122 -91,-230 -211,-230 -108,0 -197,88 -197,197 0,58 54,104 113,104 54,0 95,-48 95,-104 0,-52 -43,-95 -95,-95 -8,0 -16,2 -24,4 25,-35 65,-59 111,-59 95,0 155,92 161,190 1,20 2,39 2,59 0,28 -1,55 -3,83 -29,-5 -57,-7 -87,-7 -189,0 -333,174 -333,377 0,176 128,307 242,443 -21,62 -41,124 -50,189 -7,52 -8,106 -8,159 0,113 54,219 146,286 8,6 21,7 29,0 72,-82 136,-244 136,-357 0,-141 -83,-253 -174,-362 22,-67 41,-135 58,-204 z m 83,-466 c 64,25 108,93 108,159 0,87 -62,173 -163,187 24,-113 43,-225 55,-346 z m -126,-18 c 27,0 54,2 80,6 C 405,-87 385,30 360,147 281,140 237,88 237,31 c 0,-43 24,-89 78,-120 5,-5 8,-11 8,-17 0,-13 -11,-24 -24,-24 -3,0 -7,0 -10,2 -81,44 -119,116 -119,187 0,90 60,178 164,201 -14,56 -30,112 -47,167 C 183,305 79,182 79,23 79,-109 206,-218 338,-218 Z M 239,782 c 0,-69 22,-127 41,-183 77,97 140,199 140,323 0,49 -3,69 -19,113 C 302,990 239,890 239,782 Z"
       transform="scale(0.0029,-0.0029)" />
  </g>
  <g
     id="g934"
     transform="translate(4.4125,6.2195643)">
    <path
       id="path932"
       fill="currentColor"
       d="m 33,35 -2,-60 v -11 c 0,-21 2,-43 5,-64 42,38 87,81 87,138 0,32 -13,63 -41,63 C 51,101 34,69 33,35 Z M 32,446 23,109 c 25,26 59,40 95,40 50,0 82,-51 82,-105 0,-77 -80,-117 -137,-169 -18,-17 -26,-48 -52,-48 -16,0 -28,15 -28,32 l -15,587 c 10,6 21,8 32,8 11,0 22,-2 32,-8 z"
       transform="scale(0.0029,-0.0029)" />
  </g>
  <g
     id="g938"
     transform="translate(7.5019,8.0617643)">
    <path
       id="path936"
       fill="currentColor"
       d="m 208,139 c 61,0 117,-33 117,-99 0,-71 -52,-119 -99,-147 -34,-20 -71,-32 -110,-32 -61,0 -116,33 -116,99 0,71 51,119 98,147 34,20 71,32 110,32 z"
       transform="scale(0.0029,-0.0029)" />
  </g>
  <g
     id="g942"
     transform="translate(8.397,6.2195643)">
    <rect
       id="rect940"
       fill="currentColor"
       ry="0.042100001"
       height="4.3017998"
       width="0.1228"
       y="-2.5789001"
       x="-0.0614" />
  </g>
  <g
     id="g946"
     transform="translate(9.9084,5.4827643)">
    <path
       id="path944"
       fill="currentColor"
       d="m 208,139 c 61,0 117,-33 117,-99 0,-71 -52,-119 -99,-147 -34,-20 -71,-32 -110,-32 -61,0 -116,33 -116,99 0,71 51,119 98,147 34,20 71,32 110,32 z"
       transform="scale(0.0029,-0.0029)" />
  </g>
  <g
     id="g950"
     transform="translate(10.8035,6.2195643)">
    <rect
       id="rect948"
       fill="currentColor"
       ry="0.042100001"
       height="1.7229"
       width="0.1228"
       y="-2.5789001"
       x="-0.0614" />
  </g>
  <g
     id="g954"
     transform="translate(28.8168,6.9564643)">
    <path
       id="path952"
       fill="currentColor"
       d="m 208,139 c 61,0 117,-33 117,-99 0,-71 -52,-119 -99,-147 -34,-20 -71,-32 -110,-32 -61,0 -116,33 -116,99 0,71 51,119 98,147 34,20 71,32 110,32 z"
       transform="scale(0.0029,-0.0029)" />
  </g>
  <g
     id="g958"
     transform="translate(29.7119,6.2195643)">
    <rect
       id="rect956"
       fill="currentColor"
       ry="0.042100001"
       height="3.1966"
       width="0.1228"
       y="-2.5789001"
       x="-0.0614" />
  </g>
  <g
     id="g962"
     transform="translate(30.9733,7.3248643)">
    <path
       id="path960"
       fill="currentColor"
       d="m 208,139 c 61,0 117,-33 117,-99 0,-71 -52,-119 -99,-147 -34,-20 -71,-32 -110,-32 -61,0 -116,33 -116,99 0,71 51,119 98,147 34,20 71,32 110,32 z"
       transform="scale(0.0029,-0.0029)" />
  </g>
  <g
     id="g966"
     transform="translate(31.8684,6.2195643)">
    <rect
       id="rect964"
       fill="currentColor"
       ry="0.042100001"
       height="3.5650001"
       width="0.1228"
       y="-2.5789001"
       x="-0.0614" />
  </g>
  <g
     id="g970"
     transform="translate(34.4477,7.6932643)">
    <path
       id="path968"
       fill="currentColor"
       d="m 208,139 c 61,0 117,-33 117,-99 0,-71 -52,-119 -99,-147 -34,-20 -71,-32 -110,-32 -61,0 -116,33 -116,99 0,71 51,119 98,147 34,20 71,32 110,32 z"
       transform="scale(0.0029,-0.0029)" />
  </g>
  <g
     id="g974"
     transform="translate(35.3428,6.2195643)">
    <rect
       id="rect972"
       fill="currentColor"
       ry="0.042100001"
       height="3.4354"
       width="0.1228"
       y="-2.0809"
       x="-0.0614" />
  </g>
  <g
     id="g978"
     transform="translate(20.4409,8.0617643)">
    <path
       id="path976"
       fill="currentColor"
       d="m 208,139 c 61,0 117,-33 117,-99 0,-71 -52,-119 -99,-147 -34,-20 -71,-32 -110,-32 -61,0 -116,33 -116,99 0,71 51,119 98,147 34,20 71,32 110,32 z"
       transform="scale(0.0029,-0.0029)" />
  </g>
  <g
     id="g982"
     transform="translate(21.336,6.2195643)">
    <rect
       id="rect980"
       fill="currentColor"
       ry="0.042100001"
       height="2.664"
       width="0.1228"
       y="-0.9411"
       x="-0.0614" />
  </g>
  <g
     id="g986"
     transform="translate(22.5974,8.4301643)">
    <path
       id="path984"
       fill="currentColor"
       d="m 208,139 c 61,0 117,-33 117,-99 0,-71 -52,-119 -99,-147 -34,-20 -71,-32 -110,-32 -61,0 -116,33 -116,99 0,71 51,119 98,147 34,20 71,32 110,32 z"
       transform="scale(0.0029,-0.0029)" />
  </g>
  <g
     id="g990"
     transform="translate(23.4925,6.2195643)">
    <rect
       id="rect988"
       fill="currentColor"
       ry="0.042100001"
       height="2.8338001"
       width="0.1228"
       y="-0.74250001"
       x="-0.0614" />
  </g>
  <g
     id="g994"
     transform="translate(24.5038,8.7985643)">
    <path
       id="path992"
       fill="currentColor"
       d="m 208,139 c 61,0 117,-33 117,-99 0,-71 -52,-119 -99,-147 -34,-20 -71,-32 -110,-32 -61,0 -116,33 -116,99 0,71 51,119 98,147 34,20 71,32 110,32 z"
       transform="scale(0.0029,-0.0029)" />
  </g>
  <g
     id="g998"
     transform="translate(25.3989,6.2195643)">
    <rect
       id="rect996"
       fill="currentColor"
       ry="0.042100001"
       height="5.0387001"
       width="0.1228"
       y="-2.5789001"
       x="-0.0614" />
  </g>
  <g
     id="g1002"
     transform="translate(26.9103,5.4827643)">
    <path
       id="path1000"
       fill="currentColor"
       d="m 208,139 c 61,0 117,-33 117,-99 0,-71 -52,-119 -99,-147 -34,-20 -71,-32 -110,-32 -61,0 -116,33 -116,99 0,71 51,119 98,147 34,20 71,32 110,32 z"
       transform="scale(0.0029,-0.0029)" />
  </g>
  <g
     id="g1006"
     transform="translate(27.8054,6.2195643)">
    <rect
       id="rect1004"
       fill="currentColor"
       ry="0.042100001"
       height="1.7229"
       width="0.1228"
       y="-2.5789001"
       x="-0.0614" />
  </g>
  <g
     id="g1010"
     transform="translate(89.472,8.4301643)">
    <path
       id="path1008"
       fill="currentColor"
       d="m 0,114 c 0,12 7,22 18,26 l 37,15 v 151 c 0,12 10,22 22,22 12,0 22,-10 22,-22 V 172 l 77,29 v 152 c 0,12 10,22 22,22 12,0 22,-10 22,-22 V 219 l 16,6 c 3,1 8,2 11,2 15,0 28,-12 28,-28 v -50 c 0,-12 -7,-23 -18,-27 L 220,108 V -44 l 16,7 c 3,1 8,2 11,2 15,0 28,-13 28,-29 v -50 c 0,-12 -7,-22 -18,-26 l -37,-15 v -151 c 0,-12 -10,-22 -22,-22 -12,0 -22,10 -22,22 v 134 l -77,-29 v -152 c 0,-12 -10,-22 -22,-22 -12,0 -22,10 -22,22 v 134 l -16,-6 c -3,-1 -8,-2 -11,-2 -15,0 -28,12 -28,28 v 50 c 0,12 7,23 18,27 l 37,14 V 44 L 39,37 C 36,36 31,35 28,35 13,35 0,48 0,64 Z M 176,91 99,61 V -91 l 77,30 z"
       transform="scale(0.0029,-0.0029)" />
  </g>
  <g
     id="g1014"
     transform="translate(92.539,9.1669643)">
    <path
       id="path1012"
       fill="currentColor"
       d="m 208,139 c 61,0 117,-33 117,-99 0,-71 -52,-119 -99,-147 -34,-20 -71,-32 -110,-32 -61,0 -116,33 -116,99 0,71 51,119 98,147 34,20 71,32 110,32 z"
       transform="scale(0.0029,-0.0029)" />
  </g>
  <g
     id="g1018"
     transform="translate(93.4341,6.2195643)">
    <rect
       id="rect1016"
       fill="currentColor"
       ry="0.042100001"
       height="3.0028"
       width="0.1228"
       y="-0.17460001"
       x="-0.0614" />
  </g>
  <g
     id="g1022"
     transform="translate(94.9455,8.4301643)">
    <path
       id="path1020"
       fill="currentColor"
       d="m 208,139 c 61,0 117,-33 117,-99 0,-71 -52,-119 -99,-147 -34,-20 -71,-32 -110,-32 -61,0 -116,33 -116,99 0,71 51,119 98,147 34,20 71,32 110,32 z"
       transform="scale(0.0029,-0.0029)" />
  </g>
  <g
     id="g1026"
     transform="translate(95.8406,6.2195643)">
    <rect
       id="rect1024"
       fill="currentColor"
       ry="0.042100001"
       height="2.4795001"
       width="0.1228"
       y="-0.38820001"
       x="-0.0614" />
  </g>
  <g
     id="g1030"
     transform="translate(97.352,7.6932643)">
    <path
       id="path1028"
       fill="currentColor"
       d="m 208,139 c 61,0 117,-33 117,-99 0,-71 -52,-119 -99,-147 -34,-20 -71,-32 -110,-32 -61,0 -116,33 -116,99 0,71 51,119 98,147 34,20 71,32 110,32 z"
       transform="scale(0.0029,-0.0029)" />
  </g>
  <g
     id="g1034"
     transform="translate(98.2471,6.2195643)">
    <rect
       id="rect1032"
       fill="currentColor"
       ry="0.042100001"
       height="1.9562"
       width="0.1228"
       y="-0.60180002"
       x="-0.0614" />
  </g>
  <g
     id="g1038"
     transform="translate(84.1296,7.6932643)">
    <path
       id="path1036"
       fill="currentColor"
       d="m 208,139 c 61,0 117,-33 117,-99 0,-71 -52,-119 -99,-147 -34,-20 -71,-32 -110,-32 -61,0 -116,33 -116,99 0,71 51,119 98,147 34,20 71,32 110,32 z"
       transform="scale(0.0029,-0.0029)" />
  </g>
  <g
     id="g1042"
     transform="translate(85.0247,6.2195643)">
    <rect
       id="rect1040"
       fill="currentColor"
       ry="0.042100001"
       height="3.4354"
       width="0.1228"
       y="-2.0809"
       x="-0.0614" />
  </g>
  <g
     id="g1046"
     transform="translate(83.2738,7.6932643)">
    <path
       id="path1044"
       fill="currentColor"
       d="m -8,375 c 8,5 18,7 27,7 9,0 20,-2 28,-7 l -3,-196 99,24 h 4 c 11,0 20,-8 20,-19 l 8,-559 c -8,-5 -19,-7 -28,-7 -9,0 -19,2 -27,7 l 3,196 -99,-24 h -5 c -11,0 -19,8 -19,19 z M 127,109 42,89 l -2,-198 84,20 z"
       transform="scale(0.0029,-0.0029)" />
  </g>
  <g
     id="g1050"
     transform="translate(86.2861,8.0617643)">
    <path
       id="path1048"
       fill="currentColor"
       d="m 208,139 c 61,0 117,-33 117,-99 0,-71 -52,-119 -99,-147 -34,-20 -71,-32 -110,-32 -61,0 -116,33 -116,99 0,71 51,119 98,147 34,20 71,32 110,32 z"
       transform="scale(0.0029,-0.0029)" />
  </g>
  <g
     id="g1054"
     transform="translate(87.1812,6.2195643)">
    <rect
       id="rect1052"
       fill="currentColor"
       ry="0.042100001"
       height="3.8038001"
       width="0.1228"
       y="-2.0809"
       x="-0.0614" />
  </g>
  <g
     id="g1058"
     transform="translate(90.6325,8.4301643)">
    <path
       id="path1056"
       fill="currentColor"
       d="m 208,139 c 61,0 117,-33 117,-99 0,-71 -52,-119 -99,-147 -34,-20 -71,-32 -110,-32 -61,0 -116,33 -116,99 0,71 51,119 98,147 34,20 71,32 110,32 z"
       transform="scale(0.0029,-0.0029)" />
  </g>
  <g
     id="g1062"
     transform="translate(107.6836,6.2195643)">
    <rect
       id="rect1060"
       fill="currentColor"
       ry="0.042100001"
       height="2.3248999"
       width="0.1228"
       y="-2.8125"
       x="-0.0614" />
  </g>
  <g
     id="g1066"
     transform="translate(105.628,5.8511643)">
    <path
       id="path1064"
       fill="currentColor"
       d="m 0,114 c 0,12 7,22 18,26 l 37,15 v 151 c 0,12 10,22 22,22 12,0 22,-10 22,-22 V 172 l 77,29 v 152 c 0,12 10,22 22,22 12,0 22,-10 22,-22 V 219 l 16,6 c 3,1 8,2 11,2 15,0 28,-12 28,-28 v -50 c 0,-12 -7,-23 -18,-27 L 220,108 V -44 l 16,7 c 3,1 8,2 11,2 15,0 28,-13 28,-29 v -50 c 0,-12 -7,-22 -18,-26 l -37,-15 v -151 c 0,-12 -10,-22 -22,-22 -12,0 -22,10 -22,22 v 134 l -77,-29 v -152 c 0,-12 -10,-22 -22,-22 -12,0 -22,10 -22,22 v 134 l -16,-6 c -3,-1 -8,-2 -11,-2 -15,0 -28,12 -28,28 v 50 c 0,12 7,23 18,27 l 37,14 V 44 L 39,37 C 36,36 31,35 28,35 13,35 0,48 0,64 Z M 176,91 99,61 V -91 l 77,30 z"
       transform="scale(0.0029,-0.0029)" />
  </g>
  <g
     id="g1070"
     transform="translate(109.195,5.1143643)">
    <path
       id="path1068"
       fill="currentColor"
       d="m 208,139 c 61,0 117,-33 117,-99 0,-71 -52,-119 -99,-147 -34,-20 -71,-32 -110,-32 -61,0 -116,33 -116,99 0,71 51,119 98,147 34,20 71,32 110,32 z"
       transform="scale(0.0029,-0.0029)" />
  </g>
  <g
     id="g1074"
     transform="translate(110.0901,6.2195643)">
    <rect
       id="rect1072"
       fill="currentColor"
       ry="0.042100001"
       height="2.0789001"
       width="0.1228"
       y="-3.3032999"
       x="-0.0614" />
  </g>
  <g
     id="g1078"
     transform="translate(106.7885,5.8511643)">
    <path
       id="path1076"
       fill="currentColor"
       d="m 208,139 c 61,0 117,-33 117,-99 0,-71 -52,-119 -99,-147 -34,-20 -71,-32 -110,-32 -61,0 -116,33 -116,99 0,71 51,119 98,147 34,20 71,32 110,32 z"
       transform="scale(0.0029,-0.0029)" />
  </g>
  <g
     id="g1082"
     transform="translate(111.1015,6.9564643)">
    <path
       id="path1080"
       fill="currentColor"
       d="m 208,139 c 61,0 117,-33 117,-99 0,-71 -52,-119 -99,-147 -34,-20 -71,-32 -110,-32 -61,0 -116,33 -116,99 0,71 51,119 98,147 34,20 71,32 110,32 z"
       transform="scale(0.0029,-0.0029)" />
  </g>
  <g
     id="g1086"
     transform="translate(111.9966,6.2195643)">
    <rect
       id="rect1084"
       fill="currentColor"
       ry="0.042100001"
       height="3.5344999"
       width="0.1228"
       y="-2.9168999"
       x="-0.0614" />
  </g>
  <g
     id="g1090"
     transform="translate(113.258,6.5880643)">
    <path
       id="path1088"
       fill="currentColor"
       d="m 208,139 c 61,0 117,-33 117,-99 0,-71 -52,-119 -99,-147 -34,-20 -71,-32 -110,-32 -61,0 -116,33 -116,99 0,71 51,119 98,147 34,20 71,32 110,32 z"
       transform="scale(0.0029,-0.0029)" />
  </g>
  <g
     id="g1094"
     transform="translate(114.1531,6.2195643)">
    <rect
       id="rect1092"
       fill="currentColor"
       ry="0.042100001"
       height="2.7290001"
       width="0.1228"
       y="-2.4798"
       x="-0.0614" />
  </g>
  <g
     id="g1098"
     transform="translate(102.5601,6.2195643)">
    <rect
       id="rect1096"
       fill="currentColor"
       ry="0.042100001"
       height="3.7320001"
       width="0.1228"
       y="-2.3776"
       x="-0.0614" />
  </g>
  <g
     id="g1102"
     transform="translate(99.7585,6.5880643)">
    <path
       id="path1100"
       fill="currentColor"
       d="m 208,139 c 61,0 117,-33 117,-99 0,-71 -52,-119 -99,-147 -34,-20 -71,-32 -110,-32 -61,0 -116,33 -116,99 0,71 51,119 98,147 34,20 71,32 110,32 z"
       transform="scale(0.0029,-0.0029)" />
  </g>
  <g
     id="g1106"
     transform="translate(100.6536,6.2195643)">
    <rect
       id="rect1104"
       fill="currentColor"
       ry="0.042100001"
       height="2.4649"
       width="0.1228"
       y="-2.2156999"
       x="-0.0614" />
  </g>
  <g
     id="g1110"
     transform="translate(101.665,7.6932643)">
    <path
       id="path1108"
       fill="currentColor"
       d="m 208,139 c 61,0 117,-33 117,-99 0,-71 -52,-119 -99,-147 -34,-20 -71,-32 -110,-32 -61,0 -116,33 -116,99 0,71 51,119 98,147 34,20 71,32 110,32 z"
       transform="scale(0.0029,-0.0029)" />
  </g>
  <g
     id="g1114"
     transform="translate(91.5277,6.2195643)">
    <rect
       id="rect1112"
       fill="currentColor"
       ry="0.042100001"
       height="2.0967"
       width="0.1228"
       y="-0.0054000001"
       x="-0.0614" />
  </g>
  <g
     id="g1118"
     transform="translate(104.0715,6.5880643)">
    <path
       id="path1116"
       fill="currentColor"
       d="m 208,139 c 61,0 117,-33 117,-99 0,-71 -52,-119 -99,-147 -34,-20 -71,-32 -110,-32 -61,0 -116,33 -116,99 0,71 51,119 98,147 34,20 71,32 110,32 z"
       transform="scale(0.0029,-0.0029)" />
  </g>
  <g
     id="g1122"
     transform="translate(104.9666,6.2195643)">
    <rect
       id="rect1120"
       fill="currentColor"
       ry="0.042100001"
       height="2.8311"
       width="0.1228"
       y="-2.5818999"
       x="-0.0614" />
  </g>
  <g
     id="g1126"
     transform="translate(70.9348,8.0617643)">
    <path
       id="path1124"
       fill="currentColor"
       d="m 208,139 c 61,0 117,-33 117,-99 0,-71 -52,-119 -99,-147 -34,-20 -71,-32 -110,-32 -61,0 -116,33 -116,99 0,71 51,119 98,147 34,20 71,32 110,32 z"
       transform="scale(0.0029,-0.0029)" />
  </g>
  <g
     id="g1130"
     transform="translate(77.1543,9.1669643)">
    <path
       id="path1128"
       fill="currentColor"
       d="m 208,139 c 61,0 117,-33 117,-99 0,-71 -52,-119 -99,-147 -34,-20 -71,-32 -110,-32 -61,0 -116,33 -116,99 0,71 51,119 98,147 34,20 71,32 110,32 z"
       transform="scale(0.0029,-0.0029)" />
  </g>
  <g
     id="g1134"
     transform="translate(78.0494,6.2195643)">
    <rect
       id="rect1132"
       fill="currentColor"
       ry="0.042100001"
       height="2.8317001"
       width="0.1228"
       y="-0.0035999999"
       x="-0.0614" />
  </g>
  <g
     id="g1138"
     transform="translate(67.8389,7.6932643)">
    <path
       id="path1136"
       fill="currentColor"
       d="m 33,35 -2,-60 v -11 c 0,-21 2,-43 5,-64 42,38 87,81 87,138 0,32 -13,63 -41,63 C 51,101 34,69 33,35 Z M 32,446 23,109 c 25,26 59,40 95,40 50,0 82,-51 82,-105 0,-77 -80,-117 -137,-169 -18,-17 -26,-48 -52,-48 -16,0 -28,15 -28,32 l -15,587 c 10,6 21,8 32,8 11,0 22,-2 32,-8 z"
       transform="scale(0.0029,-0.0029)" />
  </g>
  <g
     id="g1142"
     transform="translate(69.6735,6.2195643)">
    <rect
       id="rect1140"
       fill="currentColor"
       ry="0.042100001"
       height="3.4354"
       width="0.1228"
       y="-2.0809"
       x="-0.0614" />
  </g>
  <g
     id="g1146"
     transform="translate(68.7784,7.6932643)">
    <path
       id="path1144"
       fill="currentColor"
       d="m 208,139 c 61,0 117,-33 117,-99 0,-71 -52,-119 -99,-147 -34,-20 -71,-32 -110,-32 -61,0 -116,33 -116,99 0,71 51,119 98,147 34,20 71,32 110,32 z"
       transform="scale(0.0029,-0.0029)" />
  </g>
  <g
     id="g1150"
     transform="translate(79.3108,9.5353643)">
    <path
       id="path1148"
       fill="currentColor"
       d="m 208,139 c 61,0 117,-33 117,-99 0,-71 -52,-119 -99,-147 -34,-20 -71,-32 -110,-32 -61,0 -116,33 -116,99 0,71 51,119 98,147 34,20 71,32 110,32 z"
       transform="scale(0.0029,-0.0029)" />
  </g>
  <g
     id="g1154"
     transform="translate(71.8299,6.2195643)">
    <rect
       id="rect1152"
       fill="currentColor"
       ry="0.042100001"
       height="2.0876999"
       width="0.1228"
       y="-0.36489999"
       x="-0.0614" />
  </g>
  <g
     id="g1158"
     transform="translate(75.8929,6.2195643)">
    <rect
       id="rect1156"
       fill="currentColor"
       ry="0.042100001"
       height="2.5885999"
       width="0.1228"
       y="-0.1288"
       x="-0.0614" />
  </g>
  <g
     id="g1162"
     transform="translate(74.9978,8.7985643)">
    <path
       id="path1160"
       fill="currentColor"
       d="m 208,139 c 61,0 117,-33 117,-99 0,-71 -52,-119 -99,-147 -34,-20 -71,-32 -110,-32 -61,0 -116,33 -116,99 0,71 51,119 98,147 34,20 71,32 110,32 z"
       transform="scale(0.0029,-0.0029)" />
  </g>
  <g
     id="g1166"
     transform="translate(73.0913,8.4301643)">
    <path
       id="path1164"
       fill="currentColor"
       d="m 208,139 c 61,0 117,-33 117,-99 0,-71 -52,-119 -99,-147 -34,-20 -71,-32 -110,-32 -61,0 -116,33 -116,99 0,71 51,119 98,147 34,20 71,32 110,32 z"
       transform="scale(0.0029,-0.0029)" />
  </g>
  <g
     id="g1170"
     transform="translate(73.9864,6.2195643)">
    <rect
       id="rect1168"
       fill="currentColor"
       ry="0.042100001"
       height="2.3309"
       width="0.1228"
       y="-0.2396"
       x="-0.0614" />
  </g>
  <g
     id="g1174"
     transform="translate(67.065,6.2195643)">
    <rect
       id="rect1172"
       fill="currentColor"
       ry="0.042100001"
       height="3.0669"
       width="0.1228"
       y="-2.0809"
       x="-0.0614" />
  </g>
  <g
     id="g1178"
     transform="translate(82.6124,6.2195643)">
    <rect
       id="rect1176"
       fill="currentColor"
       ry="0.042100001"
       height="1.9617"
       width="0.1228"
       y="-2.0809"
       x="-0.0614" />
  </g>
  <g
     id="g1182"
     transform="translate(81.7173,6.2195643)">
    <path
       id="path1180"
       fill="currentColor"
       d="m 208,139 c 61,0 117,-33 117,-99 0,-71 -52,-119 -99,-147 -34,-20 -71,-32 -110,-32 -61,0 -116,33 -116,99 0,71 51,119 98,147 34,20 71,32 110,32 z"
       transform="scale(0.0029,-0.0029)" />
  </g>
  <g
     id="g1186"
     transform="translate(80.2059,6.2195643)">
    <rect
       id="rect1184"
       fill="currentColor"
       ry="0.042100001"
       height="5.2775002"
       width="0.1228"
       y="-2.0809"
       x="-0.0614" />
  </g>
  <g
     id="g1190"
     transform="translate(66.1699,7.3248643)">
    <path
       id="path1188"
       fill="currentColor"
       d="m 208,139 c 61,0 117,-33 117,-99 0,-71 -52,-119 -99,-147 -34,-20 -71,-32 -110,-32 -61,0 -116,33 -116,99 0,71 51,119 98,147 34,20 71,32 110,32 z"
       transform="scale(0.0029,-0.0029)" />
  </g>
</svg>
