<?xml version="1.0" encoding="UTF-8" standalone="no"?>
<svg
   xmlns:dc="http://purl.org/dc/elements/1.1/"
   xmlns:cc="http://creativecommons.org/ns#"
   xmlns:rdf="http://www.w3.org/1999/02/22-rdf-syntax-ns#"
   xmlns:svg="http://www.w3.org/2000/svg"
   xmlns="http://www.w3.org/2000/svg"
   xmlns:sodipodi="http://sodipodi.sourceforge.net/DTD/sodipodi-0.dtd"
   xmlns:inkscape="http://www.inkscape.org/namespaces/inkscape"
   sodipodi:docname="bwv-1004_5_for_PNGs-17.svg"
   id="svg888"
   viewBox="0 0 152.85699 9.7557992"
   height="16.286661mm"
   width="255.18466mm"
   version="1.2">
  <metadata
     id="metadata894">
    <rdf:RDF>
      <cc:Work
         rdf:about="">
        <dc:format>image/svg+xml</dc:format>
        <dc:type
           rdf:resource="http://purl.org/dc/dcmitype/StillImage" />
      </cc:Work>
    </rdf:RDF>
  </metadata>
  <defs
     id="defs892" />
  <sodipodi:namedview
     id="namedview890"
     inkscape:window-height="480"
     inkscape:window-width="640"
     inkscape:pageshadow="2"
     inkscape:pageopacity="0"
     guidetolerance="10"
     gridtolerance="10"
     objecttolerance="10"
     borderopacity="1"
     bordercolor="#666666"
     pagecolor="#ffffff" />
  <style
     id="style2"
     type="text/css"><![CDATA[
tspan { white-space: pre; }
]]></style>
  <g
     id="g6"
     transform="translate(0,5.8948001)">
    <line
       id="line4"
       y2="0"
       x2="152.8098"
       y1="0"
       x1="0.047200002"
       stroke="currentColor"
       stroke-width="0.0944"
       stroke-linecap="round"
       stroke-linejoin="round" />
  </g>
  <g
     id="g10"
     transform="translate(0,5.1580001)">
    <line
       id="line8"
       y2="0"
       x2="152.8098"
       y1="0"
       x1="0.047200002"
       stroke="currentColor"
       stroke-width="0.0944"
       stroke-linecap="round"
       stroke-linejoin="round" />
  </g>
  <g
     id="g14"
     transform="translate(0,4.4211001)">
    <line
       id="line12"
       y2="0"
       x2="152.8098"
       y1="0"
       x1="0.047200002"
       stroke="currentColor"
       stroke-width="0.0944"
       stroke-linecap="round"
       stroke-linejoin="round" />
  </g>
  <g
     id="g18"
     transform="translate(0,3.6843001)">
    <line
       id="line16"
       y2="0"
       x2="152.8098"
       y1="0"
       x1="0.047200002"
       stroke="currentColor"
       stroke-width="0.0944"
       stroke-linecap="round"
       stroke-linejoin="round" />
  </g>
  <g
     id="g22"
     transform="translate(0,2.9475001)">
    <line
       id="line20"
       y2="0"
       x2="152.8098"
       y1="0"
       x1="0.047200002"
       stroke="currentColor"
       stroke-width="0.0944"
       stroke-linecap="round"
       stroke-linejoin="round" />
  </g>
  <g
     id="g26"
     transform="translate(34.143,4.4211001)">
    <rect
       id="rect24"
       fill="currentColor"
       ry="0.0000"
       height="2.9474001"
       width="0.1794"
       y="-1.4737"
       x="0" />
  </g>
  <g
     id="g30"
     transform="translate(48.7548,4.4211001)">
    <rect
       id="rect28"
       fill="currentColor"
       ry="0.0000"
       height="2.9474001"
       width="0.1794"
       y="-1.4737"
       x="0" />
  </g>
  <g
     id="g34"
     transform="translate(95.7795,4.4211001)">
    <rect
       id="rect32"
       fill="currentColor"
       ry="0.0000"
       height="2.9474001"
       width="0.1794"
       y="-1.4737"
       x="0" />
  </g>
  <g
     id="g38"
     transform="translate(78.7632,4.4211001)">
    <rect
       id="rect36"
       fill="currentColor"
       ry="0.0000"
       height="2.9474001"
       width="0.1794"
       y="-1.4737"
       x="0" />
  </g>
  <g
     id="g42"
     transform="translate(113.4334,4.4211001)">
    <rect
       id="rect40"
       fill="currentColor"
       ry="0.0000"
       height="2.9474001"
       width="0.1794"
       y="-1.4737"
       x="0" />
  </g>
  <g
     id="g46"
     transform="translate(62.9173,4.4211001)">
    <rect
       id="rect44"
       fill="currentColor"
       ry="0.0000"
       height="2.9474001"
       width="0.1794"
       y="-1.4737"
       x="0" />
  </g>
  <g
     id="g50"
     transform="translate(148.5653,4.4211001)">
    <rect
       id="rect48"
       fill="currentColor"
       ry="0.0000"
       height="2.9474001"
       width="0.1794"
       y="-1.4737"
       x="0" />
  </g>
  <g
     id="g54"
     transform="translate(0,6.6317001)">
    <rect
       id="rect52"
       fill="currentColor"
       ry="0.084100001"
       height="0.1681"
       width="1.5329"
       y="-0.084100001"
       x="139.6949" />
  </g>
  <g
     id="g58"
     transform="translate(0,7.3685001)">
    <rect
       id="rect56"
       fill="currentColor"
       ry="0.084100001"
       height="0.1681"
       width="1.5329"
       y="-0.084100001"
       x="139.6949" />
  </g>
  <g
     id="g62"
     transform="translate(0,6.6317001)">
    <rect
       id="rect60"
       fill="currentColor"
       ry="0.084100001"
       height="0.1681"
       width="1.4347"
       y="-0.084100001"
       x="132.99831" />
  </g>
  <g
     id="g66"
     transform="translate(0,7.3685001)">
    <rect
       id="rect64"
       fill="currentColor"
       ry="0.084100001"
       height="0.1681"
       width="1.3706"
       y="-0.084100001"
       x="133.06239" />
  </g>
  <g
     id="g70"
     transform="translate(0,6.6317001)">
    <rect
       id="rect68"
       fill="currentColor"
       ry="0.084100001"
       height="0.1681"
       width="1.4347"
       y="-0.084100001"
       x="124.2981" />
  </g>
  <g
     id="g74"
     transform="translate(0,7.3685001)">
    <rect
       id="rect72"
       fill="currentColor"
       ry="0.084100001"
       height="0.1681"
       width="1.4347"
       y="-0.084100001"
       x="124.2981" />
  </g>
  <g
     id="g78"
     transform="translate(0,6.6317001)">
    <rect
       id="rect76"
       fill="currentColor"
       ry="0.084100001"
       height="0.1681"
       width="1.4347"
       y="-0.084100001"
       x="119.7416" />
  </g>
  <g
     id="g82"
     transform="translate(0,6.6317001)">
    <rect
       id="rect80"
       fill="currentColor"
       ry="0.084100001"
       height="0.1681"
       width="1.4347"
       y="-0.084100001"
       x="115.0257" />
  </g>
  <g
     id="g86"
     transform="translate(0,7.3685001)">
    <rect
       id="rect84"
       fill="currentColor"
       ry="0.084100001"
       height="0.1681"
       width="1.4347"
       y="-0.084100001"
       x="115.0257" />
  </g>
  <g
     id="g90"
     transform="translate(0,6.6317001)">
    <rect
       id="rect88"
       fill="currentColor"
       ry="0.084100001"
       height="0.1681"
       width="1.3706"
       y="-0.084100001"
       x="106.7839" />
  </g>
  <g
     id="g94"
     transform="translate(0,6.6317001)">
    <rect
       id="rect92"
       fill="currentColor"
       ry="0.084100001"
       height="0.1681"
       width="1.4347"
       y="-0.084100001"
       x="102.1633" />
  </g>
  <g
     id="g98"
     transform="translate(0,6.6317001)">
    <rect
       id="rect96"
       fill="currentColor"
       ry="0.084100001"
       height="0.1681"
       width="1.3829"
       y="-0.084100001"
       x="97.237503" />
  </g>
  <g
     id="g102"
     transform="translate(0,6.6317001)">
    <rect
       id="rect100"
       fill="currentColor"
       ry="0.084100001"
       height="0.1681"
       width="1.4347"
       y="-0.084100001"
       x="89.0774" />
  </g>
  <g
     id="g106"
     transform="translate(0,6.6317001)">
    <rect
       id="rect104"
       fill="currentColor"
       ry="0.084100001"
       height="0.1681"
       width="1.4347"
       y="-0.084100001"
       x="73.525398" />
  </g>
  <g
     id="g110"
     transform="translate(0,7.3685001)">
    <rect
       id="rect108"
       fill="currentColor"
       ry="0.084100001"
       height="0.1681"
       width="1.4347"
       y="-0.084100001"
       x="73.525398" />
  </g>
  <g
     id="g114"
     transform="translate(0,2.2106001)">
    <rect
       id="rect112"
       fill="currentColor"
       ry="0.084100001"
       height="0.1681"
       width="1.4347"
       y="-0.084100001"
       x="68.610298" />
  </g>
  <g
     id="g118"
     transform="translate(0,6.6317001)">
    <rect
       id="rect116"
       fill="currentColor"
       ry="0.084100001"
       height="0.1681"
       width="1.4347"
       y="-0.084100001"
       x="68.610298" />
  </g>
  <g
     id="g122"
     transform="translate(0,7.3685001)">
    <rect
       id="rect120"
       fill="currentColor"
       ry="0.084100001"
       height="0.1681"
       width="1.4347"
       y="-0.084100001"
       x="68.610298" />
  </g>
  <g
     id="g126"
     transform="translate(0,2.2106001)">
    <rect
       id="rect124"
       fill="currentColor"
       ry="0.084100001"
       height="0.1681"
       width="1.4347"
       y="-0.084100001"
       x="63.757599" />
  </g>
  <g
     id="g130"
     transform="translate(0,6.6317001)">
    <rect
       id="rect128"
       fill="currentColor"
       ry="0.084100001"
       height="0.1681"
       width="1.4347"
       y="-0.084100001"
       x="63.757599" />
  </g>
  <g
     id="g134"
     transform="translate(0,7.3685001)">
    <rect
       id="rect132"
       fill="currentColor"
       ry="0.084100001"
       height="0.1681"
       width="1.4347"
       y="-0.084100001"
       x="63.757599" />
  </g>
  <g
     id="g138"
     transform="translate(0,6.6317001)">
    <rect
       id="rect136"
       fill="currentColor"
       ry="0.084100001"
       height="0.1681"
       width="1.5329"
       y="-0.084100001"
       x="54.046902" />
  </g>
  <g
     id="g142"
     transform="translate(0,6.6317001)">
    <rect
       id="rect140"
       fill="currentColor"
       ry="0.084100001"
       height="0.1681"
       width="1.4524"
       y="-0.084100001"
       x="39.964901" />
  </g>
  <g
     id="g146"
     transform="translate(0,6.6317001)">
    <rect
       id="rect144"
       fill="currentColor"
       ry="0.084100001"
       height="0.1681"
       width="1.3706"
       y="-0.084100001"
       x="14.357" />
  </g>
  <g
     id="g150"
     transform="translate(131.2974,4.4211001)">
    <rect
       id="rect148"
       fill="currentColor"
       ry="0.0000"
       height="2.9474001"
       width="0.1794"
       y="-1.4737"
       x="0" />
  </g>
  <g
     id="g154"
     transform="translate(99.2763,4.4211001)">
    <rect
       id="rect152"
       fill="currentColor"
       ry="0.042100001"
       height="2.4597001"
       width="0.1228"
       y="-1.8421"
       x="-0.0614" />
  </g>
  <g
     id="g158"
     transform="translate(98.798,4.4211001)">
    <rect
       id="rect156"
       fill="currentColor"
       ry="0.042100001"
       height="2.0913"
       width="0.1228"
       y="-2.9474001"
       x="-0.0614" />
  </g>
  <g
     id="g162"
     transform="translate(97.4247,7.0001001)">
    <path
       id="path160"
       fill="currentColor"
       d="m 208,139 c 61,0 117,-33 117,-99 0,-71 -52,-119 -99,-147 -34,-20 -71,-32 -110,-32 -61,0 -116,33 -116,99 0,71 51,119 98,147 34,20 71,32 110,32 z"
       transform="scale(0.0029,-0.0029)" />
  </g>
  <g
     id="g166"
     transform="translate(98.3198,4.4211001)">
    <rect
       id="rect164"
       fill="currentColor"
       ry="0.042100001"
       height="1.8457"
       width="0.1228"
       y="-3.4386001"
       x="-0.0614" />
  </g>
  <g
     id="g170"
     transform="translate(89.3165,6.6317001)">
    <path
       id="path168"
       fill="currentColor"
       d="m 208,139 c 61,0 117,-33 117,-99 0,-71 -52,-119 -99,-147 -34,-20 -71,-32 -110,-32 -61,0 -116,33 -116,99 0,71 51,119 98,147 34,20 71,32 110,32 z"
       transform="scale(0.0029,-0.0029)" />
  </g>
  <g
     id="g174"
     transform="translate(89.3779,4.4211001)">
    <rect
       id="rect172"
       fill="currentColor"
       ry="0.042100001"
       height="1.6969"
       width="0.1228"
       y="2.3297999"
       x="-0.0614" />
  </g>
  <g
     id="g178"
     transform="translate(98.3812,5.1580001)">
    <path
       id="path176"
       fill="currentColor"
       d="m 208,139 c 61,0 117,-33 117,-99 0,-71 -52,-119 -99,-147 -34,-20 -71,-32 -110,-32 -61,0 -116,33 -116,99 0,71 51,119 98,147 34,20 71,32 110,32 z"
       transform="scale(0.0029,-0.0029)" />
  </g>
  <g
     id="g182"
     transform="translate(97.9029,3.6843001)">
    <path
       id="path180"
       fill="currentColor"
       d="m 208,139 c 61,0 117,-33 117,-99 0,-71 -52,-119 -99,-147 -34,-20 -71,-32 -110,-32 -61,0 -116,33 -116,99 0,71 51,119 98,147 34,20 71,32 110,32 z"
       transform="scale(0.0029,-0.0029)" />
  </g>
  <g
     id="g186"
     transform="translate(97.4247,2.9475001)">
    <path
       id="path184"
       fill="currentColor"
       d="m 208,139 c 61,0 117,-33 117,-99 0,-71 -52,-119 -99,-147 -34,-20 -71,-32 -110,-32 -61,0 -116,33 -116,99 0,71 51,119 98,147 34,20 71,32 110,32 z"
       transform="scale(0.0029,-0.0029)" />
  </g>
  <g
     id="g190"
     transform="translate(91.8072,2.9475001)">
    <path
       id="path188"
       fill="currentColor"
       d="m -8,375 c 8,5 18,7 27,7 9,0 20,-2 28,-7 l -3,-196 99,24 h 4 c 11,0 20,-8 20,-19 l 8,-559 c -8,-5 -19,-7 -28,-7 -9,0 -19,2 -27,7 l 3,196 -99,-24 h -5 c -11,0 -19,8 -19,19 z M 127,109 42,89 l -2,-198 84,20 z"
       transform="scale(0.0029,-0.0029)" />
  </g>
  <g
     id="g194"
     transform="translate(92.7344,4.4211001)">
    <rect
       id="rect192"
       fill="currentColor"
       ry="0.042100001"
       height="3.9593999"
       width="0.1228"
       y="-1.3545001"
       x="-0.0614" />
  </g>
  <g
     id="g198"
     transform="translate(92.673,2.9475001)">
    <path
       id="path196"
       fill="currentColor"
       d="m 208,139 c 61,0 117,-33 117,-99 0,-71 -52,-119 -99,-147 -34,-20 -71,-32 -110,-32 -61,0 -116,33 -116,99 0,71 51,119 98,147 34,20 71,32 110,32 z"
       transform="scale(0.0029,-0.0029)" />
  </g>
  <g
     id="g202"
     transform="translate(103.3589,5.1580001)">
    <path
       id="path200"
       fill="currentColor"
       d="m 208,139 c 61,0 117,-33 117,-99 0,-71 -52,-119 -99,-147 -34,-20 -71,-32 -110,-32 -61,0 -116,33 -116,99 0,71 51,119 98,147 34,20 71,32 110,32 z"
       transform="scale(0.0029,-0.0029)" />
  </g>
  <g
     id="g206"
     transform="translate(102.4024,6.6317001)">
    <path
       id="path204"
       fill="currentColor"
       d="m 208,139 c 61,0 117,-33 117,-99 0,-71 -52,-119 -99,-147 -34,-20 -71,-32 -110,-32 -61,0 -116,33 -116,99 0,71 51,119 98,147 34,20 71,32 110,32 z"
       transform="scale(0.0029,-0.0029)" />
  </g>
  <g
     id="g210"
     transform="translate(103.2975,4.4211001)">
    <rect
       id="rect208"
       fill="currentColor"
       ry="0.042100001"
       height="1.9685"
       width="0.1228"
       y="-3.1930001"
       x="-0.0614" />
  </g>
  <g
     id="g214"
     transform="translate(103.7757,4.4211001)">
    <rect
       id="rect212"
       fill="currentColor"
       ry="0.042100001"
       height="2.2140999"
       width="0.1228"
       y="-2.7018001"
       x="-0.0614" />
  </g>
  <g
     id="g218"
     transform="translate(102.8806,4.0527001)">
    <path
       id="path216"
       fill="currentColor"
       d="m 208,139 c 61,0 117,-33 117,-99 0,-71 -52,-119 -99,-147 -34,-20 -71,-32 -110,-32 -61,0 -116,33 -116,99 0,71 51,119 98,147 34,20 71,32 110,32 z"
       transform="scale(0.0029,-0.0029)" />
  </g>
  <g
     id="g222"
     transform="translate(104.254,4.4211001)">
    <rect
       id="rect220"
       fill="currentColor"
       ry="0.042100001"
       height="2.4597001"
       width="0.1228"
       y="-1.8421"
       x="-0.0614" />
  </g>
  <g
     id="g226"
     transform="translate(102.4637,4.4211001)">
    <rect
       id="rect224"
       fill="currentColor"
       ry="0.042100001"
       height="1.7229"
       width="0.1228"
       y="2.3297999"
       x="-0.0614" />
  </g>
  <g
     id="g230"
     transform="translate(97.4861,4.4211001)">
    <rect
       id="rect228"
       fill="currentColor"
       ry="0.042100001"
       height="1.7229"
       width="0.1228"
       y="2.6982"
       x="-0.0614" />
  </g>
  <g
     id="g234"
     transform="translate(96.5589,7.0001001)">
    <path
       id="path232"
       fill="currentColor"
       d="m -8,375 c 8,5 18,7 27,7 9,0 20,-2 28,-7 l -3,-196 99,24 h 4 c 11,0 20,-8 20,-19 l 8,-559 c -8,-5 -19,-7 -28,-7 -9,0 -19,2 -27,7 l 3,196 -99,-24 h -5 c -11,0 -19,8 -19,19 z M 127,109 42,89 l -2,-198 84,20 z"
       transform="scale(0.0029,-0.0029)" />
  </g>
  <g
     id="g238"
     transform="translate(102.4024,3.3159001)">
    <path
       id="path236"
       fill="currentColor"
       d="m 208,139 c 61,0 117,-33 117,-99 0,-71 -52,-119 -99,-147 -34,-20 -71,-32 -110,-32 -61,0 -116,33 -116,99 0,71 51,119 98,147 34,20 71,32 110,32 z"
       transform="scale(0.0029,-0.0029)" />
  </g>
  <g
     id="g242"
     transform="translate(79.8448,2.5790001)">
    <path
       id="path240"
       fill="currentColor"
       d="m 208,139 c 61,0 117,-33 117,-99 0,-71 -52,-119 -99,-147 -34,-20 -71,-32 -110,-32 -61,0 -116,33 -116,99 0,71 51,119 98,147 34,20 71,32 110,32 z"
       transform="scale(0.0029,-0.0029)" />
  </g>
  <g
     id="g246"
     transform="translate(80.3231,3.6843001)">
    <path
       id="path244"
       fill="currentColor"
       d="m 208,139 c 61,0 117,-33 117,-99 0,-71 -52,-119 -99,-147 -34,-20 -71,-32 -110,-32 -61,0 -116,33 -116,99 0,71 51,119 98,147 34,20 71,32 110,32 z"
       transform="scale(0.0029,-0.0029)" />
  </g>
  <g
     id="g250"
     transform="translate(80.8013,4.7896001)">
    <path
       id="path248"
       fill="currentColor"
       d="m 208,139 c 61,0 117,-33 117,-99 0,-71 -52,-119 -99,-147 -34,-20 -71,-32 -110,-32 -61,0 -116,33 -116,99 0,71 51,119 98,147 34,20 71,32 110,32 z"
       transform="scale(0.0029,-0.0029)" />
  </g>
  <g
     id="g254"
     transform="translate(79.8448,6.2633001)">
    <path
       id="path252"
       fill="currentColor"
       d="m 208,139 c 61,0 117,-33 117,-99 0,-71 -52,-119 -99,-147 -34,-20 -71,-32 -110,-32 -61,0 -116,33 -116,99 0,71 51,119 98,147 34,20 71,32 110,32 z"
       transform="scale(0.0029,-0.0029)" />
  </g>
  <g
     id="g258"
     transform="translate(80.7399,4.4211001)">
    <rect
       id="rect256"
       fill="currentColor"
       ry="0.042100001"
       height="1.7229"
       width="0.1228"
       y="-3.6842"
       x="-0.0614" />
  </g>
  <g
     id="g262"
     transform="translate(72.7661,4.0527001)">
    <path
       id="path260"
       fill="currentColor"
       d="m 0,114 c 0,12 7,22 18,26 l 37,15 v 151 c 0,12 10,22 22,22 12,0 22,-10 22,-22 V 172 l 77,29 v 152 c 0,12 10,22 22,22 12,0 22,-10 22,-22 V 219 l 16,6 c 3,1 8,2 11,2 15,0 28,-12 28,-28 v -50 c 0,-12 -7,-23 -18,-27 L 220,108 V -44 l 16,7 c 3,1 8,2 11,2 15,0 28,-13 28,-29 v -50 c 0,-12 -7,-22 -18,-26 l -37,-15 v -151 c 0,-12 -10,-22 -22,-22 -12,0 -22,10 -22,22 v 134 l -77,-29 v -152 c 0,-12 -10,-22 -22,-22 -12,0 -22,10 -22,22 v 134 l -16,-6 c -3,-1 -8,-2 -11,-2 -15,0 -28,12 -28,28 v 50 c 0,12 7,23 18,27 l 37,14 V 44 L 39,37 C 36,36 31,35 28,35 13,35 0,48 0,64 Z M 176,91 99,61 V -91 l 77,30 z"
       transform="scale(0.0029,-0.0029)" />
  </g>
  <g
     id="g266"
     transform="translate(81.2182,4.4211001)">
    <rect
       id="rect264"
       fill="currentColor"
       ry="0.042100001"
       height="2.0913"
       width="0.1228"
       y="-2.9474001"
       x="-0.0614" />
  </g>
  <g
     id="g270"
     transform="translate(81.6964,4.4211001)">
    <rect
       id="rect268"
       fill="currentColor"
       ry="0.042100001"
       height="2.4597001"
       width="0.1228"
       y="-2.2105"
       x="-0.0614" />
  </g>
  <g
     id="g274"
     transform="translate(133.2374,9.5790001)">
    <polygon
       id="polygon272"
       points="0.0421,0.1347 0.0421,-0.1347 3.6871,-1.6084 3.6871,-1.3389 "
       stroke="currentColor"
       fill="currentColor"
       stroke-width="0.0842"
       stroke-linecap="round"
       stroke-linejoin="round" />
  </g>
  <g
     id="g278"
     transform="translate(75.1379,4.4211001)">
    <rect
       id="rect276"
       fill="currentColor"
       ry="0.042100001"
       height="2.2140999"
       width="0.1228"
       y="-2.7018001"
       x="-0.0614" />
  </g>
  <g
     id="g282"
     transform="translate(75.6161,4.4211001)">
    <rect
       id="rect280"
       fill="currentColor"
       ry="0.042100001"
       height="2.4597001"
       width="0.1228"
       y="-1.1052999"
       x="-0.0614" />
  </g>
  <g
     id="g286"
     transform="translate(73.8259,4.4211001)">
    <rect
       id="rect284"
       fill="currentColor"
       ry="0.042100001"
       height="1.7229"
       width="0.1228"
       y="3.0666001"
       x="-0.0614" />
  </g>
  <g
     id="g290"
     transform="translate(86.6116,4.4211001)">
    <rect
       id="rect288"
       fill="currentColor"
       ry="0.042100001"
       height="2.4597001"
       width="0.1228"
       y="-2.2105"
       x="-0.0614" />
  </g>
  <g
     id="g294"
     transform="translate(85.6551,4.4211001)">
    <rect
       id="rect292"
       fill="currentColor"
       ry="0.042100001"
       height="1.8457"
       width="0.1228"
       y="-3.4386001"
       x="-0.0614" />
  </g>
  <g
     id="g298"
     transform="translate(86.1334,4.4211001)">
    <rect
       id="rect296"
       fill="currentColor"
       ry="0.042100001"
       height="2.0913"
       width="0.1228"
       y="-2.9474001"
       x="-0.0614" />
  </g>
  <g
     id="g302"
     transform="translate(84.76,6.2633001)">
    <path
       id="path300"
       fill="currentColor"
       d="m 208,139 c 61,0 117,-33 117,-99 0,-71 -52,-119 -99,-147 -34,-20 -71,-32 -110,-32 -61,0 -116,33 -116,99 0,71 51,119 98,147 34,20 71,32 110,32 z"
       transform="scale(0.0029,-0.0029)" />
  </g>
  <g
     id="g306"
     transform="translate(84.8214,4.4211001)">
    <rect
       id="rect304"
       fill="currentColor"
       ry="0.042100001"
       height="1.7229"
       width="0.1228"
       y="1.9613"
       x="-0.0614" />
  </g>
  <g
     id="g310"
     transform="translate(79.9062,4.4211001)">
    <rect
       id="rect308"
       fill="currentColor"
       ry="0.042100001"
       height="1.7229"
       width="0.1228"
       y="1.9613"
       x="-0.0614" />
  </g>
  <g
     id="g314"
     transform="translate(83.5995,2.9475001)">
    <path
       id="path312"
       fill="currentColor"
       d="m 0,114 c 0,12 7,22 18,26 l 37,15 v 151 c 0,12 10,22 22,22 12,0 22,-10 22,-22 V 172 l 77,29 v 152 c 0,12 10,22 22,22 12,0 22,-10 22,-22 V 219 l 16,6 c 3,1 8,2 11,2 15,0 28,-12 28,-28 v -50 c 0,-12 -7,-23 -18,-27 L 220,108 V -44 l 16,7 c 3,1 8,2 11,2 15,0 28,-13 28,-29 v -50 c 0,-12 -7,-22 -18,-26 l -37,-15 v -151 c 0,-12 -10,-22 -22,-22 -12,0 -22,10 -22,22 v 134 l -77,-29 v -152 c 0,-12 -10,-22 -22,-22 -12,0 -22,10 -22,22 v 134 l -16,-6 c -3,-1 -8,-2 -11,-2 -15,0 -28,12 -28,28 v 50 c 0,12 7,23 18,27 l 37,14 V 44 L 39,37 C 36,36 31,35 28,35 13,35 0,48 0,64 Z M 176,91 99,61 V -91 l 77,30 z"
       transform="scale(0.0029,-0.0029)" />
  </g>
  <g
     id="g318"
     transform="translate(84.76,2.9475001)">
    <path
       id="path316"
       fill="currentColor"
       d="m 208,139 c 61,0 117,-33 117,-99 0,-71 -52,-119 -99,-147 -34,-20 -71,-32 -110,-32 -61,0 -116,33 -116,99 0,71 51,119 98,147 34,20 71,32 110,32 z"
       transform="scale(0.0029,-0.0029)" />
  </g>
  <g
     id="g322"
     transform="translate(85.2383,3.6843001)">
    <path
       id="path320"
       fill="currentColor"
       d="m 208,139 c 61,0 117,-33 117,-99 0,-71 -52,-119 -99,-147 -34,-20 -71,-32 -110,-32 -61,0 -116,33 -116,99 0,71 51,119 98,147 34,20 71,32 110,32 z"
       transform="scale(0.0029,-0.0029)" />
  </g>
  <g
     id="g326"
     transform="translate(85.7165,4.7896001)">
    <path
       id="path324"
       fill="currentColor"
       d="m 208,139 c 61,0 117,-33 117,-99 0,-71 -52,-119 -99,-147 -34,-20 -71,-32 -110,-32 -61,0 -116,33 -116,99 0,71 51,119 98,147 34,20 71,32 110,32 z"
       transform="scale(0.0029,-0.0029)" />
  </g>
  <g
     id="g330"
     transform="translate(140.4613,5.8948001)">
    <path
       id="path328"
       fill="currentColor"
       d="m 308,62 c 0,23 -20,39 -40,39 -4,0 -7,0 -11,-1 C 228,92 183,62 148,39 113,16 69,-13 49,-36 43,-44 39,-52 39,-62 c 0,-23 20,-39 40,-39 4,0 7,0 11,1 29,8 74,38 109,61 35,23 79,52 99,75 6,8 10,16 10,26 z M 0,-59 c 0,142 114,198 251,198 53,0 96,-22 96,-80 0,-142 -115,-198 -252,-198 -53,0 -95,22 -95,80 z"
       transform="scale(0.0029,-0.0029)" />
  </g>
  <g
     id="g334"
     transform="translate(136.8439,3.6843001)">
    <path
       id="path332"
       fill="currentColor"
       d="m 208,139 c 61,0 117,-33 117,-99 0,-71 -52,-119 -99,-147 -34,-20 -71,-32 -110,-32 -61,0 -116,33 -116,99 0,71 51,119 98,147 34,20 71,32 110,32 z"
       transform="scale(0.0029,-0.0029)" />
  </g>
  <g
     id="g338"
     transform="translate(136.9053,4.4211001)">
    <rect
       id="rect336"
       fill="currentColor"
       ry="0.042100001"
       height="4.3260999"
       width="0.1228"
       y="-0.61760002"
       x="-0.0614" />
  </g>
  <g
     id="g342"
     transform="translate(139.9504,4.0527001)">
    <path
       id="path340"
       fill="currentColor"
       d="m 208,139 c 61,0 117,-33 117,-99 0,-71 -52,-119 -99,-147 -34,-20 -71,-32 -110,-32 -61,0 -116,33 -116,99 0,71 51,119 98,147 34,20 71,32 110,32 z"
       transform="scale(0.0029,-0.0029)" />
  </g>
  <g
     id="g346"
     transform="translate(139.9504,7.3685001)">
    <path
       id="path344"
       fill="currentColor"
       d="m 308,62 c 0,23 -20,39 -40,39 -4,0 -7,0 -11,-1 C 228,92 183,62 148,39 113,16 69,-13 49,-36 43,-44 39,-52 39,-62 c 0,-23 20,-39 40,-39 4,0 7,0 11,1 29,8 74,38 109,61 35,23 79,52 99,75 6,8 10,16 10,26 z M 0,-59 c 0,142 114,198 251,198 53,0 96,-22 96,-80 0,-142 -115,-198 -252,-198 -53,0 -95,22 -95,80 z"
       transform="scale(0.0029,-0.0029)" />
  </g>
  <g
     id="g350"
     transform="translate(141.8048,4.0527001)">
    <path
       id="path348"
       fill="currentColor"
       d="M 0,0 C 0,30 25,55 55,55 85,55 109,30 109,0 109,-30 85,-55 55,-55 25,-55 0,-30 0,0 Z"
       transform="scale(0.0029,-0.0029)" />
  </g>
  <g
     id="g354"
     transform="translate(140.8455,4.4211001)">
    <rect
       id="rect352"
       fill="currentColor"
       ry="0.042100001"
       height="2.2140999"
       width="0.1228"
       y="-2.7018001"
       x="-0.0614" />
  </g>
  <g
     id="g358"
     transform="translate(141.4218,4.4211001)">
    <rect
       id="rect356"
       fill="currentColor"
       ry="0.042100001"
       height="2.4047"
       width="0.1228"
       y="-1.1052999"
       x="-0.0614" />
  </g>
  <g
     id="g362"
     transform="translate(133.2374,7.7369001)">
    <path
       id="path360"
       fill="currentColor"
       d="m 208,139 c 61,0 117,-33 117,-99 0,-71 -52,-119 -99,-147 -34,-20 -71,-32 -110,-32 -61,0 -116,33 -116,99 0,71 51,119 98,147 34,20 71,32 110,32 z"
       transform="scale(0.0029,-0.0029)" />
  </g>
  <g
     id="g366"
     transform="translate(133.2988,4.4211001)">
    <rect
       id="rect364"
       fill="currentColor"
       ry="0.042100001"
       height="1.6986001"
       width="0.1228"
       y="3.4349999"
       x="-0.0614" />
  </g>
  <g
     id="g370"
     transform="translate(132.0769,7.7369001)">
    <path
       id="path368"
       fill="currentColor"
       d="m 0,114 c 0,12 7,22 18,26 l 37,15 v 151 c 0,12 10,22 22,22 12,0 22,-10 22,-22 V 172 l 77,29 v 152 c 0,12 10,22 22,22 12,0 22,-10 22,-22 V 219 l 16,6 c 3,1 8,2 11,2 15,0 28,-12 28,-28 v -50 c 0,-12 -7,-23 -18,-27 L 220,108 V -44 l 16,7 c 3,1 8,2 11,2 15,0 28,-13 28,-29 v -50 c 0,-12 -7,-22 -18,-26 l -37,-15 v -151 c 0,-12 -10,-22 -22,-22 -12,0 -22,10 -22,22 v 134 l -77,-29 v -152 c 0,-12 -10,-22 -22,-22 -12,0 -22,10 -22,22 v 134 l -16,-6 c -3,-1 -8,-2 -11,-2 -15,0 -28,12 -28,28 v 50 c 0,12 7,23 18,27 l 37,14 V 44 L 39,37 C 36,36 31,35 28,35 13,35 0,48 0,64 Z M 176,91 99,61 V -91 l 77,30 z"
       transform="scale(0.0029,-0.0029)" />
  </g>
  <g
     id="g374"
     transform="translate(149.7447,4.4211001)">
    <path
       id="path372"
       fill="currentColor"
       d="m -8,375 c 8,5 18,7 27,7 9,0 20,-2 28,-7 l -3,-196 99,24 h 4 c 11,0 20,-8 20,-19 l 8,-559 c -8,-5 -19,-7 -28,-7 -9,0 -19,2 -27,7 l 3,196 -99,-24 h -5 c -11,0 -19,8 -19,19 z M 127,109 42,89 l -2,-198 84,20 z"
       transform="scale(0.0029,-0.0029)" />
  </g>
  <g
     id="g378"
     transform="translate(150.7359,2.9475001)">
    <path
       id="path376"
       fill="currentColor"
       d="m 0,114 c 0,12 7,22 18,26 l 37,15 v 151 c 0,12 10,22 22,22 12,0 22,-10 22,-22 V 172 l 77,29 v 152 c 0,12 10,22 22,22 12,0 22,-10 22,-22 V 219 l 16,6 c 3,1 8,2 11,2 15,0 28,-12 28,-28 v -50 c 0,-12 -7,-23 -18,-27 L 220,108 V -44 l 16,7 c 3,1 8,2 11,2 15,0 28,-13 28,-29 v -50 c 0,-12 -7,-22 -18,-26 l -37,-15 v -151 c 0,-12 -10,-22 -22,-22 -12,0 -22,10 -22,22 v 134 l -77,-29 v -152 c 0,-12 -10,-22 -22,-22 -12,0 -22,10 -22,22 v 134 l -16,-6 c -3,-1 -8,-2 -11,-2 -15,0 -28,12 -28,28 v 50 c 0,12 7,23 18,27 l 37,14 V 44 L 39,37 C 36,36 31,35 28,35 13,35 0,48 0,64 Z M 176,91 99,61 V -91 l 77,30 z"
       transform="scale(0.0029,-0.0029)" />
  </g>
  <g
     id="g382"
     transform="translate(151.5465,4.0527001)">
    <path
       id="path380"
       fill="currentColor"
       d="m 0,114 c 0,12 7,22 18,26 l 37,15 v 151 c 0,12 10,22 22,22 12,0 22,-10 22,-22 V 172 l 77,29 v 152 c 0,12 10,22 22,22 12,0 22,-10 22,-22 V 219 l 16,6 c 3,1 8,2 11,2 15,0 28,-12 28,-28 v -50 c 0,-12 -7,-23 -18,-27 L 220,108 V -44 l 16,7 c 3,1 8,2 11,2 15,0 28,-13 28,-29 v -50 c 0,-12 -7,-22 -18,-26 l -37,-15 v -151 c 0,-12 -10,-22 -22,-22 -12,0 -22,10 -22,22 v 134 l -77,-29 v -152 c 0,-12 -10,-22 -22,-22 -12,0 -22,10 -22,22 v 134 l -16,-6 c -3,-1 -8,-2 -11,-2 -15,0 -28,12 -28,28 v 50 c 0,12 7,23 18,27 l 37,14 V 44 L 39,37 C 36,36 31,35 28,35 13,35 0,48 0,64 Z M 176,91 99,61 V -91 l 77,30 z"
       transform="scale(0.0029,-0.0029)" />
  </g>
  <g
     id="g386"
     transform="translate(8.3357,3.0771001)">
    <polygon
       id="polygon384"
       points="0.0421,0.1347 0.0421,-0.1347 7.1107,0.4725 7.1107,0.742 "
       stroke="currentColor"
       fill="currentColor"
       stroke-width="0.0842"
       stroke-linecap="round"
       stroke-linejoin="round" />
  </g>
  <g
     id="g390"
     transform="translate(8.3357,3.6843001)">
    <polygon
       id="polygon388"
       points="0.0421,0.1347 0.0421,-0.1347 7.1107,0.4725 7.1107,0.742 "
       stroke="currentColor"
       fill="currentColor"
       stroke-width="0.0842"
       stroke-linecap="round"
       stroke-linejoin="round" />
  </g>
  <g
     id="g394"
     transform="translate(7.5019,4.4211001)">
    <path
       id="path392"
       d="m 0.9221,-1.8841 c 1.3703,-0.9593 5.841,-0.5797 7.03,0.5968 v 0 C 6.7535,-2.3509 2.2828,-2.7304 0.9221,-1.8841 Z"
       fill="currentColor"
       stroke="currentColor"
       stroke-linecap="round"
       stroke-linejoin="round"
       stroke-width="0.0755" />
  </g>
  <g
     id="g398"
     transform="translate(17.5221,3.0771001)">
    <polygon
       id="polygon396"
       points="0.0421,0.1347 0.0421,-0.1347 6.8001,-0.8716 6.8001,-0.6021 "
       stroke="currentColor"
       fill="currentColor"
       stroke-width="0.0842"
       stroke-linecap="round"
       stroke-linejoin="round" />
  </g>
  <g
     id="g402"
     transform="translate(17.5221,3.6843001)">
    <polygon
       id="polygon400"
       points="0.0421,0.1347 0.0421,-0.1347 6.8001,-0.8716 6.8001,-0.6021 "
       stroke="currentColor"
       fill="currentColor"
       stroke-width="0.0842"
       stroke-linecap="round"
       stroke-linejoin="round" />
  </g>
  <g
     id="g406"
     transform="translate(16.6884,4.4211001)">
    <path
       id="path404"
       d="m 0.861,-1.8959 c 1.133,-1.1829 5.3605,-1.6382 6.7194,-0.7237 v 0 C 6.2337,-3.4214 2.0061,-2.9662 0.861,-1.8959 Z"
       fill="currentColor"
       stroke="currentColor"
       stroke-linecap="round"
       stroke-linejoin="round"
       stroke-width="0.0755" />
  </g>
  <g
     id="g410"
     transform="translate(26.3981,2.2106001)">
    <polygon
       id="polygon408"
       points="0.0421,0.1347 0.0421,-0.1347 6.3001,-0.1347 6.3001,0.1347 "
       stroke="currentColor"
       fill="currentColor"
       stroke-width="0.0842"
       stroke-linecap="round"
       stroke-linejoin="round" />
  </g>
  <g
     id="g414"
     transform="translate(26.3981,2.8178001)">
    <polygon
       id="polygon412"
       points="0.0421,0.1347 0.0421,-0.1347 6.3001,-0.1347 6.3001,0.1347 "
       stroke="currentColor"
       fill="currentColor"
       stroke-width="0.0842"
       stroke-linecap="round"
       stroke-linejoin="round" />
  </g>
  <g
     id="g418"
     transform="translate(89.3165,8.4738001)">
    <polygon
       id="polygon416"
       points="0.0421,0.1347 0.0421,-0.1347 3.4371,-1.6084 3.4371,-1.3389 "
       stroke="currentColor"
       fill="currentColor"
       stroke-width="0.0842"
       stroke-linecap="round"
       stroke-linejoin="round" />
  </g>
  <g
     id="g422"
     transform="translate(106.9589,8.8422001)">
    <polygon
       id="polygon420"
       points="0.0421,0.1347 0.0421,-0.1347 3.4371,-1.4788 3.4371,-1.2093 "
       stroke="currentColor"
       fill="currentColor"
       stroke-width="0.0842"
       stroke-linecap="round"
       stroke-linejoin="round" />
  </g>
  <g
     id="g426"
     transform="translate(124.5372,9.2106001)">
    <polygon
       id="polygon424"
       points="0.0421,0.1347 0.0421,-0.1347 3.6871,-1.6084 3.6871,-1.3389 "
       stroke="currentColor"
       fill="currentColor"
       stroke-width="0.0842"
       stroke-linecap="round"
       stroke-linejoin="round" />
  </g>
  <g
     id="g430"
     transform="translate(140.0117,4.4211001)">
    <rect
       id="rect428"
       fill="currentColor"
       ry="0.042100001"
       height="1.6677999"
       width="0.1228"
       y="3.1217"
       x="-0.0614" />
  </g>
  <g
     id="g434"
     transform="translate(138.7898,4.0527001)">
    <path
       id="path432"
       fill="currentColor"
       d="m 0,114 c 0,12 7,22 18,26 l 37,15 v 151 c 0,12 10,22 22,22 12,0 22,-10 22,-22 V 172 l 77,29 v 152 c 0,12 10,22 22,22 12,0 22,-10 22,-22 V 219 l 16,6 c 3,1 8,2 11,2 15,0 28,-12 28,-28 v -50 c 0,-12 -7,-23 -18,-27 L 220,108 V -44 l 16,7 c 3,1 8,2 11,2 15,0 28,-13 28,-29 v -50 c 0,-12 -7,-22 -18,-26 l -37,-15 v -151 c 0,-12 -10,-22 -22,-22 -12,0 -22,10 -22,22 v 134 l -77,-29 v -152 c 0,-12 -10,-22 -22,-22 -12,0 -22,10 -22,22 v 134 l -16,-6 c -3,-1 -8,-2 -11,-2 -15,0 -28,12 -28,28 v 50 c 0,12 7,23 18,27 l 37,14 V 44 L 39,37 C 36,36 31,35 28,35 13,35 0,48 0,64 Z M 176,91 99,61 V -91 l 77,30 z"
       transform="scale(0.0029,-0.0029)" />
  </g>
  <g
     id="g438"
     transform="translate(145.2088,3.6843001)">
    <path
       id="path436"
       fill="currentColor"
       d="m 208,139 c 61,0 117,-33 117,-99 0,-71 -52,-119 -99,-147 -34,-20 -71,-32 -110,-32 -61,0 -116,33 -116,99 0,71 51,119 98,147 34,20 71,32 110,32 z"
       transform="scale(0.0029,-0.0029)" />
  </g>
  <g
     id="g442"
     transform="translate(146.1039,4.4211001)">
    <rect
       id="rect440"
       fill="currentColor"
       ry="0.042100001"
       height="2.1833999"
       width="0.1228"
       y="-3.0395"
       x="-0.0614" />
  </g>
  <g
     id="g446"
     transform="translate(146.1653,1.4238001)">
    <path
       id="path444"
       fill="currentColor"
       d="m 0,0 c 0,-196 207,-334 207,-530 0,-71 -15,-140 -41,-206 -5,-10 -14,-13 -23,-13 -14,0 -28,10 -28,26 0,2 1,3 1,5 26,59 42,123 42,188 0,101 -90,205 -158,280 H -21 V 0 Z"
       transform="scale(0.0029,-0.0029)" />
  </g>
  <g
     id="g450"
     transform="translate(115.2648,3.3159001)">
    <path
       id="path448"
       fill="currentColor"
       d="m 208,139 c 61,0 117,-33 117,-99 0,-71 -52,-119 -99,-147 -34,-20 -71,-32 -110,-32 -61,0 -116,33 -116,99 0,71 51,119 98,147 34,20 71,32 110,32 z"
       transform="scale(0.0029,-0.0029)" />
  </g>
  <g
     id="g454"
     transform="translate(115.743,5.5264001)">
    <path
       id="path452"
       fill="currentColor"
       d="m 208,139 c 61,0 117,-33 117,-99 0,-71 -52,-119 -99,-147 -34,-20 -71,-32 -110,-32 -61,0 -116,33 -116,99 0,71 51,119 98,147 34,20 71,32 110,32 z"
       transform="scale(0.0029,-0.0029)" />
  </g>
  <g
     id="g458"
     transform="translate(115.2648,7.3685001)">
    <path
       id="path456"
       fill="currentColor"
       d="m 208,139 c 61,0 117,-33 117,-99 0,-71 -52,-119 -99,-147 -34,-20 -71,-32 -110,-32 -61,0 -116,33 -116,99 0,71 51,119 98,147 34,20 71,32 110,32 z"
       transform="scale(0.0029,-0.0029)" />
  </g>
  <g
     id="g462"
     transform="translate(116.1599,4.4211001)">
    <rect
       id="rect460"
       fill="currentColor"
       ry="0.042100001"
       height="1.9685"
       width="0.1228"
       y="-3.1930001"
       x="-0.0614" />
  </g>
  <g
     id="g466"
     transform="translate(116.6381,4.4211001)">
    <rect
       id="rect464"
       fill="currentColor"
       ry="0.042100001"
       height="2.4597001"
       width="0.1228"
       y="-1.4737"
       x="-0.0614" />
  </g>
  <g
     id="g470"
     transform="translate(115.3262,4.4211001)">
    <rect
       id="rect468"
       fill="currentColor"
       ry="0.042100001"
       height="1.7229"
       width="0.1228"
       y="3.0666001"
       x="-0.0614" />
  </g>
  <g
     id="g474"
     transform="translate(106.9589,7.0001001)">
    <path
       id="path472"
       fill="currentColor"
       d="m 208,139 c 61,0 117,-33 117,-99 0,-71 -52,-119 -99,-147 -34,-20 -71,-32 -110,-32 -61,0 -116,33 -116,99 0,71 51,119 98,147 34,20 71,32 110,32 z"
       transform="scale(0.0029,-0.0029)" />
  </g>
  <g
     id="g478"
     transform="translate(107.0202,4.4211001)">
    <rect
       id="rect476"
       fill="currentColor"
       ry="0.042100001"
       height="1.6992"
       width="0.1228"
       y="2.6982"
       x="-0.0614" />
  </g>
  <g
     id="g482"
     transform="translate(106.0194,7.0001001)">
    <path
       id="path480"
       fill="currentColor"
       d="m 33,35 -2,-60 v -11 c 0,-21 2,-43 5,-64 42,38 87,81 87,138 0,32 -13,63 -41,63 C 51,101 34,69 33,35 Z M 32,446 23,109 c 25,26 59,40 95,40 50,0 82,-51 82,-105 0,-77 -80,-117 -137,-169 -18,-17 -26,-48 -52,-48 -16,0 -28,15 -28,32 l -15,587 c 10,6 21,8 32,8 11,0 22,-2 32,-8 z"
       transform="scale(0.0029,-0.0029)" />
  </g>
  <g
     id="g486"
     transform="translate(110.3153,3.3159001)">
    <path
       id="path484"
       fill="currentColor"
       d="m 208,139 c 61,0 117,-33 117,-99 0,-71 -52,-119 -99,-147 -34,-20 -71,-32 -110,-32 -61,0 -116,33 -116,99 0,71 51,119 98,147 34,20 71,32 110,32 z"
       transform="scale(0.0029,-0.0029)" />
  </g>
  <g
     id="g490"
     transform="translate(110.3767,4.4211001)">
    <rect
       id="rect488"
       fill="currentColor"
       ry="0.042100001"
       height="4.0867"
       width="0.1228"
       y="-0.986"
       x="-0.0614" />
  </g>
  <g
     id="g494"
     transform="translate(109.3759,3.3159001)">
    <path
       id="path492"
       fill="currentColor"
       d="m 33,35 -2,-60 v -11 c 0,-21 2,-43 5,-64 42,38 87,81 87,138 0,32 -13,63 -41,63 C 51,101 34,69 33,35 Z M 32,446 23,109 c 25,26 59,40 95,40 50,0 82,-51 82,-105 0,-77 -80,-117 -137,-169 -18,-17 -26,-48 -52,-48 -16,0 -28,15 -28,32 l -15,587 c 10,6 21,8 32,8 11,0 22,-2 32,-8 z"
       transform="scale(0.0029,-0.0029)" />
  </g>
  <g
     id="g498"
     transform="translate(124.5372,7.3685001)">
    <path
       id="path496"
       fill="currentColor"
       d="m 208,139 c 61,0 117,-33 117,-99 0,-71 -52,-119 -99,-147 -34,-20 -71,-32 -110,-32 -61,0 -116,33 -116,99 0,71 51,119 98,147 34,20 71,32 110,32 z"
       transform="scale(0.0029,-0.0029)" />
  </g>
  <g
     id="g502"
     transform="translate(120.0421,4.4211001)">
    <rect
       id="rect500"
       fill="currentColor"
       ry="0.042100001"
       height="1.7229"
       width="0.1228"
       y="2.6982"
       x="-0.0614" />
  </g>
  <g
     id="g506"
     transform="translate(121.354,4.4211001)">
    <rect
       id="rect504"
       fill="currentColor"
       ry="0.042100001"
       height="2.4597001"
       width="0.1228"
       y="-1.4737"
       x="-0.0614" />
  </g>
  <g
     id="g510"
     transform="translate(124.5986,4.4211001)">
    <rect
       id="rect508"
       fill="currentColor"
       ry="0.042100001"
       height="1.6986001"
       width="0.1228"
       y="3.0666001"
       x="-0.0614" />
  </g>
  <g
     id="g514"
     transform="translate(128.1437,3.6843001)">
    <path
       id="path512"
       fill="currentColor"
       d="m 208,139 c 61,0 117,-33 117,-99 0,-71 -52,-119 -99,-147 -34,-20 -71,-32 -110,-32 -61,0 -116,33 -116,99 0,71 51,119 98,147 34,20 71,32 110,32 z"
       transform="scale(0.0029,-0.0029)" />
  </g>
  <g
     id="g518"
     transform="translate(128.2051,4.4211001)">
    <rect
       id="rect516"
       fill="currentColor"
       ry="0.042100001"
       height="3.9577"
       width="0.1228"
       y="-0.61760002"
       x="-0.0614" />
  </g>
  <g
     id="g522"
     transform="translate(114.3253,3.3159001)">
    <path
       id="path520"
       fill="currentColor"
       d="m 33,35 -2,-60 v -11 c 0,-21 2,-43 5,-64 42,38 87,81 87,138 0,32 -13,63 -41,63 C 51,101 34,69 33,35 Z M 32,446 23,109 c 25,26 59,40 95,40 50,0 82,-51 82,-105 0,-77 -80,-117 -137,-169 -18,-17 -26,-48 -52,-48 -16,0 -28,15 -28,32 l -15,587 c 10,6 21,8 32,8 11,0 22,-2 32,-8 z"
       transform="scale(0.0029,-0.0029)" />
  </g>
  <g
     id="g526"
     transform="translate(119.9807,3.6843001)">
    <path
       id="path524"
       fill="currentColor"
       d="m 208,139 c 61,0 117,-33 117,-99 0,-71 -52,-119 -99,-147 -34,-20 -71,-32 -110,-32 -61,0 -116,33 -116,99 0,71 51,119 98,147 34,20 71,32 110,32 z"
       transform="scale(0.0029,-0.0029)" />
  </g>
  <g
     id="g530"
     transform="translate(120.4589,5.5264001)">
    <path
       id="path528"
       fill="currentColor"
       d="m 208,139 c 61,0 117,-33 117,-99 0,-71 -52,-119 -99,-147 -34,-20 -71,-32 -110,-32 -61,0 -116,33 -116,99 0,71 51,119 98,147 34,20 71,32 110,32 z"
       transform="scale(0.0029,-0.0029)" />
  </g>
  <g
     id="g534"
     transform="translate(119.9807,7.0001001)">
    <path
       id="path532"
       fill="currentColor"
       d="m 208,139 c 61,0 117,-33 117,-99 0,-71 -52,-119 -99,-147 -34,-20 -71,-32 -110,-32 -61,0 -116,33 -116,99 0,71 51,119 98,147 34,20 71,32 110,32 z"
       transform="scale(0.0029,-0.0029)" />
  </g>
  <g
     id="g538"
     transform="translate(120.8758,4.4211001)">
    <rect
       id="rect536"
       fill="currentColor"
       ry="0.042100001"
       height="2.0913"
       width="0.1228"
       y="-2.9474001"
       x="-0.0614" />
  </g>
  <g
     id="g542"
     transform="translate(36.1198,4.4211001)">
    <rect
       id="rect540"
       fill="currentColor"
       ry="0.042100001"
       height="1.9685"
       width="0.1228"
       y="-3.1930001"
       x="-0.0614" />
  </g>
  <g
     id="g546"
     transform="translate(35.2247,3.3159001)">
    <path
       id="path544"
       fill="currentColor"
       d="m 208,139 c 61,0 117,-33 117,-99 0,-71 -52,-119 -99,-147 -34,-20 -71,-32 -110,-32 -61,0 -116,33 -116,99 0,71 51,119 98,147 34,20 71,32 110,32 z"
       transform="scale(0.0029,-0.0029)" />
  </g>
  <g
     id="g550"
     transform="translate(35.7029,4.4211001)">
    <path
       id="path548"
       fill="currentColor"
       d="m 208,139 c 61,0 117,-33 117,-99 0,-71 -52,-119 -99,-147 -34,-20 -71,-32 -110,-32 -61,0 -116,33 -116,99 0,71 51,119 98,147 34,20 71,32 110,32 z"
       transform="scale(0.0029,-0.0029)" />
  </g>
  <g
     id="g554"
     transform="translate(36.1812,5.1580001)">
    <path
       id="path552"
       fill="currentColor"
       d="m 208,139 c 61,0 117,-33 117,-99 0,-71 -52,-119 -99,-147 -34,-20 -71,-32 -110,-32 -61,0 -116,33 -116,99 0,71 51,119 98,147 34,20 71,32 110,32 z"
       transform="scale(0.0029,-0.0029)" />
  </g>
  <g
     id="g558"
     transform="translate(35.2247,6.2633001)">
    <path
       id="path556"
       fill="currentColor"
       d="m 208,139 c 61,0 117,-33 117,-99 0,-71 -52,-119 -99,-147 -34,-20 -71,-32 -110,-32 -61,0 -116,33 -116,99 0,71 51,119 98,147 34,20 71,32 110,32 z"
       transform="scale(0.0029,-0.0029)" />
  </g>
  <g
     id="g562"
     transform="translate(36.598,4.4211001)">
    <rect
       id="rect560"
       fill="currentColor"
       ry="0.042100001"
       height="2.3369"
       width="0.1228"
       y="-2.4561"
       x="-0.0614" />
  </g>
  <g
     id="g566"
     transform="translate(37.0763,4.4211001)">
    <rect
       id="rect564"
       fill="currentColor"
       ry="0.042100001"
       height="2.4597001"
       width="0.1228"
       y="-1.8421"
       x="-0.0614" />
  </g>
  <g
     id="g570"
     transform="translate(30.7724,4.4211001)">
    <rect
       id="rect568"
       fill="currentColor"
       ry="0.042100001"
       height="2.0913"
       width="0.1228"
       y="-2.2105"
       x="-0.0614" />
  </g>
  <g
     id="g574"
     transform="translate(27.7209,4.7896001)">
    <path
       id="path572"
       fill="currentColor"
       d="m 208,139 c 61,0 117,-33 117,-99 0,-71 -52,-119 -99,-147 -34,-20 -71,-32 -110,-32 -61,0 -116,33 -116,99 0,71 51,119 98,147 34,20 71,32 110,32 z"
       transform="scale(0.0029,-0.0029)" />
  </g>
  <g
     id="g578"
     transform="translate(28.616,4.4211001)">
    <rect
       id="rect576"
       fill="currentColor"
       ry="0.042100001"
       height="2.4597001"
       width="0.1228"
       y="-2.2105"
       x="-0.0614" />
  </g>
  <g
     id="g582"
     transform="translate(29.8773,4.4211001)">
    <path
       id="path580"
       fill="currentColor"
       d="m 208,139 c 61,0 117,-33 117,-99 0,-71 -52,-119 -99,-147 -34,-20 -71,-32 -110,-32 -61,0 -116,33 -116,99 0,71 51,119 98,147 34,20 71,32 110,32 z"
       transform="scale(0.0029,-0.0029)" />
  </g>
  <g
     id="g586"
     transform="translate(31.7838,5.1580001)">
    <path
       id="path584"
       fill="currentColor"
       d="m 208,139 c 61,0 117,-33 117,-99 0,-71 -52,-119 -99,-147 -34,-20 -71,-32 -110,-32 -61,0 -116,33 -116,99 0,71 51,119 98,147 34,20 71,32 110,32 z"
       transform="scale(0.0029,-0.0029)" />
  </g>
  <g
     id="g590"
     transform="translate(32.6789,4.4211001)">
    <rect
       id="rect588"
       fill="currentColor"
       ry="0.042100001"
       height="2.8281"
       width="0.1228"
       y="-2.2105"
       x="-0.0614" />
  </g>
  <g
     id="g594"
     transform="translate(40.1399,6.6317001)">
    <path
       id="path592"
       fill="currentColor"
       d="m 308,62 c 0,23 -20,39 -40,39 -4,0 -7,0 -11,-1 C 228,92 183,62 148,39 113,16 69,-13 49,-36 43,-44 39,-52 39,-62 c 0,-23 20,-39 40,-39 4,0 7,0 11,1 29,8 74,38 109,61 35,23 79,52 99,75 6,8 10,16 10,26 z M 0,-59 c 0,142 114,198 251,198 53,0 96,-22 96,-80 0,-142 -115,-198 -252,-198 -53,0 -95,22 -95,80 z"
       transform="scale(0.0029,-0.0029)" />
  </g>
  <g
     id="g598"
     transform="translate(43.0162,3.3159001)">
    <path
       id="path596"
       fill="currentColor"
       d="M 0,0 C 0,30 25,55 55,55 85,55 109,30 109,0 109,-30 85,-55 55,-55 25,-55 0,-30 0,0 Z"
       transform="scale(0.0029,-0.0029)" />
  </g>
  <g
     id="g602"
     transform="translate(41.035,4.4211001)">
    <rect
       id="rect600"
       fill="currentColor"
       ry="0.042100001"
       height="1.9685"
       width="0.1228"
       y="-3.1930001"
       x="-0.0614" />
  </g>
  <g
     id="g606"
     transform="translate(74.6596,4.4211001)">
    <rect
       id="rect604"
       fill="currentColor"
       ry="0.042100001"
       height="1.7229"
       width="0.1228"
       y="-3.6842"
       x="-0.0614" />
  </g>
  <g
     id="g610"
     transform="translate(41.6113,4.4211001)">
    <rect
       id="rect608"
       fill="currentColor"
       ry="0.042100001"
       height="2.4047"
       width="0.1228"
       y="-2.2105"
       x="-0.0614" />
  </g>
  <g
     id="g614"
     transform="translate(41.6727,5.1580001)">
    <path
       id="path612"
       fill="currentColor"
       d="m 308,62 c 0,23 -20,39 -40,39 -4,0 -7,0 -11,-1 C 228,92 183,62 148,39 113,16 69,-13 49,-36 43,-44 39,-52 39,-62 c 0,-23 20,-39 40,-39 4,0 7,0 11,1 29,8 74,38 109,61 35,23 79,52 99,75 6,8 10,16 10,26 z M 0,-59 c 0,142 114,198 251,198 53,0 96,-22 96,-80 0,-142 -115,-198 -252,-198 -53,0 -95,22 -95,80 z"
       transform="scale(0.0029,-0.0029)" />
  </g>
  <g
     id="g618"
     transform="translate(42.6332,4.4211001)">
    <rect
       id="rect616"
       fill="currentColor"
       ry="0.042100001"
       height="2.4047"
       width="0.1228"
       y="-1.8421"
       x="-0.0614" />
  </g>
  <g
     id="g622"
     transform="translate(40.2012,4.4211001)">
    <rect
       id="rect620"
       fill="currentColor"
       ry="0.042100001"
       height="1.6677999"
       width="0.1228"
       y="2.3848"
       x="-0.0614" />
  </g>
  <g
     id="g626"
     transform="translate(35.2861,4.4211001)">
    <rect
       id="rect624"
       fill="currentColor"
       ry="0.042100001"
       height="1.7229"
       width="0.1228"
       y="1.9613"
       x="-0.0614" />
  </g>
  <g
     id="g630"
     transform="translate(40.1399,3.3159001)">
    <path
       id="path628"
       fill="currentColor"
       d="m 208,139 c 61,0 117,-33 117,-99 0,-71 -52,-119 -99,-147 -34,-20 -71,-32 -110,-32 -61,0 -116,33 -116,99 0,71 51,119 98,147 34,20 71,32 110,32 z"
       transform="scale(0.0029,-0.0029)" />
  </g>
  <g
     id="g634"
     transform="translate(40.6508,4.7896001)">
    <path
       id="path632"
       fill="currentColor"
       d="m 308,62 c 0,23 -20,39 -40,39 -4,0 -7,0 -11,-1 C 228,92 183,62 148,39 113,16 69,-13 49,-36 43,-44 39,-52 39,-62 c 0,-23 20,-39 40,-39 4,0 7,0 11,1 29,8 74,38 109,61 35,23 79,52 99,75 6,8 10,16 10,26 z M 0,-59 c 0,142 114,198 251,198 53,0 96,-22 96,-80 0,-142 -115,-198 -252,-198 -53,0 -95,22 -95,80 z"
       transform="scale(0.0029,-0.0029)" />
  </g>
  <g
     id="g638"
     transform="translate(9.6584,5.8948001)">
    <path
       id="path636"
       fill="currentColor"
       d="m 208,139 c 61,0 117,-33 117,-99 0,-71 -52,-119 -99,-147 -34,-20 -71,-32 -110,-32 -61,0 -116,33 -116,99 0,71 51,119 98,147 34,20 71,32 110,32 z"
       transform="scale(0.0029,-0.0029)" />
  </g>
  <g
     id="g642"
     transform="translate(10.5535,4.4211001)">
    <rect
       id="rect640"
       fill="currentColor"
       ry="0.042100001"
       height="2.5102"
       width="0.1228"
       y="-1.1558"
       x="-0.0614" />
  </g>
  <g
     id="g646"
     transform="translate(11.8149,6.2633001)">
    <path
       id="path644"
       fill="currentColor"
       d="m 208,139 c 61,0 117,-33 117,-99 0,-71 -52,-119 -99,-147 -34,-20 -71,-32 -110,-32 -61,0 -116,33 -116,99 0,71 51,119 98,147 34,20 71,32 110,32 z"
       transform="scale(0.0029,-0.0029)" />
  </g>
  <g
     id="g650"
     transform="translate(12.71,4.4211001)">
    <rect
       id="rect648"
       fill="currentColor"
       ry="0.042100001"
       height="2.6956"
       width="0.1228"
       y="-0.9727"
       x="-0.0614" />
  </g>
  <g
     id="g654"
     transform="translate(14.5319,6.6317001)">
    <path
       id="path652"
       fill="currentColor"
       d="m 208,139 c 61,0 117,-33 117,-99 0,-71 -52,-119 -99,-147 -34,-20 -71,-32 -110,-32 -61,0 -116,33 -116,99 0,71 51,119 98,147 34,20 71,32 110,32 z"
       transform="scale(0.0029,-0.0029)" />
  </g>
  <g
     id="g658"
     transform="translate(15.427,4.4211001)">
    <rect
       id="rect656"
       fill="currentColor"
       ry="0.042100001"
       height="2.8334"
       width="0.1228"
       y="-0.7421"
       x="-0.0614" />
  </g>
  <g
     id="g662"
     transform="translate(0.8,5.1580001)">
    <path
       id="path660"
       fill="currentColor"
       d="m 381,266 h 9 c 157,0 258,-130 258,-264 0,-77 -33,-156 -108,-212 -22,-16 -46,-28 -71,-36 2,-32 3,-65 3,-97 0,-21 -1,-43 -2,-64 -7,-122 -91,-230 -211,-230 -108,0 -197,88 -197,197 0,58 54,104 113,104 54,0 95,-48 95,-104 0,-52 -43,-95 -95,-95 -8,0 -16,2 -24,4 25,-35 65,-59 111,-59 95,0 155,92 161,190 1,20 2,39 2,59 0,28 -1,55 -3,83 -29,-5 -57,-7 -87,-7 -189,0 -333,174 -333,377 0,176 128,307 242,443 -21,62 -41,124 -50,189 -7,52 -8,106 -8,159 0,113 54,219 146,286 8,6 21,7 29,0 72,-82 136,-244 136,-357 0,-141 -83,-253 -174,-362 22,-67 41,-135 58,-204 z m 83,-466 c 64,25 108,93 108,159 0,87 -62,173 -163,187 24,-113 43,-225 55,-346 z m -126,-18 c 27,0 54,2 80,6 C 405,-87 385,30 360,147 281,140 237,88 237,31 c 0,-43 24,-89 78,-120 5,-5 8,-11 8,-17 0,-13 -11,-24 -24,-24 -3,0 -7,0 -10,2 -81,44 -119,116 -119,187 0,90 60,178 164,201 -14,56 -30,112 -47,167 C 183,305 79,182 79,23 79,-109 206,-218 338,-218 Z M 239,782 c 0,-69 22,-127 41,-183 77,97 140,199 140,323 0,49 -3,69 -19,113 C 302,990 239,890 239,782 Z"
       transform="scale(0.0029,-0.0029)" />
  </g>
  <g
     id="g666"
     transform="translate(4.4125,4.4211001)">
    <path
       id="path664"
       fill="currentColor"
       d="m 33,35 -2,-60 v -11 c 0,-21 2,-43 5,-64 42,38 87,81 87,138 0,32 -13,63 -41,63 C 51,101 34,69 33,35 Z M 32,446 23,109 c 25,26 59,40 95,40 50,0 82,-51 82,-105 0,-77 -80,-117 -137,-169 -18,-17 -26,-48 -52,-48 -16,0 -28,15 -28,32 l -15,587 c 10,6 21,8 32,8 11,0 22,-2 32,-8 z"
       transform="scale(0.0029,-0.0029)" />
  </g>
  <g
     id="g670"
     transform="translate(7.5019,5.5264001)">
    <path
       id="path668"
       fill="currentColor"
       d="m 208,139 c 61,0 117,-33 117,-99 0,-71 -52,-119 -99,-147 -34,-20 -71,-32 -110,-32 -61,0 -116,33 -116,99 0,71 51,119 98,147 34,20 71,32 110,32 z"
       transform="scale(0.0029,-0.0029)" />
  </g>
  <g
     id="g674"
     transform="translate(8.397,4.4211001)">
    <rect
       id="rect672"
       fill="currentColor"
       ry="0.042100001"
       height="2.3248999"
       width="0.1228"
       y="-1.3388"
       x="-0.0614" />
  </g>
  <g
     id="g678"
     transform="translate(21.2514,5.1580001)">
    <path
       id="path676"
       fill="currentColor"
       d="m 208,139 c 61,0 117,-33 117,-99 0,-71 -52,-119 -99,-147 -34,-20 -71,-32 -110,-32 -61,0 -116,33 -116,99 0,71 51,119 98,147 34,20 71,32 110,32 z"
       transform="scale(0.0029,-0.0029)" />
  </g>
  <g
     id="g682"
     transform="translate(22.1465,4.4211001)">
    <rect
       id="rect680"
       fill="currentColor"
       ry="0.042100001"
       height="2.4597001"
       width="0.1228"
       y="-1.8421"
       x="-0.0614" />
  </g>
  <g
     id="g686"
     transform="translate(23.4079,4.7896001)">
    <path
       id="path684"
       fill="currentColor"
       d="m 208,139 c 61,0 117,-33 117,-99 0,-71 -52,-119 -99,-147 -34,-20 -71,-32 -110,-32 -61,0 -116,33 -116,99 0,71 51,119 98,147 34,20 71,32 110,32 z"
       transform="scale(0.0029,-0.0029)" />
  </g>
  <g
     id="g690"
     transform="translate(24.303,4.4211001)">
    <rect
       id="rect688"
       fill="currentColor"
       ry="0.042100001"
       height="2.3234999"
       width="0.1228"
       y="-2.0743001"
       x="-0.0614" />
  </g>
  <g
     id="g694"
     transform="translate(25.5644,4.4211001)">
    <path
       id="path692"
       fill="currentColor"
       d="m 208,139 c 61,0 117,-33 117,-99 0,-71 -52,-119 -99,-147 -34,-20 -71,-32 -110,-32 -61,0 -116,33 -116,99 0,71 51,119 98,147 34,20 71,32 110,32 z"
       transform="scale(0.0029,-0.0029)" />
  </g>
  <g
     id="g698"
     transform="translate(26.4595,4.4211001)">
    <rect
       id="rect696"
       fill="currentColor"
       ry="0.042100001"
       height="2.0913"
       width="0.1228"
       y="-2.2105"
       x="-0.0614" />
  </g>
  <g
     id="g702"
     transform="translate(13.3714,6.6317001)">
    <path
       id="path700"
       fill="currentColor"
       d="m 0,114 c 0,12 7,22 18,26 l 37,15 v 151 c 0,12 10,22 22,22 12,0 22,-10 22,-22 V 172 l 77,29 v 152 c 0,12 10,22 22,22 12,0 22,-10 22,-22 V 219 l 16,6 c 3,1 8,2 11,2 15,0 28,-12 28,-28 v -50 c 0,-12 -7,-23 -18,-27 L 220,108 V -44 l 16,7 c 3,1 8,2 11,2 15,0 28,-13 28,-29 v -50 c 0,-12 -7,-22 -18,-26 l -37,-15 v -151 c 0,-12 -10,-22 -22,-22 -12,0 -22,10 -22,22 v 134 l -77,-29 v -152 c 0,-12 -10,-22 -22,-22 -12,0 -22,10 -22,22 v 134 l -16,-6 c -3,-1 -8,-2 -11,-2 -15,0 -28,12 -28,28 v 50 c 0,12 7,23 18,27 l 37,14 V 44 L 39,37 C 36,36 31,35 28,35 13,35 0,48 0,64 Z M 176,91 99,61 V -91 l 77,30 z"
       transform="scale(0.0029,-0.0029)" />
  </g>
  <g
     id="g706"
     transform="translate(16.6884,6.2633001)">
    <path
       id="path704"
       fill="currentColor"
       d="m 208,139 c 61,0 117,-33 117,-99 0,-71 -52,-119 -99,-147 -34,-20 -71,-32 -110,-32 -61,0 -116,33 -116,99 0,71 51,119 98,147 34,20 71,32 110,32 z"
       transform="scale(0.0029,-0.0029)" />
  </g>
  <g
     id="g710"
     transform="translate(17.5835,4.4211001)">
    <rect
       id="rect708"
       fill="currentColor"
       ry="0.042100001"
       height="3.0734999"
       width="0.1228"
       y="-1.3507"
       x="-0.0614" />
  </g>
  <g
     id="g714"
     transform="translate(19.0949,5.5264001)">
    <path
       id="path712"
       fill="currentColor"
       d="m 208,139 c 61,0 117,-33 117,-99 0,-71 -52,-119 -99,-147 -34,-20 -71,-32 -110,-32 -61,0 -116,33 -116,99 0,71 51,119 98,147 34,20 71,32 110,32 z"
       transform="scale(0.0029,-0.0029)" />
  </g>
  <g
     id="g718"
     transform="translate(19.99,4.4211001)">
    <rect
       id="rect716"
       fill="currentColor"
       ry="0.042100001"
       height="2.5959001"
       width="0.1228"
       y="-1.6098"
       x="-0.0614" />
  </g>
  <g
     id="g722"
     transform="translate(64.8918,4.4211001)">
    <rect
       id="rect720"
       fill="currentColor"
       ry="0.042100001"
       height="1.7229"
       width="0.1228"
       y="-4.4211001"
       x="-0.0614" />
  </g>
  <g
     id="g726"
     transform="translate(65.37,4.4211001)">
    <rect
       id="rect724"
       fill="currentColor"
       ry="0.042100001"
       height="2.0913"
       width="0.1228"
       y="-2.9474001"
       x="-0.0614" />
  </g>
  <g
     id="g730"
     transform="translate(63.9967,7.7369001)">
    <path
       id="path728"
       fill="currentColor"
       d="m 208,139 c 61,0 117,-33 117,-99 0,-71 -52,-119 -99,-147 -34,-20 -71,-32 -110,-32 -61,0 -116,33 -116,99 0,71 51,119 98,147 34,20 71,32 110,32 z"
       transform="scale(0.0029,-0.0029)" />
  </g>
  <g
     id="g734"
     transform="translate(65.8483,4.4211001)">
    <rect
       id="rect732"
       fill="currentColor"
       ry="0.042100001"
       height="2.4597001"
       width="0.1228"
       y="-1.8421"
       x="-0.0614" />
  </g>
  <g
     id="g738"
     transform="translate(64.0581,4.4211001)">
    <rect
       id="rect736"
       fill="currentColor"
       ry="0.042100001"
       height="1.7229"
       width="0.1228"
       y="3.4349999"
       x="-0.0614" />
  </g>
  <g
     id="g742"
     transform="translate(60.4559,4.4211001)">
    <rect
       id="rect740"
       fill="currentColor"
       ry="0.042100001"
       height="2.1833999"
       width="0.1228"
       y="-3.0395"
       x="-0.0614" />
  </g>
  <g
     id="g746"
     transform="translate(54.3637,4.4211001)">
    <rect
       id="rect744"
       fill="currentColor"
       ry="0.042100001"
       height="1.6677999"
       width="0.1228"
       y="2.7532001"
       x="-0.0614" />
  </g>
  <g
     id="g750"
     transform="translate(59.5608,3.6843001)">
    <path
       id="path748"
       fill="currentColor"
       d="m 208,139 c 61,0 117,-33 117,-99 0,-71 -52,-119 -99,-147 -34,-20 -71,-32 -110,-32 -61,0 -116,33 -116,99 0,71 51,119 98,147 34,20 71,32 110,32 z"
       transform="scale(0.0029,-0.0029)" />
  </g>
  <g
     id="g754"
     transform="translate(60.5173,1.4238001)">
    <path
       id="path752"
       fill="currentColor"
       d="m 0,0 c 0,-196 207,-334 207,-530 0,-71 -15,-140 -41,-206 -5,-10 -14,-13 -23,-13 -14,0 -28,10 -28,26 0,2 1,3 1,5 26,59 42,123 42,188 0,101 -90,205 -158,280 H -21 V 0 Z"
       transform="scale(0.0029,-0.0029)" />
  </g>
  <g
     id="g758"
     transform="translate(63.9967,1.8422001)">
    <path
       id="path756"
       fill="currentColor"
       d="m 208,139 c 61,0 117,-33 117,-99 0,-71 -52,-119 -99,-147 -34,-20 -71,-32 -110,-32 -61,0 -116,33 -116,99 0,71 51,119 98,147 34,20 71,32 110,32 z"
       transform="scale(0.0029,-0.0029)" />
  </g>
  <g
     id="g762"
     transform="translate(64.4749,3.6843001)">
    <path
       id="path760"
       fill="currentColor"
       d="m 208,139 c 61,0 117,-33 117,-99 0,-71 -52,-119 -99,-147 -34,-20 -71,-32 -110,-32 -61,0 -116,33 -116,99 0,71 51,119 98,147 34,20 71,32 110,32 z"
       transform="scale(0.0029,-0.0029)" />
  </g>
  <g
     id="g766"
     transform="translate(64.9532,5.1580001)">
    <path
       id="path764"
       fill="currentColor"
       d="m 208,139 c 61,0 117,-33 117,-99 0,-71 -52,-119 -99,-147 -34,-20 -71,-32 -110,-32 -61,0 -116,33 -116,99 0,71 51,119 98,147 34,20 71,32 110,32 z"
       transform="scale(0.0029,-0.0029)" />
  </g>
  <g
     id="g770"
     transform="translate(70.7009,4.4211001)">
    <rect
       id="rect768"
       fill="currentColor"
       ry="0.042100001"
       height="2.4597001"
       width="0.1228"
       y="-1.4737"
       x="-0.0614" />
  </g>
  <g
     id="g774"
     transform="translate(68.9107,4.4211001)">
    <rect
       id="rect772"
       fill="currentColor"
       ry="0.042100001"
       height="1.7229"
       width="0.1228"
       y="3.0666001"
       x="-0.0614" />
  </g>
  <g
     id="g778"
     transform="translate(70.2227,4.4211001)">
    <rect
       id="rect776"
       fill="currentColor"
       ry="0.042100001"
       height="2.0913"
       width="0.1228"
       y="-2.9474001"
       x="-0.0614" />
  </g>
  <g
     id="g782"
     transform="translate(73.7645,2.5790001)">
    <path
       id="path780"
       fill="currentColor"
       d="m 208,139 c 61,0 117,-33 117,-99 0,-71 -52,-119 -99,-147 -34,-20 -71,-32 -110,-32 -61,0 -116,33 -116,99 0,71 51,119 98,147 34,20 71,32 110,32 z"
       transform="scale(0.0029,-0.0029)" />
  </g>
  <g
     id="g786"
     transform="translate(74.2428,4.0527001)">
    <path
       id="path784"
       fill="currentColor"
       d="m 208,139 c 61,0 117,-33 117,-99 0,-71 -52,-119 -99,-147 -34,-20 -71,-32 -110,-32 -61,0 -116,33 -116,99 0,71 51,119 98,147 34,20 71,32 110,32 z"
       transform="scale(0.0029,-0.0029)" />
  </g>
  <g
     id="g790"
     transform="translate(74.721,5.8948001)">
    <path
       id="path788"
       fill="currentColor"
       d="m 208,139 c 61,0 117,-33 117,-99 0,-71 -52,-119 -99,-147 -34,-20 -71,-32 -110,-32 -61,0 -116,33 -116,99 0,71 51,119 98,147 34,20 71,32 110,32 z"
       transform="scale(0.0029,-0.0029)" />
  </g>
  <g
     id="g794"
     transform="translate(73.7645,7.3685001)">
    <path
       id="path792"
       fill="currentColor"
       d="m 208,139 c 61,0 117,-33 117,-99 0,-71 -52,-119 -99,-147 -34,-20 -71,-32 -110,-32 -61,0 -116,33 -116,99 0,71 51,119 98,147 34,20 71,32 110,32 z"
       transform="scale(0.0029,-0.0029)" />
  </g>
  <g
     id="g798"
     transform="translate(68.8494,2.2106001)">
    <path
       id="path796"
       fill="currentColor"
       d="m 208,139 c 61,0 117,-33 117,-99 0,-71 -52,-119 -99,-147 -34,-20 -71,-32 -110,-32 -61,0 -116,33 -116,99 0,71 51,119 98,147 34,20 71,32 110,32 z"
       transform="scale(0.0029,-0.0029)" />
  </g>
  <g
     id="g802"
     transform="translate(69.3276,3.6843001)">
    <path
       id="path800"
       fill="currentColor"
       d="m 208,139 c 61,0 117,-33 117,-99 0,-71 -52,-119 -99,-147 -34,-20 -71,-32 -110,-32 -61,0 -116,33 -116,99 0,71 51,119 98,147 34,20 71,32 110,32 z"
       transform="scale(0.0029,-0.0029)" />
  </g>
  <g
     id="g806"
     transform="translate(69.8058,5.5264001)">
    <path
       id="path804"
       fill="currentColor"
       d="m 208,139 c 61,0 117,-33 117,-99 0,-71 -52,-119 -99,-147 -34,-20 -71,-32 -110,-32 -61,0 -116,33 -116,99 0,71 51,119 98,147 34,20 71,32 110,32 z"
       transform="scale(0.0029,-0.0029)" />
  </g>
  <g
     id="g810"
     transform="translate(68.8494,7.3685001)">
    <path
       id="path808"
       fill="currentColor"
       d="m 208,139 c 61,0 117,-33 117,-99 0,-71 -52,-119 -99,-147 -34,-20 -71,-32 -110,-32 -61,0 -116,33 -116,99 0,71 51,119 98,147 34,20 71,32 110,32 z"
       transform="scale(0.0029,-0.0029)" />
  </g>
  <g
     id="g814"
     transform="translate(69.7445,4.4211001)">
    <rect
       id="rect812"
       fill="currentColor"
       ry="0.042100001"
       height="1.7229"
       width="0.1228"
       y="-4.0525999"
       x="-0.0614" />
  </g>
  <g
     id="g818"
     transform="translate(51.2098,4.4211001)">
    <rect
       id="rect816"
       fill="currentColor"
       ry="0.042100001"
       height="2.4597001"
       width="0.1228"
       y="-2.2105"
       x="-0.0614" />
  </g>
  <g
     id="g822"
     transform="translate(51.688,4.4211001)">
    <rect
       id="rect820"
       fill="currentColor"
       ry="0.042100001"
       height="2.4597001"
       width="0.1228"
       y="-1.4737"
       x="-0.0614" />
  </g>
  <g
     id="g826"
     transform="translate(50.7315,4.4211001)">
    <rect
       id="rect824"
       fill="currentColor"
       ry="0.042100001"
       height="1.8457"
       width="0.1228"
       y="-3.4386001"
       x="-0.0614" />
  </g>
  <g
     id="g830"
     transform="translate(49.8978,4.4211001)">
    <rect
       id="rect828"
       fill="currentColor"
       ry="0.042100001"
       height="1.7229"
       width="0.1228"
       y="1.9613"
       x="-0.0614" />
  </g>
  <g
     id="g834"
     transform="translate(46.3548,1.1475001)">
    <path
       id="path832"
       fill="currentColor"
       d="m 0,0 c 0,-196 207,-334 207,-530 0,-71 -15,-140 -41,-206 -5,-10 -14,-13 -23,-13 -14,0 -28,10 -28,26 0,2 1,3 1,5 26,59 42,123 42,188 0,101 -90,205 -158,280 H -21 V 0 Z"
       transform="scale(0.0029,-0.0029)" />
  </g>
  <g
     id="g838"
     transform="translate(38.9793,6.6317001)">
    <path
       id="path836"
       fill="currentColor"
       d="m 0,114 c 0,12 7,22 18,26 l 37,15 v 151 c 0,12 10,22 22,22 12,0 22,-10 22,-22 V 172 l 77,29 v 152 c 0,12 10,22 22,22 12,0 22,-10 22,-22 V 219 l 16,6 c 3,1 8,2 11,2 15,0 28,-12 28,-28 v -50 c 0,-12 -7,-23 -18,-27 L 220,108 V -44 l 16,7 c 3,1 8,2 11,2 15,0 28,-13 28,-29 v -50 c 0,-12 -7,-22 -18,-26 l -37,-15 v -151 c 0,-12 -10,-22 -22,-22 -12,0 -22,10 -22,22 v 134 l -77,-29 v -152 c 0,-12 -10,-22 -22,-22 -12,0 -22,10 -22,22 v 134 l -16,-6 c -3,-1 -8,-2 -11,-2 -15,0 -28,12 -28,28 v 50 c 0,12 7,23 18,27 l 37,14 V 44 L 39,37 C 36,36 31,35 28,35 13,35 0,48 0,64 Z M 176,91 99,61 V -91 l 77,30 z"
       transform="scale(0.0029,-0.0029)" />
  </g>
  <g
     id="g842"
     transform="translate(45.3983,3.3159001)">
    <path
       id="path840"
       fill="currentColor"
       d="m 208,139 c 61,0 117,-33 117,-99 0,-71 -52,-119 -99,-147 -34,-20 -71,-32 -110,-32 -61,0 -116,33 -116,99 0,71 51,119 98,147 34,20 71,32 110,32 z"
       transform="scale(0.0029,-0.0029)" />
  </g>
  <g
     id="g846"
     transform="translate(46.2934,4.4211001)">
    <rect
       id="rect844"
       fill="currentColor"
       ry="0.042100001"
       height="2.0913"
       width="0.1228"
       y="-3.3158"
       x="-0.0614" />
  </g>
  <g
     id="g850"
     transform="translate(49.8364,2.9475001)">
    <path
       id="path848"
       fill="currentColor"
       d="m 208,139 c 61,0 117,-33 117,-99 0,-71 -52,-119 -99,-147 -34,-20 -71,-32 -110,-32 -61,0 -116,33 -116,99 0,71 51,119 98,147 34,20 71,32 110,32 z"
       transform="scale(0.0029,-0.0029)" />
  </g>
  <g
     id="g854"
     transform="translate(50.3147,4.7896001)">
    <path
       id="path852"
       fill="currentColor"
       d="m 208,139 c 61,0 117,-33 117,-99 0,-71 -52,-119 -99,-147 -34,-20 -71,-32 -110,-32 -61,0 -116,33 -116,99 0,71 51,119 98,147 34,20 71,32 110,32 z"
       transform="scale(0.0029,-0.0029)" />
  </g>
  <g
     id="g858"
     transform="translate(50.7929,5.5264001)">
    <path
       id="path856"
       fill="currentColor"
       d="m 208,139 c 61,0 117,-33 117,-99 0,-71 -52,-119 -99,-147 -34,-20 -71,-32 -110,-32 -61,0 -116,33 -116,99 0,71 51,119 98,147 34,20 71,32 110,32 z"
       transform="scale(0.0029,-0.0029)" />
  </g>
  <g
     id="g862"
     transform="translate(49.8364,6.2633001)">
    <path
       id="path860"
       fill="currentColor"
       d="m 208,139 c 61,0 117,-33 117,-99 0,-71 -52,-119 -99,-147 -34,-20 -71,-32 -110,-32 -61,0 -116,33 -116,99 0,71 51,119 98,147 34,20 71,32 110,32 z"
       transform="scale(0.0029,-0.0029)" />
  </g>
  <g
     id="g866"
     transform="translate(55.7738,4.4211001)">
    <rect
       id="rect864"
       fill="currentColor"
       ry="0.042100001"
       height="2.4047"
       width="0.1228"
       y="-1.4737"
       x="-0.0614" />
  </g>
  <g
     id="g870"
     transform="translate(55.1974,4.4211001)">
    <rect
       id="rect868"
       fill="currentColor"
       ry="0.042100001"
       height="2.0913"
       width="0.1228"
       y="-2.9474001"
       x="-0.0614" />
  </g>
  <g
     id="g874"
     transform="translate(56.1567,3.3159001)">
    <path
       id="path872"
       fill="currentColor"
       d="M 0,0 C 0,30 25,55 55,55 85,55 109,30 109,0 109,-30 85,-55 55,-55 25,-55 0,-30 0,0 Z"
       transform="scale(0.0029,-0.0029)" />
  </g>
  <g
     id="g878"
     transform="translate(54.3023,7.0001001)">
    <path
       id="path876"
       fill="currentColor"
       d="m 308,62 c 0,23 -20,39 -40,39 -4,0 -7,0 -11,-1 C 228,92 183,62 148,39 113,16 69,-13 49,-36 43,-44 39,-52 39,-62 c 0,-23 20,-39 40,-39 4,0 7,0 11,1 29,8 74,38 109,61 35,23 79,52 99,75 6,8 10,16 10,26 z M 0,-59 c 0,142 114,198 251,198 53,0 96,-22 96,-80 0,-142 -115,-198 -252,-198 -53,0 -95,22 -95,80 z"
       transform="scale(0.0029,-0.0029)" />
  </g>
  <g
     id="g882"
     transform="translate(54.8133,5.5264001)">
    <path
       id="path880"
       fill="currentColor"
       d="m 308,62 c 0,23 -20,39 -40,39 -4,0 -7,0 -11,-1 C 228,92 183,62 148,39 113,16 69,-13 49,-36 43,-44 39,-52 39,-62 c 0,-23 20,-39 40,-39 4,0 7,0 11,1 29,8 74,38 109,61 35,23 79,52 99,75 6,8 10,16 10,26 z M 0,-59 c 0,142 114,198 251,198 53,0 96,-22 96,-80 0,-142 -115,-198 -252,-198 -53,0 -95,22 -95,80 z"
       transform="scale(0.0029,-0.0029)" />
  </g>
  <g
     id="g886"
     transform="translate(54.3023,3.6843001)">
    <path
       id="path884"
       fill="currentColor"
       d="m 208,139 c 61,0 117,-33 117,-99 0,-71 -52,-119 -99,-147 -34,-20 -71,-32 -110,-32 -61,0 -116,33 -116,99 0,71 51,119 98,147 34,20 71,32 110,32 z"
       transform="scale(0.0029,-0.0029)" />
  </g>
</svg>
