<?xml version="1.0" encoding="UTF-8" standalone="no"?>
<svg
   xmlns:dc="http://purl.org/dc/elements/1.1/"
   xmlns:cc="http://creativecommons.org/ns#"
   xmlns:rdf="http://www.w3.org/1999/02/22-rdf-syntax-ns#"
   xmlns:svg="http://www.w3.org/2000/svg"
   xmlns="http://www.w3.org/2000/svg"
   xmlns:sodipodi="http://sodipodi.sourceforge.net/DTD/sodipodi-0.dtd"
   xmlns:inkscape="http://www.inkscape.org/namespaces/inkscape"
   sodipodi:docname="bwv-1004_5_for_PNGs-6.svg"
   id="svg1248"
   viewBox="0 0 231.92718 9.1989844"
   height="15.357096mm"
   width="387.18713mm"
   version="1.2">
  <metadata
     id="metadata1254">
    <rdf:RDF>
      <cc:Work
         rdf:about="">
        <dc:format>image/svg+xml</dc:format>
        <dc:type
           rdf:resource="http://purl.org/dc/dcmitype/StillImage" />
      </cc:Work>
    </rdf:RDF>
  </metadata>
  <defs
     id="defs1252" />
  <sodipodi:namedview
     id="namedview1250"
     inkscape:window-height="480"
     inkscape:window-width="640"
     inkscape:pageshadow="2"
     inkscape:pageopacity="0"
     guidetolerance="10"
     gridtolerance="10"
     objecttolerance="10"
     borderopacity="1"
     bordercolor="#666666"
     pagecolor="#ffffff" />
  <style
     id="style2"
     type="text/css"><![CDATA[
tspan { white-space: pre; }
]]></style>
  <g
     id="g6"
     transform="translate(62.6974,4.7956836)">
    <rect
       id="rect4"
       fill="currentColor"
       ry="0.0000"
       height="2.9474001"
       width="0.1794"
       y="-1.4737"
       x="0" />
  </g>
  <g
     id="g10"
     transform="translate(174.8683,4.7956836)">
    <rect
       id="rect8"
       fill="currentColor"
       ry="0.0000"
       height="2.9474001"
       width="0.1794"
       y="-1.4737"
       x="0" />
  </g>
  <g
     id="g14"
     transform="translate(231.7478,4.7956836)">
    <rect
       id="rect12"
       fill="currentColor"
       ry="0.0000"
       height="2.9474001"
       width="0.1794"
       y="-1.4737"
       x="0" />
  </g>
  <g
     id="g18"
     transform="translate(90.3685,4.7956836)">
    <rect
       id="rect16"
       fill="currentColor"
       ry="0.0000"
       height="2.9474001"
       width="0.1794"
       y="-1.4737"
       x="0" />
  </g>
  <g
     id="g22"
     transform="translate(146.3055,4.7956836)">
    <rect
       id="rect20"
       fill="currentColor"
       ry="0.0000"
       height="2.9474001"
       width="0.1794"
       y="-1.4737"
       x="0" />
  </g>
  <g
     id="g26"
     transform="translate(202.5531,4.7956836)">
    <rect
       id="rect24"
       fill="currentColor"
       ry="0.0000"
       height="2.9474001"
       width="0.1794"
       y="-1.4737"
       x="0" />
  </g>
  <g
     id="g30"
     transform="translate(118.5319,4.7956836)">
    <rect
       id="rect28"
       fill="currentColor"
       ry="0.0000"
       height="2.9474001"
       width="0.1794"
       y="-1.4737"
       x="0" />
  </g>
  <g
     id="g34"
     transform="translate(33.9462,4.7956836)">
    <rect
       id="rect32"
       fill="currentColor"
       ry="0.0000"
       height="2.9474001"
       width="0.1794"
       y="-1.4737"
       x="0" />
  </g>
  <g
     id="g38"
     transform="translate(0,7.0062836)">
    <rect
       id="rect36"
       fill="currentColor"
       ry="0.084100001"
       height="0.1681"
       width="1.4347"
       y="-0.084100001"
       x="229.1022" />
  </g>
  <g
     id="g42"
     transform="translate(0,7.0062836)">
    <rect
       id="rect40"
       fill="currentColor"
       ry="0.084100001"
       height="0.1681"
       width="1.4347"
       y="-0.084100001"
       x="222.6328" />
  </g>
  <g
     id="g46"
     transform="translate(0,7.7430836)">
    <rect
       id="rect44"
       fill="currentColor"
       ry="0.084100001"
       height="0.1681"
       width="1.4347"
       y="-0.084100001"
       x="222.6328" />
  </g>
  <g
     id="g50"
     transform="translate(0,7.0062836)">
    <rect
       id="rect48"
       fill="currentColor"
       ry="0.084100001"
       height="0.1681"
       width="1.4347"
       y="-0.084100001"
       x="220.4763" />
  </g>
  <g
     id="g54"
     transform="translate(0,7.7430836)">
    <rect
       id="rect52"
       fill="currentColor"
       ry="0.084100001"
       height="0.1681"
       width="1.3706"
       y="-0.084100001"
       x="220.54041" />
  </g>
  <g
     id="g58"
     transform="translate(0,7.0062836)">
    <rect
       id="rect56"
       fill="currentColor"
       ry="0.084100001"
       height="0.1681"
       width="1.3706"
       y="-0.084100001"
       x="215.6669" />
  </g>
  <g
     id="g62"
     transform="translate(0,7.0062836)">
    <rect
       id="rect60"
       fill="currentColor"
       ry="0.084100001"
       height="0.1681"
       width="1.4347"
       y="-0.084100001"
       x="184.33459" />
  </g>
  <g
     id="g66"
     transform="translate(0,7.0062836)">
    <rect
       id="rect64"
       fill="currentColor"
       ry="0.084100001"
       height="0.1681"
       width="1.4347"
       y="-0.084100001"
       x="181.9281" />
  </g>
  <g
     id="g70"
     transform="translate(0,7.0062836)">
    <rect
       id="rect68"
       fill="currentColor"
       ry="0.084100001"
       height="0.1681"
       width="1.4347"
       y="-0.084100001"
       x="179.77161" />
  </g>
  <g
     id="g74"
     transform="translate(0,7.7430836)">
    <rect
       id="rect72"
       fill="currentColor"
       ry="0.084100001"
       height="0.1681"
       width="1.4347"
       y="-0.084100001"
       x="179.77161" />
  </g>
  <g
     id="g78"
     transform="translate(0,7.0062836)">
    <rect
       id="rect76"
       fill="currentColor"
       ry="0.084100001"
       height="0.1681"
       width="1.4347"
       y="-0.084100001"
       x="177.6151" />
  </g>
  <g
     id="g82"
     transform="translate(0,7.7430836)">
    <rect
       id="rect80"
       fill="currentColor"
       ry="0.084100001"
       height="0.1681"
       width="1.4347"
       y="-0.084100001"
       x="177.6151" />
  </g>
  <g
     id="g86"
     transform="translate(0,7.0062836)">
    <rect
       id="rect84"
       fill="currentColor"
       ry="0.084100001"
       height="0.1681"
       width="1.4347"
       y="-0.084100001"
       x="175.7086" />
  </g>
  <g
     id="g90"
     transform="translate(0,7.0062836)">
    <rect
       id="rect88"
       fill="currentColor"
       ry="0.084100001"
       height="0.1681"
       width="1.4347"
       y="-0.084100001"
       x="172.2941" />
  </g>
  <g
     id="g94"
     transform="translate(0,7.7430836)">
    <rect
       id="rect92"
       fill="currentColor"
       ry="0.084100001"
       height="0.1681"
       width="1.4347"
       y="-0.084100001"
       x="172.2941" />
  </g>
  <g
     id="g98"
     transform="translate(0,7.0062836)">
    <rect
       id="rect96"
       fill="currentColor"
       ry="0.084100001"
       height="0.1681"
       width="1.4347"
       y="-0.084100001"
       x="170.3876" />
  </g>
  <g
     id="g102"
     transform="translate(0,7.0062836)">
    <rect
       id="rect100"
       fill="currentColor"
       ry="0.084100001"
       height="0.1681"
       width="1.4347"
       y="-0.084100001"
       x="167.98109" />
  </g>
  <g
     id="g106"
     transform="translate(0,7.0062836)">
    <rect
       id="rect104"
       fill="currentColor"
       ry="0.084100001"
       height="0.1681"
       width="1.3779"
       y="-0.084100001"
       x="166.1315" />
  </g>
  <g
     id="g110"
     transform="translate(0,7.0062836)">
    <rect
       id="rect108"
       fill="currentColor"
       ry="0.084100001"
       height="0.1681"
       width="1.3706"
       y="-0.084100001"
       x="148.0705" />
  </g>
  <g
     id="g114"
     transform="translate(0,7.0062836)">
    <rect
       id="rect112"
       fill="currentColor"
       ry="0.084100001"
       height="0.1681"
       width="1.4347"
       y="-0.084100001"
       x="109.0712" />
  </g>
  <g
     id="g118"
     transform="translate(0,7.7430836)">
    <rect
       id="rect116"
       fill="currentColor"
       ry="0.084100001"
       height="0.1681"
       width="1.4347"
       y="-0.084100001"
       x="109.0712" />
  </g>
  <g
     id="g122"
     transform="translate(0,7.0062836)">
    <rect
       id="rect120"
       fill="currentColor"
       ry="0.084100001"
       height="0.1681"
       width="1.4347"
       y="-0.084100001"
       x="80.7416" />
  </g>
  <g
     id="g126"
     transform="translate(0,7.7430836)">
    <rect
       id="rect124"
       fill="currentColor"
       ry="0.084100001"
       height="0.1681"
       width="1.4347"
       y="-0.084100001"
       x="80.7416" />
  </g>
  <g
     id="g130"
     transform="translate(0,7.0062836)">
    <rect
       id="rect128"
       fill="currentColor"
       ry="0.084100001"
       height="0.1681"
       width="1.4347"
       y="-0.084100001"
       x="78.585098" />
  </g>
  <g
     id="g134"
     transform="translate(0,7.7430836)">
    <rect
       id="rect132"
       fill="currentColor"
       ry="0.084100001"
       height="0.1681"
       width="1.4347"
       y="-0.084100001"
       x="78.585098" />
  </g>
  <g
     id="g138"
     transform="translate(0,7.0062836)">
    <rect
       id="rect136"
       fill="currentColor"
       ry="0.084100001"
       height="0.1681"
       width="1.4347"
       y="-0.084100001"
       x="76.428596" />
  </g>
  <g
     id="g142"
     transform="translate(0,7.0062836)">
    <rect
       id="rect140"
       fill="currentColor"
       ry="0.084100001"
       height="0.1681"
       width="1.4347"
       y="-0.084100001"
       x="74.522102" />
  </g>
  <g
     id="g146"
     transform="translate(0,7.0062836)">
    <rect
       id="rect144"
       fill="currentColor"
       ry="0.084100001"
       height="0.1681"
       width="1.4347"
       y="-0.084100001"
       x="34.786499" />
  </g>
  <g
     id="g150"
     transform="translate(0,7.7430836)">
    <rect
       id="rect148"
       fill="currentColor"
       ry="0.084100001"
       height="0.1681"
       width="1.4347"
       y="-0.084100001"
       x="34.786499" />
  </g>
  <g
     id="g154"
     transform="translate(0,6.2693836)">
    <line
       id="line152"
       y2="0"
       x2="231.88"
       y1="0"
       x1="0.047200002"
       stroke="currentColor"
       stroke-width="0.0944"
       stroke-linecap="round"
       stroke-linejoin="round" />
  </g>
  <g
     id="g158"
     transform="translate(0,5.5325836)">
    <line
       id="line156"
       y2="0"
       x2="231.88"
       y1="0"
       x1="0.047200002"
       stroke="currentColor"
       stroke-width="0.0944"
       stroke-linecap="round"
       stroke-linejoin="round" />
  </g>
  <g
     id="g162"
     transform="translate(0,4.7956836)">
    <line
       id="line160"
       y2="0"
       x2="231.88"
       y1="0"
       x1="0.047200002"
       stroke="currentColor"
       stroke-width="0.0944"
       stroke-linecap="round"
       stroke-linejoin="round" />
  </g>
  <g
     id="g166"
     transform="translate(0,4.0588836)">
    <line
       id="line164"
       y2="0"
       x2="231.88"
       y1="0"
       x1="0.047200002"
       stroke="currentColor"
       stroke-width="0.0944"
       stroke-linecap="round"
       stroke-linejoin="round" />
  </g>
  <g
     id="g170"
     transform="translate(0,3.3220836)">
    <line
       id="line168"
       y2="0"
       x2="231.88"
       y1="0"
       x1="0.047200002"
       stroke="currentColor"
       stroke-width="0.0944"
       stroke-linecap="round"
       stroke-linejoin="round" />
  </g>
  <g
     id="g174"
     transform="translate(158.577,4.7956836)">
    <rect
       id="rect172"
       fill="currentColor"
       ry="0.042100001"
       height="2.3301001"
       width="0.1228"
       y="-1.3441"
       x="-0.0614" />
  </g>
  <g
     id="g178"
     transform="translate(157.6819,5.9009836)">
    <path
       id="path176"
       fill="currentColor"
       d="m 208,139 c 61,0 117,-33 117,-99 0,-71 -52,-119 -99,-147 -34,-20 -71,-32 -110,-32 -61,0 -116,33 -116,99 0,71 51,119 98,147 34,20 71,32 110,32 z"
       transform="scale(0.0029,-0.0029)" />
  </g>
  <g
     id="g182"
     transform="translate(156.5214,5.9009836)">
    <path
       id="path180"
       fill="currentColor"
       d="m 0,114 c 0,12 7,22 18,26 l 37,15 v 151 c 0,12 10,22 22,22 12,0 22,-10 22,-22 V 172 l 77,29 v 152 c 0,12 10,22 22,22 12,0 22,-10 22,-22 V 219 l 16,6 c 3,1 8,2 11,2 15,0 28,-12 28,-28 v -50 c 0,-12 -7,-23 -18,-27 L 220,108 V -44 l 16,7 c 3,1 8,2 11,2 15,0 28,-13 28,-29 v -50 c 0,-12 -7,-22 -18,-26 l -37,-15 v -151 c 0,-12 -10,-22 -22,-22 -12,0 -22,10 -22,22 v 134 l -77,-29 v -152 c 0,-12 -10,-22 -22,-22 -12,0 -22,10 -22,22 v 134 l -16,-6 c -3,-1 -8,-2 -11,-2 -15,0 -28,12 -28,28 v 50 c 0,12 7,23 18,27 l 37,14 V 44 L 39,37 C 36,36 31,35 28,35 13,35 0,48 0,64 Z M 176,91 99,61 V -91 l 77,30 z"
       transform="scale(0.0029,-0.0029)" />
  </g>
  <g
     id="g186"
     transform="translate(159.5884,6.6378836)">
    <path
       id="path184"
       fill="currentColor"
       d="m 208,139 c 61,0 117,-33 117,-99 0,-71 -52,-119 -99,-147 -34,-20 -71,-32 -110,-32 -61,0 -116,33 -116,99 0,71 51,119 98,147 34,20 71,32 110,32 z"
       transform="scale(0.0029,-0.0029)" />
  </g>
  <g
     id="g190"
     transform="translate(160.4835,4.7956836)">
    <rect
       id="rect188"
       fill="currentColor"
       ry="0.042100001"
       height="3.0669"
       width="0.1228"
       y="-1.3441"
       x="-0.0614" />
  </g>
  <g
     id="g194"
     transform="translate(161.9949,5.1641836)">
    <path
       id="path192"
       fill="currentColor"
       d="m 208,139 c 61,0 117,-33 117,-99 0,-71 -52,-119 -99,-147 -34,-20 -71,-32 -110,-32 -61,0 -116,33 -116,99 0,71 51,119 98,147 34,20 71,32 110,32 z"
       transform="scale(0.0029,-0.0029)" />
  </g>
  <g
     id="g198"
     transform="translate(162.89,4.7956836)">
    <rect
       id="rect196"
       fill="currentColor"
       ry="0.042100001"
       height="1.5933"
       width="0.1228"
       y="-1.3441"
       x="-0.0614" />
  </g>
  <g
     id="g202"
     transform="translate(177.8542,8.1114836)">
    <path
       id="path200"
       fill="currentColor"
       d="m 208,139 c 61,0 117,-33 117,-99 0,-71 -52,-119 -99,-147 -34,-20 -71,-32 -110,-32 -61,0 -116,33 -116,99 0,71 51,119 98,147 34,20 71,32 110,32 z"
       transform="scale(0.0029,-0.0029)" />
  </g>
  <g
     id="g206"
     transform="translate(150.652,4.7956836)">
    <path
       id="path204"
       fill="currentColor"
       d="m 208,139 c 61,0 117,-33 117,-99 0,-71 -52,-119 -99,-147 -34,-20 -71,-32 -110,-32 -61,0 -116,33 -116,99 0,71 51,119 98,147 34,20 71,32 110,32 z"
       transform="scale(0.0029,-0.0029)" />
  </g>
  <g
     id="g210"
     transform="translate(151.5471,4.7956836)">
    <rect
       id="rect208"
       fill="currentColor"
       ry="0.042100001"
       height="1.9617"
       width="0.1228"
       y="-2.0809"
       x="-0.0614" />
  </g>
  <g
     id="g214"
     transform="translate(152.8084,5.1641836)">
    <path
       id="path212"
       fill="currentColor"
       d="m 208,139 c 61,0 117,-33 117,-99 0,-71 -52,-119 -99,-147 -34,-20 -71,-32 -110,-32 -61,0 -116,33 -116,99 0,71 51,119 98,147 34,20 71,32 110,32 z"
       transform="scale(0.0029,-0.0029)" />
  </g>
  <g
     id="g218"
     transform="translate(153.7035,4.7956836)">
    <rect
       id="rect216"
       fill="currentColor"
       ry="0.042100001"
       height="2.3301001"
       width="0.1228"
       y="-2.0809"
       x="-0.0614" />
  </g>
  <g
     id="g222"
     transform="translate(154.9649,5.5325836)">
    <path
       id="path220"
       fill="currentColor"
       d="m 208,139 c 61,0 117,-33 117,-99 0,-71 -52,-119 -99,-147 -34,-20 -71,-32 -110,-32 -61,0 -116,33 -116,99 0,71 51,119 98,147 34,20 71,32 110,32 z"
       transform="scale(0.0029,-0.0029)" />
  </g>
  <g
     id="g226"
     transform="translate(155.86,4.7956836)">
    <rect
       id="rect224"
       fill="currentColor"
       ry="0.042100001"
       height="2.6984999"
       width="0.1228"
       y="-2.0809"
       x="-0.0614" />
  </g>
  <g
     id="g230"
     transform="translate(172.5332,7.7430836)">
    <path
       id="path228"
       fill="currentColor"
       d="m 208,139 c 61,0 117,-33 117,-99 0,-71 -52,-119 -99,-147 -34,-20 -71,-32 -110,-32 -61,0 -116,33 -116,99 0,71 51,119 98,147 34,20 71,32 110,32 z"
       transform="scale(0.0029,-0.0029)" />
  </g>
  <g
     id="g234"
     transform="translate(173.4283,4.7956836)">
    <rect
       id="rect232"
       fill="currentColor"
       ry="0.042100001"
       height="2.8281"
       width="0.1228"
       y="0"
       x="-0.0614" />
  </g>
  <g
     id="g238"
     transform="translate(175.9477,7.3746836)">
    <path
       id="path236"
       fill="currentColor"
       d="m 208,139 c 61,0 117,-33 117,-99 0,-71 -52,-119 -99,-147 -34,-20 -71,-32 -110,-32 -61,0 -116,33 -116,99 0,71 51,119 98,147 34,20 71,32 110,32 z"
       transform="scale(0.0029,-0.0029)" />
  </g>
  <g
     id="g242"
     transform="translate(176.8428,4.7956836)">
    <rect
       id="rect240"
       fill="currentColor"
       ry="0.042100001"
       height="2.4597001"
       width="0.1228"
       y="0"
       x="-0.0614" />
  </g>
  <g
     id="g246"
     transform="translate(163.9014,6.6378836)">
    <path
       id="path244"
       fill="currentColor"
       d="m 208,139 c 61,0 117,-33 117,-99 0,-71 -52,-119 -99,-147 -34,-20 -71,-32 -110,-32 -61,0 -116,33 -116,99 0,71 51,119 98,147 34,20 71,32 110,32 z"
       transform="scale(0.0029,-0.0029)" />
  </g>
  <g
     id="g250"
     transform="translate(164.7965,4.7956836)">
    <rect
       id="rect248"
       fill="currentColor"
       ry="0.042100001"
       height="3.0669"
       width="0.1228"
       y="-1.3441"
       x="-0.0614" />
  </g>
  <g
     id="g254"
     transform="translate(166.3137,7.0062836)">
    <path
       id="path252"
       fill="currentColor"
       d="m 208,139 c 61,0 117,-33 117,-99 0,-71 -52,-119 -99,-147 -34,-20 -71,-32 -110,-32 -61,0 -116,33 -116,99 0,71 51,119 98,147 34,20 71,32 110,32 z"
       transform="scale(0.0029,-0.0029)" />
  </g>
  <g
     id="g258"
     transform="translate(167.2088,4.7956836)">
    <rect
       id="rect256"
       fill="currentColor"
       ry="0.042100001"
       height="2.0913"
       width="0.1228"
       y="0"
       x="-0.0614" />
  </g>
  <g
     id="g262"
     transform="translate(165.4579,7.0062836)">
    <path
       id="path260"
       fill="currentColor"
       d="m -8,375 c 8,5 18,7 27,7 9,0 20,-2 28,-7 l -3,-196 99,24 h 4 c 11,0 20,-8 20,-19 l 8,-559 c -8,-5 -19,-7 -28,-7 -9,0 -19,2 -27,7 l 3,196 -99,-24 h -5 c -11,0 -19,8 -19,19 z M 127,109 42,89 l -2,-198 84,20 z"
       transform="scale(0.0029,-0.0029)" />
  </g>
  <g
     id="g266"
     transform="translate(168.2202,7.3746836)">
    <path
       id="path264"
       fill="currentColor"
       d="m 208,139 c 61,0 117,-33 117,-99 0,-71 -52,-119 -99,-147 -34,-20 -71,-32 -110,-32 -61,0 -116,33 -116,99 0,71 51,119 98,147 34,20 71,32 110,32 z"
       transform="scale(0.0029,-0.0029)" />
  </g>
  <g
     id="g270"
     transform="translate(169.1153,4.7956836)">
    <rect
       id="rect268"
       fill="currentColor"
       ry="0.042100001"
       height="2.4597001"
       width="0.1228"
       y="0"
       x="-0.0614" />
  </g>
  <g
     id="g274"
     transform="translate(170.6267,7.0062836)">
    <path
       id="path272"
       fill="currentColor"
       d="m 208,139 c 61,0 117,-33 117,-99 0,-71 -52,-119 -99,-147 -34,-20 -71,-32 -110,-32 -61,0 -116,33 -116,99 0,71 51,119 98,147 34,20 71,32 110,32 z"
       transform="scale(0.0029,-0.0029)" />
  </g>
  <g
     id="g278"
     transform="translate(171.5218,4.7956836)">
    <rect
       id="rect276"
       fill="currentColor"
       ry="0.042100001"
       height="2.0913"
       width="0.1228"
       y="0"
       x="-0.0614" />
  </g>
  <g
     id="g282"
     transform="translate(125.2307,4.4272836)">
    <path
       id="path280"
       fill="currentColor"
       d="m 0,114 c 0,12 7,22 18,26 l 37,15 v 151 c 0,12 10,22 22,22 12,0 22,-10 22,-22 V 172 l 77,29 v 152 c 0,12 10,22 22,22 12,0 22,-10 22,-22 V 219 l 16,6 c 3,1 8,2 11,2 15,0 28,-12 28,-28 v -50 c 0,-12 -7,-23 -18,-27 L 220,108 V -44 l 16,7 c 3,1 8,2 11,2 15,0 28,-13 28,-29 v -50 c 0,-12 -7,-22 -18,-26 l -37,-15 v -151 c 0,-12 -10,-22 -22,-22 -12,0 -22,10 -22,22 v 134 l -77,-29 v -152 c 0,-12 -10,-22 -22,-22 -12,0 -22,10 -22,22 v 134 l -16,-6 c -3,-1 -8,-2 -11,-2 -15,0 -28,12 -28,28 v 50 c 0,12 7,23 18,27 l 37,14 V 44 L 39,37 C 36,36 31,35 28,35 13,35 0,48 0,64 Z M 176,91 99,61 V -91 l 77,30 z"
       transform="scale(0.0029,-0.0029)" />
  </g>
  <g
     id="g286"
     transform="translate(123.6743,3.3220836)">
    <path
       id="path284"
       fill="currentColor"
       d="m 208,139 c 61,0 117,-33 117,-99 0,-71 -52,-119 -99,-147 -34,-20 -71,-32 -110,-32 -61,0 -116,33 -116,99 0,71 51,119 98,147 34,20 71,32 110,32 z"
       transform="scale(0.0029,-0.0029)" />
  </g>
  <g
     id="g290"
     transform="translate(124.5694,4.7956836)">
    <rect
       id="rect288"
       fill="currentColor"
       ry="0.042100001"
       height="1.7285"
       width="0.1228"
       y="-3.3213999"
       x="-0.0614" />
  </g>
  <g
     id="g294"
     transform="translate(126.3913,4.4272836)">
    <path
       id="path292"
       fill="currentColor"
       d="m 208,139 c 61,0 117,-33 117,-99 0,-71 -52,-119 -99,-147 -34,-20 -71,-32 -110,-32 -61,0 -116,33 -116,99 0,71 51,119 98,147 34,20 71,32 110,32 z"
       transform="scale(0.0029,-0.0029)" />
  </g>
  <g
     id="g298"
     transform="translate(127.2864,4.7956836)">
    <rect
       id="rect296"
       fill="currentColor"
       ry="0.042100001"
       height="2.5947001"
       width="0.1228"
       y="-3.0824001"
       x="-0.0614" />
  </g>
  <g
     id="g302"
     transform="translate(128.5478,4.0588836)">
    <path
       id="path300"
       fill="currentColor"
       d="m 208,139 c 61,0 117,-33 117,-99 0,-71 -52,-119 -99,-147 -34,-20 -71,-32 -110,-32 -61,0 -116,33 -116,99 0,71 51,119 98,147 34,20 71,32 110,32 z"
       transform="scale(0.0029,-0.0029)" />
  </g>
  <g
     id="g306"
     transform="translate(129.4429,4.7956836)">
    <rect
       id="rect304"
       fill="currentColor"
       ry="0.042100001"
       height="1.9562"
       width="0.1228"
       y="-2.8123"
       x="-0.0614" />
  </g>
  <g
     id="g310"
     transform="translate(130.9601,4.4272836)">
    <path
       id="path308"
       fill="currentColor"
       d="m 208,139 c 61,0 117,-33 117,-99 0,-71 -52,-119 -99,-147 -34,-20 -71,-32 -110,-32 -61,0 -116,33 -116,99 0,71 51,119 98,147 34,20 71,32 110,32 z"
       transform="scale(0.0029,-0.0029)" />
  </g>
  <g
     id="g314"
     transform="translate(131.8552,4.7956836)">
    <rect
       id="rect312"
       fill="currentColor"
       ry="0.042100001"
       height="2.1108"
       width="0.1228"
       y="-2.5984001"
       x="-0.0614" />
  </g>
  <g
     id="g318"
     transform="translate(223.7056,4.0588836)">
    <polygon
       id="polygon316"
       points="0.0421,0.1347 0.0421,-0.1347 6.5501,-0.1347 6.5501,0.1347 "
       stroke="currentColor"
       fill="currentColor"
       stroke-width="0.0842"
       stroke-linecap="round"
       stroke-linejoin="round" />
  </g>
  <g
     id="g322"
     transform="translate(223.7056,4.6660836)">
    <polygon
       id="polygon320"
       points="0.0421,0.1347 0.0421,-0.1347 6.5501,-0.1347 6.5501,0.1347 "
       stroke="currentColor"
       fill="currentColor"
       stroke-width="0.0842"
       stroke-linecap="round"
       stroke-linejoin="round" />
  </g>
  <g
     id="g326"
     transform="translate(119.6113,2.9535836)">
    <path
       id="path324"
       fill="currentColor"
       d="m 208,139 c 61,0 117,-33 117,-99 0,-71 -52,-119 -99,-147 -34,-20 -71,-32 -110,-32 -61,0 -116,33 -116,99 0,71 51,119 98,147 34,20 71,32 110,32 z"
       transform="scale(0.0029,-0.0029)" />
  </g>
  <g
     id="g330"
     transform="translate(120.5064,4.7956836)">
    <rect
       id="rect328"
       fill="currentColor"
       ry="0.042100001"
       height="1.7175"
       width="0.1228"
       y="-3.6788001"
       x="-0.0614" />
  </g>
  <g
     id="g334"
     transform="translate(121.5178,3.6904836)">
    <path
       id="path332"
       fill="currentColor"
       d="m 208,139 c 61,0 117,-33 117,-99 0,-71 -52,-119 -99,-147 -34,-20 -71,-32 -110,-32 -61,0 -116,33 -116,99 0,71 51,119 98,147 34,20 71,32 110,32 z"
       transform="scale(0.0029,-0.0029)" />
  </g>
  <g
     id="g338"
     transform="translate(122.4129,4.7956836)">
    <rect
       id="rect336"
       fill="currentColor"
       ry="0.042100001"
       height="2.2866001"
       width="0.1228"
       y="-3.5111001"
       x="-0.0614" />
  </g>
  <g
     id="g342"
     transform="translate(141.7425,6.2693836)">
    <path
       id="path340"
       fill="currentColor"
       d="m 208,139 c 61,0 117,-33 117,-99 0,-71 -52,-119 -99,-147 -34,-20 -71,-32 -110,-32 -61,0 -116,33 -116,99 0,71 51,119 98,147 34,20 71,32 110,32 z"
       transform="scale(0.0029,-0.0029)" />
  </g>
  <g
     id="g346"
     transform="translate(142.6376,4.7956836)">
    <rect
       id="rect344"
       fill="currentColor"
       ry="0.042100001"
       height="2.2955999"
       width="0.1228"
       y="-0.9411"
       x="-0.0614" />
  </g>
  <g
     id="g350"
     transform="translate(143.899,6.6378836)">
    <path
       id="path348"
       fill="currentColor"
       d="m 208,139 c 61,0 117,-33 117,-99 0,-71 -52,-119 -99,-147 -34,-20 -71,-32 -110,-32 -61,0 -116,33 -116,99 0,71 51,119 98,147 34,20 71,32 110,32 z"
       transform="scale(0.0029,-0.0029)" />
  </g>
  <g
     id="g354"
     transform="translate(144.7941,4.7956836)">
    <rect
       id="rect352"
       fill="currentColor"
       ry="0.042100001"
       height="2.4654"
       width="0.1228"
       y="-0.74250001"
       x="-0.0614" />
  </g>
  <g
     id="g358"
     transform="translate(148.2455,7.0062836)">
    <path
       id="path356"
       fill="currentColor"
       d="m 208,139 c 61,0 117,-33 117,-99 0,-71 -52,-119 -99,-147 -34,-20 -71,-32 -110,-32 -61,0 -116,33 -116,99 0,71 51,119 98,147 34,20 71,32 110,32 z"
       transform="scale(0.0029,-0.0029)" />
  </g>
  <g
     id="g362"
     transform="translate(149.1406,4.7956836)">
    <rect
       id="rect360"
       fill="currentColor"
       ry="0.042100001"
       height="4.1722002"
       width="0.1228"
       y="-2.0809"
       x="-0.0614" />
  </g>
  <g
     id="g366"
     transform="translate(130.1042,4.4272836)">
    <path
       id="path364"
       fill="currentColor"
       d="m -8,375 c 8,5 18,7 27,7 9,0 20,-2 28,-7 l -3,-196 99,24 h 4 c 11,0 20,-8 20,-19 l 8,-559 c -8,-5 -19,-7 -28,-7 -9,0 -19,2 -27,7 l 3,196 -99,-24 h -5 c -11,0 -19,8 -19,19 z M 127,109 42,89 l -2,-198 84,20 z"
       transform="scale(0.0029,-0.0029)" />
  </g>
  <g
     id="g370"
     transform="translate(133.1166,4.7956836)">
    <path
       id="path368"
       fill="currentColor"
       d="m 208,139 c 61,0 117,-33 117,-99 0,-71 -52,-119 -99,-147 -34,-20 -71,-32 -110,-32 -61,0 -116,33 -116,99 0,71 51,119 98,147 34,20 71,32 110,32 z"
       transform="scale(0.0029,-0.0029)" />
  </g>
  <g
     id="g374"
     transform="translate(134.0117,4.7956836)">
    <rect
       id="rect372"
       fill="currentColor"
       ry="0.042100001"
       height="2.2880001"
       width="0.1228"
       y="-2.4072001"
       x="-0.0614" />
  </g>
  <g
     id="g378"
     transform="translate(135.2731,5.1641836)">
    <path
       id="path376"
       fill="currentColor"
       d="m 208,139 c 61,0 117,-33 117,-99 0,-71 -52,-119 -99,-147 -34,-20 -71,-32 -110,-32 -61,0 -116,33 -116,99 0,71 51,119 98,147 34,20 71,32 110,32 z"
       transform="scale(0.0029,-0.0029)" />
  </g>
  <g
     id="g382"
     transform="translate(136.1682,4.7956836)">
    <rect
       id="rect380"
       fill="currentColor"
       ry="0.042100001"
       height="2.4651999"
       width="0.1228"
       y="-2.2160001"
       x="-0.0614" />
  </g>
  <g
     id="g386"
     transform="translate(147.0849,7.0062836)">
    <path
       id="path384"
       fill="currentColor"
       d="m 0,114 c 0,12 7,22 18,26 l 37,15 v 151 c 0,12 10,22 22,22 12,0 22,-10 22,-22 V 172 l 77,29 v 152 c 0,12 10,22 22,22 12,0 22,-10 22,-22 V 219 l 16,6 c 3,1 8,2 11,2 15,0 28,-12 28,-28 v -50 c 0,-12 -7,-23 -18,-27 L 220,108 V -44 l 16,7 c 3,1 8,2 11,2 15,0 28,-13 28,-29 v -50 c 0,-12 -7,-22 -18,-26 l -37,-15 v -151 c 0,-12 -10,-22 -22,-22 -12,0 -22,10 -22,22 v 134 l -77,-29 v -152 c 0,-12 -10,-22 -22,-22 -12,0 -22,10 -22,22 v 134 l -16,-6 c -3,-1 -8,-2 -11,-2 -15,0 -28,12 -28,28 v 50 c 0,12 7,23 18,27 l 37,14 V 44 L 39,37 C 36,36 31,35 28,35 13,35 0,48 0,64 Z M 176,91 99,61 V -91 l 77,30 z"
       transform="scale(0.0029,-0.0029)" />
  </g>
  <g
     id="g390"
     transform="translate(137.4296,5.5325836)">
    <path
       id="path388"
       fill="currentColor"
       d="m 208,139 c 61,0 117,-33 117,-99 0,-71 -52,-119 -99,-147 -34,-20 -71,-32 -110,-32 -61,0 -116,33 -116,99 0,71 51,119 98,147 34,20 71,32 110,32 z"
       transform="scale(0.0029,-0.0029)" />
  </g>
  <g
     id="g394"
     transform="translate(138.3247,4.7956836)">
    <rect
       id="rect392"
       fill="currentColor"
       ry="0.042100001"
       height="1.956"
       width="0.1228"
       y="-1.3384"
       x="-0.0614" />
  </g>
  <g
     id="g398"
     transform="translate(139.586,5.9009836)">
    <path
       id="path396"
       fill="currentColor"
       d="m 208,139 c 61,0 117,-33 117,-99 0,-71 -52,-119 -99,-147 -34,-20 -71,-32 -110,-32 -61,0 -116,33 -116,99 0,71 51,119 98,147 34,20 71,32 110,32 z"
       transform="scale(0.0029,-0.0029)" />
  </g>
  <g
     id="g402"
     transform="translate(140.4812,4.7956836)">
    <rect
       id="rect400"
       fill="currentColor"
       ry="0.042100001"
       height="2.1257999"
       width="0.1228"
       y="-1.1398"
       x="-0.0614" />
  </g>
  <g
     id="g406"
     transform="translate(220.7154,8.1114836)">
    <path
       id="path404"
       fill="currentColor"
       d="m 208,139 c 61,0 117,-33 117,-99 0,-71 -52,-119 -99,-147 -34,-20 -71,-32 -110,-32 -61,0 -116,33 -116,99 0,71 51,119 98,147 34,20 71,32 110,32 z"
       transform="scale(0.0029,-0.0029)" />
  </g>
  <g
     id="g410"
     transform="translate(221.6105,4.7956836)">
    <rect
       id="rect408"
       fill="currentColor"
       ry="0.042100001"
       height="3.8106999"
       width="0.1228"
       y="-0.61409998"
       x="-0.0614" />
  </g>
  <g
     id="g414"
     transform="translate(219.5548,8.1114836)">
    <path
       id="path412"
       fill="currentColor"
       d="m 0,114 c 0,12 7,22 18,26 l 37,15 v 151 c 0,12 10,22 22,22 12,0 22,-10 22,-22 V 172 l 77,29 v 152 c 0,12 10,22 22,22 12,0 22,-10 22,-22 V 219 l 16,6 c 3,1 8,2 11,2 15,0 28,-12 28,-28 v -50 c 0,-12 -7,-23 -18,-27 L 220,108 V -44 l 16,7 c 3,1 8,2 11,2 15,0 28,-13 28,-29 v -50 c 0,-12 -7,-22 -18,-26 l -37,-15 v -151 c 0,-12 -10,-22 -22,-22 -12,0 -22,10 -22,22 v 134 l -77,-29 v -152 c 0,-12 -10,-22 -22,-22 -12,0 -22,10 -22,22 v 134 l -16,-6 c -3,-1 -8,-2 -11,-2 -15,0 -28,12 -28,28 v 50 c 0,12 7,23 18,27 l 37,14 V 44 L 39,37 C 36,36 31,35 28,35 13,35 0,48 0,64 Z M 176,91 99,61 V -91 l 77,30 z"
       transform="scale(0.0029,-0.0029)" />
  </g>
  <g
     id="g418"
     transform="translate(222.8718,7.7430836)">
    <path
       id="path416"
       fill="currentColor"
       d="m 208,139 c 61,0 117,-33 117,-99 0,-71 -52,-119 -99,-147 -34,-20 -71,-32 -110,-32 -61,0 -116,33 -116,99 0,71 51,119 98,147 34,20 71,32 110,32 z"
       transform="scale(0.0029,-0.0029)" />
  </g>
  <g
     id="g422"
     transform="translate(223.7669,4.7956836)">
    <rect
       id="rect420"
       fill="currentColor"
       ry="0.042100001"
       height="3.5650001"
       width="0.1228"
       y="-0.73680001"
       x="-0.0614" />
  </g>
  <g
     id="g426"
     transform="translate(225.2783,5.9009836)">
    <path
       id="path424"
       fill="currentColor"
       d="m 208,139 c 61,0 117,-33 117,-99 0,-71 -52,-119 -99,-147 -34,-20 -71,-32 -110,-32 -61,0 -116,33 -116,99 0,71 51,119 98,147 34,20 71,32 110,32 z"
       transform="scale(0.0029,-0.0029)" />
  </g>
  <g
     id="g430"
     transform="translate(226.1734,4.7956836)">
    <rect
       id="rect428"
       fill="currentColor"
       ry="0.042100001"
       height="1.7229"
       width="0.1228"
       y="-0.73680001"
       x="-0.0614" />
  </g>
  <g
     id="g434"
     transform="translate(227.4348,6.2693836)">
    <path
       id="path432"
       fill="currentColor"
       d="m 208,139 c 61,0 117,-33 117,-99 0,-71 -52,-119 -99,-147 -34,-20 -71,-32 -110,-32 -61,0 -116,33 -116,99 0,71 51,119 98,147 34,20 71,32 110,32 z"
       transform="scale(0.0029,-0.0029)" />
  </g>
  <g
     id="g438"
     transform="translate(228.3299,4.7956836)">
    <rect
       id="rect436"
       fill="currentColor"
       ry="0.042100001"
       height="2.0913"
       width="0.1228"
       y="-0.73680001"
       x="-0.0614" />
  </g>
  <g
     id="g442"
     transform="translate(216.737,4.7956836)">
    <rect
       id="rect440"
       fill="currentColor"
       ry="0.042100001"
       height="3.2528999"
       width="0.1228"
       y="-1.1616"
       x="-0.0614" />
  </g>
  <g
     id="g446"
     transform="translate(213.1248,5.5325836)">
    <path
       id="path444"
       fill="currentColor"
       d="m 208,139 c 61,0 117,-33 117,-99 0,-71 -52,-119 -99,-147 -34,-20 -71,-32 -110,-32 -61,0 -116,33 -116,99 0,71 51,119 98,147 34,20 71,32 110,32 z"
       transform="scale(0.0029,-0.0029)" />
  </g>
  <g
     id="g450"
     transform="translate(214.0199,4.7956836)">
    <rect
       id="rect448"
       fill="currentColor"
       ry="0.042100001"
       height="2.0843999"
       width="0.1228"
       y="-1.4668"
       x="-0.0614" />
  </g>
  <g
     id="g454"
     transform="translate(212.269,5.5325836)">
    <path
       id="path452"
       fill="currentColor"
       d="m -8,375 c 8,5 18,7 27,7 9,0 20,-2 28,-7 l -3,-196 99,24 h 4 c 11,0 20,-8 20,-19 l 8,-559 c -8,-5 -19,-7 -28,-7 -9,0 -19,2 -27,7 l 3,196 -99,-24 h -5 c -11,0 -19,8 -19,19 z M 127,109 42,89 l -2,-198 84,20 z"
       transform="scale(0.0029,-0.0029)" />
  </g>
  <g
     id="g458"
     transform="translate(215.8419,7.0062836)">
    <path
       id="path456"
       fill="currentColor"
       d="m 208,139 c 61,0 117,-33 117,-99 0,-71 -52,-119 -99,-147 -34,-20 -71,-32 -110,-32 -61,0 -116,33 -116,99 0,71 51,119 98,147 34,20 71,32 110,32 z"
       transform="scale(0.0029,-0.0029)" />
  </g>
  <g
     id="g462"
     transform="translate(214.6813,7.0062836)">
    <path
       id="path460"
       fill="currentColor"
       d="m 0,114 c 0,12 7,22 18,26 l 37,15 v 151 c 0,12 10,22 22,22 12,0 22,-10 22,-22 V 172 l 77,29 v 152 c 0,12 10,22 22,22 12,0 22,-10 22,-22 V 219 l 16,6 c 3,1 8,2 11,2 15,0 28,-12 28,-28 v -50 c 0,-12 -7,-23 -18,-27 L 220,108 V -44 l 16,7 c 3,1 8,2 11,2 15,0 28,-13 28,-29 v -50 c 0,-12 -7,-22 -18,-26 l -37,-15 v -151 c 0,-12 -10,-22 -22,-22 -12,0 -22,10 -22,22 v 134 l -77,-29 v -152 c 0,-12 -10,-22 -22,-22 -12,0 -22,10 -22,22 v 134 l -16,-6 c -3,-1 -8,-2 -11,-2 -15,0 -28,12 -28,28 v 50 c 0,12 7,23 18,27 l 37,14 V 44 L 39,37 C 36,36 31,35 28,35 13,35 0,48 0,64 Z M 176,91 99,61 V -91 l 77,30 z"
       transform="scale(0.0029,-0.0029)" />
  </g>
  <g
     id="g466"
     transform="translate(217.9983,6.6378836)">
    <path
       id="path464"
       fill="currentColor"
       d="m 208,139 c 61,0 117,-33 117,-99 0,-71 -52,-119 -99,-147 -34,-20 -71,-32 -110,-32 -61,0 -116,33 -116,99 0,71 51,119 98,147 34,20 71,32 110,32 z"
       transform="scale(0.0029,-0.0029)" />
  </g>
  <g
     id="g470"
     transform="translate(218.8934,4.7956836)">
    <rect
       id="rect468"
       fill="currentColor"
       ry="0.042100001"
       height="2.6422"
       width="0.1228"
       y="-0.91930002"
       x="-0.0614" />
  </g>
  <g
     id="g474"
     transform="translate(138.2633,3.4516836)">
    <polygon
       id="polygon472"
       points="0.0421,0.1347 0.0421,-0.1347 6.5501,0.4725 6.5501,0.742 "
       stroke="currentColor"
       fill="currentColor"
       stroke-width="0.0842"
       stroke-linecap="round"
       stroke-linejoin="round" />
  </g>
  <g
     id="g478"
     transform="translate(138.2633,4.0588836)">
    <polygon
       id="polygon476"
       points="0.0421,0.1347 0.0421,-0.1347 6.5501,0.4725 6.5501,0.742 "
       stroke="currentColor"
       fill="currentColor"
       stroke-width="0.0842"
       stroke-linecap="round"
       stroke-linejoin="round" />
  </g>
  <g
     id="g482"
     transform="translate(64.6105,2.5851836)">
    <polygon
       id="polygon480"
       points="0.0421,0.1347 0.0421,-0.1347 6.7521,0.7317 6.7521,1.0012 "
       stroke="currentColor"
       fill="currentColor"
       stroke-width="0.0842"
       stroke-linecap="round"
       stroke-linejoin="round" />
  </g>
  <g
     id="g486"
     transform="translate(64.6105,3.1923836)">
    <polygon
       id="polygon484"
       points="0.0421,0.1347 0.0421,-0.1347 6.7521,0.7317 6.7521,1.0012 "
       stroke="currentColor"
       fill="currentColor"
       stroke-width="0.0842"
       stroke-linecap="round"
       stroke-linejoin="round" />
  </g>
  <g
     id="g490"
     transform="translate(73.4384,4.4272836)">
    <polygon
       id="polygon488"
       points="0.0421,0.1347 0.0421,-0.1347 6.3001,0.2337 6.3001,0.5032 "
       stroke="currentColor"
       fill="currentColor"
       stroke-width="0.0842"
       stroke-linecap="round"
       stroke-linejoin="round" />
  </g>
  <g
     id="g494"
     transform="translate(73.4384,5.0344836)">
    <polygon
       id="polygon492"
       points="0.0421,0.1347 0.0421,-0.1347 6.3001,0.2337 6.3001,0.5032 "
       stroke="currentColor"
       fill="currentColor"
       stroke-width="0.0842"
       stroke-linecap="round"
       stroke-linejoin="round" />
  </g>
  <g
     id="g498"
     transform="translate(81.8144,1.9779836)">
    <polygon
       id="polygon496"
       points="0.0421,0.1347 0.0421,-0.1347 7.2521,-1.6084 7.2521,-1.3389 "
       stroke="currentColor"
       fill="currentColor"
       stroke-width="0.0842"
       stroke-linecap="round"
       stroke-linejoin="round" />
  </g>
  <g
     id="g502"
     transform="translate(81.8144,2.5851836)">
    <polygon
       id="polygon500"
       points="0.0421,0.1347 0.0421,-0.1347 7.2521,-1.6084 7.2521,-1.3389 "
       stroke="currentColor"
       fill="currentColor"
       stroke-width="0.0842"
       stroke-linecap="round"
       stroke-linejoin="round" />
  </g>
  <g
     id="g506"
     transform="translate(80.9807,4.7956836)">
    <path
       id="path504"
       d="M 0.832,-3.3754 C 1.6835,-4.503 4.6244,-5.0972 5.8469,-4.3886 v 0 C 4.6468,-4.9861 1.706,-4.3919 0.832,-3.3754 Z"
       fill="currentColor"
       stroke="currentColor"
       stroke-linecap="round"
       stroke-linejoin="round"
       stroke-width="0.0755" />
  </g>
  <g
     id="g510"
     transform="translate(93.1421,1.4799836)">
    <polygon
       id="polygon508"
       points="0.0421,0.1347 0.0421,-0.1347 6.5501,0.6021 6.5501,0.8716 "
       stroke="currentColor"
       fill="currentColor"
       stroke-width="0.0842"
       stroke-linecap="round"
       stroke-linejoin="round" />
  </g>
  <g
     id="g514"
     transform="translate(93.1421,2.0871836)">
    <polygon
       id="polygon512"
       points="0.0421,0.1347 0.0421,-0.1347 6.5501,0.6021 6.5501,0.8716 "
       stroke="currentColor"
       fill="currentColor"
       stroke-width="0.0842"
       stroke-linecap="round"
       stroke-linejoin="round" />
  </g>
  <g
     id="g518"
     transform="translate(101.7681,1.8483836)">
    <polygon
       id="polygon516"
       points="0.0421,0.1347 0.0421,-0.1347 6.5501,0.2337 6.5501,0.5032 "
       stroke="currentColor"
       fill="currentColor"
       stroke-width="0.0842"
       stroke-linecap="round"
       stroke-linejoin="round" />
  </g>
  <g
     id="g522"
     transform="translate(101.7681,2.4555836)">
    <polygon
       id="polygon520"
       points="0.0421,0.1347 0.0421,-0.1347 6.5501,0.2337 6.5501,0.5032 "
       stroke="currentColor"
       fill="currentColor"
       stroke-width="0.0842"
       stroke-linecap="round"
       stroke-linejoin="round" />
  </g>
  <g
     id="g526"
     transform="translate(110.144,3.3220836)">
    <polygon
       id="polygon524"
       points="0.0421,0.1347 0.0421,-0.1347 7.0501,-1.6084 7.0501,-1.3389 "
       stroke="currentColor"
       fill="currentColor"
       stroke-width="0.0842"
       stroke-linecap="round"
       stroke-linejoin="round" />
  </g>
  <g
     id="g530"
     transform="translate(110.144,3.9292836)">
    <polygon
       id="polygon528"
       points="0.0421,0.1347 0.0421,-0.1347 7.0501,-1.6084 7.0501,-1.3389 "
       stroke="currentColor"
       fill="currentColor"
       stroke-width="0.0842"
       stroke-linecap="round"
       stroke-linejoin="round" />
  </g>
  <g
     id="g534"
     transform="translate(109.3103,4.7956836)">
    <path
       id="path532"
       d="m 0.8302,-2.0317 c 0.8226,-1.1092 3.6167,-1.6898 4.813,-1.0001 v 0 c -1.1733,-0.5787 -3.9673,0.0019 -4.813,1.0001 z"
       fill="currentColor"
       stroke="currentColor"
       stroke-linecap="round"
       stroke-linejoin="round"
       stroke-width="0.0755" />
  </g>
  <g
     id="g538"
     transform="translate(120.445,1.1114836)">
    <polygon
       id="polygon536"
       points="0.0421,0.1347 0.0421,-0.1347 6.8607,0.4725 6.8607,0.742 "
       stroke="currentColor"
       fill="currentColor"
       stroke-width="0.0842"
       stroke-linecap="round"
       stroke-linejoin="round" />
  </g>
  <g
     id="g542"
     transform="translate(120.445,1.7187836)">
    <polygon
       id="polygon540"
       points="0.0421,0.1347 0.0421,-0.1347 6.8607,0.4725 6.8607,0.742 "
       stroke="currentColor"
       fill="currentColor"
       stroke-width="0.0842"
       stroke-linecap="round"
       stroke-linejoin="round" />
  </g>
  <g
     id="g546"
     transform="translate(119.6113,4.7956836)">
    <path
       id="path544"
       d="m 0.923,-4.2241 c 1.3461,-0.9433 5.6193,-0.5674 6.78,0.5964 v 0 C 6.5324,-4.6786 2.2592,-5.0545 0.923,-4.2241 Z"
       fill="currentColor"
       stroke="currentColor"
       stroke-linecap="round"
       stroke-linejoin="round"
       stroke-width="0.0755" />
  </g>
  <g
     id="g550"
     transform="translate(129.3815,1.9779836)">
    <polygon
       id="polygon548"
       points="0.0421,0.1347 0.0421,-0.1347 6.806,0.4725 6.806,0.742 "
       stroke="currentColor"
       fill="currentColor"
       stroke-width="0.0842"
       stroke-linecap="round"
       stroke-linejoin="round" />
  </g>
  <g
     id="g554"
     transform="translate(129.3815,2.5851836)">
    <polygon
       id="polygon552"
       points="0.0421,0.1347 0.0421,-0.1347 6.806,0.4725 6.806,0.742 "
       stroke="currentColor"
       fill="currentColor"
       stroke-width="0.0842"
       stroke-linecap="round"
       stroke-linejoin="round" />
  </g>
  <g
     id="g558"
     transform="translate(128.5478,4.7956836)">
    <path
       id="path556"
       d="m 0.9377,-3.3576 c 2.0119,-1.0479 13.6887,0.5265 15.3513,2.0698 v 0 C 14.6113,-2.7188 2.9345,-4.2932 0.9377,-3.3576 Z"
       fill="currentColor"
       stroke="currentColor"
       stroke-linecap="round"
       stroke-linejoin="round"
       stroke-width="0.0755" />
  </g>
  <g
     id="g562"
     transform="translate(54.9881,2.2167836)">
    <polygon
       id="polygon560"
       points="0.0421,0.1347 0.0421,-0.1347 6.3001,-0.1347 6.3001,0.1347 "
       stroke="currentColor"
       fill="currentColor"
       stroke-width="0.0842"
       stroke-linecap="round"
       stroke-linejoin="round" />
  </g>
  <g
     id="g566"
     transform="translate(54.9881,2.8239836)">
    <polygon
       id="polygon564"
       points="0.0421,0.1347 0.0421,-0.1347 6.3001,-0.1347 6.3001,0.1347 "
       stroke="currentColor"
       fill="currentColor"
       stroke-width="0.0842"
       stroke-linecap="round"
       stroke-linejoin="round" />
  </g>
  <g
     id="g570"
     transform="translate(149.0792,2.7147836)">
    <polygon
       id="polygon568"
       points="0.0421,0.1347 0.0421,-0.1347 6.8001,-0.1347 6.8001,0.1347 "
       stroke="currentColor"
       fill="currentColor"
       stroke-width="0.0842"
       stroke-linecap="round"
       stroke-linejoin="round" />
  </g>
  <g
     id="g574"
     transform="translate(149.0792,3.3220836)">
    <polygon
       id="polygon572"
       points="0.0421,0.1347 0.0421,-0.1347 6.8001,-0.1347 6.8001,0.1347 "
       stroke="currentColor"
       fill="currentColor"
       stroke-width="0.0842"
       stroke-linecap="round"
       stroke-linejoin="round" />
  </g>
  <g
     id="g578"
     transform="translate(158.5157,3.4516836)">
    <polygon
       id="polygon576"
       points="0.0421,0.1347 0.0421,-0.1347 6.3001,-0.1347 6.3001,0.1347 "
       stroke="currentColor"
       fill="currentColor"
       stroke-width="0.0842"
       stroke-linecap="round"
       stroke-linejoin="round" />
  </g>
  <g
     id="g582"
     transform="translate(158.5157,4.0588836)">
    <polygon
       id="polygon580"
       points="0.0421,0.1347 0.0421,-0.1347 6.3001,-0.1347 6.3001,0.1347 "
       stroke="currentColor"
       fill="currentColor"
       stroke-width="0.0842"
       stroke-linecap="round"
       stroke-linejoin="round" />
  </g>
  <g
     id="g586"
     transform="translate(167.1475,4.7956836)">
    <polygon
       id="polygon584"
       points="0.0421,0.1347 0.0421,-0.1347 6.3001,-0.1347 6.3001,0.1347 "
       stroke="currentColor"
       fill="currentColor"
       stroke-width="0.0842"
       stroke-linecap="round"
       stroke-linejoin="round" />
  </g>
  <g
     id="g590"
     transform="translate(167.1475,5.4029836)">
    <polygon
       id="polygon588"
       points="0.0421,0.1347 0.0421,-0.1347 6.3001,-0.1347 6.3001,0.1347 "
       stroke="currentColor"
       fill="currentColor"
       stroke-width="0.0842"
       stroke-linecap="round"
       stroke-linejoin="round" />
  </g>
  <g
     id="g594"
     transform="translate(176.7814,4.7956836)">
    <polygon
       id="polygon592"
       points="0.0421,0.1347 0.0421,-0.1347 6.3001,-0.1347 6.3001,0.1347 "
       stroke="currentColor"
       fill="currentColor"
       stroke-width="0.0842"
       stroke-linecap="round"
       stroke-linejoin="round" />
  </g>
  <g
     id="g598"
     transform="translate(176.7814,5.4029836)">
    <polygon
       id="polygon596"
       points="0.0421,0.1347 0.0421,-0.1347 6.3001,-0.1347 6.3001,0.1347 "
       stroke="currentColor"
       fill="currentColor"
       stroke-width="0.0842"
       stroke-linecap="round"
       stroke-linejoin="round" />
  </g>
  <g
     id="g602"
     transform="translate(175.9477,4.7956836)">
    <path
       id="path600"
       d="m 0.8662,-0.5453 c 2.0095,-1.5756 22.0211,-3.3964 24.2819,-2.2093 v 0 C 22.8976,-3.8288 2.8859,-2.008 0.8662,-0.5453 Z"
       fill="currentColor"
       stroke="currentColor"
       stroke-linecap="round"
       stroke-linejoin="round"
       stroke-width="0.0755" />
  </g>
  <g
     id="g606"
     transform="translate(185.4074,4.0588836)">
    <polygon
       id="polygon604"
       points="0.0421,0.1347 0.0421,-0.1347 7.1107,-0.742 7.1107,-0.4725 "
       stroke="currentColor"
       fill="currentColor"
       stroke-width="0.0842"
       stroke-linecap="round"
       stroke-linejoin="round" />
  </g>
  <g
     id="g610"
     transform="translate(185.4074,4.6660836)">
    <polygon
       id="polygon608"
       points="0.0421,0.1347 0.0421,-0.1347 7.1107,-0.742 7.1107,-0.4725 "
       stroke="currentColor"
       fill="currentColor"
       stroke-width="0.0842"
       stroke-linecap="round"
       stroke-linejoin="round" />
  </g>
  <g
     id="g614"
     transform="translate(194.5938,2.7147836)">
    <polygon
       id="polygon612"
       points="0.0421,0.1347 0.0421,-0.1347 6.5501,-0.2644 6.5501,0.0051 "
       stroke="currentColor"
       fill="currentColor"
       stroke-width="0.0842"
       stroke-linecap="round"
       stroke-linejoin="round" />
  </g>
  <g
     id="g618"
     transform="translate(194.5938,3.3220836)">
    <polygon
       id="polygon616"
       points="0.0421,0.1347 0.0421,-0.1347 6.5501,-0.2644 6.5501,0.0051 "
       stroke="currentColor"
       fill="currentColor"
       stroke-width="0.0842"
       stroke-linecap="round"
       stroke-linejoin="round" />
  </g>
  <g
     id="g622"
     transform="translate(205.3268,3.3220836)">
    <polygon
       id="polygon620"
       points="0.0421,0.1347 0.0421,-0.1347 6.3001,-0.1347 6.3001,0.1347 "
       stroke="currentColor"
       fill="currentColor"
       stroke-width="0.0842"
       stroke-linecap="round"
       stroke-linejoin="round" />
  </g>
  <g
     id="g626"
     transform="translate(205.3268,3.9292836)">
    <polygon
       id="polygon624"
       points="0.0421,0.1347 0.0421,-0.1347 6.3001,-0.1347 6.3001,0.1347 "
       stroke="currentColor"
       fill="currentColor"
       stroke-width="0.0842"
       stroke-linecap="round"
       stroke-linejoin="round" />
  </g>
  <g
     id="g630"
     transform="translate(213.9586,3.3220836)">
    <polygon
       id="polygon628"
       points="0.0421,0.1347 0.0421,-0.1347 7.6712,0.7317 7.6712,1.0012 "
       stroke="currentColor"
       fill="currentColor"
       stroke-width="0.0842"
       stroke-linecap="round"
       stroke-linejoin="round" />
  </g>
  <g
     id="g634"
     transform="translate(213.9586,3.9292836)">
    <polygon
       id="polygon632"
       points="0.0421,0.1347 0.0421,-0.1347 7.6712,0.7317 7.6712,1.0012 "
       stroke="currentColor"
       fill="currentColor"
       stroke-width="0.0842"
       stroke-linecap="round"
       stroke-linejoin="round" />
  </g>
  <g
     id="g638"
     transform="translate(215.8419,4.7956836)">
    <path
       id="path636"
       d="M 0.8603,-1.7068 C 1.3626,-2.3137 2.3948,-2.427 3.0168,-1.9435 v 0 C 2.4072,-2.3143 1.375,-2.201 0.8603,-1.7068 Z"
       fill="currentColor"
       stroke="currentColor"
       stroke-linecap="round"
       stroke-linejoin="round"
       stroke-width="0.0755" />
  </g>
  <g
     id="g642"
     transform="translate(220.7154,4.7956836)">
    <path
       id="path640"
       d="M 1.2565,2.5368 C 1.5527,2.0382 2.1904,1.8743 2.6902,2.1683 v 0 C 2.2186,1.9841 1.5809,2.148 1.2565,2.5368 Z"
       fill="currentColor"
       stroke="currentColor"
       stroke-linecap="round"
       stroke-linejoin="round"
       stroke-width="0.0755" />
  </g>
  <g
     id="g646"
     transform="translate(229.3413,7.0062836)">
    <path
       id="path644"
       fill="currentColor"
       d="m 208,139 c 61,0 117,-33 117,-99 0,-71 -52,-119 -99,-147 -34,-20 -71,-32 -110,-32 -61,0 -116,33 -116,99 0,71 51,119 98,147 34,20 71,32 110,32 z"
       transform="scale(0.0029,-0.0029)" />
  </g>
  <g
     id="g650"
     transform="translate(230.2364,4.7956836)">
    <rect
       id="rect648"
       fill="currentColor"
       ry="0.042100001"
       height="2.8281"
       width="0.1228"
       y="-0.73680001"
       x="-0.0614" />
  </g>
  <g
     id="g654"
     transform="translate(8.3357,3.4516836)">
    <polygon
       id="polygon652"
       points="0.0421,0.1347 0.0421,-0.1347 6.3001,-0.1347 6.3001,0.1347 "
       stroke="currentColor"
       fill="currentColor"
       stroke-width="0.0842"
       stroke-linecap="round"
       stroke-linejoin="round" />
  </g>
  <g
     id="g658"
     transform="translate(8.3357,4.0588836)">
    <polygon
       id="polygon656"
       points="0.0421,0.1347 0.0421,-0.1347 6.3001,-0.1347 6.3001,0.1347 "
       stroke="currentColor"
       fill="currentColor"
       stroke-width="0.0842"
       stroke-linecap="round"
       stroke-linejoin="round" />
  </g>
  <g
     id="g662"
     transform="translate(16.7116,2.5851836)">
    <polygon
       id="polygon660"
       points="0.0421,0.1347 0.0421,-0.1347 7.3665,-0.742 7.3665,-0.4725 "
       stroke="currentColor"
       fill="currentColor"
       stroke-width="0.0842"
       stroke-linecap="round"
       stroke-linejoin="round" />
  </g>
  <g
     id="g666"
     transform="translate(16.7116,3.1923836)">
    <polygon
       id="polygon664"
       points="0.0421,0.1347 0.0421,-0.1347 7.3665,-0.742 7.3665,-0.4725 "
       stroke="currentColor"
       fill="currentColor"
       stroke-width="0.0842"
       stroke-linecap="round"
       stroke-linejoin="round" />
  </g>
  <g
     id="g670"
     transform="translate(26.1539,1.9779836)">
    <polygon
       id="polygon668"
       points="0.0421,0.1347 0.0421,-0.1347 6.3001,1.2093 6.3001,1.4788 "
       stroke="currentColor"
       fill="currentColor"
       stroke-width="0.0842"
       stroke-linecap="round"
       stroke-linejoin="round" />
  </g>
  <g
     id="g674"
     transform="translate(26.1539,2.5851836)">
    <polygon
       id="polygon672"
       points="0.0421,0.1347 0.0421,-0.1347 6.3001,1.2093 6.3001,1.4788 "
       stroke="currentColor"
       fill="currentColor"
       stroke-width="0.0842"
       stroke-linecap="round"
       stroke-linejoin="round" />
  </g>
  <g
     id="g678"
     transform="translate(35.8593,3.3220836)">
    <polygon
       id="polygon676"
       points="0.0421,0.1347 0.0421,-0.1347 7.6107,-1.738 7.6107,-1.4686 "
       stroke="currentColor"
       fill="currentColor"
       stroke-width="0.0842"
       stroke-linecap="round"
       stroke-linejoin="round" />
  </g>
  <g
     id="g682"
     transform="translate(35.8593,3.9292836)">
    <polygon
       id="polygon680"
       points="0.0421,0.1347 0.0421,-0.1347 7.6107,-1.738 7.6107,-1.4686 "
       stroke="currentColor"
       fill="currentColor"
       stroke-width="0.0842"
       stroke-linecap="round"
       stroke-linejoin="round" />
  </g>
  <g
     id="g686"
     transform="translate(35.0256,4.7956836)">
    <path
       id="path684"
       d="m 0.8297,-2.0318 c 0.821,-1.1107 3.6153,-1.6962 4.813,-1.0084 v 0 C 4.4682,-3.617 1.6739,-3.0316 0.8297,-2.0318 Z"
       fill="currentColor"
       stroke="currentColor"
       stroke-linecap="round"
       stroke-linejoin="round"
       stroke-width="0.0755" />
  </g>
  <g
     id="g690"
     transform="translate(45.2958,3.3220836)">
    <polygon
       id="polygon688"
       points="0.0421,0.1347 0.0421,-0.1347 7.6165,-1.4788 7.6165,-1.2093 "
       stroke="currentColor"
       fill="currentColor"
       stroke-width="0.0842"
       stroke-linecap="round"
       stroke-linejoin="round" />
  </g>
  <g
     id="g694"
     transform="translate(45.2958,3.9292836)">
    <polygon
       id="polygon692"
       points="0.0421,0.1347 0.0421,-0.1347 7.6165,-1.4788 7.6165,-1.2093 "
       stroke="currentColor"
       fill="currentColor"
       stroke-width="0.0842"
       stroke-linecap="round"
       stroke-linejoin="round" />
  </g>
  <g
     id="g698"
     transform="translate(44.4621,4.7956836)">
    <path
       id="path696"
       d="m 0.84,-2.0297 c 0.89,-1.1147 3.9072,-1.6442 5.1235,-0.8992 v 0 C 4.7667,-3.5622 1.7496,-3.0327 0.84,-2.0297 Z"
       fill="currentColor"
       stroke="currentColor"
       stroke-linecap="round"
       stroke-linejoin="round"
       stroke-width="0.0755" />
  </g>
  <g
     id="g702"
     transform="translate(188.8866,6.2693836)">
    <path
       id="path700"
       fill="currentColor"
       d="m 208,139 c 61,0 117,-33 117,-99 0,-71 -52,-119 -99,-147 -34,-20 -71,-32 -110,-32 -61,0 -116,33 -116,99 0,71 51,119 98,147 34,20 71,32 110,32 z"
       transform="scale(0.0029,-0.0029)" />
  </g>
  <g
     id="g706"
     transform="translate(189.7817,4.7956836)">
    <rect
       id="rect704"
       fill="currentColor"
       ry="0.042100001"
       height="2.4626"
       width="0.1228"
       y="-1.1082"
       x="-0.0614" />
  </g>
  <g
     id="g710"
     transform="translate(191.6036,5.9009836)">
    <path
       id="path708"
       fill="currentColor"
       d="m 208,139 c 61,0 117,-33 117,-99 0,-71 -52,-119 -99,-147 -34,-20 -71,-32 -110,-32 -61,0 -116,33 -116,99 0,71 51,119 98,147 34,20 71,32 110,32 z"
       transform="scale(0.0029,-0.0029)" />
  </g>
  <g
     id="g714"
     transform="translate(192.4987,4.7956836)">
    <rect
       id="rect712"
       fill="currentColor"
       ry="0.042100001"
       height="2.3248999"
       width="0.1228"
       y="-1.3388"
       x="-0.0614" />
  </g>
  <g
     id="g718"
     transform="translate(187.6252,4.7956836)">
    <rect
       id="rect716"
       fill="currentColor"
       ry="0.042100001"
       height="2.648"
       width="0.1228"
       y="-0.92510003"
       x="-0.0614" />
  </g>
  <g
     id="g722"
     transform="translate(190.4431,5.9009836)">
    <path
       id="path720"
       fill="currentColor"
       d="m 0,114 c 0,12 7,22 18,26 l 37,15 v 151 c 0,12 10,22 22,22 12,0 22,-10 22,-22 V 172 l 77,29 v 152 c 0,12 10,22 22,22 12,0 22,-10 22,-22 V 219 l 16,6 c 3,1 8,2 11,2 15,0 28,-12 28,-28 v -50 c 0,-12 -7,-23 -18,-27 L 220,108 V -44 l 16,7 c 3,1 8,2 11,2 15,0 28,-13 28,-29 v -50 c 0,-12 -7,-22 -18,-26 l -37,-15 v -151 c 0,-12 -10,-22 -22,-22 -12,0 -22,10 -22,22 v 134 l -77,-29 v -152 c 0,-12 -10,-22 -22,-22 -12,0 -22,10 -22,22 v 134 l -16,-6 c -3,-1 -8,-2 -11,-2 -15,0 -28,12 -28,28 v 50 c 0,12 7,23 18,27 l 37,14 V 44 L 39,37 C 36,36 31,35 28,35 13,35 0,48 0,64 Z M 176,91 99,61 V -91 l 77,30 z"
       transform="scale(0.0029,-0.0029)" />
  </g>
  <g
     id="g726"
     transform="translate(193.7601,5.5325836)">
    <path
       id="path724"
       fill="currentColor"
       d="m 208,139 c 61,0 117,-33 117,-99 0,-71 -52,-119 -99,-147 -34,-20 -71,-32 -110,-32 -61,0 -116,33 -116,99 0,71 51,119 98,147 34,20 71,32 110,32 z"
       transform="scale(0.0029,-0.0029)" />
  </g>
  <g
     id="g730"
     transform="translate(194.6552,4.7956836)">
    <rect
       id="rect728"
       fill="currentColor"
       ry="0.042100001"
       height="2.6997001"
       width="0.1228"
       y="-2.0820999"
       x="-0.0614" />
  </g>
  <g
     id="g734"
     transform="translate(183.0623,4.7956836)">
    <rect
       id="rect732"
       fill="currentColor"
       ry="0.042100001"
       height="2.4597001"
       width="0.1228"
       y="0"
       x="-0.0614" />
  </g>
  <g
     id="g738"
     transform="translate(180.0107,7.7430836)">
    <path
       id="path736"
       fill="currentColor"
       d="m 208,139 c 61,0 117,-33 117,-99 0,-71 -52,-119 -99,-147 -34,-20 -71,-32 -110,-32 -61,0 -116,33 -116,99 0,71 51,119 98,147 34,20 71,32 110,32 z"
       transform="scale(0.0029,-0.0029)" />
  </g>
  <g
     id="g742"
     transform="translate(180.9058,4.7956836)">
    <rect
       id="rect740"
       fill="currentColor"
       ry="0.042100001"
       height="2.8281"
       width="0.1228"
       y="0"
       x="-0.0614" />
  </g>
  <g
     id="g746"
     transform="translate(182.1672,7.3746836)">
    <path
       id="path744"
       fill="currentColor"
       d="m 208,139 c 61,0 117,-33 117,-99 0,-71 -52,-119 -99,-147 -34,-20 -71,-32 -110,-32 -61,0 -116,33 -116,99 0,71 51,119 98,147 34,20 71,32 110,32 z"
       transform="scale(0.0029,-0.0029)" />
  </g>
  <g
     id="g750"
     transform="translate(195.9166,5.1641836)">
    <path
       id="path748"
       fill="currentColor"
       d="m 208,139 c 61,0 117,-33 117,-99 0,-71 -52,-119 -99,-147 -34,-20 -71,-32 -110,-32 -61,0 -116,33 -116,99 0,71 51,119 98,147 34,20 71,32 110,32 z"
       transform="scale(0.0029,-0.0029)" />
  </g>
  <g
     id="g754"
     transform="translate(184.5736,7.0062836)">
    <path
       id="path752"
       fill="currentColor"
       d="m 208,139 c 61,0 117,-33 117,-99 0,-71 -52,-119 -99,-147 -34,-20 -71,-32 -110,-32 -61,0 -116,33 -116,99 0,71 51,119 98,147 34,20 71,32 110,32 z"
       transform="scale(0.0029,-0.0029)" />
  </g>
  <g
     id="g758"
     transform="translate(185.4687,4.7956836)">
    <rect
       id="rect756"
       fill="currentColor"
       ry="0.042100001"
       height="2.8334"
       width="0.1228"
       y="-0.7421"
       x="-0.0614" />
  </g>
  <g
     id="g762"
     transform="translate(186.7301,6.6378836)">
    <path
       id="path760"
       fill="currentColor"
       d="m 208,139 c 61,0 117,-33 117,-99 0,-71 -52,-119 -99,-147 -34,-20 -71,-32 -110,-32 -61,0 -116,33 -116,99 0,71 51,119 98,147 34,20 71,32 110,32 z"
       transform="scale(0.0029,-0.0029)" />
  </g>
  <g
     id="g766"
     transform="translate(203.3325,5.5325836)">
    <path
       id="path764"
       fill="currentColor"
       d="m 0,114 c 0,12 7,22 18,26 l 37,15 v 151 c 0,12 10,22 22,22 12,0 22,-10 22,-22 V 172 l 77,29 v 152 c 0,12 10,22 22,22 12,0 22,-10 22,-22 V 219 l 16,6 c 3,1 8,2 11,2 15,0 28,-12 28,-28 v -50 c 0,-12 -7,-23 -18,-27 L 220,108 V -44 l 16,7 c 3,1 8,2 11,2 15,0 28,-13 28,-29 v -50 c 0,-12 -7,-22 -18,-26 l -37,-15 v -151 c 0,-12 -10,-22 -22,-22 -12,0 -22,10 -22,22 v 134 l -77,-29 v -152 c 0,-12 -10,-22 -22,-22 -12,0 -22,10 -22,22 v 134 l -16,-6 c -3,-1 -8,-2 -11,-2 -15,0 -28,12 -28,28 v 50 c 0,12 7,23 18,27 l 37,14 V 44 L 39,37 C 36,36 31,35 28,35 13,35 0,48 0,64 Z M 176,91 99,61 V -91 l 77,30 z"
       transform="scale(0.0029,-0.0029)" />
  </g>
  <g
     id="g770"
     transform="translate(206.6495,5.1641836)">
    <path
       id="path768"
       fill="currentColor"
       d="m 208,139 c 61,0 117,-33 117,-99 0,-71 -52,-119 -99,-147 -34,-20 -71,-32 -110,-32 -61,0 -116,33 -116,99 0,71 51,119 98,147 34,20 71,32 110,32 z"
       transform="scale(0.0029,-0.0029)" />
  </g>
  <g
     id="g774"
     transform="translate(207.5446,4.7956836)">
    <rect
       id="rect772"
       fill="currentColor"
       ry="0.042100001"
       height="1.7229"
       width="0.1228"
       y="-1.4737"
       x="-0.0614" />
  </g>
  <g
     id="g778"
     transform="translate(208.556,6.2693836)">
    <path
       id="path776"
       fill="currentColor"
       d="m 208,139 c 61,0 117,-33 117,-99 0,-71 -52,-119 -99,-147 -34,-20 -71,-32 -110,-32 -61,0 -116,33 -116,99 0,71 51,119 98,147 34,20 71,32 110,32 z"
       transform="scale(0.0029,-0.0029)" />
  </g>
  <g
     id="g782"
     transform="translate(209.4511,4.7956836)">
    <rect
       id="rect780"
       fill="currentColor"
       ry="0.042100001"
       height="2.8281"
       width="0.1228"
       y="-1.4737"
       x="-0.0614" />
  </g>
  <g
     id="g786"
     transform="translate(210.7125,5.9009836)">
    <path
       id="path784"
       fill="currentColor"
       d="m 208,139 c 61,0 117,-33 117,-99 0,-71 -52,-119 -99,-147 -34,-20 -71,-32 -110,-32 -61,0 -116,33 -116,99 0,71 51,119 98,147 34,20 71,32 110,32 z"
       transform="scale(0.0029,-0.0029)" />
  </g>
  <g
     id="g790"
     transform="translate(211.6076,4.7956836)">
    <rect
       id="rect788"
       fill="currentColor"
       ry="0.042100001"
       height="2.4597001"
       width="0.1228"
       y="-1.4737"
       x="-0.0614" />
  </g>
  <g
     id="g794"
     transform="translate(200.2296,5.1641836)">
    <path
       id="path792"
       fill="currentColor"
       d="m 208,139 c 61,0 117,-33 117,-99 0,-71 -52,-119 -99,-147 -34,-20 -71,-32 -110,-32 -61,0 -116,33 -116,99 0,71 51,119 98,147 34,20 71,32 110,32 z"
       transform="scale(0.0029,-0.0029)" />
  </g>
  <g
     id="g798"
     transform="translate(196.8117,4.7956836)">
    <rect
       id="rect796"
       fill="currentColor"
       ry="0.042100001"
       height="2.3736999"
       width="0.1228"
       y="-2.1245"
       x="-0.0614" />
  </g>
  <g
     id="g802"
     transform="translate(198.0731,4.7956836)">
    <path
       id="path800"
       fill="currentColor"
       d="m 208,139 c 61,0 117,-33 117,-99 0,-71 -52,-119 -99,-147 -34,-20 -71,-32 -110,-32 -61,0 -116,33 -116,99 0,71 51,119 98,147 34,20 71,32 110,32 z"
       transform="scale(0.0029,-0.0029)" />
  </g>
  <g
     id="g806"
     transform="translate(198.9682,4.7956836)">
    <rect
       id="rect804"
       fill="currentColor"
       ry="0.042100001"
       height="2.0476999"
       width="0.1228"
       y="-2.1668999"
       x="-0.0614" />
  </g>
  <g
     id="g810"
     transform="translate(178.7493,4.7956836)">
    <rect
       id="rect808"
       fill="currentColor"
       ry="0.042100001"
       height="3.1966"
       width="0.1228"
       y="0"
       x="-0.0614" />
  </g>
  <g
     id="g814"
     transform="translate(201.1247,4.7956836)">
    <rect
       id="rect812"
       fill="currentColor"
       ry="0.042100001"
       height="2.4584999"
       width="0.1228"
       y="-2.2093"
       x="-0.0614" />
  </g>
  <g
     id="g818"
     transform="translate(204.493,5.5325836)">
    <path
       id="path816"
       fill="currentColor"
       d="m 208,139 c 61,0 117,-33 117,-99 0,-71 -52,-119 -99,-147 -34,-20 -71,-32 -110,-32 -61,0 -116,33 -116,99 0,71 51,119 98,147 34,20 71,32 110,32 z"
       transform="scale(0.0029,-0.0029)" />
  </g>
  <g
     id="g822"
     transform="translate(205.3881,4.7956836)">
    <rect
       id="rect820"
       fill="currentColor"
       ry="0.042100001"
       height="2.0913"
       width="0.1228"
       y="-1.4737"
       x="-0.0614" />
  </g>
  <g
     id="g826"
     transform="translate(41.3951,4.4272836)">
    <path
       id="path824"
       fill="currentColor"
       d="m 0,114 c 0,12 7,22 18,26 l 37,15 v 151 c 0,12 10,22 22,22 12,0 22,-10 22,-22 V 172 l 77,29 v 152 c 0,12 10,22 22,22 12,0 22,-10 22,-22 V 219 l 16,6 c 3,1 8,2 11,2 15,0 28,-12 28,-28 v -50 c 0,-12 -7,-23 -18,-27 L 220,108 V -44 l 16,7 c 3,1 8,2 11,2 15,0 28,-13 28,-29 v -50 c 0,-12 -7,-22 -18,-26 l -37,-15 v -151 c 0,-12 -10,-22 -22,-22 -12,0 -22,10 -22,22 v 134 l -77,-29 v -152 c 0,-12 -10,-22 -22,-22 -12,0 -22,10 -22,22 v 134 l -16,-6 c -3,-1 -8,-2 -11,-2 -15,0 -28,12 -28,28 v 50 c 0,12 7,23 18,27 l 37,14 V 44 L 39,37 C 36,36 31,35 28,35 13,35 0,48 0,64 Z M 176,91 99,61 V -91 l 77,30 z"
       transform="scale(0.0029,-0.0029)" />
  </g>
  <g
     id="g830"
     transform="translate(44.4621,6.6378836)">
    <path
       id="path828"
       fill="currentColor"
       d="m 208,139 c 61,0 117,-33 117,-99 0,-71 -52,-119 -99,-147 -34,-20 -71,-32 -110,-32 -61,0 -116,33 -116,99 0,71 51,119 98,147 34,20 71,32 110,32 z"
       transform="scale(0.0029,-0.0029)" />
  </g>
  <g
     id="g834"
     transform="translate(45.3572,4.7956836)">
    <rect
       id="rect832"
       fill="currentColor"
       ry="0.042100001"
       height="3.2072999"
       width="0.1228"
       y="-1.4845001"
       x="-0.0614" />
  </g>
  <g
     id="g838"
     transform="translate(47.1791,5.9009836)">
    <path
       id="path836"
       fill="currentColor"
       d="m 208,139 c 61,0 117,-33 117,-99 0,-71 -52,-119 -99,-147 -34,-20 -71,-32 -110,-32 -61,0 -116,33 -116,99 0,71 51,119 98,147 34,20 71,32 110,32 z"
       transform="scale(0.0029,-0.0029)" />
  </g>
  <g
     id="g842"
     transform="translate(48.0742,4.7956836)">
    <rect
       id="rect840"
       fill="currentColor"
       ry="0.042100001"
       height="2.9473"
       width="0.1228"
       y="-1.9613"
       x="-0.0614" />
  </g>
  <g
     id="g846"
     transform="translate(46.0186,5.9009836)">
    <path
       id="path844"
       fill="currentColor"
       d="m 0,114 c 0,12 7,22 18,26 l 37,15 v 151 c 0,12 10,22 22,22 12,0 22,-10 22,-22 V 172 l 77,29 v 152 c 0,12 10,22 22,22 12,0 22,-10 22,-22 V 219 l 16,6 c 3,1 8,2 11,2 15,0 28,-12 28,-28 v -50 c 0,-12 -7,-23 -18,-27 L 220,108 V -44 l 16,7 c 3,1 8,2 11,2 15,0 28,-13 28,-29 v -50 c 0,-12 -7,-22 -18,-26 l -37,-15 v -151 c 0,-12 -10,-22 -22,-22 -12,0 -22,10 -22,22 v 134 l -77,-29 v -152 c 0,-12 -10,-22 -22,-22 -12,0 -22,10 -22,22 v 134 l -16,-6 c -3,-1 -8,-2 -11,-2 -15,0 -28,12 -28,28 v 50 c 0,12 7,23 18,27 l 37,14 V 44 L 39,37 C 36,36 31,35 28,35 13,35 0,48 0,64 Z M 176,91 99,61 V -91 l 77,30 z"
       transform="scale(0.0029,-0.0029)" />
  </g>
  <g
     id="g850"
     transform="translate(49.5856,5.1641836)">
    <path
       id="path848"
       fill="currentColor"
       d="m 208,139 c 61,0 117,-33 117,-99 0,-71 -52,-119 -99,-147 -34,-20 -71,-32 -110,-32 -61,0 -116,33 -116,99 0,71 51,119 98,147 34,20 71,32 110,32 z"
       transform="scale(0.0029,-0.0029)" />
  </g>
  <g
     id="g854"
     transform="translate(50.4807,4.7956836)">
    <rect
       id="rect852"
       fill="currentColor"
       ry="0.042100001"
       height="2.6328001"
       width="0.1228"
       y="-2.3836"
       x="-0.0614" />
  </g>
  <g
     id="g858"
     transform="translate(37.4321,6.2693836)">
    <path
       id="path856"
       fill="currentColor"
       d="m 208,139 c 61,0 117,-33 117,-99 0,-71 -52,-119 -99,-147 -34,-20 -71,-32 -110,-32 -61,0 -116,33 -116,99 0,71 51,119 98,147 34,20 71,32 110,32 z"
       transform="scale(0.0029,-0.0029)" />
  </g>
  <g
     id="g862"
     transform="translate(38.3272,4.7956836)">
    <rect
       id="rect860"
       fill="currentColor"
       ry="0.042100001"
       height="3.3452001"
       width="0.1228"
       y="-1.9907"
       x="-0.0614" />
  </g>
  <g
     id="g866"
     transform="translate(51.9979,4.4272836)">
    <path
       id="path864"
       fill="currentColor"
       d="m 208,139 c 61,0 117,-33 117,-99 0,-71 -52,-119 -99,-147 -34,-20 -71,-32 -110,-32 -61,0 -116,33 -116,99 0,71 51,119 98,147 34,20 71,32 110,32 z"
       transform="scale(0.0029,-0.0029)" />
  </g>
  <g
     id="g870"
     transform="translate(39.8386,4.0588836)">
    <path
       id="path868"
       fill="currentColor"
       d="m 208,139 c 61,0 117,-33 117,-99 0,-71 -52,-119 -99,-147 -34,-20 -71,-32 -110,-32 -61,0 -116,33 -116,99 0,71 51,119 98,147 34,20 71,32 110,32 z"
       transform="scale(0.0029,-0.0029)" />
  </g>
  <g
     id="g874"
     transform="translate(40.7337,4.7956836)">
    <rect
       id="rect872"
       fill="currentColor"
       ry="0.042100001"
       height="1.6388"
       width="0.1228"
       y="-2.4949"
       x="-0.0614" />
  </g>
  <g
     id="g878"
     transform="translate(42.5556,4.4272836)">
    <path
       id="path876"
       fill="currentColor"
       d="m 208,139 c 61,0 117,-33 117,-99 0,-71 -52,-119 -99,-147 -34,-20 -71,-32 -110,-32 -61,0 -116,33 -116,99 0,71 51,119 98,147 34,20 71,32 110,32 z"
       transform="scale(0.0029,-0.0029)" />
  </g>
  <g
     id="g882"
     transform="translate(43.4507,4.7956836)">
    <rect
       id="rect880"
       fill="currentColor"
       ry="0.042100001"
       height="2.5764999"
       width="0.1228"
       y="-3.0641"
       x="-0.0614" />
  </g>
  <g
     id="g886"
     transform="translate(60.3739,5.1641836)">
    <path
       id="path884"
       fill="currentColor"
       d="m 208,139 c 61,0 117,-33 117,-99 0,-71 -52,-119 -99,-147 -34,-20 -71,-32 -110,-32 -61,0 -116,33 -116,99 0,71 51,119 98,147 34,20 71,32 110,32 z"
       transform="scale(0.0029,-0.0029)" />
  </g>
  <g
     id="g890"
     transform="translate(61.269,4.7956836)">
    <rect
       id="rect888"
       fill="currentColor"
       ry="0.042100001"
       height="2.8281"
       width="0.1228"
       y="-2.5789001"
       x="-0.0614" />
  </g>
  <g
     id="g894"
     transform="translate(63.7768,4.7956836)">
    <path
       id="path892"
       fill="currentColor"
       d="m 208,139 c 61,0 117,-33 117,-99 0,-71 -52,-119 -99,-147 -34,-20 -71,-32 -110,-32 -61,0 -116,33 -116,99 0,71 51,119 98,147 34,20 71,32 110,32 z"
       transform="scale(0.0029,-0.0029)" />
  </g>
  <g
     id="g898"
     transform="translate(64.6719,4.7956836)">
    <rect
       id="rect896"
       fill="currentColor"
       ry="0.042100001"
       height="2.0834999"
       width="0.1228"
       y="-2.2026999"
       x="-0.0614" />
  </g>
  <g
     id="g902"
     transform="translate(65.6833,5.5325836)">
    <path
       id="path900"
       fill="currentColor"
       d="m 208,139 c 61,0 117,-33 117,-99 0,-71 -52,-119 -99,-147 -34,-20 -71,-32 -110,-32 -61,0 -116,33 -116,99 0,71 51,119 98,147 34,20 71,32 110,32 z"
       transform="scale(0.0029,-0.0029)" />
  </g>
  <g
     id="g906"
     transform="translate(66.5784,4.7956836)">
    <rect
       id="rect904"
       fill="currentColor"
       ry="0.042100001"
       height="2.5771999"
       width="0.1228"
       y="-1.9596"
       x="-0.0614" />
  </g>
  <g
     id="g910"
     transform="translate(52.893,4.7956836)">
    <rect
       id="rect908"
       fill="currentColor"
       ry="0.042100001"
       height="2.3192999"
       width="0.1228"
       y="-2.8069999"
       x="-0.0614" />
  </g>
  <g
     id="g914"
     transform="translate(51.1421,4.4272836)">
    <path
       id="path912"
       fill="currentColor"
       d="m -8,375 c 8,5 18,7 27,7 9,0 20,-2 28,-7 l -3,-196 99,24 h 4 c 11,0 20,-8 20,-19 l 8,-559 c -8,-5 -19,-7 -28,-7 -9,0 -19,2 -27,7 l 3,196 -99,-24 h -5 c -11,0 -19,8 -19,19 z M 127,109 42,89 l -2,-198 84,20 z"
       transform="scale(0.0029,-0.0029)" />
  </g>
  <g
     id="g918"
     transform="translate(54.1544,4.4272836)">
    <path
       id="path916"
       fill="currentColor"
       d="m 208,139 c 61,0 117,-33 117,-99 0,-71 -52,-119 -99,-147 -34,-20 -71,-32 -110,-32 -61,0 -116,33 -116,99 0,71 51,119 98,147 34,20 71,32 110,32 z"
       transform="scale(0.0029,-0.0029)" />
  </g>
  <g
     id="g922"
     transform="translate(55.0495,4.7956836)">
    <rect
       id="rect920"
       fill="currentColor"
       ry="0.042100001"
       height="2.0913"
       width="0.1228"
       y="-2.5789001"
       x="-0.0614" />
  </g>
  <g
     id="g926"
     transform="translate(56.3109,4.7956836)">
    <path
       id="path924"
       fill="currentColor"
       d="m 208,139 c 61,0 117,-33 117,-99 0,-71 -52,-119 -99,-147 -34,-20 -71,-32 -110,-32 -61,0 -116,33 -116,99 0,71 51,119 98,147 34,20 71,32 110,32 z"
       transform="scale(0.0029,-0.0029)" />
  </g>
  <g
     id="g930"
     transform="translate(57.206,4.7956836)">
    <rect
       id="rect928"
       fill="currentColor"
       ry="0.042100001"
       height="2.4597001"
       width="0.1228"
       y="-2.5789001"
       x="-0.0614" />
  </g>
  <g
     id="g934"
     transform="translate(58.4674,4.4272836)">
    <path
       id="path932"
       fill="currentColor"
       d="m 208,139 c 61,0 117,-33 117,-99 0,-71 -52,-119 -99,-147 -34,-20 -71,-32 -110,-32 -61,0 -116,33 -116,99 0,71 51,119 98,147 34,20 71,32 110,32 z"
       transform="scale(0.0029,-0.0029)" />
  </g>
  <g
     id="g938"
     transform="translate(59.3625,4.7956836)">
    <rect
       id="rect936"
       fill="currentColor"
       ry="0.042100001"
       height="2.0913"
       width="0.1228"
       y="-2.5789001"
       x="-0.0614" />
  </g>
  <g
     id="g942"
     transform="translate(11.5649,6.2693836)">
    <path
       id="path940"
       fill="currentColor"
       d="m 208,139 c 61,0 117,-33 117,-99 0,-71 -52,-119 -99,-147 -34,-20 -71,-32 -110,-32 -61,0 -116,33 -116,99 0,71 51,119 98,147 34,20 71,32 110,32 z"
       transform="scale(0.0029,-0.0029)" />
  </g>
  <g
     id="g946"
     transform="translate(12.46,4.7956836)">
    <rect
       id="rect944"
       fill="currentColor"
       ry="0.042100001"
       height="2.6984999"
       width="0.1228"
       y="-1.3441"
       x="-0.0614" />
  </g>
  <g
     id="g950"
     transform="translate(13.7214,5.9009836)">
    <path
       id="path948"
       fill="currentColor"
       d="m 208,139 c 61,0 117,-33 117,-99 0,-71 -52,-119 -99,-147 -34,-20 -71,-32 -110,-32 -61,0 -116,33 -116,99 0,71 51,119 98,147 34,20 71,32 110,32 z"
       transform="scale(0.0029,-0.0029)" />
  </g>
  <g
     id="g954"
     transform="translate(14.6165,4.7956836)">
    <rect
       id="rect952"
       fill="currentColor"
       ry="0.042100001"
       height="2.3301001"
       width="0.1228"
       y="-1.3441"
       x="-0.0614" />
  </g>
  <g
     id="g958"
     transform="translate(15.8779,5.5325836)">
    <path
       id="path956"
       fill="currentColor"
       d="m 208,139 c 61,0 117,-33 117,-99 0,-71 -52,-119 -99,-147 -34,-20 -71,-32 -110,-32 -61,0 -116,33 -116,99 0,71 51,119 98,147 34,20 71,32 110,32 z"
       transform="scale(0.0029,-0.0029)" />
  </g>
  <g
     id="g962"
     transform="translate(16.773,4.7956836)">
    <rect
       id="rect960"
       fill="currentColor"
       ry="0.042100001"
       height="2.8332"
       width="0.1228"
       y="-2.2156"
       x="-0.0614" />
  </g>
  <g
     id="g966"
     transform="translate(18.0344,5.1641836)">
    <path
       id="path964"
       fill="currentColor"
       d="m 208,139 c 61,0 117,-33 117,-99 0,-71 -52,-119 -99,-147 -34,-20 -71,-32 -110,-32 -61,0 -116,33 -116,99 0,71 51,119 98,147 34,20 71,32 110,32 z"
       transform="scale(0.0029,-0.0029)" />
  </g>
  <g
     id="g970"
     transform="translate(18.9295,4.7956836)">
    <rect
       id="rect968"
       fill="currentColor"
       ry="0.042100001"
       height="2.6415"
       width="0.1228"
       y="-2.3922999"
       x="-0.0614" />
  </g>
  <g
     id="g974"
     transform="translate(0.8,5.5325836)">
    <path
       id="path972"
       fill="currentColor"
       d="m 381,266 h 9 c 157,0 258,-130 258,-264 0,-77 -33,-156 -108,-212 -22,-16 -46,-28 -71,-36 2,-32 3,-65 3,-97 0,-21 -1,-43 -2,-64 -7,-122 -91,-230 -211,-230 -108,0 -197,88 -197,197 0,58 54,104 113,104 54,0 95,-48 95,-104 0,-52 -43,-95 -95,-95 -8,0 -16,2 -24,4 25,-35 65,-59 111,-59 95,0 155,92 161,190 1,20 2,39 2,59 0,28 -1,55 -3,83 -29,-5 -57,-7 -87,-7 -189,0 -333,174 -333,377 0,176 128,307 242,443 -21,62 -41,124 -50,189 -7,52 -8,106 -8,159 0,113 54,219 146,286 8,6 21,7 29,0 72,-82 136,-244 136,-357 0,-141 -83,-253 -174,-362 22,-67 41,-135 58,-204 z m 83,-466 c 64,25 108,93 108,159 0,87 -62,173 -163,187 24,-113 43,-225 55,-346 z m -126,-18 c 27,0 54,2 80,6 C 405,-87 385,30 360,147 281,140 237,88 237,31 c 0,-43 24,-89 78,-120 5,-5 8,-11 8,-17 0,-13 -11,-24 -24,-24 -3,0 -7,0 -10,2 -81,44 -119,116 -119,187 0,90 60,178 164,201 -14,56 -30,112 -47,167 C 183,305 79,182 79,23 79,-109 206,-218 338,-218 Z M 239,782 c 0,-69 22,-127 41,-183 77,97 140,199 140,323 0,49 -3,69 -19,113 C 302,990 239,890 239,782 Z"
       transform="scale(0.0029,-0.0029)" />
  </g>
  <g
     id="g978"
     transform="translate(4.4125,4.7956836)">
    <path
       id="path976"
       fill="currentColor"
       d="m 33,35 -2,-60 v -11 c 0,-21 2,-43 5,-64 42,38 87,81 87,138 0,32 -13,63 -41,63 C 51,101 34,69 33,35 Z M 32,446 23,109 c 25,26 59,40 95,40 50,0 82,-51 82,-105 0,-77 -80,-117 -137,-169 -18,-17 -26,-48 -52,-48 -16,0 -28,15 -28,32 l -15,587 c 10,6 21,8 32,8 11,0 22,-2 32,-8 z"
       transform="scale(0.0029,-0.0029)" />
  </g>
  <g
     id="g982"
     transform="translate(7.5019,5.9009836)">
    <path
       id="path980"
       fill="currentColor"
       d="m 208,139 c 61,0 117,-33 117,-99 0,-71 -52,-119 -99,-147 -34,-20 -71,-32 -110,-32 -61,0 -116,33 -116,99 0,71 51,119 98,147 34,20 71,32 110,32 z"
       transform="scale(0.0029,-0.0029)" />
  </g>
  <g
     id="g986"
     transform="translate(8.397,4.7956836)">
    <rect
       id="rect984"
       fill="currentColor"
       ry="0.042100001"
       height="2.3301001"
       width="0.1228"
       y="-1.3441"
       x="-0.0614" />
  </g>
  <g
     id="g990"
     transform="translate(9.4084,6.6378836)">
    <path
       id="path988"
       fill="currentColor"
       d="m 208,139 c 61,0 117,-33 117,-99 0,-71 -52,-119 -99,-147 -34,-20 -71,-32 -110,-32 -61,0 -116,33 -116,99 0,71 51,119 98,147 34,20 71,32 110,32 z"
       transform="scale(0.0029,-0.0029)" />
  </g>
  <g
     id="g994"
     transform="translate(10.3035,4.7956836)">
    <rect
       id="rect992"
       fill="currentColor"
       ry="0.042100001"
       height="3.0669"
       width="0.1228"
       y="-1.3441"
       x="-0.0614" />
  </g>
  <g
     id="g998"
     transform="translate(31.5397,6.6378836)">
    <path
       id="path996"
       fill="currentColor"
       d="m 208,139 c 61,0 117,-33 117,-99 0,-71 -52,-119 -99,-147 -34,-20 -71,-32 -110,-32 -61,0 -116,33 -116,99 0,71 51,119 98,147 34,20 71,32 110,32 z"
       transform="scale(0.0029,-0.0029)" />
  </g>
  <g
     id="g1002"
     transform="translate(28.1218,4.7956836)">
    <rect
       id="rect1000"
       fill="currentColor"
       ry="0.042100001"
       height="3.3866999"
       width="0.1228"
       y="-2.4007001"
       x="-0.0614" />
  </g>
  <g
     id="g1006"
     transform="translate(29.3832,6.2693836)">
    <path
       id="path1004"
       fill="currentColor"
       d="m 208,139 c 61,0 117,-33 117,-99 0,-71 -52,-119 -99,-147 -34,-20 -71,-32 -110,-32 -61,0 -116,33 -116,99 0,71 51,119 98,147 34,20 71,32 110,32 z"
       transform="scale(0.0029,-0.0029)" />
  </g>
  <g
     id="g1010"
     transform="translate(30.2783,4.7956836)">
    <rect
       id="rect1008"
       fill="currentColor"
       ry="0.042100001"
       height="3.2981999"
       width="0.1228"
       y="-1.9437"
       x="-0.0614" />
  </g>
  <g
     id="g1014"
     transform="translate(27.2267,5.9009836)">
    <path
       id="path1012"
       fill="currentColor"
       d="m 208,139 c 61,0 117,-33 117,-99 0,-71 -52,-119 -99,-147 -34,-20 -71,-32 -110,-32 -61,0 -116,33 -116,99 0,71 51,119 98,147 34,20 71,32 110,32 z"
       transform="scale(0.0029,-0.0029)" />
  </g>
  <g
     id="g1018"
     transform="translate(32.4348,4.7956836)">
    <rect
       id="rect1016"
       fill="currentColor"
       ry="0.042100001"
       height="3.2096"
       width="0.1228"
       y="-1.4867001"
       x="-0.0614" />
  </g>
  <g
     id="g1022"
     transform="translate(35.0256,7.7430836)">
    <path
       id="path1020"
       fill="currentColor"
       d="m 208,139 c 61,0 117,-33 117,-99 0,-71 -52,-119 -99,-147 -34,-20 -71,-32 -110,-32 -61,0 -116,33 -116,99 0,71 51,119 98,147 34,20 71,32 110,32 z"
       transform="scale(0.0029,-0.0029)" />
  </g>
  <g
     id="g1026"
     transform="translate(35.9207,4.7956836)">
    <rect
       id="rect1024"
       fill="currentColor"
       ry="0.042100001"
       height="4.3147001"
       width="0.1228"
       y="-1.4865"
       x="-0.0614" />
  </g>
  <g
     id="g1030"
     transform="translate(20.4467,4.7956836)">
    <path
       id="path1028"
       fill="currentColor"
       d="m 208,139 c 61,0 117,-33 117,-99 0,-71 -52,-119 -99,-147 -34,-20 -71,-32 -110,-32 -61,0 -116,33 -116,99 0,71 51,119 98,147 34,20 71,32 110,32 z"
       transform="scale(0.0029,-0.0029)" />
  </g>
  <g
     id="g1034"
     transform="translate(21.3418,4.7956836)">
    <rect
       id="rect1032"
       fill="currentColor"
       ry="0.042100001"
       height="2.4707999"
       width="0.1228"
       y="-2.5899999"
       x="-0.0614" />
  </g>
  <g
     id="g1038"
     transform="translate(19.5909,4.7956836)">
    <path
       id="path1036"
       fill="currentColor"
       d="m -8,375 c 8,5 18,7 27,7 9,0 20,-2 28,-7 l -3,-196 99,24 h 4 c 11,0 20,-8 20,-19 l 8,-559 c -8,-5 -19,-7 -28,-7 -9,0 -19,2 -27,7 l 3,196 -99,-24 h -5 c -11,0 -19,8 -19,19 z M 127,109 42,89 l -2,-198 84,20 z"
       transform="scale(0.0029,-0.0029)" />
  </g>
  <g
     id="g1042"
     transform="translate(23.1637,4.4272836)">
    <path
       id="path1040"
       fill="currentColor"
       d="m 208,139 c 61,0 117,-33 117,-99 0,-71 -52,-119 -99,-147 -34,-20 -71,-32 -110,-32 -61,0 -116,33 -116,99 0,71 51,119 98,147 34,20 71,32 110,32 z"
       transform="scale(0.0029,-0.0029)" />
  </g>
  <g
     id="g1046"
     transform="translate(24.0588,4.7956836)">
    <rect
       id="rect1044"
       fill="currentColor"
       ry="0.042100001"
       height="2.3250999"
       width="0.1228"
       y="-2.8127"
       x="-0.0614" />
  </g>
  <g
     id="g1050"
     transform="translate(22.0032,4.4272836)">
    <path
       id="path1048"
       fill="currentColor"
       d="m 0,114 c 0,12 7,22 18,26 l 37,15 v 151 c 0,12 10,22 22,22 12,0 22,-10 22,-22 V 172 l 77,29 v 152 c 0,12 10,22 22,22 12,0 22,-10 22,-22 V 219 l 16,6 c 3,1 8,2 11,2 15,0 28,-12 28,-28 v -50 c 0,-12 -7,-23 -18,-27 L 220,108 V -44 l 16,7 c 3,1 8,2 11,2 15,0 28,-13 28,-29 v -50 c 0,-12 -7,-22 -18,-26 l -37,-15 v -151 c 0,-12 -10,-22 -22,-22 -12,0 -22,10 -22,22 v 134 l -77,-29 v -152 c 0,-12 -10,-22 -22,-22 -12,0 -22,10 -22,22 v 134 l -16,-6 c -3,-1 -8,-2 -11,-2 -15,0 -28,12 -28,28 v 50 c 0,12 7,23 18,27 l 37,14 V 44 L 39,37 C 36,36 31,35 28,35 13,35 0,48 0,64 Z M 176,91 99,61 V -91 l 77,30 z"
       transform="scale(0.0029,-0.0029)" />
  </g>
  <g
     id="g1054"
     transform="translate(25.3202,4.0588836)">
    <path
       id="path1052"
       fill="currentColor"
       d="m 208,139 c 61,0 117,-33 117,-99 0,-71 -52,-119 -99,-147 -34,-20 -71,-32 -110,-32 -61,0 -116,33 -116,99 0,71 51,119 98,147 34,20 71,32 110,32 z"
       transform="scale(0.0029,-0.0029)" />
  </g>
  <g
     id="g1058"
     transform="translate(26.2153,4.7956836)">
    <rect
       id="rect1056"
       fill="currentColor"
       ry="0.042100001"
       height="1.9487"
       width="0.1228"
       y="-2.8046999"
       x="-0.0614" />
  </g>
  <g
     id="g1062"
     transform="translate(91.1479,4.4272836)">
    <path
       id="path1060"
       fill="currentColor"
       d="m 0,114 c 0,12 7,22 18,26 l 37,15 v 151 c 0,12 10,22 22,22 12,0 22,-10 22,-22 V 172 l 77,29 v 152 c 0,12 10,22 22,22 12,0 22,-10 22,-22 V 219 l 16,6 c 3,1 8,2 11,2 15,0 28,-12 28,-28 v -50 c 0,-12 -7,-23 -18,-27 L 220,108 V -44 l 16,7 c 3,1 8,2 11,2 15,0 28,-13 28,-29 v -50 c 0,-12 -7,-22 -18,-26 l -37,-15 v -151 c 0,-12 -10,-22 -22,-22 -12,0 -22,10 -22,22 v 134 l -77,-29 v -152 c 0,-12 -10,-22 -22,-22 -12,0 -22,10 -22,22 v 134 l -16,-6 c -3,-1 -8,-2 -11,-2 -15,0 -28,12 -28,28 v 50 c 0,12 7,23 18,27 l 37,14 V 44 L 39,37 C 36,36 31,35 28,35 13,35 0,48 0,64 Z M 176,91 99,61 V -91 l 77,30 z"
       transform="scale(0.0029,-0.0029)" />
  </g>
  <g
     id="g1066"
     transform="translate(94.7149,3.6904836)">
    <path
       id="path1064"
       fill="currentColor"
       d="m 208,139 c 61,0 117,-33 117,-99 0,-71 -52,-119 -99,-147 -34,-20 -71,-32 -110,-32 -61,0 -116,33 -116,99 0,71 51,119 98,147 34,20 71,32 110,32 z"
       transform="scale(0.0029,-0.0029)" />
  </g>
  <g
     id="g1070"
     transform="translate(95.61,4.7956836)">
    <rect
       id="rect1068"
       fill="currentColor"
       ry="0.042100001"
       height="1.8155"
       width="0.1228"
       y="-3.0399001"
       x="-0.0614" />
  </g>
  <g
     id="g1074"
     transform="translate(96.6214,5.1641836)">
    <path
       id="path1072"
       fill="currentColor"
       d="m 208,139 c 61,0 117,-33 117,-99 0,-71 -52,-119 -99,-147 -34,-20 -71,-32 -110,-32 -61,0 -116,33 -116,99 0,71 51,119 98,147 34,20 71,32 110,32 z"
       transform="scale(0.0029,-0.0029)" />
  </g>
  <g
     id="g1078"
     transform="translate(97.5165,4.7956836)">
    <rect
       id="rect1076"
       fill="currentColor"
       ry="0.042100001"
       height="3.076"
       width="0.1228"
       y="-2.8268001"
       x="-0.0614" />
  </g>
  <g
     id="g1082"
     transform="translate(98.7779,5.5325836)">
    <path
       id="path1080"
       fill="currentColor"
       d="m 208,139 c 61,0 117,-33 117,-99 0,-71 -52,-119 -99,-147 -34,-20 -71,-32 -110,-32 -61,0 -116,33 -116,99 0,71 51,119 98,147 34,20 71,32 110,32 z"
       transform="scale(0.0029,-0.0029)" />
  </g>
  <g
     id="g1086"
     transform="translate(99.673,4.7956836)">
    <rect
       id="rect1084"
       fill="currentColor"
       ry="0.042100001"
       height="3.2033999"
       width="0.1228"
       y="-2.5857999"
       x="-0.0614" />
  </g>
  <g
     id="g1090"
     transform="translate(85.9956,3.6904836)">
    <path
       id="path1088"
       fill="currentColor"
       d="m 208,139 c 61,0 117,-33 117,-99 0,-71 -52,-119 -99,-147 -34,-20 -71,-32 -110,-32 -61,0 -116,33 -116,99 0,71 51,119 98,147 34,20 71,32 110,32 z"
       transform="scale(0.0029,-0.0029)" />
  </g>
  <g
     id="g1094"
     transform="translate(86.8907,4.7956836)">
    <rect
       id="rect1092"
       fill="currentColor"
       ry="0.042100001"
       height="2.6187999"
       width="0.1228"
       y="-3.8433001"
       x="-0.0614" />
  </g>
  <g
     id="g1098"
     transform="translate(85.0561,3.6904836)">
    <path
       id="path1096"
       fill="currentColor"
       d="m 33,35 -2,-60 v -11 c 0,-21 2,-43 5,-64 42,38 87,81 87,138 0,32 -13,63 -41,63 C 51,101 34,69 33,35 Z M 32,446 23,109 c 25,26 59,40 95,40 50,0 82,-51 82,-105 0,-77 -80,-117 -137,-169 -18,-17 -26,-48 -52,-48 -16,0 -28,15 -28,32 l -15,587 c 10,6 21,8 32,8 11,0 22,-2 32,-8 z"
       transform="scale(0.0029,-0.0029)" />
  </g>
  <g
     id="g1102"
     transform="translate(88.1521,4.0588836)">
    <path
       id="path1100"
       fill="currentColor"
       d="m 208,139 c 61,0 117,-33 117,-99 0,-71 -52,-119 -99,-147 -34,-20 -71,-32 -110,-32 -61,0 -116,33 -116,99 0,71 51,119 98,147 34,20 71,32 110,32 z"
       transform="scale(0.0029,-0.0029)" />
  </g>
  <g
     id="g1106"
     transform="translate(89.0472,4.7956836)">
    <rect
       id="rect1104"
       fill="currentColor"
       ry="0.042100001"
       height="3.4230001"
       width="0.1228"
       y="-4.2789998"
       x="-0.0614" />
  </g>
  <g
     id="g1110"
     transform="translate(92.3084,4.4272836)">
    <path
       id="path1108"
       fill="currentColor"
       d="m 208,139 c 61,0 117,-33 117,-99 0,-71 -52,-119 -99,-147 -34,-20 -71,-32 -110,-32 -61,0 -116,33 -116,99 0,71 51,119 98,147 34,20 71,32 110,32 z"
       transform="scale(0.0029,-0.0029)" />
  </g>
  <g
     id="g1114"
     transform="translate(109.3103,7.7430836)">
    <path
       id="path1112"
       fill="currentColor"
       d="m 208,139 c 61,0 117,-33 117,-99 0,-71 -52,-119 -99,-147 -34,-20 -71,-32 -110,-32 -61,0 -116,33 -116,99 0,71 51,119 98,147 34,20 71,32 110,32 z"
       transform="scale(0.0029,-0.0029)" />
  </g>
  <g
     id="g1118"
     transform="translate(110.2054,4.7956836)">
    <rect
       id="rect1116"
       fill="currentColor"
       ry="0.042100001"
       height="4.3146"
       width="0.1228"
       y="-1.4864"
       x="-0.0614" />
  </g>
  <g
     id="g1122"
     transform="translate(111.7168,6.2693836)">
    <path
       id="path1120"
       fill="currentColor"
       d="m 208,139 c 61,0 117,-33 117,-99 0,-71 -52,-119 -99,-147 -34,-20 -71,-32 -110,-32 -61,0 -116,33 -116,99 0,71 51,119 98,147 34,20 71,32 110,32 z"
       transform="scale(0.0029,-0.0029)" />
  </g>
  <g
     id="g1126"
     transform="translate(112.6119,4.7956836)">
    <rect
       id="rect1124"
       fill="currentColor"
       ry="0.042100001"
       height="3.3408999"
       width="0.1228"
       y="-1.9865"
       x="-0.0614" />
  </g>
  <g
     id="g1130"
     transform="translate(114.1233,4.0588836)">
    <path
       id="path1128"
       fill="currentColor"
       d="m 208,139 c 61,0 117,-33 117,-99 0,-71 -52,-119 -99,-147 -34,-20 -71,-32 -110,-32 -61,0 -116,33 -116,99 0,71 51,119 98,147 34,20 71,32 110,32 z"
       transform="scale(0.0029,-0.0029)" />
  </g>
  <g
     id="g1134"
     transform="translate(115.0184,4.7956836)">
    <rect
       id="rect1132"
       fill="currentColor"
       ry="0.042100001"
       height="1.6303999"
       width="0.1228"
       y="-2.4865"
       x="-0.0614" />
  </g>
  <g
     id="g1138"
     transform="translate(116.2798,4.4272836)">
    <path
       id="path1136"
       fill="currentColor"
       d="m 208,139 c 61,0 117,-33 117,-99 0,-71 -52,-119 -99,-147 -34,-20 -71,-32 -110,-32 -61,0 -116,33 -116,99 0,71 51,119 98,147 34,20 71,32 110,32 z"
       transform="scale(0.0029,-0.0029)" />
  </g>
  <g
     id="g1142"
     transform="translate(117.1749,4.7956836)">
    <rect
       id="rect1140"
       fill="currentColor"
       ry="0.042100001"
       height="2.447"
       width="0.1228"
       y="-2.9346001"
       x="-0.0614" />
  </g>
  <g
     id="g1146"
     transform="translate(100.9344,5.9009836)">
    <path
       id="path1144"
       fill="currentColor"
       d="m 208,139 c 61,0 117,-33 117,-99 0,-71 -52,-119 -99,-147 -34,-20 -71,-32 -110,-32 -61,0 -116,33 -116,99 0,71 51,119 98,147 34,20 71,32 110,32 z"
       transform="scale(0.0029,-0.0029)" />
  </g>
  <g
     id="g1150"
     transform="translate(101.8295,4.7956836)">
    <rect
       id="rect1148"
       fill="currentColor"
       ry="0.042100001"
       height="3.9300001"
       width="0.1228"
       y="-2.9439001"
       x="-0.0614" />
  </g>
  <g
     id="g1154"
     transform="translate(103.3409,4.0588836)">
    <path
       id="path1152"
       fill="currentColor"
       d="m 208,139 c 61,0 117,-33 117,-99 0,-71 -52,-119 -99,-147 -34,-20 -71,-32 -110,-32 -61,0 -116,33 -116,99 0,71 51,119 98,147 34,20 71,32 110,32 z"
       transform="scale(0.0029,-0.0029)" />
  </g>
  <g
     id="g1158"
     transform="translate(104.236,4.7956836)">
    <rect
       id="rect1156"
       fill="currentColor"
       ry="0.042100001"
       height="1.9534"
       width="0.1228"
       y="-2.8094001"
       x="-0.0614" />
  </g>
  <g
     id="g1162"
     transform="translate(93.2035,4.7956836)">
    <rect
       id="rect1160"
       fill="currentColor"
       ry="0.042100001"
       height="2.8213"
       width="0.1228"
       y="-3.3089001"
       x="-0.0614" />
  </g>
  <g
     id="g1166"
     transform="translate(105.2473,6.2693836)">
    <path
       id="path1164"
       fill="currentColor"
       d="m 208,139 c 61,0 117,-33 117,-99 0,-71 -52,-119 -99,-147 -34,-20 -71,-32 -110,-32 -61,0 -116,33 -116,99 0,71 51,119 98,147 34,20 71,32 110,32 z"
       transform="scale(0.0029,-0.0029)" />
  </g>
  <g
     id="g1170"
     transform="translate(106.1424,4.7956836)">
    <rect
       id="rect1168"
       fill="currentColor"
       ry="0.042100001"
       height="4.0574002"
       width="0.1228"
       y="-2.7028999"
       x="-0.0614" />
  </g>
  <g
     id="g1174"
     transform="translate(107.4038,6.6378836)">
    <path
       id="path1172"
       fill="currentColor"
       d="m 208,139 c 61,0 117,-33 117,-99 0,-71 -52,-119 -99,-147 -34,-20 -71,-32 -110,-32 -61,0 -116,33 -116,99 0,71 51,119 98,147 34,20 71,32 110,32 z"
       transform="scale(0.0029,-0.0029)" />
  </g>
  <g
     id="g1178"
     transform="translate(108.2989,4.7956836)">
    <rect
       id="rect1176"
       fill="currentColor"
       ry="0.042100001"
       height="4.3053002"
       width="0.1228"
       y="-2.5824001"
       x="-0.0614" />
  </g>
  <g
     id="g1182"
     transform="translate(79.7193,4.7956836)">
    <rect
       id="rect1180"
       fill="currentColor"
       ry="0.042100001"
       height="2.8317001"
       width="0.1228"
       y="-0.0035999999"
       x="-0.0614" />
  </g>
  <g
     id="g1186"
     transform="translate(81.8758,4.7956836)">
    <rect
       id="rect1184"
       fill="currentColor"
       ry="0.042100001"
       height="6.0267"
       width="0.1228"
       y="-2.8301001"
       x="-0.0614" />
  </g>
  <g
     id="g1190"
     transform="translate(73.4998,4.7956836)">
    <rect
       id="rect1188"
       fill="currentColor"
       ry="0.042100001"
       height="2.0876999"
       width="0.1228"
       y="-0.36489999"
       x="-0.0614" />
  </g>
  <g
     id="g1194"
     transform="translate(70.4482,6.2693836)">
    <path
       id="path1192"
       fill="currentColor"
       d="m 208,139 c 61,0 117,-33 117,-99 0,-71 -52,-119 -99,-147 -34,-20 -71,-32 -110,-32 -61,0 -116,33 -116,99 0,71 51,119 98,147 34,20 71,32 110,32 z"
       transform="scale(0.0029,-0.0029)" />
  </g>
  <g
     id="g1198"
     transform="translate(71.3433,4.7956836)">
    <rect
       id="rect1196"
       fill="currentColor"
       ry="0.042100001"
       height="2.7063"
       width="0.1228"
       y="-1.3519"
       x="-0.0614" />
  </g>
  <g
     id="g1202"
     transform="translate(80.9807,8.1114836)">
    <path
       id="path1200"
       fill="currentColor"
       d="m 208,139 c 61,0 117,-33 117,-99 0,-71 -52,-119 -99,-147 -34,-20 -71,-32 -110,-32 -61,0 -116,33 -116,99 0,71 51,119 98,147 34,20 71,32 110,32 z"
       transform="scale(0.0029,-0.0029)" />
  </g>
  <g
     id="g1206"
     transform="translate(78.8242,7.7430836)">
    <path
       id="path1204"
       fill="currentColor"
       d="m 208,139 c 61,0 117,-33 117,-99 0,-71 -52,-119 -99,-147 -34,-20 -71,-32 -110,-32 -61,0 -116,33 -116,99 0,71 51,119 98,147 34,20 71,32 110,32 z"
       transform="scale(0.0029,-0.0029)" />
  </g>
  <g
     id="g1210"
     transform="translate(72.6047,6.6378836)">
    <path
       id="path1208"
       fill="currentColor"
       d="m 208,139 c 61,0 117,-33 117,-99 0,-71 -52,-119 -99,-147 -34,-20 -71,-32 -110,-32 -61,0 -116,33 -116,99 0,71 51,119 98,147 34,20 71,32 110,32 z"
       transform="scale(0.0029,-0.0029)" />
  </g>
  <g
     id="g1214"
     transform="translate(76.6677,7.3746836)">
    <path
       id="path1212"
       fill="currentColor"
       d="m 208,139 c 61,0 117,-33 117,-99 0,-71 -52,-119 -99,-147 -34,-20 -71,-32 -110,-32 -61,0 -116,33 -116,99 0,71 51,119 98,147 34,20 71,32 110,32 z"
       transform="scale(0.0029,-0.0029)" />
  </g>
  <g
     id="g1218"
     transform="translate(69.5088,6.2693836)">
    <path
       id="path1216"
       fill="currentColor"
       d="m 33,35 -2,-60 v -11 c 0,-21 2,-43 5,-64 42,38 87,81 87,138 0,32 -13,63 -41,63 C 51,101 34,69 33,35 Z M 32,446 23,109 c 25,26 59,40 95,40 50,0 82,-51 82,-105 0,-77 -80,-117 -137,-169 -18,-17 -26,-48 -52,-48 -16,0 -28,15 -28,32 l -15,587 c 10,6 21,8 32,8 11,0 22,-2 32,-8 z"
       transform="scale(0.0029,-0.0029)" />
  </g>
  <g
     id="g1222"
     transform="translate(77.5628,4.7956836)">
    <rect
       id="rect1220"
       fill="currentColor"
       ry="0.042100001"
       height="2.5885999"
       width="0.1228"
       y="-0.1288"
       x="-0.0614" />
  </g>
  <g
     id="g1226"
     transform="translate(74.7612,7.0062836)">
    <path
       id="path1224"
       fill="currentColor"
       d="m 208,139 c 61,0 117,-33 117,-99 0,-71 -52,-119 -99,-147 -34,-20 -71,-32 -110,-32 -61,0 -116,33 -116,99 0,71 51,119 98,147 34,20 71,32 110,32 z"
       transform="scale(0.0029,-0.0029)" />
  </g>
  <g
     id="g1230"
     transform="translate(84.2823,4.7956836)">
    <rect
       id="rect1228"
       fill="currentColor"
       ry="0.042100001"
       height="3.934"
       width="0.1228"
       y="-3.3162999"
       x="-0.0614" />
  </g>
  <g
     id="g1234"
     transform="translate(83.3872,5.5325836)">
    <path
       id="path1232"
       fill="currentColor"
       d="m 208,139 c 61,0 117,-33 117,-99 0,-71 -52,-119 -99,-147 -34,-20 -71,-32 -110,-32 -61,0 -116,33 -116,99 0,71 51,119 98,147 34,20 71,32 110,32 z"
       transform="scale(0.0029,-0.0029)" />
  </g>
  <g
     id="g1238"
     transform="translate(75.6563,4.7956836)">
    <rect
       id="rect1236"
       fill="currentColor"
       ry="0.042100001"
       height="2.3309"
       width="0.1228"
       y="-0.2396"
       x="-0.0614" />
  </g>
  <g
     id="g1242"
     transform="translate(67.8398,5.9009836)">
    <path
       id="path1240"
       fill="currentColor"
       d="m 208,139 c 61,0 117,-33 117,-99 0,-71 -52,-119 -99,-147 -34,-20 -71,-32 -110,-32 -61,0 -116,33 -116,99 0,71 51,119 98,147 34,20 71,32 110,32 z"
       transform="scale(0.0029,-0.0029)" />
  </g>
  <g
     id="g1246"
     transform="translate(68.7349,4.7956836)">
    <rect
       id="rect1244"
       fill="currentColor"
       ry="0.042100001"
       height="2.6705999"
       width="0.1228"
       y="-1.6845"
       x="-0.0614" />
  </g>
</svg>
