<?xml version="1.0" encoding="UTF-8" standalone="no"?>
<svg
   xmlns:dc="http://purl.org/dc/elements/1.1/"
   xmlns:cc="http://creativecommons.org/ns#"
   xmlns:rdf="http://www.w3.org/1999/02/22-rdf-syntax-ns#"
   xmlns:svg="http://www.w3.org/2000/svg"
   xmlns="http://www.w3.org/2000/svg"
   xmlns:sodipodi="http://sodipodi.sourceforge.net/DTD/sodipodi-0.dtd"
   xmlns:inkscape="http://www.inkscape.org/namespaces/inkscape"
   sodipodi:docname="bwv-1004_5_for_PNGs-22.svg"
   id="svg1304"
   viewBox="0 0 224.70579 8.5554992"
   height="14.28284mm"
   width="375.1315mm"
   version="1.2">
  <metadata
     id="metadata1310">
    <rdf:RDF>
      <cc:Work
         rdf:about="">
        <dc:format>image/svg+xml</dc:format>
        <dc:type
           rdf:resource="http://purl.org/dc/dcmitype/StillImage" />
      </cc:Work>
    </rdf:RDF>
  </metadata>
  <defs
     id="defs1308" />
  <sodipodi:namedview
     id="namedview1306"
     inkscape:window-height="480"
     inkscape:window-width="640"
     inkscape:pageshadow="2"
     inkscape:pageopacity="0"
     guidetolerance="10"
     gridtolerance="10"
     objecttolerance="10"
     borderopacity="1"
     bordercolor="#666666"
     pagecolor="#ffffff" />
  <style
     id="style2"
     type="text/css"><![CDATA[
tspan { white-space: pre; }
]]></style>
  <g
     id="g6"
     transform="translate(0,6.6786984)">
    <line
       id="line4"
       y2="0"
       x2="224.6586"
       y1="0"
       x1="0.047200002"
       stroke="currentColor"
       stroke-width="0.0944"
       stroke-linecap="round"
       stroke-linejoin="round" />
  </g>
  <g
     id="g10"
     transform="translate(0,5.9418984)">
    <line
       id="line8"
       y2="0"
       x2="224.6586"
       y1="0"
       x1="0.047200002"
       stroke="currentColor"
       stroke-width="0.0944"
       stroke-linecap="round"
       stroke-linejoin="round" />
  </g>
  <g
     id="g14"
     transform="translate(0,5.2049984)">
    <line
       id="line12"
       y2="0"
       x2="224.6586"
       y1="0"
       x1="0.047200002"
       stroke="currentColor"
       stroke-width="0.0944"
       stroke-linecap="round"
       stroke-linejoin="round" />
  </g>
  <g
     id="g18"
     transform="translate(0,4.4681984)">
    <line
       id="line16"
       y2="0"
       x2="224.6586"
       y1="0"
       x1="0.047200002"
       stroke="currentColor"
       stroke-width="0.0944"
       stroke-linecap="round"
       stroke-linejoin="round" />
  </g>
  <g
     id="g22"
     transform="translate(0,3.7313984)">
    <line
       id="line20"
       y2="0"
       x2="224.6586"
       y1="0"
       x1="0.047200002"
       stroke="currentColor"
       stroke-width="0.0944"
       stroke-linecap="round"
       stroke-linejoin="round" />
  </g>
  <g
     id="g26"
     transform="translate(59.2562,5.2049984)">
    <rect
       id="rect24"
       fill="currentColor"
       ry="0.0000"
       height="2.9474001"
       width="0.1794"
       y="-1.4737"
       x="0" />
  </g>
  <g
     id="g30"
     transform="translate(140.6413,5.2049984)">
    <rect
       id="rect28"
       fill="currentColor"
       ry="0.0000"
       height="2.9474001"
       width="0.1794"
       y="-1.4737"
       x="0" />
  </g>
  <g
     id="g34"
     transform="translate(224.5264,5.2049984)">
    <rect
       id="rect32"
       fill="currentColor"
       ry="0.0000"
       height="2.9474001"
       width="0.1794"
       y="-1.4737"
       x="0" />
  </g>
  <g
     id="g38"
     transform="translate(33.2989,5.2049984)">
    <rect
       id="rect36"
       fill="currentColor"
       ry="0.0000"
       height="2.9474001"
       width="0.1794"
       y="-1.4737"
       x="0" />
  </g>
  <g
     id="g42"
     transform="translate(86.274,5.2049984)">
    <rect
       id="rect40"
       fill="currentColor"
       ry="0.0000"
       height="2.9474001"
       width="0.1794"
       y="-1.4737"
       x="0" />
  </g>
  <g
     id="g46"
     transform="translate(168.5985,5.2049984)">
    <rect
       id="rect44"
       fill="currentColor"
       ry="0.0000"
       height="2.9474001"
       width="0.1794"
       y="-1.4737"
       x="0" />
  </g>
  <g
     id="g50"
     transform="translate(113.184,5.2049984)">
    <rect
       id="rect48"
       fill="currentColor"
       ry="0.0000"
       height="2.9474001"
       width="0.1794"
       y="-1.4737"
       x="0" />
  </g>
  <g
     id="g54"
     transform="translate(196.8663,5.2049984)">
    <rect
       id="rect52"
       fill="currentColor"
       ry="0.0000"
       height="2.9474001"
       width="0.1794"
       y="-1.4737"
       x="0" />
  </g>
  <g
     id="g58"
     transform="translate(0,7.4155984)">
    <rect
       id="rect56"
       fill="currentColor"
       ry="0.084100001"
       height="0.1681"
       width="1.4347"
       y="-0.084100001"
       x="197.7067" />
  </g>
  <g
     id="g62"
     transform="translate(0,8.1523984)">
    <rect
       id="rect60"
       fill="currentColor"
       ry="0.084100001"
       height="0.1681"
       width="1.4347"
       y="-0.084100001"
       x="197.7067" />
  </g>
  <g
     id="g66"
     transform="translate(0,7.4155984)">
    <rect
       id="rect64"
       fill="currentColor"
       ry="0.084100001"
       height="0.1681"
       width="1.4347"
       y="-0.084100001"
       x="182.37781" />
  </g>
  <g
     id="g70"
     transform="translate(0,7.4155984)">
    <rect
       id="rect68"
       fill="currentColor"
       ry="0.084100001"
       height="0.1681"
       width="1.4347"
       y="-0.084100001"
       x="169.4389" />
  </g>
  <g
     id="g74"
     transform="translate(0,7.4155984)">
    <rect
       id="rect72"
       fill="currentColor"
       ry="0.084100001"
       height="0.1681"
       width="1.4347"
       y="-0.084100001"
       x="165.953" />
  </g>
  <g
     id="g78"
     transform="translate(0,8.1523984)">
    <rect
       id="rect76"
       fill="currentColor"
       ry="0.084100001"
       height="0.1681"
       width="1.4347"
       y="-0.084100001"
       x="165.953" />
  </g>
  <g
     id="g82"
     transform="translate(0,7.4155984)">
    <rect
       id="rect80"
       fill="currentColor"
       ry="0.084100001"
       height="0.1681"
       width="1.4347"
       y="-0.084100001"
       x="154.4205" />
  </g>
  <g
     id="g86"
     transform="translate(0,7.4155984)">
    <rect
       id="rect84"
       fill="currentColor"
       ry="0.084100001"
       height="0.1681"
       width="1.4347"
       y="-0.084100001"
       x="141.4816" />
  </g>
  <g
     id="g90"
     transform="translate(0,7.4155984)">
    <rect
       id="rect88"
       fill="currentColor"
       ry="0.084100001"
       height="0.1681"
       width="1.4347"
       y="-0.084100001"
       x="137.9957" />
  </g>
  <g
     id="g94"
     transform="translate(0,2.9944984)">
    <rect
       id="rect92"
       fill="currentColor"
       ry="0.084100001"
       height="0.1681"
       width="1.4347"
       y="-0.084100001"
       x="95.740303" />
  </g>
  <g
     id="g98"
     transform="translate(0,2.9944984)">
    <rect
       id="rect96"
       fill="currentColor"
       ry="0.084100001"
       height="0.1681"
       width="1.4347"
       y="-0.084100001"
       x="93.583801" />
  </g>
  <g
     id="g102"
     transform="translate(0,2.9944984)">
    <rect
       id="rect100"
       fill="currentColor"
       ry="0.084100001"
       height="0.1681"
       width="1.4347"
       y="-0.084100001"
       x="91.427299" />
  </g>
  <g
     id="g106"
     transform="translate(0,2.9944984)">
    <rect
       id="rect104"
       fill="currentColor"
       ry="0.084100001"
       height="0.1681"
       width="1.4347"
       y="-0.084100001"
       x="87.114304" />
  </g>
  <g
     id="g110"
     transform="translate(0,2.9944984)">
    <rect
       id="rect108"
       fill="currentColor"
       ry="0.084100001"
       height="0.1681"
       width="1.4347"
       y="-0.084100001"
       x="81.971901" />
  </g>
  <g
     id="g114"
     transform="translate(0,2.9944984)">
    <rect
       id="rect112"
       fill="currentColor"
       ry="0.084100001"
       height="0.1681"
       width="1.4347"
       y="-0.084100001"
       x="68.722504" />
  </g>
  <g
     id="g118"
     transform="translate(0,2.9944984)">
    <rect
       id="rect116"
       fill="currentColor"
       ry="0.084100001"
       height="0.1681"
       width="1.4347"
       y="-0.084100001"
       x="66.566002" />
  </g>
  <g
     id="g122"
     transform="translate(0,2.9944984)">
    <rect
       id="rect120"
       fill="currentColor"
       ry="0.084100001"
       height="0.1681"
       width="1.4347"
       y="-0.084100001"
       x="64.4095" />
  </g>
  <g
     id="g126"
     transform="translate(0,7.4155984)">
    <rect
       id="rect124"
       fill="currentColor"
       ry="0.084100001"
       height="0.1681"
       width="1.4347"
       y="-0.084100001"
       x="62.002998" />
  </g>
  <g
     id="g130"
     transform="translate(0,7.4155984)">
    <rect
       id="rect128"
       fill="currentColor"
       ry="0.084100001"
       height="0.1681"
       width="1.4347"
       y="-0.084100001"
       x="56.6106" />
  </g>
  <g
     id="g134"
     transform="translate(0,7.4155984)">
    <rect
       id="rect132"
       fill="currentColor"
       ry="0.084100001"
       height="0.1681"
       width="1.4347"
       y="-0.084100001"
       x="54.204102" />
  </g>
  <g
     id="g138"
     transform="translate(0,8.1523984)">
    <rect
       id="rect136"
       fill="currentColor"
       ry="0.084100001"
       height="0.1681"
       width="1.4347"
       y="-0.084100001"
       x="54.204102" />
  </g>
  <g
     id="g142"
     transform="translate(0,7.4155984)">
    <rect
       id="rect140"
       fill="currentColor"
       ry="0.084100001"
       height="0.1681"
       width="1.4347"
       y="-0.084100001"
       x="52.2976" />
  </g>
  <g
     id="g146"
     transform="translate(0,2.9944984)">
    <rect
       id="rect144"
       fill="currentColor"
       ry="0.084100001"
       height="0.1681"
       width="1.4347"
       y="-0.084100001"
       x="42.765202" />
  </g>
  <g
     id="g150"
     transform="translate(0,2.9944984)">
    <rect
       id="rect148"
       fill="currentColor"
       ry="0.084100001"
       height="0.1681"
       width="1.4347"
       y="-0.084100001"
       x="40.6087" />
  </g>
  <g
     id="g154"
     transform="translate(0,2.9944984)">
    <rect
       id="rect152"
       fill="currentColor"
       ry="0.084100001"
       height="0.1681"
       width="1.4347"
       y="-0.084100001"
       x="38.452202" />
  </g>
  <g
     id="g158"
     transform="translate(0,7.4155984)">
    <rect
       id="rect156"
       fill="currentColor"
       ry="0.084100001"
       height="0.1681"
       width="1.4347"
       y="-0.084100001"
       x="36.0457" />
  </g>
  <g
     id="g162"
     transform="translate(0,7.4155984)">
    <rect
       id="rect160"
       fill="currentColor"
       ry="0.084100001"
       height="0.1681"
       width="1.4347"
       y="-0.084100001"
       x="28.246799" />
  </g>
  <g
     id="g166"
     transform="translate(0,8.1523984)">
    <rect
       id="rect164"
       fill="currentColor"
       ry="0.084100001"
       height="0.1681"
       width="1.4347"
       y="-0.084100001"
       x="28.246799" />
  </g>
  <g
     id="g170"
     transform="translate(0,2.9944984)">
    <rect
       id="rect168"
       fill="currentColor"
       ry="0.084100001"
       height="0.1681"
       width="1.4347"
       y="-0.084100001"
       x="16.807899" />
  </g>
  <g
     id="g174"
     transform="translate(0,2.9944984)">
    <rect
       id="rect172"
       fill="currentColor"
       ry="0.084100001"
       height="0.1681"
       width="1.4347"
       y="-0.084100001"
       x="14.6514" />
  </g>
  <g
     id="g178"
     transform="translate(0,2.9944984)">
    <rect
       id="rect176"
       fill="currentColor"
       ry="0.084100001"
       height="0.1681"
       width="1.4347"
       y="-0.084100001"
       x="12.4949" />
  </g>
  <g
     id="g182"
     transform="translate(154.6596,7.4155984)">
    <path
       id="path180"
       fill="currentColor"
       d="m 208,139 c 61,0 117,-33 117,-99 0,-71 -52,-119 -99,-147 -34,-20 -71,-32 -110,-32 -61,0 -116,33 -116,99 0,71 51,119 98,147 34,20 71,32 110,32 z"
       transform="scale(0.0029,-0.0029)" />
  </g>
  <g
     id="g186"
     transform="translate(155.5547,5.2049984)">
    <rect
       id="rect184"
       fill="currentColor"
       ry="0.042100001"
       height="3.1149001"
       width="0.1228"
       y="-1.0236"
       x="-0.0614" />
  </g>
  <g
     id="g190"
     transform="translate(157.0661,6.6786984)">
    <path
       id="path188"
       fill="currentColor"
       d="m 208,139 c 61,0 117,-33 117,-99 0,-71 -52,-119 -99,-147 -34,-20 -71,-32 -110,-32 -61,0 -116,33 -116,99 0,71 51,119 98,147 34,20 71,32 110,32 z"
       transform="scale(0.0029,-0.0029)" />
  </g>
  <g
     id="g194"
     transform="translate(157.9612,5.2049984)">
    <rect
       id="rect192"
       fill="currentColor"
       ry="0.042100001"
       height="2.0984001"
       width="0.1228"
       y="-0.74400002"
       x="-0.0614" />
  </g>
  <g
     id="g198"
     transform="translate(159.4726,5.5734984)">
    <path
       id="path196"
       fill="currentColor"
       d="m 208,139 c 61,0 117,-33 117,-99 0,-71 -52,-119 -99,-147 -34,-20 -71,-32 -110,-32 -61,0 -116,33 -116,99 0,71 51,119 98,147 34,20 71,32 110,32 z"
       transform="scale(0.0029,-0.0029)" />
  </g>
  <g
     id="g202"
     transform="translate(160.3677,5.2049984)">
    <rect
       id="rect200"
       fill="currentColor"
       ry="0.042100001"
       height="3.0669"
       width="0.1228"
       y="-2.8176999"
       x="-0.0614" />
  </g>
  <g
     id="g206"
     transform="translate(148.6901,5.5734984)">
    <path
       id="path204"
       fill="currentColor"
       d="m 208,139 c 61,0 117,-33 117,-99 0,-71 -52,-119 -99,-147 -34,-20 -71,-32 -110,-32 -61,0 -116,33 -116,99 0,71 51,119 98,147 34,20 71,32 110,32 z"
       transform="scale(0.0029,-0.0029)" />
  </g>
  <g
     id="g210"
     transform="translate(150.8466,5.5734984)">
    <path
       id="path208"
       fill="currentColor"
       d="m 208,139 c 61,0 117,-33 117,-99 0,-71 -52,-119 -99,-147 -34,-20 -71,-32 -110,-32 -61,0 -116,33 -116,99 0,71 51,119 98,147 34,20 71,32 110,32 z"
       transform="scale(0.0029,-0.0029)" />
  </g>
  <g
     id="g214"
     transform="translate(149.5853,5.2049984)">
    <rect
       id="rect212"
       fill="currentColor"
       ry="0.042100001"
       height="2.8185999"
       width="0.1228"
       y="-2.5694001"
       x="-0.0614" />
  </g>
  <g
     id="g218"
     transform="translate(148.7515,5.2049984)">
    <rect
       id="rect216"
       fill="currentColor"
       ry="0.042100001"
       height="2.0913"
       width="0.1228"
       y="0.4876"
       x="-0.0614" />
  </g>
  <g
     id="g222"
     transform="translate(150.8466,5.5734984)">
    <path
       id="path220"
       fill="currentColor"
       d="m 208,139 c 61,0 117,-33 117,-99 0,-71 -52,-119 -99,-147 -34,-20 -71,-32 -110,-32 -61,0 -116,33 -116,99 0,71 51,119 98,147 34,20 71,32 110,32 z"
       transform="scale(0.0029,-0.0029)" />
  </g>
  <g
     id="g226"
     transform="translate(153.6482,5.2049984)">
    <rect
       id="rect224"
       fill="currentColor"
       ry="0.042100001"
       height="2.5994999"
       width="0.1228"
       y="-1.2451"
       x="-0.0614" />
  </g>
  <g
     id="g230"
     transform="translate(151.7417,5.2049984)">
    <rect
       id="rect228"
       fill="currentColor"
       ry="0.042100001"
       height="1.7157"
       width="0.1228"
       y="-1.4665999"
       x="-0.0614" />
  </g>
  <g
     id="g234"
     transform="translate(150.908,5.2049984)">
    <rect
       id="rect232"
       fill="currentColor"
       ry="0.042100001"
       height="2.2755001"
       width="0.1228"
       y="0.4876"
       x="-0.0614" />
  </g>
  <g
     id="g238"
     transform="translate(150.9694,7.9260984)">
    <path
       id="path236"
       fill="currentColor"
       d="m 266,659 c 0,-44 -15,-80 -38,-114 16,-35 25,-73 25,-111 C 253,254 1,180 0,1 V 0 H -21 V 500 H 0 v -70 c 94,49 217,126 217,229 0,20 -5,41 -14,59 v 5 c 0,16 13,26 27,26 32,0 36,-61 36,-90 z M 0,205 c 88,51 204,130 204,229 0,22 -4,44 -12,65 C 113,414 0,344 0,225 Z"
       transform="scale(0.0029,-0.0029)" />
  </g>
  <g
     id="g242"
     transform="translate(152.7531,6.6786984)">
    <path
       id="path240"
       fill="currentColor"
       d="m 208,139 c 61,0 117,-33 117,-99 0,-71 -52,-119 -99,-147 -34,-20 -71,-32 -110,-32 -61,0 -116,33 -116,99 0,71 51,119 98,147 34,20 71,32 110,32 z"
       transform="scale(0.0029,-0.0029)" />
  </g>
  <g
     id="g246"
     transform="translate(172.0845,7.0471984)">
    <path
       id="path244"
       fill="currentColor"
       d="m 208,139 c 61,0 117,-33 117,-99 0,-71 -52,-119 -99,-147 -34,-20 -71,-32 -110,-32 -61,0 -116,33 -116,99 0,71 51,119 98,147 34,20 71,32 110,32 z"
       transform="scale(0.0029,-0.0029)" />
  </g>
  <g
     id="g250"
     transform="translate(172.9796,5.2049984)">
    <rect
       id="rect248"
       fill="currentColor"
       ry="0.042100001"
       height="3.4965999"
       width="0.1228"
       y="-1.7738"
       x="-0.0614" />
  </g>
  <g
     id="g254"
     transform="translate(174.4909,5.5734984)">
    <path
       id="path252"
       fill="currentColor"
       d="m 208,139 c 61,0 117,-33 117,-99 0,-71 -52,-119 -99,-147 -34,-20 -71,-32 -110,-32 -61,0 -116,33 -116,99 0,71 51,119 98,147 34,20 71,32 110,32 z"
       transform="scale(0.0029,-0.0029)" />
  </g>
  <g
     id="g258"
     transform="translate(174.4909,5.5734984)">
    <path
       id="path256"
       fill="currentColor"
       d="m 208,139 c 61,0 117,-33 117,-99 0,-71 -52,-119 -99,-147 -34,-20 -71,-32 -110,-32 -61,0 -116,33 -116,99 0,71 51,119 98,147 34,20 71,32 110,32 z"
       transform="scale(0.0029,-0.0029)" />
  </g>
  <g
     id="g262"
     transform="translate(175.386,5.2049984)">
    <rect
       id="rect260"
       fill="currentColor"
       ry="0.042100001"
       height="2.4419999"
       width="0.1228"
       y="-2.1928"
       x="-0.0614" />
  </g>
  <g
     id="g266"
     transform="translate(174.5523,5.2049984)">
    <rect
       id="rect264"
       fill="currentColor"
       ry="0.042100001"
       height="2.0913"
       width="0.1228"
       y="0.4876"
       x="-0.0614" />
  </g>
  <g
     id="g270"
     transform="translate(166.1921,8.1523984)">
    <path
       id="path268"
       fill="currentColor"
       d="m 208,139 c 61,0 117,-33 117,-99 0,-71 -52,-119 -99,-147 -34,-20 -71,-32 -110,-32 -61,0 -116,33 -116,99 0,71 51,119 98,147 34,20 71,32 110,32 z"
       transform="scale(0.0029,-0.0029)" />
  </g>
  <g
     id="g274"
     transform="translate(161.8791,4.8365984)">
    <path
       id="path272"
       fill="currentColor"
       d="m 208,139 c 61,0 117,-33 117,-99 0,-71 -52,-119 -99,-147 -34,-20 -71,-32 -110,-32 -61,0 -116,33 -116,99 0,71 51,119 98,147 34,20 71,32 110,32 z"
       transform="scale(0.0029,-0.0029)" />
  </g>
  <g
     id="g278"
     transform="translate(162.7742,5.2049984)">
    <rect
       id="rect276"
       fill="currentColor"
       ry="0.042100001"
       height="2.3301001"
       width="0.1228"
       y="-2.8176999"
       x="-0.0614" />
  </g>
  <g
     id="g282"
     transform="translate(164.2856,4.0997984)">
    <path
       id="path280"
       fill="currentColor"
       d="m 208,139 c 61,0 117,-33 117,-99 0,-71 -52,-119 -99,-147 -34,-20 -71,-32 -110,-32 -61,0 -116,33 -116,99 0,71 51,119 98,147 34,20 71,32 110,32 z"
       transform="scale(0.0029,-0.0029)" />
  </g>
  <g
     id="g286"
     transform="translate(165.1807,5.2049984)">
    <rect
       id="rect284"
       fill="currentColor"
       ry="0.042100001"
       height="1.5933"
       width="0.1228"
       y="-2.8176999"
       x="-0.0614" />
  </g>
  <g
     id="g290"
     transform="translate(167.0872,5.2049984)">
    <rect
       id="rect288"
       fill="currentColor"
       ry="0.042100001"
       height="5.6458998"
       width="0.1228"
       y="-2.8176999"
       x="-0.0614" />
  </g>
  <g
     id="g294"
     transform="translate(169.678,7.7839984)">
    <path
       id="path292"
       fill="currentColor"
       d="m 208,139 c 61,0 117,-33 117,-99 0,-71 -52,-119 -99,-147 -34,-20 -71,-32 -110,-32 -61,0 -116,33 -116,99 0,71 51,119 98,147 34,20 71,32 110,32 z"
       transform="scale(0.0029,-0.0029)" />
  </g>
  <g
     id="g298"
     transform="translate(170.5731,5.2049984)">
    <rect
       id="rect296"
       fill="currentColor"
       ry="0.042100001"
       height="3.8145001"
       width="0.1228"
       y="-1.3547"
       x="-0.0614" />
  </g>
  <g
     id="g302"
     transform="translate(124.7958,6.3102984)">
    <path
       id="path300"
       fill="currentColor"
       d="m 208,139 c 61,0 117,-33 117,-99 0,-71 -52,-119 -99,-147 -34,-20 -71,-32 -110,-32 -61,0 -116,33 -116,99 0,71 51,119 98,147 34,20 71,32 110,32 z"
       transform="scale(0.0029,-0.0029)" />
  </g>
  <g
     id="g306"
     transform="translate(125.6909,5.2049984)">
    <rect
       id="rect304"
       fill="currentColor"
       ry="0.042100001"
       height="2.8785"
       width="0.1228"
       y="-1.8925"
       x="-0.0614" />
  </g>
  <g
     id="g310"
     transform="translate(126.7023,7.0471984)">
    <path
       id="path308"
       fill="currentColor"
       d="m 208,139 c 61,0 117,-33 117,-99 0,-71 -52,-119 -99,-147 -34,-20 -71,-32 -110,-32 -61,0 -116,33 -116,99 0,71 51,119 98,147 34,20 71,32 110,32 z"
       transform="scale(0.0029,-0.0029)" />
  </g>
  <g
     id="g314"
     transform="translate(127.5974,5.2049984)">
    <rect
       id="rect312"
       fill="currentColor"
       ry="0.042100001"
       height="3.4328001"
       width="0.1228"
       y="-1.71"
       x="-0.0614" />
  </g>
  <g
     id="g318"
     transform="translate(129.1088,6.3102984)">
    <path
       id="path316"
       fill="currentColor"
       d="m 208,139 c 61,0 117,-33 117,-99 0,-71 -52,-119 -99,-147 -34,-20 -71,-32 -110,-32 -61,0 -116,33 -116,99 0,71 51,119 98,147 34,20 71,32 110,32 z"
       transform="scale(0.0029,-0.0029)" />
  </g>
  <g
     id="g322"
     transform="translate(130.0039,5.2049984)">
    <rect
       id="rect320"
       fill="currentColor"
       ry="0.042100001"
       height="2.4656"
       width="0.1228"
       y="-1.4796"
       x="-0.0614" />
  </g>
  <g
     id="g326"
     transform="translate(131.5153,5.5734984)">
    <path
       id="path324"
       fill="currentColor"
       d="m 208,139 c 61,0 117,-33 117,-99 0,-71 -52,-119 -99,-147 -34,-20 -71,-32 -110,-32 -61,0 -116,33 -116,99 0,71 51,119 98,147 34,20 71,32 110,32 z"
       transform="scale(0.0029,-0.0029)" />
  </g>
  <g
     id="g330"
     transform="translate(132.4104,5.2049984)">
    <rect
       id="rect328"
       fill="currentColor"
       ry="0.042100001"
       height="3.5650001"
       width="0.1228"
       y="-3.3158"
       x="-0.0614" />
  </g>
  <g
     id="g334"
     transform="translate(217.0314,1.8892984)">
    <polygon
       id="polygon332"
       points="0.0421,0.1347 0.0421,-0.1347 6.0501,0.9705 6.0501,1.24 "
       stroke="currentColor"
       fill="currentColor"
       stroke-width="0.0842"
       stroke-linecap="round"
       stroke-linejoin="round" />
  </g>
  <g
     id="g338"
     transform="translate(217.0314,2.4964984)">
    <polygon
       id="polygon336"
       points="0.0421,0.1347 0.0421,-0.1347 6.0501,0.9705 6.0501,1.24 "
       stroke="currentColor"
       fill="currentColor"
       stroke-width="0.0842"
       stroke-linecap="round"
       stroke-linejoin="round" />
  </g>
  <g
     id="g342"
     transform="translate(120.7329,5.5734984)">
    <path
       id="path340"
       fill="currentColor"
       d="m 208,139 c 61,0 117,-33 117,-99 0,-71 -52,-119 -99,-147 -34,-20 -71,-32 -110,-32 -61,0 -116,33 -116,99 0,71 51,119 98,147 34,20 71,32 110,32 z"
       transform="scale(0.0029,-0.0029)" />
  </g>
  <g
     id="g346"
     transform="translate(120.7329,5.5734984)">
    <path
       id="path344"
       fill="currentColor"
       d="m 208,139 c 61,0 117,-33 117,-99 0,-71 -52,-119 -99,-147 -34,-20 -71,-32 -110,-32 -61,0 -116,33 -116,99 0,71 51,119 98,147 34,20 71,32 110,32 z"
       transform="scale(0.0029,-0.0029)" />
  </g>
  <g
     id="g350"
     transform="translate(121.628,5.2049984)">
    <rect
       id="rect348"
       fill="currentColor"
       ry="0.042100001"
       height="2.3243999"
       width="0.1228"
       y="-2.0752001"
       x="-0.0614" />
  </g>
  <g
     id="g354"
     transform="translate(120.7942,5.2049984)">
    <rect
       id="rect352"
       fill="currentColor"
       ry="0.042100001"
       height="2.0913"
       width="0.1228"
       y="0.4876"
       x="-0.0614" />
  </g>
  <g
     id="g358"
     transform="translate(133.9218,4.4681984)">
    <path
       id="path356"
       fill="currentColor"
       d="m 208,139 c 61,0 117,-33 117,-99 0,-71 -52,-119 -99,-147 -34,-20 -71,-32 -110,-32 -61,0 -116,33 -116,99 0,71 51,119 98,147 34,20 71,32 110,32 z"
       transform="scale(0.0029,-0.0029)" />
  </g>
  <g
     id="g362"
     transform="translate(122.8894,5.5734984)">
    <path
       id="path360"
       fill="currentColor"
       d="m 208,139 c 61,0 117,-33 117,-99 0,-71 -52,-119 -99,-147 -34,-20 -71,-32 -110,-32 -61,0 -116,33 -116,99 0,71 51,119 98,147 34,20 71,32 110,32 z"
       transform="scale(0.0029,-0.0029)" />
  </g>
  <g
     id="g366"
     transform="translate(122.8894,5.5734984)">
    <path
       id="path364"
       fill="currentColor"
       d="m 208,139 c 61,0 117,-33 117,-99 0,-71 -52,-119 -99,-147 -34,-20 -71,-32 -110,-32 -61,0 -116,33 -116,99 0,71 51,119 98,147 34,20 71,32 110,32 z"
       transform="scale(0.0029,-0.0029)" />
  </g>
  <g
     id="g370"
     transform="translate(123.7845,5.2049984)">
    <rect
       id="rect368"
       fill="currentColor"
       ry="0.042100001"
       height="2.3241999"
       width="0.1228"
       y="-2.075"
       x="-0.0614" />
  </g>
  <g
     id="g374"
     transform="translate(122.9507,5.2049984)">
    <rect
       id="rect372"
       fill="currentColor"
       ry="0.042100001"
       height="2.2755001"
       width="0.1228"
       y="0.4876"
       x="-0.0614" />
  </g>
  <g
     id="g378"
     transform="translate(123.0121,7.9260984)">
    <path
       id="path376"
       fill="currentColor"
       d="m 266,659 c 0,-44 -15,-80 -38,-114 16,-35 25,-73 25,-111 C 253,254 1,180 0,1 V 0 H -21 V 500 H 0 v -70 c 94,49 217,126 217,229 0,20 -5,41 -14,59 v 5 c 0,16 13,26 27,26 32,0 36,-61 36,-90 z M 0,205 c 88,51 204,130 204,229 0,22 -4,44 -12,65 C 113,414 0,344 0,225 Z"
       transform="scale(0.0029,-0.0029)" />
  </g>
  <g
     id="g382"
     transform="translate(146.5337,5.5734984)">
    <path
       id="path380"
       fill="currentColor"
       d="m 208,139 c 61,0 117,-33 117,-99 0,-71 -52,-119 -99,-147 -34,-20 -71,-32 -110,-32 -61,0 -116,33 -116,99 0,71 51,119 98,147 34,20 71,32 110,32 z"
       transform="scale(0.0029,-0.0029)" />
  </g>
  <g
     id="g386"
     transform="translate(144.1272,6.6786984)">
    <path
       id="path384"
       fill="currentColor"
       d="m 208,139 c 61,0 117,-33 117,-99 0,-71 -52,-119 -99,-147 -34,-20 -71,-32 -110,-32 -61,0 -116,33 -116,99 0,71 51,119 98,147 34,20 71,32 110,32 z"
       transform="scale(0.0029,-0.0029)" />
  </g>
  <g
     id="g390"
     transform="translate(145.0223,5.2049984)">
    <rect
       id="rect388"
       fill="currentColor"
       ry="0.042100001"
       height="3.2126999"
       width="0.1228"
       y="-1.8583"
       x="-0.0614" />
  </g>
  <g
     id="g394"
     transform="translate(146.5337,5.5734984)">
    <path
       id="path392"
       fill="currentColor"
       d="m 208,139 c 61,0 117,-33 117,-99 0,-71 -52,-119 -99,-147 -34,-20 -71,-32 -110,-32 -61,0 -116,33 -116,99 0,71 51,119 98,147 34,20 71,32 110,32 z"
       transform="scale(0.0029,-0.0029)" />
  </g>
  <g
     id="g398"
     transform="translate(147.4288,5.2049984)">
    <rect
       id="rect396"
       fill="currentColor"
       ry="0.042100001"
       height="2.4825001"
       width="0.1228"
       y="-2.2333"
       x="-0.0614" />
  </g>
  <g
     id="g402"
     transform="translate(146.595,5.2049984)">
    <rect
       id="rect400"
       fill="currentColor"
       ry="0.042100001"
       height="2.0913"
       width="0.1228"
       y="0.4876"
       x="-0.0614" />
  </g>
  <g
     id="g406"
     transform="translate(139.1299,5.2049984)">
    <rect
       id="rect404"
       fill="currentColor"
       ry="0.042100001"
       height="5.7754998"
       width="0.1228"
       y="-3.3158"
       x="-0.0614" />
  </g>
  <g
     id="g410"
     transform="translate(134.8169,5.2049984)">
    <rect
       id="rect408"
       fill="currentColor"
       ry="0.042100001"
       height="2.4597001"
       width="0.1228"
       y="-3.3158"
       x="-0.0614" />
  </g>
  <g
     id="g414"
     transform="translate(136.3283,3.7313984)">
    <path
       id="path412"
       fill="currentColor"
       d="m 208,139 c 61,0 117,-33 117,-99 0,-71 -52,-119 -99,-147 -34,-20 -71,-32 -110,-32 -61,0 -116,33 -116,99 0,71 51,119 98,147 34,20 71,32 110,32 z"
       transform="scale(0.0029,-0.0029)" />
  </g>
  <g
     id="g418"
     transform="translate(137.2234,5.2049984)">
    <rect
       id="rect416"
       fill="currentColor"
       ry="0.042100001"
       height="1.7229"
       width="0.1228"
       y="-3.3158"
       x="-0.0614" />
  </g>
  <g
     id="g422"
     transform="translate(138.2348,7.7839984)">
    <path
       id="path420"
       fill="currentColor"
       d="m 208,139 c 61,0 117,-33 117,-99 0,-71 -52,-119 -99,-147 -34,-20 -71,-32 -110,-32 -61,0 -116,33 -116,99 0,71 51,119 98,147 34,20 71,32 110,32 z"
       transform="scale(0.0029,-0.0029)" />
  </g>
  <g
     id="g426"
     transform="translate(148.6901,5.5734984)">
    <path
       id="path424"
       fill="currentColor"
       d="m 208,139 c 61,0 117,-33 117,-99 0,-71 -52,-119 -99,-147 -34,-20 -71,-32 -110,-32 -61,0 -116,33 -116,99 0,71 51,119 98,147 34,20 71,32 110,32 z"
       transform="scale(0.0029,-0.0029)" />
  </g>
  <g
     id="g430"
     transform="translate(141.7207,7.4155984)">
    <path
       id="path428"
       fill="currentColor"
       d="m 208,139 c 61,0 117,-33 117,-99 0,-71 -52,-119 -99,-147 -34,-20 -71,-32 -110,-32 -61,0 -116,33 -116,99 0,71 51,119 98,147 34,20 71,32 110,32 z"
       transform="scale(0.0029,-0.0029)" />
  </g>
  <g
     id="g434"
     transform="translate(142.6158,5.2049984)">
    <rect
       id="rect432"
       fill="currentColor"
       ry="0.042100001"
       height="3.5745001"
       width="0.1228"
       y="-1.4833"
       x="-0.0614" />
  </g>
  <g
     id="g438"
     transform="translate(214.6863,5.2049984)">
    <rect
       id="rect436"
       fill="currentColor"
       ry="0.042100001"
       height="1.5878"
       width="0.1228"
       y="-2.0755"
       x="-0.0614" />
  </g>
  <g
     id="g442"
     transform="translate(208.9782,6.6786984)">
    <path
       id="path440"
       fill="currentColor"
       d="m 208,139 c 61,0 117,-33 117,-99 0,-71 -52,-119 -99,-147 -34,-20 -71,-32 -110,-32 -61,0 -116,33 -116,99 0,71 51,119 98,147 34,20 71,32 110,32 z"
       transform="scale(0.0029,-0.0029)" />
  </g>
  <g
     id="g446"
     transform="translate(209.8733,5.2049984)">
    <rect
       id="rect444"
       fill="currentColor"
       ry="0.042100001"
       height="3.0028"
       width="0.1228"
       y="-1.6483001"
       x="-0.0614" />
  </g>
  <g
     id="g450"
     transform="translate(211.3847,5.5734984)">
    <path
       id="path448"
       fill="currentColor"
       d="m 208,139 c 61,0 117,-33 117,-99 0,-71 -52,-119 -99,-147 -34,-20 -71,-32 -110,-32 -61,0 -116,33 -116,99 0,71 51,119 98,147 34,20 71,32 110,32 z"
       transform="scale(0.0029,-0.0029)" />
  </g>
  <g
     id="g454"
     transform="translate(212.2798,5.2049984)">
    <rect
       id="rect452"
       fill="currentColor"
       ry="0.042100001"
       height="2.1111"
       width="0.1228"
       y="-1.8619"
       x="-0.0614" />
  </g>
  <g
     id="g458"
     transform="translate(213.7912,4.8365984)">
    <path
       id="path456"
       fill="currentColor"
       d="m 208,139 c 61,0 117,-33 117,-99 0,-71 -52,-119 -99,-147 -34,-20 -71,-32 -110,-32 -61,0 -116,33 -116,99 0,71 51,119 98,147 34,20 71,32 110,32 z"
       transform="scale(0.0029,-0.0029)" />
  </g>
  <g
     id="g462"
     transform="translate(216.1977,4.0997984)">
    <path
       id="path460"
       fill="currentColor"
       d="m 208,139 c 61,0 117,-33 117,-99 0,-71 -52,-119 -99,-147 -34,-20 -71,-32 -110,-32 -61,0 -116,33 -116,99 0,71 51,119 98,147 34,20 71,32 110,32 z"
       transform="scale(0.0029,-0.0029)" />
  </g>
  <g
     id="g466"
     transform="translate(217.0928,5.2049984)">
    <rect
       id="rect464"
       fill="currentColor"
       ry="0.042100001"
       height="2.0802"
       width="0.1228"
       y="-3.3046999"
       x="-0.0614" />
  </g>
  <g
     id="g470"
     transform="translate(218.1042,4.8365984)">
    <path
       id="path468"
       fill="currentColor"
       d="m 208,139 c 61,0 117,-33 117,-99 0,-71 -52,-119 -99,-147 -34,-20 -71,-32 -110,-32 -61,0 -116,33 -116,99 0,71 51,119 98,147 34,20 71,32 110,32 z"
       transform="scale(0.0029,-0.0029)" />
  </g>
  <g
     id="g474"
     transform="translate(218.9993,5.2049984)">
    <rect
       id="rect472"
       fill="currentColor"
       ry="0.042100001"
       height="2.4711001"
       width="0.1228"
       y="-2.9588001"
       x="-0.0614" />
  </g>
  <g
     id="g478"
     transform="translate(204.9152,5.5734984)">
    <path
       id="path476"
       fill="currentColor"
       d="m 208,139 c 61,0 117,-33 117,-99 0,-71 -52,-119 -99,-147 -34,-20 -71,-32 -110,-32 -61,0 -116,33 -116,99 0,71 51,119 98,147 34,20 71,32 110,32 z"
       transform="scale(0.0029,-0.0029)" />
  </g>
  <g
     id="g482"
     transform="translate(204.9152,5.5734984)">
    <path
       id="path480"
       fill="currentColor"
       d="m 208,139 c 61,0 117,-33 117,-99 0,-71 -52,-119 -99,-147 -34,-20 -71,-32 -110,-32 -61,0 -116,33 -116,99 0,71 51,119 98,147 34,20 71,32 110,32 z"
       transform="scale(0.0029,-0.0029)" />
  </g>
  <g
     id="g486"
     transform="translate(205.8103,5.2049984)">
    <rect
       id="rect484"
       fill="currentColor"
       ry="0.042100001"
       height="2.8185999"
       width="0.1228"
       y="-2.5694001"
       x="-0.0614" />
  </g>
  <g
     id="g490"
     transform="translate(204.9766,5.2049984)">
    <rect
       id="rect488"
       fill="currentColor"
       ry="0.042100001"
       height="2.0913"
       width="0.1228"
       y="0.4876"
       x="-0.0614" />
  </g>
  <g
     id="g494"
     transform="translate(207.0717,5.5734984)">
    <path
       id="path492"
       fill="currentColor"
       d="m 208,139 c 61,0 117,-33 117,-99 0,-71 -52,-119 -99,-147 -34,-20 -71,-32 -110,-32 -61,0 -116,33 -116,99 0,71 51,119 98,147 34,20 71,32 110,32 z"
       transform="scale(0.0029,-0.0029)" />
  </g>
  <g
     id="g498"
     transform="translate(207.0717,5.5734984)">
    <path
       id="path496"
       fill="currentColor"
       d="m 208,139 c 61,0 117,-33 117,-99 0,-71 -52,-119 -99,-147 -34,-20 -71,-32 -110,-32 -61,0 -116,33 -116,99 0,71 51,119 98,147 34,20 71,32 110,32 z"
       transform="scale(0.0029,-0.0029)" />
  </g>
  <g
     id="g502"
     transform="translate(207.9668,5.2049984)">
    <rect
       id="rect500"
       fill="currentColor"
       ry="0.042100001"
       height="1.7283"
       width="0.1228"
       y="-1.4791"
       x="-0.0614" />
  </g>
  <g
     id="g506"
     transform="translate(207.1331,5.2049984)">
    <rect
       id="rect504"
       fill="currentColor"
       ry="0.042100001"
       height="2.2755001"
       width="0.1228"
       y="0.4876"
       x="-0.0614" />
  </g>
  <g
     id="g510"
     transform="translate(207.1945,7.9260984)">
    <path
       id="path508"
       fill="currentColor"
       d="m 266,659 c 0,-44 -15,-80 -38,-114 16,-35 25,-73 25,-111 C 253,254 1,180 0,1 V 0 H -21 V 500 H 0 v -70 c 94,49 217,126 217,229 0,20 -5,41 -14,59 v 5 c 0,16 13,26 27,26 32,0 36,-61 36,-90 z M 0,205 c 88,51 204,130 204,229 0,22 -4,44 -12,65 C 113,414 0,344 0,225 Z"
       transform="scale(0.0029,-0.0029)" />
  </g>
  <g
     id="g514"
     transform="translate(123.7231,3.1240984)">
    <polygon
       id="polygon512"
       points="0.0421,0.1347 0.0421,-0.1347 6.3001,0.4725 6.3001,0.742 "
       stroke="currentColor"
       fill="currentColor"
       stroke-width="0.0842"
       stroke-linecap="round"
       stroke-linejoin="round" />
  </g>
  <g
     id="g518"
     transform="translate(123.7231,3.7313984)">
    <polygon
       id="polygon516"
       points="0.0421,0.1347 0.0421,-0.1347 6.3001,0.4725 6.3001,0.742 "
       stroke="currentColor"
       fill="currentColor"
       stroke-width="0.0842"
       stroke-linecap="round"
       stroke-linejoin="round" />
  </g>
  <g
     id="g522"
     transform="translate(25.5066,3.8609984)">
    <polygon
       id="polygon520"
       points="0.0421,0.1347 0.0421,-0.1347 6.3001,0.4725 6.3001,0.742 "
       stroke="currentColor"
       fill="currentColor"
       stroke-width="0.0842"
       stroke-linecap="round"
       stroke-linejoin="round" />
  </g>
  <g
     id="g526"
     transform="translate(25.5066,4.4681984)">
    <polygon
       id="polygon524"
       points="0.0421,0.1347 0.0421,-0.1347 6.3001,0.4725 6.3001,0.742 "
       stroke="currentColor"
       fill="currentColor"
       stroke-width="0.0842"
       stroke-linecap="round"
       stroke-linejoin="round" />
  </g>
  <g
     id="g530"
     transform="translate(35.212,2.3872984)">
    <polygon
       id="polygon528"
       points="0.0421,0.1347 0.0421,-0.1347 6.5501,-2.1065 6.5501,-1.837 "
       stroke="currentColor"
       fill="currentColor"
       stroke-width="0.0842"
       stroke-linecap="round"
       stroke-linejoin="round" />
  </g>
  <g
     id="g534"
     transform="translate(35.212,2.9944984)">
    <polygon
       id="polygon532"
       points="0.0421,0.1347 0.0421,-0.1347 6.5501,-2.1065 6.5501,-1.837 "
       stroke="currentColor"
       fill="currentColor"
       stroke-width="0.0842"
       stroke-linecap="round"
       stroke-linejoin="round" />
  </g>
  <g
     id="g538"
     transform="translate(43.838,1.1523984)">
    <polygon
       id="polygon536"
       points="0.0421,0.1347 0.0421,-0.1347 5.8001,1.3389 5.8001,1.6084 "
       stroke="currentColor"
       fill="currentColor"
       stroke-width="0.0842"
       stroke-linecap="round"
       stroke-linejoin="round" />
  </g>
  <g
     id="g542"
     transform="translate(43.838,1.7595984)">
    <polygon
       id="polygon540"
       points="0.0421,0.1347 0.0421,-0.1347 5.8001,1.3389 5.8001,1.6084 "
       stroke="currentColor"
       fill="currentColor"
       stroke-width="0.0842"
       stroke-linecap="round"
       stroke-linejoin="round" />
  </g>
  <g
     id="g546"
     transform="translate(51.4639,4.5977984)">
    <polygon
       id="polygon544"
       points="0.0421,0.1347 0.0421,-0.1347 6.3001,0.4725 6.3001,0.742 "
       stroke="currentColor"
       fill="currentColor"
       stroke-width="0.0842"
       stroke-linecap="round"
       stroke-linejoin="round" />
  </g>
  <g
     id="g550"
     transform="translate(51.4639,5.2049984)">
    <polygon
       id="polygon548"
       points="0.0421,0.1347 0.0421,-0.1347 6.3001,0.4725 6.3001,0.742 "
       stroke="currentColor"
       fill="currentColor"
       stroke-width="0.0842"
       stroke-linecap="round"
       stroke-linejoin="round" />
  </g>
  <g
     id="g554"
     transform="translate(61.1693,2.2576984)">
    <polygon
       id="polygon552"
       points="0.0421,0.1347 0.0421,-0.1347 6.5501,-2.2156 6.5501,-1.9462 "
       stroke="currentColor"
       fill="currentColor"
       stroke-width="0.0842"
       stroke-linecap="round"
       stroke-linejoin="round" />
  </g>
  <g
     id="g558"
     transform="translate(61.1693,2.8648984)">
    <polygon
       id="polygon556"
       points="0.0421,0.1347 0.0421,-0.1347 6.5501,-2.2156 6.5501,-1.9462 "
       stroke="currentColor"
       fill="currentColor"
       stroke-width="0.0842"
       stroke-linecap="round"
       stroke-linejoin="round" />
  </g>
  <g
     id="g562"
     transform="translate(69.7953,1.1523984)">
    <polygon
       id="polygon560"
       points="0.0421,0.1347 0.0421,-0.1347 5.8001,1.1002 5.8001,1.3696 "
       stroke="currentColor"
       fill="currentColor"
       stroke-width="0.0842"
       stroke-linecap="round"
       stroke-linejoin="round" />
  </g>
  <g
     id="g566"
     transform="translate(69.7953,1.7595984)">
    <polygon
       id="polygon564"
       points="0.0421,0.1347 0.0421,-0.1347 5.8001,1.1002 5.8001,1.3696 "
       stroke="currentColor"
       fill="currentColor"
       stroke-width="0.0842"
       stroke-linecap="round"
       stroke-linejoin="round" />
  </g>
  <g
     id="g570"
     transform="translate(77.9212,1.1523984)">
    <polygon
       id="polygon568"
       points="0.0421,0.1347 0.0421,-0.1347 7.1107,-0.6328 7.1107,-0.3633 "
       stroke="currentColor"
       fill="currentColor"
       stroke-width="0.0842"
       stroke-linecap="round"
       stroke-linejoin="round" />
  </g>
  <g
     id="g574"
     transform="translate(77.9212,1.7595984)">
    <polygon
       id="polygon572"
       points="0.0421,0.1347 0.0421,-0.1347 7.1107,-0.6328 7.1107,-0.3633 "
       stroke="currentColor"
       fill="currentColor"
       stroke-width="0.0842"
       stroke-linecap="round"
       stroke-linejoin="round" />
  </g>
  <g
     id="g578"
     transform="translate(88.1871,0.91359845)">
    <polygon
       id="polygon576"
       points="0.0421,0.1347 0.0421,-0.1347 6.5501,-0.1347 6.5501,0.1347 "
       stroke="currentColor"
       fill="currentColor"
       stroke-width="0.0842"
       stroke-linecap="round"
       stroke-linejoin="round" />
  </g>
  <g
     id="g582"
     transform="translate(88.1871,1.5207984)">
    <polygon
       id="polygon580"
       points="0.0421,0.1347 0.0421,-0.1347 6.5501,-0.1347 6.5501,0.1347 "
       stroke="currentColor"
       fill="currentColor"
       stroke-width="0.0842"
       stroke-linecap="round"
       stroke-linejoin="round" />
  </g>
  <g
     id="g586"
     transform="translate(96.8131,1.1523984)">
    <polygon
       id="polygon584"
       points="0.0421,0.1347 0.0421,-0.1347 6.5501,0.2337 6.5501,0.5032 "
       stroke="currentColor"
       fill="currentColor"
       stroke-width="0.0842"
       stroke-linecap="round"
       stroke-linejoin="round" />
  </g>
  <g
     id="g590"
     transform="translate(96.8131,1.7595984)">
    <polygon
       id="polygon588"
       points="0.0421,0.1347 0.0421,-0.1347 6.5501,0.2337 6.5501,0.5032 "
       stroke="currentColor"
       fill="currentColor"
       stroke-width="0.0842"
       stroke-linecap="round"
       stroke-linejoin="round" />
  </g>
  <g
     id="g594"
     transform="translate(105.439,2.2576984)">
    <polygon
       id="polygon592"
       points="0.0421,0.1347 0.0421,-0.1347 6.3001,0.6021 6.3001,0.8716 "
       stroke="currentColor"
       fill="currentColor"
       stroke-width="0.0842"
       stroke-linecap="round"
       stroke-linejoin="round" />
  </g>
  <g
     id="g598"
     transform="translate(105.439,2.8648984)">
    <polygon
       id="polygon596"
       points="0.0421,0.1347 0.0421,-0.1347 6.3001,0.6021 6.3001,0.8716 "
       stroke="currentColor"
       fill="currentColor"
       stroke-width="0.0842"
       stroke-linecap="round"
       stroke-linejoin="round" />
  </g>
  <g
     id="g602"
     transform="translate(115.0971,3.7313984)">
    <polygon
       id="polygon600"
       points="0.0421,0.1347 0.0421,-0.1347 6.5501,-0.742 6.5501,-0.4725 "
       stroke="currentColor"
       fill="currentColor"
       stroke-width="0.0842"
       stroke-linecap="round"
       stroke-linejoin="round" />
  </g>
  <g
     id="g606"
     transform="translate(115.0971,4.3385984)">
    <polygon
       id="polygon604"
       points="0.0421,0.1347 0.0421,-0.1347 6.5501,-0.742 6.5501,-0.4725 "
       stroke="currentColor"
       fill="currentColor"
       stroke-width="0.0842"
       stroke-linecap="round"
       stroke-linejoin="round" />
  </g>
  <g
     id="g610"
     transform="translate(118.5764,7.1767984)">
    <polygon
       id="polygon608"
       points="0.0421,0.1347 0.0421,-0.1347 2.2371,-0.1347 2.2371,0.1347 "
       stroke="currentColor"
       fill="currentColor"
       stroke-width="0.0842"
       stroke-linecap="round"
       stroke-linejoin="round" />
  </g>
  <g
     id="g614"
     transform="translate(118.5764,7.7839984)">
    <polygon
       id="polygon612"
       points="0.0421,0.1347 0.0421,-0.1347 2.2371,-0.1347 2.2371,0.1347 "
       stroke="currentColor"
       fill="currentColor"
       stroke-width="0.0842"
       stroke-linecap="round"
       stroke-linejoin="round" />
  </g>
  <g
     id="g618"
     transform="translate(17.8807,0.91359845)">
    <polygon
       id="polygon616"
       points="0.0421,0.1347 0.0421,-0.1347 5.8001,1.2093 5.8001,1.4788 "
       stroke="currentColor"
       fill="currentColor"
       stroke-width="0.0842"
       stroke-linecap="round"
       stroke-linejoin="round" />
  </g>
  <g
     id="g622"
     transform="translate(17.8807,1.5207984)">
    <polygon
       id="polygon620"
       points="0.0421,0.1347 0.0421,-0.1347 5.8001,1.2093 5.8001,1.4788 "
       stroke="currentColor"
       fill="currentColor"
       stroke-width="0.0842"
       stroke-linecap="round"
       stroke-linejoin="round" />
  </g>
  <g
     id="g626"
     transform="translate(132.349,1.8892984)">
    <polygon
       id="polygon624"
       points="0.0421,0.1347 0.0421,-0.1347 6.8001,-0.1347 6.8001,0.1347 "
       stroke="currentColor"
       fill="currentColor"
       stroke-width="0.0842"
       stroke-linecap="round"
       stroke-linejoin="round" />
  </g>
  <g
     id="g630"
     transform="translate(132.349,2.4964984)">
    <polygon
       id="polygon628"
       points="0.0421,0.1347 0.0421,-0.1347 6.8001,-0.1347 6.8001,0.1347 "
       stroke="currentColor"
       fill="currentColor"
       stroke-width="0.0842"
       stroke-linecap="round"
       stroke-linejoin="round" />
  </g>
  <g
     id="g634"
     transform="translate(142.5544,3.7313984)">
    <polygon
       id="polygon632"
       points="0.0421,0.1347 0.0421,-0.1347 7.0501,-1.24 7.0501,-0.9705 "
       stroke="currentColor"
       fill="currentColor"
       stroke-width="0.0842"
       stroke-linecap="round"
       stroke-linejoin="round" />
  </g>
  <g
     id="g638"
     transform="translate(142.5544,4.3385984)">
    <polygon
       id="polygon636"
       points="0.0421,0.1347 0.0421,-0.1347 7.0501,-1.24 7.0501,-0.9705 "
       stroke="currentColor"
       fill="currentColor"
       stroke-width="0.0842"
       stroke-linecap="round"
       stroke-linejoin="round" />
  </g>
  <g
     id="g642"
     transform="translate(146.5337,7.1767984)">
    <polygon
       id="polygon640"
       points="0.0421,0.1347 0.0421,-0.1347 2.2371,-0.1347 2.2371,0.1347 "
       stroke="currentColor"
       fill="currentColor"
       stroke-width="0.0842"
       stroke-linecap="round"
       stroke-linejoin="round" />
  </g>
  <g
     id="g646"
     transform="translate(146.5337,7.7839984)">
    <polygon
       id="polygon644"
       points="0.0421,0.1347 0.0421,-0.1347 2.2371,-0.1347 2.2371,0.1347 "
       stroke="currentColor"
       fill="currentColor"
       stroke-width="0.0842"
       stroke-linecap="round"
       stroke-linejoin="round" />
  </g>
  <g
     id="g650"
     transform="translate(151.6804,3.7313984)">
    <polygon
       id="polygon648"
       points="0.0421,0.1347 0.0421,-0.1347 6.3001,0.6021 6.3001,0.8716 "
       stroke="currentColor"
       fill="currentColor"
       stroke-width="0.0842"
       stroke-linecap="round"
       stroke-linejoin="round" />
  </g>
  <g
     id="g654"
     transform="translate(151.6804,4.3385984)">
    <polygon
       id="polygon652"
       points="0.0421,0.1347 0.0421,-0.1347 6.3001,0.6021 6.3001,0.8716 "
       stroke="currentColor"
       fill="currentColor"
       stroke-width="0.0842"
       stroke-linecap="round"
       stroke-linejoin="round" />
  </g>
  <g
     id="g658"
     transform="translate(160.3063,2.3872984)">
    <polygon
       id="polygon656"
       points="0.0421,0.1347 0.0421,-0.1347 6.8001,-0.1347 6.8001,0.1347 "
       stroke="currentColor"
       fill="currentColor"
       stroke-width="0.0842"
       stroke-linecap="round"
       stroke-linejoin="round" />
  </g>
  <g
     id="g662"
     transform="translate(160.3063,2.9944984)">
    <polygon
       id="polygon660"
       points="0.0421,0.1347 0.0421,-0.1347 6.8001,-0.1347 6.8001,0.1347 "
       stroke="currentColor"
       fill="currentColor"
       stroke-width="0.0842"
       stroke-linecap="round"
       stroke-linejoin="round" />
  </g>
  <g
     id="g666"
     transform="translate(170.5117,3.8609984)">
    <polygon
       id="polygon664"
       points="0.0421,0.1347 0.0421,-0.1347 7.0501,-1.3696 7.0501,-1.1002 "
       stroke="currentColor"
       fill="currentColor"
       stroke-width="0.0842"
       stroke-linecap="round"
       stroke-linejoin="round" />
  </g>
  <g
     id="g670"
     transform="translate(170.5117,4.4681984)">
    <polygon
       id="polygon668"
       points="0.0421,0.1347 0.0421,-0.1347 7.0501,-1.3696 7.0501,-1.1002 "
       stroke="currentColor"
       fill="currentColor"
       stroke-width="0.0842"
       stroke-linecap="round"
       stroke-linejoin="round" />
  </g>
  <g
     id="g674"
     transform="translate(174.4909,7.1767984)">
    <polygon
       id="polygon672"
       points="0.0421,0.1347 0.0421,-0.1347 2.2371,-0.1347 2.2371,0.1347 "
       stroke="currentColor"
       fill="currentColor"
       stroke-width="0.0842"
       stroke-linecap="round"
       stroke-linejoin="round" />
  </g>
  <g
     id="g678"
     transform="translate(174.4909,7.7839984)">
    <polygon
       id="polygon676"
       points="0.0421,0.1347 0.0421,-0.1347 2.2371,-0.1347 2.2371,0.1347 "
       stroke="currentColor"
       fill="currentColor"
       stroke-width="0.0842"
       stroke-linecap="round"
       stroke-linejoin="round" />
  </g>
  <g
     id="g682"
     transform="translate(179.6376,3.7313984)">
    <polygon
       id="polygon680"
       points="0.0421,0.1347 0.0421,-0.1347 6.3001,0.7317 6.3001,1.0012 "
       stroke="currentColor"
       fill="currentColor"
       stroke-width="0.0842"
       stroke-linecap="round"
       stroke-linejoin="round" />
  </g>
  <g
     id="g686"
     transform="translate(179.6376,4.3385984)">
    <polygon
       id="polygon684"
       points="0.0421,0.1347 0.0421,-0.1347 6.3001,0.7317 6.3001,1.0012 "
       stroke="currentColor"
       fill="currentColor"
       stroke-width="0.0842"
       stroke-linecap="round"
       stroke-linejoin="round" />
  </g>
  <g
     id="g690"
     transform="translate(188.5741,2.6260984)">
    <polygon
       id="polygon688"
       points="0.0421,0.1347 0.0421,-0.1347 6.8001,-0.1347 6.8001,0.1347 "
       stroke="currentColor"
       fill="currentColor"
       stroke-width="0.0842"
       stroke-linecap="round"
       stroke-linejoin="round" />
  </g>
  <g
     id="g694"
     transform="translate(188.5741,3.2332984)">
    <polygon
       id="polygon692"
       points="0.0421,0.1347 0.0421,-0.1347 6.8001,-0.1347 6.8001,0.1347 "
       stroke="currentColor"
       fill="currentColor"
       stroke-width="0.0842"
       stroke-linecap="round"
       stroke-linejoin="round" />
  </g>
  <g
     id="g698"
     transform="translate(198.7795,3.7313984)">
    <polygon
       id="polygon696"
       points="0.0421,0.1347 0.0421,-0.1347 7.0501,-1.24 7.0501,-0.9705 "
       stroke="currentColor"
       fill="currentColor"
       stroke-width="0.0842"
       stroke-linecap="round"
       stroke-linejoin="round" />
  </g>
  <g
     id="g702"
     transform="translate(198.7795,4.3385984)">
    <polygon
       id="polygon700"
       points="0.0421,0.1347 0.0421,-0.1347 7.0501,-1.24 7.0501,-0.9705 "
       stroke="currentColor"
       fill="currentColor"
       stroke-width="0.0842"
       stroke-linecap="round"
       stroke-linejoin="round" />
  </g>
  <g
     id="g706"
     transform="translate(202.7587,7.1767984)">
    <polygon
       id="polygon704"
       points="0.0421,0.1347 0.0421,-0.1347 2.2371,-0.1347 2.2371,0.1347 "
       stroke="currentColor"
       fill="currentColor"
       stroke-width="0.0842"
       stroke-linecap="round"
       stroke-linejoin="round" />
  </g>
  <g
     id="g710"
     transform="translate(202.7587,7.7839984)">
    <polygon
       id="polygon708"
       points="0.0421,0.1347 0.0421,-0.1347 2.2371,-0.1347 2.2371,0.1347 "
       stroke="currentColor"
       fill="currentColor"
       stroke-width="0.0842"
       stroke-linecap="round"
       stroke-linejoin="round" />
  </g>
  <g
     id="g714"
     transform="translate(207.9054,3.7313984)">
    <polygon
       id="polygon712"
       points="0.0421,0.1347 0.0421,-0.1347 6.8001,-0.742 6.8001,-0.4725 "
       stroke="currentColor"
       fill="currentColor"
       stroke-width="0.0842"
       stroke-linecap="round"
       stroke-linejoin="round" />
  </g>
  <g
     id="g718"
     transform="translate(207.9054,4.3385984)">
    <polygon
       id="polygon716"
       points="0.0421,0.1347 0.0421,-0.1347 6.8001,-0.742 6.8001,-0.4725 "
       stroke="currentColor"
       fill="currentColor"
       stroke-width="0.0842"
       stroke-linecap="round"
       stroke-linejoin="round" />
  </g>
  <g
     id="g722"
     transform="translate(220.0107,5.5734984)">
    <path
       id="path720"
       fill="currentColor"
       d="m 208,139 c 61,0 117,-33 117,-99 0,-71 -52,-119 -99,-147 -34,-20 -71,-32 -110,-32 -61,0 -116,33 -116,99 0,71 51,119 98,147 34,20 71,32 110,32 z"
       transform="scale(0.0029,-0.0029)" />
  </g>
  <g
     id="g726"
     transform="translate(220.9058,5.2049984)">
    <rect
       id="rect724"
       fill="currentColor"
       ry="0.042100001"
       height="2.8620999"
       width="0.1228"
       y="-2.6129"
       x="-0.0614" />
  </g>
  <g
     id="g730"
     transform="translate(222.1671,5.9418984)">
    <path
       id="path728"
       fill="currentColor"
       d="m 208,139 c 61,0 117,-33 117,-99 0,-71 -52,-119 -99,-147 -34,-20 -71,-32 -110,-32 -61,0 -116,33 -116,99 0,71 51,119 98,147 34,20 71,32 110,32 z"
       transform="scale(0.0029,-0.0029)" />
  </g>
  <g
     id="g734"
     transform="translate(223.0622,5.2049984)">
    <rect
       id="rect732"
       fill="currentColor"
       ry="0.042100001"
       height="2.8392999"
       width="0.1228"
       y="-2.2217"
       x="-0.0614" />
  </g>
  <g
     id="g738"
     transform="translate(9.2547,2.3872984)">
    <polygon
       id="polygon736"
       points="0.0421,0.1347 0.0421,-0.1347 6.5501,-2.1065 6.5501,-1.837 "
       stroke="currentColor"
       fill="currentColor"
       stroke-width="0.0842"
       stroke-linecap="round"
       stroke-linejoin="round" />
  </g>
  <g
     id="g742"
     transform="translate(9.2547,2.9944984)">
    <polygon
       id="polygon740"
       points="0.0421,0.1347 0.0421,-0.1347 6.5501,-2.1065 6.5501,-1.837 "
       stroke="currentColor"
       fill="currentColor"
       stroke-width="0.0842"
       stroke-linecap="round"
       stroke-linejoin="round" />
  </g>
  <g
     id="g746"
     transform="translate(185.0234,7.0471984)">
    <path
       id="path744"
       fill="currentColor"
       d="m 208,139 c 61,0 117,-33 117,-99 0,-71 -52,-119 -99,-147 -34,-20 -71,-32 -110,-32 -61,0 -116,33 -116,99 0,71 51,119 98,147 34,20 71,32 110,32 z"
       transform="scale(0.0029,-0.0029)" />
  </g>
  <g
     id="g750"
     transform="translate(180.7104,7.0471984)">
    <path
       id="path748"
       fill="currentColor"
       d="m 208,139 c 61,0 117,-33 117,-99 0,-71 -52,-119 -99,-147 -34,-20 -71,-32 -110,-32 -61,0 -116,33 -116,99 0,71 51,119 98,147 34,20 71,32 110,32 z"
       transform="scale(0.0029,-0.0029)" />
  </g>
  <g
     id="g754"
     transform="translate(181.6055,5.2049984)">
    <rect
       id="rect752"
       fill="currentColor"
       ry="0.042100001"
       height="2.9277"
       width="0.1228"
       y="-1.2048"
       x="-0.0614" />
  </g>
  <g
     id="g758"
     transform="translate(182.6169,7.7839984)">
    <path
       id="path756"
       fill="currentColor"
       d="m 208,139 c 61,0 117,-33 117,-99 0,-71 -52,-119 -99,-147 -34,-20 -71,-32 -110,-32 -61,0 -116,33 -116,99 0,71 51,119 98,147 34,20 71,32 110,32 z"
       transform="scale(0.0029,-0.0029)" />
  </g>
  <g
     id="g762"
     transform="translate(183.512,5.2049984)">
    <rect
       id="rect760"
       fill="currentColor"
       ry="0.042100001"
       height="3.4040999"
       width="0.1228"
       y="-0.94440001"
       x="-0.0614" />
  </g>
  <g
     id="g766"
     transform="translate(185.9185,5.2049984)">
    <rect
       id="rect764"
       fill="currentColor"
       ry="0.042100001"
       height="2.3385"
       width="0.1228"
       y="-0.61559999"
       x="-0.0614" />
  </g>
  <g
     id="g770"
     transform="translate(187.7404,5.9418984)">
    <path
       id="path768"
       fill="currentColor"
       d="m 208,139 c 61,0 117,-33 117,-99 0,-71 -52,-119 -99,-147 -34,-20 -71,-32 -110,-32 -61,0 -116,33 -116,99 0,71 51,119 98,147 34,20 71,32 110,32 z"
       transform="scale(0.0029,-0.0029)" />
  </g>
  <g
     id="g774"
     transform="translate(188.6355,5.2049984)">
    <rect
       id="rect772"
       fill="currentColor"
       ry="0.042100001"
       height="3.1966"
       width="0.1228"
       y="-2.5789001"
       x="-0.0614" />
  </g>
  <g
     id="g778"
     transform="translate(186.5799,5.9418984)">
    <path
       id="path776"
       fill="currentColor"
       d="m 0,114 c 0,12 7,22 18,26 l 37,15 v 151 c 0,12 10,22 22,22 12,0 22,-10 22,-22 V 172 l 77,29 v 152 c 0,12 10,22 22,22 12,0 22,-10 22,-22 V 219 l 16,6 c 3,1 8,2 11,2 15,0 28,-12 28,-28 v -50 c 0,-12 -7,-23 -18,-27 L 220,108 V -44 l 16,7 c 3,1 8,2 11,2 15,0 28,-13 28,-29 v -50 c 0,-12 -7,-22 -18,-26 l -37,-15 v -151 c 0,-12 -10,-22 -22,-22 -12,0 -22,10 -22,22 v 134 l -77,-29 v -152 c 0,-12 -10,-22 -22,-22 -12,0 -22,10 -22,22 v 134 l -16,-6 c -3,-1 -8,-2 -11,-2 -15,0 -28,12 -28,28 v 50 c 0,12 7,23 18,27 l 37,14 V 44 L 39,37 C 36,36 31,35 28,35 13,35 0,48 0,64 Z M 176,91 99,61 V -91 l 77,30 z"
       transform="scale(0.0029,-0.0029)" />
  </g>
  <g
     id="g782"
     transform="translate(176.6474,5.5734984)">
    <path
       id="path780"
       fill="currentColor"
       d="m 208,139 c 61,0 117,-33 117,-99 0,-71 -52,-119 -99,-147 -34,-20 -71,-32 -110,-32 -61,0 -116,33 -116,99 0,71 51,119 98,147 34,20 71,32 110,32 z"
       transform="scale(0.0029,-0.0029)" />
  </g>
  <g
     id="g786"
     transform="translate(176.6474,5.5734984)">
    <path
       id="path784"
       fill="currentColor"
       d="m 208,139 c 61,0 117,-33 117,-99 0,-71 -52,-119 -99,-147 -34,-20 -71,-32 -110,-32 -61,0 -116,33 -116,99 0,71 51,119 98,147 34,20 71,32 110,32 z"
       transform="scale(0.0029,-0.0029)" />
  </g>
  <g
     id="g790"
     transform="translate(177.5425,5.2049984)">
    <rect
       id="rect788"
       fill="currentColor"
       ry="0.042100001"
       height="2.8175001"
       width="0.1228"
       y="-2.5683"
       x="-0.0614" />
  </g>
  <g
     id="g794"
     transform="translate(176.7088,5.2049984)">
    <rect
       id="rect792"
       fill="currentColor"
       ry="0.042100001"
       height="2.0913"
       width="0.1228"
       y="0.4876"
       x="-0.0614" />
  </g>
  <g
     id="g798"
     transform="translate(178.8039,5.5734984)">
    <path
       id="path796"
       fill="currentColor"
       d="m 208,139 c 61,0 117,-33 117,-99 0,-71 -52,-119 -99,-147 -34,-20 -71,-32 -110,-32 -61,0 -116,33 -116,99 0,71 51,119 98,147 34,20 71,32 110,32 z"
       transform="scale(0.0029,-0.0029)" />
  </g>
  <g
     id="g802"
     transform="translate(178.8039,5.5734984)">
    <path
       id="path800"
       fill="currentColor"
       d="m 208,139 c 61,0 117,-33 117,-99 0,-71 -52,-119 -99,-147 -34,-20 -71,-32 -110,-32 -61,0 -116,33 -116,99 0,71 51,119 98,147 34,20 71,32 110,32 z"
       transform="scale(0.0029,-0.0029)" />
  </g>
  <g
     id="g806"
     transform="translate(179.699,5.2049984)">
    <rect
       id="rect804"
       fill="currentColor"
       ry="0.042100001"
       height="1.7145"
       width="0.1228"
       y="-1.4653"
       x="-0.0614" />
  </g>
  <g
     id="g810"
     transform="translate(178.8653,5.2049984)">
    <rect
       id="rect808"
       fill="currentColor"
       ry="0.042100001"
       height="2.2755001"
       width="0.1228"
       y="0.4876"
       x="-0.0614" />
  </g>
  <g
     id="g814"
     transform="translate(178.9267,7.9260984)">
    <path
       id="path812"
       fill="currentColor"
       d="m 266,659 c 0,-44 -15,-80 -38,-114 16,-35 25,-73 25,-111 C 253,254 1,180 0,1 V 0 H -21 V 500 H 0 v -70 c 94,49 217,126 217,229 0,20 -5,41 -14,59 v 5 c 0,16 13,26 27,26 32,0 36,-61 36,-90 z M 0,205 c 88,51 204,130 204,229 0,22 -4,44 -12,65 C 113,414 0,344 0,225 Z"
       transform="scale(0.0029,-0.0029)" />
  </g>
  <g
     id="g818"
     transform="translate(200.3523,6.6786984)">
    <path
       id="path816"
       fill="currentColor"
       d="m 208,139 c 61,0 117,-33 117,-99 0,-71 -52,-119 -99,-147 -34,-20 -71,-32 -110,-32 -61,0 -116,33 -116,99 0,71 51,119 98,147 34,20 71,32 110,32 z"
       transform="scale(0.0029,-0.0029)" />
  </g>
  <g
     id="g822"
     transform="translate(201.2474,5.2049984)">
    <rect
       id="rect820"
       fill="currentColor"
       ry="0.042100001"
       height="3.2126999"
       width="0.1228"
       y="-1.8583"
       x="-0.0614" />
  </g>
  <g
     id="g826"
     transform="translate(202.7587,5.5734984)">
    <path
       id="path824"
       fill="currentColor"
       d="m 208,139 c 61,0 117,-33 117,-99 0,-71 -52,-119 -99,-147 -34,-20 -71,-32 -110,-32 -61,0 -116,33 -116,99 0,71 51,119 98,147 34,20 71,32 110,32 z"
       transform="scale(0.0029,-0.0029)" />
  </g>
  <g
     id="g830"
     transform="translate(202.7587,5.5734984)">
    <path
       id="path828"
       fill="currentColor"
       d="m 208,139 c 61,0 117,-33 117,-99 0,-71 -52,-119 -99,-147 -34,-20 -71,-32 -110,-32 -61,0 -116,33 -116,99 0,71 51,119 98,147 34,20 71,32 110,32 z"
       transform="scale(0.0029,-0.0029)" />
  </g>
  <g
     id="g834"
     transform="translate(203.6539,5.2049984)">
    <rect
       id="rect832"
       fill="currentColor"
       ry="0.042100001"
       height="2.4825001"
       width="0.1228"
       y="-2.2333"
       x="-0.0614" />
  </g>
  <g
     id="g838"
     transform="translate(202.8201,5.2049984)">
    <rect
       id="rect836"
       fill="currentColor"
       ry="0.042100001"
       height="2.0913"
       width="0.1228"
       y="0.4876"
       x="-0.0614" />
  </g>
  <g
     id="g842"
     transform="translate(194.4599,6.6786984)">
    <path
       id="path840"
       fill="currentColor"
       d="m 208,139 c 61,0 117,-33 117,-99 0,-71 -52,-119 -99,-147 -34,-20 -71,-32 -110,-32 -61,0 -116,33 -116,99 0,71 51,119 98,147 34,20 71,32 110,32 z"
       transform="scale(0.0029,-0.0029)" />
  </g>
  <g
     id="g846"
     transform="translate(190.1469,5.2049984)">
    <path
       id="path844"
       fill="currentColor"
       d="m 208,139 c 61,0 117,-33 117,-99 0,-71 -52,-119 -99,-147 -34,-20 -71,-32 -110,-32 -61,0 -116,33 -116,99 0,71 51,119 98,147 34,20 71,32 110,32 z"
       transform="scale(0.0029,-0.0029)" />
  </g>
  <g
     id="g850"
     transform="translate(191.042,5.2049984)">
    <rect
       id="rect848"
       fill="currentColor"
       ry="0.042100001"
       height="2.4597001"
       width="0.1228"
       y="-2.5789001"
       x="-0.0614" />
  </g>
  <g
     id="g854"
     transform="translate(192.5534,4.4681984)">
    <path
       id="path852"
       fill="currentColor"
       d="m 208,139 c 61,0 117,-33 117,-99 0,-71 -52,-119 -99,-147 -34,-20 -71,-32 -110,-32 -61,0 -116,33 -116,99 0,71 51,119 98,147 34,20 71,32 110,32 z"
       transform="scale(0.0029,-0.0029)" />
  </g>
  <g
     id="g858"
     transform="translate(193.4485,5.2049984)">
    <rect
       id="rect856"
       fill="currentColor"
       ry="0.042100001"
       height="1.7229"
       width="0.1228"
       y="-2.5789001"
       x="-0.0614" />
  </g>
  <g
     id="g862"
     transform="translate(195.355,5.2049984)">
    <rect
       id="rect860"
       fill="currentColor"
       ry="0.042100001"
       height="3.9333999"
       width="0.1228"
       y="-2.5789001"
       x="-0.0614" />
  </g>
  <g
     id="g866"
     transform="translate(197.9458,8.1523984)">
    <path
       id="path864"
       fill="currentColor"
       d="m 208,139 c 61,0 117,-33 117,-99 0,-71 -52,-119 -99,-147 -34,-20 -71,-32 -110,-32 -61,0 -116,33 -116,99 0,71 51,119 98,147 34,20 71,32 110,32 z"
       transform="scale(0.0029,-0.0029)" />
  </g>
  <g
     id="g870"
     transform="translate(198.8409,5.2049984)">
    <rect
       id="rect868"
       fill="currentColor"
       ry="0.042100001"
       height="4.3113999"
       width="0.1228"
       y="-1.4833"
       x="-0.0614" />
  </g>
  <g
     id="g874"
     transform="translate(46.8172,4.8365984)">
    <path
       id="path872"
       fill="currentColor"
       d="m 208,139 c 61,0 117,-33 117,-99 0,-71 -52,-119 -99,-147 -34,-20 -71,-32 -110,-32 -61,0 -116,33 -116,99 0,71 51,119 98,147 34,20 71,32 110,32 z"
       transform="scale(0.0029,-0.0029)" />
  </g>
  <g
     id="g878"
     transform="translate(47.7123,5.2049984)">
    <rect
       id="rect876"
       fill="currentColor"
       ry="0.042100001"
       height="2.5876999"
       width="0.1228"
       y="-3.0753"
       x="-0.0614" />
  </g>
  <g
     id="g882"
     transform="translate(48.7237,5.5734984)">
    <path
       id="path880"
       fill="currentColor"
       d="m 208,139 c 61,0 117,-33 117,-99 0,-71 -52,-119 -99,-147 -34,-20 -71,-32 -110,-32 -61,0 -116,33 -116,99 0,71 51,119 98,147 34,20 71,32 110,32 z"
       transform="scale(0.0029,-0.0029)" />
  </g>
  <g
     id="g886"
     transform="translate(49.6188,5.2049984)">
    <rect
       id="rect884"
       fill="currentColor"
       ry="0.042100001"
       height="2.8436"
       width="0.1228"
       y="-2.5943999"
       x="-0.0614" />
  </g>
  <g
     id="g890"
     transform="translate(50.6302,6.6786984)">
    <path
       id="path888"
       fill="currentColor"
       d="m 208,139 c 61,0 117,-33 117,-99 0,-71 -52,-119 -99,-147 -34,-20 -71,-32 -110,-32 -61,0 -116,33 -116,99 0,71 51,119 98,147 34,20 71,32 110,32 z"
       transform="scale(0.0029,-0.0029)" />
  </g>
  <g
     id="g894"
     transform="translate(51.5253,5.2049984)">
    <rect
       id="rect892"
       fill="currentColor"
       ry="0.042100001"
       height="1.9558001"
       width="0.1228"
       y="-0.6013"
       x="-0.0614" />
  </g>
  <g
     id="g898"
     transform="translate(52.5367,7.4155984)">
    <path
       id="path896"
       fill="currentColor"
       d="m 208,139 c 61,0 117,-33 117,-99 0,-71 -52,-119 -99,-147 -34,-20 -71,-32 -110,-32 -61,0 -116,33 -116,99 0,71 51,119 98,147 34,20 71,32 110,32 z"
       transform="scale(0.0029,-0.0029)" />
  </g>
  <g
     id="g902"
     transform="translate(53.4318,5.2049984)">
    <rect
       id="rect900"
       fill="currentColor"
       ry="0.042100001"
       height="2.5100999"
       width="0.1228"
       y="-0.4188"
       x="-0.0614" />
  </g>
  <g
     id="g906"
     transform="translate(38.6913,2.9944984)">
    <path
       id="path904"
       fill="currentColor"
       d="m 208,139 c 61,0 117,-33 117,-99 0,-71 -52,-119 -99,-147 -34,-20 -71,-32 -110,-32 -61,0 -116,33 -116,99 0,71 51,119 98,147 34,20 71,32 110,32 z"
       transform="scale(0.0029,-0.0029)" />
  </g>
  <g
     id="g910"
     transform="translate(39.5864,5.2049984)">
    <rect
       id="rect908"
       fill="currentColor"
       ry="0.042100001"
       height="1.7964"
       width="0.1228"
       y="-4.1261001"
       x="-0.0614" />
  </g>
  <g
     id="g914"
     transform="translate(40.8478,2.9944984)">
    <path
       id="path912"
       fill="currentColor"
       d="m 208,139 c 61,0 117,-33 117,-99 0,-71 -52,-119 -99,-147 -34,-20 -71,-32 -110,-32 -61,0 -116,33 -116,99 0,71 51,119 98,147 34,20 71,32 110,32 z"
       transform="scale(0.0029,-0.0029)" />
  </g>
  <g
     id="g918"
     transform="translate(41.7429,5.2049984)">
    <rect
       id="rect916"
       fill="currentColor"
       ry="0.042100001"
       height="2.4414001"
       width="0.1228"
       y="-4.7711"
       x="-0.0614" />
  </g>
  <g
     id="g922"
     transform="translate(43.0043,2.9944984)">
    <path
       id="path920"
       fill="currentColor"
       d="m 208,139 c 61,0 117,-33 117,-99 0,-71 -52,-119 -99,-147 -34,-20 -71,-32 -110,-32 -61,0 -116,33 -116,99 0,71 51,119 98,147 34,20 71,32 110,32 z"
       transform="scale(0.0029,-0.0029)" />
  </g>
  <g
     id="g926"
     transform="translate(43.8994,5.2049984)">
    <rect
       id="rect924"
       fill="currentColor"
       ry="0.042100001"
       height="1.7074"
       width="0.1228"
       y="-4.0370998"
       x="-0.0614" />
  </g>
  <g
     id="g930"
     transform="translate(44.9107,4.0997984)">
    <path
       id="path928"
       fill="currentColor"
       d="m 208,139 c 61,0 117,-33 117,-99 0,-71 -52,-119 -99,-147 -34,-20 -71,-32 -110,-32 -61,0 -116,33 -116,99 0,71 51,119 98,147 34,20 71,32 110,32 z"
       transform="scale(0.0029,-0.0029)" />
  </g>
  <g
     id="g934"
     transform="translate(45.8058,5.2049984)">
    <rect
       id="rect932"
       fill="currentColor"
       ry="0.042100001"
       height="2.3318"
       width="0.1228"
       y="-3.5562"
       x="-0.0614" />
  </g>
  <g
     id="g938"
     transform="translate(62.2421,7.7839984)">
    <path
       id="path936"
       fill="currentColor"
       d="m 208,139 c 61,0 117,-33 117,-99 0,-71 -52,-119 -99,-147 -34,-20 -71,-32 -110,-32 -61,0 -116,33 -116,99 0,71 51,119 98,147 34,20 71,32 110,32 z"
       transform="scale(0.0029,-0.0029)" />
  </g>
  <g
     id="g942"
     transform="translate(63.1372,5.2049984)">
    <rect
       id="rect940"
       fill="currentColor"
       ry="0.042100001"
       height="6.0282998"
       width="0.1228"
       y="-3.5685"
       x="-0.0614" />
  </g>
  <g
     id="g946"
     transform="translate(64.6486,2.9944984)">
    <path
       id="path944"
       fill="currentColor"
       d="m 208,139 c 61,0 117,-33 117,-99 0,-71 -52,-119 -99,-147 -34,-20 -71,-32 -110,-32 -61,0 -116,33 -116,99 0,71 51,119 98,147 34,20 71,32 110,32 z"
       transform="scale(0.0029,-0.0029)" />
  </g>
  <g
     id="g950"
     transform="translate(65.5437,5.2049984)">
    <rect
       id="rect948"
       fill="currentColor"
       ry="0.042100001"
       height="1.9984"
       width="0.1228"
       y="-4.3281999"
       x="-0.0614" />
  </g>
  <g
     id="g954"
     transform="translate(66.805,2.9944984)">
    <path
       id="path952"
       fill="currentColor"
       d="m 208,139 c 61,0 117,-33 117,-99 0,-71 -52,-119 -99,-147 -34,-20 -71,-32 -110,-32 -61,0 -116,33 -116,99 0,71 51,119 98,147 34,20 71,32 110,32 z"
       transform="scale(0.0029,-0.0029)" />
  </g>
  <g
     id="g958"
     transform="translate(67.7002,5.2049984)">
    <rect
       id="rect956"
       fill="currentColor"
       ry="0.042100001"
       height="2.6791"
       width="0.1228"
       y="-5.0089002"
       x="-0.0614" />
  </g>
  <g
     id="g962"
     transform="translate(68.9615,2.9944984)">
    <path
       id="path960"
       fill="currentColor"
       d="m 208,139 c 61,0 117,-33 117,-99 0,-71 -52,-119 -99,-147 -34,-20 -71,-32 -110,-32 -61,0 -116,33 -116,99 0,71 51,119 98,147 34,20 71,32 110,32 z"
       transform="scale(0.0029,-0.0029)" />
  </g>
  <g
     id="g966"
     transform="translate(69.8566,5.2049984)">
    <rect
       id="rect964"
       fill="currentColor"
       ry="0.042100001"
       height="1.7099"
       width="0.1228"
       y="-4.0397"
       x="-0.0614" />
  </g>
  <g
     id="g970"
     transform="translate(60.3356,7.0471984)">
    <path
       id="path968"
       fill="currentColor"
       d="m 208,139 c 61,0 117,-33 117,-99 0,-71 -52,-119 -99,-147 -34,-20 -71,-32 -110,-32 -61,0 -116,33 -116,99 0,71 51,119 98,147 34,20 71,32 110,32 z"
       transform="scale(0.0029,-0.0029)" />
  </g>
  <g
     id="g974"
     transform="translate(54.4432,8.1523984)">
    <path
       id="path972"
       fill="currentColor"
       d="m 208,139 c 61,0 117,-33 117,-99 0,-71 -52,-119 -99,-147 -34,-20 -71,-32 -110,-32 -61,0 -116,33 -116,99 0,71 51,119 98,147 34,20 71,32 110,32 z"
       transform="scale(0.0029,-0.0029)" />
  </g>
  <g
     id="g978"
     transform="translate(55.3383,5.2049984)">
    <rect
       id="rect976"
       fill="currentColor"
       ry="0.042100001"
       height="3.0644"
       width="0.1228"
       y="-0.23630001"
       x="-0.0614" />
  </g>
  <g
     id="g982"
     transform="translate(56.8497,7.4155984)">
    <path
       id="path980"
       fill="currentColor"
       d="m 208,139 c 61,0 117,-33 117,-99 0,-71 -52,-119 -99,-147 -34,-20 -71,-32 -110,-32 -61,0 -116,33 -116,99 0,71 51,119 98,147 34,20 71,32 110,32 z"
       transform="scale(0.0029,-0.0029)" />
  </g>
  <g
     id="g986"
     transform="translate(57.7448,5.2049984)">
    <rect
       id="rect984"
       fill="currentColor"
       ry="0.042100001"
       height="2.0971999"
       width="0.1228"
       y="-0.0059000002"
       x="-0.0614" />
  </g>
  <g
     id="g990"
     transform="translate(37.1799,5.2049984)">
    <rect
       id="rect988"
       fill="currentColor"
       ry="0.042100001"
       height="5.4976001"
       width="0.1228"
       y="-3.4063001"
       x="-0.0614" />
  </g>
  <g
     id="g994"
     transform="translate(61.2307,5.2049984)">
    <rect
       id="rect992"
       fill="currentColor"
       ry="0.042100001"
       height="4.6896"
       width="0.1228"
       y="-2.9667001"
       x="-0.0614" />
  </g>
  <g
     id="g998"
     transform="translate(17.047,2.9944984)">
    <path
       id="path996"
       fill="currentColor"
       d="m 208,139 c 61,0 117,-33 117,-99 0,-71 -52,-119 -99,-147 -34,-20 -71,-32 -110,-32 -61,0 -116,33 -116,99 0,71 51,119 98,147 34,20 71,32 110,32 z"
       transform="scale(0.0029,-0.0029)" />
  </g>
  <g
     id="g1002"
     transform="translate(12.734,2.9944984)">
    <path
       id="path1000"
       fill="currentColor"
       d="m 208,139 c 61,0 117,-33 117,-99 0,-71 -52,-119 -99,-147 -34,-20 -71,-32 -110,-32 -61,0 -116,33 -116,99 0,71 51,119 98,147 34,20 71,32 110,32 z"
       transform="scale(0.0029,-0.0029)" />
  </g>
  <g
     id="g1006"
     transform="translate(13.6291,5.2049984)">
    <rect
       id="rect1004"
       fill="currentColor"
       ry="0.042100001"
       height="1.7964"
       width="0.1228"
       y="-4.1261001"
       x="-0.0614" />
  </g>
  <g
     id="g1010"
     transform="translate(14.8905,2.9944984)">
    <path
       id="path1008"
       fill="currentColor"
       d="m 208,139 c 61,0 117,-33 117,-99 0,-71 -52,-119 -99,-147 -34,-20 -71,-32 -110,-32 -61,0 -116,33 -116,99 0,71 51,119 98,147 34,20 71,32 110,32 z"
       transform="scale(0.0029,-0.0029)" />
  </g>
  <g
     id="g1014"
     transform="translate(15.7856,5.2049984)">
    <rect
       id="rect1012"
       fill="currentColor"
       ry="0.042100001"
       height="2.4414001"
       width="0.1228"
       y="-4.7711"
       x="-0.0614" />
  </g>
  <g
     id="g1018"
     transform="translate(17.9421,5.2049984)">
    <rect
       id="rect1016"
       fill="currentColor"
       ry="0.042100001"
       height="1.9476"
       width="0.1228"
       y="-4.2772999"
       x="-0.0614" />
  </g>
  <g
     id="g1022"
     transform="translate(18.9535,3.7313984)">
    <path
       id="path1020"
       fill="currentColor"
       d="m 208,139 c 61,0 117,-33 117,-99 0,-71 -52,-119 -99,-147 -34,-20 -71,-32 -110,-32 -61,0 -116,33 -116,99 0,71 51,119 98,147 34,20 71,32 110,32 z"
       transform="scale(0.0029,-0.0029)" />
  </g>
  <g
     id="g1026"
     transform="translate(19.8486,5.2049984)">
    <rect
       id="rect1024"
       fill="currentColor"
       ry="0.042100001"
       height="2.2458"
       width="0.1228"
       y="-3.8387001"
       x="-0.0614" />
  </g>
  <g
     id="g1030"
     transform="translate(20.8599,4.4681984)">
    <path
       id="path1028"
       fill="currentColor"
       d="m 208,139 c 61,0 117,-33 117,-99 0,-71 -52,-119 -99,-147 -34,-20 -71,-32 -110,-32 -61,0 -116,33 -116,99 0,71 51,119 98,147 34,20 71,32 110,32 z"
       transform="scale(0.0029,-0.0029)" />
  </g>
  <g
     id="g1034"
     transform="translate(0.8,5.9418984)">
    <path
       id="path1032"
       fill="currentColor"
       d="m 381,266 h 9 c 157,0 258,-130 258,-264 0,-77 -33,-156 -108,-212 -22,-16 -46,-28 -71,-36 2,-32 3,-65 3,-97 0,-21 -1,-43 -2,-64 -7,-122 -91,-230 -211,-230 -108,0 -197,88 -197,197 0,58 54,104 113,104 54,0 95,-48 95,-104 0,-52 -43,-95 -95,-95 -8,0 -16,2 -24,4 25,-35 65,-59 111,-59 95,0 155,92 161,190 1,20 2,39 2,59 0,28 -1,55 -3,83 -29,-5 -57,-7 -87,-7 -189,0 -333,174 -333,377 0,176 128,307 242,443 -21,62 -41,124 -50,189 -7,52 -8,106 -8,159 0,113 54,219 146,286 8,6 21,7 29,0 72,-82 136,-244 136,-357 0,-141 -83,-253 -174,-362 22,-67 41,-135 58,-204 z m 83,-466 c 64,25 108,93 108,159 0,87 -62,173 -163,187 24,-113 43,-225 55,-346 z m -126,-18 c 27,0 54,2 80,6 C 405,-87 385,30 360,147 281,140 237,88 237,31 c 0,-43 24,-89 78,-120 5,-5 8,-11 8,-17 0,-13 -11,-24 -24,-24 -3,0 -7,0 -10,2 -81,44 -119,116 -119,187 0,90 60,178 164,201 -14,56 -30,112 -47,167 C 183,305 79,182 79,23 79,-109 206,-218 338,-218 Z M 239,782 c 0,-69 22,-127 41,-183 77,97 140,199 140,323 0,49 -3,69 -19,113 C 302,990 239,890 239,782 Z"
       transform="scale(0.0029,-0.0029)" />
  </g>
  <g
     id="g1038"
     transform="translate(4.3,3.7313984)">
    <path
       id="path1036"
       fill="currentColor"
       d="m 0,114 c 0,12 7,22 18,26 l 37,15 v 151 c 0,12 10,22 22,22 12,0 22,-10 22,-22 V 172 l 77,29 v 152 c 0,12 10,22 22,22 12,0 22,-10 22,-22 V 219 l 16,6 c 3,1 8,2 11,2 15,0 28,-12 28,-28 v -50 c 0,-12 -7,-23 -18,-27 L 220,108 V -44 l 16,7 c 3,1 8,2 11,2 15,0 28,-13 28,-29 v -50 c 0,-12 -7,-22 -18,-26 l -37,-15 v -151 c 0,-12 -10,-22 -22,-22 -12,0 -22,10 -22,22 v 134 l -77,-29 v -152 c 0,-12 -10,-22 -22,-22 -12,0 -22,10 -22,22 v 134 l -16,-6 c -3,-1 -8,-2 -11,-2 -15,0 -28,12 -28,28 v 50 c 0,12 7,23 18,27 l 37,14 V 44 L 39,37 C 36,36 31,35 28,35 13,35 0,48 0,64 Z M 176,91 99,61 V -91 l 77,30 z"
       transform="scale(0.0029,-0.0029)" />
  </g>
  <g
     id="g1042"
     transform="translate(5.1105,4.8365984)">
    <path
       id="path1040"
       fill="currentColor"
       d="m 0,114 c 0,12 7,22 18,26 l 37,15 v 151 c 0,12 10,22 22,22 12,0 22,-10 22,-22 V 172 l 77,29 v 152 c 0,12 10,22 22,22 12,0 22,-10 22,-22 V 219 l 16,6 c 3,1 8,2 11,2 15,0 28,-12 28,-28 v -50 c 0,-12 -7,-23 -18,-27 L 220,108 V -44 l 16,7 c 3,1 8,2 11,2 15,0 28,-13 28,-29 v -50 c 0,-12 -7,-22 -18,-26 l -37,-15 v -151 c 0,-12 -10,-22 -22,-22 -12,0 -22,10 -22,22 v 134 l -77,-29 v -152 c 0,-12 -10,-22 -22,-22 -12,0 -22,10 -22,22 v 134 l -16,-6 c -3,-1 -8,-2 -11,-2 -15,0 -28,12 -28,28 v 50 c 0,12 7,23 18,27 l 37,14 V 44 L 39,37 C 36,36 31,35 28,35 13,35 0,48 0,64 Z M 176,91 99,61 V -91 l 77,30 z"
       transform="scale(0.0029,-0.0029)" />
  </g>
  <g
     id="g1046"
     transform="translate(21.7551,5.2049984)">
    <rect
       id="rect1044"
       fill="currentColor"
       ry="0.042100001"
       height="2.5439999"
       width="0.1228"
       y="-3.4001"
       x="-0.0614" />
  </g>
  <g
     id="g1050"
     transform="translate(8.421,6.3102984)">
    <path
       id="path1048"
       fill="currentColor"
       d="m 208,139 c 61,0 117,-33 117,-99 0,-71 -52,-119 -99,-147 -34,-20 -71,-32 -110,-32 -61,0 -116,33 -116,99 0,71 51,119 98,147 34,20 71,32 110,32 z"
       transform="scale(0.0029,-0.0029)" />
  </g>
  <g
     id="g1054"
     transform="translate(9.3161,5.2049984)">
    <rect
       id="rect1052"
       fill="currentColor"
       ry="0.042100001"
       height="3.8220999"
       width="0.1228"
       y="-2.8361001"
       x="-0.0614" />
  </g>
  <g
     id="g1058"
     transform="translate(10.3275,7.0471984)">
    <path
       id="path1056"
       fill="currentColor"
       d="m 208,139 c 61,0 117,-33 117,-99 0,-71 -52,-119 -99,-147 -34,-20 -71,-32 -110,-32 -61,0 -116,33 -116,99 0,71 51,119 98,147 34,20 71,32 110,32 z"
       transform="scale(0.0029,-0.0029)" />
  </g>
  <g
     id="g1062"
     transform="translate(11.2226,5.2049984)">
    <rect
       id="rect1060"
       fill="currentColor"
       ry="0.042100001"
       height="5.1292"
       width="0.1228"
       y="-3.4063001"
       x="-0.0614" />
  </g>
  <g
     id="g1066"
     transform="translate(35.2734,5.2049984)">
    <rect
       id="rect1064"
       fill="currentColor"
       ry="0.042100001"
       height="4.1905999"
       width="0.1228"
       y="-2.8361001"
       x="-0.0614" />
  </g>
  <g
     id="g1070"
     transform="translate(30.8924,7.0471984)">
    <path
       id="path1068"
       fill="currentColor"
       d="m 208,139 c 61,0 117,-33 117,-99 0,-71 -52,-119 -99,-147 -34,-20 -71,-32 -110,-32 -61,0 -116,33 -116,99 0,71 51,119 98,147 34,20 71,32 110,32 z"
       transform="scale(0.0029,-0.0029)" />
  </g>
  <g
     id="g1074"
     transform="translate(31.7875,5.2049984)">
    <rect
       id="rect1072"
       fill="currentColor"
       ry="0.042100001"
       height="2.4656"
       width="0.1228"
       y="-0.74269998"
       x="-0.0614" />
  </g>
  <g
     id="g1078"
     transform="translate(34.3783,6.6786984)">
    <path
       id="path1076"
       fill="currentColor"
       d="m 208,139 c 61,0 117,-33 117,-99 0,-71 -52,-119 -99,-147 -34,-20 -71,-32 -110,-32 -61,0 -116,33 -116,99 0,71 51,119 98,147 34,20 71,32 110,32 z"
       transform="scale(0.0029,-0.0029)" />
  </g>
  <g
     id="g1082"
     transform="translate(36.2848,7.4155984)">
    <path
       id="path1080"
       fill="currentColor"
       d="m 208,139 c 61,0 117,-33 117,-99 0,-71 -52,-119 -99,-147 -34,-20 -71,-32 -110,-32 -61,0 -116,33 -116,99 0,71 51,119 98,147 34,20 71,32 110,32 z"
       transform="scale(0.0029,-0.0029)" />
  </g>
  <g
     id="g1086"
     transform="translate(22.7664,5.5734984)">
    <path
       id="path1084"
       fill="currentColor"
       d="m 208,139 c 61,0 117,-33 117,-99 0,-71 -52,-119 -99,-147 -34,-20 -71,-32 -110,-32 -61,0 -116,33 -116,99 0,71 51,119 98,147 34,20 71,32 110,32 z"
       transform="scale(0.0029,-0.0029)" />
  </g>
  <g
     id="g1090"
     transform="translate(23.6615,5.2049984)">
    <rect
       id="rect1088"
       fill="currentColor"
       ry="0.042100001"
       height="3.2107"
       width="0.1228"
       y="-2.9614999"
       x="-0.0614" />
  </g>
  <g
     id="g1094"
     transform="translate(24.6729,6.3102984)">
    <path
       id="path1092"
       fill="currentColor"
       d="m 208,139 c 61,0 117,-33 117,-99 0,-71 -52,-119 -99,-147 -34,-20 -71,-32 -110,-32 -61,0 -116,33 -116,99 0,71 51,119 98,147 34,20 71,32 110,32 z"
       transform="scale(0.0029,-0.0029)" />
  </g>
  <g
     id="g1098"
     transform="translate(25.568,5.2049984)">
    <rect
       id="rect1096"
       fill="currentColor"
       ry="0.042100001"
       height="2.3241999"
       width="0.1228"
       y="-1.3382"
       x="-0.0614" />
  </g>
  <g
     id="g1102"
     transform="translate(26.5794,7.0471984)">
    <path
       id="path1100"
       fill="currentColor"
       d="m 208,139 c 61,0 117,-33 117,-99 0,-71 -52,-119 -99,-147 -34,-20 -71,-32 -110,-32 -61,0 -116,33 -116,99 0,71 51,119 98,147 34,20 71,32 110,32 z"
       transform="scale(0.0029,-0.0029)" />
  </g>
  <g
     id="g1106"
     transform="translate(27.4745,5.2049984)">
    <rect
       id="rect1104"
       fill="currentColor"
       ry="0.042100001"
       height="2.8785"
       width="0.1228"
       y="-1.1557"
       x="-0.0614" />
  </g>
  <g
     id="g1110"
     transform="translate(28.4859,8.1523984)">
    <path
       id="path1108"
       fill="currentColor"
       d="m 208,139 c 61,0 117,-33 117,-99 0,-71 -52,-119 -99,-147 -34,-20 -71,-32 -110,-32 -61,0 -116,33 -116,99 0,71 51,119 98,147 34,20 71,32 110,32 z"
       transform="scale(0.0029,-0.0029)" />
  </g>
  <g
     id="g1114"
     transform="translate(29.381,5.2049984)">
    <rect
       id="rect1112"
       fill="currentColor"
       ry="0.042100001"
       height="3.8013"
       width="0.1228"
       y="-0.97310001"
       x="-0.0614" />
  </g>
  <g
     id="g1118"
     transform="translate(91.6664,2.9944984)">
    <path
       id="path1116"
       fill="currentColor"
       d="m 208,139 c 61,0 117,-33 117,-99 0,-71 -52,-119 -99,-147 -34,-20 -71,-32 -110,-32 -61,0 -116,33 -116,99 0,71 51,119 98,147 34,20 71,32 110,32 z"
       transform="scale(0.0029,-0.0029)" />
  </g>
  <g
     id="g1122"
     transform="translate(92.5615,5.2049984)">
    <rect
       id="rect1120"
       fill="currentColor"
       ry="0.042100001"
       height="1.9617"
       width="0.1228"
       y="-4.2914"
       x="-0.0614" />
  </g>
  <g
     id="g1126"
     transform="translate(93.8229,2.9944984)">
    <path
       id="path1124"
       fill="currentColor"
       d="m 208,139 c 61,0 117,-33 117,-99 0,-71 -52,-119 -99,-147 -34,-20 -71,-32 -110,-32 -61,0 -116,33 -116,99 0,71 51,119 98,147 34,20 71,32 110,32 z"
       transform="scale(0.0029,-0.0029)" />
  </g>
  <g
     id="g1130"
     transform="translate(94.718,5.2049984)">
    <rect
       id="rect1128"
       fill="currentColor"
       ry="0.042100001"
       height="1.9617"
       width="0.1228"
       y="-4.2914"
       x="-0.0614" />
  </g>
  <g
     id="g1134"
     transform="translate(111.7199,5.2049984)">
    <rect
       id="rect1132"
       fill="currentColor"
       ry="0.042100001"
       height="2.8353"
       width="0.1228"
       y="-2.2177"
       x="-0.0614" />
  </g>
  <g
     id="g1138"
     transform="translate(95.9793,2.9944984)">
    <path
       id="path1136"
       fill="currentColor"
       d="m 208,139 c 61,0 117,-33 117,-99 0,-71 -52,-119 -99,-147 -34,-20 -71,-32 -110,-32 -61,0 -116,33 -116,99 0,71 51,119 98,147 34,20 71,32 110,32 z"
       transform="scale(0.0029,-0.0029)" />
  </g>
  <g
     id="g1142"
     transform="translate(88.2485,5.2049984)">
    <rect
       id="rect1140"
       fill="currentColor"
       ry="0.042100001"
       height="1.9617"
       width="0.1228"
       y="-4.2914"
       x="-0.0614" />
  </g>
  <g
     id="g1146"
     transform="translate(115.1585,5.2049984)">
    <rect
       id="rect1144"
       fill="currentColor"
       ry="0.042100001"
       height="2.4654"
       width="0.1228"
       y="-1.4793"
       x="-0.0614" />
  </g>
  <g
     id="g1150"
     transform="translate(110.8248,5.9418984)">
    <path
       id="path1148"
       fill="currentColor"
       d="m 208,139 c 61,0 117,-33 117,-99 0,-71 -52,-119 -99,-147 -34,-20 -71,-32 -110,-32 -61,0 -116,33 -116,99 0,71 51,119 98,147 34,20 71,32 110,32 z"
       transform="scale(0.0029,-0.0029)" />
  </g>
  <g
     id="g1154"
     transform="translate(114.2634,6.3102984)">
    <path
       id="path1152"
       fill="currentColor"
       d="m 208,139 c 61,0 117,-33 117,-99 0,-71 -52,-119 -99,-147 -34,-20 -71,-32 -110,-32 -61,0 -116,33 -116,99 0,71 51,119 98,147 34,20 71,32 110,32 z"
       transform="scale(0.0029,-0.0029)" />
  </g>
  <g
     id="g1158"
     transform="translate(89.2599,4.0997984)">
    <path
       id="path1156"
       fill="currentColor"
       d="m 208,139 c 61,0 117,-33 117,-99 0,-71 -52,-119 -99,-147 -34,-20 -71,-32 -110,-32 -61,0 -116,33 -116,99 0,71 51,119 98,147 34,20 71,32 110,32 z"
       transform="scale(0.0029,-0.0029)" />
  </g>
  <g
     id="g1162"
     transform="translate(90.155,5.2049984)">
    <rect
       id="rect1160"
       fill="currentColor"
       ry="0.042100001"
       height="3.0669"
       width="0.1228"
       y="-4.2914"
       x="-0.0614" />
  </g>
  <g
     id="g1166"
     transform="translate(109.8134,5.2049984)">
    <rect
       id="rect1164"
       fill="currentColor"
       ry="0.042100001"
       height="1.9515001"
       width="0.1228"
       y="-2.4391999"
       x="-0.0614" />
  </g>
  <g
     id="g1170"
     transform="translate(108.9183,4.8365984)">
    <path
       id="path1168"
       fill="currentColor"
       d="m 208,139 c 61,0 117,-33 117,-99 0,-71 -52,-119 -99,-147 -34,-20 -71,-32 -110,-32 -61,0 -116,33 -116,99 0,71 51,119 98,147 34,20 71,32 110,32 z"
       transform="scale(0.0029,-0.0029)" />
  </g>
  <g
     id="g1174"
     transform="translate(102.4488,4.0997984)">
    <path
       id="path1172"
       fill="currentColor"
       d="m 208,139 c 61,0 117,-33 117,-99 0,-71 -52,-119 -99,-147 -34,-20 -71,-32 -110,-32 -61,0 -116,33 -116,99 0,71 51,119 98,147 34,20 71,32 110,32 z"
       transform="scale(0.0029,-0.0029)" />
  </g>
  <g
     id="g1178"
     transform="translate(103.3439,5.2049984)">
    <rect
       id="rect1176"
       fill="currentColor"
       ry="0.042100001"
       height="2.4631"
       width="0.1228"
       y="-3.6875999"
       x="-0.0614" />
  </g>
  <g
     id="g1182"
     transform="translate(104.6053,4.0997984)">
    <path
       id="path1180"
       fill="currentColor"
       d="m 208,139 c 61,0 117,-33 117,-99 0,-71 -52,-119 -99,-147 -34,-20 -71,-32 -110,-32 -61,0 -116,33 -116,99 0,71 51,119 98,147 34,20 71,32 110,32 z"
       transform="scale(0.0029,-0.0029)" />
  </g>
  <g
     id="g1186"
     transform="translate(105.5004,5.2049984)">
    <rect
       id="rect1184"
       fill="currentColor"
       ry="0.042100001"
       height="1.7157"
       width="0.1228"
       y="-2.9402001"
       x="-0.0614" />
  </g>
  <g
     id="g1190"
     transform="translate(107.4069,5.2049984)">
    <rect
       id="rect1188"
       fill="currentColor"
       ry="0.042100001"
       height="2.9679"
       width="0.1228"
       y="-2.7186999"
       x="-0.0614" />
  </g>
  <g
     id="g1194"
     transform="translate(106.5118,5.5734984)">
    <path
       id="path1192"
       fill="currentColor"
       d="m 208,139 c 61,0 117,-33 117,-99 0,-71 -52,-119 -99,-147 -34,-20 -71,-32 -110,-32 -61,0 -116,33 -116,99 0,71 51,119 98,147 34,20 71,32 110,32 z"
       transform="scale(0.0029,-0.0029)" />
  </g>
  <g
     id="g1198"
     transform="translate(96.8744,5.2049984)">
    <rect
       id="rect1196"
       fill="currentColor"
       ry="0.042100001"
       height="1.7194"
       width="0.1228"
       y="-4.0492001"
       x="-0.0614" />
  </g>
  <g
     id="g1202"
     transform="translate(97.8858,4.8365984)">
    <path
       id="path1200"
       fill="currentColor"
       d="m 208,139 c 61,0 117,-33 117,-99 0,-71 -52,-119 -99,-147 -34,-20 -71,-32 -110,-32 -61,0 -116,33 -116,99 0,71 51,119 98,147 34,20 71,32 110,32 z"
       transform="scale(0.0029,-0.0029)" />
  </g>
  <g
     id="g1206"
     transform="translate(98.7809,5.2049984)">
    <rect
       id="rect1204"
       fill="currentColor"
       ry="0.042100001"
       height="3.4549999"
       width="0.1228"
       y="-3.9426999"
       x="-0.0614" />
  </g>
  <g
     id="g1210"
     transform="translate(100.2923,4.0997984)">
    <path
       id="path1208"
       fill="currentColor"
       d="m 208,139 c 61,0 117,-33 117,-99 0,-71 -52,-119 -99,-147 -34,-20 -71,-32 -110,-32 -61,0 -116,33 -116,99 0,71 51,119 98,147 34,20 71,32 110,32 z"
       transform="scale(0.0029,-0.0029)" />
  </g>
  <g
     id="g1214"
     transform="translate(101.1874,5.2049984)">
    <rect
       id="rect1212"
       fill="currentColor"
       ry="0.042100001"
       height="2.5836999"
       width="0.1228"
       y="-3.8081999"
       x="-0.0614" />
  </g>
  <g
     id="g1218"
     transform="translate(79.8045,3.3628984)">
    <path
       id="path1216"
       fill="currentColor"
       d="m 208,139 c 61,0 117,-33 117,-99 0,-71 -52,-119 -99,-147 -34,-20 -71,-32 -110,-32 -61,0 -116,33 -116,99 0,71 51,119 98,147 34,20 71,32 110,32 z"
       transform="scale(0.0029,-0.0029)" />
  </g>
  <g
     id="g1222"
     transform="translate(77.9826,5.2049984)">
    <rect
       id="rect1220"
       fill="currentColor"
       ry="0.042100001"
       height="3.2007999"
       width="0.1228"
       y="-4.0569"
       x="-0.0614" />
  </g>
  <g
     id="g1226"
     transform="translate(77.0875,4.4681984)">
    <path
       id="path1224"
       fill="currentColor"
       d="m 208,139 c 61,0 117,-33 117,-99 0,-71 -52,-119 -99,-147 -34,-20 -71,-32 -110,-32 -61,0 -116,33 -116,99 0,71 51,119 98,147 34,20 71,32 110,32 z"
       transform="scale(0.0029,-0.0029)" />
  </g>
  <g
     id="g1230"
     transform="translate(80.6996,5.2049984)">
    <rect
       id="rect1228"
       fill="currentColor"
       ry="0.042100001"
       height="2.2848001"
       width="0.1228"
       y="-4.2460999"
       x="-0.0614" />
  </g>
  <g
     id="g1234"
     transform="translate(117.065,5.2049984)">
    <rect
       id="rect1232"
       fill="currentColor"
       ry="0.042100001"
       height="3.3778"
       width="0.1228"
       y="-1.6549"
       x="-0.0614" />
  </g>
  <g
     id="g1238"
     transform="translate(116.1699,7.0471984)">
    <path
       id="path1236"
       fill="currentColor"
       d="m 208,139 c 61,0 117,-33 117,-99 0,-71 -52,-119 -99,-147 -34,-20 -71,-32 -110,-32 -61,0 -116,33 -116,99 0,71 51,119 98,147 34,20 71,32 110,32 z"
       transform="scale(0.0029,-0.0029)" />
  </g>
  <g
     id="g1242"
     transform="translate(118.6378,5.2049984)">
    <rect
       id="rect1240"
       fill="currentColor"
       ry="0.042100001"
       height="2.0913"
       width="0.1228"
       y="0.4876"
       x="-0.0614" />
  </g>
  <g
     id="g1246"
     transform="translate(119.4715,5.2049984)">
    <rect
       id="rect1244"
       fill="currentColor"
       ry="0.042100001"
       height="2.1257999"
       width="0.1228"
       y="-1.8766"
       x="-0.0614" />
  </g>
  <g
     id="g1250"
     transform="translate(118.5764,5.5734984)">
    <path
       id="path1248"
       fill="currentColor"
       d="m 208,139 c 61,0 117,-33 117,-99 0,-71 -52,-119 -99,-147 -34,-20 -71,-32 -110,-32 -61,0 -116,33 -116,99 0,71 51,119 98,147 34,20 71,32 110,32 z"
       transform="scale(0.0029,-0.0029)" />
  </g>
  <g
     id="g1254"
     transform="translate(74.681,5.2049984)">
    <path
       id="path1252"
       fill="currentColor"
       d="m 208,139 c 61,0 117,-33 117,-99 0,-71 -52,-119 -99,-147 -34,-20 -71,-32 -110,-32 -61,0 -116,33 -116,99 0,71 51,119 98,147 34,20 71,32 110,32 z"
       transform="scale(0.0029,-0.0029)" />
  </g>
  <g
     id="g1258"
     transform="translate(75.5761,5.2049984)">
    <rect
       id="rect1256"
       fill="currentColor"
       ry="0.042100001"
       height="2.7114999"
       width="0.1228"
       y="-2.8306999"
       x="-0.0614" />
  </g>
  <g
     id="g1262"
     transform="translate(73.6696,5.2049984)">
    <rect
       id="rect1260"
       fill="currentColor"
       ry="0.042100001"
       height="2.3776"
       width="0.1228"
       y="-3.2337"
       x="-0.0614" />
  </g>
  <g
     id="g1266"
     transform="translate(118.5764,5.5734984)">
    <path
       id="path1264"
       fill="currentColor"
       d="m 208,139 c 61,0 117,-33 117,-99 0,-71 -52,-119 -99,-147 -34,-20 -71,-32 -110,-32 -61,0 -116,33 -116,99 0,71 51,119 98,147 34,20 71,32 110,32 z"
       transform="scale(0.0029,-0.0029)" />
  </g>
  <g
     id="g1270"
     transform="translate(72.7745,4.4681984)">
    <path
       id="path1268"
       fill="currentColor"
       d="m 208,139 c 61,0 117,-33 117,-99 0,-71 -52,-119 -99,-147 -34,-20 -71,-32 -110,-32 -61,0 -116,33 -116,99 0,71 51,119 98,147 34,20 71,32 110,32 z"
       transform="scale(0.0029,-0.0029)" />
  </g>
  <g
     id="g1274"
     transform="translate(78.644,3.3628984)">
    <path
       id="path1272"
       fill="currentColor"
       d="m 0,114 c 0,12 7,22 18,26 l 37,15 v 151 c 0,12 10,22 22,22 12,0 22,-10 22,-22 V 172 l 77,29 v 152 c 0,12 10,22 22,22 12,0 22,-10 22,-22 V 219 l 16,6 c 3,1 8,2 11,2 15,0 28,-12 28,-28 v -50 c 0,-12 -7,-23 -18,-27 L 220,108 V -44 l 16,7 c 3,1 8,2 11,2 15,0 28,-13 28,-29 v -50 c 0,-12 -7,-22 -18,-26 l -37,-15 v -151 c 0,-12 -10,-22 -22,-22 -12,0 -22,10 -22,22 v 134 l -77,-29 v -152 c 0,-12 -10,-22 -22,-22 -12,0 -22,10 -22,22 v 134 l -16,-6 c -3,-1 -8,-2 -11,-2 -15,0 -28,12 -28,28 v 50 c 0,12 7,23 18,27 l 37,14 V 44 L 39,37 C 36,36 31,35 28,35 13,35 0,48 0,64 Z M 176,91 99,61 V -91 l 77,30 z"
       transform="scale(0.0029,-0.0029)" />
  </g>
  <g
     id="g1278"
     transform="translate(84.1175,3.3628984)">
    <path
       id="path1276"
       fill="currentColor"
       d="m 208,139 c 61,0 117,-33 117,-99 0,-71 -52,-119 -99,-147 -34,-20 -71,-32 -110,-32 -61,0 -116,33 -116,99 0,71 51,119 98,147 34,20 71,32 110,32 z"
       transform="scale(0.0029,-0.0029)" />
  </g>
  <g
     id="g1282"
     transform="translate(85.0126,5.2049984)">
    <rect
       id="rect1280"
       fill="currentColor"
       ry="0.042100001"
       height="2.5850999"
       width="0.1228"
       y="-4.5464001"
       x="-0.0614" />
  </g>
  <g
     id="g1286"
     transform="translate(71.7631,5.2049984)">
    <rect
       id="rect1284"
       fill="currentColor"
       ry="0.042100001"
       height="2.0438001"
       width="0.1228"
       y="-3.6366999"
       x="-0.0614" />
  </g>
  <g
     id="g1290"
     transform="translate(70.868,3.7313984)">
    <path
       id="path1288"
       fill="currentColor"
       d="m 208,139 c 61,0 117,-33 117,-99 0,-71 -52,-119 -99,-147 -34,-20 -71,-32 -110,-32 -61,0 -116,33 -116,99 0,71 51,119 98,147 34,20 71,32 110,32 z"
       transform="scale(0.0029,-0.0029)" />
  </g>
  <g
     id="g1294"
     transform="translate(87.3534,2.9944984)">
    <path
       id="path1292"
       fill="currentColor"
       d="m 208,139 c 61,0 117,-33 117,-99 0,-71 -52,-119 -99,-147 -34,-20 -71,-32 -110,-32 -61,0 -116,33 -116,99 0,71 51,119 98,147 34,20 71,32 110,32 z"
       transform="scale(0.0029,-0.0029)" />
  </g>
  <g
     id="g1298"
     transform="translate(82.211,2.6260984)">
    <path
       id="path1296"
       fill="currentColor"
       d="m 208,139 c 61,0 117,-33 117,-99 0,-71 -52,-119 -99,-147 -34,-20 -71,-32 -110,-32 -61,0 -116,33 -116,99 0,71 51,119 98,147 34,20 71,32 110,32 z"
       transform="scale(0.0029,-0.0029)" />
  </g>
  <g
     id="g1302"
     transform="translate(83.1061,5.2049984)">
    <rect
       id="rect1300"
       fill="currentColor"
       ry="0.042100001"
       height="1.7155"
       width="0.1228"
       y="-4.4137001"
       x="-0.0614" />
  </g>
</svg>
