<?xml version="1.0" encoding="UTF-8" standalone="no"?>
<svg
   xmlns:dc="http://purl.org/dc/elements/1.1/"
   xmlns:cc="http://creativecommons.org/ns#"
   xmlns:rdf="http://www.w3.org/1999/02/22-rdf-syntax-ns#"
   xmlns:svg="http://www.w3.org/2000/svg"
   xmlns="http://www.w3.org/2000/svg"
   xmlns:sodipodi="http://sodipodi.sourceforge.net/DTD/sodipodi-0.dtd"
   xmlns:inkscape="http://www.inkscape.org/namespaces/inkscape"
   sodipodi:docname="bwv-1004_5_for_PNGs-21.svg"
   id="svg1228"
   viewBox="0 0 223.15848 9.5516003"
   height="15.945765mm"
   width="372.54837mm"
   version="1.2">
  <metadata
     id="metadata1234">
    <rdf:RDF>
      <cc:Work
         rdf:about="">
        <dc:format>image/svg+xml</dc:format>
        <dc:type
           rdf:resource="http://purl.org/dc/dcmitype/StillImage" />
      </cc:Work>
    </rdf:RDF>
  </metadata>
  <defs
     id="defs1232" />
  <sodipodi:namedview
     id="namedview1230"
     inkscape:window-height="480"
     inkscape:window-width="640"
     inkscape:pageshadow="2"
     inkscape:pageopacity="0"
     guidetolerance="10"
     gridtolerance="10"
     objecttolerance="10"
     borderopacity="1"
     bordercolor="#666666"
     pagecolor="#ffffff" />
  <style
     id="style2"
     type="text/css"><![CDATA[
tspan { white-space: pre; }
]]></style>
  <g
     id="g6"
     transform="translate(0,7.6747998)">
    <line
       id="line4"
       y2="0"
       x2="223.1113"
       y1="0"
       x1="0.047200002"
       stroke="currentColor"
       stroke-width="0.0944"
       stroke-linecap="round"
       stroke-linejoin="round" />
  </g>
  <g
     id="g10"
     transform="translate(0,6.9379998)">
    <line
       id="line8"
       y2="0"
       x2="223.1113"
       y1="0"
       x1="0.047200002"
       stroke="currentColor"
       stroke-width="0.0944"
       stroke-linecap="round"
       stroke-linejoin="round" />
  </g>
  <g
     id="g14"
     transform="translate(0,6.2010998)">
    <line
       id="line12"
       y2="0"
       x2="223.1113"
       y1="0"
       x1="0.047200002"
       stroke="currentColor"
       stroke-width="0.0944"
       stroke-linecap="round"
       stroke-linejoin="round" />
  </g>
  <g
     id="g18"
     transform="translate(0,5.4642998)">
    <line
       id="line16"
       y2="0"
       x2="223.1113"
       y1="0"
       x1="0.047200002"
       stroke="currentColor"
       stroke-width="0.0944"
       stroke-linecap="round"
       stroke-linejoin="round" />
  </g>
  <g
     id="g22"
     transform="translate(0,4.7274998)">
    <line
       id="line20"
       y2="0"
       x2="223.1113"
       y1="0"
       x1="0.047200002"
       stroke="currentColor"
       stroke-width="0.0944"
       stroke-linecap="round"
       stroke-linejoin="round" />
  </g>
  <g
     id="g26"
     transform="translate(142.0232,6.2010998)">
    <rect
       id="rect24"
       fill="currentColor"
       ry="0.0000"
       height="2.9474001"
       width="0.1794"
       y="-1.4737"
       x="0" />
  </g>
  <g
     id="g30"
     transform="translate(33.7989,6.2010998)">
    <rect
       id="rect28"
       fill="currentColor"
       ry="0.0000"
       height="2.9474001"
       width="0.1794"
       y="-1.4737"
       x="0" />
  </g>
  <g
     id="g34"
     transform="translate(87.5488,6.2010998)">
    <rect
       id="rect32"
       fill="currentColor"
       ry="0.0000"
       height="2.9474001"
       width="0.1794"
       y="-1.4737"
       x="0" />
  </g>
  <g
     id="g38"
     transform="translate(195.5691,6.2010998)">
    <rect
       id="rect36"
       fill="currentColor"
       ry="0.0000"
       height="2.9474001"
       width="0.1794"
       y="-1.4737"
       x="0" />
  </g>
  <g
     id="g42"
     transform="translate(222.9791,6.2010998)">
    <rect
       id="rect40"
       fill="currentColor"
       ry="0.0000"
       height="2.9474001"
       width="0.1794"
       y="-1.4737"
       x="0" />
  </g>
  <g
     id="g46"
     transform="translate(115.2561,6.2010998)">
    <rect
       id="rect44"
       fill="currentColor"
       ry="0.0000"
       height="2.9474001"
       width="0.1794"
       y="-1.4737"
       x="0" />
  </g>
  <g
     id="g50"
     transform="translate(168.7305,6.2010998)">
    <rect
       id="rect48"
       fill="currentColor"
       ry="0.0000"
       height="2.9474001"
       width="0.1794"
       y="-1.4737"
       x="0" />
  </g>
  <g
     id="g54"
     transform="translate(60.2562,6.2010998)">
    <rect
       id="rect52"
       fill="currentColor"
       ry="0.0000"
       height="2.9474001"
       width="0.1794"
       y="-1.4737"
       x="0" />
  </g>
  <g
     id="g58"
     transform="translate(0,8.4116998)">
    <rect
       id="rect56"
       fill="currentColor"
       ry="0.084100001"
       height="0.1681"
       width="1.4347"
       y="-0.084100001"
       x="215.56779" />
  </g>
  <g
     id="g62"
     transform="translate(0,8.4116998)">
    <rect
       id="rect60"
       fill="currentColor"
       ry="0.084100001"
       height="0.1681"
       width="1.4347"
       y="-0.084100001"
       x="213.1613" />
  </g>
  <g
     id="g66"
     transform="translate(0,9.1484998)">
    <rect
       id="rect64"
       fill="currentColor"
       ry="0.084100001"
       height="0.1681"
       width="1.4347"
       y="-0.084100001"
       x="213.1613" />
  </g>
  <g
     id="g70"
     transform="translate(0,8.4116998)">
    <rect
       id="rect68"
       fill="currentColor"
       ry="0.084100001"
       height="0.1681"
       width="1.4347"
       y="-0.084100001"
       x="208.8483" />
  </g>
  <g
     id="g74"
     transform="translate(0,3.9905998)">
    <rect
       id="rect72"
       fill="currentColor"
       ry="0.084100001"
       height="0.1681"
       width="1.4347"
       y="-0.084100001"
       x="180.1033" />
  </g>
  <g
     id="g78"
     transform="translate(0,3.9905998)">
    <rect
       id="rect76"
       fill="currentColor"
       ry="0.084100001"
       height="0.1681"
       width="1.4347"
       y="-0.084100001"
       x="175.7903" />
  </g>
  <g
     id="g82"
     transform="translate(0,3.2537998)">
    <rect
       id="rect80"
       fill="currentColor"
       ry="0.084100001"
       height="0.1681"
       width="1.4347"
       y="-0.084100001"
       x="173.8838" />
  </g>
  <g
     id="g86"
     transform="translate(0,3.9905998)">
    <rect
       id="rect84"
       fill="currentColor"
       ry="0.084100001"
       height="0.1681"
       width="1.4347"
       y="-0.084100001"
       x="173.8838" />
  </g>
  <g
     id="g90"
     transform="translate(0,2.5168998)">
    <rect
       id="rect88"
       fill="currentColor"
       ry="0.084100001"
       height="0.1681"
       width="1.4347"
       y="-0.084100001"
       x="171.97729" />
  </g>
  <g
     id="g94"
     transform="translate(0,3.2537998)">
    <rect
       id="rect92"
       fill="currentColor"
       ry="0.084100001"
       height="0.1681"
       width="1.4347"
       y="-0.084100001"
       x="171.97729" />
  </g>
  <g
     id="g98"
     transform="translate(0,3.9905998)">
    <rect
       id="rect96"
       fill="currentColor"
       ry="0.084100001"
       height="0.1681"
       width="1.4347"
       y="-0.084100001"
       x="171.97729" />
  </g>
  <g
     id="g102"
     transform="translate(0,3.2537998)">
    <rect
       id="rect100"
       fill="currentColor"
       ry="0.084100001"
       height="0.1681"
       width="1.4347"
       y="-0.084100001"
       x="169.5708" />
  </g>
  <g
     id="g106"
     transform="translate(0,3.9905998)">
    <rect
       id="rect104"
       fill="currentColor"
       ry="0.084100001"
       height="0.1681"
       width="1.4347"
       y="-0.084100001"
       x="169.5708" />
  </g>
  <g
     id="g110"
     transform="translate(0,3.2537998)">
    <rect
       id="rect108"
       fill="currentColor"
       ry="0.084100001"
       height="0.1681"
       width="1.4347"
       y="-0.084100001"
       x="166.3349" />
  </g>
  <g
     id="g114"
     transform="translate(0,3.9905998)">
    <rect
       id="rect112"
       fill="currentColor"
       ry="0.084100001"
       height="0.1681"
       width="1.4347"
       y="-0.084100001"
       x="166.3349" />
  </g>
  <g
     id="g118"
     transform="translate(0,2.5168998)">
    <rect
       id="rect116"
       fill="currentColor"
       ry="0.084100001"
       height="0.1681"
       width="1.4347"
       y="-0.084100001"
       x="164.42841" />
  </g>
  <g
     id="g122"
     transform="translate(0,3.2537998)">
    <rect
       id="rect120"
       fill="currentColor"
       ry="0.084100001"
       height="0.1681"
       width="1.4347"
       y="-0.084100001"
       x="164.42841" />
  </g>
  <g
     id="g126"
     transform="translate(0,3.9905998)">
    <rect
       id="rect124"
       fill="currentColor"
       ry="0.084100001"
       height="0.1681"
       width="1.4347"
       y="-0.084100001"
       x="164.42841" />
  </g>
  <g
     id="g130"
     transform="translate(0,3.2537998)">
    <rect
       id="rect128"
       fill="currentColor"
       ry="0.084100001"
       height="0.1681"
       width="1.4347"
       y="-0.084100001"
       x="162.0219" />
  </g>
  <g
     id="g134"
     transform="translate(0,3.9905998)">
    <rect
       id="rect132"
       fill="currentColor"
       ry="0.084100001"
       height="0.1681"
       width="1.4347"
       y="-0.084100001"
       x="162.0219" />
  </g>
  <g
     id="g138"
     transform="translate(0,2.5168998)">
    <rect
       id="rect136"
       fill="currentColor"
       ry="0.084100001"
       height="0.1681"
       width="1.4347"
       y="-0.084100001"
       x="160.11549" />
  </g>
  <g
     id="g142"
     transform="translate(0,3.2537998)">
    <rect
       id="rect140"
       fill="currentColor"
       ry="0.084100001"
       height="0.1681"
       width="1.4347"
       y="-0.084100001"
       x="160.11549" />
  </g>
  <g
     id="g146"
     transform="translate(0,3.9905998)">
    <rect
       id="rect144"
       fill="currentColor"
       ry="0.084100001"
       height="0.1681"
       width="1.4347"
       y="-0.084100001"
       x="160.11549" />
  </g>
  <g
     id="g150"
     transform="translate(0,3.9905998)">
    <rect
       id="rect148"
       fill="currentColor"
       ry="0.084100001"
       height="0.1681"
       width="1.4347"
       y="-0.084100001"
       x="157.709" />
  </g>
  <g
     id="g154"
     transform="translate(0,3.2537998)">
    <rect
       id="rect152"
       fill="currentColor"
       ry="0.084100001"
       height="0.1681"
       width="1.4347"
       y="-0.084100001"
       x="155.80251" />
  </g>
  <g
     id="g158"
     transform="translate(0,3.9905998)">
    <rect
       id="rect156"
       fill="currentColor"
       ry="0.084100001"
       height="0.1681"
       width="1.4347"
       y="-0.084100001"
       x="155.80251" />
  </g>
  <g
     id="g162"
     transform="translate(0,3.9905998)">
    <rect
       id="rect160"
       fill="currentColor"
       ry="0.084100001"
       height="0.1681"
       width="1.4347"
       y="-0.084100001"
       x="151.4895" />
  </g>
  <g
     id="g166"
     transform="translate(0,3.9905998)">
    <rect
       id="rect164"
       fill="currentColor"
       ry="0.084100001"
       height="0.1681"
       width="1.4347"
       y="-0.084100001"
       x="142.8636" />
  </g>
  <g
     id="g170"
     transform="translate(0,8.4116998)">
    <rect
       id="rect168"
       fill="currentColor"
       ry="0.084100001"
       height="0.1681"
       width="1.4347"
       y="-0.084100001"
       x="119.9094" />
  </g>
  <g
     id="g174"
     transform="translate(0,9.1484998)">
    <rect
       id="rect172"
       fill="currentColor"
       ry="0.084100001"
       height="0.1681"
       width="1.4347"
       y="-0.084100001"
       x="119.9094" />
  </g>
  <g
     id="g178"
     transform="translate(0,8.4116998)">
    <rect
       id="rect176"
       fill="currentColor"
       ry="0.084100001"
       height="0.1681"
       width="1.4347"
       y="-0.084100001"
       x="103.4845" />
  </g>
  <g
     id="g182"
     transform="translate(0,8.4116998)">
    <rect
       id="rect180"
       fill="currentColor"
       ry="0.084100001"
       height="0.1681"
       width="1.4347"
       y="-0.084100001"
       x="101.078" />
  </g>
  <g
     id="g186"
     transform="translate(0,9.1484998)">
    <rect
       id="rect184"
       fill="currentColor"
       ry="0.084100001"
       height="0.1681"
       width="1.4347"
       y="-0.084100001"
       x="101.078" />
  </g>
  <g
     id="g190"
     transform="translate(0,8.4116998)">
    <rect
       id="rect188"
       fill="currentColor"
       ry="0.084100001"
       height="0.1681"
       width="1.4347"
       y="-0.084100001"
       x="99.1716" />
  </g>
  <g
     id="g194"
     transform="translate(0,8.4116998)">
    <rect
       id="rect192"
       fill="currentColor"
       ry="0.084100001"
       height="0.1681"
       width="1.4347"
       y="-0.084100001"
       x="92.952103" />
  </g>
  <g
     id="g198"
     transform="translate(0,8.4116998)">
    <rect
       id="rect196"
       fill="currentColor"
       ry="0.084100001"
       height="0.1681"
       width="1.4347"
       y="-0.084100001"
       x="90.545601" />
  </g>
  <g
     id="g202"
     transform="translate(0,8.4116998)">
    <rect
       id="rect200"
       fill="currentColor"
       ry="0.084100001"
       height="0.1681"
       width="1.4347"
       y="-0.084100001"
       x="88.389099" />
  </g>
  <g
     id="g206"
     transform="translate(0,9.1484998)">
    <rect
       id="rect204"
       fill="currentColor"
       ry="0.084100001"
       height="0.1681"
       width="1.4347"
       y="-0.084100001"
       x="88.389099" />
  </g>
  <g
     id="g210"
     transform="translate(0,8.4116998)">
    <rect
       id="rect208"
       fill="currentColor"
       ry="0.084100001"
       height="0.1681"
       width="1.4347"
       y="-0.084100001"
       x="84.938904" />
  </g>
  <g
     id="g214"
     transform="translate(0,8.4116998)">
    <rect
       id="rect212"
       fill="currentColor"
       ry="0.084100001"
       height="0.1681"
       width="1.4347"
       y="-0.084100001"
       x="83.032402" />
  </g>
  <g
     id="g218"
     transform="translate(0,8.4116998)">
    <rect
       id="rect216"
       fill="currentColor"
       ry="0.084100001"
       height="0.1681"
       width="1.4347"
       y="-0.084100001"
       x="78.469498" />
  </g>
  <g
     id="g222"
     transform="translate(0,8.4116998)">
    <rect
       id="rect220"
       fill="currentColor"
       ry="0.084100001"
       height="0.1681"
       width="1.4347"
       y="-0.084100001"
       x="61.0965" />
  </g>
  <g
     id="g226"
     transform="translate(0,8.4116998)">
    <rect
       id="rect224"
       fill="currentColor"
       ry="0.084100001"
       height="0.1681"
       width="1.4347"
       y="-0.084100001"
       x="57.6106" />
  </g>
  <g
     id="g230"
     transform="translate(0,8.4116998)">
    <rect
       id="rect228"
       fill="currentColor"
       ry="0.084100001"
       height="0.1681"
       width="1.4347"
       y="-0.084100001"
       x="50.891102" />
  </g>
  <g
     id="g234"
     transform="translate(0,3.9905998)">
    <rect
       id="rect232"
       fill="currentColor"
       ry="0.084100001"
       height="0.1681"
       width="1.4347"
       y="-0.084100001"
       x="37.0457" />
  </g>
  <g
     id="g238"
     transform="translate(0,8.4116998)">
    <rect
       id="rect236"
       fill="currentColor"
       ry="0.084100001"
       height="0.1681"
       width="1.4347"
       y="-0.084100001"
       x="34.639198" />
  </g>
  <g
     id="g242"
     transform="translate(0,3.9905998)">
    <rect
       id="rect240"
       fill="currentColor"
       ry="0.084100001"
       height="0.1681"
       width="1.4347"
       y="-0.084100001"
       x="10.5884" />
  </g>
  <g
     id="g246"
     transform="translate(146.9156,5.8326998)">
    <path
       id="path244"
       fill="currentColor"
       d="m 208,139 c 61,0 117,-33 117,-99 0,-71 -52,-119 -99,-147 -34,-20 -71,-32 -110,-32 -61,0 -116,33 -116,99 0,71 51,119 98,147 34,20 71,32 110,32 z"
       transform="scale(0.0029,-0.0029)" />
  </g>
  <g
     id="g250"
     transform="translate(147.8107,6.2010998)">
    <rect
       id="rect248"
       fill="currentColor"
       ry="0.042100001"
       height="3.1149001"
       width="0.1228"
       y="-3.6025"
       x="-0.0614" />
  </g>
  <g
     id="g254"
     transform="translate(149.3221,5.0958998)">
    <path
       id="path252"
       fill="currentColor"
       d="m 208,139 c 61,0 117,-33 117,-99 0,-71 -52,-119 -99,-147 -34,-20 -71,-32 -110,-32 -61,0 -116,33 -116,99 0,71 51,119 98,147 34,20 71,32 110,32 z"
       transform="scale(0.0029,-0.0029)" />
  </g>
  <g
     id="g258"
     transform="translate(150.2172,6.2010998)">
    <rect
       id="rect256"
       fill="currentColor"
       ry="0.042100001"
       height="2.0984001"
       width="0.1228"
       y="-3.3229001"
       x="-0.0614" />
  </g>
  <g
     id="g262"
     transform="translate(151.7286,3.9905998)">
    <path
       id="path260"
       fill="currentColor"
       d="m 208,139 c 61,0 117,-33 117,-99 0,-71 -52,-119 -99,-147 -34,-20 -71,-32 -110,-32 -61,0 -116,33 -116,99 0,71 51,119 98,147 34,20 71,32 110,32 z"
       transform="scale(0.0029,-0.0029)" />
  </g>
  <g
     id="g266"
     transform="translate(152.6237,6.2010998)">
    <rect
       id="rect264"
       fill="currentColor"
       ry="0.042100001"
       height="2.4597001"
       width="0.1228"
       y="-4.7895002"
       x="-0.0614" />
  </g>
  <g
     id="g270"
     transform="translate(153.6351,5.0958998)">
    <path
       id="path268"
       fill="currentColor"
       d="m 208,139 c 61,0 117,-33 117,-99 0,-71 -52,-119 -99,-147 -34,-20 -71,-32 -110,-32 -61,0 -116,33 -116,99 0,71 51,119 98,147 34,20 71,32 110,32 z"
       transform="scale(0.0029,-0.0029)" />
  </g>
  <g
     id="g274"
     transform="translate(154.5302,6.2010998)">
    <rect
       id="rect272"
       fill="currentColor"
       ry="0.042100001"
       height="3.5650001"
       width="0.1228"
       y="-4.7895002"
       x="-0.0614" />
  </g>
  <g
     id="g278"
     transform="translate(143.9977,6.2010998)">
    <rect
       id="rect276"
       fill="currentColor"
       ry="0.042100001"
       height="1.7157"
       width="0.1228"
       y="-4.0454998"
       x="-0.0614" />
  </g>
  <g
     id="g282"
     transform="translate(145.0091,5.0958998)">
    <path
       id="path280"
       fill="currentColor"
       d="m 208,139 c 61,0 117,-33 117,-99 0,-71 -52,-119 -99,-147 -34,-20 -71,-32 -110,-32 -61,0 -116,33 -116,99 0,71 51,119 98,147 34,20 71,32 110,32 z"
       transform="scale(0.0029,-0.0029)" />
  </g>
  <g
     id="g286"
     transform="translate(145.9042,6.2010998)">
    <rect
       id="rect284"
       fill="currentColor"
       ry="0.042100001"
       height="2.5994999"
       width="0.1228"
       y="-3.8239999"
       x="-0.0614" />
  </g>
  <g
     id="g290"
     transform="translate(166.574,3.2537998)">
    <path
       id="path288"
       fill="currentColor"
       d="m 208,139 c 61,0 117,-33 117,-99 0,-71 -52,-119 -99,-147 -34,-20 -71,-32 -110,-32 -61,0 -116,33 -116,99 0,71 51,119 98,147 34,20 71,32 110,32 z"
       transform="scale(0.0029,-0.0029)" />
  </g>
  <g
     id="g294"
     transform="translate(163.1561,6.2010998)">
    <rect
       id="rect292"
       fill="currentColor"
       ry="0.042100001"
       height="2.6984999"
       width="0.1228"
       y="-5.7651"
       x="-0.0614" />
  </g>
  <g
     id="g298"
     transform="translate(164.6675,2.1484998)">
    <path
       id="path296"
       fill="currentColor"
       d="m 208,139 c 61,0 117,-33 117,-99 0,-71 -52,-119 -99,-147 -34,-20 -71,-32 -110,-32 -61,0 -116,33 -116,99 0,71 51,119 98,147 34,20 71,32 110,32 z"
       transform="scale(0.0029,-0.0029)" />
  </g>
  <g
     id="g302"
     transform="translate(165.5626,6.2010998)">
    <rect
       id="rect300"
       fill="currentColor"
       ry="0.042100001"
       height="1.5933"
       width="0.1228"
       y="-5.7651"
       x="-0.0614" />
  </g>
  <g
     id="g306"
     transform="translate(162.261,3.2537998)">
    <path
       id="path304"
       fill="currentColor"
       d="m 208,139 c 61,0 117,-33 117,-99 0,-71 -52,-119 -99,-147 -34,-20 -71,-32 -110,-32 -61,0 -116,33 -116,99 0,71 51,119 98,147 34,20 71,32 110,32 z"
       transform="scale(0.0029,-0.0029)" />
  </g>
  <g
     id="g310"
     transform="translate(167.4691,6.2010998)">
    <rect
       id="rect308"
       fill="currentColor"
       ry="0.042100001"
       height="2.6984999"
       width="0.1228"
       y="-5.7651"
       x="-0.0614" />
  </g>
  <g
     id="g314"
     transform="translate(169.8099,2.8853998)">
    <path
       id="path312"
       fill="currentColor"
       d="m 208,139 c 61,0 117,-33 117,-99 0,-71 -52,-119 -99,-147 -34,-20 -71,-32 -110,-32 -61,0 -116,33 -116,99 0,71 51,119 98,147 34,20 71,32 110,32 z"
       transform="scale(0.0029,-0.0029)" />
  </g>
  <g
     id="g318"
     transform="translate(170.705,6.2010998)">
    <rect
       id="rect316"
       fill="currentColor"
       ry="0.042100001"
       height="2.5868001"
       width="0.1228"
       y="-6.0219002"
       x="-0.0614" />
  </g>
  <g
     id="g322"
     transform="translate(156.0416,3.2537998)">
    <path
       id="path320"
       fill="currentColor"
       d="m 208,139 c 61,0 117,-33 117,-99 0,-71 -52,-119 -99,-147 -34,-20 -71,-32 -110,-32 -61,0 -116,33 -116,99 0,71 51,119 98,147 34,20 71,32 110,32 z"
       transform="scale(0.0029,-0.0029)" />
  </g>
  <g
     id="g326"
     transform="translate(156.9367,6.2010998)">
    <rect
       id="rect324"
       fill="currentColor"
       ry="0.042100001"
       height="1.7229"
       width="0.1228"
       y="-4.7895002"
       x="-0.0614" />
  </g>
  <g
     id="g330"
     transform="translate(157.9481,3.9905998)">
    <path
       id="path328"
       fill="currentColor"
       d="m 208,139 c 61,0 117,-33 117,-99 0,-71 -52,-119 -99,-147 -34,-20 -71,-32 -110,-32 -61,0 -116,33 -116,99 0,71 51,119 98,147 34,20 71,32 110,32 z"
       transform="scale(0.0029,-0.0029)" />
  </g>
  <g
     id="g334"
     transform="translate(158.8432,6.2010998)">
    <rect
       id="rect332"
       fill="currentColor"
       ry="0.042100001"
       height="2.4597001"
       width="0.1228"
       y="-4.7895002"
       x="-0.0614" />
  </g>
  <g
     id="g338"
     transform="translate(160.3545,2.5168998)">
    <path
       id="path336"
       fill="currentColor"
       d="m 208,139 c 61,0 117,-33 117,-99 0,-71 -52,-119 -99,-147 -34,-20 -71,-32 -110,-32 -61,0 -116,33 -116,99 0,71 51,119 98,147 34,20 71,32 110,32 z"
       transform="scale(0.0029,-0.0029)" />
  </g>
  <g
     id="g342"
     transform="translate(161.2496,6.2010998)">
    <rect
       id="rect340"
       fill="currentColor"
       ry="0.042100001"
       height="1.9617"
       width="0.1228"
       y="-5.7651"
       x="-0.0614" />
  </g>
  <g
     id="g346"
     transform="translate(118.242,8.0432998)">
    <path
       id="path344"
       fill="currentColor"
       d="m 208,139 c 61,0 117,-33 117,-99 0,-71 -52,-119 -99,-147 -34,-20 -71,-32 -110,-32 -61,0 -116,33 -116,99 0,71 51,119 98,147 34,20 71,32 110,32 z"
       transform="scale(0.0029,-0.0029)" />
  </g>
  <g
     id="g350"
     transform="translate(119.1371,6.2010998)">
    <rect
       id="rect348"
       fill="currentColor"
       ry="0.042100001"
       height="2.8785"
       width="0.1228"
       y="-1.1557"
       x="-0.0614" />
  </g>
  <g
     id="g354"
     transform="translate(120.1485,9.1484998)">
    <path
       id="path352"
       fill="currentColor"
       d="m 208,139 c 61,0 117,-33 117,-99 0,-71 -52,-119 -99,-147 -34,-20 -71,-32 -110,-32 -61,0 -116,33 -116,99 0,71 51,119 98,147 34,20 71,32 110,32 z"
       transform="scale(0.0029,-0.0029)" />
  </g>
  <g
     id="g358"
     transform="translate(121.0436,6.2010998)">
    <rect
       id="rect356"
       fill="currentColor"
       ry="0.042100001"
       height="3.8013"
       width="0.1228"
       y="-0.97310001"
       x="-0.0614" />
  </g>
  <g
     id="g362"
     transform="translate(122.555,8.0432998)">
    <path
       id="path360"
       fill="currentColor"
       d="m 208,139 c 61,0 117,-33 117,-99 0,-71 -52,-119 -99,-147 -34,-20 -71,-32 -110,-32 -61,0 -116,33 -116,99 0,71 51,119 98,147 34,20 71,32 110,32 z"
       transform="scale(0.0029,-0.0029)" />
  </g>
  <g
     id="g366"
     transform="translate(123.4501,6.2010998)">
    <rect
       id="rect364"
       fill="currentColor"
       ry="0.042100001"
       height="2.4656"
       width="0.1228"
       y="-0.74269998"
       x="-0.0614" />
  </g>
  <g
     id="g370"
     transform="translate(124.9614,7.3063998)">
    <path
       id="path368"
       fill="currentColor"
       d="m 208,139 c 61,0 117,-33 117,-99 0,-71 -52,-119 -99,-147 -34,-20 -71,-32 -110,-32 -61,0 -116,33 -116,99 0,71 51,119 98,147 34,20 71,32 110,32 z"
       transform="scale(0.0029,-0.0029)" />
  </g>
  <g
     id="g374"
     transform="translate(125.8565,6.2010998)">
    <rect
       id="rect372"
       fill="currentColor"
       ry="0.042100001"
       height="2.3301001"
       width="0.1228"
       y="-1.3441"
       x="-0.0614" />
  </g>
  <g
     id="g378"
     transform="translate(214.2341,5.5938998)">
    <polygon
       id="polygon376"
       points="0.0421,0.1347 0.0421,-0.1347 7.3001,-1.0012 7.3001,-0.7317 "
       stroke="currentColor"
       fill="currentColor"
       stroke-width="0.0842"
       stroke-linecap="round"
       stroke-linejoin="round" />
  </g>
  <g
     id="g382"
     transform="translate(214.2341,6.2010998)">
    <polygon
       id="polygon380"
       points="0.0421,0.1347 0.0421,-0.1347 7.3001,-1.0012 7.3001,-0.7317 "
       stroke="currentColor"
       fill="currentColor"
       stroke-width="0.0842"
       stroke-linecap="round"
       stroke-linejoin="round" />
  </g>
  <g
     id="g386"
     transform="translate(112.8496,7.6747998)">
    <path
       id="path384"
       fill="currentColor"
       d="m 208,139 c 61,0 117,-33 117,-99 0,-71 -52,-119 -99,-147 -34,-20 -71,-32 -110,-32 -61,0 -116,33 -116,99 0,71 51,119 98,147 34,20 71,32 110,32 z"
       transform="scale(0.0029,-0.0029)" />
  </g>
  <g
     id="g390"
     transform="translate(113.7447,6.2010998)">
    <rect
       id="rect388"
       fill="currentColor"
       ry="0.042100001"
       height="2.6984999"
       width="0.1228"
       y="-1.3441"
       x="-0.0614" />
  </g>
  <g
     id="g394"
     transform="translate(116.3355,7.3063998)">
    <path
       id="path392"
       fill="currentColor"
       d="m 208,139 c 61,0 117,-33 117,-99 0,-71 -52,-119 -99,-147 -34,-20 -71,-32 -110,-32 -61,0 -116,33 -116,99 0,71 51,119 98,147 34,20 71,32 110,32 z"
       transform="scale(0.0029,-0.0029)" />
  </g>
  <g
     id="g398"
     transform="translate(117.2306,6.2010998)">
    <rect
       id="rect396"
       fill="currentColor"
       ry="0.042100001"
       height="2.3241999"
       width="0.1228"
       y="-1.3382"
       x="-0.0614" />
  </g>
  <g
     id="g402"
     transform="translate(135.4939,6.5695998)">
    <path
       id="path400"
       fill="currentColor"
       d="m 208,139 c 61,0 117,-33 117,-99 0,-71 -52,-119 -99,-147 -34,-20 -71,-32 -110,-32 -61,0 -116,33 -116,99 0,71 51,119 98,147 34,20 71,32 110,32 z"
       transform="scale(0.0029,-0.0029)" />
  </g>
  <g
     id="g406"
     transform="translate(136.389,6.2010998)">
    <rect
       id="rect404"
       fill="currentColor"
       ry="0.042100001"
       height="3.5650001"
       width="0.1228"
       y="-3.3158"
       x="-0.0614" />
  </g>
  <g
     id="g410"
     transform="translate(137.9004,4.7274998)">
    <path
       id="path408"
       fill="currentColor"
       d="m 208,139 c 61,0 117,-33 117,-99 0,-71 -52,-119 -99,-147 -34,-20 -71,-32 -110,-32 -61,0 -116,33 -116,99 0,71 51,119 98,147 34,20 71,32 110,32 z"
       transform="scale(0.0029,-0.0029)" />
  </g>
  <g
     id="g414"
     transform="translate(138.7955,6.2010998)">
    <rect
       id="rect412"
       fill="currentColor"
       ry="0.042100001"
       height="1.7229"
       width="0.1228"
       y="-3.3158"
       x="-0.0614" />
  </g>
  <g
     id="g418"
     transform="translate(139.8069,5.4642998)">
    <path
       id="path416"
       fill="currentColor"
       d="m 208,139 c 61,0 117,-33 117,-99 0,-71 -52,-119 -99,-147 -34,-20 -71,-32 -110,-32 -61,0 -116,33 -116,99 0,71 51,119 98,147 34,20 71,32 110,32 z"
       transform="scale(0.0029,-0.0029)" />
  </g>
  <g
     id="g422"
     transform="translate(140.702,6.2010998)">
    <rect
       id="rect420"
       fill="currentColor"
       ry="0.042100001"
       height="2.4597001"
       width="0.1228"
       y="-3.3158"
       x="-0.0614" />
  </g>
  <g
     id="g426"
     transform="translate(143.1026,3.9905998)">
    <path
       id="path424"
       fill="currentColor"
       d="m 208,139 c 61,0 117,-33 117,-99 0,-71 -52,-119 -99,-147 -34,-20 -71,-32 -110,-32 -61,0 -116,33 -116,99 0,71 51,119 98,147 34,20 71,32 110,32 z"
       transform="scale(0.0029,-0.0029)" />
  </g>
  <g
     id="g430"
     transform="translate(126.8679,8.0432998)">
    <path
       id="path428"
       fill="currentColor"
       d="m 208,139 c 61,0 117,-33 117,-99 0,-71 -52,-119 -99,-147 -34,-20 -71,-32 -110,-32 -61,0 -116,33 -116,99 0,71 51,119 98,147 34,20 71,32 110,32 z"
       transform="scale(0.0029,-0.0029)" />
  </g>
  <g
     id="g434"
     transform="translate(127.763,6.2010998)">
    <rect
       id="rect432"
       fill="currentColor"
       ry="0.042100001"
       height="3.0669"
       width="0.1228"
       y="-1.3441"
       x="-0.0614" />
  </g>
  <g
     id="g438"
     transform="translate(129.2744,6.5695998)">
    <path
       id="path436"
       fill="currentColor"
       d="m 208,139 c 61,0 117,-33 117,-99 0,-71 -52,-119 -99,-147 -34,-20 -71,-32 -110,-32 -61,0 -116,33 -116,99 0,71 51,119 98,147 34,20 71,32 110,32 z"
       transform="scale(0.0029,-0.0029)" />
  </g>
  <g
     id="g442"
     transform="translate(130.1695,6.2010998)">
    <rect
       id="rect440"
       fill="currentColor"
       ry="0.042100001"
       height="1.5933"
       width="0.1228"
       y="-1.3441"
       x="-0.0614" />
  </g>
  <g
     id="g446"
     transform="translate(131.1809,7.3063998)">
    <path
       id="path444"
       fill="currentColor"
       d="m 208,139 c 61,0 117,-33 117,-99 0,-71 -52,-119 -99,-147 -34,-20 -71,-32 -110,-32 -61,0 -116,33 -116,99 0,71 51,119 98,147 34,20 71,32 110,32 z"
       transform="scale(0.0029,-0.0029)" />
  </g>
  <g
     id="g450"
     transform="translate(132.076,6.2010998)">
    <rect
       id="rect448"
       fill="currentColor"
       ry="0.042100001"
       height="2.3301001"
       width="0.1228"
       y="-1.3441"
       x="-0.0614" />
  </g>
  <g
     id="g454"
     transform="translate(133.5874,5.4642998)">
    <path
       id="path452"
       fill="currentColor"
       d="m 208,139 c 61,0 117,-33 117,-99 0,-71 -52,-119 -99,-147 -34,-20 -71,-32 -110,-32 -61,0 -116,33 -116,99 0,71 51,119 98,147 34,20 71,32 110,32 z"
       transform="scale(0.0029,-0.0029)" />
  </g>
  <g
     id="g458"
     transform="translate(134.4825,6.2010998)">
    <rect
       id="rect456"
       fill="currentColor"
       ry="0.042100001"
       height="2.4597001"
       width="0.1228"
       y="-3.3158"
       x="-0.0614" />
  </g>
  <g
     id="g462"
     transform="translate(209.0874,8.4116998)">
    <path
       id="path460"
       fill="currentColor"
       d="m 208,139 c 61,0 117,-33 117,-99 0,-71 -52,-119 -99,-147 -34,-20 -71,-32 -110,-32 -61,0 -116,33 -116,99 0,71 51,119 98,147 34,20 71,32 110,32 z"
       transform="scale(0.0029,-0.0029)" />
  </g>
  <g
     id="g466"
     transform="translate(209.9825,6.2010998)">
    <rect
       id="rect464"
       fill="currentColor"
       ry="0.042100001"
       height="3.4354"
       width="0.1228"
       y="-1.3441"
       x="-0.0614" />
  </g>
  <g
     id="g470"
     transform="translate(211.4939,7.6747998)">
    <path
       id="path468"
       fill="currentColor"
       d="m 208,139 c 61,0 117,-33 117,-99 0,-71 -52,-119 -99,-147 -34,-20 -71,-32 -110,-32 -61,0 -116,33 -116,99 0,71 51,119 98,147 34,20 71,32 110,32 z"
       transform="scale(0.0029,-0.0029)" />
  </g>
  <g
     id="g474"
     transform="translate(212.389,6.2010998)">
    <rect
       id="rect472"
       fill="currentColor"
       ry="0.042100001"
       height="2.6984999"
       width="0.1228"
       y="-1.3441"
       x="-0.0614" />
  </g>
  <g
     id="g478"
     transform="translate(213.4004,9.1484998)">
    <path
       id="path476"
       fill="currentColor"
       d="m 208,139 c 61,0 117,-33 117,-99 0,-71 -52,-119 -99,-147 -34,-20 -71,-32 -110,-32 -61,0 -116,33 -116,99 0,71 51,119 98,147 34,20 71,32 110,32 z"
       transform="scale(0.0029,-0.0029)" />
  </g>
  <g
     id="g482"
     transform="translate(214.2955,6.2010998)">
    <rect
       id="rect480"
       fill="currentColor"
       ry="0.042100001"
       height="3.4426"
       width="0.1228"
       y="-0.61449999"
       x="-0.0614" />
  </g>
  <g
     id="g486"
     transform="translate(215.8069,8.4116998)">
    <path
       id="path484"
       fill="currentColor"
       d="m 208,139 c 61,0 117,-33 117,-99 0,-71 -52,-119 -99,-147 -34,-20 -71,-32 -110,-32 -61,0 -116,33 -116,99 0,71 51,119 98,147 34,20 71,32 110,32 z"
       transform="scale(0.0029,-0.0029)" />
  </g>
  <g
     id="g490"
     transform="translate(216.702,6.2010998)">
    <rect
       id="rect488"
       fill="currentColor"
       ry="0.042100001"
       height="2.9898"
       width="0.1228"
       y="-0.89850003"
       x="-0.0614" />
  </g>
  <g
     id="g494"
     transform="translate(204.7745,7.6747998)">
    <path
       id="path492"
       fill="currentColor"
       d="m 208,139 c 61,0 117,-33 117,-99 0,-71 -52,-119 -99,-147 -34,-20 -71,-32 -110,-32 -61,0 -116,33 -116,99 0,71 51,119 98,147 34,20 71,32 110,32 z"
       transform="scale(0.0029,-0.0029)" />
  </g>
  <g
     id="g498"
     transform="translate(201.8566,6.2010998)">
    <rect
       id="rect496"
       fill="currentColor"
       ry="0.042100001"
       height="2.4105"
       width="0.1228"
       y="-2.8982"
       x="-0.0614" />
  </g>
  <g
     id="g502"
     transform="translate(202.868,6.5695998)">
    <path
       id="path500"
       fill="currentColor"
       d="m 208,139 c 61,0 117,-33 117,-99 0,-71 -52,-119 -99,-147 -34,-20 -71,-32 -110,-32 -61,0 -116,33 -116,99 0,71 51,119 98,147 34,20 71,32 110,32 z"
       transform="scale(0.0029,-0.0029)" />
  </g>
  <g
     id="g506"
     transform="translate(203.7631,6.2010998)">
    <rect
       id="rect504"
       fill="currentColor"
       ry="0.042100001"
       height="3.0694001"
       width="0.1228"
       y="-2.8203001"
       x="-0.0614" />
  </g>
  <g
     id="g510"
     transform="translate(205.6696,6.2010998)">
    <rect
       id="rect508"
       fill="currentColor"
       ry="0.042100001"
       height="2.6984999"
       width="0.1228"
       y="-1.3441"
       x="-0.0614" />
  </g>
  <g
     id="g514"
     transform="translate(207.1809,6.5695998)">
    <path
       id="path512"
       fill="currentColor"
       d="m 208,139 c 61,0 117,-33 117,-99 0,-71 -52,-119 -99,-147 -34,-20 -71,-32 -110,-32 -61,0 -116,33 -116,99 0,71 51,119 98,147 34,20 71,32 110,32 z"
       transform="scale(0.0029,-0.0029)" />
  </g>
  <g
     id="g518"
     transform="translate(208.076,6.2010998)">
    <rect
       id="rect516"
       fill="currentColor"
       ry="0.042100001"
       height="1.5933"
       width="0.1228"
       y="-1.3441"
       x="-0.0614" />
  </g>
  <g
     id="g522"
     transform="translate(117.1692,4.8570998)">
    <polygon
       id="polygon520"
       points="0.0421,0.1347 0.0421,-0.1347 6.3001,0.4725 6.3001,0.742 "
       stroke="currentColor"
       fill="currentColor"
       stroke-width="0.0842"
       stroke-linecap="round"
       stroke-linejoin="round" />
  </g>
  <g
     id="g526"
     transform="translate(117.1692,5.4642998)">
    <polygon
       id="polygon524"
       points="0.0421,0.1347 0.0421,-0.1347 6.3001,0.4725 6.3001,0.742 "
       stroke="currentColor"
       fill="currentColor"
       stroke-width="0.0842"
       stroke-linecap="round"
       stroke-linejoin="round" />
  </g>
  <g
     id="g530"
     transform="translate(16.547,6.2010998)">
    <path
       id="path528"
       d="m 0.9136,-3.4891 c 1.2521,-0.9507 5.0858,-0.728 6.2195,0.3613 v 0 C 5.9928,-4.1039 2.1592,-4.3266 0.9136,-3.4891 Z"
       fill="currentColor"
       stroke="currentColor"
       stroke-linecap="round"
       stroke-linejoin="round"
       stroke-width="0.0755" />
  </g>
  <g
     id="g534"
     transform="translate(25.5066,5.4642998)">
    <polygon
       id="polygon532"
       points="0.0421,0.1347 0.0421,-0.1347 6.8001,-0.1347 6.8001,0.1347 "
       stroke="currentColor"
       fill="currentColor"
       stroke-width="0.0842"
       stroke-linecap="round"
       stroke-linejoin="round" />
  </g>
  <g
     id="g538"
     transform="translate(25.5066,6.0714998)">
    <polygon
       id="polygon536"
       points="0.0421,0.1347 0.0421,-0.1347 6.8001,-0.1347 6.8001,0.1347 "
       stroke="currentColor"
       fill="currentColor"
       stroke-width="0.0842"
       stroke-linecap="round"
       stroke-linejoin="round" />
  </g>
  <g
     id="g542"
     transform="translate(35.712,2.1484998)">
    <polygon
       id="polygon540"
       points="0.0421,0.1347 0.0421,-0.1347 6.3001,-0.1347 6.3001,0.1347 "
       stroke="currentColor"
       fill="currentColor"
       stroke-width="0.0842"
       stroke-linecap="round"
       stroke-linejoin="round" />
  </g>
  <g
     id="g546"
     transform="translate(35.712,2.7556998)">
    <polygon
       id="polygon544"
       points="0.0421,0.1347 0.0421,-0.1347 6.3001,-0.1347 6.3001,0.1347 "
       stroke="currentColor"
       fill="currentColor"
       stroke-width="0.0842"
       stroke-linecap="round"
       stroke-linejoin="round" />
  </g>
  <g
     id="g550"
     transform="translate(43.838,3.6221998)">
    <polygon
       id="polygon548"
       points="0.0421,0.1347 0.0421,-0.1347 6.3001,0.3633 6.3001,0.6328 "
       stroke="currentColor"
       fill="currentColor"
       stroke-width="0.0842"
       stroke-linecap="round"
       stroke-linejoin="round" />
  </g>
  <g
     id="g554"
     transform="translate(43.838,4.2293998)">
    <polygon
       id="polygon552"
       points="0.0421,0.1347 0.0421,-0.1347 6.3001,0.3633 6.3001,0.6328 "
       stroke="currentColor"
       fill="currentColor"
       stroke-width="0.0842"
       stroke-linecap="round"
       stroke-linejoin="round" />
  </g>
  <g
     id="g558"
     transform="translate(51.9639,5.5938998)">
    <polygon
       id="polygon556"
       points="0.0421,0.1347 0.0421,-0.1347 6.8001,-0.1347 6.8001,0.1347 "
       stroke="currentColor"
       fill="currentColor"
       stroke-width="0.0842"
       stroke-linecap="round"
       stroke-linejoin="round" />
  </g>
  <g
     id="g562"
     transform="translate(51.9639,6.2010998)">
    <polygon
       id="polygon560"
       points="0.0421,0.1347 0.0421,-0.1347 6.8001,-0.1347 6.8001,0.1347 "
       stroke="currentColor"
       fill="currentColor"
       stroke-width="0.0842"
       stroke-linecap="round"
       stroke-linejoin="round" />
  </g>
  <g
     id="g566"
     transform="translate(62.1693,2.1484998)">
    <polygon
       id="polygon564"
       points="0.0421,0.1347 0.0421,-0.1347 6.6107,-0.1347 6.6107,0.1347 "
       stroke="currentColor"
       fill="currentColor"
       stroke-width="0.0842"
       stroke-linecap="round"
       stroke-linejoin="round" />
  </g>
  <g
     id="g570"
     transform="translate(62.1693,2.7556998)">
    <polygon
       id="polygon568"
       points="0.0421,0.1347 0.0421,-0.1347 6.6107,-0.1347 6.6107,0.1347 "
       stroke="currentColor"
       fill="currentColor"
       stroke-width="0.0842"
       stroke-linecap="round"
       stroke-linejoin="round" />
  </g>
  <g
     id="g574"
     transform="translate(71.4163,3.6221998)">
    <polygon
       id="polygon572"
       points="0.0421,0.1347 0.0421,-0.1347 6.3001,0.2337 6.3001,0.5032 "
       stroke="currentColor"
       fill="currentColor"
       stroke-width="0.0842"
       stroke-linecap="round"
       stroke-linejoin="round" />
  </g>
  <g
     id="g578"
     transform="translate(71.4163,4.2293998)">
    <polygon
       id="polygon576"
       points="0.0421,0.1347 0.0421,-0.1347 6.3001,0.2337 6.3001,0.5032 "
       stroke="currentColor"
       fill="currentColor"
       stroke-width="0.0842"
       stroke-linecap="round"
       stroke-linejoin="round" />
  </g>
  <g
     id="g582"
     transform="translate(79.5423,6.2010998)">
    <polygon
       id="polygon580"
       points="0.0421,0.1347 0.0421,-0.1347 6.5501,-0.1347 6.5501,0.1347 "
       stroke="currentColor"
       fill="currentColor"
       stroke-width="0.0842"
       stroke-linecap="round"
       stroke-linejoin="round" />
  </g>
  <g
     id="g586"
     transform="translate(79.5423,6.8083998)">
    <polygon
       id="polygon584"
       points="0.0421,0.1347 0.0421,-0.1347 6.5501,-0.1347 6.5501,0.1347 "
       stroke="currentColor"
       fill="currentColor"
       stroke-width="0.0842"
       stroke-linecap="round"
       stroke-linejoin="round" />
  </g>
  <g
     id="g590"
     transform="translate(89.4619,6.2010998)">
    <polygon
       id="polygon588"
       points="0.0421,0.1347 0.0421,-0.1347 6.8001,-0.5032 6.8001,-0.2337 "
       stroke="currentColor"
       fill="currentColor"
       stroke-width="0.0842"
       stroke-linecap="round"
       stroke-linejoin="round" />
  </g>
  <g
     id="g594"
     transform="translate(89.4619,6.8083998)">
    <polygon
       id="polygon592"
       points="0.0421,0.1347 0.0421,-0.1347 6.8001,-0.5032 6.8001,-0.2337 "
       stroke="currentColor"
       fill="currentColor"
       stroke-width="0.0842"
       stroke-linecap="round"
       stroke-linejoin="round" />
  </g>
  <g
     id="g598"
     transform="translate(98.3379,5.5938998)">
    <polygon
       id="polygon596"
       points="0.0421,0.1347 0.0421,-0.1347 6.3001,0.4725 6.3001,0.742 "
       stroke="currentColor"
       fill="currentColor"
       stroke-width="0.0842"
       stroke-linecap="round"
       stroke-linejoin="round" />
  </g>
  <g
     id="g602"
     transform="translate(98.3379,6.2010998)">
    <polygon
       id="polygon600"
       points="0.0421,0.1347 0.0421,-0.1347 6.3001,0.4725 6.3001,0.742 "
       stroke="currentColor"
       fill="currentColor"
       stroke-width="0.0842"
       stroke-linecap="round"
       stroke-linejoin="round" />
  </g>
  <g
     id="g606"
     transform="translate(106.9638,4.8570998)">
    <polygon
       id="polygon604"
       points="0.0421,0.1347 0.0421,-0.1347 6.8001,-0.1347 6.8001,0.1347 "
       stroke="currentColor"
       fill="currentColor"
       stroke-width="0.0842"
       stroke-linecap="round"
       stroke-linejoin="round" />
  </g>
  <g
     id="g610"
     transform="translate(106.9638,5.4642998)">
    <polygon
       id="polygon608"
       points="0.0421,0.1347 0.0421,-0.1347 6.8001,-0.1347 6.8001,0.1347 "
       stroke="currentColor"
       fill="currentColor"
       stroke-width="0.0842"
       stroke-linecap="round"
       stroke-linejoin="round" />
  </g>
  <g
     id="g614"
     transform="translate(17.3807,3.2537998)">
    <polygon
       id="polygon612"
       points="0.0421,0.1347 0.0421,-0.1347 6.3001,0.2337 6.3001,0.5032 "
       stroke="currentColor"
       fill="currentColor"
       stroke-width="0.0842"
       stroke-linecap="round"
       stroke-linejoin="round" />
  </g>
  <g
     id="g618"
     transform="translate(17.3807,3.8609998)">
    <polygon
       id="polygon616"
       points="0.0421,0.1347 0.0421,-0.1347 6.3001,0.2337 6.3001,0.5032 "
       stroke="currentColor"
       fill="currentColor"
       stroke-width="0.0842"
       stroke-linecap="round"
       stroke-linejoin="round" />
  </g>
  <g
     id="g622"
     transform="translate(125.7952,4.8570998)">
    <polygon
       id="polygon620"
       points="0.0421,0.1347 0.0421,-0.1347 6.3001,-0.1347 6.3001,0.1347 "
       stroke="currentColor"
       fill="currentColor"
       stroke-width="0.0842"
       stroke-linecap="round"
       stroke-linejoin="round" />
  </g>
  <g
     id="g626"
     transform="translate(125.7952,5.4642998)">
    <polygon
       id="polygon624"
       points="0.0421,0.1347 0.0421,-0.1347 6.3001,-0.1347 6.3001,0.1347 "
       stroke="currentColor"
       fill="currentColor"
       stroke-width="0.0842"
       stroke-linecap="round"
       stroke-linejoin="round" />
  </g>
  <g
     id="g630"
     transform="translate(134.4211,2.8853998)">
    <polygon
       id="polygon628"
       points="0.0421,0.1347 0.0421,-0.1347 6.3001,-0.1347 6.3001,0.1347 "
       stroke="currentColor"
       fill="currentColor"
       stroke-width="0.0842"
       stroke-linecap="round"
       stroke-linejoin="round" />
  </g>
  <g
     id="g634"
     transform="translate(134.4211,3.4925998)">
    <polygon
       id="polygon632"
       points="0.0421,0.1347 0.0421,-0.1347 6.3001,-0.1347 6.3001,0.1347 "
       stroke="currentColor"
       fill="currentColor"
       stroke-width="0.0842"
       stroke-linecap="round"
       stroke-linejoin="round" />
  </g>
  <g
     id="g638"
     transform="translate(143.9364,2.1484998)">
    <polygon
       id="polygon636"
       points="0.0421,0.1347 0.0421,-0.1347 6.3001,0.6021 6.3001,0.8716 "
       stroke="currentColor"
       fill="currentColor"
       stroke-width="0.0842"
       stroke-linecap="round"
       stroke-linejoin="round" />
  </g>
  <g
     id="g642"
     transform="translate(143.9364,2.7556998)">
    <polygon
       id="polygon640"
       points="0.0421,0.1347 0.0421,-0.1347 6.3001,0.6021 6.3001,0.8716 "
       stroke="currentColor"
       fill="currentColor"
       stroke-width="0.0842"
       stroke-linecap="round"
       stroke-linejoin="round" />
  </g>
  <g
     id="g646"
     transform="translate(152.5623,1.4116998)">
    <polygon
       id="polygon644"
       points="0.0421,0.1347 0.0421,-0.1347 6.3001,-0.1347 6.3001,0.1347 "
       stroke="currentColor"
       fill="currentColor"
       stroke-width="0.0842"
       stroke-linecap="round"
       stroke-linejoin="round" />
  </g>
  <g
     id="g650"
     transform="translate(152.5623,2.0188998)">
    <polygon
       id="polygon648"
       points="0.0421,0.1347 0.0421,-0.1347 6.3001,-0.1347 6.3001,0.1347 "
       stroke="currentColor"
       fill="currentColor"
       stroke-width="0.0842"
       stroke-linecap="round"
       stroke-linejoin="round" />
  </g>
  <g
     id="g654"
     transform="translate(161.1883,0.43599982)">
    <polygon
       id="polygon652"
       points="0.0421,0.1347 0.0421,-0.1347 6.3001,-0.1347 6.3001,0.1347 "
       stroke="currentColor"
       fill="currentColor"
       stroke-width="0.0842"
       stroke-linecap="round"
       stroke-linejoin="round" />
  </g>
  <g
     id="g658"
     transform="translate(161.1883,1.0432998)">
    <polygon
       id="polygon656"
       points="0.0421,0.1347 0.0421,-0.1347 6.3001,-0.1347 6.3001,0.1347 "
       stroke="currentColor"
       fill="currentColor"
       stroke-width="0.0842"
       stroke-linecap="round"
       stroke-linejoin="round" />
  </g>
  <g
     id="g662"
     transform="translate(170.6436,0.17679982)">
    <polygon
       id="polygon660"
       points="0.0421,0.1347 0.0421,-0.1347 6.3001,0.1245 6.3001,0.394 "
       stroke="currentColor"
       fill="currentColor"
       stroke-width="0.0842"
       stroke-linecap="round"
       stroke-linejoin="round" />
  </g>
  <g
     id="g666"
     transform="translate(170.6436,0.78399982)">
    <polygon
       id="polygon664"
       points="0.0421,0.1347 0.0421,-0.1347 6.3001,0.1245 6.3001,0.394 "
       stroke="currentColor"
       fill="currentColor"
       stroke-width="0.0842"
       stroke-linecap="round"
       stroke-linejoin="round" />
  </g>
  <g
     id="g670"
     transform="translate(178.7696,1.9096998)">
    <polygon
       id="polygon668"
       points="0.0421,0.1347 0.0421,-0.1347 6.8001,-0.1347 6.8001,0.1347 "
       stroke="currentColor"
       fill="currentColor"
       stroke-width="0.0842"
       stroke-linecap="round"
       stroke-linejoin="round" />
  </g>
  <g
     id="g674"
     transform="translate(178.7696,2.5168998)">
    <polygon
       id="polygon672"
       points="0.0421,0.1347 0.0421,-0.1347 6.8001,-0.1347 6.8001,0.1347 "
       stroke="currentColor"
       fill="currentColor"
       stroke-width="0.0842"
       stroke-linecap="round"
       stroke-linejoin="round" />
  </g>
  <g
     id="g678"
     transform="translate(187.3955,3.6221998)">
    <polygon
       id="polygon676"
       points="0.0421,0.1347 0.0421,-0.1347 6.8001,-0.1347 6.8001,0.1347 "
       stroke="currentColor"
       fill="currentColor"
       stroke-width="0.0842"
       stroke-linecap="round"
       stroke-linejoin="round" />
  </g>
  <g
     id="g682"
     transform="translate(187.3955,4.2293998)">
    <polygon
       id="polygon680"
       points="0.0421,0.1347 0.0421,-0.1347 6.8001,-0.1347 6.8001,0.1347 "
       stroke="currentColor"
       fill="currentColor"
       stroke-width="0.0842"
       stroke-linecap="round"
       stroke-linejoin="round" />
  </g>
  <g
     id="g686"
     transform="translate(197.4822,3.1241998)">
    <polygon
       id="polygon684"
       points="0.0421,0.1347 0.0421,-0.1347 6.3001,0.1245 6.3001,0.394 "
       stroke="currentColor"
       fill="currentColor"
       stroke-width="0.0842"
       stroke-linecap="round"
       stroke-linejoin="round" />
  </g>
  <g
     id="g690"
     transform="translate(197.4822,3.7313998)">
    <polygon
       id="polygon688"
       points="0.0421,0.1347 0.0421,-0.1347 6.3001,0.1245 6.3001,0.394 "
       stroke="currentColor"
       fill="currentColor"
       stroke-width="0.0842"
       stroke-linecap="round"
       stroke-linejoin="round" />
  </g>
  <g
     id="g694"
     transform="translate(205.6082,4.8570998)">
    <polygon
       id="polygon692"
       points="0.0421,0.1347 0.0421,-0.1347 6.8001,-0.1347 6.8001,0.1347 "
       stroke="currentColor"
       fill="currentColor"
       stroke-width="0.0842"
       stroke-linecap="round"
       stroke-linejoin="round" />
  </g>
  <g
     id="g698"
     transform="translate(205.6082,5.4642998)">
    <polygon
       id="polygon696"
       points="0.0421,0.1347 0.0421,-0.1347 6.8001,-0.1347 6.8001,0.1347 "
       stroke="currentColor"
       fill="currentColor"
       stroke-width="0.0842"
       stroke-linecap="round"
       stroke-linejoin="round" />
  </g>
  <g
     id="g702"
     transform="translate(218.2134,7.6747998)">
    <path
       id="path700"
       fill="currentColor"
       d="m 208,139 c 61,0 117,-33 117,-99 0,-71 -52,-119 -99,-147 -34,-20 -71,-32 -110,-32 -61,0 -116,33 -116,99 0,71 51,119 98,147 34,20 71,32 110,32 z"
       transform="scale(0.0029,-0.0029)" />
  </g>
  <g
     id="g706"
     transform="translate(219.1085,6.2010998)">
    <rect
       id="rect704"
       fill="currentColor"
       ry="0.042100001"
       height="2.5369"
       width="0.1228"
       y="-1.1824"
       x="-0.0614" />
  </g>
  <g
     id="g710"
     transform="translate(220.6199,6.9379998)">
    <path
       id="path708"
       fill="currentColor"
       d="m 208,139 c 61,0 117,-33 117,-99 0,-71 -52,-119 -99,-147 -34,-20 -71,-32 -110,-32 -61,0 -116,33 -116,99 0,71 51,119 98,147 34,20 71,32 110,32 z"
       transform="scale(0.0029,-0.0029)" />
  </g>
  <g
     id="g714"
     transform="translate(221.515,6.2010998)">
    <rect
       id="rect712"
       fill="currentColor"
       ry="0.042100001"
       height="2.0841"
       width="0.1228"
       y="-1.4664"
       x="-0.0614" />
  </g>
  <g
     id="g718"
     transform="translate(200.9615,5.8326998)">
    <path
       id="path716"
       fill="currentColor"
       d="m 208,139 c 61,0 117,-33 117,-99 0,-71 -52,-119 -99,-147 -34,-20 -71,-32 -110,-32 -61,0 -116,33 -116,99 0,71 51,119 98,147 34,20 71,32 110,32 z"
       transform="scale(0.0029,-0.0029)" />
  </g>
  <g
     id="g722"
     transform="translate(9.2547,2.1484998)">
    <polygon
       id="polygon720"
       points="0.0421,0.1347 0.0421,-0.1347 6.3001,0.1041 6.3001,0.3735 "
       stroke="currentColor"
       fill="currentColor"
       stroke-width="0.0842"
       stroke-linecap="round"
       stroke-linejoin="round" />
  </g>
  <g
     id="g726"
     transform="translate(9.2547,2.7556998)">
    <polygon
       id="polygon724"
       points="0.0421,0.1347 0.0421,-0.1347 6.3001,0.1041 6.3001,0.3735 "
       stroke="currentColor"
       fill="currentColor"
       stroke-width="0.0842"
       stroke-linecap="round"
       stroke-linejoin="round" />
  </g>
  <g
     id="g730"
     transform="translate(177.9359,4.7274998)">
    <path
       id="path728"
       fill="currentColor"
       d="m 208,139 c 61,0 117,-33 117,-99 0,-71 -52,-119 -99,-147 -34,-20 -71,-32 -110,-32 -61,0 -116,33 -116,99 0,71 51,119 98,147 34,20 71,32 110,32 z"
       transform="scale(0.0029,-0.0029)" />
  </g>
  <g
     id="g734"
     transform="translate(178.831,6.2010998)">
    <rect
       id="rect732"
       fill="currentColor"
       ry="0.042100001"
       height="2.6984999"
       width="0.1228"
       y="-4.2914"
       x="-0.0614" />
  </g>
  <g
     id="g738"
     transform="translate(180.3424,3.6221998)">
    <path
       id="path736"
       fill="currentColor"
       d="m 208,139 c 61,0 117,-33 117,-99 0,-71 -52,-119 -99,-147 -34,-20 -71,-32 -110,-32 -61,0 -116,33 -116,99 0,71 51,119 98,147 34,20 71,32 110,32 z"
       transform="scale(0.0029,-0.0029)" />
  </g>
  <g
     id="g742"
     transform="translate(181.2375,6.2010998)">
    <rect
       id="rect740"
       fill="currentColor"
       ry="0.042100001"
       height="1.5933"
       width="0.1228"
       y="-4.2914"
       x="-0.0614" />
  </g>
  <g
     id="g746"
     transform="translate(182.2488,5.4642998)">
    <path
       id="path744"
       fill="currentColor"
       d="m 208,139 c 61,0 117,-33 117,-99 0,-71 -52,-119 -99,-147 -34,-20 -71,-32 -110,-32 -61,0 -116,33 -116,99 0,71 51,119 98,147 34,20 71,32 110,32 z"
       transform="scale(0.0029,-0.0029)" />
  </g>
  <g
     id="g750"
     transform="translate(183.144,6.2010998)">
    <rect
       id="rect748"
       fill="currentColor"
       ry="0.042100001"
       height="3.4354"
       width="0.1228"
       y="-4.2914"
       x="-0.0614" />
  </g>
  <g
     id="g754"
     transform="translate(184.6553,4.7274998)">
    <path
       id="path752"
       fill="currentColor"
       d="m 208,139 c 61,0 117,-33 117,-99 0,-71 -52,-119 -99,-147 -34,-20 -71,-32 -110,-32 -61,0 -116,33 -116,99 0,71 51,119 98,147 34,20 71,32 110,32 z"
       transform="scale(0.0029,-0.0029)" />
  </g>
  <g
     id="g758"
     transform="translate(185.5504,6.2010998)">
    <rect
       id="rect756"
       fill="currentColor"
       ry="0.042100001"
       height="2.6984999"
       width="0.1228"
       y="-4.2914"
       x="-0.0614" />
  </g>
  <g
     id="g762"
     transform="translate(174.1229,2.8853998)">
    <path
       id="path760"
       fill="currentColor"
       d="m 208,139 c 61,0 117,-33 117,-99 0,-71 -52,-119 -99,-147 -34,-20 -71,-32 -110,-32 -61,0 -116,33 -116,99 0,71 51,119 98,147 34,20 71,32 110,32 z"
       transform="scale(0.0029,-0.0029)" />
  </g>
  <g
     id="g766"
     transform="translate(172.2164,2.1484998)">
    <path
       id="path764"
       fill="currentColor"
       d="m 208,139 c 61,0 117,-33 117,-99 0,-71 -52,-119 -99,-147 -34,-20 -71,-32 -110,-32 -61,0 -116,33 -116,99 0,71 51,119 98,147 34,20 71,32 110,32 z"
       transform="scale(0.0029,-0.0029)" />
  </g>
  <g
     id="g770"
     transform="translate(173.1115,6.2010998)">
    <rect
       id="rect768"
       fill="currentColor"
       ry="0.042100001"
       height="1.7516"
       width="0.1228"
       y="-5.9235001"
       x="-0.0614" />
  </g>
  <g
     id="g774"
     transform="translate(175.018,6.2010998)">
    <rect
       id="rect772"
       fill="currentColor"
       ry="0.042100001"
       height="2.4105"
       width="0.1228"
       y="-5.8456001"
       x="-0.0614" />
  </g>
  <g
     id="g778"
     transform="translate(176.0294,3.6221998)">
    <path
       id="path776"
       fill="currentColor"
       d="m 208,139 c 61,0 117,-33 117,-99 0,-71 -52,-119 -99,-147 -34,-20 -71,-32 -110,-32 -61,0 -116,33 -116,99 0,71 51,119 98,147 34,20 71,32 110,32 z"
       transform="scale(0.0029,-0.0029)" />
  </g>
  <g
     id="g782"
     transform="translate(176.9245,6.2010998)">
    <rect
       id="rect780"
       fill="currentColor"
       ry="0.042100001"
       height="3.0694001"
       width="0.1228"
       y="-5.7676001"
       x="-0.0614" />
  </g>
  <g
     id="g786"
     transform="translate(196.6485,5.8326998)">
    <path
       id="path784"
       fill="currentColor"
       d="m 208,139 c 61,0 117,-33 117,-99 0,-71 -52,-119 -99,-147 -34,-20 -71,-32 -110,-32 -61,0 -116,33 -116,99 0,71 51,119 98,147 34,20 71,32 110,32 z"
       transform="scale(0.0029,-0.0029)" />
  </g>
  <g
     id="g790"
     transform="translate(197.5436,6.2010998)">
    <rect
       id="rect788"
       fill="currentColor"
       ry="0.042100001"
       height="2.5868001"
       width="0.1228"
       y="-3.0745001"
       x="-0.0614" />
  </g>
  <g
     id="g794"
     transform="translate(199.055,5.0958998)">
    <path
       id="path792"
       fill="currentColor"
       d="m 208,139 c 61,0 117,-33 117,-99 0,-71 -52,-119 -99,-147 -34,-20 -71,-32 -110,-32 -61,0 -116,33 -116,99 0,71 51,119 98,147 34,20 71,32 110,32 z"
       transform="scale(0.0029,-0.0029)" />
  </g>
  <g
     id="g798"
     transform="translate(199.9501,6.2010998)">
    <rect
       id="rect796"
       fill="currentColor"
       ry="0.042100001"
       height="1.7516"
       width="0.1228"
       y="-2.9761"
       x="-0.0614" />
  </g>
  <g
     id="g802"
     transform="translate(186.5618,6.2010998)">
    <path
       id="path800"
       fill="currentColor"
       d="m 208,139 c 61,0 117,-33 117,-99 0,-71 -52,-119 -99,-147 -34,-20 -71,-32 -110,-32 -61,0 -116,33 -116,99 0,71 51,119 98,147 34,20 71,32 110,32 z"
       transform="scale(0.0029,-0.0029)" />
  </g>
  <g
     id="g806"
     transform="translate(187.4569,6.2010998)">
    <rect
       id="rect804"
       fill="currentColor"
       ry="0.042100001"
       height="2.4597001"
       width="0.1228"
       y="-2.5789001"
       x="-0.0614" />
  </g>
  <g
     id="g810"
     transform="translate(188.9683,5.4642998)">
    <path
       id="path808"
       fill="currentColor"
       d="m 208,139 c 61,0 117,-33 117,-99 0,-71 -52,-119 -99,-147 -34,-20 -71,-32 -110,-32 -61,0 -116,33 -116,99 0,71 51,119 98,147 34,20 71,32 110,32 z"
       transform="scale(0.0029,-0.0029)" />
  </g>
  <g
     id="g814"
     transform="translate(189.8634,6.2010998)">
    <rect
       id="rect812"
       fill="currentColor"
       ry="0.042100001"
       height="1.7229"
       width="0.1228"
       y="-2.5789001"
       x="-0.0614" />
  </g>
  <g
     id="g818"
     transform="translate(191.1248,5.8326998)">
    <path
       id="path816"
       fill="currentColor"
       d="m 208,139 c 61,0 117,-33 117,-99 0,-71 -52,-119 -99,-147 -34,-20 -71,-32 -110,-32 -61,0 -116,33 -116,99 0,71 51,119 98,147 34,20 71,32 110,32 z"
       transform="scale(0.0029,-0.0029)" />
  </g>
  <g
     id="g822"
     transform="translate(192.0199,6.2010998)">
    <rect
       id="rect820"
       fill="currentColor"
       ry="0.042100001"
       height="2.0913"
       width="0.1228"
       y="-2.5789001"
       x="-0.0614" />
  </g>
  <g
     id="g826"
     transform="translate(193.2813,6.2010998)">
    <path
       id="path824"
       fill="currentColor"
       d="m 208,139 c 61,0 117,-33 117,-99 0,-71 -52,-119 -99,-147 -34,-20 -71,-32 -110,-32 -61,0 -116,33 -116,99 0,71 51,119 98,147 34,20 71,32 110,32 z"
       transform="scale(0.0029,-0.0029)" />
  </g>
  <g
     id="g830"
     transform="translate(194.1764,6.2010998)">
    <rect
       id="rect828"
       fill="currentColor"
       ry="0.042100001"
       height="2.4597001"
       width="0.1228"
       y="-2.5789001"
       x="-0.0614" />
  </g>
  <g
     id="g834"
     transform="translate(46.3058,6.2010998)">
    <rect
       id="rect832"
       fill="currentColor"
       ry="0.042100001"
       height="1.8975"
       width="0.1228"
       y="-2.3850999"
       x="-0.0614" />
  </g>
  <g
     id="g838"
     transform="translate(43.0043,6.5695998)">
    <path
       id="path836"
       fill="currentColor"
       d="m 208,139 c 61,0 117,-33 117,-99 0,-71 -52,-119 -99,-147 -34,-20 -71,-32 -110,-32 -61,0 -116,33 -116,99 0,71 51,119 98,147 34,20 71,32 110,32 z"
       transform="scale(0.0029,-0.0029)" />
  </g>
  <g
     id="g842"
     transform="translate(43.8994,6.2010998)">
    <rect
       id="rect840"
       fill="currentColor"
       ry="0.042100001"
       height="2.8232999"
       width="0.1228"
       y="-2.5741"
       x="-0.0614" />
  </g>
  <g
     id="g846"
     transform="translate(45.4107,5.8326998)">
    <path
       id="path844"
       fill="currentColor"
       d="m 208,139 c 61,0 117,-33 117,-99 0,-71 -52,-119 -99,-147 -34,-20 -71,-32 -110,-32 -61,0 -116,33 -116,99 0,71 51,119 98,147 34,20 71,32 110,32 z"
       transform="scale(0.0029,-0.0029)" />
  </g>
  <g
     id="g850"
     transform="translate(41.9929,6.2010998)">
    <rect
       id="rect848"
       fill="currentColor"
       ry="0.042100001"
       height="3.5650001"
       width="0.1228"
       y="-4.0525999"
       x="-0.0614" />
  </g>
  <g
     id="g854"
     transform="translate(47.3172,6.5695998)">
    <path
       id="path852"
       fill="currentColor"
       d="m 208,139 c 61,0 117,-33 117,-99 0,-71 -52,-119 -99,-147 -34,-20 -71,-32 -110,-32 -61,0 -116,33 -116,99 0,71 51,119 98,147 34,20 71,32 110,32 z"
       transform="scale(0.0029,-0.0029)" />
  </g>
  <g
     id="g858"
     transform="translate(48.2123,6.2010998)">
    <rect
       id="rect856"
       fill="currentColor"
       ry="0.042100001"
       height="2.4846001"
       width="0.1228"
       y="-2.2354"
       x="-0.0614" />
  </g>
  <g
     id="g862"
     transform="translate(49.2237,7.6747998)">
    <path
       id="path860"
       fill="currentColor"
       d="m 208,139 c 61,0 117,-33 117,-99 0,-71 -52,-119 -99,-147 -34,-20 -71,-32 -110,-32 -61,0 -116,33 -116,99 0,71 51,119 98,147 34,20 71,32 110,32 z"
       transform="scale(0.0029,-0.0029)" />
  </g>
  <g
     id="g866"
     transform="translate(37.2848,3.9905998)">
    <path
       id="path864"
       fill="currentColor"
       d="m 208,139 c 61,0 117,-33 117,-99 0,-71 -52,-119 -99,-147 -34,-20 -71,-32 -110,-32 -61,0 -116,33 -116,99 0,71 51,119 98,147 34,20 71,32 110,32 z"
       transform="scale(0.0029,-0.0029)" />
  </g>
  <g
     id="g870"
     transform="translate(38.1799,6.2010998)">
    <rect
       id="rect868"
       fill="currentColor"
       ry="0.042100001"
       height="1.7229"
       width="0.1228"
       y="-4.0525999"
       x="-0.0614" />
  </g>
  <g
     id="g874"
     transform="translate(50.1188,6.2010998)">
    <rect
       id="rect872"
       fill="currentColor"
       ry="0.042100001"
       height="3.4402001"
       width="0.1228"
       y="-2.0857"
       x="-0.0614" />
  </g>
  <g
     id="g878"
     transform="translate(39.1913,5.0958998)">
    <path
       id="path876"
       fill="currentColor"
       d="m 208,139 c 61,0 117,-33 117,-99 0,-71 -52,-119 -99,-147 -34,-20 -71,-32 -110,-32 -61,0 -116,33 -116,99 0,71 51,119 98,147 34,20 71,32 110,32 z"
       transform="scale(0.0029,-0.0029)" />
  </g>
  <g
     id="g882"
     transform="translate(40.0864,6.2010998)">
    <rect
       id="rect880"
       fill="currentColor"
       ry="0.042100001"
       height="2.8281"
       width="0.1228"
       y="-4.0525999"
       x="-0.0614" />
  </g>
  <g
     id="g886"
     transform="translate(41.0978,5.8326998)">
    <path
       id="path884"
       fill="currentColor"
       d="m 208,139 c 61,0 117,-33 117,-99 0,-71 -52,-119 -99,-147 -34,-20 -71,-32 -110,-32 -61,0 -116,33 -116,99 0,71 51,119 98,147 34,20 71,32 110,32 z"
       transform="scale(0.0029,-0.0029)" />
  </g>
  <g
     id="g890"
     transform="translate(111.5882,6.2010998)">
    <rect
       id="rect888"
       fill="currentColor"
       ry="0.042100001"
       height="2.3301001"
       width="0.1228"
       y="-1.3441"
       x="-0.0614" />
  </g>
  <g
     id="g894"
     transform="translate(61.3356,8.7800998)">
    <path
       id="path892"
       fill="currentColor"
       d="m 208,139 c 61,0 117,-33 117,-99 0,-71 -52,-119 -99,-147 -34,-20 -71,-32 -110,-32 -61,0 -116,33 -116,99 0,71 51,119 98,147 34,20 71,32 110,32 z"
       transform="scale(0.0029,-0.0029)" />
  </g>
  <g
     id="g898"
     transform="translate(62.2307,6.2010998)">
    <rect
       id="rect896"
       fill="currentColor"
       ry="0.042100001"
       height="6.5124002"
       width="0.1228"
       y="-4.0525999"
       x="-0.0614" />
  </g>
  <g
     id="g902"
     transform="translate(57.8497,8.4116998)">
    <path
       id="path900"
       fill="currentColor"
       d="m 208,139 c 61,0 117,-33 117,-99 0,-71 -52,-119 -99,-147 -34,-20 -71,-32 -110,-32 -61,0 -116,33 -116,99 0,71 51,119 98,147 34,20 71,32 110,32 z"
       transform="scale(0.0029,-0.0029)" />
  </g>
  <g
     id="g906"
     transform="translate(64.0526,4.3589998)">
    <path
       id="path904"
       fill="currentColor"
       d="m 208,139 c 61,0 117,-33 117,-99 0,-71 -52,-119 -99,-147 -34,-20 -71,-32 -110,-32 -61,0 -116,33 -116,99 0,71 51,119 98,147 34,20 71,32 110,32 z"
       transform="scale(0.0029,-0.0029)" />
  </g>
  <g
     id="g910"
     transform="translate(64.9477,6.2010998)">
    <rect
       id="rect908"
       fill="currentColor"
       ry="0.042100001"
       height="2.0913"
       width="0.1228"
       y="-4.0525999"
       x="-0.0614" />
  </g>
  <g
     id="g914"
     transform="translate(54.4318,6.2010998)">
    <rect
       id="rect912"
       fill="currentColor"
       ry="0.042100001"
       height="1.9617"
       width="0.1228"
       y="-0.60720003"
       x="-0.0614" />
  </g>
  <g
     id="g918"
     transform="translate(51.1302,8.4116998)">
    <path
       id="path916"
       fill="currentColor"
       d="m 208,139 c 61,0 117,-33 117,-99 0,-71 -52,-119 -99,-147 -34,-20 -71,-32 -110,-32 -61,0 -116,33 -116,99 0,71 51,119 98,147 34,20 71,32 110,32 z"
       transform="scale(0.0029,-0.0029)" />
  </g>
  <g
     id="g922"
     transform="translate(52.0253,6.2010998)">
    <rect
       id="rect920"
       fill="currentColor"
       ry="0.042100001"
       height="2.6984999"
       width="0.1228"
       y="-0.60720003"
       x="-0.0614" />
  </g>
  <g
     id="g926"
     transform="translate(53.5367,7.6747998)">
    <path
       id="path924"
       fill="currentColor"
       d="m 208,139 c 61,0 117,-33 117,-99 0,-71 -52,-119 -99,-147 -34,-20 -71,-32 -110,-32 -61,0 -116,33 -116,99 0,71 51,119 98,147 34,20 71,32 110,32 z"
       transform="scale(0.0029,-0.0029)" />
  </g>
  <g
     id="g930"
     transform="translate(55.6932,8.0432998)">
    <path
       id="path928"
       fill="currentColor"
       d="m 208,139 c 61,0 117,-33 117,-99 0,-71 -52,-119 -99,-147 -34,-20 -71,-32 -110,-32 -61,0 -116,33 -116,99 0,71 51,119 98,147 34,20 71,32 110,32 z"
       transform="scale(0.0029,-0.0029)" />
  </g>
  <g
     id="g934"
     transform="translate(56.5883,6.2010998)">
    <rect
       id="rect932"
       fill="currentColor"
       ry="0.042100001"
       height="2.3301001"
       width="0.1228"
       y="-0.60720003"
       x="-0.0614" />
  </g>
  <g
     id="g938"
     transform="translate(12.734,4.7274998)">
    <path
       id="path936"
       fill="currentColor"
       d="m 208,139 c 61,0 117,-33 117,-99 0,-71 -52,-119 -99,-147 -34,-20 -71,-32 -110,-32 -61,0 -116,33 -116,99 0,71 51,119 98,147 34,20 71,32 110,32 z"
       transform="scale(0.0029,-0.0029)" />
  </g>
  <g
     id="g942"
     transform="translate(13.6291,6.2010998)">
    <rect
       id="rect940"
       fill="currentColor"
       ry="0.042100001"
       height="2.2950001"
       width="0.1228"
       y="-3.8879001"
       x="-0.0614" />
  </g>
  <g
     id="g946"
     transform="translate(14.6405,5.4642998)">
    <path
       id="path944"
       fill="currentColor"
       d="m 208,139 c 61,0 117,-33 117,-99 0,-71 -52,-119 -99,-147 -34,-20 -71,-32 -110,-32 -61,0 -116,33 -116,99 0,71 51,119 98,147 34,20 71,32 110,32 z"
       transform="scale(0.0029,-0.0029)" />
  </g>
  <g
     id="g950"
     transform="translate(15.5356,6.2010998)">
    <rect
       id="rect948"
       fill="currentColor"
       ry="0.042100001"
       height="2.9600999"
       width="0.1228"
       y="-3.8160999"
       x="-0.0614" />
  </g>
  <g
     id="g954"
     transform="translate(16.547,6.5695998)">
    <path
       id="path952"
       fill="currentColor"
       d="m 208,139 c 61,0 117,-33 117,-99 0,-71 -52,-119 -99,-147 -34,-20 -71,-32 -110,-32 -61,0 -116,33 -116,99 0,71 51,119 98,147 34,20 71,32 110,32 z"
       transform="scale(0.0029,-0.0029)" />
  </g>
  <g
     id="g958"
     transform="translate(17.4421,6.2010998)">
    <rect
       id="rect956"
       fill="currentColor"
       ry="0.042100001"
       height="3.1930001"
       width="0.1228"
       y="-2.9438"
       x="-0.0614" />
  </g>
  <g
     id="g962"
     transform="translate(18.9535,5.4642998)">
    <path
       id="path960"
       fill="currentColor"
       d="m 208,139 c 61,0 117,-33 117,-99 0,-71 -52,-119 -99,-147 -34,-20 -71,-32 -110,-32 -61,0 -116,33 -116,99 0,71 51,119 98,147 34,20 71,32 110,32 z"
       transform="scale(0.0029,-0.0029)" />
  </g>
  <g
     id="g966"
     transform="translate(0.8,6.9379998)">
    <path
       id="path964"
       fill="currentColor"
       d="m 381,266 h 9 c 157,0 258,-130 258,-264 0,-77 -33,-156 -108,-212 -22,-16 -46,-28 -71,-36 2,-32 3,-65 3,-97 0,-21 -1,-43 -2,-64 -7,-122 -91,-230 -211,-230 -108,0 -197,88 -197,197 0,58 54,104 113,104 54,0 95,-48 95,-104 0,-52 -43,-95 -95,-95 -8,0 -16,2 -24,4 25,-35 65,-59 111,-59 95,0 155,92 161,190 1,20 2,39 2,59 0,28 -1,55 -3,83 -29,-5 -57,-7 -87,-7 -189,0 -333,174 -333,377 0,176 128,307 242,443 -21,62 -41,124 -50,189 -7,52 -8,106 -8,159 0,113 54,219 146,286 8,6 21,7 29,0 72,-82 136,-244 136,-357 0,-141 -83,-253 -174,-362 22,-67 41,-135 58,-204 z m 83,-466 c 64,25 108,93 108,159 0,87 -62,173 -163,187 24,-113 43,-225 55,-346 z m -126,-18 c 27,0 54,2 80,6 C 405,-87 385,30 360,147 281,140 237,88 237,31 c 0,-43 24,-89 78,-120 5,-5 8,-11 8,-17 0,-13 -11,-24 -24,-24 -3,0 -7,0 -10,2 -81,44 -119,116 -119,187 0,90 60,178 164,201 -14,56 -30,112 -47,167 C 183,305 79,182 79,23 79,-109 206,-218 338,-218 Z M 239,782 c 0,-69 22,-127 41,-183 77,97 140,199 140,323 0,49 -3,69 -19,113 C 302,990 239,890 239,782 Z"
       transform="scale(0.0029,-0.0029)" />
  </g>
  <g
     id="g970"
     transform="translate(4.3,4.7274998)">
    <path
       id="path968"
       fill="currentColor"
       d="m 0,114 c 0,12 7,22 18,26 l 37,15 v 151 c 0,12 10,22 22,22 12,0 22,-10 22,-22 V 172 l 77,29 v 152 c 0,12 10,22 22,22 12,0 22,-10 22,-22 V 219 l 16,6 c 3,1 8,2 11,2 15,0 28,-12 28,-28 v -50 c 0,-12 -7,-23 -18,-27 L 220,108 V -44 l 16,7 c 3,1 8,2 11,2 15,0 28,-13 28,-29 v -50 c 0,-12 -7,-22 -18,-26 l -37,-15 v -151 c 0,-12 -10,-22 -22,-22 -12,0 -22,10 -22,22 v 134 l -77,-29 v -152 c 0,-12 -10,-22 -22,-22 -12,0 -22,10 -22,22 v 134 l -16,-6 c -3,-1 -8,-2 -11,-2 -15,0 -28,12 -28,28 v 50 c 0,12 7,23 18,27 l 37,14 V 44 L 39,37 C 36,36 31,35 28,35 13,35 0,48 0,64 Z M 176,91 99,61 V -91 l 77,30 z"
       transform="scale(0.0029,-0.0029)" />
  </g>
  <g
     id="g974"
     transform="translate(5.1105,5.8326998)">
    <path
       id="path972"
       fill="currentColor"
       d="m 0,114 c 0,12 7,22 18,26 l 37,15 v 151 c 0,12 10,22 22,22 12,0 22,-10 22,-22 V 172 l 77,29 v 152 c 0,12 10,22 22,22 12,0 22,-10 22,-22 V 219 l 16,6 c 3,1 8,2 11,2 15,0 28,-12 28,-28 v -50 c 0,-12 -7,-23 -18,-27 L 220,108 V -44 l 16,7 c 3,1 8,2 11,2 15,0 28,-13 28,-29 v -50 c 0,-12 -7,-22 -18,-26 l -37,-15 v -151 c 0,-12 -10,-22 -22,-22 -12,0 -22,10 -22,22 v 134 l -77,-29 v -152 c 0,-12 -10,-22 -22,-22 -12,0 -22,10 -22,22 v 134 l -16,-6 c -3,-1 -8,-2 -11,-2 -15,0 -28,12 -28,28 v 50 c 0,12 7,23 18,27 l 37,14 V 44 L 39,37 C 36,36 31,35 28,35 13,35 0,48 0,64 Z M 176,91 99,61 V -91 l 77,30 z"
       transform="scale(0.0029,-0.0029)" />
  </g>
  <g
     id="g978"
     transform="translate(19.8486,6.2010998)">
    <rect
       id="rect976"
       fill="currentColor"
       ry="0.042100001"
       height="1.9479001"
       width="0.1228"
       y="-2.8039999"
       x="-0.0614" />
  </g>
  <g
     id="g982"
     transform="translate(8.421,4.7274998)">
    <path
       id="path980"
       fill="currentColor"
       d="m 208,139 c 61,0 117,-33 117,-99 0,-71 -52,-119 -99,-147 -34,-20 -71,-32 -110,-32 -61,0 -116,33 -116,99 0,71 51,119 98,147 34,20 71,32 110,32 z"
       transform="scale(0.0029,-0.0029)" />
  </g>
  <g
     id="g986"
     transform="translate(9.3161,6.2010998)">
    <rect
       id="rect984"
       fill="currentColor"
       ry="0.042100001"
       height="2.4574001"
       width="0.1228"
       y="-4.0503001"
       x="-0.0614" />
  </g>
  <g
     id="g990"
     transform="translate(10.8275,3.9905998)">
    <path
       id="path988"
       fill="currentColor"
       d="m 208,139 c 61,0 117,-33 117,-99 0,-71 -52,-119 -99,-147 -34,-20 -71,-32 -110,-32 -61,0 -116,33 -116,99 0,71 51,119 98,147 34,20 71,32 110,32 z"
       transform="scale(0.0029,-0.0029)" />
  </g>
  <g
     id="g994"
     transform="translate(11.7226,6.2010998)">
    <rect
       id="rect992"
       fill="currentColor"
       ry="0.042100001"
       height="1.63"
       width="0.1228"
       y="-3.9597001"
       x="-0.0614" />
  </g>
  <g
     id="g998"
     transform="translate(31.3924,8.0432998)">
    <path
       id="path996"
       fill="currentColor"
       d="m 208,139 c 61,0 117,-33 117,-99 0,-71 -52,-119 -99,-147 -34,-20 -71,-32 -110,-32 -61,0 -116,33 -116,99 0,71 51,119 98,147 34,20 71,32 110,32 z"
       transform="scale(0.0029,-0.0029)" />
  </g>
  <g
     id="g1002"
     transform="translate(27.9745,6.2010998)">
    <rect
       id="rect1000"
       fill="currentColor"
       ry="0.042100001"
       height="1.7229"
       width="0.1228"
       y="-0.73680001"
       x="-0.0614" />
  </g>
  <g
     id="g1006"
     transform="translate(29.2359,7.6747998)">
    <path
       id="path1004"
       fill="currentColor"
       d="m 208,139 c 61,0 117,-33 117,-99 0,-71 -52,-119 -99,-147 -34,-20 -71,-32 -110,-32 -61,0 -116,33 -116,99 0,71 51,119 98,147 34,20 71,32 110,32 z"
       transform="scale(0.0029,-0.0029)" />
  </g>
  <g
     id="g1010"
     transform="translate(30.131,6.2010998)">
    <rect
       id="rect1008"
       fill="currentColor"
       ry="0.042100001"
       height="2.0913"
       width="0.1228"
       y="-0.73680001"
       x="-0.0614" />
  </g>
  <g
     id="g1014"
     transform="translate(27.0794,7.3063998)">
    <path
       id="path1012"
       fill="currentColor"
       d="m 208,139 c 61,0 117,-33 117,-99 0,-71 -52,-119 -99,-147 -34,-20 -71,-32 -110,-32 -61,0 -116,33 -116,99 0,71 51,119 98,147 34,20 71,32 110,32 z"
       transform="scale(0.0029,-0.0029)" />
  </g>
  <g
     id="g1018"
     transform="translate(32.2875,6.2010998)">
    <rect
       id="rect1016"
       fill="currentColor"
       ry="0.042100001"
       height="2.4597001"
       width="0.1228"
       y="-0.73680001"
       x="-0.0614" />
  </g>
  <g
     id="g1022"
     transform="translate(34.8783,8.4116998)">
    <path
       id="path1020"
       fill="currentColor"
       d="m 208,139 c 61,0 117,-33 117,-99 0,-71 -52,-119 -99,-147 -34,-20 -71,-32 -110,-32 -61,0 -116,33 -116,99 0,71 51,119 98,147 34,20 71,32 110,32 z"
       transform="scale(0.0029,-0.0029)" />
  </g>
  <g
     id="g1026"
     transform="translate(35.7734,6.2010998)">
    <rect
       id="rect1024"
       fill="currentColor"
       ry="0.042100001"
       height="6.1438999"
       width="0.1228"
       y="-4.0525999"
       x="-0.0614" />
  </g>
  <g
     id="g1030"
     transform="translate(23.6615,6.2010998)">
    <rect
       id="rect1028"
       fill="currentColor"
       ry="0.042100001"
       height="3.5685"
       width="0.1228"
       y="-2.5825"
       x="-0.0614" />
  </g>
  <g
     id="g1034"
     transform="translate(20.8599,6.5695998)">
    <path
       id="path1032"
       fill="currentColor"
       d="m 208,139 c 61,0 117,-33 117,-99 0,-71 -52,-119 -99,-147 -34,-20 -71,-32 -110,-32 -61,0 -116,33 -116,99 0,71 51,119 98,147 34,20 71,32 110,32 z"
       transform="scale(0.0029,-0.0029)" />
  </g>
  <g
     id="g1038"
     transform="translate(21.7551,6.2010998)">
    <rect
       id="rect1036"
       fill="currentColor"
       ry="0.042100001"
       height="2.9425001"
       width="0.1228"
       y="-2.6933"
       x="-0.0614" />
  </g>
  <g
     id="g1042"
     transform="translate(22.7664,7.3063998)">
    <path
       id="path1040"
       fill="currentColor"
       d="m 208,139 c 61,0 117,-33 117,-99 0,-71 -52,-119 -99,-147 -34,-20 -71,-32 -110,-32 -61,0 -116,33 -116,99 0,71 51,119 98,147 34,20 71,32 110,32 z"
       transform="scale(0.0029,-0.0029)" />
  </g>
  <g
     id="g1046"
     transform="translate(58.7448,6.2010998)">
    <rect
       id="rect1044"
       fill="currentColor"
       ry="0.042100001"
       height="2.6984999"
       width="0.1228"
       y="-0.60720003"
       x="-0.0614" />
  </g>
  <g
     id="g1050"
     transform="translate(24.6729,8.0432998)">
    <path
       id="path1048"
       fill="currentColor"
       d="m 208,139 c 61,0 117,-33 117,-99 0,-71 -52,-119 -99,-147 -34,-20 -71,-32 -110,-32 -61,0 -116,33 -116,99 0,71 51,119 98,147 34,20 71,32 110,32 z"
       transform="scale(0.0029,-0.0029)" />
  </g>
  <g
     id="g1054"
     transform="translate(25.568,6.2010998)">
    <rect
       id="rect1052"
       fill="currentColor"
       ry="0.042100001"
       height="2.4597001"
       width="0.1228"
       y="-0.73680001"
       x="-0.0614" />
  </g>
  <g
     id="g1058"
     transform="translate(90.7847,8.7800998)">
    <path
       id="path1056"
       fill="currentColor"
       d="m 208,139 c 61,0 117,-33 117,-99 0,-71 -52,-119 -99,-147 -34,-20 -71,-32 -110,-32 -61,0 -116,33 -116,99 0,71 51,119 98,147 34,20 71,32 110,32 z"
       transform="scale(0.0029,-0.0029)" />
  </g>
  <g
     id="g1062"
     transform="translate(89.5233,6.2010998)">
    <rect
       id="rect1060"
       fill="currentColor"
       ry="0.042100001"
       height="2.8313999"
       width="0.1228"
       y="-0.0033"
       x="-0.0614" />
  </g>
  <g
     id="g1066"
     transform="translate(91.6798,6.2010998)">
    <rect
       id="rect1064"
       fill="currentColor"
       ry="0.042100001"
       height="2.5790999"
       width="0.1228"
       y="-0.1194"
       x="-0.0614" />
  </g>
  <g
     id="g1070"
     transform="translate(93.1912,8.4116998)">
    <path
       id="path1068"
       fill="currentColor"
       d="m 208,139 c 61,0 117,-33 117,-99 0,-71 -52,-119 -99,-147 -34,-20 -71,-32 -110,-32 -61,0 -116,33 -116,99 0,71 51,119 98,147 34,20 71,32 110,32 z"
       transform="scale(0.0029,-0.0029)" />
  </g>
  <g
     id="g1074"
     transform="translate(94.0863,6.2010998)">
    <rect
       id="rect1072"
       fill="currentColor"
       ry="0.042100001"
       height="2.3403001"
       width="0.1228"
       y="-0.249"
       x="-0.0614" />
  </g>
  <g
     id="g1078"
     transform="translate(81.115,8.0432998)">
    <path
       id="path1076"
       fill="currentColor"
       d="m 208,139 c 61,0 117,-33 117,-99 0,-71 -52,-119 -99,-147 -34,-20 -71,-32 -110,-32 -61,0 -116,33 -116,99 0,71 51,119 98,147 34,20 71,32 110,32 z"
       transform="scale(0.0029,-0.0029)" />
  </g>
  <g
     id="g1082"
     transform="translate(82.0101,6.2010998)">
    <rect
       id="rect1080"
       fill="currentColor"
       ry="0.042100001"
       height="1.7229"
       width="0.1228"
       y="0"
       x="-0.0614" />
  </g>
  <g
     id="g1086"
     transform="translate(83.2715,8.4116998)">
    <path
       id="path1084"
       fill="currentColor"
       d="m 208,139 c 61,0 117,-33 117,-99 0,-71 -52,-119 -99,-147 -34,-20 -71,-32 -110,-32 -61,0 -116,33 -116,99 0,71 51,119 98,147 34,20 71,32 110,32 z"
       transform="scale(0.0029,-0.0029)" />
  </g>
  <g
     id="g1090"
     transform="translate(84.1666,6.2010998)">
    <rect
       id="rect1088"
       fill="currentColor"
       ry="0.042100001"
       height="2.0913"
       width="0.1228"
       y="0"
       x="-0.0614" />
  </g>
  <g
     id="g1094"
     transform="translate(85.178,8.7800998)">
    <path
       id="path1092"
       fill="currentColor"
       d="m 208,139 c 61,0 117,-33 117,-99 0,-71 -52,-119 -99,-147 -34,-20 -71,-32 -110,-32 -61,0 -116,33 -116,99 0,71 51,119 98,147 34,20 71,32 110,32 z"
       transform="scale(0.0029,-0.0029)" />
  </g>
  <g
     id="g1098"
     transform="translate(86.0731,6.2010998)">
    <rect
       id="rect1096"
       fill="currentColor"
       ry="0.042100001"
       height="2.4597001"
       width="0.1228"
       y="0"
       x="-0.0614" />
  </g>
  <g
     id="g1102"
     transform="translate(88.6282,9.1484998)">
    <path
       id="path1100"
       fill="currentColor"
       d="m 208,139 c 61,0 117,-33 117,-99 0,-71 -52,-119 -99,-147 -34,-20 -71,-32 -110,-32 -61,0 -116,33 -116,99 0,71 51,119 98,147 34,20 71,32 110,32 z"
       transform="scale(0.0029,-0.0029)" />
  </g>
  <g
     id="g1106"
     transform="translate(103.7236,8.4116998)">
    <path
       id="path1104"
       fill="currentColor"
       d="m 208,139 c 61,0 117,-33 117,-99 0,-71 -52,-119 -99,-147 -34,-20 -71,-32 -110,-32 -61,0 -116,33 -116,99 0,71 51,119 98,147 34,20 71,32 110,32 z"
       transform="scale(0.0029,-0.0029)" />
  </g>
  <g
     id="g1110"
     transform="translate(104.6187,6.2010998)">
    <rect
       id="rect1108"
       fill="currentColor"
       ry="0.042100001"
       height="2.0971999"
       width="0.1228"
       y="-0.0059000002"
       x="-0.0614" />
  </g>
  <g
     id="g1114"
     transform="translate(106.1301,7.6747998)">
    <path
       id="path1112"
       fill="currentColor"
       d="m 208,139 c 61,0 117,-33 117,-99 0,-71 -52,-119 -99,-147 -34,-20 -71,-32 -110,-32 -61,0 -116,33 -116,99 0,71 51,119 98,147 34,20 71,32 110,32 z"
       transform="scale(0.0029,-0.0029)" />
  </g>
  <g
     id="g1118"
     transform="translate(107.0252,6.2010998)">
    <rect
       id="rect1116"
       fill="currentColor"
       ry="0.042100001"
       height="2.6984999"
       width="0.1228"
       y="-1.3441"
       x="-0.0614" />
  </g>
  <g
     id="g1122"
     transform="translate(108.5366,6.9379998)">
    <path
       id="path1120"
       fill="currentColor"
       d="m 208,139 c 61,0 117,-33 117,-99 0,-71 -52,-119 -99,-147 -34,-20 -71,-32 -110,-32 -61,0 -116,33 -116,99 0,71 51,119 98,147 34,20 71,32 110,32 z"
       transform="scale(0.0029,-0.0029)" />
  </g>
  <g
     id="g1126"
     transform="translate(109.4317,6.2010998)">
    <rect
       id="rect1124"
       fill="currentColor"
       ry="0.042100001"
       height="1.9617"
       width="0.1228"
       y="-1.3441"
       x="-0.0614" />
  </g>
  <g
     id="g1130"
     transform="translate(110.6931,7.3063998)">
    <path
       id="path1128"
       fill="currentColor"
       d="m 208,139 c 61,0 117,-33 117,-99 0,-71 -52,-119 -99,-147 -34,-20 -71,-32 -110,-32 -61,0 -116,33 -116,99 0,71 51,119 98,147 34,20 71,32 110,32 z"
       transform="scale(0.0029,-0.0029)" />
  </g>
  <g
     id="g1134"
     transform="translate(95.3477,8.0432998)">
    <path
       id="path1132"
       fill="currentColor"
       d="m 208,139 c 61,0 117,-33 117,-99 0,-71 -52,-119 -99,-147 -34,-20 -71,-32 -110,-32 -61,0 -116,33 -116,99 0,71 51,119 98,147 34,20 71,32 110,32 z"
       transform="scale(0.0029,-0.0029)" />
  </g>
  <g
     id="g1138"
     transform="translate(96.2428,6.2010998)">
    <rect
       id="rect1136"
       fill="currentColor"
       ry="0.042100001"
       height="2.0880001"
       width="0.1228"
       y="-0.3651"
       x="-0.0614" />
  </g>
  <g
     id="g1142"
     transform="translate(97.5042,7.6747998)">
    <path
       id="path1140"
       fill="currentColor"
       d="m 208,139 c 61,0 117,-33 117,-99 0,-71 -52,-119 -99,-147 -34,-20 -71,-32 -110,-32 -61,0 -116,33 -116,99 0,71 51,119 98,147 34,20 71,32 110,32 z"
       transform="scale(0.0029,-0.0029)" />
  </g>
  <g
     id="g1146"
     transform="translate(98.3993,6.2010998)">
    <rect
       id="rect1144"
       fill="currentColor"
       ry="0.042100001"
       height="1.9558001"
       width="0.1228"
       y="-0.6013"
       x="-0.0614" />
  </g>
  <g
     id="g1150"
     transform="translate(99.4106,8.4116998)">
    <path
       id="path1148"
       fill="currentColor"
       d="m 208,139 c 61,0 117,-33 117,-99 0,-71 -52,-119 -99,-147 -34,-20 -71,-32 -110,-32 -61,0 -116,33 -116,99 0,71 51,119 98,147 34,20 71,32 110,32 z"
       transform="scale(0.0029,-0.0029)" />
  </g>
  <g
     id="g1154"
     transform="translate(100.3057,6.2010998)">
    <rect
       id="rect1152"
       fill="currentColor"
       ry="0.042100001"
       height="2.5100999"
       width="0.1228"
       y="-0.4188"
       x="-0.0614" />
  </g>
  <g
     id="g1158"
     transform="translate(101.3171,9.1484998)">
    <path
       id="path1156"
       fill="currentColor"
       d="m 208,139 c 61,0 117,-33 117,-99 0,-71 -52,-119 -99,-147 -34,-20 -71,-32 -110,-32 -61,0 -116,33 -116,99 0,71 51,119 98,147 34,20 71,32 110,32 z"
       transform="scale(0.0029,-0.0029)" />
  </g>
  <g
     id="g1162"
     transform="translate(102.2122,6.2010998)">
    <rect
       id="rect1160"
       fill="currentColor"
       ry="0.042100001"
       height="3.0644"
       width="0.1228"
       y="-0.23630001"
       x="-0.0614" />
  </g>
  <g
     id="g1166"
     transform="translate(71.4777,6.2010998)">
    <rect
       id="rect1164"
       fill="currentColor"
       ry="0.042100001"
       height="3.1930001"
       width="0.1228"
       y="-2.5754001"
       x="-0.0614" />
  </g>
  <g
     id="g1170"
     transform="translate(69.4221,6.9379998)">
    <path
       id="path1168"
       fill="currentColor"
       d="m 0,114 c 0,12 7,22 18,26 l 37,15 v 151 c 0,12 10,22 22,22 12,0 22,-10 22,-22 V 172 l 77,29 v 152 c 0,12 10,22 22,22 12,0 22,-10 22,-22 V 219 l 16,6 c 3,1 8,2 11,2 15,0 28,-12 28,-28 v -50 c 0,-12 -7,-23 -18,-27 L 220,108 V -44 l 16,7 c 3,1 8,2 11,2 15,0 28,-13 28,-29 v -50 c 0,-12 -7,-22 -18,-26 l -37,-15 v -151 c 0,-12 -10,-22 -22,-22 -12,0 -22,10 -22,22 v 134 l -77,-29 v -152 c 0,-12 -10,-22 -22,-22 -12,0 -22,10 -22,22 v 134 l -16,-6 c -3,-1 -8,-2 -11,-2 -15,0 -28,12 -28,28 v 50 c 0,12 7,23 18,27 l 37,14 V 44 L 39,37 C 36,36 31,35 28,35 13,35 0,48 0,64 Z M 176,91 99,61 V -91 l 77,30 z"
       transform="scale(0.0029,-0.0029)" />
  </g>
  <g
     id="g1174"
     transform="translate(73.8842,6.2010998)">
    <rect
       id="rect1172"
       fill="currentColor"
       ry="0.042100001"
       height="2.3164001"
       width="0.1228"
       y="-2.4356"
       x="-0.0614" />
  </g>
  <g
     id="g1178"
     transform="translate(70.5826,6.9379998)">
    <path
       id="path1176"
       fill="currentColor"
       d="m 208,139 c 61,0 117,-33 117,-99 0,-71 -52,-119 -99,-147 -34,-20 -71,-32 -110,-32 -61,0 -116,33 -116,99 0,71 51,119 98,147 34,20 71,32 110,32 z"
       transform="scale(0.0029,-0.0029)" />
  </g>
  <g
     id="g1182"
     transform="translate(74.8956,6.9379998)">
    <path
       id="path1180"
       fill="currentColor"
       d="m 208,139 c 61,0 117,-33 117,-99 0,-71 -52,-119 -99,-147 -34,-20 -71,-32 -110,-32 -61,0 -116,33 -116,99 0,71 51,119 98,147 34,20 71,32 110,32 z"
       transform="scale(0.0029,-0.0029)" />
  </g>
  <g
     id="g1186"
     transform="translate(75.7907,6.2010998)">
    <rect
       id="rect1184"
       fill="currentColor"
       ry="0.042100001"
       height="2.9425001"
       width="0.1228"
       y="-2.3248"
       x="-0.0614" />
  </g>
  <g
     id="g1190"
     transform="translate(62.8921,4.3589998)">
    <path
       id="path1188"
       fill="currentColor"
       d="m 0,114 c 0,12 7,22 18,26 l 37,15 v 151 c 0,12 10,22 22,22 12,0 22,-10 22,-22 V 172 l 77,29 v 152 c 0,12 10,22 22,22 12,0 22,-10 22,-22 V 219 l 16,6 c 3,1 8,2 11,2 15,0 28,-12 28,-28 v -50 c 0,-12 -7,-23 -18,-27 L 220,108 V -44 l 16,7 c 3,1 8,2 11,2 15,0 28,-13 28,-29 v -50 c 0,-12 -7,-22 -18,-26 l -37,-15 v -151 c 0,-12 -10,-22 -22,-22 -12,0 -22,10 -22,22 v 134 l -77,-29 v -152 c 0,-12 -10,-22 -22,-22 -12,0 -22,10 -22,22 v 134 l -16,-6 c -3,-1 -8,-2 -11,-2 -15,0 -28,12 -28,28 v 50 c 0,12 7,23 18,27 l 37,14 V 44 L 39,37 C 36,36 31,35 28,35 13,35 0,48 0,64 Z M 176,91 99,61 V -91 l 77,30 z"
       transform="scale(0.0029,-0.0029)" />
  </g>
  <g
     id="g1194"
     transform="translate(65.9591,5.4642998)">
    <path
       id="path1192"
       fill="currentColor"
       d="m 208,139 c 61,0 117,-33 117,-99 0,-71 -52,-119 -99,-147 -34,-20 -71,-32 -110,-32 -61,0 -116,33 -116,99 0,71 51,119 98,147 34,20 71,32 110,32 z"
       transform="scale(0.0029,-0.0029)" />
  </g>
  <g
     id="g1198"
     transform="translate(66.8542,6.2010998)">
    <rect
       id="rect1196"
       fill="currentColor"
       ry="0.042100001"
       height="3.1966"
       width="0.1228"
       y="-4.0525999"
       x="-0.0614" />
  </g>
  <g
     id="g1202"
     transform="translate(72.9891,6.2010998)">
    <path
       id="path1200"
       fill="currentColor"
       d="m 208,139 c 61,0 117,-33 117,-99 0,-71 -52,-119 -99,-147 -34,-20 -71,-32 -110,-32 -61,0 -116,33 -116,99 0,71 51,119 98,147 34,20 71,32 110,32 z"
       transform="scale(0.0029,-0.0029)" />
  </g>
  <g
     id="g1206"
     transform="translate(67.8656,6.2010998)">
    <path
       id="path1204"
       fill="currentColor"
       d="m 208,139 c 61,0 117,-33 117,-99 0,-71 -52,-119 -99,-147 -34,-20 -71,-32 -110,-32 -61,0 -116,33 -116,99 0,71 51,119 98,147 34,20 71,32 110,32 z"
       transform="scale(0.0029,-0.0029)" />
  </g>
  <g
     id="g1210"
     transform="translate(68.7607,6.2010998)">
    <rect
       id="rect1208"
       fill="currentColor"
       ry="0.042100001"
       height="3.9333999"
       width="0.1228"
       y="-4.0525999"
       x="-0.0614" />
  </g>
  <g
     id="g1214"
     transform="translate(79.6036,6.2010998)">
    <rect
       id="rect1212"
       fill="currentColor"
       ry="0.042100001"
       height="2.4597001"
       width="0.1228"
       y="0"
       x="-0.0614" />
  </g>
  <g
     id="g1218"
     transform="translate(78.7085,8.7800998)">
    <path
       id="path1216"
       fill="currentColor"
       d="m 208,139 c 61,0 117,-33 117,-99 0,-71 -52,-119 -99,-147 -34,-20 -71,-32 -110,-32 -61,0 -116,33 -116,99 0,71 51,119 98,147 34,20 71,32 110,32 z"
       transform="scale(0.0029,-0.0029)" />
  </g>
  <g
     id="g1222"
     transform="translate(76.8021,7.6747998)">
    <path
       id="path1220"
       fill="currentColor"
       d="m 208,139 c 61,0 117,-33 117,-99 0,-71 -52,-119 -99,-147 -34,-20 -71,-32 -110,-32 -61,0 -116,33 -116,99 0,71 51,119 98,147 34,20 71,32 110,32 z"
       transform="scale(0.0029,-0.0029)" />
  </g>
  <g
     id="g1226"
     transform="translate(77.6972,6.2010998)">
    <rect
       id="rect1224"
       fill="currentColor"
       ry="0.042100001"
       height="3.5685"
       width="0.1228"
       y="-2.2140999"
       x="-0.0614" />
  </g>
</svg>
