<?xml version="1.0" encoding="UTF-8" standalone="no"?>
<svg
   xmlns:dc="http://purl.org/dc/elements/1.1/"
   xmlns:cc="http://creativecommons.org/ns#"
   xmlns:rdf="http://www.w3.org/1999/02/22-rdf-syntax-ns#"
   xmlns:svg="http://www.w3.org/2000/svg"
   xmlns="http://www.w3.org/2000/svg"
   xmlns:sodipodi="http://sodipodi.sourceforge.net/DTD/sodipodi-0.dtd"
   xmlns:inkscape="http://www.inkscape.org/namespaces/inkscape"
   sodipodi:docname="bwv-1004_5_for_PNGs-29.svg"
   id="svg1212"
   viewBox="0 0 228.14819 9.0880431"
   height="15.171886mm"
   width="380.87836mm"
   version="1.2">
  <metadata
     id="metadata1218">
    <rdf:RDF>
      <cc:Work
         rdf:about="">
        <dc:format>image/svg+xml</dc:format>
        <dc:type
           rdf:resource="http://purl.org/dc/dcmitype/StillImage" />
      </cc:Work>
    </rdf:RDF>
  </metadata>
  <defs
     id="defs1216" />
  <sodipodi:namedview
     id="namedview1214"
     inkscape:window-height="480"
     inkscape:window-width="640"
     inkscape:pageshadow="2"
     inkscape:pageopacity="0"
     guidetolerance="10"
     gridtolerance="10"
     objecttolerance="10"
     borderopacity="1"
     bordercolor="#666666"
     pagecolor="#ffffff" />
  <style
     id="style2"
     type="text/css"><![CDATA[
tspan { white-space: pre; }
]]></style>
  <g
     id="g6"
     transform="translate(0,6.8428426)">
    <line
       id="line4"
       y2="0"
       x2="228.101"
       y1="0"
       x1="0.047200002"
       stroke="currentColor"
       stroke-width="0.0944"
       stroke-linecap="round"
       stroke-linejoin="round" />
  </g>
  <g
     id="g10"
     transform="translate(0,6.1060426)">
    <line
       id="line8"
       y2="0"
       x2="228.101"
       y1="0"
       x1="0.047200002"
       stroke="currentColor"
       stroke-width="0.0944"
       stroke-linecap="round"
       stroke-linejoin="round" />
  </g>
  <g
     id="g14"
     transform="translate(0,5.3691426)">
    <line
       id="line12"
       y2="0"
       x2="228.101"
       y1="0"
       x1="0.047200002"
       stroke="currentColor"
       stroke-width="0.0944"
       stroke-linecap="round"
       stroke-linejoin="round" />
  </g>
  <g
     id="g18"
     transform="translate(0,4.6323426)">
    <line
       id="line16"
       y2="0"
       x2="228.101"
       y1="0"
       x1="0.047200002"
       stroke="currentColor"
       stroke-width="0.0944"
       stroke-linecap="round"
       stroke-linejoin="round" />
  </g>
  <g
     id="g22"
     transform="translate(0,3.8955426)">
    <line
       id="line20"
       y2="0"
       x2="228.101"
       y1="0"
       x1="0.047200002"
       stroke="currentColor"
       stroke-width="0.0944"
       stroke-linecap="round"
       stroke-linejoin="round" />
  </g>
  <g
     id="g26"
     transform="translate(117.9475,5.3691426)">
    <rect
       id="rect24"
       fill="currentColor"
       ry="0.0000"
       height="2.9474001"
       width="0.1794"
       y="-1.4737"
       x="0" />
  </g>
  <g
     id="g30"
     transform="translate(145.4106,5.3691426)">
    <rect
       id="rect28"
       fill="currentColor"
       ry="0.0000"
       height="2.9474001"
       width="0.1794"
       y="-1.4737"
       x="0" />
  </g>
  <g
     id="g34"
     transform="translate(89.6555,5.3691426)">
    <rect
       id="rect32"
       fill="currentColor"
       ry="0.0000"
       height="2.9474001"
       width="0.1794"
       y="-1.4737"
       x="0" />
  </g>
  <g
     id="g38"
     transform="translate(172.5941,5.3691426)">
    <rect
       id="rect36"
       fill="currentColor"
       ry="0.0000"
       height="2.9474001"
       width="0.1794"
       y="-1.4737"
       x="0" />
  </g>
  <g
     id="g42"
     transform="translate(62.0779,5.3691426)">
    <rect
       id="rect40"
       fill="currentColor"
       ry="0.0000"
       height="2.9474001"
       width="0.1794"
       y="-1.4737"
       x="0" />
  </g>
  <g
     id="g46"
     transform="translate(200.701,5.3691426)">
    <rect
       id="rect44"
       fill="currentColor"
       ry="0.0000"
       height="2.9474001"
       width="0.1794"
       y="-1.4737"
       x="0" />
  </g>
  <g
     id="g50"
     transform="translate(34.2502,5.3691426)">
    <rect
       id="rect48"
       fill="currentColor"
       ry="0.0000"
       height="2.9474001"
       width="0.1794"
       y="-1.4737"
       x="0" />
  </g>
  <g
     id="g54"
     transform="translate(227.9688,5.3691426)">
    <rect
       id="rect52"
       fill="currentColor"
       ry="0.0000"
       height="2.9474001"
       width="0.1794"
       y="-1.4737"
       x="0" />
  </g>
  <g
     id="g58"
     transform="translate(0,7.5797426)">
    <rect
       id="rect56"
       fill="currentColor"
       ry="0.084100001"
       height="0.1681"
       width="1.4347"
       y="-0.084100001"
       x="218.60381" />
  </g>
  <g
     id="g62"
     transform="translate(0,8.3165426)">
    <rect
       id="rect60"
       fill="currentColor"
       ry="0.084100001"
       height="0.1681"
       width="1.4347"
       y="-0.084100001"
       x="218.60381" />
  </g>
  <g
     id="g66"
     transform="translate(0,7.5797426)">
    <rect
       id="rect64"
       fill="currentColor"
       ry="0.084100001"
       height="0.1681"
       width="1.3706"
       y="-0.084100001"
       x="214.3549" />
  </g>
  <g
     id="g70"
     transform="translate(0,7.5797426)">
    <rect
       id="rect68"
       fill="currentColor"
       ry="0.084100001"
       height="0.1681"
       width="1.3706"
       y="-0.084100001"
       x="193.4194" />
  </g>
  <g
     id="g74"
     transform="translate(0,7.5797426)">
    <rect
       id="rect72"
       fill="currentColor"
       ry="0.084100001"
       height="0.1681"
       width="1.4347"
       y="-0.084100001"
       x="190.63831" />
  </g>
  <g
     id="g78"
     transform="translate(0,8.3165426)">
    <rect
       id="rect76"
       fill="currentColor"
       ry="0.084100001"
       height="0.1681"
       width="1.4347"
       y="-0.084100001"
       x="190.63831" />
  </g>
  <g
     id="g82"
     transform="translate(0,7.5797426)">
    <rect
       id="rect80"
       fill="currentColor"
       ry="0.084100001"
       height="0.1681"
       width="1.4347"
       y="-0.084100001"
       x="188.4818" />
  </g>
  <g
     id="g86"
     transform="translate(0,8.3165426)">
    <rect
       id="rect84"
       fill="currentColor"
       ry="0.084100001"
       height="0.1681"
       width="1.4347"
       y="-0.084100001"
       x="188.4818" />
  </g>
  <g
     id="g90"
     transform="translate(0,7.5797426)">
    <rect
       id="rect88"
       fill="currentColor"
       ry="0.084100001"
       height="0.1681"
       width="1.4347"
       y="-0.084100001"
       x="186.3253" />
  </g>
  <g
     id="g94"
     transform="translate(0,7.5797426)">
    <rect
       id="rect92"
       fill="currentColor"
       ry="0.084100001"
       height="0.1681"
       width="1.4347"
       y="-0.084100001"
       x="162.7529" />
  </g>
  <g
     id="g98"
     transform="translate(0,8.3165426)">
    <rect
       id="rect96"
       fill="currentColor"
       ry="0.084100001"
       height="0.1681"
       width="1.4347"
       y="-0.084100001"
       x="162.7529" />
  </g>
  <g
     id="g102"
     transform="translate(0,7.5797426)">
    <rect
       id="rect100"
       fill="currentColor"
       ry="0.084100001"
       height="0.1681"
       width="1.4347"
       y="-0.084100001"
       x="160.59641" />
  </g>
  <g
     id="g106"
     transform="translate(0,7.5797426)">
    <rect
       id="rect104"
       fill="currentColor"
       ry="0.084100001"
       height="0.1681"
       width="1.4347"
       y="-0.084100001"
       x="158.6899" />
  </g>
  <g
     id="g110"
     transform="translate(0,7.5797426)">
    <rect
       id="rect108"
       fill="currentColor"
       ry="0.084100001"
       height="0.1681"
       width="1.3779"
       y="-0.084100001"
       x="135.8524" />
  </g>
  <g
     id="g114"
     transform="translate(0,7.5797426)">
    <rect
       id="rect112"
       fill="currentColor"
       ry="0.084100001"
       height="0.1681"
       width="1.4347"
       y="-0.084100001"
       x="133.3833" />
  </g>
  <g
     id="g118"
     transform="translate(0,3.1586426)">
    <rect
       id="rect116"
       fill="currentColor"
       ry="0.084100001"
       height="0.1681"
       width="1.4347"
       y="-0.084100001"
       x="97.715401" />
  </g>
  <g
     id="g122"
     transform="translate(0,3.1586426)">
    <rect
       id="rect120"
       fill="currentColor"
       ry="0.084100001"
       height="0.1681"
       width="1.4347"
       y="-0.084100001"
       x="72.354698" />
  </g>
  <g
     id="g126"
     transform="translate(0,3.1586426)">
    <rect
       id="rect124"
       fill="currentColor"
       ry="0.084100001"
       height="0.1681"
       width="1.4347"
       y="-0.084100001"
       x="70.448196" />
  </g>
  <g
     id="g130"
     transform="translate(0,3.1586426)">
    <rect
       id="rect128"
       fill="currentColor"
       ry="0.084100001"
       height="0.1681"
       width="1.4347"
       y="-0.084100001"
       x="42.620499" />
  </g>
  <g
     id="g134"
     transform="translate(157.0225,6.1060426)">
    <path
       id="path132"
       fill="currentColor"
       d="m 208,139 c 61,0 117,-33 117,-99 0,-71 -52,-119 -99,-147 -34,-20 -71,-32 -110,-32 -61,0 -116,33 -116,99 0,71 51,119 98,147 34,20 71,32 110,32 z"
       transform="scale(0.0029,-0.0029)" />
  </g>
  <g
     id="g138"
     transform="translate(157.9176,5.3691426)">
    <rect
       id="rect136"
       fill="currentColor"
       ry="0.042100001"
       height="1.7254"
       width="0.1228"
       y="-1.1078"
       x="-0.0614" />
  </g>
  <g
     id="g142"
     transform="translate(158.929,7.5797426)">
    <path
       id="path140"
       fill="currentColor"
       d="m 208,139 c 61,0 117,-33 117,-99 0,-71 -52,-119 -99,-147 -34,-20 -71,-32 -110,-32 -61,0 -116,33 -116,99 0,71 51,119 98,147 34,20 71,32 110,32 z"
       transform="scale(0.0029,-0.0029)" />
  </g>
  <g
     id="g146"
     transform="translate(159.8241,5.3691426)">
    <rect
       id="rect144"
       fill="currentColor"
       ry="0.042100001"
       height="3.0165"
       width="0.1228"
       y="-0.9253"
       x="-0.0614" />
  </g>
  <g
     id="g150"
     transform="translate(155.5111,5.3691426)">
    <rect
       id="rect148"
       fill="currentColor"
       ry="0.042100001"
       height="2.6926"
       width="0.1228"
       y="-1.3382"
       x="-0.0614" />
  </g>
  <g
     id="g154"
     transform="translate(160.8355,7.9481426)">
    <path
       id="path152"
       fill="currentColor"
       d="m 208,139 c 61,0 117,-33 117,-99 0,-71 -52,-119 -99,-147 -34,-20 -71,-32 -110,-32 -61,0 -116,33 -116,99 0,71 51,119 98,147 34,20 71,32 110,32 z"
       transform="scale(0.0029,-0.0029)" />
  </g>
  <g
     id="g158"
     transform="translate(161.7306,5.3691426)">
    <rect
       id="rect156"
       fill="currentColor"
       ry="0.042100001"
       height="3.2024"
       width="0.1228"
       y="-0.74269998"
       x="-0.0614" />
  </g>
  <g
     id="g162"
     transform="translate(162.992,8.3165426)">
    <path
       id="path160"
       fill="currentColor"
       d="m 208,139 c 61,0 117,-33 117,-99 0,-71 -52,-119 -99,-147 -34,-20 -71,-32 -110,-32 -61,0 -116,33 -116,99 0,71 51,119 98,147 34,20 71,32 110,32 z"
       transform="scale(0.0029,-0.0029)" />
  </g>
  <g
     id="g166"
     transform="translate(163.8871,5.3691426)">
    <rect
       id="rect164"
       fill="currentColor"
       ry="0.042100001"
       height="5.0537"
       width="0.1228"
       y="-2.2255001"
       x="-0.0614" />
  </g>
  <g
     id="g170"
     transform="translate(148.3966,5.0007426)">
    <path
       id="path168"
       fill="currentColor"
       d="m 208,139 c 61,0 117,-33 117,-99 0,-71 -52,-119 -99,-147 -34,-20 -71,-32 -110,-32 -61,0 -116,33 -116,99 0,71 51,119 98,147 34,20 71,32 110,32 z"
       transform="scale(0.0029,-0.0029)" />
  </g>
  <g
     id="g174"
     transform="translate(149.2917,5.3691426)">
    <rect
       id="rect172"
       fill="currentColor"
       ry="0.042100001"
       height="2.4293001"
       width="0.1228"
       y="-2.9168999"
       x="-0.0614" />
  </g>
  <g
     id="g178"
     transform="translate(150.303,6.1060426)">
    <path
       id="path176"
       fill="currentColor"
       d="m 208,139 c 61,0 117,-33 117,-99 0,-71 -52,-119 -99,-147 -34,-20 -71,-32 -110,-32 -61,0 -116,33 -116,99 0,71 51,119 98,147 34,20 71,32 110,32 z"
       transform="scale(0.0029,-0.0029)" />
  </g>
  <g
     id="g182"
     transform="translate(151.1981,5.3691426)">
    <rect
       id="rect180"
       fill="currentColor"
       ry="0.042100001"
       height="3.1480999"
       width="0.1228"
       y="-2.5304999"
       x="-0.0614" />
  </g>
  <g
     id="g186"
     transform="translate(152.4595,6.4744426)">
    <path
       id="path184"
       fill="currentColor"
       d="m 208,139 c 61,0 117,-33 117,-99 0,-71 -52,-119 -99,-147 -34,-20 -71,-32 -110,-32 -61,0 -116,33 -116,99 0,71 51,119 98,147 34,20 71,32 110,32 z"
       transform="scale(0.0029,-0.0029)" />
  </g>
  <g
     id="g190"
     transform="translate(153.3546,5.3691426)">
    <rect
       id="rect188"
       fill="currentColor"
       ry="0.042100001"
       height="3.0794001"
       width="0.1228"
       y="-2.0933001"
       x="-0.0614" />
  </g>
  <g
     id="g194"
     transform="translate(154.616,6.8428426)">
    <path
       id="path192"
       fill="currentColor"
       d="m 208,139 c 61,0 117,-33 117,-99 0,-71 -52,-119 -99,-147 -34,-20 -71,-32 -110,-32 -61,0 -116,33 -116,99 0,71 51,119 98,147 34,20 71,32 110,32 z"
       transform="scale(0.0029,-0.0029)" />
  </g>
  <g
     id="g198"
     transform="translate(201.7804,5.3691426)">
    <path
       id="path196"
       d="m 0.9193,-2.9958 c 0.9281,-0.734 3.0069,-0.5756 3.813,0.2904 v 0 C 3.9175,-3.4584 1.8388,-3.6168 0.9193,-2.9958 Z"
       fill="currentColor"
       stroke="currentColor"
       stroke-linecap="round"
       stroke-linejoin="round"
       stroke-width="0.0755" />
  </g>
  <g
     id="g202"
     transform="translate(174.5686,5.3691426)">
    <rect
       id="rect200"
       fill="currentColor"
       ry="0.042100001"
       height="1.9491"
       width="0.1228"
       y="-2.8051"
       x="-0.0614" />
  </g>
  <g
     id="g206"
     transform="translate(173.6735,4.6323426)">
    <path
       id="path204"
       fill="currentColor"
       d="m 208,139 c 61,0 117,-33 117,-99 0,-71 -52,-119 -99,-147 -34,-20 -71,-32 -110,-32 -61,0 -116,33 -116,99 0,71 51,119 98,147 34,20 71,32 110,32 z"
       transform="scale(0.0029,-0.0029)" />
  </g>
  <g
     id="g210"
     transform="translate(175.58,5.3691426)">
    <path
       id="path208"
       fill="currentColor"
       d="m 208,139 c 61,0 117,-33 117,-99 0,-71 -52,-119 -99,-147 -34,-20 -71,-32 -110,-32 -61,0 -116,33 -116,99 0,71 51,119 98,147 34,20 71,32 110,32 z"
       transform="scale(0.0029,-0.0029)" />
  </g>
  <g
     id="g214"
     transform="translate(176.4751,5.3691426)">
    <rect
       id="rect212"
       fill="currentColor"
       ry="0.042100001"
       height="2.2944"
       width="0.1228"
       y="-2.4136"
       x="-0.0614" />
  </g>
  <g
     id="g218"
     transform="translate(177.4865,6.4744426)">
    <path
       id="path216"
       fill="currentColor"
       d="m 208,139 c 61,0 117,-33 117,-99 0,-71 -52,-119 -99,-147 -34,-20 -71,-32 -110,-32 -61,0 -116,33 -116,99 0,71 51,119 98,147 34,20 71,32 110,32 z"
       transform="scale(0.0029,-0.0029)" />
  </g>
  <g
     id="g222"
     transform="translate(178.3816,5.3691426)">
    <rect
       id="rect220"
       fill="currentColor"
       ry="0.042100001"
       height="3.0081"
       width="0.1228"
       y="-2.0220001"
       x="-0.0614" />
  </g>
  <g
     id="g226"
     transform="translate(202.6141,3.2882426)">
    <polygon
       id="polygon224"
       points="0.0421,0.1347 0.0421,-0.1347 6.3001,-0.2644 6.3001,0.0051 "
       stroke="currentColor"
       fill="currentColor"
       stroke-width="0.0842"
       stroke-linecap="round"
       stroke-linejoin="round" />
  </g>
  <g
     id="g230"
     transform="translate(202.6141,3.8955426)">
    <polygon
       id="polygon228"
       points="0.0421,0.1347 0.0421,-0.1347 6.3001,-0.2644 6.3001,0.0051 "
       stroke="currentColor"
       fill="currentColor"
       stroke-width="0.0842"
       stroke-linecap="round"
       stroke-linejoin="round" />
  </g>
  <g
     id="g234"
     transform="translate(165.3985,6.4744426)">
    <path
       id="path232"
       fill="currentColor"
       d="m 208,139 c 61,0 117,-33 117,-99 0,-71 -52,-119 -99,-147 -34,-20 -71,-32 -110,-32 -61,0 -116,33 -116,99 0,71 51,119 98,147 34,20 71,32 110,32 z"
       transform="scale(0.0029,-0.0029)" />
  </g>
  <g
     id="g238"
     transform="translate(166.2936,5.3691426)">
    <rect
       id="rect236"
       fill="currentColor"
       ry="0.042100001"
       height="3.7992001"
       width="0.1228"
       y="-2.8131001"
       x="-0.0614" />
  </g>
  <g
     id="g242"
     transform="translate(167.8049,5.0007426)">
    <path
       id="path240"
       fill="currentColor"
       d="m 208,139 c 61,0 117,-33 117,-99 0,-71 -52,-119 -99,-147 -34,-20 -71,-32 -110,-32 -61,0 -116,33 -116,99 0,71 51,119 98,147 34,20 71,32 110,32 z"
       transform="scale(0.0029,-0.0029)" />
  </g>
  <g
     id="g246"
     transform="translate(168.7001,5.3691426)">
    <rect
       id="rect244"
       fill="currentColor"
       ry="0.042100001"
       height="2.9131"
       width="0.1228"
       y="-3.4007001"
       x="-0.0614" />
  </g>
  <g
     id="g250"
     transform="translate(170.4134,4.2639426)">
    <path
       id="path248"
       fill="currentColor"
       d="m 208,139 c 61,0 117,-33 117,-99 0,-71 -52,-119 -99,-147 -34,-20 -71,-32 -110,-32 -61,0 -116,33 -116,99 0,71 51,119 98,147 34,20 71,32 110,32 z"
       transform="scale(0.0029,-0.0029)" />
  </g>
  <g
     id="g254"
     transform="translate(171.3085,5.3691426)">
    <rect
       id="rect252"
       fill="currentColor"
       ry="0.042100001"
       height="2.8132"
       width="0.1228"
       y="-4.0376"
       x="-0.0614" />
  </g>
  <g
     id="g258"
     transform="translate(169.4739,4.2639426)">
    <path
       id="path256"
       fill="currentColor"
       d="m 33,35 -2,-60 v -11 c 0,-21 2,-43 5,-64 42,38 87,81 87,138 0,32 -13,63 -41,63 C 51,101 34,69 33,35 Z M 32,446 23,109 c 25,26 59,40 95,40 50,0 82,-51 82,-105 0,-77 -80,-117 -137,-169 -18,-17 -26,-48 -52,-48 -16,0 -28,15 -28,32 l -15,587 c 10,6 21,8 32,8 11,0 22,-2 32,-8 z"
       transform="scale(0.0029,-0.0029)" />
  </g>
  <g
     id="g262"
     transform="translate(124.9964,6.1060426)">
    <path
       id="path260"
       fill="currentColor"
       d="m 208,139 c 61,0 117,-33 117,-99 0,-71 -52,-119 -99,-147 -34,-20 -71,-32 -110,-32 -61,0 -116,33 -116,99 0,71 51,119 98,147 34,20 71,32 110,32 z"
       transform="scale(0.0029,-0.0029)" />
  </g>
  <g
     id="g266"
     transform="translate(125.8915,5.3691426)">
    <rect
       id="rect264"
       fill="currentColor"
       ry="0.042100001"
       height="2.711"
       width="0.1228"
       y="-2.0933001"
       x="-0.0614" />
  </g>
  <g
     id="g270"
     transform="translate(127.1529,6.4744426)">
    <path
       id="path268"
       fill="currentColor"
       d="m 208,139 c 61,0 117,-33 117,-99 0,-71 -52,-119 -99,-147 -34,-20 -71,-32 -110,-32 -61,0 -116,33 -116,99 0,71 51,119 98,147 34,20 71,32 110,32 z"
       transform="scale(0.0029,-0.0029)" />
  </g>
  <g
     id="g274"
     transform="translate(128.048,5.3691426)">
    <rect
       id="rect272"
       fill="currentColor"
       ry="0.042100001"
       height="3.0613"
       width="0.1228"
       y="-2.0752001"
       x="-0.0614" />
  </g>
  <g
     id="g278"
     transform="translate(129.5594,5.7376426)">
    <path
       id="path276"
       fill="currentColor"
       d="m 208,139 c 61,0 117,-33 117,-99 0,-71 -52,-119 -99,-147 -34,-20 -71,-32 -110,-32 -61,0 -116,33 -116,99 0,71 51,119 98,147 34,20 71,32 110,32 z"
       transform="scale(0.0029,-0.0029)" />
  </g>
  <g
     id="g282"
     transform="translate(130.4545,5.3691426)">
    <rect
       id="rect280"
       fill="currentColor"
       ry="0.042100001"
       height="2.1027999"
       width="0.1228"
       y="-1.8536"
       x="-0.0614" />
  </g>
  <g
     id="g286"
     transform="translate(131.4659,7.2113426)">
    <path
       id="path284"
       fill="currentColor"
       d="m 208,139 c 61,0 117,-33 117,-99 0,-71 -52,-119 -99,-147 -34,-20 -71,-32 -110,-32 -61,0 -116,33 -116,99 0,71 51,119 98,147 34,20 71,32 110,32 z"
       transform="scale(0.0029,-0.0029)" />
  </g>
  <g
     id="g290"
     transform="translate(132.361,5.3691426)">
    <rect
       id="rect288"
       fill="currentColor"
       ry="0.042100001"
       height="3.4008999"
       width="0.1228"
       y="-1.678"
       x="-0.0614" />
  </g>
  <g
     id="g294"
     transform="translate(219.6766,4.0251426)">
    <polygon
       id="polygon292"
       points="0.0421,0.1347 0.0421,-0.1347 6.8001,-0.1347 6.8001,0.1347 "
       stroke="currentColor"
       fill="currentColor"
       stroke-width="0.0842"
       stroke-linecap="round"
       stroke-linejoin="round" />
  </g>
  <g
     id="g298"
     transform="translate(219.6766,4.6323426)">
    <polygon
       id="polygon296"
       points="0.0421,0.1347 0.0421,-0.1347 6.8001,-0.1347 6.8001,0.1347 "
       stroke="currentColor"
       fill="currentColor"
       stroke-width="0.0842"
       stroke-linecap="round"
       stroke-linejoin="round" />
  </g>
  <g
     id="g302"
     transform="translate(119.922,5.3691426)">
    <rect
       id="rect300"
       fill="currentColor"
       ry="0.042100001"
       height="1.7104"
       width="0.1228"
       y="-3.3032999"
       x="-0.0614" />
  </g>
  <g
     id="g306"
     transform="translate(120.9334,4.6323426)">
    <path
       id="path304"
       fill="currentColor"
       d="m 208,139 c 61,0 117,-33 117,-99 0,-71 -52,-119 -99,-147 -34,-20 -71,-32 -110,-32 -61,0 -116,33 -116,99 0,71 51,119 98,147 34,20 71,32 110,32 z"
       transform="scale(0.0029,-0.0029)" />
  </g>
  <g
     id="g310"
     transform="translate(121.8285,5.3691426)">
    <rect
       id="rect308"
       fill="currentColor"
       ry="0.042100001"
       height="2.0608001"
       width="0.1228"
       y="-2.9168999"
       x="-0.0614" />
  </g>
  <g
     id="g314"
     transform="translate(122.8399,5.7376426)">
    <path
       id="path312"
       fill="currentColor"
       d="m 208,139 c 61,0 117,-33 117,-99 0,-71 -52,-119 -99,-147 -34,-20 -71,-32 -110,-32 -61,0 -116,33 -116,99 0,71 51,119 98,147 34,20 71,32 110,32 z"
       transform="scale(0.0029,-0.0029)" />
  </g>
  <g
     id="g318"
     transform="translate(123.735,5.3691426)">
    <rect
       id="rect316"
       fill="currentColor"
       ry="0.042100001"
       height="2.7797"
       width="0.1228"
       y="-2.5304999"
       x="-0.0614" />
  </g>
  <g
     id="g322"
     transform="translate(146.4901,4.2639426)">
    <path
       id="path320"
       fill="currentColor"
       d="m 208,139 c 61,0 117,-33 117,-99 0,-71 -52,-119 -99,-147 -34,-20 -71,-32 -110,-32 -61,0 -116,33 -116,99 0,71 51,119 98,147 34,20 71,32 110,32 z"
       transform="scale(0.0029,-0.0029)" />
  </g>
  <g
     id="g326"
     transform="translate(141.7428,5.3691426)">
    <rect
       id="rect324"
       fill="currentColor"
       ry="0.042100001"
       height="1.8405"
       width="0.1228"
       y="-2.6966"
       x="-0.0614" />
  </g>
  <g
     id="g330"
     transform="translate(143.2542,3.8955426)">
    <path
       id="path328"
       fill="currentColor"
       d="m 208,139 c 61,0 117,-33 117,-99 0,-71 -52,-119 -99,-147 -34,-20 -71,-32 -110,-32 -61,0 -116,33 -116,99 0,71 51,119 98,147 34,20 71,32 110,32 z"
       transform="scale(0.0029,-0.0029)" />
  </g>
  <g
     id="g334"
     transform="translate(144.1493,5.3691426)">
    <rect
       id="rect332"
       fill="currentColor"
       ry="0.042100001"
       height="1.7075"
       width="0.1228"
       y="-3.3004"
       x="-0.0614" />
  </g>
  <g
     id="g338"
     transform="translate(140.8477,4.6323426)">
    <path
       id="path336"
       fill="currentColor"
       d="m 208,139 c 61,0 117,-33 117,-99 0,-71 -52,-119 -99,-147 -34,-20 -71,-32 -110,-32 -61,0 -116,33 -116,99 0,71 51,119 98,147 34,20 71,32 110,32 z"
       transform="scale(0.0029,-0.0029)" />
  </g>
  <g
     id="g342"
     transform="translate(147.3852,5.3691426)">
    <rect
       id="rect340"
       fill="currentColor"
       ry="0.042100001"
       height="2.0789001"
       width="0.1228"
       y="-3.3032999"
       x="-0.0614" />
  </g>
  <g
     id="g346"
     transform="translate(210.7401,4.0251426)">
    <polygon
       id="polygon344"
       points="0.0421,0.1347 0.0421,-0.1347 7.1107,0.4725 7.1107,0.742 "
       stroke="currentColor"
       fill="currentColor"
       stroke-width="0.0842"
       stroke-linecap="round"
       stroke-linejoin="round" />
  </g>
  <g
     id="g350"
     transform="translate(210.7401,4.6323426)">
    <polygon
       id="polygon348"
       points="0.0421,0.1347 0.0421,-0.1347 7.1107,0.4725 7.1107,0.742 "
       stroke="currentColor"
       fill="currentColor"
       stroke-width="0.0842"
       stroke-linecap="round"
       stroke-linejoin="round" />
  </g>
  <g
     id="g354"
     transform="translate(133.6224,7.5797426)">
    <path
       id="path352"
       fill="currentColor"
       d="m 208,139 c 61,0 117,-33 117,-99 0,-71 -52,-119 -99,-147 -34,-20 -71,-32 -110,-32 -61,0 -116,33 -116,99 0,71 51,119 98,147 34,20 71,32 110,32 z"
       transform="scale(0.0029,-0.0029)" />
  </g>
  <g
     id="g358"
     transform="translate(134.5175,5.3691426)">
    <rect
       id="rect356"
       fill="currentColor"
       ry="0.042100001"
       height="3.5706"
       width="0.1228"
       y="-1.4793"
       x="-0.0614" />
  </g>
  <g
     id="g362"
     transform="translate(136.0347,7.9481426)">
    <path
       id="path360"
       fill="currentColor"
       d="m 208,139 c 61,0 117,-33 117,-99 0,-71 -52,-119 -99,-147 -34,-20 -71,-32 -110,-32 -61,0 -116,33 -116,99 0,71 51,119 98,147 34,20 71,32 110,32 z"
       transform="scale(0.0029,-0.0029)" />
  </g>
  <g
     id="g366"
     transform="translate(136.9298,5.3691426)">
    <rect
       id="rect364"
       fill="currentColor"
       ry="0.042100001"
       height="3.9488001"
       width="0.1228"
       y="-1.4891"
       x="-0.0614" />
  </g>
  <g
     id="g370"
     transform="translate(135.1788,7.9481426)">
    <path
       id="path368"
       fill="currentColor"
       d="m -8,375 c 8,5 18,7 27,7 9,0 20,-2 28,-7 l -3,-196 99,24 h 4 c 11,0 20,-8 20,-19 l 8,-559 c -8,-5 -19,-7 -28,-7 -9,0 -19,2 -27,7 l 3,196 -99,-24 h -5 c -11,0 -19,8 -19,19 z M 127,109 42,89 l -2,-198 84,20 z"
       transform="scale(0.0029,-0.0029)" />
  </g>
  <g
     id="g374"
     transform="translate(138.4412,6.1060426)">
    <path
       id="path372"
       fill="currentColor"
       d="m 208,139 c 61,0 117,-33 117,-99 0,-71 -52,-119 -99,-147 -34,-20 -71,-32 -110,-32 -61,0 -116,33 -116,99 0,71 51,119 98,147 34,20 71,32 110,32 z"
       transform="scale(0.0029,-0.0029)" />
  </g>
  <g
     id="g378"
     transform="translate(139.3363,5.3691426)">
    <rect
       id="rect376"
       fill="currentColor"
       ry="0.042100001"
       height="2.7105"
       width="0.1228"
       y="-2.0929"
       x="-0.0614" />
  </g>
  <g
     id="g382"
     transform="translate(218.8428,8.3165426)">
    <path
       id="path380"
       fill="currentColor"
       d="m 208,139 c 61,0 117,-33 117,-99 0,-71 -52,-119 -99,-147 -34,-20 -71,-32 -110,-32 -61,0 -116,33 -116,99 0,71 51,119 98,147 34,20 71,32 110,32 z"
       transform="scale(0.0029,-0.0029)" />
  </g>
  <g
     id="g386"
     transform="translate(219.7379,5.3691426)">
    <rect
       id="rect384"
       fill="currentColor"
       ry="0.042100001"
       height="4.1722002"
       width="0.1228"
       y="-1.3441"
       x="-0.0614" />
  </g>
  <g
     id="g390"
     transform="translate(221.2493,6.1060426)">
    <path
       id="path388"
       fill="currentColor"
       d="m 208,139 c 61,0 117,-33 117,-99 0,-71 -52,-119 -99,-147 -34,-20 -71,-32 -110,-32 -61,0 -116,33 -116,99 0,71 51,119 98,147 34,20 71,32 110,32 z"
       transform="scale(0.0029,-0.0029)" />
  </g>
  <g
     id="g394"
     transform="translate(222.1444,5.3691426)">
    <rect
       id="rect392"
       fill="currentColor"
       ry="0.042100001"
       height="1.9617"
       width="0.1228"
       y="-1.3441"
       x="-0.0614" />
  </g>
  <g
     id="g398"
     transform="translate(217.8315,5.3691426)">
    <rect
       id="rect396"
       fill="currentColor"
       ry="0.042100001"
       height="2.0964999"
       width="0.1228"
       y="-0.7421"
       x="-0.0614" />
  </g>
  <g
     id="g402"
     transform="translate(223.4058,6.4744426)">
    <path
       id="path400"
       fill="currentColor"
       d="m 208,139 c 61,0 117,-33 117,-99 0,-71 -52,-119 -99,-147 -34,-20 -71,-32 -110,-32 -61,0 -116,33 -116,99 0,71 51,119 98,147 34,20 71,32 110,32 z"
       transform="scale(0.0029,-0.0029)" />
  </g>
  <g
     id="g406"
     transform="translate(224.3009,5.3691426)">
    <rect
       id="rect404"
       fill="currentColor"
       ry="0.042100001"
       height="2.3301001"
       width="0.1228"
       y="-1.3441"
       x="-0.0614" />
  </g>
  <g
     id="g410"
     transform="translate(225.5623,6.8428426)">
    <path
       id="path408"
       fill="currentColor"
       d="m 208,139 c 61,0 117,-33 117,-99 0,-71 -52,-119 -99,-147 -34,-20 -71,-32 -110,-32 -61,0 -116,33 -116,99 0,71 51,119 98,147 34,20 71,32 110,32 z"
       transform="scale(0.0029,-0.0029)" />
  </g>
  <g
     id="g414"
     transform="translate(226.4574,5.3691426)">
    <rect
       id="rect412"
       fill="currentColor"
       ry="0.042100001"
       height="2.6984999"
       width="0.1228"
       y="-1.3441"
       x="-0.0614" />
  </g>
  <g
     id="g418"
     transform="translate(209.9064,6.1060426)">
    <path
       id="path416"
       fill="currentColor"
       d="m 208,139 c 61,0 117,-33 117,-99 0,-71 -52,-119 -99,-147 -34,-20 -71,-32 -110,-32 -61,0 -116,33 -116,99 0,71 51,119 98,147 34,20 71,32 110,32 z"
       transform="scale(0.0029,-0.0029)" />
  </g>
  <g
     id="g422"
     transform="translate(210.8015,5.3691426)">
    <rect
       id="rect420"
       fill="currentColor"
       ry="0.042100001"
       height="1.9565001"
       width="0.1228"
       y="-1.3388"
       x="-0.0614" />
  </g>
  <g
     id="g426"
     transform="translate(211.8128,6.8428426)">
    <path
       id="path424"
       fill="currentColor"
       d="m 208,139 c 61,0 117,-33 117,-99 0,-71 -52,-119 -99,-147 -34,-20 -71,-32 -110,-32 -61,0 -116,33 -116,99 0,71 51,119 98,147 34,20 71,32 110,32 z"
       transform="scale(0.0029,-0.0029)" />
  </g>
  <g
     id="g430"
     transform="translate(212.708,5.3691426)">
    <rect
       id="rect428"
       fill="currentColor"
       ry="0.042100001"
       height="2.5315001"
       width="0.1228"
       y="-1.177"
       x="-0.0614" />
  </g>
  <g
     id="g434"
     transform="translate(214.5299,7.5797426)">
    <path
       id="path432"
       fill="currentColor"
       d="m 208,139 c 61,0 117,-33 117,-99 0,-71 -52,-119 -99,-147 -34,-20 -71,-32 -110,-32 -61,0 -116,33 -116,99 0,71 51,119 98,147 34,20 71,32 110,32 z"
       transform="scale(0.0029,-0.0029)" />
  </g>
  <g
     id="g438"
     transform="translate(215.425,5.3691426)">
    <rect
       id="rect436"
       fill="currentColor"
       ry="0.042100001"
       height="3.0376"
       width="0.1228"
       y="-0.94630003"
       x="-0.0614" />
  </g>
  <g
     id="g442"
     transform="translate(213.3693,7.5797426)">
    <path
       id="path440"
       fill="currentColor"
       d="m 0,114 c 0,12 7,22 18,26 l 37,15 v 151 c 0,12 10,22 22,22 12,0 22,-10 22,-22 V 172 l 77,29 v 152 c 0,12 10,22 22,22 12,0 22,-10 22,-22 V 219 l 16,6 c 3,1 8,2 11,2 15,0 28,-12 28,-28 v -50 c 0,-12 -7,-23 -18,-27 L 220,108 V -44 l 16,7 c 3,1 8,2 11,2 15,0 28,-13 28,-29 v -50 c 0,-12 -7,-22 -18,-26 l -37,-15 v -151 c 0,-12 -10,-22 -22,-22 -12,0 -22,10 -22,22 v 134 l -77,-29 v -152 c 0,-12 -10,-22 -22,-22 -12,0 -22,10 -22,22 v 134 l -16,-6 c -3,-1 -8,-2 -11,-2 -15,0 -28,12 -28,28 v 50 c 0,12 7,23 18,27 l 37,14 V 44 L 39,37 C 36,36 31,35 28,35 13,35 0,48 0,64 Z M 176,91 99,61 V -91 l 77,30 z"
       transform="scale(0.0029,-0.0029)" />
  </g>
  <g
     id="g446"
     transform="translate(216.9364,6.8428426)">
    <path
       id="path444"
       fill="currentColor"
       d="m 208,139 c 61,0 117,-33 117,-99 0,-71 -52,-119 -99,-147 -34,-20 -71,-32 -110,-32 -61,0 -116,33 -116,99 0,71 51,119 98,147 34,20 71,32 110,32 z"
       transform="scale(0.0029,-0.0029)" />
  </g>
  <g
     id="g450"
     transform="translate(109.6311,2.7902426)">
    <polygon
       id="polygon448"
       points="0.0421,0.1347 0.0421,-0.1347 7.0501,-0.8716 7.0501,-0.6021 "
       stroke="currentColor"
       fill="currentColor"
       stroke-width="0.0842"
       stroke-linecap="round"
       stroke-linejoin="round" />
  </g>
  <g
     id="g454"
     transform="translate(109.6311,3.3974426)">
    <polygon
       id="polygon452"
       points="0.0421,0.1347 0.0421,-0.1347 7.0501,-0.8716 7.0501,-0.6021 "
       stroke="currentColor"
       fill="currentColor"
       stroke-width="0.0842"
       stroke-linecap="round"
       stroke-linejoin="round" />
  </g>
  <g
     id="g458"
     transform="translate(55.5485,5.3691426)">
    <path
       id="path456"
       d="m 0.8951,-3.363 c 0.9451,-0.8586 3.3678,-0.8586 4.313,0 v 0 c -0.9452,-0.7453 -3.3679,-0.7453 -4.313,0 z"
       fill="currentColor"
       stroke="currentColor"
       stroke-linecap="round"
       stroke-linejoin="round"
       stroke-width="0.0755" />
  </g>
  <g
     id="g462"
     transform="translate(63.991,2.7902426)">
    <polygon
       id="polygon460"
       points="0.0421,0.1347 0.0421,-0.1347 7.6107,-1.9768 7.6107,-1.7074 "
       stroke="currentColor"
       fill="currentColor"
       stroke-width="0.0842"
       stroke-linecap="round"
       stroke-linejoin="round" />
  </g>
  <g
     id="g466"
     transform="translate(63.991,3.3974426)">
    <polygon
       id="polygon464"
       points="0.0421,0.1347 0.0421,-0.1347 7.6107,-1.9768 7.6107,-1.7074 "
       stroke="currentColor"
       fill="currentColor"
       stroke-width="0.0842"
       stroke-linecap="round"
       stroke-linejoin="round" />
  </g>
  <g
     id="g470"
     transform="translate(63.1573,5.3691426)">
    <path
       id="path468"
       d="m 0.8205,-3.139 c 1.0556,-1.3927 5.9563,-2.5724 7.53,-1.8125 v 0 c -1.5472,-0.6497 -6.4479,0.5299 -7.53,1.8125 z"
       fill="currentColor"
       stroke="currentColor"
       stroke-linecap="round"
       stroke-linejoin="round"
       stroke-width="0.0755" />
  </g>
  <g
     id="g474"
     transform="translate(73.4275,1.3165426)">
    <polygon
       id="polygon472"
       points="0.0421,0.1347 0.0421,-0.1347 6.3001,0.6021 6.3001,0.8716 "
       stroke="currentColor"
       fill="currentColor"
       stroke-width="0.0842"
       stroke-linecap="round"
       stroke-linejoin="round" />
  </g>
  <g
     id="g478"
     transform="translate(73.4275,1.9237426)">
    <polygon
       id="polygon476"
       points="0.0421,0.1347 0.0421,-0.1347 6.3001,0.6021 6.3001,0.8716 "
       stroke="currentColor"
       fill="currentColor"
       stroke-width="0.0842"
       stroke-linecap="round"
       stroke-linejoin="round" />
  </g>
  <g
     id="g482"
     transform="translate(74.5003,5.3691426)">
    <path
       id="path480"
       d="m 0.9319,-4.3693 c 1.0425,-0.7463 3.4693,-0.4644 4.313,0.5011 v 0 C 4.3881,-4.7211 1.9614,-5.0031 0.9319,-4.3693 Z"
       fill="currentColor"
       stroke="currentColor"
       stroke-linecap="round"
       stroke-linejoin="round"
       stroke-width="0.0755" />
  </g>
  <g
     id="g486"
     transform="translate(81.5534,2.5514426)">
    <polygon
       id="polygon484"
       points="0.0421,0.1347 0.0421,-0.1347 6.8001,-0.1347 6.8001,0.1347 "
       stroke="currentColor"
       fill="currentColor"
       stroke-width="0.0842"
       stroke-linecap="round"
       stroke-linejoin="round" />
  </g>
  <g
     id="g490"
     transform="translate(81.5534,3.1586426)">
    <polygon
       id="polygon488"
       points="0.0421,0.1347 0.0421,-0.1347 6.8001,-0.1347 6.8001,0.1347 "
       stroke="currentColor"
       fill="currentColor"
       stroke-width="0.0842"
       stroke-linecap="round"
       stroke-linejoin="round" />
  </g>
  <g
     id="g494"
     transform="translate(83.1262,5.3691426)">
    <path
       id="path492"
       d="m 0.8951,-3.363 c 0.9451,-0.8586 3.3678,-0.8586 4.313,0 v 0 c -0.9452,-0.7453 -3.3679,-0.7453 -4.313,0 z"
       fill="currentColor"
       stroke="currentColor"
       stroke-linecap="round"
       stroke-linejoin="round"
       stroke-width="0.0755" />
  </g>
  <g
     id="g498"
     transform="translate(91.5687,2.5514426)">
    <polygon
       id="polygon496"
       points="0.0421,0.1347 0.0421,-0.1347 7.3001,-1.8677 7.3001,-1.5982 "
       stroke="currentColor"
       fill="currentColor"
       stroke-width="0.0842"
       stroke-linecap="round"
       stroke-linejoin="round" />
  </g>
  <g
     id="g502"
     transform="translate(91.5687,3.1586426)">
    <polygon
       id="polygon500"
       points="0.0421,0.1347 0.0421,-0.1347 7.3001,-1.8677 7.3001,-1.5982 "
       stroke="currentColor"
       fill="currentColor"
       stroke-width="0.0842"
       stroke-linecap="round"
       stroke-linejoin="round" />
  </g>
  <g
     id="g506"
     transform="translate(90.735,5.3691426)">
    <path
       id="path504"
       d="m 0.8219,-3.3775 c 1.0347,-1.3651 5.6835,-2.4624 7.2194,-1.704 v 0 c -1.5099,-0.6481 -6.1587,0.4492 -7.2194,1.704 z"
       fill="currentColor"
       stroke="currentColor"
       stroke-linecap="round"
       stroke-linejoin="round"
       stroke-width="0.0755" />
  </g>
  <g
     id="g510"
     transform="translate(100.6946,2.2922426)">
    <polygon
       id="polygon508"
       points="0.0421,0.1347 0.0421,-0.1347 7.1107,0.1245 7.1107,0.394 "
       stroke="currentColor"
       fill="currentColor"
       stroke-width="0.0842"
       stroke-linecap="round"
       stroke-linejoin="round" />
  </g>
  <g
     id="g514"
     transform="translate(100.6946,2.8994426)">
    <polygon
       id="polygon512"
       points="0.0421,0.1347 0.0421,-0.1347 7.1107,0.1245 7.1107,0.394 "
       stroke="currentColor"
       fill="currentColor"
       stroke-width="0.0842"
       stroke-linecap="round"
       stroke-linejoin="round" />
  </g>
  <g
     id="g518"
     transform="translate(102.0174,5.3691426)">
    <path
       id="path516"
       d="m 0.9067,-3.5419 c 1.0581,-0.8772 3.8816,-0.7749 4.8735,0.1767 v 0 C 4.7842,-4.2036 1.9607,-4.3059 0.9067,-3.5419 Z"
       fill="currentColor"
       stroke="currentColor"
       stroke-linecap="round"
       stroke-linejoin="round"
       stroke-width="0.0755" />
  </g>
  <g
     id="g522"
     transform="translate(53.9758,2.5514426)">
    <polygon
       id="polygon520"
       points="0.0421,0.1347 0.0421,-0.1347 6.8001,-0.1347 6.8001,0.1347 "
       stroke="currentColor"
       fill="currentColor"
       stroke-width="0.0842"
       stroke-linecap="round"
       stroke-linejoin="round" />
  </g>
  <g
     id="g526"
     transform="translate(53.9758,3.1586426)">
    <polygon
       id="polygon524"
       points="0.0421,0.1347 0.0421,-0.1347 6.8001,-0.1347 6.8001,0.1347 "
       stroke="currentColor"
       fill="currentColor"
       stroke-width="0.0842"
       stroke-linecap="round"
       stroke-linejoin="round" />
  </g>
  <g
     id="g530"
     transform="translate(119.8607,2.0534426)">
    <polygon
       id="polygon528"
       points="0.0421,0.1347 0.0421,-0.1347 6.0501,1.1002 6.0501,1.3696 "
       stroke="currentColor"
       fill="currentColor"
       stroke-width="0.0842"
       stroke-linecap="round"
       stroke-linejoin="round" />
  </g>
  <g
     id="g534"
     transform="translate(119.8607,2.6606426)">
    <polygon
       id="polygon532"
       points="0.0421,0.1347 0.0421,-0.1347 6.0501,1.1002 6.0501,1.3696 "
       stroke="currentColor"
       fill="currentColor"
       stroke-width="0.0842"
       stroke-linecap="round"
       stroke-linejoin="round" />
  </g>
  <g
     id="g538"
     transform="translate(122.8399,5.3691426)">
    <path
       id="path536"
       d="m 1.0349,-3.0757 c 1.2234,-0.3383 3.3595,0.7423 3.8118,1.9282 v 0 C 4.3432,-2.2323 2.2072,-3.3129 1.0349,-3.0757 Z"
       fill="currentColor"
       stroke="currentColor"
       stroke-linecap="round"
       stroke-linejoin="round"
       stroke-width="0.0755" />
  </g>
  <g
     id="g542"
     transform="translate(127.9866,3.2882426)">
    <polygon
       id="polygon540"
       points="0.0421,0.1347 0.0421,-0.1347 6.5501,0.4725 6.5501,0.742 "
       stroke="currentColor"
       fill="currentColor"
       stroke-width="0.0842"
       stroke-linecap="round"
       stroke-linejoin="round" />
  </g>
  <g
     id="g546"
     transform="translate(127.9866,3.8955426)">
    <polygon
       id="polygon544"
       points="0.0421,0.1347 0.0421,-0.1347 6.5501,0.4725 6.5501,0.742 "
       stroke="currentColor"
       fill="currentColor"
       stroke-width="0.0842"
       stroke-linecap="round"
       stroke-linejoin="round" />
  </g>
  <g
     id="g550"
     transform="translate(131.4659,5.3691426)">
    <path
       id="path548"
       d="m 0.9986,-2.2232 c 1.1832,-0.4981 3.4935,0.3149 4.1039,1.4442 v 0 C 4.4545,-1.8014 2.1442,-2.6144 0.9986,-2.2232 Z"
       fill="currentColor"
       stroke="currentColor"
       stroke-linecap="round"
       stroke-linejoin="round"
       stroke-width="0.0755" />
  </g>
  <g
     id="g554"
     transform="translate(136.8684,3.8955426)">
    <polygon
       id="polygon552"
       points="0.0421,0.1347 0.0421,-0.1347 7.3001,-1.9768 7.3001,-1.7074 "
       stroke="currentColor"
       fill="currentColor"
       stroke-width="0.0842"
       stroke-linecap="round"
       stroke-linejoin="round" />
  </g>
  <g
     id="g558"
     transform="translate(136.8684,4.5027426)">
    <polygon
       id="polygon556"
       points="0.0421,0.1347 0.0421,-0.1347 7.3001,-1.9768 7.3001,-1.7074 "
       stroke="currentColor"
       fill="currentColor"
       stroke-width="0.0842"
       stroke-linecap="round"
       stroke-linejoin="round" />
  </g>
  <g
     id="g562"
     transform="translate(147.3238,2.0534426)">
    <polygon
       id="polygon560"
       points="0.0421,0.1347 0.0421,-0.1347 6.0501,1.1002 6.0501,1.3696 "
       stroke="currentColor"
       fill="currentColor"
       stroke-width="0.0842"
       stroke-linecap="round"
       stroke-linejoin="round" />
  </g>
  <g
     id="g566"
     transform="translate(147.3238,2.6606426)">
    <polygon
       id="polygon564"
       points="0.0421,0.1347 0.0421,-0.1347 6.0501,1.1002 6.0501,1.3696 "
       stroke="currentColor"
       fill="currentColor"
       stroke-width="0.0842"
       stroke-linecap="round"
       stroke-linejoin="round" />
  </g>
  <g
     id="g570"
     transform="translate(150.303,5.3691426)">
    <path
       id="path568"
       d="m 1.0283,-3.0757 c 1.2072,-0.3661 3.3415,0.6499 3.8184,1.8177 v 0 C 4.3211,-2.3234 2.1868,-3.3395 1.0283,-3.0757 Z"
       fill="currentColor"
       stroke="currentColor"
       stroke-linecap="round"
       stroke-linejoin="round"
       stroke-width="0.0755" />
  </g>
  <g
     id="g574"
     transform="translate(155.4497,4.0251426)">
    <polygon
       id="polygon572"
       points="0.0421,0.1347 0.0421,-0.1347 6.3001,0.4725 6.3001,0.742 "
       stroke="currentColor"
       fill="currentColor"
       stroke-width="0.0842"
       stroke-linecap="round"
       stroke-linejoin="round" />
  </g>
  <g
     id="g578"
     transform="translate(155.4497,4.6323426)">
    <polygon
       id="polygon576"
       points="0.0421,0.1347 0.0421,-0.1347 6.3001,0.4725 6.3001,0.742 "
       stroke="currentColor"
       fill="currentColor"
       stroke-width="0.0842"
       stroke-linecap="round"
       stroke-linejoin="round" />
  </g>
  <g
     id="g582"
     transform="translate(158.929,5.3691426)">
    <path
       id="path580"
       d="m 1.0411,-1.7007 c 1.1868,-0.4672 3.1511,0.5865 3.5556,1.9073 v 0 C 4.1387,-1.0143 2.1743,-2.068 1.0411,-1.7007 Z"
       fill="currentColor"
       stroke="currentColor"
       stroke-linecap="round"
       stroke-linejoin="round"
       stroke-width="0.0755" />
  </g>
  <g
     id="g586"
     transform="translate(163.8257,3.1586426)">
    <polygon
       id="polygon584"
       points="0.0421,0.1347 0.0421,-0.1347 7.5021,-1.9768 7.5021,-1.7074 "
       stroke="currentColor"
       fill="currentColor"
       stroke-width="0.0842"
       stroke-linecap="round"
       stroke-linejoin="round" />
  </g>
  <g
     id="g590"
     transform="translate(163.8257,3.7658426)">
    <polygon
       id="polygon588"
       points="0.0421,0.1347 0.0421,-0.1347 7.5021,-1.9768 7.5021,-1.7074 "
       stroke="currentColor"
       fill="currentColor"
       stroke-width="0.0842"
       stroke-linecap="round"
       stroke-linejoin="round" />
  </g>
  <g
     id="g594"
     transform="translate(174.5072,2.5514426)">
    <polygon
       id="polygon592"
       points="0.0421,0.1347 0.0421,-0.1347 6.5021,1.2093 6.5021,1.4788 "
       stroke="currentColor"
       fill="currentColor"
       stroke-width="0.0842"
       stroke-linecap="round"
       stroke-linejoin="round" />
  </g>
  <g
     id="g598"
     transform="translate(174.5072,3.1586426)">
    <polygon
       id="polygon596"
       points="0.0421,0.1347 0.0421,-0.1347 6.5021,1.2093 6.5021,1.4788 "
       stroke="currentColor"
       fill="currentColor"
       stroke-width="0.0842"
       stroke-linecap="round"
       stroke-linejoin="round" />
  </g>
  <g
     id="g602"
     transform="translate(183.0851,4.6323426)">
    <polygon
       id="polygon600"
       points="0.0421,0.1347 0.0421,-0.1347 6.5501,-0.0051 6.5501,0.2644 "
       stroke="currentColor"
       fill="currentColor"
       stroke-width="0.0842"
       stroke-linecap="round"
       stroke-linejoin="round" />
  </g>
  <g
     id="g606"
     transform="translate(183.0851,5.2395426)">
    <polygon
       id="polygon604"
       points="0.0421,0.1347 0.0421,-0.1347 6.5501,-0.0051 6.5501,0.2644 "
       stroke="currentColor"
       fill="currentColor"
       stroke-width="0.0842"
       stroke-linecap="round"
       stroke-linejoin="round" />
  </g>
  <g
     id="g610"
     transform="translate(186.5644,5.3691426)">
    <path
       id="path608"
       d="m 0.9573,-1.1205 c 1.037,-0.4164 3.1769,0.0157 3.8894,0.7855 v 0 C 4.1118,-0.9937 1.9718,-1.4258 0.9573,-1.1205 Z"
       fill="currentColor"
       stroke="currentColor"
       stroke-linecap="round"
       stroke-linejoin="round"
       stroke-width="0.0755" />
  </g>
  <g
     id="g614"
     transform="translate(8.3357,3.1586426)">
    <polygon
       id="polygon612"
       points="0.0421,0.1347 0.0421,-0.1347 7.6107,-1.9768 7.6107,-1.7074 "
       stroke="currentColor"
       fill="currentColor"
       stroke-width="0.0842"
       stroke-linecap="round"
       stroke-linejoin="round" />
  </g>
  <g
     id="g618"
     transform="translate(8.3357,3.7658426)">
    <polygon
       id="polygon616"
       points="0.0421,0.1347 0.0421,-0.1347 7.6107,-1.9768 7.6107,-1.7074 "
       stroke="currentColor"
       fill="currentColor"
       stroke-width="0.0842"
       stroke-linecap="round"
       stroke-linejoin="round" />
  </g>
  <g
     id="g622"
     transform="translate(7.5019,5.3691426)">
    <path
       id="path620"
       d="m 0.8205,-2.7706 c 1.0556,-1.3927 5.9563,-2.5724 7.53,-1.8125 v 0 c -1.5472,-0.6497 -6.4479,0.53 -7.53,1.8125 z"
       fill="currentColor"
       stroke="currentColor"
       stroke-linecap="round"
       stroke-linejoin="round"
       stroke-width="0.0755" />
  </g>
  <g
     id="g626"
     transform="translate(18.0221,2.0534426)">
    <polygon
       id="polygon624"
       points="0.0421,0.1347 0.0421,-0.1347 6.3001,0.3633 6.3001,0.6328 "
       stroke="currentColor"
       fill="currentColor"
       stroke-width="0.0842"
       stroke-linecap="round"
       stroke-linejoin="round" />
  </g>
  <g
     id="g630"
     transform="translate(18.0221,2.6606426)">
    <polygon
       id="polygon628"
       points="0.0421,0.1347 0.0421,-0.1347 6.3001,0.3633 6.3001,0.6328 "
       stroke="currentColor"
       fill="currentColor"
       stroke-width="0.0842"
       stroke-linecap="round"
       stroke-linejoin="round" />
  </g>
  <g
     id="g634"
     transform="translate(19.0949,5.3691426)">
    <path
       id="path632"
       d="m 0.9201,-3.7065 c 1.0115,-0.7832 3.4361,-0.5928 4.3129,0.3387 v 0 C 4.3473,-4.1864 1.9227,-4.3768 0.9201,-3.7065 Z"
       fill="currentColor"
       stroke="currentColor"
       stroke-linecap="round"
       stroke-linejoin="round"
       stroke-width="0.0755" />
  </g>
  <g
     id="g638"
     transform="translate(26.1481,2.5514426)">
    <polygon
       id="polygon636"
       points="0.0421,0.1347 0.0421,-0.1347 6.8001,-0.1347 6.8001,0.1347 "
       stroke="currentColor"
       fill="currentColor"
       stroke-width="0.0842"
       stroke-linecap="round"
       stroke-linejoin="round" />
  </g>
  <g
     id="g642"
     transform="translate(26.1481,3.1586426)">
    <polygon
       id="polygon640"
       points="0.0421,0.1347 0.0421,-0.1347 6.8001,-0.1347 6.8001,0.1347 "
       stroke="currentColor"
       fill="currentColor"
       stroke-width="0.0842"
       stroke-linecap="round"
       stroke-linejoin="round" />
  </g>
  <g
     id="g646"
     transform="translate(27.7209,5.3691426)">
    <path
       id="path644"
       d="m 0.8951,-3.363 c 0.9451,-0.8586 3.3678,-0.8586 4.313,0 v 0 c -0.9452,-0.7453 -3.3679,-0.7453 -4.313,0 z"
       fill="currentColor"
       stroke="currentColor"
       stroke-linecap="round"
       stroke-linejoin="round"
       stroke-width="0.0755" />
  </g>
  <g
     id="g650"
     transform="translate(36.1633,3.2882426)">
    <polygon
       id="polygon648"
       points="0.0421,0.1347 0.0421,-0.1347 7.6107,-2.1065 7.6107,-1.837 "
       stroke="currentColor"
       fill="currentColor"
       stroke-width="0.0842"
       stroke-linecap="round"
       stroke-linejoin="round" />
  </g>
  <g
     id="g654"
     transform="translate(36.1633,3.8955426)">
    <polygon
       id="polygon652"
       points="0.0421,0.1347 0.0421,-0.1347 7.6107,-2.1065 7.6107,-1.837 "
       stroke="currentColor"
       fill="currentColor"
       stroke-width="0.0842"
       stroke-linecap="round"
       stroke-linejoin="round" />
  </g>
  <g
     id="g658"
     transform="translate(35.3296,5.3691426)">
    <path
       id="path656"
       d="m 0.8156,-2.642 c 1.0356,-1.4115 5.9411,-2.6754 7.5299,-1.9401 v 0 C 6.785,-5.2077 1.8795,-3.9438 0.8156,-2.642 Z"
       fill="currentColor"
       stroke="currentColor"
       stroke-linecap="round"
       stroke-linejoin="round"
       stroke-width="0.0755" />
  </g>
  <g
     id="g662"
     transform="translate(45.8498,1.8146426)">
    <polygon
       id="polygon660"
       points="0.0421,0.1347 0.0421,-0.1347 6.3001,0.4725 6.3001,0.742 "
       stroke="currentColor"
       fill="currentColor"
       stroke-width="0.0842"
       stroke-linecap="round"
       stroke-linejoin="round" />
  </g>
  <g
     id="g666"
     transform="translate(45.8498,2.4218426)">
    <polygon
       id="polygon664"
       points="0.0421,0.1347 0.0421,-0.1347 6.3001,0.4725 6.3001,0.742 "
       stroke="currentColor"
       fill="currentColor"
       stroke-width="0.0842"
       stroke-linecap="round"
       stroke-linejoin="round" />
  </g>
  <g
     id="g670"
     transform="translate(46.9226,5.3691426)">
    <path
       id="path668"
       d="m 0.9255,-3.9114 c 1.0258,-0.7665 3.4512,-0.5342 4.313,0.4129 v 0 C 4.3659,-4.3328 1.9405,-4.565 0.9255,-3.9114 Z"
       fill="currentColor"
       stroke="currentColor"
       stroke-linecap="round"
       stroke-linejoin="round"
       stroke-width="0.0755" />
  </g>
  <g
     id="g674"
     transform="translate(190.8774,8.6849426)">
    <path
       id="path672"
       fill="currentColor"
       d="m 208,139 c 61,0 117,-33 117,-99 0,-71 -52,-119 -99,-147 -34,-20 -71,-32 -110,-32 -61,0 -116,33 -116,99 0,71 51,119 98,147 34,20 71,32 110,32 z"
       transform="scale(0.0029,-0.0029)" />
  </g>
  <g
     id="g678"
     transform="translate(187.4595,5.3691426)">
    <rect
       id="rect676"
       fill="currentColor"
       ry="0.042100001"
       height="3.1105001"
       width="0.1228"
       y="-0.65079999"
       x="-0.0614" />
  </g>
  <g
     id="g682"
     transform="translate(188.7209,8.3165426)">
    <path
       id="path680"
       fill="currentColor"
       d="m 208,139 c 61,0 117,-33 117,-99 0,-71 -52,-119 -99,-147 -34,-20 -71,-32 -110,-32 -61,0 -116,33 -116,99 0,71 51,119 98,147 34,20 71,32 110,32 z"
       transform="scale(0.0029,-0.0029)" />
  </g>
  <g
     id="g686"
     transform="translate(189.616,5.3691426)">
    <rect
       id="rect684"
       fill="currentColor"
       ry="0.042100001"
       height="3.4366"
       width="0.1228"
       y="-0.60839999"
       x="-0.0614" />
  </g>
  <g
     id="g690"
     transform="translate(186.5644,7.9481426)">
    <path
       id="path688"
       fill="currentColor"
       d="m 208,139 c 61,0 117,-33 117,-99 0,-71 -52,-119 -99,-147 -34,-20 -71,-32 -110,-32 -61,0 -116,33 -116,99 0,71 51,119 98,147 34,20 71,32 110,32 z"
       transform="scale(0.0029,-0.0029)" />
  </g>
  <g
     id="g694"
     transform="translate(191.7725,5.3691426)">
    <rect
       id="rect692"
       fill="currentColor"
       ry="0.042100001"
       height="3.9442"
       width="0.1228"
       y="-0.74760002"
       x="-0.0614" />
  </g>
  <g
     id="g698"
     transform="translate(193.5944,7.5797426)">
    <path
       id="path696"
       fill="currentColor"
       d="m 208,139 c 61,0 117,-33 117,-99 0,-71 -52,-119 -99,-147 -34,-20 -71,-32 -110,-32 -61,0 -116,33 -116,99 0,71 51,119 98,147 34,20 71,32 110,32 z"
       transform="scale(0.0029,-0.0029)" />
  </g>
  <g
     id="g702"
     transform="translate(194.4895,5.3691426)">
    <rect
       id="rect700"
       fill="currentColor"
       ry="0.042100001"
       height="3.3157001"
       width="0.1228"
       y="-1.2244"
       x="-0.0614" />
  </g>
  <g
     id="g706"
     transform="translate(182.2514,7.2113426)">
    <path
       id="path704"
       fill="currentColor"
       d="m 208,139 c 61,0 117,-33 117,-99 0,-71 -52,-119 -99,-147 -34,-20 -71,-32 -110,-32 -61,0 -116,33 -116,99 0,71 51,119 98,147 34,20 71,32 110,32 z"
       transform="scale(0.0029,-0.0029)" />
  </g>
  <g
     id="g710"
     transform="translate(180.0949,6.8428426)">
    <path
       id="path708"
       fill="currentColor"
       d="m 208,139 c 61,0 117,-33 117,-99 0,-71 -52,-119 -99,-147 -34,-20 -71,-32 -110,-32 -61,0 -116,33 -116,99 0,71 51,119 98,147 34,20 71,32 110,32 z"
       transform="scale(0.0029,-0.0029)" />
  </g>
  <g
     id="g714"
     transform="translate(180.99,5.3691426)">
    <rect
       id="rect712"
       fill="currentColor"
       ry="0.042100001"
       height="2.8406999"
       width="0.1228"
       y="-1.4863"
       x="-0.0614" />
  </g>
  <g
     id="g718"
     transform="translate(179.1554,6.8428426)">
    <path
       id="path716"
       fill="currentColor"
       d="m 33,35 -2,-60 v -11 c 0,-21 2,-43 5,-64 42,38 87,81 87,138 0,32 -13,63 -41,63 C 51,101 34,69 33,35 Z M 32,446 23,109 c 25,26 59,40 95,40 50,0 82,-51 82,-105 0,-77 -80,-117 -137,-169 -18,-17 -26,-48 -52,-48 -16,0 -28,15 -28,32 l -15,587 c 10,6 21,8 32,8 11,0 22,-2 32,-8 z"
       transform="scale(0.0029,-0.0029)" />
  </g>
  <g
     id="g722"
     transform="translate(192.4338,7.5797426)">
    <path
       id="path720"
       fill="currentColor"
       d="m 0,114 c 0,12 7,22 18,26 l 37,15 v 151 c 0,12 10,22 22,22 12,0 22,-10 22,-22 V 172 l 77,29 v 152 c 0,12 10,22 22,22 12,0 22,-10 22,-22 V 219 l 16,6 c 3,1 8,2 11,2 15,0 28,-12 28,-28 v -50 c 0,-12 -7,-23 -18,-27 L 220,108 V -44 l 16,7 c 3,1 8,2 11,2 15,0 28,-13 28,-29 v -50 c 0,-12 -7,-22 -18,-26 l -37,-15 v -151 c 0,-12 -10,-22 -22,-22 -12,0 -22,10 -22,22 v 134 l -77,-29 v -152 c 0,-12 -10,-22 -22,-22 -12,0 -22,10 -22,22 v 134 l -16,-6 c -3,-1 -8,-2 -11,-2 -15,0 -28,12 -28,28 v 50 c 0,12 7,23 18,27 l 37,14 V 44 L 39,37 C 36,36 31,35 28,35 13,35 0,48 0,64 Z M 176,91 99,61 V -91 l 77,30 z"
       transform="scale(0.0029,-0.0029)" />
  </g>
  <g
     id="g726"
     transform="translate(183.1465,5.3691426)">
    <rect
       id="rect724"
       fill="currentColor"
       ry="0.042100001"
       height="2.4584999"
       width="0.1228"
       y="-0.73559999"
       x="-0.0614" />
  </g>
  <g
     id="g730"
     transform="translate(184.6579,6.4744426)">
    <path
       id="path728"
       fill="currentColor"
       d="m 208,139 c 61,0 117,-33 117,-99 0,-71 -52,-119 -99,-147 -34,-20 -71,-32 -110,-32 -61,0 -116,33 -116,99 0,71 51,119 98,147 34,20 71,32 110,32 z"
       transform="scale(0.0029,-0.0029)" />
  </g>
  <g
     id="g734"
     transform="translate(185.553,5.3691426)">
    <rect
       id="rect732"
       fill="currentColor"
       ry="0.042100001"
       height="1.6744"
       width="0.1228"
       y="-0.68830001"
       x="-0.0614" />
  </g>
  <g
     id="g738"
     transform="translate(203.6869,6.4744426)">
    <path
       id="path736"
       fill="currentColor"
       d="m 208,139 c 61,0 117,-33 117,-99 0,-71 -52,-119 -99,-147 -34,-20 -71,-32 -110,-32 -61,0 -116,33 -116,99 0,71 51,119 98,147 34,20 71,32 110,32 z"
       transform="scale(0.0029,-0.0029)" />
  </g>
  <g
     id="g742"
     transform="translate(204.582,5.3691426)">
    <rect
       id="rect740"
       fill="currentColor"
       ry="0.042100001"
       height="3.1071999"
       width="0.1228"
       y="-2.1210999"
       x="-0.0614" />
  </g>
  <g
     id="g746"
     transform="translate(205.5934,7.2113426)">
    <path
       id="path744"
       fill="currentColor"
       d="m 208,139 c 61,0 117,-33 117,-99 0,-71 -52,-119 -99,-147 -34,-20 -71,-32 -110,-32 -61,0 -116,33 -116,99 0,71 51,119 98,147 34,20 71,32 110,32 z"
       transform="scale(0.0029,-0.0029)" />
  </g>
  <g
     id="g750"
     transform="translate(206.4885,5.3691426)">
    <rect
       id="rect748"
       fill="currentColor"
       ry="0.042100001"
       height="3.8829999"
       width="0.1228"
       y="-2.1601"
       x="-0.0614" />
  </g>
  <g
     id="g754"
     transform="translate(207.9999,5.3691426)">
    <path
       id="path752"
       fill="currentColor"
       d="m 208,139 c 61,0 117,-33 117,-99 0,-71 -52,-119 -99,-147 -34,-20 -71,-32 -110,-32 -61,0 -116,33 -116,99 0,71 51,119 98,147 34,20 71,32 110,32 z"
       transform="scale(0.0029,-0.0029)" />
  </g>
  <g
     id="g758"
     transform="translate(208.895,5.3691426)">
    <rect
       id="rect756"
       fill="currentColor"
       ry="0.042100001"
       height="2.0899999"
       width="0.1228"
       y="-2.2093"
       x="-0.0614" />
  </g>
  <g
     id="g762"
     transform="translate(196.0067,6.8428426)">
    <path
       id="path760"
       fill="currentColor"
       d="m 208,139 c 61,0 117,-33 117,-99 0,-71 -52,-119 -99,-147 -34,-20 -71,-32 -110,-32 -61,0 -116,33 -116,99 0,71 51,119 98,147 34,20 71,32 110,32 z"
       transform="scale(0.0029,-0.0029)" />
  </g>
  <g
     id="g766"
     transform="translate(196.9018,5.3691426)">
    <rect
       id="rect764"
       fill="currentColor"
       ry="0.042100001"
       height="3.0023"
       width="0.1228"
       y="-1.6478"
       x="-0.0614" />
  </g>
  <g
     id="g770"
     transform="translate(195.1509,6.8428426)">
    <path
       id="path768"
       fill="currentColor"
       d="m -8,375 c 8,5 18,7 27,7 9,0 20,-2 28,-7 l -3,-196 99,24 h 4 c 11,0 20,-8 20,-19 l 8,-559 c -8,-5 -19,-7 -28,-7 -9,0 -19,2 -27,7 l 3,196 -99,-24 h -5 c -11,0 -19,8 -19,19 z M 127,109 42,89 l -2,-198 84,20 z"
       transform="scale(0.0029,-0.0029)" />
  </g>
  <g
     id="g774"
     transform="translate(198.4132,5.3691426)">
    <path
       id="path772"
       fill="currentColor"
       d="m 208,139 c 61,0 117,-33 117,-99 0,-71 -52,-119 -99,-147 -34,-20 -71,-32 -110,-32 -61,0 -116,33 -116,99 0,71 51,119 98,147 34,20 71,32 110,32 z"
       transform="scale(0.0029,-0.0029)" />
  </g>
  <g
     id="g778"
     transform="translate(199.3083,5.3691426)">
    <rect
       id="rect776"
       fill="currentColor"
       ry="0.042100001"
       height="1.9509"
       width="0.1228"
       y="-2.0701001"
       x="-0.0614" />
  </g>
  <g
     id="g782"
     transform="translate(177.4865,5.3691426)">
    <path
       id="path780"
       d="m 1.0151,-2.5673 c 1.2601,-0.4411 3.7111,0.5821 4.2836,1.7883 v 0 C 4.6826,-1.8806 2.2315,-2.9038 1.0151,-2.5673 Z"
       fill="currentColor"
       stroke="currentColor"
       stroke-linecap="round"
       stroke-linejoin="round"
       stroke-width="0.0755" />
  </g>
  <g
     id="g786"
     transform="translate(201.7804,5.7376426)">
    <path
       id="path784"
       fill="currentColor"
       d="m 208,139 c 61,0 117,-33 117,-99 0,-71 -52,-119 -99,-147 -34,-20 -71,-32 -110,-32 -61,0 -116,33 -116,99 0,71 51,119 98,147 34,20 71,32 110,32 z"
       transform="scale(0.0029,-0.0029)" />
  </g>
  <g
     id="g790"
     transform="translate(191.7111,4.6323426)">
    <polygon
       id="polygon788"
       points="0.0421,0.1347 0.0421,-0.1347 7.6165,-1.4788 7.6165,-1.2093 "
       stroke="currentColor"
       fill="currentColor"
       stroke-width="0.0842"
       stroke-linecap="round"
       stroke-linejoin="round" />
  </g>
  <g
     id="g794"
     transform="translate(191.7111,5.2395426)">
    <polygon
       id="polygon792"
       points="0.0421,0.1347 0.0421,-0.1347 7.6165,-1.4788 7.6165,-1.2093 "
       stroke="currentColor"
       fill="currentColor"
       stroke-width="0.0842"
       stroke-linecap="round"
       stroke-linejoin="round" />
  </g>
  <g
     id="g798"
     transform="translate(202.6755,5.3691426)">
    <rect
       id="rect796"
       fill="currentColor"
       ry="0.042100001"
       height="2.3313"
       width="0.1228"
       y="-2.0822001"
       x="-0.0614" />
  </g>
  <g
     id="g802"
     transform="translate(59.8615,4.6323426)">
    <path
       id="path800"
       fill="currentColor"
       d="m 208,139 c 61,0 117,-33 117,-99 0,-71 -52,-119 -99,-147 -34,-20 -71,-32 -110,-32 -61,0 -116,33 -116,99 0,71 51,119 98,147 34,20 71,32 110,32 z"
       transform="scale(0.0029,-0.0029)" />
  </g>
  <g
     id="g806"
     transform="translate(57.705,5.0007426)">
    <path
       id="path804"
       fill="currentColor"
       d="m 208,139 c 61,0 117,-33 117,-99 0,-71 -52,-119 -99,-147 -34,-20 -71,-32 -110,-32 -61,0 -116,33 -116,99 0,71 51,119 98,147 34,20 71,32 110,32 z"
       transform="scale(0.0029,-0.0029)" />
  </g>
  <g
     id="g810"
     transform="translate(58.6001,5.3691426)">
    <rect
       id="rect808"
       fill="currentColor"
       ry="0.042100001"
       height="2.3301001"
       width="0.1228"
       y="-2.8176999"
       x="-0.0614" />
  </g>
  <g
     id="g814"
     transform="translate(60.7566,5.3691426)">
    <rect
       id="rect812"
       fill="currentColor"
       ry="0.042100001"
       height="1.9617"
       width="0.1228"
       y="-2.8176999"
       x="-0.0614" />
  </g>
  <g
     id="g818"
     transform="translate(19.99,5.3691426)">
    <rect
       id="rect816"
       fill="currentColor"
       ry="0.042100001"
       height="2.3052001"
       width="0.1228"
       y="-3.1612999"
       x="-0.0614" />
  </g>
  <g
     id="g822"
     transform="translate(19.0949,4.6323426)">
    <path
       id="path820"
       fill="currentColor"
       d="m 208,139 c 61,0 117,-33 117,-99 0,-71 -52,-119 -99,-147 -34,-20 -71,-32 -110,-32 -61,0 -116,33 -116,99 0,71 51,119 98,147 34,20 71,32 110,32 z"
       transform="scale(0.0029,-0.0029)" />
  </g>
  <g
     id="g826"
     transform="translate(119.0269,3.8955426)">
    <path
       id="path824"
       fill="currentColor"
       d="m 208,139 c 61,0 117,-33 117,-99 0,-71 -52,-119 -99,-147 -34,-20 -71,-32 -110,-32 -61,0 -116,33 -116,99 0,71 51,119 98,147 34,20 71,32 110,32 z"
       transform="scale(0.0029,-0.0029)" />
  </g>
  <g
     id="g830"
     transform="translate(63.1573,6.4744426)">
    <path
       id="path828"
       fill="currentColor"
       d="m 208,139 c 61,0 117,-33 117,-99 0,-71 -52,-119 -99,-147 -34,-20 -71,-32 -110,-32 -61,0 -116,33 -116,99 0,71 51,119 98,147 34,20 71,32 110,32 z"
       transform="scale(0.0029,-0.0029)" />
  </g>
  <g
     id="g834"
     transform="translate(54.0372,5.3691426)">
    <rect
       id="rect832"
       fill="currentColor"
       ry="0.042100001"
       height="4.1722002"
       width="0.1228"
       y="-2.8176999"
       x="-0.0614" />
  </g>
  <g
     id="g838"
     transform="translate(51.2356,4.6323426)">
    <path
       id="path836"
       fill="currentColor"
       d="m 208,139 c 61,0 117,-33 117,-99 0,-71 -52,-119 -99,-147 -34,-20 -71,-32 -110,-32 -61,0 -116,33 -116,99 0,71 51,119 98,147 34,20 71,32 110,32 z"
       transform="scale(0.0029,-0.0029)" />
  </g>
  <g
     id="g842"
     transform="translate(52.1307,5.3691426)">
    <rect
       id="rect840"
       fill="currentColor"
       ry="0.042100001"
       height="2.0971999"
       width="0.1228"
       y="-2.9532001"
       x="-0.0614" />
  </g>
  <g
     id="g846"
     transform="translate(22.1465,5.3691426)">
    <rect
       id="rect844"
       fill="currentColor"
       ry="0.042100001"
       height="2.5043001"
       width="0.1228"
       y="-2.9919"
       x="-0.0614" />
  </g>
  <g
     id="g850"
     transform="translate(21.2514,5.0007426)">
    <path
       id="path848"
       fill="currentColor"
       d="m 208,139 c 61,0 117,-33 117,-99 0,-71 -52,-119 -99,-147 -34,-20 -71,-32 -110,-32 -61,0 -116,33 -116,99 0,71 51,119 98,147 34,20 71,32 110,32 z"
       transform="scale(0.0029,-0.0029)" />
  </g>
  <g
     id="g854"
     transform="translate(53.142,6.8428426)">
    <path
       id="path852"
       fill="currentColor"
       d="m 208,139 c 61,0 117,-33 117,-99 0,-71 -52,-119 -99,-147 -34,-20 -71,-32 -110,-32 -61,0 -116,33 -116,99 0,71 51,119 98,147 34,20 71,32 110,32 z"
       transform="scale(0.0029,-0.0029)" />
  </g>
  <g
     id="g858"
     transform="translate(55.5485,4.6323426)">
    <path
       id="path856"
       fill="currentColor"
       d="m 208,139 c 61,0 117,-33 117,-99 0,-71 -52,-119 -99,-147 -34,-20 -71,-32 -110,-32 -61,0 -116,33 -116,99 0,71 51,119 98,147 34,20 71,32 110,32 z"
       transform="scale(0.0029,-0.0029)" />
  </g>
  <g
     id="g862"
     transform="translate(56.4436,5.3691426)">
    <rect
       id="rect860"
       fill="currentColor"
       ry="0.042100001"
       height="1.9617"
       width="0.1228"
       y="-2.8176999"
       x="-0.0614" />
  </g>
  <g
     id="g866"
     transform="translate(70.6873,2.7902426)">
    <path
       id="path864"
       fill="currentColor"
       d="m 208,139 c 61,0 117,-33 117,-99 0,-71 -52,-119 -99,-147 -34,-20 -71,-32 -110,-32 -61,0 -116,33 -116,99 0,71 51,119 98,147 34,20 71,32 110,32 z"
       transform="scale(0.0029,-0.0029)" />
  </g>
  <g
     id="g870"
     transform="translate(69.1759,5.3691426)">
    <rect
       id="rect868"
       fill="currentColor"
       ry="0.042100001"
       height="3.3394001"
       width="0.1228"
       y="-3.8269999"
       x="-0.0614" />
  </g>
  <g
     id="g874"
     transform="translate(67.1203,5.0007426)">
    <path
       id="path872"
       fill="currentColor"
       d="m 0,114 c 0,12 7,22 18,26 l 37,15 v 151 c 0,12 10,22 22,22 12,0 22,-10 22,-22 V 172 l 77,29 v 152 c 0,12 10,22 22,22 12,0 22,-10 22,-22 V 219 l 16,6 c 3,1 8,2 11,2 15,0 28,-12 28,-28 v -50 c 0,-12 -7,-23 -18,-27 L 220,108 V -44 l 16,7 c 3,1 8,2 11,2 15,0 28,-13 28,-29 v -50 c 0,-12 -7,-22 -18,-26 l -37,-15 v -151 c 0,-12 -10,-22 -22,-22 -12,0 -22,10 -22,22 v 134 l -77,-29 v -152 c 0,-12 -10,-22 -22,-22 -12,0 -22,10 -22,22 v 134 l -16,-6 c -3,-1 -8,-2 -11,-2 -15,0 -28,12 -28,28 v 50 c 0,12 7,23 18,27 l 37,14 V 44 L 39,37 C 36,36 31,35 28,35 13,35 0,48 0,64 Z M 176,91 99,61 V -91 l 77,30 z"
       transform="scale(0.0029,-0.0029)" />
  </g>
  <g
     id="g878"
     transform="translate(18.0835,5.3691426)">
    <rect
       id="rect876"
       fill="currentColor"
       ry="0.042100001"
       height="1.7181"
       width="0.1228"
       y="-3.3110001"
       x="-0.0614" />
  </g>
  <g
     id="g882"
     transform="translate(68.2808,5.0007426)">
    <path
       id="path880"
       fill="currentColor"
       d="m 208,139 c 61,0 117,-33 117,-99 0,-71 -52,-119 -99,-147 -34,-20 -71,-32 -110,-32 -61,0 -116,33 -116,99 0,71 51,119 98,147 34,20 71,32 110,32 z"
       transform="scale(0.0029,-0.0029)" />
  </g>
  <g
     id="g886"
     transform="translate(17.1884,3.8955426)">
    <path
       id="path884"
       fill="currentColor"
       d="m 208,139 c 61,0 117,-33 117,-99 0,-71 -52,-119 -99,-147 -34,-20 -71,-32 -110,-32 -61,0 -116,33 -116,99 0,71 51,119 98,147 34,20 71,32 110,32 z"
       transform="scale(0.0029,-0.0029)" />
  </g>
  <g
     id="g890"
     transform="translate(71.5824,5.3691426)">
    <rect
       id="rect888"
       fill="currentColor"
       ry="0.042100001"
       height="1.7081"
       width="0.1228"
       y="-4.4063001"
       x="-0.0614" />
  </g>
  <g
     id="g894"
     transform="translate(72.5938,3.1586426)">
    <path
       id="path892"
       fill="currentColor"
       d="m 208,139 c 61,0 117,-33 117,-99 0,-71 -52,-119 -99,-147 -34,-20 -71,-32 -110,-32 -61,0 -116,33 -116,99 0,71 51,119 98,147 34,20 71,32 110,32 z"
       transform="scale(0.0029,-0.0029)" />
  </g>
  <g
     id="g898"
     transform="translate(73.4889,5.3691426)">
    <rect
       id="rect896"
       fill="currentColor"
       ry="0.042100001"
       height="1.7157"
       width="0.1228"
       y="-4.0454998"
       x="-0.0614" />
  </g>
  <g
     id="g902"
     transform="translate(64.0524,5.3691426)">
    <rect
       id="rect900"
       fill="currentColor"
       ry="0.042100001"
       height="3.5797999"
       width="0.1228"
       y="-2.5936999"
       x="-0.0614" />
  </g>
  <g
     id="g906"
     transform="translate(65.5638,5.7376426)">
    <path
       id="path904"
       fill="currentColor"
       d="m 208,139 c 61,0 117,-33 117,-99 0,-71 -52,-119 -99,-147 -34,-20 -71,-32 -110,-32 -61,0 -116,33 -116,99 0,71 51,119 98,147 34,20 71,32 110,32 z"
       transform="scale(0.0029,-0.0029)" />
  </g>
  <g
     id="g910"
     transform="translate(66.4589,5.3691426)">
    <rect
       id="rect908"
       fill="currentColor"
       ry="0.042100001"
       height="3.4222"
       width="0.1228"
       y="-3.1730001"
       x="-0.0614" />
  </g>
  <g
     id="g914"
     transform="translate(35.3296,6.8428426)">
    <path
       id="path912"
       fill="currentColor"
       d="m 208,139 c 61,0 117,-33 117,-99 0,-71 -52,-119 -99,-147 -34,-20 -71,-32 -110,-32 -61,0 -116,33 -116,99 0,71 51,119 98,147 34,20 71,32 110,32 z"
       transform="scale(0.0029,-0.0029)" />
  </g>
  <g
     id="g918"
     transform="translate(36.2247,5.3691426)">
    <rect
       id="rect916"
       fill="currentColor"
       ry="0.042100001"
       height="3.4512"
       width="0.1228"
       y="-2.0967"
       x="-0.0614" />
  </g>
  <g
     id="g922"
     transform="translate(26.2095,5.3691426)">
    <rect
       id="rect920"
       fill="currentColor"
       ry="0.042100001"
       height="4.5405998"
       width="0.1228"
       y="-2.8176999"
       x="-0.0614" />
  </g>
  <g
     id="g926"
     transform="translate(25.3144,7.2113426)">
    <path
       id="path924"
       fill="currentColor"
       d="m 208,139 c 61,0 117,-33 117,-99 0,-71 -52,-119 -99,-147 -34,-20 -71,-32 -110,-32 -61,0 -116,33 -116,99 0,71 51,119 98,147 34,20 71,32 110,32 z"
       transform="scale(0.0029,-0.0029)" />
  </g>
  <g
     id="g930"
     transform="translate(37.7361,6.1060426)">
    <path
       id="path928"
       fill="currentColor"
       d="m 208,139 c 61,0 117,-33 117,-99 0,-71 -52,-119 -99,-147 -34,-20 -71,-32 -110,-32 -61,0 -116,33 -116,99 0,71 51,119 98,147 34,20 71,32 110,32 z"
       transform="scale(0.0029,-0.0029)" />
  </g>
  <g
     id="g934"
     transform="translate(38.6312,5.3691426)">
    <rect
       id="rect932"
       fill="currentColor"
       ry="0.042100001"
       height="3.3343999"
       width="0.1228"
       y="-2.7167001"
       x="-0.0614" />
  </g>
  <g
     id="g938"
     transform="translate(28.616,5.3691426)">
    <rect
       id="rect936"
       fill="currentColor"
       ry="0.042100001"
       height="1.9617"
       width="0.1228"
       y="-2.8176999"
       x="-0.0614" />
  </g>
  <g
     id="g942"
     transform="translate(27.7209,4.6323426)">
    <path
       id="path940"
       fill="currentColor"
       d="m 208,139 c 61,0 117,-33 117,-99 0,-71 -52,-119 -99,-147 -34,-20 -71,-32 -110,-32 -61,0 -116,33 -116,99 0,71 51,119 98,147 34,20 71,32 110,32 z"
       transform="scale(0.0029,-0.0029)" />
  </g>
  <g
     id="g946"
     transform="translate(29.8773,5.0007426)">
    <path
       id="path944"
       fill="currentColor"
       d="m 208,139 c 61,0 117,-33 117,-99 0,-71 -52,-119 -99,-147 -34,-20 -71,-32 -110,-32 -61,0 -116,33 -116,99 0,71 51,119 98,147 34,20 71,32 110,32 z"
       transform="scale(0.0029,-0.0029)" />
  </g>
  <g
     id="g950"
     transform="translate(30.7724,5.3691426)">
    <rect
       id="rect948"
       fill="currentColor"
       ry="0.042100001"
       height="2.3301001"
       width="0.1228"
       y="-2.8176999"
       x="-0.0614" />
  </g>
  <g
     id="g954"
     transform="translate(32.0338,4.6323426)">
    <path
       id="path952"
       fill="currentColor"
       d="m 208,139 c 61,0 117,-33 117,-99 0,-71 -52,-119 -99,-147 -34,-20 -71,-32 -110,-32 -61,0 -116,33 -116,99 0,71 51,119 98,147 34,20 71,32 110,32 z"
       transform="scale(0.0029,-0.0029)" />
  </g>
  <g
     id="g958"
     transform="translate(32.9289,5.3691426)">
    <rect
       id="rect956"
       fill="currentColor"
       ry="0.042100001"
       height="1.9617"
       width="0.1228"
       y="-2.8176999"
       x="-0.0614" />
  </g>
  <g
     id="g962"
     transform="translate(23.4079,4.6323426)">
    <path
       id="path960"
       fill="currentColor"
       d="m 208,139 c 61,0 117,-33 117,-99 0,-71 -52,-119 -99,-147 -34,-20 -71,-32 -110,-32 -61,0 -116,33 -116,99 0,71 51,119 98,147 34,20 71,32 110,32 z"
       transform="scale(0.0029,-0.0029)" />
  </g>
  <g
     id="g966"
     transform="translate(45.0161,3.5270426)">
    <path
       id="path964"
       fill="currentColor"
       d="m 208,139 c 61,0 117,-33 117,-99 0,-71 -52,-119 -99,-147 -34,-20 -71,-32 -110,-32 -61,0 -116,33 -116,99 0,71 51,119 98,147 34,20 71,32 110,32 z"
       transform="scale(0.0029,-0.0029)" />
  </g>
  <g
     id="g970"
     transform="translate(45.9112,5.3691426)">
    <rect
       id="rect968"
       fill="currentColor"
       ry="0.042100001"
       height="1.5874"
       width="0.1228"
       y="-3.5487001"
       x="-0.0614" />
  </g>
  <g
     id="g974"
     transform="translate(46.9226,4.6323426)">
    <path
       id="path972"
       fill="currentColor"
       d="m 208,139 c 61,0 117,-33 117,-99 0,-71 -52,-119 -99,-147 -34,-20 -71,-32 -110,-32 -61,0 -116,33 -116,99 0,71 51,119 98,147 34,20 71,32 110,32 z"
       transform="scale(0.0029,-0.0029)" />
  </g>
  <g
     id="g978"
     transform="translate(47.8177,5.3691426)">
    <rect
       id="rect976"
       fill="currentColor"
       ry="0.042100001"
       height="2.5100999"
       width="0.1228"
       y="-3.3662"
       x="-0.0614" />
  </g>
  <g
     id="g982"
     transform="translate(24.303,5.3691426)">
    <rect
       id="rect980"
       fill="currentColor"
       ry="0.042100001"
       height="1.9665"
       width="0.1228"
       y="-2.8225999"
       x="-0.0614" />
  </g>
  <g
     id="g986"
     transform="translate(49.0791,5.0007426)">
    <path
       id="path984"
       fill="currentColor"
       d="m 208,139 c 61,0 117,-33 117,-99 0,-71 -52,-119 -99,-147 -34,-20 -71,-32 -110,-32 -61,0 -116,33 -116,99 0,71 51,119 98,147 34,20 71,32 110,32 z"
       transform="scale(0.0029,-0.0029)" />
  </g>
  <g
     id="g990"
     transform="translate(49.9742,5.3691426)">
    <rect
       id="rect988"
       fill="currentColor"
       ry="0.042100001"
       height="2.6721001"
       width="0.1228"
       y="-3.1596999"
       x="-0.0614" />
  </g>
  <g
     id="g994"
     transform="translate(39.2926,5.0007426)">
    <path
       id="path992"
       fill="currentColor"
       d="m 0,114 c 0,12 7,22 18,26 l 37,15 v 151 c 0,12 10,22 22,22 12,0 22,-10 22,-22 V 172 l 77,29 v 152 c 0,12 10,22 22,22 12,0 22,-10 22,-22 V 219 l 16,6 c 3,1 8,2 11,2 15,0 28,-12 28,-28 v -50 c 0,-12 -7,-23 -18,-27 L 220,108 V -44 l 16,7 c 3,1 8,2 11,2 15,0 28,-13 28,-29 v -50 c 0,-12 -7,-22 -18,-26 l -37,-15 v -151 c 0,-12 -10,-22 -22,-22 -12,0 -22,10 -22,22 v 134 l -77,-29 v -152 c 0,-12 -10,-22 -22,-22 -12,0 -22,10 -22,22 v 134 l -16,-6 c -3,-1 -8,-2 -11,-2 -15,0 -28,12 -28,28 v 50 c 0,12 7,23 18,27 l 37,14 V 44 L 39,37 C 36,36 31,35 28,35 13,35 0,48 0,64 Z M 176,91 99,61 V -91 l 77,30 z"
       transform="scale(0.0029,-0.0029)" />
  </g>
  <g
     id="g998"
     transform="translate(40.4531,5.0007426)">
    <path
       id="path996"
       fill="currentColor"
       d="m 208,139 c 61,0 117,-33 117,-99 0,-71 -52,-119 -99,-147 -34,-20 -71,-32 -110,-32 -61,0 -116,33 -116,99 0,71 51,119 98,147 34,20 71,32 110,32 z"
       transform="scale(0.0029,-0.0029)" />
  </g>
  <g
     id="g1002"
     transform="translate(41.3482,5.3691426)">
    <rect
       id="rect1000"
       fill="currentColor"
       ry="0.042100001"
       height="2.9291"
       width="0.1228"
       y="-3.4168"
       x="-0.0614" />
  </g>
  <g
     id="g1006"
     transform="translate(42.8596,3.1586426)">
    <path
       id="path1004"
       fill="currentColor"
       d="m 208,139 c 61,0 117,-33 117,-99 0,-71 -52,-119 -99,-147 -34,-20 -71,-32 -110,-32 -61,0 -116,33 -116,99 0,71 51,119 98,147 34,20 71,32 110,32 z"
       transform="scale(0.0029,-0.0029)" />
  </g>
  <g
     id="g1010"
     transform="translate(43.7547,5.3691426)">
    <rect
       id="rect1008"
       fill="currentColor"
       ry="0.042100001"
       height="1.7071"
       width="0.1228"
       y="-4.0367999"
       x="-0.0614" />
  </g>
  <g
     id="g1014"
     transform="translate(99.8609,4.2639426)">
    <path
       id="path1012"
       fill="currentColor"
       d="m 208,139 c 61,0 117,-33 117,-99 0,-71 -52,-119 -99,-147 -34,-20 -71,-32 -110,-32 -61,0 -116,33 -116,99 0,71 51,119 98,147 34,20 71,32 110,32 z"
       transform="scale(0.0029,-0.0029)" />
  </g>
  <g
     id="g1018"
     transform="translate(100.756,5.3691426)">
    <rect
       id="rect1016"
       fill="currentColor"
       ry="0.042100001"
       height="1.8503"
       width="0.1228"
       y="-3.0748"
       x="-0.0614" />
  </g>
  <g
     id="g1022"
     transform="translate(7.5019,7.2113426)">
    <path
       id="path1020"
       fill="currentColor"
       d="m 208,139 c 61,0 117,-33 117,-99 0,-71 -52,-119 -99,-147 -34,-20 -71,-32 -110,-32 -61,0 -116,33 -116,99 0,71 51,119 98,147 34,20 71,32 110,32 z"
       transform="scale(0.0029,-0.0029)" />
  </g>
  <g
     id="g1026"
     transform="translate(102.0174,4.6323426)">
    <path
       id="path1024"
       fill="currentColor"
       d="m 208,139 c 61,0 117,-33 117,-99 0,-71 -52,-119 -99,-147 -34,-20 -71,-32 -110,-32 -61,0 -116,33 -116,99 0,71 51,119 98,147 34,20 71,32 110,32 z"
       transform="scale(0.0029,-0.0029)" />
  </g>
  <g
     id="g1030"
     transform="translate(102.9125,5.3691426)">
    <rect
       id="rect1028"
       fill="currentColor"
       ry="0.042100001"
       height="2.1405001"
       width="0.1228"
       y="-2.9965999"
       x="-0.0614" />
  </g>
  <g
     id="g1034"
     transform="translate(8.397,5.3691426)">
    <rect
       id="rect1032"
       fill="currentColor"
       ry="0.042100001"
       height="3.9482"
       width="0.1228"
       y="-2.2253001"
       x="-0.0614" />
  </g>
  <g
     id="g1038"
     transform="translate(104.7344,5.0007426)">
    <path
       id="path1036"
       fill="currentColor"
       d="m 208,139 c 61,0 117,-33 117,-99 0,-71 -52,-119 -99,-147 -34,-20 -71,-32 -110,-32 -61,0 -116,33 -116,99 0,71 51,119 98,147 34,20 71,32 110,32 z"
       transform="scale(0.0029,-0.0029)" />
  </g>
  <g
     id="g1042"
     transform="translate(105.6295,5.3691426)">
    <rect
       id="rect1040"
       fill="currentColor"
       ry="0.042100001"
       height="2.4105"
       width="0.1228"
       y="-2.8980999"
       x="-0.0614" />
  </g>
  <g
     id="g1046"
     transform="translate(94.0366,5.3691426)">
    <rect
       id="rect1044"
       fill="currentColor"
       ry="0.042100001"
       height="3.2809999"
       width="0.1228"
       y="-3.4001999"
       x="-0.0614" />
  </g>
  <g
     id="g1050"
     transform="translate(95.548,4.6323426)">
    <path
       id="path1048"
       fill="currentColor"
       d="m 208,139 c 61,0 117,-33 117,-99 0,-71 -52,-119 -99,-147 -34,-20 -71,-32 -110,-32 -61,0 -116,33 -116,99 0,71 51,119 98,147 34,20 71,32 110,32 z"
       transform="scale(0.0029,-0.0029)" />
  </g>
  <g
     id="g1054"
     transform="translate(96.4431,5.3691426)">
    <rect
       id="rect1052"
       fill="currentColor"
       ry="0.042100001"
       height="3.1120999"
       width="0.1228"
       y="-3.9682"
       x="-0.0614" />
  </g>
  <g
     id="g1058"
     transform="translate(97.9544,2.7902426)">
    <path
       id="path1056"
       fill="currentColor"
       d="m 208,139 c 61,0 117,-33 117,-99 0,-71 -52,-119 -99,-147 -34,-20 -71,-32 -110,-32 -61,0 -116,33 -116,99 0,71 51,119 98,147 34,20 71,32 110,32 z"
       transform="scale(0.0029,-0.0029)" />
  </g>
  <g
     id="g1062"
     transform="translate(98.8495,5.3691426)">
    <rect
       id="rect1060"
       fill="currentColor"
       ry="0.042100001"
       height="1.8380001"
       width="0.1228"
       y="-4.5362"
       x="-0.0614" />
  </g>
  <g
     id="g1066"
     transform="translate(112.099,5.3691426)">
    <rect
       id="rect1064"
       fill="currentColor"
       ry="0.042100001"
       height="1.9793"
       width="0.1228"
       y="-2.8353"
       x="-0.0614" />
  </g>
  <g
     id="g1070"
     transform="translate(113.3604,5.0007426)">
    <path
       id="path1068"
       fill="currentColor"
       d="m 208,139 c 61,0 117,-33 117,-99 0,-71 -52,-119 -99,-147 -34,-20 -71,-32 -110,-32 -61,0 -116,33 -116,99 0,71 51,119 98,147 34,20 71,32 110,32 z"
       transform="scale(0.0029,-0.0029)" />
  </g>
  <g
     id="g1074"
     transform="translate(114.2555,5.3691426)">
    <rect
       id="rect1072"
       fill="currentColor"
       ry="0.042100001"
       height="2.5717001"
       width="0.1228"
       y="-3.0594001"
       x="-0.0614" />
  </g>
  <g
     id="g1078"
     transform="translate(111.2039,4.6323426)">
    <path
       id="path1076"
       fill="currentColor"
       d="m 208,139 c 61,0 117,-33 117,-99 0,-71 -52,-119 -99,-147 -34,-20 -71,-32 -110,-32 -61,0 -116,33 -116,99 0,71 51,119 98,147 34,20 71,32 110,32 z"
       transform="scale(0.0029,-0.0029)" />
  </g>
  <g
     id="g1082"
     transform="translate(115.7669,4.2639426)">
    <path
       id="path1080"
       fill="currentColor"
       d="m 208,139 c 61,0 117,-33 117,-99 0,-71 -52,-119 -99,-147 -34,-20 -71,-32 -110,-32 -61,0 -116,33 -116,99 0,71 51,119 98,147 34,20 71,32 110,32 z"
       transform="scale(0.0029,-0.0029)" />
  </g>
  <g
     id="g1086"
     transform="translate(116.662,5.3691426)">
    <rect
       id="rect1084"
       fill="currentColor"
       ry="0.042100001"
       height="2.0848999"
       width="0.1228"
       y="-3.3094001"
       x="-0.0614" />
  </g>
  <g
     id="g1090"
     transform="translate(103.5739,5.0007426)">
    <path
       id="path1088"
       fill="currentColor"
       d="m 0,114 c 0,12 7,22 18,26 l 37,15 v 151 c 0,12 10,22 22,22 12,0 22,-10 22,-22 V 172 l 77,29 v 152 c 0,12 10,22 22,22 12,0 22,-10 22,-22 V 219 l 16,6 c 3,1 8,2 11,2 15,0 28,-12 28,-28 v -50 c 0,-12 -7,-23 -18,-27 L 220,108 V -44 l 16,7 c 3,1 8,2 11,2 15,0 28,-13 28,-29 v -50 c 0,-12 -7,-22 -18,-26 l -37,-15 v -151 c 0,-12 -10,-22 -22,-22 -12,0 -22,10 -22,22 v 134 l -77,-29 v -152 c 0,-12 -10,-22 -22,-22 -12,0 -22,10 -22,22 v 134 l -16,-6 c -3,-1 -8,-2 -11,-2 -15,0 -28,12 -28,28 v 50 c 0,12 7,23 18,27 l 37,14 V 44 L 39,37 C 36,36 31,35 28,35 13,35 0,48 0,64 Z M 176,91 99,61 V -91 l 77,30 z"
       transform="scale(0.0029,-0.0029)" />
  </g>
  <g
     id="g1094"
     transform="translate(106.8909,4.6323426)">
    <path
       id="path1092"
       fill="currentColor"
       d="m 208,139 c 61,0 117,-33 117,-99 0,-71 -52,-119 -99,-147 -34,-20 -71,-32 -110,-32 -61,0 -116,33 -116,99 0,71 51,119 98,147 34,20 71,32 110,32 z"
       transform="scale(0.0029,-0.0029)" />
  </g>
  <g
     id="g1098"
     transform="translate(107.786,5.3691426)">
    <rect
       id="rect1096"
       fill="currentColor"
       ry="0.042100001"
       height="1.9639"
       width="0.1228"
       y="-2.8199999"
       x="-0.0614" />
  </g>
  <g
     id="g1102"
     transform="translate(108.7974,5.7376426)">
    <path
       id="path1100"
       fill="currentColor"
       d="m 208,139 c 61,0 117,-33 117,-99 0,-71 -52,-119 -99,-147 -34,-20 -71,-32 -110,-32 -61,0 -116,33 -116,99 0,71 51,119 98,147 34,20 71,32 110,32 z"
       transform="scale(0.0029,-0.0029)" />
  </g>
  <g
     id="g1106"
     transform="translate(109.6925,5.3691426)">
    <rect
       id="rect1104"
       fill="currentColor"
       ry="0.042100001"
       height="2.8345001"
       width="0.1228"
       y="-2.5853"
       x="-0.0614" />
  </g>
  <g
     id="g1110"
     transform="translate(4.4125,5.3691426)">
    <path
       id="path1108"
       fill="currentColor"
       d="m 33,35 -2,-60 v -11 c 0,-21 2,-43 5,-64 42,38 87,81 87,138 0,32 -13,63 -41,63 C 51,101 34,69 33,35 Z M 32,446 23,109 c 25,26 59,40 95,40 50,0 82,-51 82,-105 0,-77 -80,-117 -137,-169 -18,-17 -26,-48 -52,-48 -16,0 -28,15 -28,32 l -15,587 c 10,6 21,8 32,8 11,0 22,-2 32,-8 z"
       transform="scale(0.0029,-0.0029)" />
  </g>
  <g
     id="g1114"
     transform="translate(0.8,6.1060426)">
    <path
       id="path1112"
       fill="currentColor"
       d="m 381,266 h 9 c 157,0 258,-130 258,-264 0,-77 -33,-156 -108,-212 -22,-16 -46,-28 -71,-36 2,-32 3,-65 3,-97 0,-21 -1,-43 -2,-64 -7,-122 -91,-230 -211,-230 -108,0 -197,88 -197,197 0,58 54,104 113,104 54,0 95,-48 95,-104 0,-52 -43,-95 -95,-95 -8,0 -16,2 -24,4 25,-35 65,-59 111,-59 95,0 155,92 161,190 1,20 2,39 2,59 0,28 -1,55 -3,83 -29,-5 -57,-7 -87,-7 -189,0 -333,174 -333,377 0,176 128,307 242,443 -21,62 -41,124 -50,189 -7,52 -8,106 -8,159 0,113 54,219 146,286 8,6 21,7 29,0 72,-82 136,-244 136,-357 0,-141 -83,-253 -174,-362 22,-67 41,-135 58,-204 z m 83,-466 c 64,25 108,93 108,159 0,87 -62,173 -163,187 24,-113 43,-225 55,-346 z m -126,-18 c 27,0 54,2 80,6 C 405,-87 385,30 360,147 281,140 237,88 237,31 c 0,-43 24,-89 78,-120 5,-5 8,-11 8,-17 0,-13 -11,-24 -24,-24 -3,0 -7,0 -10,2 -81,44 -119,116 -119,187 0,90 60,178 164,201 -14,56 -30,112 -47,167 C 183,305 79,182 79,23 79,-109 206,-218 338,-218 Z M 239,782 c 0,-69 22,-127 41,-183 77,97 140,199 140,323 0,49 -3,69 -19,113 C 302,990 239,890 239,782 Z"
       transform="scale(0.0029,-0.0029)" />
  </g>
  <g
     id="g1118"
     transform="translate(11.4649,5.0007426)">
    <path
       id="path1116"
       fill="currentColor"
       d="m 0,114 c 0,12 7,22 18,26 l 37,15 v 151 c 0,12 10,22 22,22 12,0 22,-10 22,-22 V 172 l 77,29 v 152 c 0,12 10,22 22,22 12,0 22,-10 22,-22 V 219 l 16,6 c 3,1 8,2 11,2 15,0 28,-12 28,-28 v -50 c 0,-12 -7,-23 -18,-27 L 220,108 V -44 l 16,7 c 3,1 8,2 11,2 15,0 28,-13 28,-29 v -50 c 0,-12 -7,-22 -18,-26 l -37,-15 v -151 c 0,-12 -10,-22 -22,-22 -12,0 -22,10 -22,22 v 134 l -77,-29 v -152 c 0,-12 -10,-22 -22,-22 -12,0 -22,10 -22,22 v 134 l -16,-6 c -3,-1 -8,-2 -11,-2 -15,0 -28,12 -28,28 v 50 c 0,12 7,23 18,27 l 37,14 V 44 L 39,37 C 36,36 31,35 28,35 13,35 0,48 0,64 Z M 176,91 99,61 V -91 l 77,30 z"
       transform="scale(0.0029,-0.0029)" />
  </g>
  <g
     id="g1122"
     transform="translate(80.7197,6.4744426)">
    <path
       id="path1120"
       fill="currentColor"
       d="m 208,139 c 61,0 117,-33 117,-99 0,-71 -52,-119 -99,-147 -34,-20 -71,-32 -110,-32 -61,0 -116,33 -116,99 0,71 51,119 98,147 34,20 71,32 110,32 z"
       transform="scale(0.0029,-0.0029)" />
  </g>
  <g
     id="g1126"
     transform="translate(81.6148,5.3691426)">
    <rect
       id="rect1124"
       fill="currentColor"
       ry="0.042100001"
       height="3.8038001"
       width="0.1228"
       y="-2.8176999"
       x="-0.0614" />
  </g>
  <g
     id="g1130"
     transform="translate(83.1262,4.6323426)">
    <path
       id="path1128"
       fill="currentColor"
       d="m 208,139 c 61,0 117,-33 117,-99 0,-71 -52,-119 -99,-147 -34,-20 -71,-32 -110,-32 -61,0 -116,33 -116,99 0,71 51,119 98,147 34,20 71,32 110,32 z"
       transform="scale(0.0029,-0.0029)" />
  </g>
  <g
     id="g1134"
     transform="translate(84.0213,5.3691426)">
    <rect
       id="rect1132"
       fill="currentColor"
       ry="0.042100001"
       height="1.9617"
       width="0.1228"
       y="-2.8176999"
       x="-0.0614" />
  </g>
  <g
     id="g1138"
     transform="translate(74.5003,4.6323426)">
    <path
       id="path1136"
       fill="currentColor"
       d="m 208,139 c 61,0 117,-33 117,-99 0,-71 -52,-119 -99,-147 -34,-20 -71,-32 -110,-32 -61,0 -116,33 -116,99 0,71 51,119 98,147 34,20 71,32 110,32 z"
       transform="scale(0.0029,-0.0029)" />
  </g>
  <g
     id="g1142"
     transform="translate(75.3954,5.3691426)">
    <rect
       id="rect1140"
       fill="currentColor"
       ry="0.042100001"
       height="2.9679"
       width="0.1228"
       y="-3.8239999"
       x="-0.0614" />
  </g>
  <g
     id="g1146"
     transform="translate(9.9084,5.7376426)">
    <path
       id="path1144"
       fill="currentColor"
       d="m 208,139 c 61,0 117,-33 117,-99 0,-71 -52,-119 -99,-147 -34,-20 -71,-32 -110,-32 -61,0 -116,33 -116,99 0,71 51,119 98,147 34,20 71,32 110,32 z"
       transform="scale(0.0029,-0.0029)" />
  </g>
  <g
     id="g1150"
     transform="translate(15.927,5.3691426)">
    <rect
       id="rect1148"
       fill="currentColor"
       ry="0.042100001"
       height="2.0764999"
       width="0.1228"
       y="-4.0379"
       x="-0.0614" />
  </g>
  <g
     id="g1154"
     transform="translate(76.6567,5.0007426)">
    <path
       id="path1152"
       fill="currentColor"
       d="m 208,139 c 61,0 117,-33 117,-99 0,-71 -52,-119 -99,-147 -34,-20 -71,-32 -110,-32 -61,0 -116,33 -116,99 0,71 51,119 98,147 34,20 71,32 110,32 z"
       transform="scale(0.0029,-0.0029)" />
  </g>
  <g
     id="g1158"
     transform="translate(77.5519,5.3691426)">
    <rect
       id="rect1156"
       fill="currentColor"
       ry="0.042100001"
       height="3.0857999"
       width="0.1228"
       y="-3.5734999"
       x="-0.0614" />
  </g>
  <g
     id="g1162"
     transform="translate(15.0319,3.5270426)">
    <path
       id="path1160"
       fill="currentColor"
       d="m 208,139 c 61,0 117,-33 117,-99 0,-71 -52,-119 -99,-147 -34,-20 -71,-32 -110,-32 -61,0 -116,33 -116,99 0,71 51,119 98,147 34,20 71,32 110,32 z"
       transform="scale(0.0029,-0.0029)" />
  </g>
  <g
     id="g1166"
     transform="translate(78.8132,4.6323426)">
    <path
       id="path1164"
       fill="currentColor"
       d="m 208,139 c 61,0 117,-33 117,-99 0,-71 -52,-119 -99,-147 -34,-20 -71,-32 -110,-32 -61,0 -116,33 -116,99 0,71 51,119 98,147 34,20 71,32 110,32 z"
       transform="scale(0.0029,-0.0029)" />
  </g>
  <g
     id="g1170"
     transform="translate(79.7083,5.3691426)">
    <rect
       id="rect1168"
       fill="currentColor"
       ry="0.042100001"
       height="2.4669001"
       width="0.1228"
       y="-3.3229001"
       x="-0.0614" />
  </g>
  <g
     id="g1174"
     transform="translate(91.6301,5.3691426)">
    <rect
       id="rect1172"
       fill="currentColor"
       ry="0.042100001"
       height="3.4498"
       width="0.1228"
       y="-2.8322001"
       x="-0.0614" />
  </g>
  <g
     id="g1178"
     transform="translate(90.735,6.1060426)">
    <path
       id="path1176"
       fill="currentColor"
       d="m 208,139 c 61,0 117,-33 117,-99 0,-71 -52,-119 -99,-147 -34,-20 -71,-32 -110,-32 -61,0 -116,33 -116,99 0,71 51,119 98,147 34,20 71,32 110,32 z"
       transform="scale(0.0029,-0.0029)" />
  </g>
  <g
     id="g1182"
     transform="translate(10.8035,5.3691426)">
    <rect
       id="rect1180"
       fill="currentColor"
       ry="0.042100001"
       height="3.0538001"
       width="0.1228"
       y="-2.8046"
       x="-0.0614" />
  </g>
  <g
     id="g1186"
     transform="translate(86.1778,5.3691426)">
    <rect
       id="rect1184"
       fill="currentColor"
       ry="0.042100001"
       height="2.3301001"
       width="0.1228"
       y="-2.8176999"
       x="-0.0614" />
  </g>
  <g
     id="g1190"
     transform="translate(12.6254,5.0007426)">
    <path
       id="path1188"
       fill="currentColor"
       d="m 208,139 c 61,0 117,-33 117,-99 0,-71 -52,-119 -99,-147 -34,-20 -71,-32 -110,-32 -61,0 -116,33 -116,99 0,71 51,119 98,147 34,20 71,32 110,32 z"
       transform="scale(0.0029,-0.0029)" />
  </g>
  <g
     id="g1194"
     transform="translate(93.1415,5.3691426)">
    <path
       id="path1192"
       fill="currentColor"
       d="m 208,139 c 61,0 117,-33 117,-99 0,-71 -52,-119 -99,-147 -34,-20 -71,-32 -110,-32 -61,0 -116,33 -116,99 0,71 51,119 98,147 34,20 71,32 110,32 z"
       transform="scale(0.0029,-0.0029)" />
  </g>
  <g
     id="g1198"
     transform="translate(87.4392,4.6323426)">
    <path
       id="path1196"
       fill="currentColor"
       d="m 208,139 c 61,0 117,-33 117,-99 0,-71 -52,-119 -99,-147 -34,-20 -71,-32 -110,-32 -61,0 -116,33 -116,99 0,71 51,119 98,147 34,20 71,32 110,32 z"
       transform="scale(0.0029,-0.0029)" />
  </g>
  <g
     id="g1202"
     transform="translate(13.5205,5.3691426)">
    <rect
       id="rect1200"
       fill="currentColor"
       ry="0.042100001"
       height="2.9709001"
       width="0.1228"
       y="-3.4586"
       x="-0.0614" />
  </g>
  <g
     id="g1206"
     transform="translate(88.3343,5.3691426)">
    <rect
       id="rect1204"
       fill="currentColor"
       ry="0.042100001"
       height="1.9617"
       width="0.1228"
       y="-2.8176999"
       x="-0.0614" />
  </g>
  <g
     id="g1210"
     transform="translate(85.2827,5.0007426)">
    <path
       id="path1208"
       fill="currentColor"
       d="m 208,139 c 61,0 117,-33 117,-99 0,-71 -52,-119 -99,-147 -34,-20 -71,-32 -110,-32 -61,0 -116,33 -116,99 0,71 51,119 98,147 34,20 71,32 110,32 z"
       transform="scale(0.0029,-0.0029)" />
  </g>
</svg>
