<?xml version="1.0" encoding="UTF-8" standalone="no"?>
<svg
   xmlns:dc="http://purl.org/dc/elements/1.1/"
   xmlns:cc="http://creativecommons.org/ns#"
   xmlns:rdf="http://www.w3.org/1999/02/22-rdf-syntax-ns#"
   xmlns:svg="http://www.w3.org/2000/svg"
   xmlns="http://www.w3.org/2000/svg"
   xmlns:sodipodi="http://sodipodi.sourceforge.net/DTD/sodipodi-0.dtd"
   xmlns:inkscape="http://www.inkscape.org/namespaces/inkscape"
   sodipodi:docname="bwv-1004_5_for_PNGs-5.svg"
   id="svg964"
   viewBox="0 0 213.39137 9.4031085"
   height="15.697867mm"
   width="356.24283mm"
   version="1.2">
  <metadata
     id="metadata970">
    <rdf:RDF>
      <cc:Work
         rdf:about="">
        <dc:format>image/svg+xml</dc:format>
        <dc:type
           rdf:resource="http://purl.org/dc/dcmitype/StillImage" />
      </cc:Work>
    </rdf:RDF>
  </metadata>
  <defs
     id="defs968" />
  <sodipodi:namedview
     id="namedview966"
     inkscape:window-height="480"
     inkscape:window-width="640"
     inkscape:pageshadow="2"
     inkscape:pageopacity="0"
     guidetolerance="10"
     gridtolerance="10"
     objecttolerance="10"
     borderopacity="1"
     bordercolor="#666666"
     pagecolor="#ffffff" />
  <style
     id="style2"
     type="text/css"><![CDATA[
tspan { white-space: pre; }
]]></style>
  <g
     id="g6"
     transform="translate(0,7.1900079)">
    <line
       id="line4"
       y2="0"
       x2="213.34419"
       y1="0"
       x1="0.047200002"
       stroke="currentColor"
       stroke-width="0.0944"
       stroke-linecap="round"
       stroke-linejoin="round" />
  </g>
  <g
     id="g10"
     transform="translate(0,6.4532079)">
    <line
       id="line8"
       y2="0"
       x2="213.34419"
       y1="0"
       x1="0.047200002"
       stroke="currentColor"
       stroke-width="0.0944"
       stroke-linecap="round"
       stroke-linejoin="round" />
  </g>
  <g
     id="g14"
     transform="translate(0,5.7163079)">
    <line
       id="line12"
       y2="0"
       x2="213.34419"
       y1="0"
       x1="0.047200002"
       stroke="currentColor"
       stroke-width="0.0944"
       stroke-linecap="round"
       stroke-linejoin="round" />
  </g>
  <g
     id="g18"
     transform="translate(0,4.9795079)">
    <line
       id="line16"
       y2="0"
       x2="213.34419"
       y1="0"
       x1="0.047200002"
       stroke="currentColor"
       stroke-width="0.0944"
       stroke-linecap="round"
       stroke-linejoin="round" />
  </g>
  <g
     id="g22"
     transform="translate(0,4.2427079)">
    <line
       id="line20"
       y2="0"
       x2="213.34419"
       y1="0"
       x1="0.047200002"
       stroke="currentColor"
       stroke-width="0.0944"
       stroke-linecap="round"
       stroke-linejoin="round" />
  </g>
  <g
     id="g26"
     transform="translate(27.8909,5.7163079)">
    <rect
       id="rect24"
       fill="currentColor"
       ry="0.0000"
       height="2.9474001"
       width="0.1794"
       y="-1.4737"
       x="0" />
  </g>
  <g
     id="g30"
     transform="translate(125.1863,5.7163079)">
    <rect
       id="rect28"
       fill="currentColor"
       ry="0.0000"
       height="2.9474001"
       width="0.1794"
       y="-1.4737"
       x="0" />
  </g>
  <g
     id="g34"
     transform="translate(73.244,5.7163079)">
    <rect
       id="rect32"
       fill="currentColor"
       ry="0.0000"
       height="2.9474001"
       width="0.1794"
       y="-1.4737"
       x="0" />
  </g>
  <g
     id="g38"
     transform="translate(213.2119,5.7163079)">
    <rect
       id="rect36"
       fill="currentColor"
       ry="0.0000"
       height="2.9474001"
       width="0.1794"
       y="-1.4737"
       x="0" />
  </g>
  <g
     id="g42"
     transform="translate(154.6311,5.7163079)">
    <rect
       id="rect40"
       fill="currentColor"
       ry="0.0000"
       height="2.9474001"
       width="0.1794"
       y="-1.4737"
       x="0" />
  </g>
  <g
     id="g46"
     transform="translate(97.1385,5.7163079)">
    <rect
       id="rect44"
       fill="currentColor"
       ry="0.0000"
       height="2.9474001"
       width="0.1794"
       y="-1.4737"
       x="0" />
  </g>
  <g
     id="g50"
     transform="translate(0,7.9269079)">
    <rect
       id="rect48"
       fill="currentColor"
       ry="0.084100001"
       height="0.1681"
       width="1.3706"
       y="-0.084100001"
       x="203.9052" />
  </g>
  <g
     id="g54"
     transform="translate(0,3.5058079)">
    <rect
       id="rect52"
       fill="currentColor"
       ry="0.084100001"
       height="0.1681"
       width="1.4347"
       y="-0.084100001"
       x="182.3822" />
  </g>
  <g
     id="g58"
     transform="translate(0,3.5058079)">
    <rect
       id="rect56"
       fill="currentColor"
       ry="0.084100001"
       height="0.1681"
       width="1.4347"
       y="-0.084100001"
       x="177.5087" />
  </g>
  <g
     id="g62"
     transform="translate(0,3.5058079)">
    <rect
       id="rect60"
       fill="currentColor"
       ry="0.084100001"
       height="0.1681"
       width="1.4347"
       y="-0.084100001"
       x="175.6022" />
  </g>
  <g
     id="g66"
     transform="translate(0,7.9269079)">
    <rect
       id="rect64"
       fill="currentColor"
       ry="0.084100001"
       height="0.1681"
       width="1.3779"
       y="-0.084100001"
       x="156.08411" />
  </g>
  <g
     id="g70"
     transform="translate(0,7.9269079)">
    <rect
       id="rect68"
       fill="currentColor"
       ry="0.084100001"
       height="0.1681"
       width="1.4347"
       y="-0.084100001"
       x="151.9855" />
  </g>
  <g
     id="g74"
     transform="translate(0,3.5058079)">
    <rect
       id="rect72"
       fill="currentColor"
       ry="0.084100001"
       height="0.1681"
       width="1.4347"
       y="-0.084100001"
       x="138.98019" />
  </g>
  <g
     id="g78"
     transform="translate(0,3.5058079)">
    <rect
       id="rect76"
       fill="currentColor"
       ry="0.084100001"
       height="0.1681"
       width="1.4347"
       y="-0.084100001"
       x="131.7002" />
  </g>
  <g
     id="g82"
     transform="translate(0,3.5058079)">
    <rect
       id="rect80"
       fill="currentColor"
       ry="0.084100001"
       height="0.1681"
       width="1.3779"
       y="-0.084100001"
       x="119.0105" />
  </g>
  <g
     id="g86"
     transform="translate(0,3.5058079)">
    <rect
       id="rect84"
       fill="currentColor"
       ry="0.084100001"
       height="0.1681"
       width="1.4347"
       y="-0.084100001"
       x="113.8243" />
  </g>
  <g
     id="g90"
     transform="translate(0,3.5058079)">
    <rect
       id="rect88"
       fill="currentColor"
       ry="0.084100001"
       height="0.1681"
       width="1.4347"
       y="-0.084100001"
       x="111.9178" />
  </g>
  <g
     id="g94"
     transform="translate(0,7.9269079)">
    <rect
       id="rect92"
       fill="currentColor"
       ry="0.084100001"
       height="0.1681"
       width="1.4347"
       y="-0.084100001"
       x="74.084297" />
  </g>
  <g
     id="g98"
     transform="translate(0,8.6637079)">
    <rect
       id="rect96"
       fill="currentColor"
       ry="0.084100001"
       height="0.1681"
       width="1.4347"
       y="-0.084100001"
       x="74.084297" />
  </g>
  <g
     id="g102"
     transform="translate(0,7.9269079)">
    <rect
       id="rect100"
       fill="currentColor"
       ry="0.084100001"
       height="0.1681"
       width="1.3706"
       y="-0.084100001"
       x="69.462502" />
  </g>
  <g
     id="g106"
     transform="translate(0,7.9269079)">
    <rect
       id="rect104"
       fill="currentColor"
       ry="0.084100001"
       height="0.1681"
       width="1.3779"
       y="-0.084100001"
       x="52.172798" />
  </g>
  <g
     id="g110"
     transform="translate(0,7.9269079)">
    <rect
       id="rect108"
       fill="currentColor"
       ry="0.084100001"
       height="0.1681"
       width="1.3779"
       y="-0.084100001"
       x="46.931" />
  </g>
  <g
     id="g114"
     transform="translate(0,3.5058079)">
    <rect
       id="rect112"
       fill="currentColor"
       ry="0.084100001"
       height="0.1681"
       width="1.4347"
       y="-0.084100001"
       x="36.804699" />
  </g>
  <g
     id="g118"
     transform="translate(0,7.9269079)">
    <rect
       id="rect116"
       fill="currentColor"
       ry="0.084100001"
       height="0.1681"
       width="1.3706"
       y="-0.084100001"
       x="29.655899" />
  </g>
  <g
     id="g122"
     transform="translate(0,3.5058079)">
    <rect
       id="rect120"
       fill="currentColor"
       ry="0.084100001"
       height="0.1681"
       width="1.4347"
       y="-0.084100001"
       x="17.5823" />
  </g>
  <g
     id="g126"
     transform="translate(0,3.5058079)">
    <rect
       id="rect124"
       fill="currentColor"
       ry="0.084100001"
       height="0.1681"
       width="1.4347"
       y="-0.084100001"
       x="14.4758" />
  </g>
  <g
     id="g130"
     transform="translate(184.7777,5.7163079)">
    <rect
       id="rect128"
       fill="currentColor"
       ry="0.0000"
       height="2.9474001"
       width="0.1794"
       y="-1.4737"
       x="0" />
  </g>
  <g
     id="g134"
     transform="translate(50.7197,5.7163079)">
    <rect
       id="rect132"
       fill="currentColor"
       ry="0.0000"
       height="2.9474001"
       width="0.1794"
       y="-1.4737"
       x="0" />
  </g>
  <g
     id="g138"
     transform="translate(145.4446,6.0848079)">
    <path
       id="path136"
       fill="currentColor"
       d="m 208,139 c 61,0 117,-33 117,-99 0,-71 -52,-119 -99,-147 -34,-20 -71,-32 -110,-32 -61,0 -116,33 -116,99 0,71 51,119 98,147 34,20 71,32 110,32 z"
       transform="scale(0.0029,-0.0029)" />
  </g>
  <g
     id="g142"
     transform="translate(152.2246,7.9269079)">
    <path
       id="path140"
       fill="currentColor"
       d="m 208,139 c 61,0 117,-33 117,-99 0,-71 -52,-119 -99,-147 -34,-20 -71,-32 -110,-32 -61,0 -116,33 -116,99 0,71 51,119 98,147 34,20 71,32 110,32 z"
       transform="scale(0.0029,-0.0029)" />
  </g>
  <g
     id="g146"
     transform="translate(153.1197,5.7163079)">
    <rect
       id="rect144"
       fill="currentColor"
       ry="0.042100001"
       height="2.8380001"
       width="0.1228"
       y="-0.74669999"
       x="-0.0614" />
  </g>
  <g
     id="g150"
     transform="translate(156.2663,8.2953079)">
    <path
       id="path148"
       fill="currentColor"
       d="m 208,139 c 61,0 117,-33 117,-99 0,-71 -52,-119 -99,-147 -34,-20 -71,-32 -110,-32 -61,0 -116,33 -116,99 0,71 51,119 98,147 34,20 71,32 110,32 z"
       transform="scale(0.0029,-0.0029)" />
  </g>
  <g
     id="g154"
     transform="translate(157.1614,5.7163079)">
    <rect
       id="rect152"
       fill="currentColor"
       ry="0.042100001"
       height="3.0727999"
       width="0.1228"
       y="-0.61309999"
       x="-0.0614" />
  </g>
  <g
     id="g158"
     transform="translate(146.3397,5.7163079)">
    <rect
       id="rect156"
       fill="currentColor"
       ry="0.042100001"
       height="2.0815001"
       width="0.1228"
       y="-1.8322999"
       x="-0.0614" />
  </g>
  <g
     id="g162"
     transform="translate(148.1616,6.8216079)">
    <path
       id="path160"
       fill="currentColor"
       d="m 208,139 c 61,0 117,-33 117,-99 0,-71 -52,-119 -99,-147 -34,-20 -71,-32 -110,-32 -61,0 -116,33 -116,99 0,71 51,119 98,147 34,20 71,32 110,32 z"
       transform="scale(0.0029,-0.0029)" />
  </g>
  <g
     id="g166"
     transform="translate(149.0567,5.7163079)">
    <rect
       id="rect164"
       fill="currentColor"
       ry="0.042100001"
       height="2.3833001"
       width="0.1228"
       y="-1.3972"
       x="-0.0614" />
  </g>
  <g
     id="g170"
     transform="translate(147.0011,6.8216079)">
    <path
       id="path168"
       fill="currentColor"
       d="m 0,114 c 0,12 7,22 18,26 l 37,15 v 151 c 0,12 10,22 22,22 12,0 22,-10 22,-22 V 172 l 77,29 v 152 c 0,12 10,22 22,22 12,0 22,-10 22,-22 V 219 l 16,6 c 3,1 8,2 11,2 15,0 28,-12 28,-28 v -50 c 0,-12 -7,-23 -18,-27 L 220,108 V -44 l 16,7 c 3,1 8,2 11,2 15,0 28,-13 28,-29 v -50 c 0,-12 -7,-22 -18,-26 l -37,-15 v -151 c 0,-12 -10,-22 -22,-22 -12,0 -22,10 -22,22 v 134 l -77,-29 v -152 c 0,-12 -10,-22 -22,-22 -12,0 -22,10 -22,22 v 134 l -16,-6 c -3,-1 -8,-2 -11,-2 -15,0 -28,12 -28,28 v 50 c 0,12 7,23 18,27 l 37,14 V 44 L 39,37 C 36,36 31,35 28,35 13,35 0,48 0,64 Z M 176,91 99,61 V -91 l 77,30 z"
       transform="scale(0.0029,-0.0029)" />
  </g>
  <g
     id="g174"
     transform="translate(150.0681,7.5585079)">
    <path
       id="path172"
       fill="currentColor"
       d="m 208,139 c 61,0 117,-33 117,-99 0,-71 -52,-119 -99,-147 -34,-20 -71,-32 -110,-32 -61,0 -116,33 -116,99 0,71 51,119 98,147 34,20 71,32 110,32 z"
       transform="scale(0.0029,-0.0029)" />
  </g>
  <g
     id="g178"
     transform="translate(150.9632,5.7163079)">
    <rect
       id="rect176"
       fill="currentColor"
       ry="0.042100001"
       height="2.8148"
       width="0.1228"
       y="-1.092"
       x="-0.0614" />
  </g>
  <g
     id="g182"
     transform="translate(164.6914,5.7163079)">
    <rect
       id="rect180"
       fill="currentColor"
       ry="0.042100001"
       height="2.3241999"
       width="0.1228"
       y="-1.3381"
       x="-0.0614" />
  </g>
  <g
     id="g186"
     transform="translate(162.6358,6.8216079)">
    <path
       id="path184"
       fill="currentColor"
       d="m 0,114 c 0,12 7,22 18,26 l 37,15 v 151 c 0,12 10,22 22,22 12,0 22,-10 22,-22 V 172 l 77,29 v 152 c 0,12 10,22 22,22 12,0 22,-10 22,-22 V 219 l 16,6 c 3,1 8,2 11,2 15,0 28,-12 28,-28 v -50 c 0,-12 -7,-23 -18,-27 L 220,108 V -44 l 16,7 c 3,1 8,2 11,2 15,0 28,-13 28,-29 v -50 c 0,-12 -7,-22 -18,-26 l -37,-15 v -151 c 0,-12 -10,-22 -22,-22 -12,0 -22,10 -22,22 v 134 l -77,-29 v -152 c 0,-12 -10,-22 -22,-22 -12,0 -22,10 -22,22 v 134 l -16,-6 c -3,-1 -8,-2 -11,-2 -15,0 -28,12 -28,28 v 50 c 0,12 7,23 18,27 l 37,14 V 44 L 39,37 C 36,36 31,35 28,35 13,35 0,48 0,64 Z M 176,91 99,61 V -91 l 77,30 z"
       transform="scale(0.0029,-0.0029)" />
  </g>
  <g
     id="g190"
     transform="translate(165.9528,6.4532079)">
    <path
       id="path188"
       fill="currentColor"
       d="m 208,139 c 61,0 117,-33 117,-99 0,-71 -52,-119 -99,-147 -34,-20 -71,-32 -110,-32 -61,0 -116,33 -116,99 0,71 51,119 98,147 34,20 71,32 110,32 z"
       transform="scale(0.0029,-0.0029)" />
  </g>
  <g
     id="g194"
     transform="translate(166.8479,5.7163079)">
    <rect
       id="rect192"
       fill="currentColor"
       ry="0.042100001"
       height="4.1722002"
       width="0.1228"
       y="-3.5546"
       x="-0.0614" />
  </g>
  <g
     id="g198"
     transform="translate(163.7963,6.8216079)">
    <path
       id="path196"
       fill="currentColor"
       d="m 208,139 c 61,0 117,-33 117,-99 0,-71 -52,-119 -99,-147 -34,-20 -71,-32 -110,-32 -61,0 -116,33 -116,99 0,71 51,119 98,147 34,20 71,32 110,32 z"
       transform="scale(0.0029,-0.0029)" />
  </g>
  <g
     id="g202"
     transform="translate(168.5613,4.6111079)">
    <path
       id="path200"
       fill="currentColor"
       d="m 208,139 c 61,0 117,-33 117,-99 0,-71 -52,-119 -99,-147 -34,-20 -71,-32 -110,-32 -61,0 -116,33 -116,99 0,71 51,119 98,147 34,20 71,32 110,32 z"
       transform="scale(0.0029,-0.0029)" />
  </g>
  <g
     id="g206"
     transform="translate(169.4564,5.7163079)">
    <rect
       id="rect204"
       fill="currentColor"
       ry="0.042100001"
       height="2.3301001"
       width="0.1228"
       y="-3.5546"
       x="-0.0614" />
  </g>
  <g
     id="g210"
     transform="translate(158.6728,7.5585079)">
    <path
       id="path208"
       fill="currentColor"
       d="m 208,139 c 61,0 117,-33 117,-99 0,-71 -52,-119 -99,-147 -34,-20 -71,-32 -110,-32 -61,0 -116,33 -116,99 0,71 51,119 98,147 34,20 71,32 110,32 z"
       transform="scale(0.0029,-0.0029)" />
  </g>
  <g
     id="g214"
     transform="translate(159.5679,5.7163079)">
    <rect
       id="rect212"
       fill="currentColor"
       ry="0.042100001"
       height="2.5676999"
       width="0.1228"
       y="-0.8448"
       x="-0.0614" />
  </g>
  <g
     id="g218"
     transform="translate(155.4105,8.2953079)">
    <path
       id="path216"
       fill="currentColor"
       d="m -8,375 c 8,5 18,7 27,7 9,0 20,-2 28,-7 l -3,-196 99,24 h 4 c 11,0 20,-8 20,-19 l 8,-559 c -8,-5 -19,-7 -28,-7 -9,0 -19,2 -27,7 l 3,196 -99,-24 h -5 c -11,0 -19,8 -19,19 z M 127,109 42,89 l -2,-198 84,20 z"
       transform="scale(0.0029,-0.0029)" />
  </g>
  <g
     id="g222"
     transform="translate(161.0793,6.4532079)">
    <path
       id="path220"
       fill="currentColor"
       d="m 208,139 c 61,0 117,-33 117,-99 0,-71 -52,-119 -99,-147 -34,-20 -71,-32 -110,-32 -61,0 -116,33 -116,99 0,71 51,119 98,147 34,20 71,32 110,32 z"
       transform="scale(0.0029,-0.0029)" />
  </g>
  <g
     id="g226"
     transform="translate(161.9744,5.7163079)">
    <rect
       id="rect224"
       fill="currentColor"
       ry="0.042100001"
       height="1.6942"
       width="0.1228"
       y="-1.0765001"
       x="-0.0614" />
  </g>
  <g
     id="g230"
     transform="translate(128.0214,5.7163079)">
    <rect
       id="rect228"
       fill="currentColor"
       ry="0.042100001"
       height="3.0743999"
       width="0.1228"
       y="-3.5620999"
       x="-0.0614" />
  </g>
  <g
     id="g234"
     transform="translate(125.9658,5.3479079)">
    <path
       id="path232"
       fill="currentColor"
       d="m 0,114 c 0,12 7,22 18,26 l 37,15 v 151 c 0,12 10,22 22,22 12,0 22,-10 22,-22 V 172 l 77,29 v 152 c 0,12 10,22 22,22 12,0 22,-10 22,-22 V 219 l 16,6 c 3,1 8,2 11,2 15,0 28,-12 28,-28 v -50 c 0,-12 -7,-23 -18,-27 L 220,108 V -44 l 16,7 c 3,1 8,2 11,2 15,0 28,-13 28,-29 v -50 c 0,-12 -7,-22 -18,-26 l -37,-15 v -151 c 0,-12 -10,-22 -22,-22 -12,0 -22,10 -22,22 v 134 l -77,-29 v -152 c 0,-12 -10,-22 -22,-22 -12,0 -22,10 -22,22 v 134 l -16,-6 c -3,-1 -8,-2 -11,-2 -15,0 -28,12 -28,28 v 50 c 0,12 7,23 18,27 l 37,14 V 44 L 39,37 C 36,36 31,35 28,35 13,35 0,48 0,64 Z M 176,91 99,61 V -91 l 77,30 z"
       transform="scale(0.0029,-0.0029)" />
  </g>
  <g
     id="g238"
     transform="translate(129.5328,4.6111079)">
    <path
       id="path236"
       fill="currentColor"
       d="m 208,139 c 61,0 117,-33 117,-99 0,-71 -52,-119 -99,-147 -34,-20 -71,-32 -110,-32 -61,0 -116,33 -116,99 0,71 51,119 98,147 34,20 71,32 110,32 z"
       transform="scale(0.0029,-0.0029)" />
  </g>
  <g
     id="g242"
     transform="translate(130.4279,5.7163079)">
    <rect
       id="rect240"
       fill="currentColor"
       ry="0.042100001"
       height="2.6315999"
       width="0.1228"
       y="-3.8561001"
       x="-0.0614" />
  </g>
  <g
     id="g246"
     transform="translate(204.9138,4.2427079)">
    <polygon
       id="polygon244"
       points="0.0421,0.1347 0.0421,-0.1347 6.806,-0.1347 6.806,0.1347 "
       stroke="currentColor"
       fill="currentColor"
       stroke-width="0.0842"
       stroke-linecap="round"
       stroke-linejoin="round" />
  </g>
  <g
     id="g250"
     transform="translate(204.9138,4.8499079)">
    <polygon
       id="polygon248"
       points="0.0421,0.1347 0.0421,-0.1347 6.806,-0.1347 6.806,0.1347 "
       stroke="currentColor"
       fill="currentColor"
       stroke-width="0.0842"
       stroke-linecap="round"
       stroke-linejoin="round" />
  </g>
  <g
     id="g254"
     transform="translate(118.3369,3.1374079)">
    <path
       id="path252"
       fill="currentColor"
       d="m -8,375 c 8,5 18,7 27,7 9,0 20,-2 28,-7 l -3,-196 99,24 h 4 c 11,0 20,-8 20,-19 l 8,-559 c -8,-5 -19,-7 -28,-7 -9,0 -19,2 -27,7 l 3,196 -99,-24 h -5 c -11,0 -19,8 -19,19 z M 127,109 42,89 l -2,-198 84,20 z"
       transform="scale(0.0029,-0.0029)" />
  </g>
  <g
     id="g258"
     transform="translate(121.0992,3.8742079)">
    <path
       id="path256"
       fill="currentColor"
       d="m 208,139 c 61,0 117,-33 117,-99 0,-71 -52,-119 -99,-147 -34,-20 -71,-32 -110,-32 -61,0 -116,33 -116,99 0,71 51,119 98,147 34,20 71,32 110,32 z"
       transform="scale(0.0029,-0.0029)" />
  </g>
  <g
     id="g262"
     transform="translate(121.9943,5.7163079)">
    <rect
       id="rect260"
       fill="currentColor"
       ry="0.042100001"
       height="2.5739"
       width="0.1228"
       y="-4.5352998"
       x="-0.0614" />
  </g>
  <g
     id="g266"
     transform="translate(123.0057,4.6111079)">
    <path
       id="path264"
       fill="currentColor"
       d="m 208,139 c 61,0 117,-33 117,-99 0,-71 -52,-119 -99,-147 -34,-20 -71,-32 -110,-32 -61,0 -116,33 -116,99 0,71 51,119 98,147 34,20 71,32 110,32 z"
       transform="scale(0.0029,-0.0029)" />
  </g>
  <g
     id="g270"
     transform="translate(123.9008,5.7163079)">
    <rect
       id="rect268"
       fill="currentColor"
       ry="0.042100001"
       height="3.2000999"
       width="0.1228"
       y="-4.4246001"
       x="-0.0614" />
  </g>
  <g
     id="g274"
     transform="translate(127.1263,5.3479079)">
    <path
       id="path272"
       fill="currentColor"
       d="m 208,139 c 61,0 117,-33 117,-99 0,-71 -52,-119 -99,-147 -34,-20 -71,-32 -110,-32 -61,0 -116,33 -116,99 0,71 51,119 98,147 34,20 71,32 110,32 z"
       transform="scale(0.0029,-0.0029)" />
  </g>
  <g
     id="g278"
     transform="translate(139.2193,3.5058079)">
    <path
       id="path276"
       fill="currentColor"
       d="m 208,139 c 61,0 117,-33 117,-99 0,-71 -52,-119 -99,-147 -34,-20 -71,-32 -110,-32 -61,0 -116,33 -116,99 0,71 51,119 98,147 34,20 71,32 110,32 z"
       transform="scale(0.0029,-0.0029)" />
  </g>
  <g
     id="g282"
     transform="translate(140.1144,5.7163079)">
    <rect
       id="rect280"
       fill="currentColor"
       ry="0.042100001"
       height="1.7896"
       width="0.1228"
       y="-4.1192999"
       x="-0.0614" />
  </g>
  <g
     id="g286"
     transform="translate(141.1258,4.2427079)">
    <path
       id="path284"
       fill="currentColor"
       d="m 208,139 c 61,0 117,-33 117,-99 0,-71 -52,-119 -99,-147 -34,-20 -71,-32 -110,-32 -61,0 -116,33 -116,99 0,71 51,119 98,147 34,20 71,32 110,32 z"
       transform="scale(0.0029,-0.0029)" />
  </g>
  <g
     id="g290"
     transform="translate(142.0209,5.7163079)">
    <rect
       id="rect288"
       fill="currentColor"
       ry="0.042100001"
       height="2.3934"
       width="0.1228"
       y="-3.9863999"
       x="-0.0614" />
  </g>
  <g
     id="g294"
     transform="translate(143.5381,5.3479079)">
    <path
       id="path292"
       fill="currentColor"
       d="m 208,139 c 61,0 117,-33 117,-99 0,-71 -52,-119 -99,-147 -34,-20 -71,-32 -110,-32 -61,0 -116,33 -116,99 0,71 51,119 98,147 34,20 71,32 110,32 z"
       transform="scale(0.0029,-0.0029)" />
  </g>
  <g
     id="g298"
     transform="translate(144.4332,5.7163079)">
    <rect
       id="rect296"
       fill="currentColor"
       ry="0.042100001"
       height="3.3304999"
       width="0.1228"
       y="-3.8181"
       x="-0.0614" />
  </g>
  <g
     id="g302"
     transform="translate(142.6822,5.3479079)">
    <path
       id="path300"
       fill="currentColor"
       d="m -8,375 c 8,5 18,7 27,7 9,0 20,-2 28,-7 l -3,-196 99,24 h 4 c 11,0 20,-8 20,-19 l 8,-559 c -8,-5 -19,-7 -28,-7 -9,0 -19,2 -27,7 l 3,196 -99,-24 h -5 c -11,0 -19,8 -19,19 z M 127,109 42,89 l -2,-198 84,20 z"
       transform="scale(0.0029,-0.0029)" />
  </g>
  <g
     id="g306"
     transform="translate(131.9393,3.5058079)">
    <path
       id="path304"
       fill="currentColor"
       d="m 208,139 c 61,0 117,-33 117,-99 0,-71 -52,-119 -99,-147 -34,-20 -71,-32 -110,-32 -61,0 -116,33 -116,99 0,71 51,119 98,147 34,20 71,32 110,32 z"
       transform="scale(0.0029,-0.0029)" />
  </g>
  <g
     id="g310"
     transform="translate(132.8344,5.7163079)">
    <rect
       id="rect308"
       fill="currentColor"
       ry="0.042100001"
       height="1.8203"
       width="0.1228"
       y="-4.1501002"
       x="-0.0614" />
  </g>
  <g
     id="g314"
     transform="translate(134.0958,3.8742079)">
    <path
       id="path312"
       fill="currentColor"
       d="m 208,139 c 61,0 117,-33 117,-99 0,-71 -52,-119 -99,-147 -34,-20 -71,-32 -110,-32 -61,0 -116,33 -116,99 0,71 51,119 98,147 34,20 71,32 110,32 z"
       transform="scale(0.0029,-0.0029)" />
  </g>
  <g
     id="g318"
     transform="translate(134.9909,5.7163079)">
    <rect
       id="rect316"
       fill="currentColor"
       ry="0.042100001"
       height="2.4521999"
       width="0.1228"
       y="-4.4136"
       x="-0.0614" />
  </g>
  <g
     id="g322"
     transform="translate(136.8128,4.2427079)">
    <path
       id="path320"
       fill="currentColor"
       d="m 208,139 c 61,0 117,-33 117,-99 0,-71 -52,-119 -99,-147 -34,-20 -71,-32 -110,-32 -61,0 -116,33 -116,99 0,71 51,119 98,147 34,20 71,32 110,32 z"
       transform="scale(0.0029,-0.0029)" />
  </g>
  <g
     id="g326"
     transform="translate(137.7079,5.7163079)">
    <rect
       id="rect324"
       fill="currentColor"
       ry="0.042100001"
       height="2.6942"
       width="0.1228"
       y="-4.2870998"
       x="-0.0614" />
  </g>
  <g
     id="g330"
     transform="translate(135.6523,4.2427079)">
    <path
       id="path328"
       fill="currentColor"
       d="m 0,114 c 0,12 7,22 18,26 l 37,15 v 151 c 0,12 10,22 22,22 12,0 22,-10 22,-22 V 172 l 77,29 v 152 c 0,12 10,22 22,22 12,0 22,-10 22,-22 V 219 l 16,6 c 3,1 8,2 11,2 15,0 28,-12 28,-28 v -50 c 0,-12 -7,-23 -18,-27 L 220,108 V -44 l 16,7 c 3,1 8,2 11,2 15,0 28,-13 28,-29 v -50 c 0,-12 -7,-22 -18,-26 l -37,-15 v -151 c 0,-12 -10,-22 -22,-22 -12,0 -22,10 -22,22 v 134 l -77,-29 v -152 c 0,-12 -10,-22 -22,-22 -12,0 -22,10 -22,22 v 134 l -16,-6 c -3,-1 -8,-2 -11,-2 -15,0 -28,12 -28,28 v 50 c 0,12 7,23 18,27 l 37,14 V 44 L 39,37 C 36,36 31,35 28,35 13,35 0,48 0,64 Z M 176,91 99,61 V -91 l 77,30 z"
       transform="scale(0.0029,-0.0029)" />
  </g>
  <g
     id="g334"
     transform="translate(207.3876,5.7163079)">
    <rect
       id="rect332"
       fill="currentColor"
       ry="0.042100001"
       height="2.0913"
       width="0.1228"
       y="-1.4737"
       x="-0.0614" />
  </g>
  <g
     id="g338"
     transform="translate(204.0801,7.9269079)">
    <path
       id="path336"
       fill="currentColor"
       d="m 208,139 c 61,0 117,-33 117,-99 0,-71 -52,-119 -99,-147 -34,-20 -71,-32 -110,-32 -61,0 -116,33 -116,99 0,71 51,119 98,147 34,20 71,32 110,32 z"
       transform="scale(0.0029,-0.0029)" />
  </g>
  <g
     id="g342"
     transform="translate(204.9752,5.7163079)">
    <rect
       id="rect340"
       fill="currentColor"
       ry="0.042100001"
       height="3.5650001"
       width="0.1228"
       y="-1.4737"
       x="-0.0614" />
  </g>
  <g
     id="g346"
     transform="translate(202.9196,7.9269079)">
    <path
       id="path344"
       fill="currentColor"
       d="m 0,114 c 0,12 7,22 18,26 l 37,15 v 151 c 0,12 10,22 22,22 12,0 22,-10 22,-22 V 172 l 77,29 v 152 c 0,12 10,22 22,22 12,0 22,-10 22,-22 V 219 l 16,6 c 3,1 8,2 11,2 15,0 28,-12 28,-28 v -50 c 0,-12 -7,-23 -18,-27 L 220,108 V -44 l 16,7 c 3,1 8,2 11,2 15,0 28,-13 28,-29 v -50 c 0,-12 -7,-22 -18,-26 l -37,-15 v -151 c 0,-12 -10,-22 -22,-22 -12,0 -22,10 -22,22 v 134 l -77,-29 v -152 c 0,-12 -10,-22 -22,-22 -12,0 -22,10 -22,22 v 134 l -16,-6 c -3,-1 -8,-2 -11,-2 -15,0 -28,12 -28,28 v 50 c 0,12 7,23 18,27 l 37,14 V 44 L 39,37 C 36,36 31,35 28,35 13,35 0,48 0,64 Z M 176,91 99,61 V -91 l 77,30 z"
       transform="scale(0.0029,-0.0029)" />
  </g>
  <g
     id="g350"
     transform="translate(206.4925,6.4532079)">
    <path
       id="path348"
       fill="currentColor"
       d="m 208,139 c 61,0 117,-33 117,-99 0,-71 -52,-119 -99,-147 -34,-20 -71,-32 -110,-32 -61,0 -116,33 -116,99 0,71 51,119 98,147 34,20 71,32 110,32 z"
       transform="scale(0.0029,-0.0029)" />
  </g>
  <g
     id="g354"
     transform="translate(205.6366,6.4532079)">
    <path
       id="path352"
       fill="currentColor"
       d="m -8,375 c 8,5 18,7 27,7 9,0 20,-2 28,-7 l -3,-196 99,24 h 4 c 11,0 20,-8 20,-19 l 8,-559 c -8,-5 -19,-7 -28,-7 -9,0 -19,2 -27,7 l 3,196 -99,-24 h -5 c -11,0 -19,8 -19,19 z M 127,109 42,89 l -2,-198 84,20 z"
       transform="scale(0.0029,-0.0029)" />
  </g>
  <g
     id="g358"
     transform="translate(208.6489,6.8216079)">
    <path
       id="path356"
       fill="currentColor"
       d="m 208,139 c 61,0 117,-33 117,-99 0,-71 -52,-119 -99,-147 -34,-20 -71,-32 -110,-32 -61,0 -116,33 -116,99 0,71 51,119 98,147 34,20 71,32 110,32 z"
       transform="scale(0.0029,-0.0029)" />
  </g>
  <g
     id="g362"
     transform="translate(209.5441,5.7163079)">
    <rect
       id="rect360"
       fill="currentColor"
       ry="0.042100001"
       height="2.4597001"
       width="0.1228"
       y="-1.4737"
       x="-0.0614" />
  </g>
  <g
     id="g366"
     transform="translate(196.6396,6.0848079)">
    <path
       id="path364"
       fill="currentColor"
       d="m 208,139 c 61,0 117,-33 117,-99 0,-71 -52,-119 -99,-147 -34,-20 -71,-32 -110,-32 -61,0 -116,33 -116,99 0,71 51,119 98,147 34,20 71,32 110,32 z"
       transform="scale(0.0029,-0.0029)" />
  </g>
  <g
     id="g370"
     transform="translate(197.5347,5.7163079)">
    <rect
       id="rect368"
       fill="currentColor"
       ry="0.042100001"
       height="2.4195001"
       width="0.1228"
       y="-2.1703"
       x="-0.0614" />
  </g>
  <g
     id="g374"
     transform="translate(199.3566,6.4532079)">
    <path
       id="path372"
       fill="currentColor"
       d="m 208,139 c 61,0 117,-33 117,-99 0,-71 -52,-119 -99,-147 -34,-20 -71,-32 -110,-32 -61,0 -116,33 -116,99 0,71 51,119 98,147 34,20 71,32 110,32 z"
       transform="scale(0.0029,-0.0029)" />
  </g>
  <g
     id="g378"
     transform="translate(200.2517,5.7163079)">
    <rect
       id="rect376"
       fill="currentColor"
       ry="0.042100001"
       height="2.7386999"
       width="0.1228"
       y="-2.1210999"
       x="-0.0614" />
  </g>
  <g
     id="g382"
     transform="translate(198.1961,6.4532079)">
    <path
       id="path380"
       fill="currentColor"
       d="m 0,114 c 0,12 7,22 18,26 l 37,15 v 151 c 0,12 10,22 22,22 12,0 22,-10 22,-22 V 172 l 77,29 v 152 c 0,12 10,22 22,22 12,0 22,-10 22,-22 V 219 l 16,6 c 3,1 8,2 11,2 15,0 28,-12 28,-28 v -50 c 0,-12 -7,-23 -18,-27 L 220,108 V -44 l 16,7 c 3,1 8,2 11,2 15,0 28,-13 28,-29 v -50 c 0,-12 -7,-22 -18,-26 l -37,-15 v -151 c 0,-12 -10,-22 -22,-22 -12,0 -22,10 -22,22 v 134 l -77,-29 v -152 c 0,-12 -10,-22 -22,-22 -12,0 -22,10 -22,22 v 134 l -16,-6 c -3,-1 -8,-2 -11,-2 -15,0 -28,12 -28,28 v 50 c 0,12 7,23 18,27 l 37,14 V 44 L 39,37 C 36,36 31,35 28,35 13,35 0,48 0,64 Z M 176,91 99,61 V -91 l 77,30 z"
       transform="scale(0.0029,-0.0029)" />
  </g>
  <g
     id="g386"
     transform="translate(201.5131,6.0848079)">
    <path
       id="path384"
       fill="currentColor"
       d="m 208,139 c 61,0 117,-33 117,-99 0,-71 -52,-119 -99,-147 -34,-20 -71,-32 -110,-32 -61,0 -116,33 -116,99 0,71 51,119 98,147 34,20 71,32 110,32 z"
       transform="scale(0.0029,-0.0029)" />
  </g>
  <g
     id="g390"
     transform="translate(202.4082,5.7163079)">
    <rect
       id="rect388"
       fill="currentColor"
       ry="0.042100001"
       height="2.3311999"
       width="0.1228"
       y="-2.082"
       x="-0.0614" />
  </g>
  <g
     id="g394"
     transform="translate(146.2783,3.8742079)">
    <polygon
       id="polygon392"
       points="0.0421,0.1347 0.0421,-0.1347 6.8607,0.9705 6.8607,1.24 "
       stroke="currentColor"
       fill="currentColor"
       stroke-width="0.0842"
       stroke-linecap="round"
       stroke-linejoin="round" />
  </g>
  <g
     id="g398"
     transform="translate(146.2783,4.4815079)">
    <polygon
       id="polygon396"
       points="0.0421,0.1347 0.0421,-0.1347 6.8607,0.9705 6.8607,1.24 "
       stroke="currentColor"
       fill="currentColor"
       stroke-width="0.0842"
       stroke-linecap="round"
       stroke-linejoin="round" />
  </g>
  <g
     id="g402"
     transform="translate(75.1571,2.4006079)">
    <polygon
       id="polygon400"
       points="0.0421,0.1347 0.0421,-0.1347 6.8001,-0.1347 6.8001,0.1347 "
       stroke="currentColor"
       fill="currentColor"
       stroke-width="0.0842"
       stroke-linecap="round"
       stroke-linejoin="round" />
  </g>
  <g
     id="g406"
     transform="translate(75.1571,3.0078079)">
    <polygon
       id="polygon404"
       points="0.0421,0.1347 0.0421,-0.1347 6.8001,-0.1347 6.8001,0.1347 "
       stroke="currentColor"
       fill="currentColor"
       stroke-width="0.0842"
       stroke-linecap="round"
       stroke-linejoin="round" />
  </g>
  <g
     id="g410"
     transform="translate(84.5936,2.8986079)">
    <polygon
       id="polygon408"
       points="0.0421,0.1347 0.0421,-0.1347 9.9001,-0.1347 9.9001,0.1347 "
       stroke="currentColor"
       fill="currentColor"
       stroke-width="0.0842"
       stroke-linecap="round"
       stroke-linejoin="round" />
  </g>
  <g
     id="g414"
     transform="translate(99.0517,4.2427079)">
    <polygon
       id="polygon412"
       points="0.0421,0.1347 0.0421,-0.1347 6.8001,-0.742 6.8001,-0.4725 "
       stroke="currentColor"
       fill="currentColor"
       stroke-width="0.0842"
       stroke-linecap="round"
       stroke-linejoin="round" />
  </g>
  <g
     id="g418"
     transform="translate(99.0517,4.8499079)">
    <polygon
       id="polygon416"
       points="0.0421,0.1347 0.0421,-0.1347 6.8001,-0.742 6.8001,-0.4725 "
       stroke="currentColor"
       fill="currentColor"
       stroke-width="0.0842"
       stroke-linecap="round"
       stroke-linejoin="round" />
  </g>
  <g
     id="g422"
     transform="translate(108.1776,2.0321079)">
    <polygon
       id="polygon420"
       points="0.0421,0.1347 0.0421,-0.1347 6.8001,-1.0012 6.8001,-0.7317 "
       stroke="currentColor"
       fill="currentColor"
       stroke-width="0.0842"
       stroke-linecap="round"
       stroke-linejoin="round" />
  </g>
  <g
     id="g426"
     transform="translate(108.1776,2.6394079)">
    <polygon
       id="polygon424"
       points="0.0421,0.1347 0.0421,-0.1347 6.8001,-1.0012 6.8001,-0.7317 "
       stroke="currentColor"
       fill="currentColor"
       stroke-width="0.0842"
       stroke-linecap="round"
       stroke-linejoin="round" />
  </g>
  <g
     id="g430"
     transform="translate(107.3439,5.7163079)">
    <path
       id="path428"
       d="m 0.855,-4.2372 c 0.8995,-1.0339 3.6843,-1.3865 4.813,-0.6095 v 0 C 4.5535,-5.5113 1.7687,-5.1587 0.855,-4.2372 Z"
       fill="currentColor"
       stroke="currentColor"
       stroke-linecap="round"
       stroke-linejoin="round"
       stroke-width="0.0755" />
  </g>
  <g
     id="g434"
     transform="translate(117.6141,0.92690795)">
    <polygon
       id="polygon432"
       points="0.0421,0.1347 0.0421,-0.1347 6.306,0.2337 6.306,0.5032 "
       stroke="currentColor"
       fill="currentColor"
       stroke-width="0.0842"
       stroke-linecap="round"
       stroke-linejoin="round" />
  </g>
  <g
     id="g438"
     transform="translate(117.6141,1.5341079)">
    <polygon
       id="polygon436"
       points="0.0421,0.1347 0.0421,-0.1347 6.306,0.2337 6.306,0.5032 "
       stroke="currentColor"
       fill="currentColor"
       stroke-width="0.0842"
       stroke-linecap="round"
       stroke-linejoin="round" />
  </g>
  <g
     id="g442"
     transform="translate(127.96,2.1618079)">
    <polygon
       id="polygon440"
       points="0.0421,0.1347 0.0421,-0.1347 7.0501,-1.0012 7.0501,-0.7317 "
       stroke="currentColor"
       fill="currentColor"
       stroke-width="0.0842"
       stroke-linecap="round"
       stroke-linejoin="round" />
  </g>
  <g
     id="g446"
     transform="translate(127.96,2.7690079)">
    <polygon
       id="polygon444"
       points="0.0421,0.1347 0.0421,-0.1347 7.0501,-1.0012 7.0501,-0.7317 "
       stroke="currentColor"
       fill="currentColor"
       stroke-width="0.0842"
       stroke-linecap="round"
       stroke-linejoin="round" />
  </g>
  <g
     id="g450"
     transform="translate(127.1263,5.7163079)">
    <path
       id="path448"
       d="m 0.8564,-4.1073 c 0.9037,-1.0296 3.6881,-1.3698 4.813,-0.5881 v 0 C 4.5582,-5.3646 1.7738,-5.0245 0.8564,-4.1073 Z"
       fill="currentColor"
       stroke="currentColor"
       stroke-linecap="round"
       stroke-linejoin="round"
       stroke-width="0.0755" />
  </g>
  <g
     id="g454"
     transform="translate(137.6465,1.4249079)">
    <polygon
       id="polygon452"
       points="0.0421,0.1347 0.0421,-0.1347 6.806,0.3429 6.806,0.6123 "
       stroke="currentColor"
       fill="currentColor"
       stroke-width="0.0842"
       stroke-linecap="round"
       stroke-linejoin="round" />
  </g>
  <g
     id="g458"
     transform="translate(137.6465,2.0321079)">
    <polygon
       id="polygon456"
       points="0.0421,0.1347 0.0421,-0.1347 6.806,0.3429 6.806,0.6123 "
       stroke="currentColor"
       fill="currentColor"
       stroke-width="0.0842"
       stroke-linecap="round"
       stroke-linejoin="round" />
  </g>
  <g
     id="g462"
     transform="translate(53.1887,2.1618079)">
    <polygon
       id="polygon460"
       points="0.0421,0.1347 0.0421,-0.1347 17.3631,-0.1347 17.3631,0.1347 "
       stroke="currentColor"
       fill="currentColor"
       stroke-width="0.0842"
       stroke-linecap="round"
       stroke-linejoin="round" />
  </g>
  <g
     id="g466"
     transform="translate(157.1001,5.1091079)">
    <polygon
       id="polygon464"
       points="0.0421,0.1347 0.0421,-0.1347 7.6107,-0.8716 7.6107,-0.6021 "
       stroke="currentColor"
       fill="currentColor"
       stroke-width="0.0842"
       stroke-linecap="round"
       stroke-linejoin="round" />
  </g>
  <g
     id="g470"
     transform="translate(157.1001,5.7163079)">
    <polygon
       id="polygon468"
       points="0.0421,0.1347 0.0421,-0.1347 7.6107,-0.8716 7.6107,-0.6021 "
       stroke="currentColor"
       fill="currentColor"
       stroke-width="0.0842"
       stroke-linecap="round"
       stroke-linejoin="round" />
  </g>
  <g
     id="g474"
     transform="translate(156.2663,5.7163079)">
    <path
       id="path472"
       d="m 0.8645,-1.1584 c 0.928,-1.0047 3.7104,-1.2726 4.813,-0.4634 v 0 C 4.5858,-2.3182 1.8034,-2.0503 0.8645,-1.1584 Z"
       fill="currentColor"
       stroke="currentColor"
       stroke-linecap="round"
       stroke-linejoin="round"
       stroke-width="0.0755" />
  </g>
  <g
     id="g478"
     transform="translate(166.7865,2.1618079)">
    <polygon
       id="polygon476"
       points="0.0421,0.1347 0.0421,-0.1347 7.5626,-0.1347 7.5626,0.1347 "
       stroke="currentColor"
       fill="currentColor"
       stroke-width="0.0842"
       stroke-linecap="round"
       stroke-linejoin="round" />
  </g>
  <g
     id="g482"
     transform="translate(166.7865,2.7690079)">
    <polygon
       id="polygon480"
       points="0.0421,0.1347 0.0421,-0.1347 7.5626,-0.1347 7.5626,0.1347 "
       stroke="currentColor"
       fill="currentColor"
       stroke-width="0.0842"
       stroke-linecap="round"
       stroke-linejoin="round" />
  </g>
  <g
     id="g486"
     transform="translate(168.5613,5.7163079)">
    <path
       id="path484"
       d="m 0.8951,-4.0998 c 1.0252,-0.9148 3.8483,-0.9148 4.8735,0 v 0 c -1.0252,-0.8014 -3.8483,-0.8014 -4.8735,0 z"
       fill="currentColor"
       stroke="currentColor"
       stroke-linecap="round"
       stroke-linejoin="round"
       stroke-width="0.0755" />
  </g>
  <g
     id="g490"
     transform="translate(176.675,1.1657079)">
    <polygon
       id="polygon488"
       points="0.0421,0.1347 0.0421,-0.1347 6.8607,0.1245 6.8607,0.394 "
       stroke="currentColor"
       fill="currentColor"
       stroke-width="0.0842"
       stroke-linecap="round"
       stroke-linejoin="round" />
  </g>
  <g
     id="g494"
     transform="translate(176.675,1.7729079)">
    <polygon
       id="polygon492"
       points="0.0421,0.1347 0.0421,-0.1347 6.8607,0.1245 6.8607,0.394 "
       stroke="currentColor"
       fill="currentColor"
       stroke-width="0.0842"
       stroke-linecap="round"
       stroke-linejoin="round" />
  </g>
  <g
     id="g498"
     transform="translate(175.8413,5.7163079)">
    <path
       id="path496"
       d="m 0.9071,-5.0936 c 1.0235,-0.8532 3.6668,-0.754 4.6235,0.1736 v 0 C 4.5697,-5.7343 1.9263,-5.8336 0.9071,-5.0936 Z"
       fill="currentColor"
       stroke="currentColor"
       stroke-linecap="round"
       stroke-linejoin="round"
       stroke-width="0.0755" />
  </g>
  <g
     id="g502"
     transform="translate(186.6909,2.4006079)">
    <polygon
       id="polygon500"
       points="0.0421,0.1347 0.0421,-0.1347 6.5501,0.6021 6.5501,0.8716 "
       stroke="currentColor"
       fill="currentColor"
       stroke-width="0.0842"
       stroke-linecap="round"
       stroke-linejoin="round" />
  </g>
  <g
     id="g506"
     transform="translate(186.6909,3.0078079)">
    <polygon
       id="polygon504"
       points="0.0421,0.1347 0.0421,-0.1347 6.5501,0.6021 6.5501,0.8716 "
       stroke="currentColor"
       fill="currentColor"
       stroke-width="0.0842"
       stroke-linecap="round"
       stroke-linejoin="round" />
  </g>
  <g
     id="g510"
     transform="translate(195.3168,3.5058079)">
    <polygon
       id="polygon508"
       points="0.0421,0.1347 0.0421,-0.1347 7.1107,-0.0051 7.1107,0.2644 "
       stroke="currentColor"
       fill="currentColor"
       stroke-width="0.0842"
       stroke-linecap="round"
       stroke-linejoin="round" />
  </g>
  <g
     id="g514"
     transform="translate(195.3168,4.1130079)">
    <polygon
       id="polygon512"
       points="0.0421,0.1347 0.0421,-0.1347 7.1107,-0.0051 7.1107,0.2644 "
       stroke="currentColor"
       fill="currentColor"
       stroke-width="0.0842"
       stroke-linecap="round"
       stroke-linejoin="round" />
  </g>
  <g
     id="g518"
     transform="translate(194.4831,5.7163079)">
    <path
       id="path516"
       d="m 0.9009,-2.7547 c 1.0417,-0.896 3.8649,-0.8449 4.8735,0.0883 v 0 C 4.7637,-3.4863 1.9406,-3.5374 0.9009,-2.7547 Z"
       fill="currentColor"
       stroke="currentColor"
       stroke-linecap="round"
       stroke-linejoin="round"
       stroke-width="0.0755" />
  </g>
  <g
     id="g522"
     transform="translate(210.8054,7.1900079)">
    <path
       id="path520"
       fill="currentColor"
       d="m 208,139 c 61,0 117,-33 117,-99 0,-71 -52,-119 -99,-147 -34,-20 -71,-32 -110,-32 -61,0 -116,33 -116,99 0,71 51,119 98,147 34,20 71,32 110,32 z"
       transform="scale(0.0029,-0.0029)" />
  </g>
  <g
     id="g526"
     transform="translate(211.7005,5.7163079)">
    <rect
       id="rect524"
       fill="currentColor"
       ry="0.042100001"
       height="2.8281"
       width="0.1228"
       y="-1.4737"
       x="-0.0614" />
  </g>
  <g
     id="g530"
     transform="translate(8.3357,1.4249079)">
    <polygon
       id="polygon528"
       points="0.0421,0.1347 0.0421,-0.1347 16.8631,-0.1347 16.8631,0.1347 "
       stroke="currentColor"
       fill="currentColor"
       stroke-width="0.0842"
       stroke-linecap="round"
       stroke-linejoin="round" />
  </g>
  <g
     id="g534"
     transform="translate(30.6645,1.6637079)">
    <polygon
       id="polygon532"
       points="0.0421,0.1347 0.0421,-0.1347 17.3631,-0.1347 17.3631,0.1347 "
       stroke="currentColor"
       fill="currentColor"
       stroke-width="0.0842"
       stroke-linecap="round"
       stroke-linejoin="round" />
  </g>
  <g
     id="g538"
     transform="translate(177.7477,3.5058079)">
    <path
       id="path536"
       fill="currentColor"
       d="m 208,139 c 61,0 117,-33 117,-99 0,-71 -52,-119 -99,-147 -34,-20 -71,-32 -110,-32 -61,0 -116,33 -116,99 0,71 51,119 98,147 34,20 71,32 110,32 z"
       transform="scale(0.0029,-0.0029)" />
  </g>
  <g
     id="g542"
     transform="translate(178.6429,5.7163079)">
    <rect
       id="rect540"
       fill="currentColor"
       ry="0.042100001"
       height="2.1470001"
       width="0.1228"
       y="-4.4768"
       x="-0.0614" />
  </g>
  <g
     id="g546"
     transform="translate(180.4648,3.8742079)">
    <path
       id="path544"
       fill="currentColor"
       d="m 208,139 c 61,0 117,-33 117,-99 0,-71 -52,-119 -99,-147 -34,-20 -71,-32 -110,-32 -61,0 -116,33 -116,99 0,71 51,119 98,147 34,20 71,32 110,32 z"
       transform="scale(0.0029,-0.0029)" />
  </g>
  <g
     id="g550"
     transform="translate(181.3599,5.7163079)">
    <rect
       id="rect548"
       fill="currentColor"
       ry="0.042100001"
       height="2.4133999"
       width="0.1228"
       y="-4.3747001"
       x="-0.0614" />
  </g>
  <g
     id="g554"
     transform="translate(179.3042,3.8742079)">
    <path
       id="path552"
       fill="currentColor"
       d="m 0,114 c 0,12 7,22 18,26 l 37,15 v 151 c 0,12 10,22 22,22 12,0 22,-10 22,-22 V 172 l 77,29 v 152 c 0,12 10,22 22,22 12,0 22,-10 22,-22 V 219 l 16,6 c 3,1 8,2 11,2 15,0 28,-12 28,-28 v -50 c 0,-12 -7,-23 -18,-27 L 220,108 V -44 l 16,7 c 3,1 8,2 11,2 15,0 28,-13 28,-29 v -50 c 0,-12 -7,-22 -18,-26 l -37,-15 v -151 c 0,-12 -10,-22 -22,-22 -12,0 -22,10 -22,22 v 134 l -77,-29 v -152 c 0,-12 -10,-22 -22,-22 -12,0 -22,10 -22,22 v 134 l -16,-6 c -3,-1 -8,-2 -11,-2 -15,0 -28,12 -28,28 v 50 c 0,12 7,23 18,27 l 37,14 V 44 L 39,37 C 36,36 31,35 28,35 13,35 0,48 0,64 Z M 176,91 99,61 V -91 l 77,30 z"
       transform="scale(0.0029,-0.0029)" />
  </g>
  <g
     id="g558"
     transform="translate(182.6213,3.5058079)">
    <path
       id="path556"
       fill="currentColor"
       d="m 208,139 c 61,0 117,-33 117,-99 0,-71 -52,-119 -99,-147 -34,-20 -71,-32 -110,-32 -61,0 -116,33 -116,99 0,71 51,119 98,147 34,20 71,32 110,32 z"
       transform="scale(0.0029,-0.0029)" />
  </g>
  <g
     id="g562"
     transform="translate(183.5164,5.7163079)">
    <rect
       id="rect560"
       fill="currentColor"
       ry="0.042100001"
       height="1.964"
       width="0.1228"
       y="-4.2937002"
       x="-0.0614" />
  </g>
  <g
     id="g566"
     transform="translate(170.7178,4.9795079)">
    <path
       id="path564"
       fill="currentColor"
       d="m 208,139 c 61,0 117,-33 117,-99 0,-71 -52,-119 -99,-147 -34,-20 -71,-32 -110,-32 -61,0 -116,33 -116,99 0,71 51,119 98,147 34,20 71,32 110,32 z"
       transform="scale(0.0029,-0.0029)" />
  </g>
  <g
     id="g570"
     transform="translate(171.6129,5.7163079)">
    <rect
       id="rect568"
       fill="currentColor"
       ry="0.042100001"
       height="2.6984999"
       width="0.1228"
       y="-3.5546"
       x="-0.0614" />
  </g>
  <g
     id="g574"
     transform="translate(173.4348,5.3479079)">
    <path
       id="path572"
       fill="currentColor"
       d="m 208,139 c 61,0 117,-33 117,-99 0,-71 -52,-119 -99,-147 -34,-20 -71,-32 -110,-32 -61,0 -116,33 -116,99 0,71 51,119 98,147 34,20 71,32 110,32 z"
       transform="scale(0.0029,-0.0029)" />
  </g>
  <g
     id="g578"
     transform="translate(174.3299,5.7163079)">
    <rect
       id="rect576"
       fill="currentColor"
       ry="0.042100001"
       height="3.0669"
       width="0.1228"
       y="-3.5546"
       x="-0.0614" />
  </g>
  <g
     id="g582"
     transform="translate(172.2742,5.3479079)">
    <path
       id="path580"
       fill="currentColor"
       d="m 0,114 c 0,12 7,22 18,26 l 37,15 v 151 c 0,12 10,22 22,22 12,0 22,-10 22,-22 V 172 l 77,29 v 152 c 0,12 10,22 22,22 12,0 22,-10 22,-22 V 219 l 16,6 c 3,1 8,2 11,2 15,0 28,-12 28,-28 v -50 c 0,-12 -7,-23 -18,-27 L 220,108 V -44 l 16,7 c 3,1 8,2 11,2 15,0 28,-13 28,-29 v -50 c 0,-12 -7,-22 -18,-26 l -37,-15 v -151 c 0,-12 -10,-22 -22,-22 -12,0 -22,10 -22,22 v 134 l -77,-29 v -152 c 0,-12 -10,-22 -22,-22 -12,0 -22,10 -22,22 v 134 l -16,-6 c -3,-1 -8,-2 -11,-2 -15,0 -28,12 -28,28 v 50 c 0,12 7,23 18,27 l 37,14 V 44 L 39,37 C 36,36 31,35 28,35 13,35 0,48 0,64 Z M 176,91 99,61 V -91 l 77,30 z"
       transform="scale(0.0029,-0.0029)" />
  </g>
  <g
     id="g586"
     transform="translate(175.8413,3.1374079)">
    <path
       id="path584"
       fill="currentColor"
       d="m 208,139 c 61,0 117,-33 117,-99 0,-71 -52,-119 -99,-147 -34,-20 -71,-32 -110,-32 -61,0 -116,33 -116,99 0,71 51,119 98,147 34,20 71,32 110,32 z"
       transform="scale(0.0029,-0.0029)" />
  </g>
  <g
     id="g590"
     transform="translate(176.7364,5.7163079)">
    <rect
       id="rect588"
       fill="currentColor"
       ry="0.042100001"
       height="1.8502001"
       width="0.1228"
       y="-4.5483999"
       x="-0.0614" />
  </g>
  <g
     id="g594"
     transform="translate(193.2217,5.7163079)">
    <rect
       id="rect592"
       fill="currentColor"
       ry="0.042100001"
       height="2.0982001"
       width="0.1228"
       y="-2.5857999"
       x="-0.0614" />
  </g>
  <g
     id="g598"
     transform="translate(190.1701,4.9795079)">
    <path
       id="path596"
       fill="currentColor"
       d="m 208,139 c 61,0 117,-33 117,-99 0,-71 -52,-119 -99,-147 -34,-20 -71,-32 -110,-32 -61,0 -116,33 -116,99 0,71 51,119 98,147 34,20 71,32 110,32 z"
       transform="scale(0.0029,-0.0029)" />
  </g>
  <g
     id="g602"
     transform="translate(191.0652,5.7163079)">
    <rect
       id="rect600"
       fill="currentColor"
       ry="0.042100001"
       height="1.9708"
       width="0.1228"
       y="-2.8268001"
       x="-0.0614" />
  </g>
  <g
     id="g606"
     transform="translate(192.3266,5.3479079)">
    <path
       id="path604"
       fill="currentColor"
       d="m 208,139 c 61,0 117,-33 117,-99 0,-71 -52,-119 -99,-147 -34,-20 -71,-32 -110,-32 -61,0 -116,33 -116,99 0,71 51,119 98,147 34,20 71,32 110,32 z"
       transform="scale(0.0029,-0.0029)" />
  </g>
  <g
     id="g610"
     transform="translate(194.4831,5.7163079)">
    <path
       id="path608"
       fill="currentColor"
       d="m 208,139 c 61,0 117,-33 117,-99 0,-71 -52,-119 -99,-147 -34,-20 -71,-32 -110,-32 -61,0 -116,33 -116,99 0,71 51,119 98,147 34,20 71,32 110,32 z"
       transform="scale(0.0029,-0.0029)" />
  </g>
  <g
     id="g614"
     transform="translate(195.3782,5.7163079)">
    <rect
       id="rect612"
       fill="currentColor"
       ry="0.042100001"
       height="2.0901999"
       width="0.1228"
       y="-2.2093999"
       x="-0.0614" />
  </g>
  <g
     id="g618"
     transform="translate(185.8572,4.2427079)">
    <path
       id="path616"
       fill="currentColor"
       d="m 208,139 c 61,0 117,-33 117,-99 0,-71 -52,-119 -99,-147 -34,-20 -71,-32 -110,-32 -61,0 -116,33 -116,99 0,71 51,119 98,147 34,20 71,32 110,32 z"
       transform="scale(0.0029,-0.0029)" />
  </g>
  <g
     id="g622"
     transform="translate(186.7523,5.7163079)">
    <rect
       id="rect620"
       fill="currentColor"
       ry="0.042100001"
       height="1.716"
       width="0.1228"
       y="-3.3089001"
       x="-0.0614" />
  </g>
  <g
     id="g626"
     transform="translate(167.6218,4.6111079)">
    <path
       id="path624"
       fill="currentColor"
       d="m 33,35 -2,-60 v -11 c 0,-21 2,-43 5,-64 42,38 87,81 87,138 0,32 -13,63 -41,63 C 51,101 34,69 33,35 Z M 32,446 23,109 c 25,26 59,40 95,40 50,0 82,-51 82,-105 0,-77 -80,-117 -137,-169 -18,-17 -26,-48 -52,-48 -16,0 -28,15 -28,32 l -15,587 c 10,6 21,8 32,8 11,0 22,-2 32,-8 z"
       transform="scale(0.0029,-0.0029)" />
  </g>
  <g
     id="g630"
     transform="translate(188.0137,4.6111079)">
    <path
       id="path628"
       fill="currentColor"
       d="m 208,139 c 61,0 117,-33 117,-99 0,-71 -52,-119 -99,-147 -34,-20 -71,-32 -110,-32 -61,0 -116,33 -116,99 0,71 51,119 98,147 34,20 71,32 110,32 z"
       transform="scale(0.0029,-0.0029)" />
  </g>
  <g
     id="g634"
     transform="translate(188.9088,5.7163079)">
    <rect
       id="rect632"
       fill="currentColor"
       ry="0.042100001"
       height="1.8434"
       width="0.1228"
       y="-3.0678999"
       x="-0.0614" />
  </g>
  <g
     id="g638"
     transform="translate(46.2574,7.9269079)">
    <path
       id="path636"
       fill="currentColor"
       d="m -8,375 c 8,5 18,7 27,7 9,0 20,-2 28,-7 l -3,-196 99,24 h 4 c 11,0 20,-8 20,-19 l 8,-559 c -8,-5 -19,-7 -28,-7 -9,0 -19,2 -27,7 l 3,196 -99,-24 h -5 c -11,0 -19,8 -19,19 z M 127,109 42,89 l -2,-198 84,20 z"
       transform="scale(0.0029,-0.0029)" />
  </g>
  <g
     id="g642"
     transform="translate(52.355,8.2953079)">
    <path
       id="path640"
       fill="currentColor"
       d="m 208,139 c 61,0 117,-33 117,-99 0,-71 -52,-119 -99,-147 -34,-20 -71,-32 -110,-32 -61,0 -116,33 -116,99 0,71 51,119 98,147 34,20 71,32 110,32 z"
       transform="scale(0.0029,-0.0029)" />
  </g>
  <g
     id="g646"
     transform="translate(53.2501,5.7163079)">
    <rect
       id="rect644"
       fill="currentColor"
       ry="0.042100001"
       height="6.0142999"
       width="0.1228"
       y="-3.5546"
       x="-0.0614" />
  </g>
  <g
     id="g650"
     transform="translate(51.4992,8.2953079)">
    <path
       id="path648"
       fill="currentColor"
       d="m -8,375 c 8,5 18,7 27,7 9,0 20,-2 28,-7 l -3,-196 99,24 h 4 c 11,0 20,-8 20,-19 l 8,-559 c -8,-5 -19,-7 -28,-7 -9,0 -19,2 -27,7 l 3,196 -99,-24 h -5 c -11,0 -19,8 -19,19 z M 127,109 42,89 l -2,-198 84,20 z"
       transform="scale(0.0029,-0.0029)" />
  </g>
  <g
     id="g654"
     transform="translate(44.6519,5.7163079)">
    <rect
       id="rect652"
       fill="currentColor"
       ry="0.042100001"
       height="2.4597001"
       width="0.1228"
       y="-4.0525999"
       x="-0.0614" />
  </g>
  <g
     id="g658"
     transform="translate(40.4003,3.8742079)">
    <path
       id="path656"
       fill="currentColor"
       d="m 208,139 c 61,0 117,-33 117,-99 0,-71 -52,-119 -99,-147 -34,-20 -71,-32 -110,-32 -61,0 -116,33 -116,99 0,71 51,119 98,147 34,20 71,32 110,32 z"
       transform="scale(0.0029,-0.0029)" />
  </g>
  <g
     id="g662"
     transform="translate(41.2954,5.7163079)">
    <rect
       id="rect660"
       fill="currentColor"
       ry="0.042100001"
       height="2.0913"
       width="0.1228"
       y="-4.0525999"
       x="-0.0614" />
  </g>
  <g
     id="g666"
     transform="translate(43.7568,4.2427079)">
    <path
       id="path664"
       fill="currentColor"
       d="m 208,139 c 61,0 117,-33 117,-99 0,-71 -52,-119 -99,-147 -34,-20 -71,-32 -110,-32 -61,0 -116,33 -116,99 0,71 51,119 98,147 34,20 71,32 110,32 z"
       transform="scale(0.0029,-0.0029)" />
  </g>
  <g
     id="g670"
     transform="translate(42.5962,4.2427079)">
    <path
       id="path668"
       fill="currentColor"
       d="m 0,114 c 0,12 7,22 18,26 l 37,15 v 151 c 0,12 10,22 22,22 12,0 22,-10 22,-22 V 172 l 77,29 v 152 c 0,12 10,22 22,22 12,0 22,-10 22,-22 V 219 l 16,6 c 3,1 8,2 11,2 15,0 28,-12 28,-28 v -50 c 0,-12 -7,-23 -18,-27 L 220,108 V -44 l 16,7 c 3,1 8,2 11,2 15,0 28,-13 28,-29 v -50 c 0,-12 -7,-22 -18,-26 l -37,-15 v -151 c 0,-12 -10,-22 -22,-22 -12,0 -22,10 -22,22 v 134 l -77,-29 v -152 c 0,-12 -10,-22 -22,-22 -12,0 -22,10 -22,22 v 134 l -16,-6 c -3,-1 -8,-2 -11,-2 -15,0 -28,12 -28,28 v 50 c 0,12 7,23 18,27 l 37,14 V 44 L 39,37 C 36,36 31,35 28,35 13,35 0,48 0,64 Z M 176,91 99,61 V -91 l 77,30 z"
       transform="scale(0.0029,-0.0029)" />
  </g>
  <g
     id="g674"
     transform="translate(47.1133,7.9269079)">
    <path
       id="path672"
       fill="currentColor"
       d="m 208,139 c 61,0 117,-33 117,-99 0,-71 -52,-119 -99,-147 -34,-20 -71,-32 -110,-32 -61,0 -116,33 -116,99 0,71 51,119 98,147 34,20 71,32 110,32 z"
       transform="scale(0.0029,-0.0029)" />
  </g>
  <g
     id="g678"
     transform="translate(48.0084,5.7163079)">
    <rect
       id="rect676"
       fill="currentColor"
       ry="0.042100001"
       height="6.1438999"
       width="0.1228"
       y="-4.0525999"
       x="-0.0614" />
  </g>
  <g
     id="g682"
     transform="translate(67.1761,5.7163079)">
    <rect
       id="rect680"
       fill="currentColor"
       ry="0.042100001"
       height="2.3301001"
       width="0.1228"
       y="-3.5546"
       x="-0.0614" />
  </g>
  <g
     id="g686"
     transform="translate(69.6375,8.2953079)">
    <path
       id="path684"
       fill="currentColor"
       d="m 208,139 c 61,0 117,-33 117,-99 0,-71 -52,-119 -99,-147 -34,-20 -71,-32 -110,-32 -61,0 -116,33 -116,99 0,71 51,119 98,147 34,20 71,32 110,32 z"
       transform="scale(0.0029,-0.0029)" />
  </g>
  <g
     id="g690"
     transform="translate(70.5326,5.7163079)">
    <rect
       id="rect688"
       fill="currentColor"
       ry="0.042100001"
       height="6.0142999"
       width="0.1228"
       y="-3.5546"
       x="-0.0614" />
  </g>
  <g
     id="g694"
     transform="translate(66.281,4.6111079)">
    <path
       id="path692"
       fill="currentColor"
       d="m 208,139 c 61,0 117,-33 117,-99 0,-71 -52,-119 -99,-147 -34,-20 -71,-32 -110,-32 -61,0 -116,33 -116,99 0,71 51,119 98,147 34,20 71,32 110,32 z"
       transform="scale(0.0029,-0.0029)" />
  </g>
  <g
     id="g698"
     transform="translate(68.698,8.2953079)">
    <path
       id="path696"
       fill="currentColor"
       d="m 33,35 -2,-60 v -11 c 0,-21 2,-43 5,-64 42,38 87,81 87,138 0,32 -13,63 -41,63 C 51,101 34,69 33,35 Z M 32,446 23,109 c 25,26 59,40 95,40 50,0 82,-51 82,-105 0,-77 -80,-117 -137,-169 -18,-17 -26,-48 -52,-48 -16,0 -28,15 -28,32 l -15,587 c 10,6 21,8 32,8 11,0 22,-2 32,-8 z"
       transform="scale(0.0029,-0.0029)" />
  </g>
  <g
     id="g702"
     transform="translate(74.3234,8.6637079)">
    <path
       id="path700"
       fill="currentColor"
       d="m 208,139 c 61,0 117,-33 117,-99 0,-71 -52,-119 -99,-147 -34,-20 -71,-32 -110,-32 -61,0 -116,33 -116,99 0,71 51,119 98,147 34,20 71,32 110,32 z"
       transform="scale(0.0029,-0.0029)" />
  </g>
  <g
     id="g706"
     transform="translate(75.2185,5.7163079)">
    <rect
       id="rect704"
       fill="currentColor"
       ry="0.042100001"
       height="6.1438999"
       width="0.1228"
       y="-3.3158"
       x="-0.0614" />
  </g>
  <g
     id="g710"
     transform="translate(55.9615,4.9795079)">
    <path
       id="path708"
       fill="currentColor"
       d="m 208,139 c 61,0 117,-33 117,-99 0,-71 -52,-119 -99,-147 -34,-20 -71,-32 -110,-32 -61,0 -116,33 -116,99 0,71 51,119 98,147 34,20 71,32 110,32 z"
       transform="scale(0.0029,-0.0029)" />
  </g>
  <g
     id="g714"
     transform="translate(56.8566,5.7163079)">
    <rect
       id="rect712"
       fill="currentColor"
       ry="0.042100001"
       height="2.6984999"
       width="0.1228"
       y="-3.5546"
       x="-0.0614" />
  </g>
  <g
     id="g718"
     transform="translate(59.568,3.8742079)">
    <path
       id="path716"
       fill="currentColor"
       d="m 208,139 c 61,0 117,-33 117,-99 0,-71 -52,-119 -99,-147 -34,-20 -71,-32 -110,-32 -61,0 -116,33 -116,99 0,71 51,119 98,147 34,20 71,32 110,32 z"
       transform="scale(0.0029,-0.0029)" />
  </g>
  <g
     id="g722"
     transform="translate(60.4631,5.7163079)">
    <rect
       id="rect720"
       fill="currentColor"
       ry="0.042100001"
       height="1.5933"
       width="0.1228"
       y="-3.5546"
       x="-0.0614" />
  </g>
  <g
     id="g726"
     transform="translate(62.9245,4.2427079)">
    <path
       id="path724"
       fill="currentColor"
       d="m 208,139 c 61,0 117,-33 117,-99 0,-71 -52,-119 -99,-147 -34,-20 -71,-32 -110,-32 -61,0 -116,33 -116,99 0,71 51,119 98,147 34,20 71,32 110,32 z"
       transform="scale(0.0029,-0.0029)" />
  </g>
  <g
     id="g730"
     transform="translate(63.8196,5.7163079)">
    <rect
       id="rect728"
       fill="currentColor"
       ry="0.042100001"
       height="1.9617"
       width="0.1228"
       y="-3.5546"
       x="-0.0614" />
  </g>
  <g
     id="g734"
     transform="translate(11.1084,4.2427079)">
    <path
       id="path732"
       fill="currentColor"
       d="m 208,139 c 61,0 117,-33 117,-99 0,-71 -52,-119 -99,-147 -34,-20 -71,-32 -110,-32 -61,0 -116,33 -116,99 0,71 51,119 98,147 34,20 71,32 110,32 z"
       transform="scale(0.0029,-0.0029)" />
  </g>
  <g
     id="g738"
     transform="translate(12.0035,5.7163079)">
    <rect
       id="rect736"
       fill="currentColor"
       ry="0.042100001"
       height="2.6984999"
       width="0.1228"
       y="-4.2914"
       x="-0.0614" />
  </g>
  <g
     id="g742"
     transform="translate(14.7149,3.1374079)">
    <path
       id="path740"
       fill="currentColor"
       d="m 208,139 c 61,0 117,-33 117,-99 0,-71 -52,-119 -99,-147 -34,-20 -71,-32 -110,-32 -61,0 -116,33 -116,99 0,71 51,119 98,147 34,20 71,32 110,32 z"
       transform="scale(0.0029,-0.0029)" />
  </g>
  <g
     id="g746"
     transform="translate(15.61,5.7163079)">
    <rect
       id="rect744"
       fill="currentColor"
       ry="0.042100001"
       height="1.5933"
       width="0.1228"
       y="-4.2914"
       x="-0.0614" />
  </g>
  <g
     id="g750"
     transform="translate(17.8214,3.5058079)">
    <path
       id="path748"
       fill="currentColor"
       d="m 208,139 c 61,0 117,-33 117,-99 0,-71 -52,-119 -99,-147 -34,-20 -71,-32 -110,-32 -61,0 -116,33 -116,99 0,71 51,119 98,147 34,20 71,32 110,32 z"
       transform="scale(0.0029,-0.0029)" />
  </g>
  <g
     id="g754"
     transform="translate(18.7165,5.7163079)">
    <rect
       id="rect752"
       fill="currentColor"
       ry="0.042100001"
       height="1.9617"
       width="0.1228"
       y="-4.2914"
       x="-0.0614" />
  </g>
  <g
     id="g758"
     transform="translate(21.1779,3.8742079)">
    <path
       id="path756"
       fill="currentColor"
       d="m 208,139 c 61,0 117,-33 117,-99 0,-71 -52,-119 -99,-147 -34,-20 -71,-32 -110,-32 -61,0 -116,33 -116,99 0,71 51,119 98,147 34,20 71,32 110,32 z"
       transform="scale(0.0029,-0.0029)" />
  </g>
  <g
     id="g762"
     transform="translate(0.8,6.4532079)">
    <path
       id="path760"
       fill="currentColor"
       d="m 381,266 h 9 c 157,0 258,-130 258,-264 0,-77 -33,-156 -108,-212 -22,-16 -46,-28 -71,-36 2,-32 3,-65 3,-97 0,-21 -1,-43 -2,-64 -7,-122 -91,-230 -211,-230 -108,0 -197,88 -197,197 0,58 54,104 113,104 54,0 95,-48 95,-104 0,-52 -43,-95 -95,-95 -8,0 -16,2 -24,4 25,-35 65,-59 111,-59 95,0 155,92 161,190 1,20 2,39 2,59 0,28 -1,55 -3,83 -29,-5 -57,-7 -87,-7 -189,0 -333,174 -333,377 0,176 128,307 242,443 -21,62 -41,124 -50,189 -7,52 -8,106 -8,159 0,113 54,219 146,286 8,6 21,7 29,0 72,-82 136,-244 136,-357 0,-141 -83,-253 -174,-362 22,-67 41,-135 58,-204 z m 83,-466 c 64,25 108,93 108,159 0,87 -62,173 -163,187 24,-113 43,-225 55,-346 z m -126,-18 c 27,0 54,2 80,6 C 405,-87 385,30 360,147 281,140 237,88 237,31 c 0,-43 24,-89 78,-120 5,-5 8,-11 8,-17 0,-13 -11,-24 -24,-24 -3,0 -7,0 -10,2 -81,44 -119,116 -119,187 0,90 60,178 164,201 -14,56 -30,112 -47,167 C 183,305 79,182 79,23 79,-109 206,-218 338,-218 Z M 239,782 c 0,-69 22,-127 41,-183 77,97 140,199 140,323 0,49 -3,69 -19,113 C 302,990 239,890 239,782 Z"
       transform="scale(0.0029,-0.0029)" />
  </g>
  <g
     id="g766"
     transform="translate(4.4125,5.7163079)">
    <path
       id="path764"
       fill="currentColor"
       d="m 33,35 -2,-60 v -11 c 0,-21 2,-43 5,-64 42,38 87,81 87,138 0,32 -13,63 -41,63 C 51,101 34,69 33,35 Z M 32,446 23,109 c 25,26 59,40 95,40 50,0 82,-51 82,-105 0,-77 -80,-117 -137,-169 -18,-17 -26,-48 -52,-48 -16,0 -28,15 -28,32 l -15,587 c 10,6 21,8 32,8 11,0 22,-2 32,-8 z"
       transform="scale(0.0029,-0.0029)" />
  </g>
  <g
     id="g770"
     transform="translate(22.073,5.7163079)">
    <rect
       id="rect768"
       fill="currentColor"
       ry="0.042100001"
       height="2.3301001"
       width="0.1228"
       y="-4.2914"
       x="-0.0614" />
  </g>
  <g
     id="g774"
     transform="translate(7.5019,4.9795079)">
    <path
       id="path772"
       fill="currentColor"
       d="m 208,139 c 61,0 117,-33 117,-99 0,-71 -52,-119 -99,-147 -34,-20 -71,-32 -110,-32 -61,0 -116,33 -116,99 0,71 51,119 98,147 34,20 71,32 110,32 z"
       transform="scale(0.0029,-0.0029)" />
  </g>
  <g
     id="g778"
     transform="translate(8.397,5.7163079)">
    <rect
       id="rect776"
       fill="currentColor"
       ry="0.042100001"
       height="3.4354"
       width="0.1228"
       y="-4.2914"
       x="-0.0614" />
  </g>
  <g
     id="g782"
     transform="translate(28.6703,7.9269079)">
    <path
       id="path780"
       fill="currentColor"
       d="m 0,114 c 0,12 7,22 18,26 l 37,15 v 151 c 0,12 10,22 22,22 12,0 22,-10 22,-22 V 172 l 77,29 v 152 c 0,12 10,22 22,22 12,0 22,-10 22,-22 V 219 l 16,6 c 3,1 8,2 11,2 15,0 28,-12 28,-28 v -50 c 0,-12 -7,-23 -18,-27 L 220,108 V -44 l 16,7 c 3,1 8,2 11,2 15,0 28,-13 28,-29 v -50 c 0,-12 -7,-22 -18,-26 l -37,-15 v -151 c 0,-12 -10,-22 -22,-22 -12,0 -22,10 -22,22 v 134 l -77,-29 v -152 c 0,-12 -10,-22 -22,-22 -12,0 -22,10 -22,22 v 134 l -16,-6 c -3,-1 -8,-2 -11,-2 -15,0 -28,12 -28,28 v 50 c 0,12 7,23 18,27 l 37,14 V 44 L 39,37 C 36,36 31,35 28,35 13,35 0,48 0,64 Z M 176,91 99,61 V -91 l 77,30 z"
       transform="scale(0.0029,-0.0029)" />
  </g>
  <g
     id="g786"
     transform="translate(33.4373,4.6111079)">
    <path
       id="path784"
       fill="currentColor"
       d="m 208,139 c 61,0 117,-33 117,-99 0,-71 -52,-119 -99,-147 -34,-20 -71,-32 -110,-32 -61,0 -116,33 -116,99 0,71 51,119 98,147 34,20 71,32 110,32 z"
       transform="scale(0.0029,-0.0029)" />
  </g>
  <g
     id="g790"
     transform="translate(34.3324,5.7163079)">
    <rect
       id="rect788"
       fill="currentColor"
       ry="0.042100001"
       height="2.8281"
       width="0.1228"
       y="-4.0525999"
       x="-0.0614" />
  </g>
  <g
     id="g794"
     transform="translate(37.0438,3.5058079)">
    <path
       id="path792"
       fill="currentColor"
       d="m 208,139 c 61,0 117,-33 117,-99 0,-71 -52,-119 -99,-147 -34,-20 -71,-32 -110,-32 -61,0 -116,33 -116,99 0,71 51,119 98,147 34,20 71,32 110,32 z"
       transform="scale(0.0029,-0.0029)" />
  </g>
  <g
     id="g798"
     transform="translate(37.9389,5.7163079)">
    <rect
       id="rect796"
       fill="currentColor"
       ry="0.042100001"
       height="1.7229"
       width="0.1228"
       y="-4.0525999"
       x="-0.0614" />
  </g>
  <g
     id="g802"
     transform="translate(20.0174,3.8742079)">
    <path
       id="path800"
       fill="currentColor"
       d="m 0,114 c 0,12 7,22 18,26 l 37,15 v 151 c 0,12 10,22 22,22 12,0 22,-10 22,-22 V 172 l 77,29 v 152 c 0,12 10,22 22,22 12,0 22,-10 22,-22 V 219 l 16,6 c 3,1 8,2 11,2 15,0 28,-12 28,-28 v -50 c 0,-12 -7,-23 -18,-27 L 220,108 V -44 l 16,7 c 3,1 8,2 11,2 15,0 28,-13 28,-29 v -50 c 0,-12 -7,-22 -18,-26 l -37,-15 v -151 c 0,-12 -10,-22 -22,-22 -12,0 -22,10 -22,22 v 134 l -77,-29 v -152 c 0,-12 -10,-22 -22,-22 -12,0 -22,10 -22,22 v 134 l -16,-6 c -3,-1 -8,-2 -11,-2 -15,0 -28,12 -28,28 v 50 c 0,12 7,23 18,27 l 37,14 V 44 L 39,37 C 36,36 31,35 28,35 13,35 0,48 0,64 Z M 176,91 99,61 V -91 l 77,30 z"
       transform="scale(0.0029,-0.0029)" />
  </g>
  <g
     id="g806"
     transform="translate(24.2844,7.5585079)">
    <path
       id="path804"
       fill="currentColor"
       d="m 208,139 c 61,0 117,-33 117,-99 0,-71 -52,-119 -99,-147 -34,-20 -71,-32 -110,-32 -61,0 -116,33 -116,99 0,71 51,119 98,147 34,20 71,32 110,32 z"
       transform="scale(0.0029,-0.0029)" />
  </g>
  <g
     id="g810"
     transform="translate(25.1795,5.7163079)">
    <rect
       id="rect808"
       fill="currentColor"
       ry="0.042100001"
       height="6.0142999"
       width="0.1228"
       y="-4.2914"
       x="-0.0614" />
  </g>
  <g
     id="g814"
     transform="translate(120.0878,5.7163079)">
    <rect
       id="rect812"
       fill="currentColor"
       ry="0.042100001"
       height="1.9477"
       width="0.1228"
       y="-4.6458998"
       x="-0.0614" />
  </g>
  <g
     id="g818"
     transform="translate(29.8308,7.9269079)">
    <path
       id="path816"
       fill="currentColor"
       d="m 208,139 c 61,0 117,-33 117,-99 0,-71 -52,-119 -99,-147 -34,-20 -71,-32 -110,-32 -61,0 -116,33 -116,99 0,71 51,119 98,147 34,20 71,32 110,32 z"
       transform="scale(0.0029,-0.0029)" />
  </g>
  <g
     id="g822"
     transform="translate(30.7259,5.7163079)">
    <rect
       id="rect820"
       fill="currentColor"
       ry="0.042100001"
       height="6.1438999"
       width="0.1228"
       y="-4.0525999"
       x="-0.0614" />
  </g>
  <g
     id="g826"
     transform="translate(100.1245,7.5585079)">
    <path
       id="path824"
       fill="currentColor"
       d="m 208,139 c 61,0 117,-33 117,-99 0,-71 -52,-119 -99,-147 -34,-20 -71,-32 -110,-32 -61,0 -116,33 -116,99 0,71 51,119 98,147 34,20 71,32 110,32 z"
       transform="scale(0.0029,-0.0029)" />
  </g>
  <g
     id="g830"
     transform="translate(101.0196,5.7163079)">
    <rect
       id="rect828"
       fill="currentColor"
       ry="0.042100001"
       height="3.3712001"
       width="0.1228"
       y="-1.6483001"
       x="-0.0614" />
  </g>
  <g
     id="g834"
     transform="translate(102.5309,6.8216079)">
    <path
       id="path832"
       fill="currentColor"
       d="m 208,139 c 61,0 117,-33 117,-99 0,-71 -52,-119 -99,-147 -34,-20 -71,-32 -110,-32 -61,0 -116,33 -116,99 0,71 51,119 98,147 34,20 71,32 110,32 z"
       transform="scale(0.0029,-0.0029)" />
  </g>
  <g
     id="g838"
     transform="translate(103.426,5.7163079)">
    <rect
       id="rect836"
       fill="currentColor"
       ry="0.042100001"
       height="2.8478999"
       width="0.1228"
       y="-1.8619"
       x="-0.0614" />
  </g>
  <g
     id="g842"
     transform="translate(104.9374,6.0848079)">
    <path
       id="path840"
       fill="currentColor"
       d="m 208,139 c 61,0 117,-33 117,-99 0,-71 -52,-119 -99,-147 -34,-20 -71,-32 -110,-32 -61,0 -116,33 -116,99 0,71 51,119 98,147 34,20 71,32 110,32 z"
       transform="scale(0.0029,-0.0029)" />
  </g>
  <g
     id="g846"
     transform="translate(105.8325,5.7163079)">
    <rect
       id="rect844"
       fill="currentColor"
       ry="0.042100001"
       height="2.3246"
       width="0.1228"
       y="-2.0755"
       x="-0.0614" />
  </g>
  <g
     id="g850"
     transform="translate(93.5793,6.4532079)">
    <path
       id="path848"
       fill="currentColor"
       d="m 208,139 c 61,0 117,-33 117,-99 0,-71 -52,-119 -99,-147 -34,-20 -71,-32 -110,-32 -61,0 -116,33 -116,99 0,71 51,119 98,147 34,20 71,32 110,32 z"
       transform="scale(0.0029,-0.0029)" />
  </g>
  <g
     id="g854"
     transform="translate(94.4744,5.7163079)">
    <rect
       id="rect852"
       fill="currentColor"
       ry="0.042100001"
       height="3.4354"
       width="0.1228"
       y="-2.8176999"
       x="-0.0614" />
  </g>
  <g
     id="g858"
     transform="translate(98.218,6.8216079)">
    <path
       id="path856"
       fill="currentColor"
       d="m 208,139 c 61,0 117,-33 117,-99 0,-71 -52,-119 -99,-147 -34,-20 -71,-32 -110,-32 -61,0 -116,33 -116,99 0,71 51,119 98,147 34,20 71,32 110,32 z"
       transform="scale(0.0029,-0.0029)" />
  </g>
  <g
     id="g862"
     transform="translate(99.1131,5.7163079)">
    <rect
       id="rect860"
       fill="currentColor"
       ry="0.042100001"
       height="2.4651999"
       width="0.1228"
       y="-1.4791"
       x="-0.0614" />
  </g>
  <g
     id="g866"
     transform="translate(117.6755,5.7163079)">
    <rect
       id="rect864"
       fill="currentColor"
       ry="0.042100001"
       height="2.8246"
       width="0.1228"
       y="-4.7859001"
       x="-0.0614" />
  </g>
  <g
     id="g870"
     transform="translate(114.0634,3.5058079)">
    <path
       id="path868"
       fill="currentColor"
       d="m 208,139 c 61,0 117,-33 117,-99 0,-71 -52,-119 -99,-147 -34,-20 -71,-32 -110,-32 -61,0 -116,33 -116,99 0,71 51,119 98,147 34,20 71,32 110,32 z"
       transform="scale(0.0029,-0.0029)" />
  </g>
  <g
     id="g874"
     transform="translate(114.9585,5.7163079)">
    <rect
       id="rect872"
       fill="currentColor"
       ry="0.042100001"
       height="2.2131"
       width="0.1228"
       y="-4.5429001"
       x="-0.0614" />
  </g>
  <g
     id="g878"
     transform="translate(116.7804,3.8742079)">
    <path
       id="path876"
       fill="currentColor"
       d="m 208,139 c 61,0 117,-33 117,-99 0,-71 -52,-119 -99,-147 -34,-20 -71,-32 -110,-32 -61,0 -116,33 -116,99 0,71 51,119 98,147 34,20 71,32 110,32 z"
       transform="scale(0.0029,-0.0029)" />
  </g>
  <g
     id="g882"
     transform="translate(115.6199,3.8742079)">
    <path
       id="path880"
       fill="currentColor"
       d="m 0,114 c 0,12 7,22 18,26 l 37,15 v 151 c 0,12 10,22 22,22 12,0 22,-10 22,-22 V 172 l 77,29 v 152 c 0,12 10,22 22,22 12,0 22,-10 22,-22 V 219 l 16,6 c 3,1 8,2 11,2 15,0 28,-12 28,-28 v -50 c 0,-12 -7,-23 -18,-27 L 220,108 V -44 l 16,7 c 3,1 8,2 11,2 15,0 28,-13 28,-29 v -50 c 0,-12 -7,-22 -18,-26 l -37,-15 v -151 c 0,-12 -10,-22 -22,-22 -12,0 -22,10 -22,22 v 134 l -77,-29 v -152 c 0,-12 -10,-22 -22,-22 -12,0 -22,10 -22,22 v 134 l -16,-6 c -3,-1 -8,-2 -11,-2 -15,0 -28,12 -28,28 v 50 c 0,12 7,23 18,27 l 37,14 V 44 L 39,37 C 36,36 31,35 28,35 13,35 0,48 0,64 Z M 176,91 99,61 V -91 l 77,30 z"
       transform="scale(0.0029,-0.0029)" />
  </g>
  <g
     id="g886"
     transform="translate(119.1927,3.1374079)">
    <path
       id="path884"
       fill="currentColor"
       d="m 208,139 c 61,0 117,-33 117,-99 0,-71 -52,-119 -99,-147 -34,-20 -71,-32 -110,-32 -61,0 -116,33 -116,99 0,71 51,119 98,147 34,20 71,32 110,32 z"
       transform="scale(0.0029,-0.0029)" />
  </g>
  <g
     id="g890"
     transform="translate(109.7504,4.2427079)">
    <path
       id="path888"
       fill="currentColor"
       d="m 208,139 c 61,0 117,-33 117,-99 0,-71 -52,-119 -99,-147 -34,-20 -71,-32 -110,-32 -61,0 -116,33 -116,99 0,71 51,119 98,147 34,20 71,32 110,32 z"
       transform="scale(0.0029,-0.0029)" />
  </g>
  <g
     id="g894"
     transform="translate(107.3439,4.9795079)">
    <path
       id="path892"
       fill="currentColor"
       d="m 208,139 c 61,0 117,-33 117,-99 0,-71 -52,-119 -99,-147 -34,-20 -71,-32 -110,-32 -61,0 -116,33 -116,99 0,71 51,119 98,147 34,20 71,32 110,32 z"
       transform="scale(0.0029,-0.0029)" />
  </g>
  <g
     id="g898"
     transform="translate(108.239,5.7163079)">
    <rect
       id="rect896"
       fill="currentColor"
       ry="0.042100001"
       height="2.8359001"
       width="0.1228"
       y="-3.6919999"
       x="-0.0614" />
  </g>
  <g
     id="g902"
     transform="translate(110.6455,5.7163079)">
    <rect
       id="rect900"
       fill="currentColor"
       ry="0.042100001"
       height="2.4038"
       width="0.1228"
       y="-3.9967"
       x="-0.0614" />
  </g>
  <g
     id="g906"
     transform="translate(112.1569,3.1374079)">
    <path
       id="path904"
       fill="currentColor"
       d="m 208,139 c 61,0 117,-33 117,-99 0,-71 -52,-119 -99,-147 -34,-20 -71,-32 -110,-32 -61,0 -116,33 -116,99 0,71 51,119 98,147 34,20 71,32 110,32 z"
       transform="scale(0.0029,-0.0029)" />
  </g>
  <g
     id="g910"
     transform="translate(113.052,5.7163079)">
    <rect
       id="rect908"
       fill="currentColor"
       ry="0.042100001"
       height="1.6033"
       width="0.1228"
       y="-4.3014998"
       x="-0.0614" />
  </g>
  <g
     id="g914"
     transform="translate(81.0428,4.9795079)">
    <path
       id="path912"
       fill="currentColor"
       d="m 208,139 c 61,0 117,-33 117,-99 0,-71 -52,-119 -99,-147 -34,-20 -71,-32 -110,-32 -61,0 -116,33 -116,99 0,71 51,119 98,147 34,20 71,32 110,32 z"
       transform="scale(0.0029,-0.0029)" />
  </g>
  <g
     id="g918"
     transform="translate(81.9379,5.7163079)">
    <rect
       id="rect916"
       fill="currentColor"
       ry="0.042100001"
       height="2.4597001"
       width="0.1228"
       y="-3.3158"
       x="-0.0614" />
  </g>
  <g
     id="g922"
     transform="translate(83.7599,5.3479079)">
    <path
       id="path920"
       fill="currentColor"
       d="m 208,139 c 61,0 117,-33 117,-99 0,-71 -52,-119 -99,-147 -34,-20 -71,-32 -110,-32 -61,0 -116,33 -116,99 0,71 51,119 98,147 34,20 71,32 110,32 z"
       transform="scale(0.0029,-0.0029)" />
  </g>
  <g
     id="g926"
     transform="translate(84.655,5.7163079)">
    <rect
       id="rect924"
       fill="currentColor"
       ry="0.042100001"
       height="2.3301001"
       width="0.1228"
       y="-2.8176999"
       x="-0.0614" />
  </g>
  <g
     id="g930"
     transform="translate(82.5993,5.3479079)">
    <path
       id="path928"
       fill="currentColor"
       d="m 0,114 c 0,12 7,22 18,26 l 37,15 v 151 c 0,12 10,22 22,22 12,0 22,-10 22,-22 V 172 l 77,29 v 152 c 0,12 10,22 22,22 12,0 22,-10 22,-22 V 219 l 16,6 c 3,1 8,2 11,2 15,0 28,-12 28,-28 v -50 c 0,-12 -7,-23 -18,-27 L 220,108 V -44 l 16,7 c 3,1 8,2 11,2 15,0 28,-13 28,-29 v -50 c 0,-12 -7,-22 -18,-26 l -37,-15 v -151 c 0,-12 -10,-22 -22,-22 -12,0 -22,10 -22,22 v 134 l -77,-29 v -152 c 0,-12 -10,-22 -22,-22 -12,0 -22,10 -22,22 v 134 l -16,-6 c -3,-1 -8,-2 -11,-2 -15,0 -28,12 -28,28 v 50 c 0,12 7,23 18,27 l 37,14 V 44 L 39,37 C 36,36 31,35 28,35 13,35 0,48 0,64 Z M 176,91 99,61 V -91 l 77,30 z"
       transform="scale(0.0029,-0.0029)" />
  </g>
  <g
     id="g934"
     transform="translate(76.7299,4.2427079)">
    <path
       id="path932"
       fill="currentColor"
       d="m 208,139 c 61,0 117,-33 117,-99 0,-71 -52,-119 -99,-147 -34,-20 -71,-32 -110,-32 -61,0 -116,33 -116,99 0,71 51,119 98,147 34,20 71,32 110,32 z"
       transform="scale(0.0029,-0.0029)" />
  </g>
  <g
     id="g938"
     transform="translate(77.625,5.7163079)">
    <rect
       id="rect936"
       fill="currentColor"
       ry="0.042100001"
       height="1.7229"
       width="0.1228"
       y="-3.3158"
       x="-0.0614" />
  </g>
  <g
     id="g942"
     transform="translate(78.8864,4.6111079)">
    <path
       id="path940"
       fill="currentColor"
       d="m 208,139 c 61,0 117,-33 117,-99 0,-71 -52,-119 -99,-147 -34,-20 -71,-32 -110,-32 -61,0 -116,33 -116,99 0,71 51,119 98,147 34,20 71,32 110,32 z"
       transform="scale(0.0029,-0.0029)" />
  </g>
  <g
     id="g946"
     transform="translate(79.7815,5.7163079)">
    <rect
       id="rect944"
       fill="currentColor"
       ry="0.042100001"
       height="2.0913"
       width="0.1228"
       y="-3.3158"
       x="-0.0614" />
  </g>
  <g
     id="g950"
     transform="translate(86.8663,6.0848079)">
    <path
       id="path948"
       fill="currentColor"
       d="m 208,139 c 61,0 117,-33 117,-99 0,-71 -52,-119 -99,-147 -34,-20 -71,-32 -110,-32 -61,0 -116,33 -116,99 0,71 51,119 98,147 34,20 71,32 110,32 z"
       transform="scale(0.0029,-0.0029)" />
  </g>
  <g
     id="g954"
     transform="translate(87.7614,5.7163079)">
    <rect
       id="rect952"
       fill="currentColor"
       ry="0.042100001"
       height="3.0669"
       width="0.1228"
       y="-2.8176999"
       x="-0.0614" />
  </g>
  <g
     id="g958"
     transform="translate(91.3679,5.7163079)">
    <rect
       id="rect956"
       fill="currentColor"
       ry="0.042100001"
       height="1.5933"
       width="0.1228"
       y="-2.8176999"
       x="-0.0614" />
  </g>
  <g
     id="g962"
     transform="translate(90.4728,4.6111079)">
    <path
       id="path960"
       fill="currentColor"
       d="m 208,139 c 61,0 117,-33 117,-99 0,-71 -52,-119 -99,-147 -34,-20 -71,-32 -110,-32 -61,0 -116,33 -116,99 0,71 51,119 98,147 34,20 71,32 110,32 z"
       transform="scale(0.0029,-0.0029)" />
  </g>
</svg>
