<?xml version="1.0" encoding="UTF-8" standalone="no"?>
<svg
   xmlns:dc="http://purl.org/dc/elements/1.1/"
   xmlns:cc="http://creativecommons.org/ns#"
   xmlns:rdf="http://www.w3.org/1999/02/22-rdf-syntax-ns#"
   xmlns:svg="http://www.w3.org/2000/svg"
   xmlns="http://www.w3.org/2000/svg"
   xmlns:sodipodi="http://sodipodi.sourceforge.net/DTD/sodipodi-0.dtd"
   xmlns:inkscape="http://www.inkscape.org/namespaces/inkscape"
   width="120mm"
   height="120mm"
   viewBox="0 0 120 120"
   version="1.1"
   id="svg1963"
   inkscape:version="1.0 (4035a4f, 2020-05-01)"
   sodipodi:docname="Bach_Seal_full_left_120x120.svg">
  <defs
     id="defs1957" />
  <sodipodi:namedview
     id="base"
     pagecolor="#ffffff"
     bordercolor="#666666"
     borderopacity="1.0"
     inkscape:pageopacity="0.0"
     inkscape:pageshadow="2"
     inkscape:zoom="0.35"
     inkscape:cx="145.70403"
     inkscape:cy="1031.0477"
     inkscape:document-units="mm"
     inkscape:current-layer="layer1"
     inkscape:document-rotation="0"
     showgrid="false"
     fit-margin-top="0"
     fit-margin-left="0"
     fit-margin-right="0"
     fit-margin-bottom="0"
     inkscape:window-width="834"
     inkscape:window-height="825"
     inkscape:window-x="753"
     inkscape:window-y="168"
     inkscape:window-maximized="0" />
  <metadata
     id="metadata1960">
    <rdf:RDF>
      <cc:Work
         rdf:about="">
        <dc:format>image/svg+xml</dc:format>
        <dc:type
           rdf:resource="http://purl.org/dc/dcmitype/StillImage" />
        <dc:title></dc:title>
      </cc:Work>
    </rdf:RDF>
  </metadata>
  <g
     inkscape:label="Layer 1"
     inkscape:groupmode="layer"
     id="layer1"
     transform="translate(-67.282474,124.63137)">
    <g
       transform="matrix(0.35277777,0,0,0.35277777,62.867282,-171.03965)"
       id="g1701">
      <path
         d="m 171.34192,155.90511 c 1.46796,-10.00493 14.01119,-10.08962 8.66617,1.14645 1.77312,20.02421 22.75452,29.89132 39.13469,36.79791 6.52158,3.14986 21.18445,4.45549 7.55763,9.10433 -36.61016,24.90502 -55.69445,67.58594 -89.95621,95.16865 -22.46878,19.36564 -55.433608,30.85032 -84.159898,19.52819 -14.909385,-6.30291 -23.502457,-23.26154 -21.046018,-39.0492 -9.175281,-2.71059 -17.776829,-28.51932 -4.247777,-23.52198 1.820274,6.5025 5.747259,20.08495 9.17748,6.92062 6.827015,11.72087 -2.081937,29.7321 9.025006,41.3014 18.339033,17.31267 47.997365,10.84163 65.740847,-4.165 23.05468,-18.49237 37.77673,-45.04217 60.23233,-64.25216 12.22893,-13.27879 34.62694,-26.34053 43.93802,-35.51132 -27.19995,-7.47474 -49.07244,-27.64293 -76.64298,-33.79476 -25.04318,-3.87474 -51.802881,16.16392 -51.916087,42.2879 -6.93331,15.27718 21.397237,10.98416 11.119675,27.21754 -14.209875,10.06207 -19.715601,-7.85586 -16.065956,-18.41747 -2.01379,-17.66718 3.570186,-36.93104 17.429619,-48.67193 -7.706501,2.00416 -28.176074,-1.20526 -12.550487,-9.26957 15.463376,3.09268 30.843416,0.0417 46.042476,-3.47954 14.77862,-0.077 29.06411,5.29711 41.66621,12.69473 -0.77803,-4.09035 -4.00892,-7.64928 -3.14474,-12.03479 z"
         style="fill:none;stroke:#000000;stroke-width:0.1;stroke-linecap:butt;stroke-linejoin:miter;stroke-miterlimit:10"
         id="path1300" />
      <path
         d="m 171.34192,155.90511 c 1.46796,-10.00493 14.01119,-10.08962 8.66617,1.14645 1.77312,20.02421 22.75452,29.89132 39.13469,36.79791 6.52158,3.14986 21.18445,4.45549 7.55763,9.10433 -36.61016,24.90502 -55.69445,67.58594 -89.95621,95.16865 -22.46878,19.36564 -55.433608,30.85032 -84.159898,19.52819 -14.909385,-6.30291 -23.502457,-23.26154 -21.046018,-39.0492 -9.175281,-2.71059 -17.776829,-28.51932 -4.247777,-23.52198 1.820274,6.5025 5.747259,20.08495 9.17748,6.92062 6.827015,11.72087 -2.081937,29.7321 9.025006,41.3014 18.339033,17.31267 47.997365,10.84163 65.740847,-4.165 23.05468,-18.49237 37.77673,-45.04217 60.23233,-64.25216 12.22893,-13.27879 34.62694,-26.34053 43.93802,-35.51132 -27.19995,-7.47474 -49.07244,-27.64293 -76.64298,-33.79476 -25.04318,-3.87474 -51.802881,16.16392 -51.916087,42.2879 -6.93331,15.27718 21.397237,10.98416 11.119675,27.21754 -14.209875,10.06207 -19.715601,-7.85586 -16.065956,-18.41747 -2.01379,-17.66718 3.570186,-36.93104 17.429619,-48.67193 -7.706501,2.00416 -28.176074,-1.20526 -12.550487,-9.26957 15.463376,3.09268 30.843416,0.0417 46.042476,-3.47954 14.77862,-0.077 29.06411,5.29711 41.66621,12.69473 -0.77803,-4.09035 -4.00892,-7.64928 -3.14474,-12.03479 z"
         style="fill:#000000;fill-rule:nonzero;stroke:none"
         id="path1302" />
      <path
         d="m 318.94612,200.0007 c 5.73155,-11.41937 38.0218,-2.3466 16.63832,3.73507 -7.29938,0.45892 -13.4031,-0.0303 -4.71209,5.72153 15.79354,14.67844 21.26025,43.95469 3.23915,59.02337 -12.74916,11.39861 -32.42527,-3.26372 -27.28116,-18.64683 1.6823,-18.16579 34.26888,-9.87875 18.09244,4.57208 -8.93948,5.43527 -17.15663,-12.55972 -14.40799,4.13085 5.98657,18.773 30.90986,6.20809 29.2424,-9.96061 4.2525,-25.79783 -20.72192,-49.38102 -46.11915,-45.66305 -22.0212,1.09034 -33.8615,21.61845 -45.05232,37.64787 -28.06848,40.91569 -47.88149,90.08135 -90.64087,118.64943 -27.3144,19.50325 -67.654084,20.58032 -95.127925,0.93856 -8.249048,-9.59165 -13.174494,-19.14194 -26.402801,-22.05019 -9.97794,-10.79293 9.385694,-11.16306 13.474685,-2.59288 -1.750932,-5.87017 -1.094619,-22.39508 4.542672,-11.17673 -2.15351,20.09391 14.263475,37.95773 33.849008,40.26468 30.413871,5.86649 57.124341,-14.56361 77.629461,-34.32719 33.4526,-32.02984 49.80797,-76.98236 80.70949,-110.96254 17.99605,-19.31073 46.98455,-29.73345 72.32668,-19.30342 z"
         style="fill:none;stroke:#000000;stroke-width:0.1;stroke-linecap:butt;stroke-linejoin:miter;stroke-miterlimit:10"
         id="path1328" />
      <path
         d="m 318.94612,200.0007 c 5.73155,-11.41937 38.0218,-2.3466 16.63832,3.73507 -7.29938,0.45892 -13.4031,-0.0303 -4.71209,5.72153 15.79354,14.67844 21.26025,43.95469 3.23915,59.02337 -12.74916,11.39861 -32.42527,-3.26372 -27.28116,-18.64683 1.6823,-18.16579 34.26888,-9.87875 18.09244,4.57208 -8.93948,5.43527 -17.15663,-12.55972 -14.40799,4.13085 5.98657,18.773 30.90986,6.20809 29.2424,-9.96061 4.2525,-25.79783 -20.72192,-49.38102 -46.11915,-45.66305 -22.0212,1.09034 -33.8615,21.61845 -45.05232,37.64787 -28.06848,40.91569 -47.88149,90.08135 -90.64087,118.64943 -27.3144,19.50325 -67.654084,20.58032 -95.127925,0.93856 -8.249048,-9.59165 -13.174494,-19.14194 -26.402801,-22.05019 -9.97794,-10.79293 9.385694,-11.16306 13.474685,-2.59288 -1.750932,-5.87017 -1.094619,-22.39508 4.542672,-11.17673 -2.15351,20.09391 14.263475,37.95773 33.849008,40.26468 30.413871,5.86649 57.124341,-14.56361 77.629461,-34.32719 33.4526,-32.02984 49.80797,-76.98236 80.70949,-110.96254 17.99605,-19.31073 46.98455,-29.73345 72.32668,-19.30342 z"
         style="fill:#000000;fill-rule:nonzero;stroke:none"
         id="path1330" />
      <path
         d="m 244.87718,230.96019 c 4.35823,-6.15121 17.97832,-20.14419 7.42044,-5.44515 -21.16505,32.15131 -40.06316,65.9538 -63.81529,96.29962 -17.22955,20.10696 -38.33375,39.31392 -64.82529,45.4743 41.87682,-18.40985 70.44989,-56.66909 92.93804,-95.05543 8.89229,-14.11231 18.0656,-28.07502 28.2821,-41.27334 z"
         style="fill:none;stroke:#ffffff;stroke-width:0.1;stroke-linecap:butt;stroke-linejoin:miter;stroke-miterlimit:10"
         id="path1352" />
      <path
         d="m 244.87718,230.96019 c 4.35823,-6.15121 17.97832,-20.14419 7.42044,-5.44515 -21.16505,32.15131 -40.06316,65.9538 -63.81529,96.29962 -17.22955,20.10696 -38.33375,39.31392 -64.82529,45.4743 41.87682,-18.40985 70.44989,-56.66909 92.93804,-95.05543 8.89229,-14.11231 18.0656,-28.07502 28.2821,-41.27334 z"
         style="fill:#ffffff;fill-rule:nonzero;stroke:none"
         id="path1354" />
      <path
         d="m 178.1736,238.19521 c 4.22968,-4.49115 25.33182,-25.43263 13.90055,-11.28705 -24.64202,30.40977 -50.96897,60.47954 -83.58899,82.50583 -10.030073,3.6074 10.86097,-9.00305 13.84193,-13.63322 19.45576,-18.36401 37.24049,-38.38413 55.84651,-57.58556 z"
         style="fill:none;stroke:#ffffff;stroke-width:0.1;stroke-linecap:butt;stroke-linejoin:miter;stroke-miterlimit:10"
         id="path1356" />
      <path
         d="m 178.1736,238.19521 c 4.22968,-4.49115 25.33182,-25.43263 13.90055,-11.28705 -24.64202,30.40977 -50.96897,60.47954 -83.58899,82.50583 -10.030073,3.6074 10.86097,-9.00305 13.84193,-13.63322 19.45576,-18.36401 37.24049,-38.38413 55.84651,-57.58556 z"
         style="fill:#ffffff;fill-rule:nonzero;stroke:none"
         id="path1358" />
      <path
         d="m 226.39551,327.40877 c 17.44516,-24.49948 32.59119,-50.52513 47.41173,-76.66516 21.13048,9.03322 45.57205,24.8955 46.72625,50.29683 0.56034,25.71648 -24.35577,51.23619 -50.83601,44.39465 -17.11829,-0.69906 -16.47136,-28.20521 2.37943,-19.46538 7.87021,0.56007 22.26026,15.37004 7.44939,8.58618 -6.12923,-7.72639 -27.14087,-5.23948 -12.37889,4.54178 19.4178,9.52834 37.32293,-10.14943 41.67206,-27.72801 6.8427,-19.11433 -3.90491,-40.26685 -21.49664,-49.0923 -13.85615,-11.50647 -12.35744,17.32129 -19.6141,25.03594 -16.81564,40.17641 -44.29044,75.37515 -78.74932,101.92488 -4.13987,4.83025 -23.31659,17.8807 -13.0214,6.03682 38.6497,-31.03889 70.42178,-71.41925 89.0828,-117.50039 -21.74224,40.97335 -50.48541,78.51891 -84.88157,109.66459 -3.32033,5.78376 -19.77974,13.03757 -9.81539,2.73981 20.73359,-18.96329 39.87139,-39.77782 56.07166,-62.77024 z"
         style="fill:none;stroke:#000000;stroke-width:0.1;stroke-linecap:butt;stroke-linejoin:miter;stroke-miterlimit:10"
         id="path1376" />
      <path
         d="m 226.39551,327.40877 c 17.44516,-24.49948 32.59119,-50.52513 47.41173,-76.66516 21.13048,9.03322 45.57205,24.8955 46.72625,50.29683 0.56034,25.71648 -24.35577,51.23619 -50.83601,44.39465 -17.11829,-0.69906 -16.47136,-28.20521 2.37943,-19.46538 7.87021,0.56007 22.26026,15.37004 7.44939,8.58618 -6.12923,-7.72639 -27.14087,-5.23948 -12.37889,4.54178 19.4178,9.52834 37.32293,-10.14943 41.67206,-27.72801 6.8427,-19.11433 -3.90491,-40.26685 -21.49664,-49.0923 -13.85615,-11.50647 -12.35744,17.32129 -19.6141,25.03594 -16.81564,40.17641 -44.29044,75.37515 -78.74932,101.92488 -4.13987,4.83025 -23.31659,17.8807 -13.0214,6.03682 38.6497,-31.03889 70.42178,-71.41925 89.0828,-117.50039 -21.74224,40.97335 -50.48541,78.51891 -84.88157,109.66459 -3.32033,5.78376 -19.77974,13.03757 -9.81539,2.73981 20.73359,-18.96329 39.87139,-39.77782 56.07166,-62.77024 z"
         style="fill:#000000;fill-rule:nonzero;stroke:none"
         id="path1378" />
      <path
         d="m 287.78268,350.3987 c 14.91541,-5.77258 8.3344,22.80711 7.25286,31.91918 -4.65845,9.59576 -7.07389,19.95679 5.34763,10.52508 5.72736,-11.26877 26.43196,-2.5991 10.14933,4.39994 -12.4634,5.82964 -26.32376,-0.38508 -30.97844,15.72486 -4.93704,7.57346 -19.36804,18.13864 -1.82956,16.01238 19.43928,8.81294 -12.70749,16.68963 -17.21696,3.38548 -11.36027,7.41301 -25.60377,9.36042 -38.84401,7.3235 6.96066,5.59401 9.39878,22.68239 -2.66799,12.42175 -5.20004,-18.22072 -26.15092,-17.58383 -38.09689,-31.92228 -11.69115,-9.18045 -21.66395,-25.85777 -38.84245,-22.48142 -17.40697,5.18528 8.8492,12.59699 14.71902,4.46243 14.21465,11.25667 -19.64913,12.0221 -26.09574,5.30396 -6.32918,-21.35296 28.77217,-17.37365 38.39943,-6.10029 20.14544,21.14616 52.6455,34.60716 80.7852,21.50872 27.68266,-11.76989 42.39802,-43.47789 37.91857,-72.48329 z"
         style="fill:none;stroke:#000000;stroke-width:0.1;stroke-linecap:butt;stroke-linejoin:miter;stroke-miterlimit:10"
         id="path1496" />
      <path
         d="m 287.78268,350.3987 c 14.91541,-5.77258 8.3344,22.80711 7.25286,31.91918 -4.65845,9.59576 -7.07389,19.95679 5.34763,10.52508 5.72736,-11.26877 26.43196,-2.5991 10.14933,4.39994 -12.4634,5.82964 -26.32376,-0.38508 -30.97844,15.72486 -4.93704,7.57346 -19.36804,18.13864 -1.82956,16.01238 19.43928,8.81294 -12.70749,16.68963 -17.21696,3.38548 -11.36027,7.41301 -25.60377,9.36042 -38.84401,7.3235 6.96066,5.59401 9.39878,22.68239 -2.66799,12.42175 -5.20004,-18.22072 -26.15092,-17.58383 -38.09689,-31.92228 -11.69115,-9.18045 -21.66395,-25.85777 -38.84245,-22.48142 -17.40697,5.18528 8.8492,12.59699 14.71902,4.46243 14.21465,11.25667 -19.64913,12.0221 -26.09574,5.30396 -6.32918,-21.35296 28.77217,-17.37365 38.39943,-6.10029 20.14544,21.14616 52.6455,34.60716 80.7852,21.50872 27.68266,-11.76989 42.39802,-43.47789 37.91857,-72.48329 z"
         style="fill:#000000;fill-rule:nonzero;stroke:none"
         id="path1498" />
    </g>
  </g>
</svg>
