<?xml version="1.0" encoding="UTF-8" standalone="no"?>
<svg
   xmlns:dc="http://purl.org/dc/elements/1.1/"
   xmlns:cc="http://creativecommons.org/ns#"
   xmlns:rdf="http://www.w3.org/1999/02/22-rdf-syntax-ns#"
   xmlns:svg="http://www.w3.org/2000/svg"
   xmlns="http://www.w3.org/2000/svg"
   xmlns:sodipodi="http://sodipodi.sourceforge.net/DTD/sodipodi-0.dtd"
   xmlns:inkscape="http://www.inkscape.org/namespaces/inkscape"
   sodipodi:docname="Bach_Seal_full_right_120x120.svg"
   inkscape:version="1.0 (4035a4f, 2020-05-01)"
   id="svg2876"
   version="1.1"
   viewBox="0 0 120 120"
   height="120mm"
   width="120mm">
  <defs
     id="defs2870" />
  <sodipodi:namedview
     inkscape:window-maximized="0"
     inkscape:window-y="25"
     inkscape:window-x="0"
     inkscape:window-height="825"
     inkscape:window-width="834"
     fit-margin-bottom="0"
     fit-margin-right="0"
     fit-margin-left="0"
     fit-margin-top="0"
     showgrid="false"
     inkscape:document-rotation="0"
     inkscape:current-layer="layer1"
     inkscape:document-units="mm"
     inkscape:cy="1019.061"
     inkscape:cx="135.1146"
     inkscape:zoom="0.35"
     inkscape:pageshadow="2"
     inkscape:pageopacity="0.0"
     borderopacity="1.0"
     bordercolor="#666666"
     pagecolor="#ffffff"
     id="base" />
  <metadata
     id="metadata2873">
    <rdf:RDF>
      <cc:Work
         rdf:about="">
        <dc:format>image/svg+xml</dc:format>
        <dc:type
           rdf:resource="http://purl.org/dc/dcmitype/StillImage" />
        <dc:title></dc:title>
      </cc:Work>
    </rdf:RDF>
  </metadata>
  <g
     transform="translate(-70.084263,121.45988)"
     id="layer1"
     inkscape:groupmode="layer"
     inkscape:label="Layer 1">
    <g
       id="g1717"
       transform="matrix(0.35277777,0,0,0.35277777,-183.50539,-168.47396)">
      <path
         style="fill:none;stroke:#000000;stroke-width:0.1;stroke-linecap:butt;stroke-linejoin:miter;stroke-miterlimit:10"
         d="m 909.119,154.11816 c 1.13488,-2.64999 2.67737,-5.86293 5.86585,-6.36035 2.03122,-0.5393 3.36951,1.58104 3.71345,3.28191 0.48418,3.84531 -0.82312,7.58774 -1.71908,11.27185 12.34813,-3.38889 25.67305,-4.29524 38.09736,-0.7914 9.4178,3.30017 18.82849,7.59483 28.9851,7.72653 3.86935,0.15972 7.04983,-3.18618 10.93231,-2.37713 2.72307,2.30304 0.87192,6.94137 -1.97557,8.34425 -5.20343,2.51741 -11.15906,2.12058 -16.74857,2.8562 7.88288,14.19263 9.99552,32.48023 1.86154,47.04154 3.65549,7.08909 -1.80566,17.39051 -10.15414,16.91169 -5.19902,0.25469 -10.15456,-4.85948 -8.50556,-10.12284 1.09253,-6.62894 8.50141,-9.66762 14.57529,-8.93946 9.89794,-17.24272 1.78124,-41.25343 -15.45624,-50.39525 -9.99444,-5.19458 -21.92839,-4.94625 -32.50897,-1.78427 -19.36351,5.63298 -37.28078,15.10115 -55.53479,23.48384 -5.97925,2.65987 -11.89804,5.60326 -18.28647,7.15374 15.07703,8.76153 28.41806,20.17036 41.37224,31.76319 19.7128,18.01337 37.94557,37.59473 55.17597,57.98327 4.34614,4.97714 8.20217,10.47721 13.47596,14.5598 9.0371,7.53878 20.78267,12.13334 32.63945,11.47624 11.09257,-0.6167 21.71457,-6.16439 28.80857,-14.67209 7.4743,-8.88921 10.3887,-21.35776 7.8118,-32.66281 0.9995,-1.27315 2.0212,-2.532 3.0813,-3.76876 1.719,2.82779 2.8862,5.95609 3.0644,9.29065 2.4145,-1.46933 4.4231,-3.4645 5.8674,-5.90417 1.4321,-2.42038 4.267,-4.85851 7.2279,-3.38672 2.2395,2.24957 1.8561,6.23164 0.1761,8.71356 -3.4335,3.85703 -8.3473,5.94077 -13.1294,7.58306 -0.2355,14.72557 -10.042,27.88325 -22.744,34.64228 -19.99444,10.42511 -45.37362,8.22437 -64.24877,-3.67103 -13.68959,-9.0222 -25.39336,-20.69953 -36.01752,-33.10578 -25.07151,-29.1533 -51.82197,-57.06453 -82.19136,-80.7704 16.77404,0.50014 32.84278,-6.2102 46.65583,-15.25651 11.94249,-7.54256 24.82161,-16.23099 29.83262,-30.11463 z m 0,0"
         id="path1304" />
      <path
         style="fill:#000000;fill-rule:nonzero;stroke:none"
         d="m 909.119,154.11816 c 1.13488,-2.64999 2.67737,-5.86293 5.86585,-6.36035 2.03122,-0.5393 3.36951,1.58104 3.71345,3.28191 0.48418,3.84531 -0.82312,7.58774 -1.71908,11.27185 12.34813,-3.38889 25.67305,-4.29524 38.09736,-0.7914 9.4178,3.30017 18.82849,7.59483 28.9851,7.72653 3.86935,0.15972 7.04983,-3.18618 10.93231,-2.37713 2.72307,2.30304 0.87192,6.94137 -1.97557,8.34425 -5.20343,2.51741 -11.15906,2.12058 -16.74857,2.8562 7.88288,14.19263 9.99552,32.48023 1.86154,47.04154 3.65549,7.08909 -1.80566,17.39051 -10.15414,16.91169 -5.19902,0.25469 -10.15456,-4.85948 -8.50556,-10.12284 1.09253,-6.62894 8.50141,-9.66762 14.57529,-8.93946 9.89794,-17.24272 1.78124,-41.25343 -15.45624,-50.39525 -9.99444,-5.19458 -21.92839,-4.94625 -32.50897,-1.78427 -19.36351,5.63298 -37.28078,15.10115 -55.53479,23.48384 -5.97925,2.65987 -11.89804,5.60326 -18.28647,7.15374 15.07703,8.76153 28.41806,20.17036 41.37224,31.76319 19.7128,18.01337 37.94557,37.59473 55.17597,57.98327 4.34614,4.97714 8.20217,10.47721 13.47596,14.5598 9.0371,7.53878 20.78267,12.13334 32.63945,11.47624 11.09257,-0.6167 21.71457,-6.16439 28.80857,-14.67209 7.4743,-8.88921 10.3887,-21.35776 7.8118,-32.66281 0.9995,-1.27315 2.0212,-2.532 3.0813,-3.76876 1.719,2.82779 2.8862,5.95609 3.0644,9.29065 2.4145,-1.46933 4.4231,-3.4645 5.8674,-5.90417 1.4321,-2.42038 4.267,-4.85851 7.2279,-3.38672 2.2395,2.24957 1.8561,6.23164 0.1761,8.71356 -3.4335,3.85703 -8.3473,5.94077 -13.1294,7.58306 -0.2355,14.72557 -10.042,27.88325 -22.744,34.64228 -19.99444,10.42511 -45.37362,8.22437 -64.24877,-3.67103 -13.68959,-9.0222 -25.39336,-20.69953 -36.01752,-33.10578 -25.07151,-29.1533 -51.82197,-57.06453 -82.19136,-80.7704 16.77404,0.50014 32.84278,-6.2102 46.65583,-15.25651 11.94249,-7.54256 24.82161,-16.23099 29.83262,-30.11463 z m 0,0"
         id="path1306" />
      <path
         style="fill:none;stroke:#000000;stroke-width:0.1;stroke-linecap:butt;stroke-linejoin:miter;stroke-miterlimit:10"
         d="m 736.92133,188.985 c 2.72662,-2.14009 6.68136,-1.84001 9.71695,-0.52802 4.97216,2.25918 9.34207,5.80648 12.5729,10.21755 16.52745,-2.18666 33.47168,2.79459 47.03067,12.26849 12.53116,8.6706 22.22733,20.80263 29.95769,33.81047 20.0863,31.3953 42.94366,61.30027 70.13756,86.89946 12.5738,11.68309 26.15794,22.44188 41.30635,30.61219 10.42787,5.46185 21.57979,10.17492 33.38313,11.42039 14.82469,0.0374 29.38672,-10.03448 34.37182,-24.04013 2.5566,-9.48425 2.1655,-19.51575 1.0812,-29.19147 1.7944,-0.97708 3.5975,-1.957 5.4185,-2.91107 1.4664,9.32967 1.3256,18.80725 0.2138,28.16684 5.0432,-3.49205 9.3202,-8.09051 14.7934,-10.94057 2.5557,-1.28975 6.7595,-2.34538 8.358,0.8689 1.7009,4.3842 -1.9178,8.97972 -5.8094,10.72177 -6.5624,2.5726 -13.2948,4.70516 -19.8031,7.41695 -5.9214,12.31955 -17.3252,22.04434 -30.69841,25.22401 -13.66279,3.39501 -28.02469,0.73839 -40.99148,-4.10669 -29.3288,-11.25691 -55.41548,-30.18341 -76.42099,-53.42567 -8.11161,-8.88799 -15.52394,-18.37821 -22.94315,-27.83887 -9.58792,-13.72636 -17.42326,-28.57293 -26.6236,-42.55159 -8.94108,-13.72188 -18.58869,-27.37297 -31.46678,-37.70407 -7.92332,-6.27167 -18.37194,-10.93146 -28.59771,-8.2858 -9.45641,2.47332 -17.42467,9.07401 -22.99749,16.94873 -5.60505,7.98296 -8.71965,18.35793 -5.8986,27.96733 2.23936,8.46735 9.34276,15.70519 18.08914,17.23301 5.14127,1.03384 11.17688,-0.64893 14.13742,-5.20774 2.0269,-2.86453 2.32488,-6.48027 2.34966,-9.87846 -2.61007,2.93184 -6.40561,5.28358 -10.47649,4.19427 -6.38257,-1.44136 -7.86052,-10.47093 -3.71846,-14.90446 3.63828,-4.28912 11.32907,-3.96899 14.39511,0.85735 4.9254,7.32226 4.17743,18.16497 -1.84389,24.65695 -5.32805,5.51567 -13.96461,5.70854 -20.8226,3.36593 -7.36552,-2.41183 -13.08018,-8.45094 -16.15304,-15.43821 -4.00289,-8.95108 -4.86602,-19.6097 -0.94596,-28.74135 4.3329,-10.35922 13.24134,-18.19206 23.07084,-23.24542 -4.70432,-1.55822 -9.76111,-3.03071 -13.37334,-6.60613 -1.85301,-1.81503 -3.11768,-5.38226 -0.79965,-7.30487 z m 0,0"
         id="path1316" />
      <path
         style="fill:#000000;fill-rule:nonzero;stroke:none"
         d="m 736.92133,188.985 c 2.72662,-2.14009 6.68136,-1.84001 9.71695,-0.52802 4.97216,2.25918 9.34207,5.80648 12.5729,10.21755 16.52745,-2.18666 33.47168,2.79459 47.03067,12.26849 12.53116,8.6706 22.22733,20.80263 29.95769,33.81047 20.0863,31.3953 42.94366,61.30027 70.13756,86.89946 12.5738,11.68309 26.15794,22.44188 41.30635,30.61219 10.42787,5.46185 21.57979,10.17492 33.38313,11.42039 14.82469,0.0374 29.38672,-10.03448 34.37182,-24.04013 2.5566,-9.48425 2.1655,-19.51575 1.0812,-29.19147 1.7944,-0.97708 3.5975,-1.957 5.4185,-2.91107 1.4664,9.32967 1.3256,18.80725 0.2138,28.16684 5.0432,-3.49205 9.3202,-8.09051 14.7934,-10.94057 2.5557,-1.28975 6.7595,-2.34538 8.358,0.8689 1.7009,4.3842 -1.9178,8.97972 -5.8094,10.72177 -6.5624,2.5726 -13.2948,4.70516 -19.8031,7.41695 -5.9214,12.31955 -17.3252,22.04434 -30.69841,25.22401 -13.66279,3.39501 -28.02469,0.73839 -40.99148,-4.10669 -29.3288,-11.25691 -55.41548,-30.18341 -76.42099,-53.42567 -8.11161,-8.88799 -15.52394,-18.37821 -22.94315,-27.83887 -9.58792,-13.72636 -17.42326,-28.57293 -26.6236,-42.55159 -8.94108,-13.72188 -18.58869,-27.37297 -31.46678,-37.70407 -7.92332,-6.27167 -18.37194,-10.93146 -28.59771,-8.2858 -9.45641,2.47332 -17.42467,9.07401 -22.99749,16.94873 -5.60505,7.98296 -8.71965,18.35793 -5.8986,27.96733 2.23936,8.46735 9.34276,15.70519 18.08914,17.23301 5.14127,1.03384 11.17688,-0.64893 14.13742,-5.20774 2.0269,-2.86453 2.32488,-6.48027 2.34966,-9.87846 -2.61007,2.93184 -6.40561,5.28358 -10.47649,4.19427 -6.38257,-1.44136 -7.86052,-10.47093 -3.71846,-14.90446 3.63828,-4.28912 11.32907,-3.96899 14.39511,0.85735 4.9254,7.32226 4.17743,18.16497 -1.84389,24.65695 -5.32805,5.51567 -13.96461,5.70854 -20.8226,3.36593 -7.36552,-2.41183 -13.08018,-8.45094 -16.15304,-15.43821 -4.00289,-8.95108 -4.86602,-19.6097 -0.94596,-28.74135 4.3329,-10.35922 13.24134,-18.19206 23.07084,-23.24542 -4.70432,-1.55822 -9.76111,-3.03071 -13.37334,-6.60613 -1.85301,-1.81503 -3.11768,-5.38226 -0.79965,-7.30487 z m 0,0"
         id="path1318" />
      <path
         style="fill:none;stroke:#ffffff;stroke-width:0.1;stroke-linecap:butt;stroke-linejoin:miter;stroke-miterlimit:10"
         d="m 848.30337,204.95732 c 16.22942,9.3924 30.52613,21.78149 44.33384,34.37944 13.47393,13.23769 26.26477,27.15769 38.94154,41.15909 6.92009,7.386 12.67096,15.87856 20.52686,22.3656 7.39692,6.54156 15.80874,11.92778 24.99064,15.60019 -17.68155,-2.13007 -32.11992,-14.27121 -43.2671,-27.37727 -26.03316,-31.04261 -54.70523,-59.83962 -85.52578,-86.12705 z m 0,0"
         id="path1340" />
      <path
         style="fill:#ffffff;fill-rule:nonzero;stroke:none"
         d="m 848.30337,204.95732 c 16.22942,9.3924 30.52613,21.78149 44.33384,34.37944 13.47393,13.23769 26.26477,27.15769 38.94154,41.15909 6.92009,7.386 12.67096,15.87856 20.52686,22.3656 7.39692,6.54156 15.80874,11.92778 24.99064,15.60019 -17.68155,-2.13007 -32.11992,-14.27121 -43.2671,-27.37727 -26.03316,-31.04261 -54.70523,-59.83962 -85.52578,-86.12705 z m 0,0"
         id="path1342" />
      <path
         style="fill:none;stroke:#ffffff;stroke-width:0.1;stroke-linecap:butt;stroke-linejoin:miter;stroke-miterlimit:10"
         d="m 797.88162,211.68109 c 12.38429,7.82291 22.09041,19.1445 30.56528,30.9391 13.81264,19.3552 24.68742,40.71184 39.62367,59.28081 9.39556,11.1955 18.60991,22.68185 29.78177,32.19431 13.93977,11.99064 29.39823,22.03108 44.81383,31.9916 -11.84909,-4.6501 -22.70126,-11.51324 -33.11566,-18.75277 -30.9831,-21.58545 -54.44902,-52.16585 -73.46265,-84.41086 -10.4337,-18.61914 -22.55219,-36.58949 -38.20624,-51.24219 z m 0,0"
         id="path1348" />
      <path
         style="fill:#ffffff;fill-rule:nonzero;stroke:none"
         d="m 797.88162,211.68109 c 12.38429,7.82291 22.09041,19.1445 30.56528,30.9391 13.81264,19.3552 24.68742,40.71184 39.62367,59.28081 9.39556,11.1955 18.60991,22.68185 29.78177,32.19431 13.93977,11.99064 29.39823,22.03108 44.81383,31.9916 -11.84909,-4.6501 -22.70126,-11.51324 -33.11566,-18.75277 -30.9831,-21.58545 -54.44902,-52.16585 -73.46265,-84.41086 -10.4337,-18.61914 -22.55219,-36.58949 -38.20624,-51.24219 z m 0,0"
         id="path1350" />
      <path
         style="fill:none;stroke:#000000;stroke-width:0.1;stroke-linecap:butt;stroke-linejoin:miter;stroke-miterlimit:10"
         d="m 768.56256,275.63396 c 8.95711,-8.49747 20.18695,-14.23142 31.77274,-18.25147 15.4821,34.72331 34.36508,67.943 56.19279,99.07024 10.38956,14.70465 21.58756,28.85187 33.73773,42.14619 8.2103,9.13668 20.47684,14.48296 32.74453,14.40039 3.52232,-0.28897 7.88218,-0.77942 9.92533,-4.09993 1.27932,-2.738 -1.21171,-5.25538 -3.35603,-6.57919 -5.2086,-3.04723 -11.77063,-4.02476 -17.5404,-2.1109 -2.83129,1.04996 -5.2161,2.96194 -7.77416,4.50569 -1.78686,-1.21434 -3.554,-2.44127 -5.29059,-3.70065 5.70902,-5.74665 14.29819,-7.45597 22.11771,-6.59334 5.19188,0.53772 10.80224,2.00389 14.29178,6.17305 2.79252,3.20695 3.01083,8.49068 0.14554,11.72278 -3.53891,4.1772 -9.26525,5.5175 -14.5183,5.57554 -9.85887,0.0653 -19.31696,-3.43086 -28.07475,-7.66415 -17.06496,-8.29074 -31.63945,-20.91425 -44.17409,-35.01031 -12.10469,-13.75394 -22.23799,-29.16089 -30.797,-45.33559 -10.37498,-19.9177 -18.66043,-41.09 -22.86993,-63.20427 -11.34346,4.26555 -21.66512,12.66521 -26.0258,24.22972 -3.96057,9.93559 -2.75569,20.98694 -0.0772,31.08395 1.60091,5.94046 4.1003,12.04766 9.10669,15.93314 -1.11546,2.48218 -2.19957,4.97804 -3.31444,7.46043 -9.17569,-6.39834 -16.97633,-15.4879 -19.65643,-26.55462 -3.89569,-15.49047 2.20616,-32.23703 13.43425,-43.1967 z m 0,0"
         id="path1388" />
      <path
         style="fill:#000000;fill-rule:nonzero;stroke:none"
         d="m 768.56256,275.63396 c 8.95711,-8.49747 20.18695,-14.23142 31.77274,-18.25147 15.4821,34.72331 34.36508,67.943 56.19279,99.07024 10.38956,14.70465 21.58756,28.85187 33.73773,42.14619 8.2103,9.13668 20.47684,14.48296 32.74453,14.40039 3.52232,-0.28897 7.88218,-0.77942 9.92533,-4.09993 1.27932,-2.738 -1.21171,-5.25538 -3.35603,-6.57919 -5.2086,-3.04723 -11.77063,-4.02476 -17.5404,-2.1109 -2.83129,1.04996 -5.2161,2.96194 -7.77416,4.50569 -1.78686,-1.21434 -3.554,-2.44127 -5.29059,-3.70065 5.70902,-5.74665 14.29819,-7.45597 22.11771,-6.59334 5.19188,0.53772 10.80224,2.00389 14.29178,6.17305 2.79252,3.20695 3.01083,8.49068 0.14554,11.72278 -3.53891,4.1772 -9.26525,5.5175 -14.5183,5.57554 -9.85887,0.0653 -19.31696,-3.43086 -28.07475,-7.66415 -17.06496,-8.29074 -31.63945,-20.91425 -44.17409,-35.01031 -12.10469,-13.75394 -22.23799,-29.16089 -30.797,-45.33559 -10.37498,-19.9177 -18.66043,-41.09 -22.86993,-63.20427 -11.34346,4.26555 -21.66512,12.66521 -26.0258,24.22972 -3.96057,9.93559 -2.75569,20.98694 -0.0772,31.08395 1.60091,5.94046 4.1003,12.04766 9.10669,15.93314 -1.11546,2.48218 -2.19957,4.97804 -3.31444,7.46043 -9.17569,-6.39834 -16.97633,-15.4879 -19.65643,-26.55462 -3.89569,-15.49047 2.20616,-32.23703 13.43425,-43.1967 z m 0,0"
         id="path1390" />
      <path
         style="fill:none;stroke:#ffffff;stroke-width:0.1;stroke-linecap:butt;stroke-linejoin:miter;stroke-miterlimit:10"
         d="m 803.13083,279.95761 c 0.35329,0.36734 1.05987,1.10202 1.41316,1.46936 9.36069,20.27411 20.57008,39.69005 32.62578,58.48738 13.27661,20.34548 27.61421,40.2142 45.02846,57.2538 -14.64663,-9.84428 -26.48635,-23.28409 -36.96085,-37.35052 -16.696,-22.45006 -28.79013,-47.89312 -39.2253,-73.73441 -0.31487,-2.38414 -2.33451,-3.8869 -2.88125,-6.12561 z m 0,0"
         id="path1424" />
      <path
         style="fill:#ffffff;fill-rule:nonzero;stroke:none"
         d="m 803.13083,279.95761 c 0.35329,0.36734 1.05987,1.10202 1.41316,1.46936 9.36069,20.27411 20.57008,39.69005 32.62578,58.48738 13.27661,20.34548 27.61421,40.2142 45.02846,57.2538 -14.64663,-9.84428 -26.48635,-23.28409 -36.96085,-37.35052 -16.696,-22.45006 -28.79013,-47.89312 -39.2253,-73.73441 -0.31487,-2.38414 -2.33451,-3.8869 -2.88125,-6.12561 z m 0,0"
         id="path1426" />
      <path
         style="fill:none;stroke:#000000;stroke-width:0.1;stroke-linecap:butt;stroke-linejoin:miter;stroke-miterlimit:10"
         d="m 793.0735,326.09738 c 4.67185,-2.49744 10.63263,-4.47183 15.6769,-1.87836 5.80331,2.98307 6.55597,11.91611 1.74955,16.15093 -5.51207,5.14633 -13.43763,6.53668 -20.72453,6.6983 0.3082,-1.87942 0.54297,-3.77194 0.99596,-5.61923 4.91351,-0.42925 10.31221,-0.19783 14.57135,-3.1187 2.73207,-1.71441 3.95083,-5.84242 1.86142,-8.50241 -1.90633,-2.24945 -5.26004,-2.18158 -7.81389,-1.26459 -5.53641,1.95156 -9.45268,6.85785 -11.81618,12.05222 -2.64923,6.09245 -3.70395,12.79988 -3.59846,19.41905 -0.0479,16.23387 4.11265,32.85587 13.96682,45.98464 9.95589,13.75901 25.58083,24.26735 42.91025,24.93496 17.0371,0.62026 32.71919,-8.39576 44.78627,-19.74223 2.4539,1.18965 4.93637,2.33583 7.38326,3.56914 -9.23711,10.21371 -20.61928,18.71859 -33.6307,23.4463 0.56438,3.25075 1.10938,6.70294 0.17185,9.9332 -1.59285,3.85344 -4.04642,7.60257 -7.69016,9.78407 -2.20953,1.42244 -5.39665,1.55016 -7.37703,-0.31735 -1.83375,-2.14073 -1.18106,-5.51804 0.73224,-7.38332 2.7647,-3.1279 6.70334,-5.93895 6.89196,-10.5084 -13.30899,2.80302 -28.01084,2.08879 -39.57602,-5.7441 -5.17115,5.895 -12.65898,9.96806 -20.5596,10.29723 -1.68314,0.11695 -3.92801,-0.34508 -4.31655,-2.27857 0.26435,-3.65744 3.59528,-6.13606 6.7293,-7.43213 4.36744,-1.86905 10.23779,0.54735 13.65283,-3.54654 -12.22272,-8.00354 -21.78978,-19.79663 -27.41338,-33.25499 -6.93191,0.42644 -14.66354,-1.82225 -18.53763,-7.98005 -1.67556,-2.90695 -3.33627,-6.66837 -1.58911,-9.90112 0.99192,-1.46351 2.93752,-1.25451 4.46653,-1.0873 6.1309,1.56889 7.39814,10.22816 14.10557,10.62012 -2.90919,-13.58999 -4.21524,-27.87604 -1.13875,-41.55172 2.01963,-8.78482 6.92696,-17.46312 15.12993,-21.77905 z m 0,0"
         id="path1472" />
      <path
         style="fill:#000000;fill-rule:nonzero;stroke:none"
         d="m 793.0735,326.09738 c 4.67185,-2.49744 10.63263,-4.47183 15.6769,-1.87836 5.80331,2.98307 6.55597,11.91611 1.74955,16.15093 -5.51207,5.14633 -13.43763,6.53668 -20.72453,6.6983 0.3082,-1.87942 0.54297,-3.77194 0.99596,-5.61923 4.91351,-0.42925 10.31221,-0.19783 14.57135,-3.1187 2.73207,-1.71441 3.95083,-5.84242 1.86142,-8.50241 -1.90633,-2.24945 -5.26004,-2.18158 -7.81389,-1.26459 -5.53641,1.95156 -9.45268,6.85785 -11.81618,12.05222 -2.64923,6.09245 -3.70395,12.79988 -3.59846,19.41905 -0.0479,16.23387 4.11265,32.85587 13.96682,45.98464 9.95589,13.75901 25.58083,24.26735 42.91025,24.93496 17.0371,0.62026 32.71919,-8.39576 44.78627,-19.74223 2.4539,1.18965 4.93637,2.33583 7.38326,3.56914 -9.23711,10.21371 -20.61928,18.71859 -33.6307,23.4463 0.56438,3.25075 1.10938,6.70294 0.17185,9.9332 -1.59285,3.85344 -4.04642,7.60257 -7.69016,9.78407 -2.20953,1.42244 -5.39665,1.55016 -7.37703,-0.31735 -1.83375,-2.14073 -1.18106,-5.51804 0.73224,-7.38332 2.7647,-3.1279 6.70334,-5.93895 6.89196,-10.5084 -13.30899,2.80302 -28.01084,2.08879 -39.57602,-5.7441 -5.17115,5.895 -12.65898,9.96806 -20.5596,10.29723 -1.68314,0.11695 -3.92801,-0.34508 -4.31655,-2.27857 0.26435,-3.65744 3.59528,-6.13606 6.7293,-7.43213 4.36744,-1.86905 10.23779,0.54735 13.65283,-3.54654 -12.22272,-8.00354 -21.78978,-19.79663 -27.41338,-33.25499 -6.93191,0.42644 -14.66354,-1.82225 -18.53763,-7.98005 -1.67556,-2.90695 -3.33627,-6.66837 -1.58911,-9.90112 0.99192,-1.46351 2.93752,-1.25451 4.46653,-1.0873 6.1309,1.56889 7.39814,10.22816 14.10557,10.62012 -2.90919,-13.58999 -4.21524,-27.87604 -1.13875,-41.55172 2.01963,-8.78482 6.92696,-17.46312 15.12993,-21.77905 z m 0,0"
         id="path1474" />
    </g>
  </g>
</svg>
