<?xml version="1.0" encoding="UTF-8" standalone="no"?>
<svg
   xmlns:dc="http://purl.org/dc/elements/1.1/"
   xmlns:cc="http://creativecommons.org/ns#"
   xmlns:rdf="http://www.w3.org/1999/02/22-rdf-syntax-ns#"
   xmlns:svg="http://www.w3.org/2000/svg"
   xmlns="http://www.w3.org/2000/svg"
   xmlns:sodipodi="http://sodipodi.sourceforge.net/DTD/sodipodi-0.dtd"
   xmlns:inkscape="http://www.inkscape.org/namespaces/inkscape"
   sodipodi:docname="Bach_Seal_full_left_120x120.svg"
   inkscape:version="1.0 (4035a4f, 2020-05-01)"
   id="svg1963"
   version="1.1"
   viewBox="0 0 120 120"
   height="120mm"
   width="120mm">
  <defs
     id="defs1957" />
  <sodipodi:namedview
     inkscape:window-maximized="0"
     inkscape:window-y="25"
     inkscape:window-x="0"
     inkscape:window-height="825"
     inkscape:window-width="834"
     fit-margin-bottom="0"
     fit-margin-right="0"
     fit-margin-left="0"
     fit-margin-top="0"
     showgrid="false"
     inkscape:document-rotation="0"
     inkscape:current-layer="layer1"
     inkscape:document-units="mm"
     inkscape:cy="1031.0477"
     inkscape:cx="145.70403"
     inkscape:zoom="0.35"
     inkscape:pageshadow="2"
     inkscape:pageopacity="0.0"
     borderopacity="1.0"
     bordercolor="#666666"
     pagecolor="#ffffff"
     id="base" />
  <metadata
     id="metadata1960">
    <rdf:RDF>
      <cc:Work
         rdf:about="">
        <dc:format>image/svg+xml</dc:format>
        <dc:type
           rdf:resource="http://purl.org/dc/dcmitype/StillImage" />
        <dc:title></dc:title>
      </cc:Work>
    </rdf:RDF>
  </metadata>
  <g
     transform="translate(-67.282474,124.63137)"
     id="layer1"
     inkscape:groupmode="layer"
     inkscape:label="Layer 1">
    <g
       id="g1701"
       transform="matrix(0.35277777,0,0,0.35277777,62.867282,-171.03965)">
      <path
         style="fill:none;stroke:#000000;stroke-width:0.1;stroke-linecap:butt;stroke-linejoin:miter;stroke-miterlimit:10"
         d="m 171.34192,155.90511 c 0.74801,-3.83236 3.70944,-7.69498 7.76938,-8.22518 2.3677,0.15421 1.85077,2.81381 1.47905,4.41237 -1.68347,6.54297 0.4295,13.53853 4.32377,18.88547 4.28865,5.77466 10.02098,10.32171 16.13666,14.03358 10.21677,6.25342 21.51878,10.4193 32.90071,13.99787 -10.02203,4.6654 -18.56424,11.87988 -26.39609,19.56869 -25.58871,26.25699 -44.52154,58.75594 -73.49891,81.72536 -16.34554,13.17763 -36.82979,21.96989 -58.058504,21.7167 -12.649048,0.41767 -26.217529,-3.14637 -35.049927,-12.6844 -7.73439,-8.06714 -10.878326,-19.77392 -9.409775,-30.73413 -5.6483,-4.33618 -10.451126,-10.43483 -11.629486,-17.60081 -0.665497,-3.58219 1.62088,-8.98346 6.056229,-7.63894 4.234741,4.20429 2.321121,11.70852 7.395431,15.58805 0.886719,-2.38295 1.845703,-4.74016 3.107529,-6.94966 1.084213,1.32634 2.153137,2.67367 3.199143,4.03735 -1.036866,11.49452 -1.936402,24.07414 3.898223,34.52656 4.568756,7.89303 13.949967,10.8978 22.395157,12.46781 15.287445,2.75476 30.74292,-3.20692 42.94531,-12.16557 12.57653,-9.04244 22.54172,-21.07177 32.0156,-33.1883 21.63376,-26.36958 46.98999,-50.04928 76.2231,-67.7924 -18.62365,-5.32088 -35.30149,-15.37816 -52.25663,-24.43692 -11.88641,-6.10996 -25.09871,-12.24787 -38.80873,-9.88613 -12.00407,2.31553 -23.85298,8.26282 -31.100904,18.38263 -7.347336,10.13498 -9.402511,23.32143 -7.653045,35.53026 2.889617,-0.0215 6.003036,-0.0709 8.507919,1.60567 4.67195,2.77852 5.49365,9.90237 2.131668,14.00264 -4.87587,5.1888 -15.472275,3.01515 -17.168335,-4.15204 -0.98671,-3.07101 0.622849,-6.10843 1.950974,-8.79228 -3.860779,-19.24928 1.236007,-41.10396 16.581024,-54.14508 -5.527741,-2.18804 -11.426926,2.32896 -16.854935,-0.47657 -2.138153,-0.86553 -2.328094,-3.6813 -1.102051,-5.39079 1.707474,-2.40085 4.708954,-3.47449 7.537293,-3.78972 4.870773,-0.73636 9.29306,2.26921 14.152752,1.93009 5.6716,-0.23052 11.54776,-0.34659 16.83817,-2.65674 8.30221,-3.10272 17.4731,-2.8526 26.04013,-1.05711 10.08806,2.07696 19.70476,6.14785 28.54684,11.38646 -0.78509,-4.09699 -4.01515,-7.68285 -3.14474,-12.03479 z m 0,0"
         id="path1300" />
      <path
         style="fill:#000000;fill-rule:nonzero;stroke:none"
         d="m 171.34192,155.90511 c 0.74801,-3.83236 3.70944,-7.69498 7.76938,-8.22518 2.3677,0.15421 1.85077,2.81381 1.47905,4.41237 -1.68347,6.54297 0.4295,13.53853 4.32377,18.88547 4.28865,5.77466 10.02098,10.32171 16.13666,14.03358 10.21677,6.25342 21.51878,10.4193 32.90071,13.99787 -10.02203,4.6654 -18.56424,11.87988 -26.39609,19.56869 -25.58871,26.25699 -44.52154,58.75594 -73.49891,81.72536 -16.34554,13.17763 -36.82979,21.96989 -58.058504,21.7167 -12.649048,0.41767 -26.217529,-3.14637 -35.049927,-12.6844 -7.73439,-8.06714 -10.878326,-19.77392 -9.409775,-30.73413 -5.6483,-4.33618 -10.451126,-10.43483 -11.629486,-17.60081 -0.665497,-3.58219 1.62088,-8.98346 6.056229,-7.63894 4.234741,4.20429 2.321121,11.70852 7.395431,15.58805 0.886719,-2.38295 1.845703,-4.74016 3.107529,-6.94966 1.084213,1.32634 2.153137,2.67367 3.199143,4.03735 -1.036866,11.49452 -1.936402,24.07414 3.898223,34.52656 4.568756,7.89303 13.949967,10.8978 22.395157,12.46781 15.287445,2.75476 30.74292,-3.20692 42.94531,-12.16557 12.57653,-9.04244 22.54172,-21.07177 32.0156,-33.1883 21.63376,-26.36958 46.98999,-50.04928 76.2231,-67.7924 -18.62365,-5.32088 -35.30149,-15.37816 -52.25663,-24.43692 -11.88641,-6.10996 -25.09871,-12.24787 -38.80873,-9.88613 -12.00407,2.31553 -23.85298,8.26282 -31.100904,18.38263 -7.347336,10.13498 -9.402511,23.32143 -7.653045,35.53026 2.889617,-0.0215 6.003036,-0.0709 8.507919,1.60567 4.67195,2.77852 5.49365,9.90237 2.131668,14.00264 -4.87587,5.1888 -15.472275,3.01515 -17.168335,-4.15204 -0.98671,-3.07101 0.622849,-6.10843 1.950974,-8.79228 -3.860779,-19.24928 1.236007,-41.10396 16.581024,-54.14508 -5.527741,-2.18804 -11.426926,2.32896 -16.854935,-0.47657 -2.138153,-0.86553 -2.328094,-3.6813 -1.102051,-5.39079 1.707474,-2.40085 4.708954,-3.47449 7.537293,-3.78972 4.870773,-0.73636 9.29306,2.26921 14.152752,1.93009 5.6716,-0.23052 11.54776,-0.34659 16.83817,-2.65674 8.30221,-3.10272 17.4731,-2.8526 26.04013,-1.05711 10.08806,2.07696 19.70476,6.14785 28.54684,11.38646 -0.78509,-4.09699 -4.01515,-7.68285 -3.14474,-12.03479 z m 0,0"
         id="path1302" />
      <path
         style="fill:none;stroke:#000000;stroke-width:0.1;stroke-linecap:butt;stroke-linejoin:miter;stroke-miterlimit:10"
         d="m 318.94612,200.0007 c 5.06847,-4.56088 12.33856,-6.3546 18.99304,-5.1306 2.34355,0.56026 5.4007,1.41835 5.99359,4.14252 -0.3744,2.46261 -2.93341,3.31317 -4.97166,3.98616 -4.45425,1.27458 -9.12558,1.24948 -13.7106,1.50807 10.52752,8.08699 18.45828,20.14685 19.84903,33.52539 1.125,9.18257 -0.94628,19.04823 -6.74562,26.38971 -4.82058,6.12735 -13.37502,9.69167 -20.98302,7.09485 -10.39537,-3.7377 -14.70236,-18.39626 -7.81201,-27.09183 3.93936,-5.29738 12.71902,-8.18962 17.83946,-2.92267 5.36273,5.11774 -0.35236,14.84604 -7.30319,14.0344 -4.12131,0.17827 -7.14874,-2.9437 -8.81291,-6.37093 -0.75791,3.04318 -1.82672,6.25653 -0.76744,9.371 1.66871,6.09713 8.06573,10.67543 14.42358,9.64092 5.42004,-0.96149 9.60962,-5.3167 12.11449,-9.99735 3.8359,-8.13981 3.57458,-17.6203 1.44345,-26.19053 -3.26189,-10.821 -11.15097,-20.27488 -21.47499,-24.99785 -14.41246,-7.01238 -32.81061,-5.42081 -45.39707,4.66879 -5.16861,3.90131 -8.80757,9.34279 -12.69418,14.42755 -11.44417,15.15142 -21.45267,31.31195 -31.20668,47.58325 -11.47011,19.19832 -22.75765,38.68666 -37.25221,55.8158 -10.82837,12.88429 -23.58043,24.1777 -37.78356,33.21724 -16.92553,10.3127 -37.65648,13.38066 -57.104139,10.51952 -11.686951,-1.7979 -23.405838,-5.65009 -32.766556,-13.07514 -4.622513,-3.67662 -8.403656,-8.50642 -10.293625,-14.14432 -0.630096,-2.46289 -3.540405,-2.83674 -5.600601,-3.48877 -4.915894,-0.95095 -10.1427,-2.96737 -13.127884,-7.18582 -1.946335,-2.96557 0.847626,-6.84369 4.179993,-6.61557 5.000702,-0.0753 7.405838,5.37895 11.914001,6.79141 -0.804443,-5.14456 -0.724289,-10.35723 -0.548721,-15.54132 1.756744,0.7081 3.509872,1.44413 5.264572,2.16967 -1.22139,11.65722 2.305527,24.21553 11.349487,32.07095 12.696167,11.13434 31.125748,13.33914 47.144993,9.68872 9.91076,-2.04489 18.85507,-7.04518 27.17018,-12.63765 13.42615,-8.88968 25.41186,-19.84965 35.93156,-32.01529 14.47115,-16.67405 26.16882,-35.47967 37.66762,-54.25702 9.38397,-15.06222 18.61613,-30.41202 30.71556,-43.50175 10.65233,-11.78021 24.5842,-21.01328 40.30396,-24.19924 11.30767,-2.88046 23.22578,-1.24725 34.0581,2.71773 z m 0,0"
         id="path1328" />
      <path
         style="fill:#000000;fill-rule:nonzero;stroke:none"
         d="m 318.94612,200.0007 c 5.06847,-4.56088 12.33856,-6.3546 18.99304,-5.1306 2.34355,0.56026 5.4007,1.41835 5.99359,4.14252 -0.3744,2.46261 -2.93341,3.31317 -4.97166,3.98616 -4.45425,1.27458 -9.12558,1.24948 -13.7106,1.50807 10.52752,8.08699 18.45828,20.14685 19.84903,33.52539 1.125,9.18257 -0.94628,19.04823 -6.74562,26.38971 -4.82058,6.12735 -13.37502,9.69167 -20.98302,7.09485 -10.39537,-3.7377 -14.70236,-18.39626 -7.81201,-27.09183 3.93936,-5.29738 12.71902,-8.18962 17.83946,-2.92267 5.36273,5.11774 -0.35236,14.84604 -7.30319,14.0344 -4.12131,0.17827 -7.14874,-2.9437 -8.81291,-6.37093 -0.75791,3.04318 -1.82672,6.25653 -0.76744,9.371 1.66871,6.09713 8.06573,10.67543 14.42358,9.64092 5.42004,-0.96149 9.60962,-5.3167 12.11449,-9.99735 3.8359,-8.13981 3.57458,-17.6203 1.44345,-26.19053 -3.26189,-10.821 -11.15097,-20.27488 -21.47499,-24.99785 -14.41246,-7.01238 -32.81061,-5.42081 -45.39707,4.66879 -5.16861,3.90131 -8.80757,9.34279 -12.69418,14.42755 -11.44417,15.15142 -21.45267,31.31195 -31.20668,47.58325 -11.47011,19.19832 -22.75765,38.68666 -37.25221,55.8158 -10.82837,12.88429 -23.58043,24.1777 -37.78356,33.21724 -16.92553,10.3127 -37.65648,13.38066 -57.104139,10.51952 -11.686951,-1.7979 -23.405838,-5.65009 -32.766556,-13.07514 -4.622513,-3.67662 -8.403656,-8.50642 -10.293625,-14.14432 -0.630096,-2.46289 -3.540405,-2.83674 -5.600601,-3.48877 -4.915894,-0.95095 -10.1427,-2.96737 -13.127884,-7.18582 -1.946335,-2.96557 0.847626,-6.84369 4.179993,-6.61557 5.000702,-0.0753 7.405838,5.37895 11.914001,6.79141 -0.804443,-5.14456 -0.724289,-10.35723 -0.548721,-15.54132 1.756744,0.7081 3.509872,1.44413 5.264572,2.16967 -1.22139,11.65722 2.305527,24.21553 11.349487,32.07095 12.696167,11.13434 31.125748,13.33914 47.144993,9.68872 9.91076,-2.04489 18.85507,-7.04518 27.17018,-12.63765 13.42615,-8.88968 25.41186,-19.84965 35.93156,-32.01529 14.47115,-16.67405 26.16882,-35.47967 37.66762,-54.25702 9.38397,-15.06222 18.61613,-30.41202 30.71556,-43.50175 10.65233,-11.78021 24.5842,-21.01328 40.30396,-24.19924 11.30767,-2.88046 23.22578,-1.24725 34.0581,2.71773 z m 0,0"
         id="path1330" />
      <path
         style="fill:none;stroke:#ffffff;stroke-width:0.1;stroke-linecap:butt;stroke-linejoin:miter;stroke-miterlimit:10"
         d="m 244.87718,230.96019 c 3.78781,-4.7787 7.72525,-9.50826 12.43065,-13.41992 -17.7813,28.37449 -35.92224,56.53265 -54.1033,84.65585 -10.43585,15.48843 -22.61458,29.91621 -36.82701,42.07748 -12.44541,10.42678 -26.65261,19.56141 -42.72048,23.01536 23.642,-10.00547 43.152,-27.62017 59.75173,-46.85201 6.18123,-7.2411 12.00963,-14.79716 17.28613,-22.72374 14.18286,-22.59518 27.82835,-45.62482 44.18228,-66.75302 z m 0,0"
         id="path1352" />
      <path
         style="fill:#ffffff;fill-rule:nonzero;stroke:none"
         d="m 244.87718,230.96019 c 3.78781,-4.7787 7.72525,-9.50826 12.43065,-13.41992 -17.7813,28.37449 -35.92224,56.53265 -54.1033,84.65585 -10.43585,15.48843 -22.61458,29.91621 -36.82701,42.07748 -12.44541,10.42678 -26.65261,19.56141 -42.72048,23.01536 23.642,-10.00547 43.152,-27.62017 59.75173,-46.85201 6.18123,-7.2411 12.00963,-14.79716 17.28613,-22.72374 14.18286,-22.59518 27.82835,-45.62482 44.18228,-66.75302 z m 0,0"
         id="path1354" />
      <path
         style="fill:none;stroke:#ffffff;stroke-width:0.1;stroke-linecap:butt;stroke-linejoin:miter;stroke-miterlimit:10"
         d="m 178.1736,238.19521 c 6.18858,-5.96216 11.85878,-12.53107 18.80533,-17.6511 -8.57566,11.42597 -17.97811,22.20961 -27.26195,33.06237 -11.55634,13.46072 -24.43558,25.68834 -37.58194,37.57307 -6.21143,5.48666 -12.47894,10.95432 -19.33609,15.63123 -2.77734,1.83162 -5.69571,3.74624 -9.09114,4.09213 9.67432,-6.51102 18.20749,-14.5206 26.47383,-22.70009 16.45166,-16.22859 31.91971,-33.41054 47.99196,-50.00761 z m 0,0"
         id="path1356" />
      <path
         style="fill:#ffffff;fill-rule:nonzero;stroke:none"
         d="m 178.1736,238.19521 c 6.18858,-5.96216 11.85878,-12.53107 18.80533,-17.6511 -8.57566,11.42597 -17.97811,22.20961 -27.26195,33.06237 -11.55634,13.46072 -24.43558,25.68834 -37.58194,37.57307 -6.21143,5.48666 -12.47894,10.95432 -19.33609,15.63123 -2.77734,1.83162 -5.69571,3.74624 -9.09114,4.09213 9.67432,-6.51102 18.20749,-14.5206 26.47383,-22.70009 16.45166,-16.22859 31.91971,-33.41054 47.99196,-50.00761 z m 0,0"
         id="path1358" />
      <path
         style="fill:none;stroke:#000000;stroke-width:0.1;stroke-linecap:butt;stroke-linejoin:miter;stroke-miterlimit:10"
         d="m 226.39551,327.40877 c 17.44475,-24.49855 32.59126,-50.5255 47.41173,-76.66516 12.1677,5.07038 23.77108,11.95112 33.13762,21.31279 7.611,7.70713 13.60394,17.87553 13.58863,28.98404 0.40741,10.34304 -4.04272,20.19123 -9.83772,28.51647 -7.70125,11.00031 -21.22058,17.579 -34.62558,16.86969 -5.66327,-0.40377 -11.56242,-1.91732 -15.83951,-5.85053 -2.87599,-2.79629 -4.89117,-7.0909 -3.60527,-11.10836 1.42099,-3.67665 5.8015,-4.96655 9.41052,-4.70498 8.31485,0.65484 15.59708,5.42491 21.7481,10.7418 -1.48058,0.48615 -2.94239,0.98999 -4.42197,1.46002 -5.02809,-3.26266 -10.37206,-6.51231 -16.38176,-7.45156 -2.34512,-0.48241 -5.74371,0.66749 -5.53235,3.5442 1.21327,3.7139 4.83142,5.86711 8.27399,7.2131 8.33713,3.02747 17.87227,0.44811 24.58516,-5.04448 5.94319,-5.29568 10.04828,-12.37432 13.04854,-19.67338 4.40416,-10.925 4.89836,-23.86575 -0.79659,-34.42346 -5.74571,-10.88042 -16.4081,-17.98459 -27.27362,-23.07389 -12.43603,35.04552 -29.05112,69.29554 -53.9848,97.2365 -15.28903,17.36743 -33.51235,31.75583 -51.50997,46.16809 -0.83218,-0.86082 -1.66246,-1.71594 -2.49083,-2.56535 24.92757,-19.05875 46.8261,-42.04955 64.71087,-67.8291 11.42588,-16.70705 21.7073,-34.37676 29.01011,-53.29061 -8.95514,17.78137 -20.03314,34.40961 -31.76762,50.46089 -18.79164,25.17313 -39.50714,49.36179 -64.5417,68.5485 -0.84912,-0.95435 -1.70146,-1.89933 -2.55704,-2.83495 22.34778,-19.97821 42.9528,-42.0058 60.24106,-66.54028 z m 0,0"
         id="path1376" />
      <path
         style="fill:#000000;fill-rule:nonzero;stroke:none"
         d="m 226.39551,327.40877 c 17.44475,-24.49855 32.59126,-50.5255 47.41173,-76.66516 12.1677,5.07038 23.77108,11.95112 33.13762,21.31279 7.611,7.70713 13.60394,17.87553 13.58863,28.98404 0.40741,10.34304 -4.04272,20.19123 -9.83772,28.51647 -7.70125,11.00031 -21.22058,17.579 -34.62558,16.86969 -5.66327,-0.40377 -11.56242,-1.91732 -15.83951,-5.85053 -2.87599,-2.79629 -4.89117,-7.0909 -3.60527,-11.10836 1.42099,-3.67665 5.8015,-4.96655 9.41052,-4.70498 8.31485,0.65484 15.59708,5.42491 21.7481,10.7418 -1.48058,0.48615 -2.94239,0.98999 -4.42197,1.46002 -5.02809,-3.26266 -10.37206,-6.51231 -16.38176,-7.45156 -2.34512,-0.48241 -5.74371,0.66749 -5.53235,3.5442 1.21327,3.7139 4.83142,5.86711 8.27399,7.2131 8.33713,3.02747 17.87227,0.44811 24.58516,-5.04448 5.94319,-5.29568 10.04828,-12.37432 13.04854,-19.67338 4.40416,-10.925 4.89836,-23.86575 -0.79659,-34.42346 -5.74571,-10.88042 -16.4081,-17.98459 -27.27362,-23.07389 -12.43603,35.04552 -29.05112,69.29554 -53.9848,97.2365 -15.28903,17.36743 -33.51235,31.75583 -51.50997,46.16809 -0.83218,-0.86082 -1.66246,-1.71594 -2.49083,-2.56535 24.92757,-19.05875 46.8261,-42.04955 64.71087,-67.8291 11.42588,-16.70705 21.7073,-34.37676 29.01011,-53.29061 -8.95514,17.78137 -20.03314,34.40961 -31.76762,50.46089 -18.79164,25.17313 -39.50714,49.36179 -64.5417,68.5485 -0.84912,-0.95435 -1.70146,-1.89933 -2.55704,-2.83495 22.34778,-19.97821 42.9528,-42.0058 60.24106,-66.54028 z m 0,0"
         id="path1378" />
      <path
         style="fill:none;stroke:#000000;stroke-width:0.1;stroke-linecap:butt;stroke-linejoin:miter;stroke-miterlimit:10"
         d="m 287.78268,350.3987 c 2.35685,-0.67887 4.71024,-1.37674 7.07984,-2.02091 4.13991,15.99376 2.49045,33.81703 -5.42967,48.41912 5.50566,0.51271 10.08365,-3.10579 14.03744,-6.43744 3.06567,-2.75098 7.76546,-4.53455 11.68086,-2.51963 1.72133,0.8042 2.48365,3.12345 1.45089,4.75249 -1.76938,3.07561 -5.32895,4.39085 -8.46831,5.60751 -6.52168,2.24883 -13.69715,4.24759 -20.5228,2.12897 -5.49037,10.04796 -12.61461,19.0811 -20.32852,27.50224 5.2102,1.69579 11.8165,-0.59996 15.87407,3.95516 2.13925,1.92569 1.90677,6.18007 -1.1926,6.95607 -7.45883,2.01533 -16.84892,0.36755 -21.45634,-6.37666 -11.35285,7.41826 -25.61003,9.35459 -38.84401,7.3235 1.83676,4.34237 5.48166,7.78479 6.84678,12.29796 0.80834,3.16839 -3.02981,4.44294 -5.31469,3.00297 -6.31378,-2.94011 -9.76459,-9.82017 -10.45177,-16.50288 -8.68346,-1.09627 -16.3492,-5.80431 -23.14812,-11.05008 -9.53665,-7.42983 -18.09974,-15.99246 -27.05548,-24.08745 -5.4223,-5.02362 -13.30148,-6.75441 -20.48405,-5.64247 -2.49979,0.44504 -5.33032,1.14822 -6.83872,3.39305 -0.30404,2.11987 2.09641,3.05093 3.6552,3.80885 5.97272,2.33487 12.49838,0.0267 17.90254,-2.73947 1.89166,1.8578 3.78398,3.72052 5.62279,5.63783 -6.92473,4.23621 -15.56978,4.19257 -23.36317,3.13204 -3.78382,-0.81177 -8.48992,-1.96987 -10.05411,-5.97502 -1.4545,-4.33988 1.60608,-8.85938 5.46402,-10.70262 6.42213,-3.17217 14.05398,-2.52646 20.71092,-0.44019 6.76656,2.15265 12.84425,6.11798 17.90347,11.06462 12.7621,12.16034 29.1066,21.31413 46.89244,22.88628 18.12935,1.80363 36.77912,-5.28417 49.34885,-18.42182 15.16606,-15.22369 21.51326,-37.88768 18.48225,-58.95202 z m 0,0"
         id="path1496" />
      <path
         style="fill:#000000;fill-rule:nonzero;stroke:none"
         d="m 287.78268,350.3987 c 2.35685,-0.67887 4.71024,-1.37674 7.07984,-2.02091 4.13991,15.99376 2.49045,33.81703 -5.42967,48.41912 5.50566,0.51271 10.08365,-3.10579 14.03744,-6.43744 3.06567,-2.75098 7.76546,-4.53455 11.68086,-2.51963 1.72133,0.8042 2.48365,3.12345 1.45089,4.75249 -1.76938,3.07561 -5.32895,4.39085 -8.46831,5.60751 -6.52168,2.24883 -13.69715,4.24759 -20.5228,2.12897 -5.49037,10.04796 -12.61461,19.0811 -20.32852,27.50224 5.2102,1.69579 11.8165,-0.59996 15.87407,3.95516 2.13925,1.92569 1.90677,6.18007 -1.1926,6.95607 -7.45883,2.01533 -16.84892,0.36755 -21.45634,-6.37666 -11.35285,7.41826 -25.61003,9.35459 -38.84401,7.3235 1.83676,4.34237 5.48166,7.78479 6.84678,12.29796 0.80834,3.16839 -3.02981,4.44294 -5.31469,3.00297 -6.31378,-2.94011 -9.76459,-9.82017 -10.45177,-16.50288 -8.68346,-1.09627 -16.3492,-5.80431 -23.14812,-11.05008 -9.53665,-7.42983 -18.09974,-15.99246 -27.05548,-24.08745 -5.4223,-5.02362 -13.30148,-6.75441 -20.48405,-5.64247 -2.49979,0.44504 -5.33032,1.14822 -6.83872,3.39305 -0.30404,2.11987 2.09641,3.05093 3.6552,3.80885 5.97272,2.33487 12.49838,0.0267 17.90254,-2.73947 1.89166,1.8578 3.78398,3.72052 5.62279,5.63783 -6.92473,4.23621 -15.56978,4.19257 -23.36317,3.13204 -3.78382,-0.81177 -8.48992,-1.96987 -10.05411,-5.97502 -1.4545,-4.33988 1.60608,-8.85938 5.46402,-10.70262 6.42213,-3.17217 14.05398,-2.52646 20.71092,-0.44019 6.76656,2.15265 12.84425,6.11798 17.90347,11.06462 12.7621,12.16034 29.1066,21.31413 46.89244,22.88628 18.12935,1.80363 36.77912,-5.28417 49.34885,-18.42182 15.16606,-15.22369 21.51326,-37.88768 18.48225,-58.95202 z m 0,0"
         id="path1498" />
    </g>
  </g>
</svg>
