<?xml version="1.0" encoding="UTF-8" standalone="no"?>
<svg
   xmlns:dc="http://purl.org/dc/elements/1.1/"
   xmlns:cc="http://creativecommons.org/ns#"
   xmlns:rdf="http://www.w3.org/1999/02/22-rdf-syntax-ns#"
   xmlns:svg="http://www.w3.org/2000/svg"
   xmlns="http://www.w3.org/2000/svg"
   xmlns:sodipodi="http://sodipodi.sourceforge.net/DTD/sodipodi-0.dtd"
   xmlns:inkscape="http://www.inkscape.org/namespaces/inkscape"
   sodipodi:docname="harp.svg"
   inkscape:version="1.0 (4035a4f, 2020-05-01)"
   id="svg8856"
   version="1.1"
   viewBox="0 0 72.756889 96.125534"
   height="96.125534mm"
   width="72.756889mm">
  <defs
     id="defs8850" />
  <sodipodi:namedview
     inkscape:window-maximized="0"
     inkscape:window-y="25"
     inkscape:window-x="0"
     inkscape:window-height="825"
     inkscape:window-width="834"
     fit-margin-bottom="0"
     fit-margin-right="0"
     fit-margin-left="0"
     fit-margin-top="0"
     showgrid="false"
     inkscape:document-rotation="0"
     inkscape:current-layer="layer1"
     inkscape:document-units="mm"
     inkscape:cy="1010.226"
     inkscape:cx="37.493329"
     inkscape:zoom="0.35"
     inkscape:pageshadow="2"
     inkscape:pageopacity="0.0"
     borderopacity="1.0"
     bordercolor="#666666"
     pagecolor="#ffffff"
     id="base" />
  <metadata
     id="metadata8853">
    <rdf:RDF>
      <cc:Work
         rdf:about="">
        <dc:format>image/svg+xml</dc:format>
        <dc:type
           rdf:resource="http://purl.org/dc/dcmitype/StillImage" />
        <dc:title></dc:title>
      </cc:Work>
    </rdf:RDF>
  </metadata>
  <g
     transform="translate(-95.913223,119.12229)"
     id="layer1"
     inkscape:groupmode="layer"
     inkscape:label="Layer 1">
    <g
       transform="matrix(0.35277777,0,0,-0.35277777,-309.68949,456.57967)"
       id="g8797">
      <path
         d="m 1172.8,1378.3 v -13 h 0.23 c 1.96,-3.13 16.52,-5.68 34.22,-5.86 19.05,-0.2 34.54,2.42 34.56,5.86 v 13 h -69.01"
         style="fill:#f4bf6d;fill-opacity:1;fill-rule:nonzero;stroke:none;stroke-width:0.1"
         id="path1908" />
      <path
         d="m 1241.81,1378.3 c 0,-3.45 -15.47,-6.22 -34.5,-6.22 -19.06,0 -34.51,2.77 -34.51,6.22 0,3.41 15.45,6.19 34.51,6.19 19.03,0 34.5,-2.78 34.5,-6.19"
         style="fill:#e3b15d;fill-opacity:1;fill-rule:nonzero;stroke:none;stroke-width:0.1"
         id="path1910" />
      <path
         d="m 1350.29,1568.83 c -23.65,-39.56 -46.05,-79.79 -68.5,-120 -6.85,-12.27 -13.75,-24.48 -20.9,-36.59 -5.61,-9.52 -12.82,-18.77 -16.65,-29.22 -2,-5.54 -2.95,-6.4 -8.89,-7.34 l -0.3,-0.06 c -8.67,-1.35 -17.31,-2.39 -25.9,-4.18 2.88,3.84 5.77,7.69 8.61,11.56 31.97,43.24 61.54,87.87 89.93,133.57 4.41,7.08 8.8,14.19 13.18,21.27 1.37,2.22 4.17,5.92 6.54,9.92 3.16,5.37 5.51,11.29 2.47,15 -5.1,6.2 -17.29,-8.14 -21.22,-10.13 -9.56,-4.89 -21.26,-6.39 -31.41,-2.39 -7.98,3.12 -15.29,9.71 -20.84,16.14 0,0 -43.11,60.95 -83.61,33.2 l 3.33,25.73 c 0.18,0.08 0.34,0.16 0.52,0.21 7.39,3.35 15.31,5.72 23.41,6.28 20.63,1.41 38.17,-10.79 51.19,-25.77 9.78,-11.25 15.65,-29.68 29,-37.2 6.66,-3.75 17.68,-2.03 24.09,1.16 7.46,3.7 13.35,9.84 20.54,13.93 5.38,3.03 24.3,9.76 29.74,4.15 4.07,-4.15 -2.08,-15.49 -4.33,-19.24"
         style="fill:#e3b15d;fill-opacity:1;fill-rule:nonzero;stroke:none;stroke-width:0.1"
         id="path1912" />
      <path
         d="m 1192.04,1377.66 -13.95,-0.94 -3.24,47.74 -0.3,4.83 -2.43,36.03 -0.35,4.83 -2.51,37.43 -0.12,1.57 -0.3,4.8 -1.69,24.83 -0.34,4.81 -1.9,28.2 -0.33,4.83 v 0.01 l -3.32,49.05 13.97,0.95 2.58,-38.32 0.32,-4.83 1.9,-28.19 0.35,-4.83 1.68,-24.79 0.3,-4.84 2.65,-39 0.15,-2.2 0.16,-2.59 2.45,-36.06 0.32,-4.83 3.95,-58.49"
         style="fill:#e1a25a;fill-opacity:1;fill-rule:nonzero;stroke:none;stroke-width:0.1"
         id="path1914" />
      <path
         d="m 1241.23,1379.22 c 0,-2.93 -7.96,-5.31 -17.78,-5.31 -9.8,0 -17.76,2.38 -17.76,5.31 0,2.92 7.96,5.28 17.76,5.28 9.82,0 17.78,-2.36 17.78,-5.28"
         style="fill:#e1a25a;fill-opacity:1;fill-rule:nonzero;stroke:none;stroke-width:0.1"
         id="path1916" />
      <path
         d="m 1198.48,1613.7 c 0,-1.47 -0.97,-2.73 -2.33,-3.14 -0.3,-0.07 -0.63,-0.15 -0.95,-0.15 -1.82,0 -3.26,1.49 -3.26,3.29 0,1.83 1.44,3.29 3.26,3.29 0.77,0 1.48,-0.26 2.02,-0.71 0.77,-0.59 1.26,-1.51 1.26,-2.58"
         style="fill:#cf9654;fill-opacity:1;fill-rule:nonzero;stroke:none;stroke-width:0.1"
         id="path1918" />
      <path
         d="m 1196.15,1610.56 c -1.58,0.06 -2.83,1.35 -2.83,2.95 0,1.62 1.31,2.95 2.93,2.95 0.35,0 0.67,-0.07 0.97,-0.18 0.77,-0.59 1.26,-1.51 1.26,-2.58 0,-1.47 -0.97,-2.73 -2.33,-3.14 v 0"
         style="fill:#aa5e30;fill-opacity:1;fill-rule:nonzero;stroke:none;stroke-width:0.1"
         id="path1920" />
      <path
         d="m 1213.71,1611.61 c 0,-1.47 -0.97,-2.74 -2.31,-3.15 -0.3,-0.07 -0.63,-0.15 -0.97,-0.15 -1.8,0 -3.28,1.49 -3.28,3.3 0,1.83 1.48,3.28 3.28,3.28 0.79,0 1.48,-0.26 2.02,-0.72 0.77,-0.59 1.26,-1.51 1.26,-2.56"
         style="fill:#cf9654;fill-opacity:1;fill-rule:nonzero;stroke:none;stroke-width:0.1"
         id="path1922" />
      <path
         d="m 1211.4,1608.46 c -1.58,0.06 -2.86,1.35 -2.86,2.95 0,1.62 1.32,2.93 2.96,2.93 0.33,0 0.67,-0.05 0.95,-0.17 0.77,-0.59 1.26,-1.51 1.26,-2.56 0,-1.47 -0.97,-2.74 -2.31,-3.15 v 0"
         style="fill:#aa5e30;fill-opacity:1;fill-rule:nonzero;stroke:none;stroke-width:0.1"
         id="path1924" />
      <path
         d="m 1229.04,1603.39 c 0,-1.48 -0.98,-2.73 -2.33,-3.14 -0.27,-0.08 -0.61,-0.14 -0.93,-0.14 -1.83,0 -3.3,1.49 -3.3,3.28 0,1.82 1.47,3.3 3.3,3.3 0.75,0 1.45,-0.27 2.02,-0.73 0.75,-0.58 1.24,-1.52 1.24,-2.57"
         style="fill:#cf9654;fill-opacity:1;fill-rule:nonzero;stroke:none;stroke-width:0.1"
         id="path1926" />
      <path
         d="m 1227.54,1600.63 c -0.04,0.69 -0.63,1.22 -1.3,1.22 -0.04,0 -0.06,0 -0.1,-0.01 -0.57,-0.03 -1.01,-0.42 -1.17,-0.94 -0.67,0.54 -1.08,1.37 -1.08,2.29 0,1.61 1.32,2.94 2.92,2.94 0.34,0 0.69,-0.04 0.99,-0.17 0.75,-0.58 1.24,-1.52 1.24,-2.57 0,-1.16 -0.59,-2.18 -1.5,-2.76"
         style="fill:#aa5e30;fill-opacity:1;fill-rule:nonzero;stroke:none;stroke-width:0.1"
         id="path1928" />
      <path
         d="m 1242.36,1594.08 c 0,-1.47 -0.97,-2.72 -2.31,-3.13 -0.3,-0.09 -0.65,-0.14 -0.97,-0.14 -1.8,0 -3.28,1.46 -3.28,3.27 0,1.83 1.48,3.29 3.28,3.29 0.79,0 1.48,-0.26 2.05,-0.71 0.74,-0.6 1.23,-1.51 1.23,-2.58"
         style="fill:#cf9654;fill-opacity:1;fill-rule:nonzero;stroke:none;stroke-width:0.1"
         id="path1930" />
      <path
         d="m 1240.68,1591.22 c -0.16,0.53 -0.67,0.9 -1.24,0.9 -0.04,0 -0.06,0 -0.08,0 -0.42,-0.03 -0.79,-0.25 -1.01,-0.57 -0.69,0.53 -1.13,1.38 -1.13,2.33 0,1.64 1.31,2.94 2.91,2.94 0.35,0 0.67,-0.05 1,-0.16 0.74,-0.6 1.23,-1.51 1.23,-2.58 0,-1.22 -0.67,-2.3 -1.68,-2.86"
         style="fill:#aa5e30;fill-opacity:1;fill-rule:nonzero;stroke:none;stroke-width:0.1"
         id="path1932" />
      <path
         d="m 1253.5,1582.78 c 0,-1.49 -0.97,-2.73 -2.33,-3.16 -0.28,-0.08 -0.61,-0.13 -0.93,-0.13 -1.82,0 -3.3,1.48 -3.3,3.29 0,1.81 1.48,3.28 3.3,3.28 0.75,0 1.44,-0.27 2,-0.71 0.77,-0.6 1.26,-1.52 1.26,-2.57"
         style="fill:#cf9654;fill-opacity:1;fill-rule:nonzero;stroke:none;stroke-width:0.1"
         id="path1934" />
      <path
         d="m 1249.63,1580.13 c -0.77,0.54 -1.3,1.43 -1.3,2.44 0,1.61 1.32,2.93 2.94,2.93 0.35,0 0.69,-0.04 0.97,-0.15 0.77,-0.6 1.26,-1.52 1.26,-2.57 0,-1.07 -0.49,-2 -1.28,-2.61 -0.1,0.63 -0.65,1.09 -1.27,1.09 -0.04,0 -0.06,0 -0.1,0 -0.63,-0.04 -1.14,-0.52 -1.22,-1.13"
         style="fill:#aa5e30;fill-opacity:1;fill-rule:nonzero;stroke:none;stroke-width:0.1"
         id="path1936" />
      <path
         d="m 1266.32,1565.44 c 0,-1.49 -1,-2.75 -2.33,-3.14 -0.29,-0.1 -0.63,-0.15 -0.95,-0.15 -1.83,0 -3.28,1.49 -3.28,3.29 0,1.8 1.45,3.28 3.28,3.28 0.79,0 1.45,-0.25 2.02,-0.72 0.77,-0.58 1.26,-1.51 1.26,-2.56"
         style="fill:#cf9654;fill-opacity:1;fill-rule:nonzero;stroke:none;stroke-width:0.1"
         id="path1938" />
      <path
         d="m 1264.39,1562.44 -0.04,0.35 c -0.06,0.68 -0.63,1.2 -1.29,1.2 -0.02,0 -0.07,0 -0.11,0 -0.46,-0.04 -0.87,-0.31 -1.07,-0.7 -0.44,0.52 -0.73,1.19 -0.73,1.93 0,1.65 1.34,2.94 2.94,2.94 0.34,0 0.69,-0.04 0.97,-0.16 0.77,-0.58 1.26,-1.51 1.26,-2.56 0,-1.34 -0.79,-2.49 -1.93,-3"
         style="fill:#aa5e30;fill-opacity:1;fill-rule:nonzero;stroke:none;stroke-width:0.1"
         id="path1940" />
      <path
         d="m 1281.06,1555.23 c 0,-1.46 -0.99,-2.73 -2.33,-3.12 -0.3,-0.1 -0.63,-0.15 -0.95,-0.15 -1.85,0 -3.28,1.47 -3.28,3.27 0,1.83 1.43,3.29 3.28,3.29 0.77,0 1.46,-0.25 2.02,-0.7 0.77,-0.58 1.26,-1.51 1.26,-2.59"
         style="fill:#cf9654;fill-opacity:1;fill-rule:nonzero;stroke:none;stroke-width:0.1"
         id="path1942" />
      <path
         d="m 1279.54,1552.48 -0.06,0.87 c -0.04,0.69 -0.63,1.21 -1.3,1.21 -0.04,0 -0.06,0 -0.1,0 -0.73,-0.05 -1.27,-0.68 -1.21,-1.4 l 0.02,-0.32 c -0.61,0.53 -1,1.32 -1,2.2 0,1.62 1.32,2.94 2.92,2.94 0.36,0 0.71,-0.06 0.99,-0.16 0.77,-0.58 1.26,-1.51 1.26,-2.59 0,-1.14 -0.61,-2.16 -1.52,-2.75"
         style="fill:#aa5e30;fill-opacity:1;fill-rule:nonzero;stroke:none;stroke-width:0.1"
         id="path1944" />
      <path
         d="m 1301.93,1553.25 c 0,-1.47 -0.99,-2.72 -2.32,-3.12 -0.31,-0.1 -0.63,-0.16 -0.94,-0.16 -1.84,0 -3.3,1.49 -3.3,3.28 0,1.83 1.46,3.29 3.3,3.29 0.75,0 1.44,-0.26 2.01,-0.69 0.77,-0.61 1.25,-1.54 1.25,-2.6"
         style="fill:#cf9654;fill-opacity:1;fill-rule:nonzero;stroke:none;stroke-width:0.1"
         id="path1946" />
      <path
         d="m 1300.05,1550.3 -0.08,1 c -0.06,0.68 -0.63,1.2 -1.3,1.2 -0.04,0 -0.08,0 -0.1,0 -0.66,-0.05 -1.17,-0.57 -1.21,-1.2 -0.37,0.49 -0.59,1.1 -0.59,1.76 0,1.63 1.32,2.92 2.94,2.92 0.34,0 0.67,-0.02 0.97,-0.13 0.77,-0.61 1.25,-1.54 1.25,-2.6 0,-1.3 -0.77,-2.43 -1.88,-2.95"
         style="fill:#aa5e30;fill-opacity:1;fill-rule:nonzero;stroke:none;stroke-width:0.1"
         id="path1948" />
      <path
         d="m 1194.59,1611.02 15.23,-226.64 c 0.06,-0.73 0.67,-1.27 1.4,-1.22 0.73,0.04 1.27,0.67 1.21,1.39 l -15.23,226.65 c -0.04,0.72 -0.66,1.26 -1.39,1.22 -0.71,-0.05 -1.28,-0.68 -1.22,-1.4"
         style="fill:#cf9654;fill-opacity:1;fill-rule:nonzero;stroke:none;stroke-width:0.1"
         id="path1950" />
      <path
         d="m 1209.62,1608.96 14.98,-226.68 c 0.04,-0.72 0.67,-1.27 1.4,-1.22 0.73,0.04 1.28,0.67 1.21,1.39 l -14.98,226.69 c -0.04,0.72 -0.67,1.27 -1.4,1.22 -0.71,-0.05 -1.25,-0.68 -1.21,-1.4"
         style="fill:#cf9654;fill-opacity:1;fill-rule:nonzero;stroke:none;stroke-width:0.1"
         id="path1952" />
      <path
         d="m 1224.93,1600.45 13.2,-204.02 c 0.06,-0.73 0.67,-1.28 1.4,-1.23 0.73,0.05 1.27,0.67 1.21,1.39 l -13.2,204.03 c -0.04,0.72 -0.67,1.27 -1.4,1.22 -0.71,-0.04 -1.27,-0.67 -1.21,-1.39"
         style="fill:#cf9654;fill-opacity:1;fill-rule:nonzero;stroke:none;stroke-width:0.1"
         id="path1954" />
      <path
         d="m 1238.13,1590.72 12.05,-181.38 c 0.04,-0.72 0.67,-1.27 1.37,-1.22 0.73,0.05 1.28,0.67 1.22,1.4 l -12.03,181.38 c -0.04,0.72 -0.67,1.27 -1.38,1.22 -0.73,-0.05 -1.27,-0.68 -1.23,-1.4"
         style="fill:#cf9654;fill-opacity:1;fill-rule:nonzero;stroke:none;stroke-width:0.1"
         id="path1956" />
      <path
         d="m 1249.63,1579.87 10.23,-154.54 c 0.04,-0.72 0.66,-1.27 1.39,-1.22 0.71,0.05 1.28,0.67 1.22,1.39 l -10.23,154.54 c -0.06,0.72 -0.67,1.27 -1.39,1.22 -0.73,-0.05 -1.28,-0.67 -1.22,-1.39"
         style="fill:#cf9654;fill-opacity:1;fill-rule:nonzero;stroke:none;stroke-width:0.1"
         id="path1958" />
      <path
         d="m 1261.76,1562.57 8.61,-107.03 c 0.06,-0.72 0.68,-1.26 1.41,-1.2 0.73,0.06 1.26,0.69 1.2,1.41 l -8.63,107.04 c -0.06,0.72 -0.69,1.25 -1.4,1.2 -0.72,-0.06 -1.25,-0.69 -1.19,-1.42"
         style="fill:#cf9654;fill-opacity:1;fill-rule:nonzero;stroke:none;stroke-width:0.1"
         id="path1960" />
      <path
         d="m 1276.87,1553.16 6.68,-89.58 c 0.06,-0.72 0.69,-1.26 1.42,-1.2 0.72,0.05 1.25,0.68 1.21,1.4 l -6.7,89.57 c -0.06,0.72 -0.67,1.26 -1.4,1.21 -0.73,-0.05 -1.27,-0.68 -1.21,-1.4"
         style="fill:#cf9654;fill-opacity:1;fill-rule:nonzero;stroke:none;stroke-width:0.1"
         id="path1962" />
      <path
         d="m 1297.36,1551.09 4.41,-55.49 c 0.06,-0.73 0.71,-1.27 1.42,-1.21 0.73,0.06 1.26,0.69 1.19,1.41 l -4.41,55.5 c -0.06,0.72 -0.69,1.26 -1.4,1.2 -0.73,-0.06 -1.27,-0.69 -1.21,-1.41"
         style="fill:#cf9654;fill-opacity:1;fill-rule:nonzero;stroke:none;stroke-width:0.1"
         id="path1964" />
      <path
         d="m 1192.14,1377.15 c 0,-1.54 -3.18,-2.78 -7.15,-2.78 -3.92,0 -7.12,1.24 -7.12,2.78 0,1.54 3.2,2.79 7.12,2.79 3.97,0 7.15,-1.25 7.15,-2.79"
         style="fill:#e1a25a;fill-opacity:1;fill-rule:nonzero;stroke:none;stroke-width:0.1"
         id="path1966" />
      <path
         d="m 1350.29,1568.83 c -23.65,-39.56 -46.05,-79.79 -68.5,-120 -6.85,-12.27 -13.75,-24.48 -20.9,-36.59 -5.61,-9.52 -12.82,-18.77 -16.65,-29.22 -2,-5.54 -2.95,-6.4 -8.89,-7.34 -1.6,0.67 -3.92,1.17 -6.6,1.61 -8.12,1.31 -19.4,1.91 -23.06,3.44 20.94,28.32 46.03,58.19 68.79,88.27 12.02,15.87 23.4,31.81 33.21,47.57 4.41,7.08 8.8,14.19 13.18,21.27 1.37,2.22 4.17,5.92 6.54,9.92 l 0.24,0.26 c 4.03,4.48 10.83,12.81 6.93,19.33 -5.21,8.67 -16.24,0.29 -21.31,-3.32 -5.42,-3.83 -10.32,-5.82 -16.19,-6.27 -1.75,-0.15 -3.59,-0.15 -5.53,-0.03 -10.76,0.64 -19.04,4.93 -26.25,13.01 -1.52,1.68 -2.93,3.78 -4.05,5.72 -44.12,63.6 -82.47,41.62 -82.47,41.62 0,0 -0.89,3.18 -2.13,7.44 7.39,3.35 15.31,5.72 23.41,6.28 20.63,1.41 38.17,-10.79 51.19,-25.77 9.78,-11.25 15.65,-29.68 29,-37.2 4.96,-2.79 12.31,-2.55 18.4,-0.94 2.09,0.56 4.05,1.28 5.69,2.1 7.46,3.7 13.35,9.84 20.54,13.93 5.38,3.03 24.3,9.76 29.74,4.15 4.07,-4.15 -2.08,-15.49 -4.33,-19.24"
         style="fill:#e1a25a;fill-opacity:1;fill-rule:nonzero;stroke:none;stroke-width:0.1"
         id="path1968" />
      <path
         d="m 1185.32,1477.04 -0.16,2.59 -0.15,2.2 z"
         style="fill:#e3b15d;fill-opacity:1;fill-rule:nonzero;stroke:none;stroke-width:0.1"
         id="path1970" />
      <path
         d="m 1172.12,1465.32 v 0 l -0.35,4.83 12.33,10.88 c 0.35,-0.47 0.69,-0.94 1.06,-1.4 v 0 l -0.15,2.2 0.15,-2.2 0.16,-2.59 -13.2,-11.72"
         style="fill:#f6bf42;fill-opacity:1;fill-rule:nonzero;stroke:none;stroke-width:0.1"
         id="path1972" />
      <path
         d="m 1174.85,1424.46 v 0 l -0.3,4.83 13.22,11.69 0.32,-4.83 -13.24,-11.69"
         style="fill:#f6bf42;fill-opacity:1;fill-rule:nonzero;stroke:none;stroke-width:0.1"
         id="path1974" />
      <path
         d="m 1235.35,1375.68 c -1.6,0.67 -3.92,1.17 -6.6,1.61 20.25,29.7 35.01,61.44 45.73,91.71 12.02,15.87 23.4,31.81 33.21,47.57 4.41,7.08 8.8,14.19 13.18,21.27 1.37,2.22 4.17,5.92 6.54,9.92 l 0.24,0.26 c 3.16,3.54 8.08,9.47 8.1,15.01 0,1.48 -0.34,2.94 -1.17,4.32 -1.66,2.77 -3.93,3.8 -6.4,3.8 -5.25,0 -11.46,-4.66 -14.91,-7.12 -5.42,-3.83 -10.32,-5.82 -16.19,-6.27 0.58,3.5 1.09,6.9 1.57,10.13 2.09,0.56 4.05,1.28 5.69,2.1 7.46,3.7 13.35,9.84 20.54,13.93 3.88,2.19 14.84,6.31 22.68,6.31 3.01,0 5.54,-0.61 7.06,-2.16 0.98,-0.99 1.36,-2.39 1.36,-3.99 0,-5.13 -3.99,-12.39 -5.69,-15.25 -23.65,-39.56 -46.05,-79.79 -68.5,-120 -6.85,-12.27 -13.75,-24.48 -20.9,-36.59 -5.61,-9.52 -12.82,-18.77 -16.65,-29.22 -2,-5.54 -2.95,-6.4 -8.89,-7.34"
         style="fill:#d68d47;fill-opacity:1;fill-rule:nonzero;stroke:none;stroke-width:0.1"
         id="path1976" />
      <path
         d="m 1184.1,1481.03 c -5.71,7.8 -10.63,16.92 -14.84,26.55 v 0 l -0.12,1.57 13.22,11.68 2.65,-39 z m -15.26,32.92 v 0 l -1.69,24.83 13.23,11.68 1.68,-24.79 z m -2.03,29.64 v 0 l -1.9,28.2 13.22,11.69 1.9,-28.19 -13.22,-11.7"
         style="fill:#d88e48;fill-opacity:1;fill-rule:nonzero;stroke:none;stroke-width:0.1"
         id="path1978" />
      <path
         d="m 1164.58,1576.63 v 0 l -3.32,49.05 13.97,0.95 2.58,-38.32 -13.23,-11.68"
         style="fill:#d88e48;fill-opacity:1;fill-rule:nonzero;stroke:none;stroke-width:0.1"
         id="path1980" />
      <path
         d="m 1164.91,1571.79 v 0 l -0.33,4.83 v 0.01 l 13.23,11.68 0.32,-4.83 -13.22,-11.69"
         style="fill:#e9a637;fill-opacity:1;fill-rule:nonzero;stroke:none;stroke-width:0.1"
         id="path1982" />
      <path
         d="m 1167.15,1538.78 v 0 l -0.34,4.81 13.22,11.7 0.35,-4.83 -13.23,-11.68"
         style="fill:#e9a637;fill-opacity:1;fill-rule:nonzero;stroke:none;stroke-width:0.1"
         id="path1984" />
      <path
         d="m 1169.14,1509.15 v 0 l -0.3,4.8 13.22,11.72 0.3,-4.84 -13.22,-11.68"
         style="fill:#e9a637;fill-opacity:1;fill-rule:nonzero;stroke:none;stroke-width:0.1"
         id="path1986" />
      <path
         d="m 1185.16,1479.63 c -0.37,0.46 -0.71,0.93 -1.06,1.4 l 0.91,0.8 0.15,-2.2"
         style="fill:#e9a637;fill-opacity:1;fill-rule:nonzero;stroke:none;stroke-width:0.1"
         id="path1988" />
      <path
         d="m 1149.74,1624.23 c 0.04,-0.37 0.06,-0.74 0.12,-1.09 1.26,-9.29 9.8,-15.8 19.08,-14.51 9.29,1.27 15.79,9.8 14.52,19.08 -0.04,0.37 -0.13,0.75 -0.21,1.1 l -33.51,-4.58"
         style="fill:#e3b15d;fill-opacity:1;fill-rule:nonzero;stroke:none;stroke-width:0.1"
         id="path1990" />
    </g>
  </g>
</svg>
