<?xml version="1.0" encoding="UTF-8" standalone="no"?>
<svg
   xmlns:dc="http://purl.org/dc/elements/1.1/"
   xmlns:cc="http://creativecommons.org/ns#"
   xmlns:rdf="http://www.w3.org/1999/02/22-rdf-syntax-ns#"
   xmlns:svg="http://www.w3.org/2000/svg"
   xmlns="http://www.w3.org/2000/svg"
   xmlns:sodipodi="http://sodipodi.sourceforge.net/DTD/sodipodi-0.dtd"
   xmlns:inkscape="http://www.inkscape.org/namespaces/inkscape"
   sodipodi:docname="marimba.svg"
   inkscape:version="1.0 (4035a4f, 2020-05-01)"
   id="svg11815"
   version="1.1"
   viewBox="0 0 96.124092 83.756889"
   height="83.756889mm"
   width="96.124092mm">
  <defs
     id="defs11809" />
  <sodipodi:namedview
     inkscape:window-maximized="0"
     inkscape:window-y="25"
     inkscape:window-x="0"
     inkscape:window-height="825"
     inkscape:window-width="834"
     fit-margin-bottom="0"
     fit-margin-right="0"
     fit-margin-left="0"
     fit-margin-top="0"
     showgrid="false"
     inkscape:document-rotation="0"
     inkscape:current-layer="layer1"
     inkscape:document-units="mm"
     inkscape:cy="992.56645"
     inkscape:cx="130.22325"
     inkscape:zoom="0.35"
     inkscape:pageshadow="2"
     inkscape:pageopacity="0.0"
     borderopacity="1.0"
     bordercolor="#666666"
     pagecolor="#ffffff"
     id="base" />
  <metadata
     id="metadata11812">
    <rdf:RDF>
      <cc:Work
         rdf:about="">
        <dc:format>image/svg+xml</dc:format>
        <dc:type
           rdf:resource="http://purl.org/dc/dcmitype/StillImage" />
        <dc:title></dc:title>
      </cc:Work>
    </rdf:RDF>
  </metadata>
  <g
     transform="translate(271.068,148.46773)"
     id="layer1"
     inkscape:groupmode="layer"
     inkscape:label="Layer 1">
    <g
       transform="matrix(0.35277777,0,0,-0.35277777,-492.23179,421.05004)"
       id="g11709">
      <path
         d="m 875.085,1500.73 v -83.29 l -7.981,-0.66 -230.293,-19.45 v 121.32 l 238.274,-17.92"
         style="fill:#822c23;fill-opacity:1;fill-rule:nonzero;stroke:none;stroke-width:0.1"
         id="path1050" />
      <path
         d="m 867.104,1487.11 v -70.33 L 636.811,1397.33 V 1505 l 230.293,-17.89"
         style="fill:#542b1b;fill-opacity:1;fill-rule:nonzero;stroke:none;stroke-width:0.1"
         id="path1052" />
      <path
         d="m 725.666,1508.78 v -118.31 c 0,-2.64 2.054,-4.78 4.64,-4.93 v -0.03 h 29.258 v 0.05 c 2.517,0.23 4.49,2.33 4.49,4.91 v 118.31 h -38.388"
         style="fill:#491c18;fill-opacity:1;fill-rule:nonzero;stroke:none;stroke-width:0.1"
         id="path1054" />
      <path
         d="m 763.979,1529.76 v -131.53 c 0,-2.57 -1.979,-4.68 -4.488,-4.89 v -0.06 h -29.262 v 0.02 c -2.598,0.17 -4.639,2.3 -4.639,4.93 v 131.53 c 0,2.62 2.041,4.78 4.639,4.91 v 0.05 h 29.262 v -0.06 c 2.509,-0.23 4.488,-2.33 4.488,-4.9"
         style="fill:#e1a25a;fill-opacity:1;fill-rule:nonzero;stroke:none;stroke-width:0.1"
         id="path1056" />
      <path
         d="m 740.582,1522.91 c 0,-2.34 1.918,-4.26 4.271,-4.26 2.365,0 4.27,1.92 4.27,4.26 0,2.37 -1.905,4.27 -4.27,4.27 -2.353,0 -4.271,-1.9 -4.271,-4.27"
         style="fill:#491c18;fill-opacity:1;fill-rule:nonzero;stroke:none;stroke-width:0.1"
         id="path1058" />
      <path
         d="m 740.576,1405.88 c 0,-2.36 1.91,-4.27 4.269,-4.27 2.368,0 4.278,1.91 4.278,4.27 0,2.36 -1.91,4.27 -4.278,4.27 -2.359,0 -4.269,-1.91 -4.269,-4.27"
         style="fill:#491c18;fill-opacity:1;fill-rule:nonzero;stroke:none;stroke-width:0.1"
         id="path1060" />
      <path
         d="m 679.482,1522.6 v -140.69 c 0,-2.63 2.052,-4.76 4.643,-4.92 v -0.03 h 29.271 v 0.04 c 2.508,0.23 4.473,2.33 4.473,4.91 v 140.69 h -38.387"
         style="fill:#491c18;fill-opacity:1;fill-rule:nonzero;stroke:none;stroke-width:0.1"
         id="path1062" />
      <path
         d="m 717.802,1543.57 v -153.88 c 0,-2.59 -1.979,-4.69 -4.489,-4.9 v -0.04 h -29.254 v 0.01 c -2.599,0.17 -4.652,2.29 -4.652,4.93 v 153.88 c 0,2.64 2.053,4.77 4.652,4.94 v 0.02 h 29.254 v -0.04 c 2.51,-0.24 4.489,-2.33 4.489,-4.92"
         style="fill:#e1a25a;fill-opacity:1;fill-rule:nonzero;stroke:none;stroke-width:0.1"
         id="path1064" />
      <path
         d="m 694.405,1536.73 c 0,-2.36 1.91,-4.27 4.272,-4.27 2.364,0 4.268,1.91 4.268,4.27 0,2.36 -1.904,4.29 -4.268,4.29 -2.362,0 -4.272,-1.93 -4.272,-4.29"
         style="fill:#491c18;fill-opacity:1;fill-rule:nonzero;stroke:none;stroke-width:0.1"
         id="path1066" />
      <path
         d="m 694.405,1397.33 c 0,-2.36 1.91,-4.27 4.272,-4.27 2.364,0 4.268,1.91 4.268,4.27 0,2.36 -1.904,4.28 -4.268,4.28 -2.362,0 -4.272,-1.92 -4.272,-4.28"
         style="fill:#491c18;fill-opacity:1;fill-rule:nonzero;stroke:none;stroke-width:0.1"
         id="path1068" />
      <path
         d="m 771.633,1508.49 v -112.14 c 0,-2.65 2.059,-4.76 4.651,-4.93 v -0.04 h 29.261 v 0.06 c 2.51,0.24 4.483,2.33 4.483,4.91 v 112.14 h -38.395"
         style="fill:#491c18;fill-opacity:1;fill-rule:nonzero;stroke:none;stroke-width:0.1"
         id="path1070" />
      <path
         d="m 809.945,1519.37 v -115.25 c 0,-2.58 -1.972,-4.66 -4.476,-4.91 v -0.05 h -29.26 v 0.04 c -2.591,0.16 -4.653,2.29 -4.653,4.92 v 115.25 c 0,2.64 2.062,4.79 4.653,4.94 v 0.04 h 29.26 v -0.06 c 2.504,-0.24 4.476,-2.33 4.476,-4.92"
         style="fill:#e1a25a;fill-opacity:1;fill-rule:nonzero;stroke:none;stroke-width:0.1"
         id="path1072" />
      <path
         d="m 786.557,1512.53 c 0,-2.36 1.915,-4.28 4.274,-4.28 2.362,0 4.273,1.92 4.273,4.28 0,2.36 -1.911,4.29 -4.273,4.29 -2.359,0 -4.274,-1.93 -4.274,-4.29"
         style="fill:#491c18;fill-opacity:1;fill-rule:nonzero;stroke:none;stroke-width:0.1"
         id="path1074" />
      <path
         d="m 786.557,1411.77 c 0,-2.36 1.909,-4.28 4.274,-4.28 2.362,0 4.273,1.92 4.273,4.28 0,2.36 -1.911,4.29 -4.273,4.29 -2.365,0 -4.274,-1.93 -4.274,-4.29"
         style="fill:#491c18;fill-opacity:1;fill-rule:nonzero;stroke:none;stroke-width:0.1"
         id="path1076" />
      <path
         d="m 817.251,1496.68 v -90.12 c 0,-2.63 2.053,-4.77 4.643,-4.92 v -0.03 h 29.256 v 0.04 c 2.523,0.25 4.488,2.34 4.488,4.91 v 90.12 h -38.387"
         style="fill:#491c18;fill-opacity:1;fill-rule:nonzero;stroke:none;stroke-width:0.1"
         id="path1078" />
      <path
         d="m 855.556,1507.57 v -93.22 c 0,-2.59 -1.978,-4.67 -4.489,-4.92 v -0.03 h -29.254 v 0.01 c -2.59,0.15 -4.651,2.31 -4.651,4.94 v 93.22 c 0,2.64 2.061,4.79 4.651,4.92 v 0.06 h 29.254 v -0.07 c 2.511,-0.22 4.489,-2.32 4.489,-4.91"
         style="fill:#e1a25a;fill-opacity:1;fill-rule:nonzero;stroke:none;stroke-width:0.1"
         id="path1080" />
      <path
         d="m 832.16,1500.73 c 0,-2.36 1.926,-4.27 4.285,-4.27 2.359,0 4.269,1.91 4.269,4.27 0,2.36 -1.91,4.29 -4.269,4.29 -2.359,0 -4.285,-1.93 -4.285,-4.29"
         style="fill:#491c18;fill-opacity:1;fill-rule:nonzero;stroke:none;stroke-width:0.1"
         id="path1082" />
      <path
         d="m 832.16,1421.98 c 0,-2.36 1.91,-4.27 4.271,-4.27 2.373,0 4.283,1.91 4.283,4.27 0,2.37 -1.91,4.3 -4.283,4.3 -2.361,0 -4.271,-1.93 -4.271,-4.3"
         style="fill:#491c18;fill-opacity:1;fill-rule:nonzero;stroke:none;stroke-width:0.1"
         id="path1084" />
      <path
         d="m 626.921,1397.33 h 41.812 v 127.01 h -41.812 v -127.01"
         style="fill:#822c23;fill-opacity:1;fill-rule:nonzero;stroke:none;stroke-width:0.1"
         id="path1086" />
      <path
         d="m 626.921,1397.33 h 41.81 v 120.36 h -41.81 v -120.36"
         style="fill:#6a211c;fill-opacity:1;fill-rule:nonzero;stroke:none;stroke-width:0.1"
         id="path1088" />
      <path
         d="m 698.328,1423.59 c -1.589,7.44 -2.879,15.15 -3.923,22.93 v 90.21 c 0,-2.24 1.726,-4.07 3.923,-4.25 z m -3.923,113.14 v 11.8 h 3.923 V 1541 c -2.197,-0.17 -3.923,-2.03 -3.923,-4.27"
         style="fill:#cb8436;fill-opacity:1;fill-rule:nonzero;stroke:none;stroke-width:0.1"
         id="path1090" />
      <path
         d="m 698.328,1532.48 c -2.197,0.18 -3.923,2.01 -3.923,4.25 v 0 c 0,2.24 1.726,4.1 3.923,4.27 v -8.52"
         style="fill:#451c17;fill-opacity:1;fill-rule:nonzero;stroke:none;stroke-width:0.1"
         id="path1092" />
      <path
         d="m 709.439,1388.55 c -1.401,3.01 -2.703,6.18 -3.914,9.47 v 150.51 h 3.914 v -159.98"
         style="fill:#cb8436;fill-opacity:1;fill-rule:nonzero;stroke:none;stroke-width:0.1"
         id="path1094" />
      <path
         d="m 742.534,1424.46 c -1.619,7.18 -2.905,14.68 -3.92,22.25 v 49.2 c 1.345,0.14 2.671,0.51 3.92,1.09 z m -0.348,95.13 c -0.054,0.02 -0.109,0.04 -0.165,0.06 -1.096,0.46 -2.244,0.74 -3.407,0.86 v 14.21 h 3.92 v -8.22 c -1.172,-0.76 -1.952,-2.08 -1.952,-3.59 0,-1.34 0.629,-2.54 1.604,-3.32"
         style="fill:#cb8436;fill-opacity:1;fill-rule:nonzero;stroke:none;stroke-width:0.1"
         id="path1096" />
      <path
         d="m 742.534,1519.43 c -0.116,0.05 -0.23,0.11 -0.348,0.16 -0.975,0.78 -1.604,1.98 -1.604,3.32 0,1.51 0.78,2.83 1.952,3.59 v -7.07"
         style="fill:#451c17;fill-opacity:1;fill-rule:nonzero;stroke:none;stroke-width:0.1"
         id="path1098" />
      <path
         d="m 751.094,1397.69 c -0.883,1.97 -1.719,4.01 -2.511,6.11 0.344,0.61 0.54,1.32 0.54,2.08 0,1.51 -0.781,2.84 -1.964,3.6 v 91.25 c 1.685,2.21 2.528,4.85 2.528,7.48 0,2.24 -0.604,4.47 -1.809,6.44 l 3.216,3.25 v -120.21"
         style="fill:#cb8436;fill-opacity:1;fill-rule:nonzero;stroke:none;stroke-width:0.1"
         id="path1100" />
      <path
         d="m 748.583,1403.8 c -0.492,1.3 -0.966,2.63 -1.424,3.98 v 1.7 c 1.183,-0.76 1.964,-2.09 1.964,-3.6 0,-0.76 -0.196,-1.47 -0.54,-2.08"
         style="fill:#451c17;fill-opacity:1;fill-rule:nonzero;stroke:none;stroke-width:0.1"
         id="path1102" />
      <path
         d="m 748.779,1524.6 c -0.338,0.79 -0.905,1.45 -1.62,1.91 v 8.21 h 3.935 v -7.78 l -2.315,-2.34"
         style="fill:#cb8436;fill-opacity:1;fill-rule:nonzero;stroke:none;stroke-width:0.1"
         id="path1104" />
      <path
         d="m 747.159,1522.96 v 3.55 c 0.715,-0.46 1.282,-1.12 1.62,-1.91 l -1.62,-1.64"
         style="fill:#451c17;fill-opacity:1;fill-rule:nonzero;stroke:none;stroke-width:0.1"
         id="path1106" />
      <path
         d="m 759.06,1393.28 h -3.908 v 128.73 l 3.908,3.96 z m -3.908,137.77 v 3.67 h 3.62 z"
         style="fill:#cb8436;fill-opacity:1;fill-rule:nonzero;stroke:none;stroke-width:0.1"
         id="path1108" />
      <path
         d="m 780.703,1471.19 c -1.359,23.52 -0.551,44.46 -0.087,53.16 h 0.087 v -53.16"
         style="fill:#cb8436;fill-opacity:1;fill-rule:nonzero;stroke:none;stroke-width:0.1"
         id="path1110" />
      <path
         d="m 788.349,1418.47 c -1.572,5.8 -2.863,11.92 -3.921,18.18 v 87.7 h 3.921 v -8.33 c -1.086,-0.78 -1.792,-2.05 -1.792,-3.49 0,-1.43 0.706,-2.7 1.792,-3.48 v -90.58"
         style="fill:#cb8436;fill-opacity:1;fill-rule:nonzero;stroke:none;stroke-width:0.1"
         id="path1112" />
      <path
         d="m 788.349,1509.05 c -1.086,0.78 -1.792,2.05 -1.792,3.48 0,1.44 0.706,2.71 1.792,3.49 v -6.97"
         style="fill:#451c17;fill-opacity:1;fill-rule:nonzero;stroke:none;stroke-width:0.1"
         id="path1114" />
      <path
         d="m 796.896,1399.16 h -1.537 c -0.843,1.73 -1.638,3.53 -2.393,5.39 v 3.51 c 1.277,0.74 2.138,2.13 2.138,3.71 0,1.59 -0.861,2.97 -2.138,3.71 v 93.34 c 1.277,0.74 2.138,2.13 2.138,3.71 0,1.59 -0.861,2.97 -2.138,3.71 v 8.11 h 3.93 v -125.19"
         style="fill:#cb8436;fill-opacity:1;fill-rule:nonzero;stroke:none;stroke-width:0.1"
         id="path1116" />
      <path
         d="m 792.966,1508.82 v 7.42 c 1.277,-0.74 2.138,-2.12 2.138,-3.71 0,-1.58 -0.861,-2.97 -2.138,-3.71"
         style="fill:#451c17;fill-opacity:1;fill-rule:nonzero;stroke:none;stroke-width:0.1"
         id="path1118" />
      <path
         d="m 792.966,1408.06 v 7.42 c 1.277,-0.74 2.138,-2.12 2.138,-3.71 0,-1.58 -0.861,-2.97 -2.138,-3.71"
         style="fill:#451c17;fill-opacity:1;fill-rule:nonzero;stroke:none;stroke-width:0.1"
         id="path1120" />
      <path
         d="m 804.876,1399.16 h -3.914 v 100.16 l 1.106,-1.1 2.808,2.85 z m -3.914,107.02 v 18.17 h 3.914 v -14.21 l -3.914,-3.96"
         style="fill:#cb8436;fill-opacity:1;fill-rule:nonzero;stroke:none;stroke-width:0.1"
         id="path1122" />
      <path
         d="m 826.225,1442.93 c -4.357,28.38 -3.201,59.45 -2.659,69.62 h -1.247 3.906 v -69.62"
         style="fill:#cb8436;fill-opacity:1;fill-rule:nonzero;stroke:none;stroke-width:0.1"
         id="path1124" />
      <path
         d="m 833.865,1413.15 c -1.494,3.66 -2.792,7.61 -3.916,11.75 v 87.65 h 3.916 v -8.4 c -1.035,-0.78 -1.705,-2.02 -1.705,-3.42 0,-1.39 0.67,-2.63 1.705,-3.41 v -71.9 c -1.036,-0.79 -1.705,-2.04 -1.705,-3.44 0,-1.4 0.669,-2.64 1.705,-3.42 v -5.41"
         style="fill:#cb8436;fill-opacity:1;fill-rule:nonzero;stroke:none;stroke-width:0.1"
         id="path1126" />
      <path
         d="m 833.865,1497.32 c -1.035,0.78 -1.705,2.02 -1.705,3.41 0,1.4 0.67,2.64 1.705,3.42 v -6.83"
         style="fill:#451c17;fill-opacity:1;fill-rule:nonzero;stroke:none;stroke-width:0.1"
         id="path1128" />
      <path
         d="m 833.865,1418.56 c -1.036,0.78 -1.705,2.02 -1.705,3.42 0,1.4 0.669,2.65 1.705,3.44 v -6.86"
         style="fill:#451c17;fill-opacity:1;fill-rule:nonzero;stroke:none;stroke-width:0.1"
         id="path1130" />
      <path
         d="m 842.421,1409.4 h -3.919 v 8.84 c 1.323,0.73 2.212,2.13 2.212,3.74 0,1.62 -0.889,3.03 -2.212,3.76 v 71.25 c 1.318,0.73 2.212,2.13 2.212,3.74 0,1.62 -0.894,3.02 -2.212,3.76 v 8.06 h 3.919 V 1409.4"
         style="fill:#cb8436;fill-opacity:1;fill-rule:nonzero;stroke:none;stroke-width:0.1"
         id="path1132" />
      <path
         d="m 838.502,1496.99 v 7.5 c 1.318,-0.74 2.212,-2.14 2.212,-3.76 0,-1.61 -0.894,-3.01 -2.212,-3.74"
         style="fill:#451c17;fill-opacity:1;fill-rule:nonzero;stroke:none;stroke-width:0.1"
         id="path1134" />
      <path
         d="m 838.502,1418.24 v 7.5 c 1.323,-0.73 2.212,-2.14 2.212,-3.76 0,-1.61 -0.889,-3.01 -2.212,-3.74"
         style="fill:#451c17;fill-opacity:1;fill-rule:nonzero;stroke:none;stroke-width:0.1"
         id="path1136" />
      <path
         d="m 846.473,1409.4 h 3.921 v 103.15 h -3.921 V 1409.4"
         style="fill:#cb8436;fill-opacity:1;fill-rule:nonzero;stroke:none;stroke-width:0.1"
         id="path1138" />
      <path
         d="m 897.505,1594.85 -95.437,-96.63 -4.518,4.5 95.468,96.63 c 1.383,1.38 3.102,2.05 4.418,1.83 0.518,-0.07 0.962,-0.28 1.302,-0.63 1.235,-1.23 0.691,-3.8 -1.233,-5.7"
         style="fill:#fad1ab;fill-opacity:1;fill-rule:nonzero;stroke:none;stroke-width:0.1"
         id="path1140" />
      <path
         d="m 802.068,1498.22 -4.518,4.5 95.468,96.63 c 1.211,1.21 2.678,1.87 3.908,1.87 0.176,0 0.346,-0.02 0.51,-0.04 -5.668,-5.13 -18.157,-17.29 -24.773,-31.2 l -70.595,-71.76"
         style="fill:#f4aa73;fill-opacity:1;fill-rule:nonzero;stroke:none;stroke-width:0.1"
         id="path1142" />
      <path
         d="m 803.445,1486.3 c -2.619,-2.62 -6.112,-3.81 -9.55,-3.6 -2.894,0.19 -5.735,1.39 -7.954,3.6 -4.829,4.83 -4.829,12.66 0,17.49 3.629,3.64 8.991,4.55 13.466,2.7 1.48,-0.6 2.845,-1.5 4.038,-2.7 4.829,-4.83 4.829,-12.66 0,-17.49"
         style="fill:#4d1d19;fill-opacity:1;fill-rule:nonzero;stroke:none;stroke-width:0.1"
         id="path1144" />
      <path
         d="m 803.445,1486.3 c -2.619,-2.62 -6.112,-3.81 -9.55,-3.6 -1.466,0.61 -2.837,1.51 -4.032,2.7 -4.835,4.84 -4.835,12.65 0,17.49 2.629,2.62 6.12,3.82 9.544,3.6 1.48,-0.6 2.845,-1.5 4.038,-2.7 4.829,-4.83 4.829,-12.66 0,-17.49"
         style="fill:#822c23;fill-opacity:1;fill-rule:nonzero;stroke:none;stroke-width:0.1"
         id="path1146" />
      <path
         d="m 801.774,1485.45 c -1.167,-1.17 -2.75,-1.73 -4.278,-1.61 -1.303,0.07 -2.564,0.62 -3.558,1.61 -2.165,2.17 -2.165,5.68 0,7.84 1.619,1.63 4.023,2.04 6.028,1.21 0.662,-0.29 1.281,-0.68 1.808,-1.21 2.169,-2.16 2.169,-5.67 0,-7.84"
         style="fill:#b03a2d;fill-opacity:1;fill-rule:nonzero;stroke:none;stroke-width:0.1"
         id="path1148" />
      <path
         d="m 840.129,1608 -95.462,-96.6 -4.494,4.49 95.452,96.61 c 1.391,1.39 3.104,2.06 4.435,1.84 0.496,-0.05 0.955,-0.27 1.295,-0.63 1.244,-1.22 0.689,-3.8 -1.226,-5.71"
         style="fill:#fad1ab;fill-opacity:1;fill-rule:nonzero;stroke:none;stroke-width:0.1"
         id="path1150" />
      <path
         d="m 747.874,1514.66 c -0.502,0.82 -1.11,1.6 -1.82,2.31 -0.838,0.82 -1.772,1.52 -2.764,2.07 l 92.335,93.46 c 1.217,1.22 2.685,1.88 3.922,1.88 0.176,0 0.346,-0.01 0.513,-0.04 -5.682,-5.13 -18.158,-17.3 -24.788,-31.18 l -67.398,-68.5"
         style="fill:#f4aa73;fill-opacity:1;fill-rule:nonzero;stroke:none;stroke-width:0.1"
         id="path1152" />
      <path
         d="m 746.054,1499.46 c -2.618,-2.62 -6.12,-3.82 -9.544,-3.58 -2.897,0.17 -5.735,1.38 -7.946,3.58 -4.841,4.85 -4.841,12.67 0,17.51 3.629,3.63 8.977,4.53 13.457,2.68 1.469,-0.6 2.844,-1.51 4.033,-2.68 4.842,-4.84 4.842,-12.66 0,-17.51"
         style="fill:#4d1d19;fill-opacity:1;fill-rule:nonzero;stroke:none;stroke-width:0.1"
         id="path1154" />
      <path
         d="m 746.054,1499.46 c -2.618,-2.62 -6.12,-3.82 -9.544,-3.58 -1.466,0.58 -2.842,1.5 -4.026,2.7 -4.832,4.81 -4.832,12.64 0,17.49 2.615,2.6 6.114,3.8 9.537,3.58 1.469,-0.6 2.844,-1.51 4.033,-2.68 4.842,-4.84 4.842,-12.66 0,-17.51"
         style="fill:#822c23;fill-opacity:1;fill-rule:nonzero;stroke:none;stroke-width:0.1"
         id="path1156" />
      <path
         d="m 744.395,1498.6 c -1.178,-1.16 -2.747,-1.7 -4.276,-1.6 -1.302,0.09 -2.578,0.61 -3.566,1.6 -2.169,2.19 -2.169,5.69 0,7.86 1.628,1.64 4.029,2.03 6.034,1.2 0.656,-0.27 1.27,-0.66 1.808,-1.2 2.163,-2.17 2.163,-5.67 0,-7.86"
         style="fill:#b03a2d;fill-opacity:1;fill-rule:nonzero;stroke:none;stroke-width:0.1"
         id="path1158" />
      <path
         d="m 667.667,1397.33 h -40.746 v 69.31 c 8.265,-24.77 21.034,-50.17 40.746,-69.31"
         style="fill:#822c23;fill-opacity:1;fill-rule:nonzero;stroke:none;stroke-width:0.1"
         id="path1160" />
      <path
         d="m 711.302,1384.75 h -1.863 v 3.8 c 0.604,-1.3 1.223,-2.56 1.863,-3.8 z m -5.777,0 h -7.197 v 8.32 c 0.115,-0.01 0.231,-0.01 0.349,-0.01 2.364,0 4.268,1.91 4.268,4.27 0,2.36 -1.904,4.28 -4.268,4.28 -0.118,0 -0.234,0 -0.349,-0.01 v 21.99 c 1.928,-9.03 4.299,-17.67 7.197,-25.57 z m -11.12,0 h -5.92 v 163.78 h 2.717 c -0.818,-15.07 -2.482,-59.61 3.203,-102.01 z m -9.834,0 h -0.512 v 0.01 c -2.599,0.17 -4.652,2.29 -4.652,4.93 v 153.88 c 0,2.64 2.053,4.77 4.652,4.94 v 0.02 h 0.512 v -163.78"
         style="fill:#c96e36;fill-opacity:1;fill-rule:nonzero;stroke:none;stroke-width:0.1"
         id="path1162" />
      <path
         d="m 698.677,1393.06 c -0.118,0 -0.234,0 -0.349,0.01 v 8.53 c 0.115,0.01 0.231,0.01 0.349,0.01 2.364,0 4.268,-1.92 4.268,-4.28 0,-2.36 -1.904,-4.27 -4.268,-4.27"
         style="fill:#451a17;fill-opacity:1;fill-rule:nonzero;stroke:none;stroke-width:0.1"
         id="path1164" />
      <path
         d="m 684.571,1384.75 h 3.915 v 163.79 h -3.915 v -163.79"
         style="fill:#b95e31;fill-opacity:1;fill-rule:nonzero;stroke:none;stroke-width:0.1"
         id="path1166" />
      <path
         d="m 698.328,1384.75 h -3.923 v 12.58 c 0,-2.25 1.726,-4.08 3.923,-4.26 z m -3.923,12.58 v 49.19 c 1.044,-7.78 2.334,-15.49 3.923,-22.93 v -21.99 c -2.197,-0.18 -3.923,-2.03 -3.923,-4.27"
         style="fill:#b95e31;fill-opacity:1;fill-rule:nonzero;stroke:none;stroke-width:0.1"
         id="path1168" />
      <path
         d="m 698.328,1393.07 c -2.197,0.18 -3.923,2.01 -3.923,4.26 v 0 c 0,2.24 1.726,4.09 3.923,4.27 v -8.53"
         style="fill:#401a18;fill-opacity:1;fill-rule:nonzero;stroke:none;stroke-width:0.1"
         id="path1170" />
      <path
         d="m 709.439,1384.75 h -3.914 v 13.27 c 1.211,-3.29 2.513,-6.46 3.914,-9.47 v -3.8"
         style="fill:#b95e31;fill-opacity:1;fill-rule:nonzero;stroke:none;stroke-width:0.1"
         id="path1172" />
      <path
         d="m 753.222,1393.28 h -23.56 v 0.02 c -2.144,0.15 -3.864,1.85 -3.989,4.02 0.409,-2.2 2.264,-3.87 4.556,-4.02 v -0.02 h 22.993 v 0"
         style="fill:#451a17;fill-opacity:1;fill-rule:nonzero;stroke:none;stroke-width:0.1"
         id="path1174" />
      <path
         d="m 753.222,1393.28 h -2.128 v 4.41 c 0.681,-1.52 1.391,-2.99 2.128,-4.41 z m -6.063,0 h -4.625 v 9.01 c 0.665,-0.43 1.461,-0.68 2.311,-0.68 0.855,0 1.648,0.25 2.314,0.68 z m -8.545,0 h -3.72 v 102.8 c 0.095,-0.01 0.187,-0.03 0.282,-0.05 0.255,-15.03 1.167,-32.37 3.438,-49.32 z m -7.634,0 h -0.751 v 0.02 c -2.292,0.15 -4.147,1.82 -4.556,4.02 -0.004,0.08 -0.007,0.17 -0.007,0.25 v 106.45 c 0.6,-1.66 1.564,-3.22 2.898,-4.56 0.741,-0.74 1.554,-1.37 2.416,-1.88 z m 11.554,16.2 v 14.98 c 1.143,-5.06 2.452,-9.97 3.949,-14.63 -0.504,0.21 -1.057,0.32 -1.638,0.32 -0.85,0 -1.646,-0.25 -2.311,-0.67"
         style="fill:#c96e36;fill-opacity:1;fill-rule:nonzero;stroke:none;stroke-width:0.1"
         id="path1176" />
      <path
         d="m 744.845,1401.61 c -0.85,0 -1.646,0.25 -2.311,0.68 v 7.19 c 0.665,0.42 1.461,0.67 2.311,0.67 0.581,0 1.134,-0.11 1.638,-0.32 0.223,-0.69 0.448,-1.37 0.676,-2.05 v -5.49 c -0.666,-0.43 -1.459,-0.68 -2.314,-0.68"
         style="fill:#451a17;fill-opacity:1;fill-rule:nonzero;stroke:none;stroke-width:0.1"
         id="path1178" />
      <path
         d="m 734.894,1393.28 h -3.914 v 104.3 c 1.225,-0.73 2.55,-1.23 3.914,-1.5 v -102.8"
         style="fill:#b95e31;fill-opacity:1;fill-rule:nonzero;stroke:none;stroke-width:0.1"
         id="path1180" />
      <path
         d="m 742.534,1393.28 h -3.92 v 53.43 c 1.015,-7.57 2.301,-15.07 3.92,-22.25 v -14.98 c -1.178,-0.77 -1.958,-2.09 -1.958,-3.6 0,-1.51 0.78,-2.83 1.958,-3.59 v -9.01"
         style="fill:#b95e31;fill-opacity:1;fill-rule:nonzero;stroke:none;stroke-width:0.1"
         id="path1182" />
      <path
         d="m 742.534,1402.29 c -1.178,0.76 -1.958,2.08 -1.958,3.59 0,1.51 0.78,2.83 1.958,3.6 v -7.19"
         style="fill:#401a18;fill-opacity:1;fill-rule:nonzero;stroke:none;stroke-width:0.1"
         id="path1184" />
      <path
         d="m 751.094,1393.28 h -3.935 v 9.01 c 0.589,0.38 1.08,0.9 1.424,1.51 0.792,-2.1 1.628,-4.14 2.511,-6.11 v -4.41"
         style="fill:#b95e31;fill-opacity:1;fill-rule:nonzero;stroke:none;stroke-width:0.1"
         id="path1186" />
      <path
         d="m 747.159,1402.29 v 5.49 c 0.458,-1.35 0.932,-2.68 1.424,-3.98 -0.344,-0.61 -0.835,-1.13 -1.424,-1.51"
         style="fill:#401a18;fill-opacity:1;fill-rule:nonzero;stroke:none;stroke-width:0.1"
         id="path1188" />
      <path
         d="m 725.666,1530.63 c 0.025,2.27 1.783,4.09 3.996,4.21 v 0.03 h 6.188 c -0.002,-0.06 -0.006,-0.1 -0.007,-0.15 h -5.614 v -0.05 c -2.304,-0.12 -4.169,-1.83 -4.563,-4.04"
         style="fill:#e1a25a;fill-opacity:1;fill-rule:nonzero;stroke:none;stroke-width:0.1"
         id="path1190" />
      <path
         d="m 725.666,1512.41 v 18.17 c 0,0.02 0,0.03 0,0.05 0.394,2.21 2.259,3.92 4.563,4.04 v 0.05 h 5.614 c -0.179,-3.32 -0.402,-8.23 -0.558,-14.3 -0.129,-0.02 -0.259,-0.05 -0.391,-0.07 v 14.37 h -3.914 v -15.87 c -0.862,-0.52 -1.675,-1.14 -2.416,-1.88 -1.334,-1.34 -2.298,-2.89 -2.898,-4.56"
         style="fill:#c96e36;fill-opacity:1;fill-rule:nonzero;stroke:none;stroke-width:0.1"
         id="path1192" />
      <path
         d="m 730.98,1518.85 v 15.87 h 3.914 v -14.37 c -1.362,-0.27 -2.689,-0.77 -3.914,-1.5"
         style="fill:#b95e31;fill-opacity:1;fill-rule:nonzero;stroke:none;stroke-width:0.1"
         id="path1194" />
      <path
         d="m 735.176,1496.03 c -0.095,0.02 -0.187,0.04 -0.282,0.05 -1.364,0.27 -2.689,0.77 -3.914,1.5 -0.862,0.51 -1.675,1.14 -2.416,1.88 -1.334,1.34 -2.298,2.9 -2.898,4.56 v 8.39 c 0.6,1.67 1.564,3.22 2.898,4.56 0.741,0.74 1.554,1.36 2.416,1.88 1.225,0.73 2.552,1.23 3.914,1.5 0.132,0.02 0.262,0.05 0.391,0.07 -0.02,-0.75 -0.037,-1.51 -0.052,-2.29 -0.987,-0.54 -1.912,-1.23 -2.749,-2.06 -4.832,-4.85 -4.832,-12.68 0,-17.49 0.815,-0.83 1.72,-1.52 2.684,-2.06 0.002,-0.16 0.004,-0.33 0.008,-0.49"
         style="fill:#471b18;fill-opacity:1;fill-rule:nonzero;stroke:none;stroke-width:0.1"
         id="path1196" />
      <path
         d="m 735.168,1496.52 c -0.964,0.54 -1.869,1.23 -2.684,2.06 -4.832,4.81 -4.832,12.64 0,17.49 0.837,0.83 1.762,1.52 2.749,2.06 -0.094,-4.27 -0.15,-9.06 -0.134,-14.22 -0.235,-0.92 -0.231,-1.88 0.014,-2.81 0.012,-1.5 0.03,-3.03 0.055,-4.58"
         style="fill:#77261f;fill-opacity:1;fill-rule:nonzero;stroke:none;stroke-width:0.1"
         id="path1198" />
      <path
         d="m 735.113,1501.1 c -0.245,0.93 -0.249,1.89 -0.014,2.81 0.002,-0.92 0.008,-1.86 0.014,-2.81"
         style="fill:#a33027;fill-opacity:1;fill-rule:nonzero;stroke:none;stroke-width:0.1"
         id="path1200" />
      <path
         d="m 771.633,1400.23 c -0.093,0.33 -0.144,0.68 -0.144,1.04 v 7.44 h 0.067 v -4.59 c 0,-0.3 0.026,-0.59 0.077,-0.87 z m -0.077,108.28 -0.067,0.01 v 12.12 c 0,2.06 1.588,3.71 3.586,3.8 v 0.04 h 5.547 c -0.002,-0.04 -0.004,-0.09 -0.006,-0.13 h -4.407 v -0.04 c -2.591,-0.15 -4.653,-2.3 -4.653,-4.94 v -10.86"
         style="fill:#e1a25a;fill-opacity:1;fill-rule:nonzero;stroke:none;stroke-width:0.1"
         id="path1202" />
      <path
         d="m 771.556,1494.53 -0.067,0.01 v 13.98 l 0.067,-0.01 v -13.98"
         style="fill:#77261f;fill-opacity:1;fill-rule:nonzero;stroke:none;stroke-width:0.1"
         id="path1204" />
      <path
         d="m 771.489,1408.71 v 85.83 l 0.067,-0.01 v -85.82 h -0.067"
         style="fill:#4e2319;fill-opacity:1;fill-rule:nonzero;stroke:none;stroke-width:0.1"
         id="path1206" />
      <path
         d="m 796.22,1397.44 h -21.145 v 0.03 c -1.644,0.1 -3.009,1.22 -3.442,2.76 v 3.02 c 0.395,-2.22 2.276,-3.91 4.576,-4.05 v -0.04 h 19.15 c 0.282,-0.58 0.569,-1.16 0.861,-1.72"
         style="fill:#451a17;fill-opacity:1;fill-rule:nonzero;stroke:none;stroke-width:0.1"
         id="path1208" />
      <path
         d="m 792.966,1399.16 h -4.617 v 9.13 c 0.7,-0.5 1.557,-0.8 2.482,-0.8 0.33,0 0.65,0.04 0.958,0.11 0.379,-1.03 0.774,-2.05 1.177,-3.05 z m -8.538,0 h -3.725 v 72.03 c 0.652,-11.28 1.8,-23.14 3.725,-34.54 z m -7.646,0 h -0.573 v 0.04 c -2.3,0.14 -4.181,1.83 -4.576,4.05 -0.051,0.28 -0.077,0.57 -0.077,0.87 v 115.25 c 0,2.64 2.062,4.79 4.653,4.94 v 0.04 h 4.407 -3.834 z m 11.567,16.1 v 3.21 c 0.255,-0.93 0.512,-1.85 0.78,-2.77 -0.276,-0.12 -0.538,-0.27 -0.78,-0.44"
         style="fill:#c96e36;fill-opacity:1;fill-rule:nonzero;stroke:none;stroke-width:0.1"
         id="path1210" />
      <path
         d="m 790.831,1407.49 c -0.925,0 -1.782,0.3 -2.482,0.8 v 6.97 c 0.242,0.17 0.504,0.32 0.78,0.44 0.816,-2.79 1.7,-5.5 2.66,-8.1 -0.308,-0.07 -0.628,-0.11 -0.958,-0.11"
         style="fill:#451a17;fill-opacity:1;fill-rule:nonzero;stroke:none;stroke-width:0.1"
         id="path1212" />
      <path
         d="m 780.703,1399.16 h -3.921 v 125.19 h 3.834 c -0.464,-8.7 -1.272,-29.64 0.087,-53.16 v -72.03"
         style="fill:#b95e31;fill-opacity:1;fill-rule:nonzero;stroke:none;stroke-width:0.1"
         id="path1214" />
      <path
         d="m 788.349,1399.16 h -3.921 v 37.49 c 1.058,-6.26 2.349,-12.38 3.921,-18.18 v -3.21 c -1.086,-0.78 -1.792,-2.05 -1.792,-3.49 0,-1.43 0.706,-2.71 1.792,-3.48 v -9.13"
         style="fill:#b95e31;fill-opacity:1;fill-rule:nonzero;stroke:none;stroke-width:0.1"
         id="path1216" />
      <path
         d="m 788.349,1408.29 c -1.086,0.77 -1.792,2.05 -1.792,3.48 0,1.44 0.706,2.71 1.792,3.49 v -6.97"
         style="fill:#401a18;fill-opacity:1;fill-rule:nonzero;stroke:none;stroke-width:0.1"
         id="path1218" />
      <path
         d="m 795.359,1399.16 h -2.393 v 5.39 c 0.755,-1.86 1.55,-3.66 2.393,-5.39"
         style="fill:#b95e31;fill-opacity:1;fill-rule:nonzero;stroke:none;stroke-width:0.1"
         id="path1220" />
      <path
         d="m 835.521,1409.4 h -1.656 v 3.75 c 0.529,-1.29 1.078,-2.53 1.656,-3.75 z m -5.572,0 h -3.724 v 33.53 c 0.956,-6.22 2.177,-12.32 3.724,-18.03 z m -7.63,0 h -0.506 v 0.01 c -2.59,0.15 -4.651,2.31 -4.651,4.94 v 93.22 c 0,2.64 2.061,4.79 4.651,4.92 v 0.06 h 0.506 V 1409.4"
         style="fill:#c96e36;fill-opacity:1;fill-rule:nonzero;stroke:none;stroke-width:0.1"
         id="path1222" />
      <path
         d="m 826.225,1409.4 h -3.906 v 103.15 h 1.247 c -0.542,-10.17 -1.698,-41.24 2.659,-69.62 v -33.53"
         style="fill:#b95e31;fill-opacity:1;fill-rule:nonzero;stroke:none;stroke-width:0.1"
         id="path1224" />
      <path
         d="m 833.865,1409.4 h -3.916 v 15.5 c 1.124,-4.14 2.422,-8.09 3.916,-11.75 v -3.75"
         style="fill:#b95e31;fill-opacity:1;fill-rule:nonzero;stroke:none;stroke-width:0.1"
         id="path1226" />
    </g>
  </g>
</svg>
