<?xml version="1.0" encoding="UTF-8" standalone="no"?>
<svg
   xmlns:dc="http://purl.org/dc/elements/1.1/"
   xmlns:cc="http://creativecommons.org/ns#"
   xmlns:rdf="http://www.w3.org/1999/02/22-rdf-syntax-ns#"
   xmlns:svg="http://www.w3.org/2000/svg"
   xmlns="http://www.w3.org/2000/svg"
   xmlns:sodipodi="http://sodipodi.sourceforge.net/DTD/sodipodi-0.dtd"
   xmlns:inkscape="http://www.inkscape.org/namespaces/inkscape"
   sodipodi:docname="piano.svg"
   inkscape:version="1.0 (4035a4f, 2020-05-01)"
   id="svg13845"
   version="1.1"
   viewBox="0 0 96.131943 91.487976"
   height="91.487976mm"
   width="96.131943mm">
  <defs
     id="defs13839" />
  <sodipodi:namedview
     inkscape:window-maximized="0"
     inkscape:window-y="25"
     inkscape:window-x="0"
     inkscape:window-height="825"
     inkscape:window-width="834"
     fit-margin-bottom="0"
     fit-margin-right="0"
     fit-margin-left="0"
     fit-margin-top="0"
     showgrid="false"
     inkscape:document-rotation="0"
     inkscape:current-layer="layer1"
     inkscape:document-units="mm"
     inkscape:cy="1001.4621"
     inkscape:cx="50.238078"
     inkscape:zoom="0.35"
     inkscape:pageshadow="2"
     inkscape:pageopacity="0.0"
     borderopacity="1.0"
     bordercolor="#666666"
     pagecolor="#ffffff"
     id="base" />
  <metadata
     id="metadata13842">
    <rdf:RDF>
      <cc:Work
         rdf:about="">
        <dc:format>image/svg+xml</dc:format>
        <dc:type
           rdf:resource="http://purl.org/dc/dcmitype/StillImage" />
        <dc:title></dc:title>
      </cc:Work>
    </rdf:RDF>
  </metadata>
  <g
     transform="translate(-92.541175,116.80351)"
     id="layer1"
     inkscape:groupmode="layer"
     inkscape:label="Layer 1">
    <g
       transform="matrix(0.35277777,0,0,-0.35277777,-624.54667,14.690169)"
       id="g13720">
      <path
         d="m 2305.19,216.836 c 0,-4.801 -0.61,-9.476 -1.71,-13.952 v -82.739 c 0,-3.718 -3.02,-6.743 -6.75,-6.743 h -257.27 c -1.87,0 -3.56,0.743 -4.78,1.966 -1.22,1.236 -1.98,2.912 -1.98,4.777 v 83.282 c 0,0.202 -0.01,0.403 -0.01,0.567 v 110.102 c 0,24.463 20.96,45.435 50.75,54.232 9.62,2.849 20.18,4.41 31.24,4.41 45.27,0 81.98,-26.251 81.98,-58.642 V 275.48 h 49.87 c 32.38,0 58.66,-26.253 58.66,-58.644"
         style="fill:#000000;fill-opacity:1;fill-rule:nonzero;stroke:none;stroke-width:0.1"
         id="path3018" />
      <path
         d="m 2153.52,113.402 h -114.06 c -1.87,0 -3.56,0.743 -4.78,1.966 -1.21,1.236 -1.98,2.912 -1.98,4.777 v 92.684 c 14.45,-23.542 52.08,-74.221 120.82,-99.427"
         style="fill:#303031;fill-opacity:1;fill-rule:nonzero;stroke:none;stroke-width:0.1"
         id="path3020" />
      <path
         d="m 2040.78,124.555 h 248.12 v 71.953 h -248.12 v -71.953"
         style="fill:#d5d6d6;fill-opacity:1;fill-rule:nonzero;stroke:none;stroke-width:0.1"
         id="path3022" />
      <path
         d="m 2040.78,124.555 h 16.75 v 68.222 h -16.75 v -68.222"
         style="fill:#c5c6c7;fill-opacity:1;fill-rule:nonzero;stroke:none;stroke-width:0.1"
         id="path3024" />
      <path
         d="m 2040.78,128.273 h 16.75 v 68.234 h -16.75 v -68.234"
         style="fill:#fefefe;fill-opacity:1;fill-rule:nonzero;stroke:none;stroke-width:0.1"
         id="path3026" />
      <path
         d="m 2058.62,124.555 h 16.73 v 68.222 h -16.73 v -68.222"
         style="fill:#c5c6c7;fill-opacity:1;fill-rule:nonzero;stroke:none;stroke-width:0.1"
         id="path3028" />
      <path
         d="m 2058.62,128.273 h 16.73 v 68.234 h -16.73 v -68.234"
         style="fill:#fefefe;fill-opacity:1;fill-rule:nonzero;stroke:none;stroke-width:0.1"
         id="path3030" />
      <path
         d="m 2077.07,124.555 h 16.75 v 68.222 h -16.75 v -68.222"
         style="fill:#c5c6c7;fill-opacity:1;fill-rule:nonzero;stroke:none;stroke-width:0.1"
         id="path3032" />
      <path
         d="m 2077.07,128.273 h 16.75 v 68.234 h -16.75 v -68.234"
         style="fill:#fefefe;fill-opacity:1;fill-rule:nonzero;stroke:none;stroke-width:0.1"
         id="path3034" />
      <path
         d="m 2095.1,124.555 h 16.74 v 68.222 h -16.74 v -68.222"
         style="fill:#c5c6c7;fill-opacity:1;fill-rule:nonzero;stroke:none;stroke-width:0.1"
         id="path3036" />
      <path
         d="m 2095.1,128.273 h 16.74 v 68.234 h -16.74 v -68.234"
         style="fill:#fefefe;fill-opacity:1;fill-rule:nonzero;stroke:none;stroke-width:0.1"
         id="path3038" />
      <path
         d="m 2113.31,124.555 h 16.75 v 68.222 h -16.75 v -68.222"
         style="fill:#c5c6c7;fill-opacity:1;fill-rule:nonzero;stroke:none;stroke-width:0.1"
         id="path3040" />
      <path
         d="m 2113.31,128.273 h 16.77 v 68.234 h -16.77 v -68.234"
         style="fill:#fefefe;fill-opacity:1;fill-rule:nonzero;stroke:none;stroke-width:0.1"
         id="path3042" />
      <path
         d="m 2131.54,124.555 h 16.74 v 68.222 h -16.74 v -68.222"
         style="fill:#c5c6c7;fill-opacity:1;fill-rule:nonzero;stroke:none;stroke-width:0.1"
         id="path3044" />
      <path
         d="m 2131.54,128.273 h 16.74 v 68.234 h -16.74 v -68.234"
         style="fill:#fefefe;fill-opacity:1;fill-rule:nonzero;stroke:none;stroke-width:0.1"
         id="path3046" />
      <path
         d="m 2149.68,124.555 h 16.75 v 68.222 h -16.75 v -68.222"
         style="fill:#c5c6c7;fill-opacity:1;fill-rule:nonzero;stroke:none;stroke-width:0.1"
         id="path3048" />
      <path
         d="m 2149.68,128.273 h 16.75 v 68.234 h -16.75 v -68.234"
         style="fill:#fefefe;fill-opacity:1;fill-rule:nonzero;stroke:none;stroke-width:0.1"
         id="path3050" />
      <path
         d="m 2167.9,124.555 h 16.76 v 68.222 h -16.76 v -68.222"
         style="fill:#c5c6c7;fill-opacity:1;fill-rule:nonzero;stroke:none;stroke-width:0.1"
         id="path3052" />
      <path
         d="m 2167.89,128.273 h 16.77 v 68.234 h -16.77 v -68.234"
         style="fill:#fefefe;fill-opacity:1;fill-rule:nonzero;stroke:none;stroke-width:0.1"
         id="path3054" />
      <path
         d="m 2186.59,124.555 h 16.75 v 68.222 h -16.75 v -68.222"
         style="fill:#c5c6c7;fill-opacity:1;fill-rule:nonzero;stroke:none;stroke-width:0.1"
         id="path3056" />
      <path
         d="m 2186.59,128.273 h 16.75 v 68.234 h -16.75 v -68.234"
         style="fill:#fefefe;fill-opacity:1;fill-rule:nonzero;stroke:none;stroke-width:0.1"
         id="path3058" />
      <path
         d="m 2204.8,124.555 h 16.76 v 68.222 h -16.76 v -68.222"
         style="fill:#c5c6c7;fill-opacity:1;fill-rule:nonzero;stroke:none;stroke-width:0.1"
         id="path3060" />
      <path
         d="m 2204.8,128.273 h 16.76 v 68.234 h -16.76 v -68.234"
         style="fill:#fefefe;fill-opacity:1;fill-rule:nonzero;stroke:none;stroke-width:0.1"
         id="path3062" />
      <path
         d="m 2222.87,124.555 h 16.77 v 68.222 h -16.77 v -68.222"
         style="fill:#c5c6c7;fill-opacity:1;fill-rule:nonzero;stroke:none;stroke-width:0.1"
         id="path3064" />
      <path
         d="m 2222.89,128.273 h 16.75 v 68.234 h -16.75 v -68.234"
         style="fill:#fefefe;fill-opacity:1;fill-rule:nonzero;stroke:none;stroke-width:0.1"
         id="path3066" />
      <path
         d="m 2241.11,124.555 h 16.74 v 68.222 h -16.74 v -68.222"
         style="fill:#c5c6c7;fill-opacity:1;fill-rule:nonzero;stroke:none;stroke-width:0.1"
         id="path3068" />
      <path
         d="m 2241.11,128.273 h 16.74 v 68.234 h -16.74 v -68.234"
         style="fill:#fefefe;fill-opacity:1;fill-rule:nonzero;stroke:none;stroke-width:0.1"
         id="path3070" />
      <path
         d="m 2258.93,124.555 h 16.75 v 68.222 h -16.75 v -68.222"
         style="fill:#c5c6c7;fill-opacity:1;fill-rule:nonzero;stroke:none;stroke-width:0.1"
         id="path3072" />
      <path
         d="m 2258.93,128.273 h 16.75 v 68.234 h -16.75 v -68.234"
         style="fill:#fefefe;fill-opacity:1;fill-rule:nonzero;stroke:none;stroke-width:0.1"
         id="path3074" />
      <path
         d="m 2277.16,124.555 h 16.75 v 68.222 h -16.75 v -68.222"
         style="fill:#c5c6c7;fill-opacity:1;fill-rule:nonzero;stroke:none;stroke-width:0.1"
         id="path3076" />
      <path
         d="m 2277.16,128.273 h 16.75 v 68.234 h -16.75 v -68.234"
         style="fill:#fefefe;fill-opacity:1;fill-rule:nonzero;stroke:none;stroke-width:0.1"
         id="path3078" />
      <path
         d="m 2057.53,128.273 h -16.75 v 48.258 c 2.07,-4.776 5.91,-9.995 12.71,-15.073 v -3.566 h 0.01 v -3.013 h 4.03 v -26.606"
         style="fill:#dcdddd;fill-opacity:1;fill-rule:nonzero;stroke:none;stroke-width:0.1"
         id="path3080" />
      <path
         d="m 2075.35,128.273 h -16.73 v 26.606 h 2.93 v 1.411 c 3.92,-2.154 8.5,-4.258 13.8,-6.275 v -21.742"
         style="fill:#dcdddd;fill-opacity:1;fill-rule:nonzero;stroke:none;stroke-width:0.1"
         id="path3082" />
      <path
         d="m 2093.82,128.273 h -16.75 v 21.125 c 4.94,-1.817 10.5,-3.503 16.75,-5.105 v -16.02"
         style="fill:#dcdddd;fill-opacity:1;fill-rule:nonzero;stroke:none;stroke-width:0.1"
         id="path3084" />
      <path
         d="m 2111.84,128.273 h -16.74 v 15.718 c 5.12,-1.262 10.69,-2.446 16.74,-3.53 v -12.188"
         style="fill:#dcdddd;fill-opacity:1;fill-rule:nonzero;stroke:none;stroke-width:0.1"
         id="path3086" />
      <path
         d="m 2130.08,128.273 h -16.77 v 11.935 c 5.22,-0.893 10.81,-1.739 16.77,-2.494 v -9.441"
         style="fill:#dcdddd;fill-opacity:1;fill-rule:nonzero;stroke:none;stroke-width:0.1"
         id="path3088" />
      <path
         d="m 2148.28,128.273 h -16.74 v 9.252 c 5.28,-0.643 10.85,-1.211 16.74,-1.715 v -7.537"
         style="fill:#dcdddd;fill-opacity:1;fill-rule:nonzero;stroke:none;stroke-width:0.1"
         id="path3090" />
      <path
         d="m 2166.42,128.273 h -16.74 v 7.4 c 5.34,-0.454 10.91,-0.821 16.74,-1.161 v -6.239"
         style="fill:#dcdddd;fill-opacity:1;fill-rule:nonzero;stroke:none;stroke-width:0.1"
         id="path3092" />
      <path
         d="m 2184.66,128.273 h -16.77 v 6.164 c 5.36,-0.265 10.96,-0.516 16.77,-0.68 v -5.484"
         style="fill:#dcdddd;fill-opacity:1;fill-rule:nonzero;stroke:none;stroke-width:0.1"
         id="path3094" />
      <path
         d="m 2203.34,128.273 h -16.75 v 5.433 c 5.41,-0.164 10.98,-0.265 16.75,-0.289 v -5.144"
         style="fill:#dcdddd;fill-opacity:1;fill-rule:nonzero;stroke:none;stroke-width:0.1"
         id="path3096" />
      <path
         d="m 2221.56,128.273 h -16.76 v 5.132 c 2.26,-0.027 4.55,-0.039 6.87,-0.039 3.24,0 6.53,0.024 9.89,0.063 v -5.156"
         style="fill:#dcdddd;fill-opacity:1;fill-rule:nonzero;stroke:none;stroke-width:0.1"
         id="path3098" />
      <path
         d="m 2239.64,128.273 h -16.75 v 5.156 c 5.42,0.062 11,0.164 16.75,0.328 v -5.484"
         style="fill:#dcdddd;fill-opacity:1;fill-rule:nonzero;stroke:none;stroke-width:0.1"
         id="path3100" />
      <path
         d="m 2257.85,128.273 h -16.74 v 5.508 c 5.43,0.164 11.02,0.34 16.74,0.567 v -6.075"
         style="fill:#dcdddd;fill-opacity:1;fill-rule:nonzero;stroke:none;stroke-width:0.1"
         id="path3102" />
      <path
         d="m 2275.68,128.273 h -16.75 v 6.126 c 5.46,0.214 11.03,0.48 16.75,0.769 v -6.895"
         style="fill:#dcdddd;fill-opacity:1;fill-rule:nonzero;stroke:none;stroke-width:0.1"
         id="path3104" />
      <path
         d="m 2293.91,128.273 h -16.75 v 6.958 c 5.45,0.328 11.04,0.618 16.75,0.996 v -7.954"
         style="fill:#dcdddd;fill-opacity:1;fill-rule:nonzero;stroke:none;stroke-width:0.1"
         id="path3106" />
      <path
         d="m 2053.5,154.879 h 8.05 v 40.873 h -8.05 v -40.873"
         style="fill:#595351;fill-opacity:1;fill-rule:nonzero;stroke:none;stroke-width:0.1"
         id="path3108" />
      <path
         d="m 2053.49,157.892 h 8.06 v 40.872 h -8.06 v -40.872"
         style="fill:#393434;fill-opacity:1;fill-rule:nonzero;stroke:none;stroke-width:0.1"
         id="path3110" />
      <path
         d="m 2060.03,157.892 h 0.49 v 40.872 h -0.49 v -40.872"
         style="fill:#eeeeef;fill-opacity:1;fill-rule:nonzero;stroke:none;stroke-width:0.1"
         id="path3112" />
      <path
         d="m 2061.55,157.892 h -8.05 8.05"
         style="fill:#343434;fill-opacity:1;fill-rule:nonzero;stroke:none;stroke-width:0.1"
         id="path3114" />
      <path
         d="m 2061.55,157.892 h -1.03 v 4.449 c 0.33,-0.681 0.67,-1.337 1.03,-1.942 z m -1.52,0 h -6.54 v 40.872 c 0,0 0.98,-22.749 6.54,-35.364 v -5.508"
         style="fill:#282526;fill-opacity:1;fill-rule:nonzero;stroke:none;stroke-width:0.1"
         id="path3116" />
      <path
         d="m 2060.52,157.892 h -0.49 v 5.508 c 0.15,-0.367 0.31,-0.719 0.49,-1.059 v -4.449"
         style="fill:#787a7d;fill-opacity:1;fill-rule:nonzero;stroke:none;stroke-width:0.1"
         id="path3118" />
      <path
         d="m 2071.33,154.879 h 8.06 v 40.873 h -8.06 v -40.873"
         style="fill:#595351;fill-opacity:1;fill-rule:nonzero;stroke:none;stroke-width:0.1"
         id="path3120" />
      <path
         d="m 2071.33,157.892 h 8.06 v 40.872 h -8.06 v -40.872"
         style="fill:#393434;fill-opacity:1;fill-rule:nonzero;stroke:none;stroke-width:0.1"
         id="path3122" />
      <path
         d="m 2077.86,157.892 h 0.49 v 40.872 h -0.49 v -40.872"
         style="fill:#eeeeef;fill-opacity:1;fill-rule:nonzero;stroke:none;stroke-width:0.1"
         id="path3124" />
      <path
         d="m 2079.39,157.892 h -8.06 8.06"
         style="fill:#343434;fill-opacity:1;fill-rule:nonzero;stroke:none;stroke-width:0.1"
         id="path3126" />
      <path
         d="m 2079.39,157.892 h -1.04 v 4.461 c 0.33,-0.693 0.67,-1.349 1.04,-1.954 z m -1.53,0 h -6.53 v 40.872 c 0,0 0.99,-22.749 6.53,-35.364 v -5.508"
         style="fill:#282526;fill-opacity:1;fill-rule:nonzero;stroke:none;stroke-width:0.1"
         id="path3128" />
      <path
         d="m 2078.35,157.892 h -0.49 v 5.508 c 0.17,-0.355 0.32,-0.707 0.49,-1.047 v -4.461"
         style="fill:#787a7d;fill-opacity:1;fill-rule:nonzero;stroke:none;stroke-width:0.1"
         id="path3130" />
      <path
         d="m 2107.82,154.879 h 8.05 v 40.873 h -8.05 v -40.873"
         style="fill:#595351;fill-opacity:1;fill-rule:nonzero;stroke:none;stroke-width:0.1"
         id="path3132" />
      <path
         d="m 2107.81,157.892 h 8.06 v 40.872 h -8.06 v -40.872"
         style="fill:#393434;fill-opacity:1;fill-rule:nonzero;stroke:none;stroke-width:0.1"
         id="path3134" />
      <path
         d="m 2114.34,157.892 h 0.49 v 40.872 h -0.49 v -40.872"
         style="fill:#eeeeef;fill-opacity:1;fill-rule:nonzero;stroke:none;stroke-width:0.1"
         id="path3136" />
      <path
         d="m 2115.87,157.892 h -8.05 8.05"
         style="fill:#343434;fill-opacity:1;fill-rule:nonzero;stroke:none;stroke-width:0.1"
         id="path3138" />
      <path
         d="m 2115.87,157.892 h -1.04 v 4.461 c 0.34,-0.693 0.68,-1.349 1.04,-1.954 z m -1.53,0 h -6.53 v 40.872 c 0,0 0.98,-22.725 6.53,-35.352 v -5.52"
         style="fill:#282526;fill-opacity:1;fill-rule:nonzero;stroke:none;stroke-width:0.1"
         id="path3140" />
      <path
         d="m 2114.83,157.892 h -0.49 v 5.52 c 0.16,-0.367 0.32,-0.719 0.49,-1.059 v -4.461"
         style="fill:#787a7d;fill-opacity:1;fill-rule:nonzero;stroke:none;stroke-width:0.1"
         id="path3142" />
      <path
         d="m 2127.52,154.879 h 8.05 v 40.873 h -8.05 v -40.873"
         style="fill:#595351;fill-opacity:1;fill-rule:nonzero;stroke:none;stroke-width:0.1"
         id="path3144" />
      <path
         d="m 2127.52,157.892 h 8.05 v 40.872 h -8.05 v -40.872"
         style="fill:#393434;fill-opacity:1;fill-rule:nonzero;stroke:none;stroke-width:0.1"
         id="path3146" />
      <path
         d="m 2134.03,157.892 h 0.5 v 40.872 h -0.5 v -40.872"
         style="fill:#eeeeef;fill-opacity:1;fill-rule:nonzero;stroke:none;stroke-width:0.1"
         id="path3148" />
      <path
         d="m 2135.57,157.892 h -8.05 8.05"
         style="fill:#343434;fill-opacity:1;fill-rule:nonzero;stroke:none;stroke-width:0.1"
         id="path3150" />
      <path
         d="m 2135.57,157.892 h -1.04 v 4.461 c 0.34,-0.693 0.68,-1.349 1.04,-1.954 z m -1.54,0 h -6.51 v 40.872 c 0,0 0.98,-22.736 6.51,-35.352 v -5.52"
         style="fill:#282526;fill-opacity:1;fill-rule:nonzero;stroke:none;stroke-width:0.1"
         id="path3152" />
      <path
         d="m 2134.53,157.892 h -0.5 v 5.52 c 0.17,-0.367 0.33,-0.719 0.5,-1.059 v -4.461"
         style="fill:#787a7d;fill-opacity:1;fill-rule:nonzero;stroke:none;stroke-width:0.1"
         id="path3154" />
      <path
         d="m 2145.67,154.879 h 8.05 v 40.873 h -8.05 v -40.873"
         style="fill:#595351;fill-opacity:1;fill-rule:nonzero;stroke:none;stroke-width:0.1"
         id="path3156" />
      <path
         d="m 2145.65,157.892 h 8.07 v 40.872 h -8.07 v -40.872"
         style="fill:#393434;fill-opacity:1;fill-rule:nonzero;stroke:none;stroke-width:0.1"
         id="path3158" />
      <path
         d="m 2152.2,157.892 h 0.47 v 40.872 h -0.47 v -40.872"
         style="fill:#eeeeef;fill-opacity:1;fill-rule:nonzero;stroke:none;stroke-width:0.1"
         id="path3160" />
      <path
         d="m 2153.72,157.892 h -8.05 8.05"
         style="fill:#343434;fill-opacity:1;fill-rule:nonzero;stroke:none;stroke-width:0.1"
         id="path3162" />
      <path
         d="m 2153.72,157.892 h -1.04 v 4.461 c 0.32,-0.693 0.68,-1.349 1.04,-1.954 z m -1.52,0 h -6.55 v 40.872 c 0,0 0.99,-22.749 6.55,-35.364 v -5.508"
         style="fill:#282526;fill-opacity:1;fill-rule:nonzero;stroke:none;stroke-width:0.1"
         id="path3164" />
      <path
         d="m 2152.68,157.892 h -0.48 v 5.508 c 0.15,-0.367 0.31,-0.707 0.48,-1.047 v -4.461"
         style="fill:#787a7d;fill-opacity:1;fill-rule:nonzero;stroke:none;stroke-width:0.1"
         id="path3166" />
      <path
         d="m 2180.63,154.879 h 8.06 v 40.873 h -8.06 v -40.873"
         style="fill:#595351;fill-opacity:1;fill-rule:nonzero;stroke:none;stroke-width:0.1"
         id="path3168" />
      <path
         d="m 2180.63,157.892 h 8.06 v 40.872 h -8.06 v -40.872"
         style="fill:#393434;fill-opacity:1;fill-rule:nonzero;stroke:none;stroke-width:0.1"
         id="path3170" />
      <path
         d="m 2187.16,157.892 h 0.48 v 40.872 h -0.48 v -40.872"
         style="fill:#eeeeef;fill-opacity:1;fill-rule:nonzero;stroke:none;stroke-width:0.1"
         id="path3172" />
      <path
         d="m 2188.69,157.892 h -8.06 8.06"
         style="fill:#343434;fill-opacity:1;fill-rule:nonzero;stroke:none;stroke-width:0.1"
         id="path3174" />
      <path
         d="m 2188.69,157.892 h -1.05 v 4.473 c 0.34,-0.693 0.69,-1.348 1.05,-1.966 z m -1.53,0 h -6.53 v 40.872 c 0,0 0.97,-22.736 6.53,-35.364 v -5.508"
         style="fill:#282526;fill-opacity:1;fill-rule:nonzero;stroke:none;stroke-width:0.1"
         id="path3176" />
      <path
         d="m 2187.64,157.892 h -0.48 v 5.508 c 0.16,-0.355 0.31,-0.695 0.48,-1.035 v -4.473"
         style="fill:#787a7d;fill-opacity:1;fill-rule:nonzero;stroke:none;stroke-width:0.1"
         id="path3178" />
      <path
         d="m 2199.32,154.879 h 8.07 v 40.873 h -8.07 v -40.873"
         style="fill:#595351;fill-opacity:1;fill-rule:nonzero;stroke:none;stroke-width:0.1"
         id="path3180" />
      <path
         d="m 2199.32,157.892 h 8.07 v 40.872 h -8.07 v -40.872"
         style="fill:#393434;fill-opacity:1;fill-rule:nonzero;stroke:none;stroke-width:0.1"
         id="path3182" />
      <path
         d="m 2205.85,157.892 h 0.49 v 40.872 h -0.49 v -40.872"
         style="fill:#eeeeef;fill-opacity:1;fill-rule:nonzero;stroke:none;stroke-width:0.1"
         id="path3184" />
      <path
         d="m 2207.39,157.892 h -8.07 8.07"
         style="fill:#343434;fill-opacity:1;fill-rule:nonzero;stroke:none;stroke-width:0.1"
         id="path3186" />
      <path
         d="m 2207.39,157.892 h -1.05 v 4.473 c 0.33,-0.693 0.68,-1.348 1.05,-1.966 z m -1.54,0 h -6.53 v 40.872 c 0,0 0.98,-22.725 6.53,-35.352 v -5.52"
         style="fill:#282526;fill-opacity:1;fill-rule:nonzero;stroke:none;stroke-width:0.1"
         id="path3188" />
      <path
         d="m 2206.34,157.892 h -0.49 v 5.52 c 0.16,-0.354 0.31,-0.707 0.49,-1.047 v -4.473"
         style="fill:#787a7d;fill-opacity:1;fill-rule:nonzero;stroke:none;stroke-width:0.1"
         id="path3190" />
      <path
         d="m 2237.07,154.879 h 8.06 v 40.873 h -8.06 v -40.873"
         style="fill:#595351;fill-opacity:1;fill-rule:nonzero;stroke:none;stroke-width:0.1"
         id="path3192" />
      <path
         d="m 2237.07,157.892 h 8.06 v 40.872 h -8.06 v -40.872"
         style="fill:#393434;fill-opacity:1;fill-rule:nonzero;stroke:none;stroke-width:0.1"
         id="path3194" />
      <path
         d="m 2243.61,157.892 h 0.49 v 40.872 h -0.49 v -40.872"
         style="fill:#eeeeef;fill-opacity:1;fill-rule:nonzero;stroke:none;stroke-width:0.1"
         id="path3196" />
      <path
         d="m 2245.13,157.892 h -8.06 8.06"
         style="fill:#343434;fill-opacity:1;fill-rule:nonzero;stroke:none;stroke-width:0.1"
         id="path3198" />
      <path
         d="m 2245.13,157.892 h -1.03 v 4.449 c 0.33,-0.693 0.67,-1.337 1.03,-1.942 z m -1.52,0 h -6.54 v 40.872 c 0,0 0.99,-22.761 6.54,-35.376 v -5.496"
         style="fill:#282526;fill-opacity:1;fill-rule:nonzero;stroke:none;stroke-width:0.1"
         id="path3200" />
      <path
         d="m 2244.1,157.892 h -0.49 v 5.496 c 0.16,-0.355 0.33,-0.707 0.49,-1.047 v -4.449"
         style="fill:#787a7d;fill-opacity:1;fill-rule:nonzero;stroke:none;stroke-width:0.1"
         id="path3202" />
      <path
         d="m 2254.9,154.879 h 8.07 v 40.873 h -8.07 v -40.873"
         style="fill:#595351;fill-opacity:1;fill-rule:nonzero;stroke:none;stroke-width:0.1"
         id="path3204" />
      <path
         d="m 2254.9,157.892 h 8.07 v 40.872 h -8.07 v -40.872"
         style="fill:#393434;fill-opacity:1;fill-rule:nonzero;stroke:none;stroke-width:0.1"
         id="path3206" />
      <path
         d="m 2261.44,157.892 h 0.49 v 40.872 h -0.49 v -40.872"
         style="fill:#eeeeef;fill-opacity:1;fill-rule:nonzero;stroke:none;stroke-width:0.1"
         id="path3208" />
      <path
         d="m 2262.97,157.892 h -8.07 8.07"
         style="fill:#343434;fill-opacity:1;fill-rule:nonzero;stroke:none;stroke-width:0.1"
         id="path3210" />
      <path
         d="m 2262.97,157.892 h -1.04 v 4.437 c 0.33,-0.681 0.68,-1.325 1.04,-1.93 z m -1.53,0 h -6.54 v 40.872 c 0,0 0.99,-22.761 6.54,-35.376 v -5.496"
         style="fill:#282526;fill-opacity:1;fill-rule:nonzero;stroke:none;stroke-width:0.1"
         id="path3212" />
      <path
         d="m 2261.93,157.892 h -0.49 v 5.496 c 0.17,-0.367 0.33,-0.707 0.49,-1.059 v -4.437"
         style="fill:#787a7d;fill-opacity:1;fill-rule:nonzero;stroke:none;stroke-width:0.1"
         id="path3214" />
      <path
         d="m 2271.66,154.879 h 8.07 v 40.873 h -8.07 v -40.873"
         style="fill:#595351;fill-opacity:1;fill-rule:nonzero;stroke:none;stroke-width:0.1"
         id="path3216" />
      <path
         d="m 2271.65,157.892 h 8.08 v 40.872 h -8.08 v -40.872"
         style="fill:#393434;fill-opacity:1;fill-rule:nonzero;stroke:none;stroke-width:0.1"
         id="path3218" />
      <path
         d="m 2278.19,157.892 h 0.48 v 40.872 h -0.48 v -40.872"
         style="fill:#eeeeef;fill-opacity:1;fill-rule:nonzero;stroke:none;stroke-width:0.1"
         id="path3220" />
      <path
         d="m 2279.73,157.892 h -8.07 8.07"
         style="fill:#343434;fill-opacity:1;fill-rule:nonzero;stroke:none;stroke-width:0.1"
         id="path3222" />
      <path
         d="m 2279.73,157.892 h -1.06 v 4.473 c 0.34,-0.693 0.69,-1.348 1.06,-1.966 z m -1.54,0 h -6.54 v 40.872 c 0,0 0.99,-22.736 6.54,-35.352 v -5.52"
         style="fill:#282526;fill-opacity:1;fill-rule:nonzero;stroke:none;stroke-width:0.1"
         id="path3224" />
      <path
         d="m 2278.67,157.892 h -0.48 v 5.52 c 0.16,-0.354 0.31,-0.707 0.48,-1.047 v -4.473"
         style="fill:#787a7d;fill-opacity:1;fill-rule:nonzero;stroke:none;stroke-width:0.1"
         id="path3226" />
      <path
         d="m 2294.03,197.05 c 0,-1.059 -0.84,-1.915 -1.89,-1.915 h -249.55 c -1.05,0 -1.9,0.856 -1.9,1.915 0,1.045 0.85,1.889 1.9,1.889 h 249.55 c 1.05,0 1.89,-0.844 1.89,-1.889"
         style="fill:#9f9fa0;fill-opacity:1;fill-rule:nonzero;stroke:none;stroke-width:0.1"
         id="path3228" />
      <path
         d="m 2032.7,183.048 h 270.78 v 29.781 H 2032.7 v -29.781"
         style="fill:#000000;fill-opacity:1;fill-rule:nonzero;stroke:none;stroke-width:0.1"
         id="path3230" />
      <path
         d="m 2032.7,183.048 v 20.366 c 0,0.201 0,0.404 0,0.568 v 110.114 c 0,24.463 20.95,45.435 50.74,54.232 -0.39,-39.839 10.15,-115.774 89.24,-155.499 23.83,-11.999 53.89,-20.695 91.76,-24.124 15.51,-1.399 28.42,-3.314 39.04,-5.657 H 2032.7"
         style="fill:#303031;fill-opacity:1;fill-rule:nonzero;stroke:none;stroke-width:0.1"
         id="path3232" />
    </g>
  </g>
</svg>
