<?xml version="1.0" encoding="UTF-8" standalone="no"?>
<svg
   xmlns:dc="http://purl.org/dc/elements/1.1/"
   xmlns:cc="http://creativecommons.org/ns#"
   xmlns:rdf="http://www.w3.org/1999/02/22-rdf-syntax-ns#"
   xmlns:svg="http://www.w3.org/2000/svg"
   xmlns="http://www.w3.org/2000/svg"
   xmlns:sodipodi="http://sodipodi.sourceforge.net/DTD/sodipodi-0.dtd"
   xmlns:inkscape="http://www.inkscape.org/namespaces/inkscape"
   sodipodi:docname="violin.svg"
   inkscape:version="1.0 (4035a4f, 2020-05-01)"
   id="svg14738"
   version="1.1"
   viewBox="0 0 94.621132 96.131355"
   height="96.131355mm"
   width="94.621132mm">
  <defs
     id="defs14732" />
  <sodipodi:namedview
     inkscape:window-maximized="0"
     inkscape:window-y="25"
     inkscape:window-x="0"
     inkscape:window-height="825"
     inkscape:window-width="834"
     fit-margin-bottom="0"
     fit-margin-right="0"
     fit-margin-left="0"
     fit-margin-top="0"
     showgrid="false"
     inkscape:document-rotation="0"
     inkscape:current-layer="layer1"
     inkscape:document-units="mm"
     inkscape:cy="987.37983"
     inkscape:cx="113.09731"
     inkscape:zoom="0.35"
     inkscape:pageshadow="2"
     inkscape:pageopacity="0.0"
     borderopacity="1.0"
     bordercolor="#666666"
     pagecolor="#ffffff"
     id="base" />
  <metadata
     id="metadata14735">
    <rdf:RDF>
      <cc:Work
         rdf:about="">
        <dc:format>image/svg+xml</dc:format>
        <dc:type
           rdf:resource="http://purl.org/dc/dcmitype/StillImage" />
        <dc:title></dc:title>
      </cc:Work>
    </rdf:RDF>
  </metadata>
  <g
     transform="translate(-75.909671,113.07758)"
     id="layer1"
     inkscape:groupmode="layer"
     inkscape:label="Layer 1">
    <g
       transform="matrix(0.35277777,0,0,-0.35277777,-491.98714,182.67437)"
       id="g12839">
      <path
         d="m 1868.33,814.903 -4.61,4.637 2.24,2.248 4.63,-4.637 -2.26,-2.248"
         style="fill:#3e2617;fill-opacity:1;fill-rule:nonzero;stroke:none;stroke-width:0.1"
         id="path464" />
      <path
         d="m 1874.23,811.258 c -0.79,-0.81 -1.78,-1.316 -2.83,-1.539 -0.35,-0.04 -0.7,-0.081 -1.05,-0.081 -1.43,0 -2.84,0.547 -3.91,1.62 -1.75,1.742 3.03,7.148 6.04,8.039 0.73,0.223 1.36,0.182 1.76,-0.243 1.09,-1.053 1.62,-2.47 1.62,-3.908 0,-1.417 -0.53,-2.794 -1.63,-3.888"
         style="fill:#55341b;fill-opacity:1;fill-rule:nonzero;stroke:none;stroke-width:0.1"
         id="path466" />
      <path
         d="m 1871.4,809.719 c -0.35,-0.04 -0.7,-0.081 -1.05,-0.081 -1.43,0 -2.84,0.547 -3.91,1.62 -1.75,1.742 3.03,7.148 6.04,8.039 -1.93,-2.268 -3.67,-5.771 -1.08,-9.578"
         style="fill:#462b18;fill-opacity:1;fill-rule:nonzero;stroke:none;stroke-width:0.1"
         id="path468" />
      <path
         d="m 1859.13,804.859 -4.62,4.617 2.25,2.248 4.63,-4.617 -2.26,-2.248"
         style="fill:#3e2617;fill-opacity:1;fill-rule:nonzero;stroke:none;stroke-width:0.1"
         id="path470" />
      <path
         d="m 1865.03,801.194 c -0.81,-0.81 -1.79,-1.316 -2.82,-1.539 -0.37,-0.04 -0.71,-0.081 -1.07,-0.081 -1.43,0 -2.83,0.527 -3.9,1.62 -1.75,1.742 3.01,7.168 6.04,8.059 0.72,0.203 1.35,0.183 1.76,-0.243 1.07,-1.093 1.63,-2.511 1.6,-3.928 0.03,-1.397 -0.53,-2.814 -1.61,-3.888"
         style="fill:#55341b;fill-opacity:1;fill-rule:nonzero;stroke:none;stroke-width:0.1"
         id="path472" />
      <path
         d="m 1862.21,799.655 c -0.37,-0.04 -0.71,-0.081 -1.07,-0.081 -1.43,0 -2.83,0.527 -3.9,1.62 -1.75,1.742 3.01,7.168 6.04,8.059 -1.94,-2.288 -3.68,-5.771 -1.07,-9.598"
         style="fill:#462b18;fill-opacity:1;fill-rule:nonzero;stroke:none;stroke-width:0.1"
         id="path474" />
      <path
         d="m 1869.14,822.153 -0.09,0.1 -17.09,-19.196 -2.89,-3.24 -10.32,10.328 22.98,19.52 c -1.05,1.539 -0.81,3.725 0.7,5.224 1.67,1.681 4.24,1.802 5.73,0.283 0.12,-0.101 0.2,-0.242 0.31,-0.384 l 0.2,0.202 c 0.97,0.993 2.07,1.701 3.17,2.147 1.99,0.851 3.97,0.729 5.16,-0.466 1.83,-1.823 1.09,-5.568 -1.67,-8.323 l -0.17,-0.141 v -0.02 c 1.52,-1.499 1.38,-4.091 -0.29,-5.731 -1.66,-1.681 -4.23,-1.823 -5.73,-0.303"
         style="fill:#bd5731;fill-opacity:1;fill-rule:nonzero;stroke:none;stroke-width:0.1"
         id="path476" />
      <path
         d="m 1757.94,593.954 c -0.5,0.3 -8.81,4.708 -24.48,-7.749 -1.22,-1.078 -2.44,-2.131 -3.69,-3.11 l -0.06,-0.041 c -2.22,-1.774 -4.51,-3.411 -6.86,-4.909 -13.45,-8.636 -28.66,-12.743 -43.23,-12.252 -0.15,0 -0.26,0.015 -0.41,0.026 -15.43,0.629 -30.14,6.455 -41.35,17.667 -0.29,0.288 -0.57,0.602 -0.84,0.902 -0.3,0.285 -0.62,0.546 -0.91,0.846 -11.3,11.307 -17.14,26.191 -17.67,41.756 -0.52,14.584 3.6,29.766 12.22,43.245 1.51,2.347 3.15,4.624 4.92,6.86 l 0.03,0.042 c 1.01,1.256 2.05,2.469 3.13,3.698 12.44,15.676 8.04,23.967 7.76,24.46 3.35,-5.417 12.64,-7.955 18.48,-8.147 18.15,-0.612 27.43,12.225 36.98,24.932 1.77,2.735 3.73,8.02 -5.48,9.518 0,0 14.56,2.572 18.49,5.488 0.22,0.202 0.43,0.405 0.66,0.627 8.61,7.31 19.42,12.636 30.1,14.033 3.45,0.446 6.89,0.486 10.26,0.041 11.37,-1.499 22.12,-7.512 30.47,-16.179 0.3,-0.284 0.58,-0.608 0.87,-0.912 9.13,-8.484 15.54,-19.579 17.1,-31.337 1.79,-13.657 -4.39,-28.949 -14.12,-40.353 -1.71,-2.007 -3.6,-3.876 -5.61,-5.677 -2.52,-5.276 -4.58,-16.889 -4.58,-16.889 -1.47,8.976 -6.5,7.34 -9.3,5.623 -0.64,-0.397 -1.16,-0.794 -1.49,-1.065 l 1.64,1.43 0.92,0.793 c -0.29,-0.218 -0.58,-0.451 -0.87,-0.654 -11.36,-8.677 -21.8,-17.829 -21.26,-34.201 0.12,-3.341 0.99,-7.776 2.72,-11.609 0.43,-0.956 0.94,-1.883 1.48,-2.744 1.08,-1.702 2.4,-3.191 3.98,-4.159"
         style="fill:#a04a2b;fill-opacity:1;fill-rule:nonzero;stroke:none;stroke-width:0.1"
         id="path478" />
      <path
         d="m 1769.18,644.988 c -0.17,-0.178 -0.3,-0.273 -0.3,-0.273 l 0.3,0.273"
         style="fill:#a04a2b;fill-opacity:1;fill-rule:nonzero;stroke:none;stroke-width:0.1"
         id="path480" />
      <path
         d="m 1749.33,602.78 c -0.5,0.274 -8.81,4.681 -24.49,-7.763 -1.19,-1.089 -2.43,-2.126 -3.68,-3.123 l -0.06,-0.04 c -2.22,-1.762 -4.49,-3.414 -6.86,-4.898 -13.45,-8.635 -28.64,-12.767 -43.23,-12.249 -0.13,0 -0.27,0.012 -0.41,0.012 -15.42,0.642 -30.14,6.468 -41.34,17.666 -0.29,0.301 -0.55,0.615 -0.84,0.915 -0.3,0.286 -0.62,0.547 -0.92,0.846 -11.3,11.31 -17.12,26.177 -17.67,41.756 -0.52,14.57 3.6,29.781 12.24,43.245 1.5,2.345 3.14,4.626 4.92,6.848 l 0.03,0.041 c 1,1.256 2.04,2.482 3.12,3.698 12.43,15.661 8.04,23.968 7.75,24.473 3.36,-5.431 12.64,-7.954 18.5,-8.159 18.13,-0.617 27.41,12.245 36.97,24.941 1.76,2.754 3.73,7.999 -5.48,9.498 0,0 14.55,2.592 18.49,5.527 0.21,0.203 0.44,0.386 0.66,0.568 8.6,7.35 19.43,12.675 30.09,14.052 3.47,0.466 6.92,0.527 10.26,0.061 11.38,-1.498 22.13,-7.532 30.49,-16.199 0.29,-0.283 0.58,-0.587 0.85,-0.891 9.14,-8.464 15.54,-19.581 17.11,-31.35 1.79,-13.655 -4.4,-28.932 -14.12,-40.351 -1.71,-2.005 -3.6,-3.862 -5.61,-5.648 -2.53,-5.307 -4.58,-16.902 -4.58,-16.902 -1.47,8.963 -6.49,7.325 -9.29,5.622 -0.65,-0.397 -1.16,-0.78 -1.5,-1.066 l 1.65,1.418 0.92,0.792 c -0.29,-0.231 -0.58,-0.424 -0.87,-0.657 -11.38,-8.672 -21.8,-17.815 -21.28,-34.186 0.12,-3.342 1.02,-7.787 2.72,-11.634 0.43,-0.941 0.94,-1.842 1.48,-2.701 1.08,-1.746 2.41,-3.194 3.98,-4.162"
         style="fill:#ec6b39;fill-opacity:1;fill-rule:nonzero;stroke:none;stroke-width:0.1"
         id="path482" />
      <path
         d="m 1760.59,653.787 c -0.2,-0.164 -0.31,-0.245 -0.31,-0.245 l 0.31,0.245"
         style="fill:#ec6b39;fill-opacity:1;fill-rule:nonzero;stroke:none;stroke-width:0.1"
         id="path484" />
      <path
         d="m 1762.38,655.328 0.05,0.135 v 0 c 0.29,0.233 0.58,0.426 0.87,0.657 l -0.92,-0.792"
         style="fill:#f08a25;fill-opacity:1;fill-rule:nonzero;stroke:none;stroke-width:0.1"
         id="path486" />
      <path
         d="m 1771.52,649.354 c -0.89,5.413 -3.08,6.96 -5.29,6.96 -1.45,0 -2.89,-0.664 -4,-1.338 0.03,0.123 0.1,0.243 0.15,0.352 v 0 l 0.92,0.792 c -0.29,-0.231 -0.58,-0.424 -0.87,-0.657 11.35,28.019 15.07,53.685 15.61,73.765 l 7.15,7.371 c 5.63,-7.21 9.48,-15.592 10.64,-24.344 0.2,-1.6 0.3,-3.222 0.3,-4.858 -0.01,-12.324 -5.84,-25.413 -14.42,-35.493 -1.71,-2.005 -3.6,-3.862 -5.61,-5.648 -2.53,-5.307 -4.58,-16.902 -4.58,-16.902"
         style="fill:#f08a25;fill-opacity:1;fill-rule:nonzero;stroke:none;stroke-width:0.1"
         id="path488" />
      <path
         d="m 1849.69,827.458 4.63,-4.617 2.25,2.247 -4.62,4.617 -2.26,-2.247"
         style="fill:#3e2617;fill-opacity:1;fill-rule:nonzero;stroke:none;stroke-width:0.1"
         id="path490" />
      <path
         d="m 1846.04,833.35 c -0.82,-0.81 -1.31,-1.782 -1.52,-2.814 -0.07,-0.365 -0.09,-0.709 -0.09,-1.073 0,-1.438 0.52,-2.815 1.61,-3.909 1.72,-1.741 7.17,3.017 8.06,6.055 0.21,0.729 0.16,1.357 -0.25,1.762 -1.08,1.052 -2.49,1.599 -3.92,1.599 -1.4,0 -2.82,-0.547 -3.89,-1.62"
         style="fill:#55341b;fill-opacity:1;fill-rule:nonzero;stroke:none;stroke-width:0.1"
         id="path492" />
      <path
         d="m 1844.52,830.536 c -0.07,-0.365 -0.09,-0.709 -0.09,-1.073 0,-1.438 0.52,-2.815 1.61,-3.909 1.72,-1.741 7.17,3.017 8.06,6.055 -2.29,-1.944 -5.78,-3.665 -9.58,-1.073"
         style="fill:#462b18;fill-opacity:1;fill-rule:nonzero;stroke:none;stroke-width:0.1"
         id="path494" />
      <path
         d="m 1839.62,818.244 4.63,-4.596 2.25,2.227 -4.62,4.637 -2.26,-2.268"
         style="fill:#3e2617;fill-opacity:1;fill-rule:nonzero;stroke:none;stroke-width:0.1"
         id="path496" />
      <path
         d="m 1835.97,824.157 c -0.81,-0.81 -1.31,-1.782 -1.5,-2.835 -0.08,-0.344 -0.11,-0.709 -0.11,-1.073 0,-1.418 0.54,-2.835 1.59,-3.908 1.77,-1.721 7.18,3.037 8.08,6.074 0.21,0.729 0.17,1.337 -0.25,1.762 -1.08,1.053 -2.48,1.6 -3.92,1.6 -1.4,0 -2.81,-0.547 -3.89,-1.62"
         style="fill:#55341b;fill-opacity:1;fill-rule:nonzero;stroke:none;stroke-width:0.1"
         id="path498" />
      <path
         d="m 1834.47,821.322 c -0.08,-0.344 -0.11,-0.709 -0.11,-1.073 0,-1.418 0.54,-2.835 1.59,-3.908 1.77,-1.721 7.18,3.037 8.08,6.074 -2.26,-1.943 -5.76,-3.705 -9.56,-1.093"
         style="fill:#462b18;fill-opacity:1;fill-rule:nonzero;stroke:none;stroke-width:0.1"
         id="path500" />
      <path
         d="m 1868.47,822.801 -0.06,0.101 -17.1,-19.197 -2.89,-3.219 -10.33,10.326 22.98,19.521 c -1.04,1.519 -0.8,3.726 0.68,5.224 1.68,1.661 4.25,1.802 5.76,0.284 0.1,-0.121 0.19,-0.243 0.31,-0.385 l 0.19,0.223 c 0.98,0.951 2.08,1.68 3.16,2.126 1.99,0.831 3.98,0.729 5.18,-0.466 1.84,-1.843 1.08,-5.589 -1.68,-8.343 l -0.17,-0.141 c 1.52,-1.498 1.37,-4.091 -0.28,-5.751 -1.68,-1.681 -4.25,-1.802 -5.75,-0.303"
         style="fill:#ec6b39;fill-opacity:1;fill-rule:nonzero;stroke:none;stroke-width:0.1"
         id="path502" />
      <path
         d="m 1851.31,803.705 c 0,0 0.01,0 0.01,0.02 l 17.09,19.177 0.04,-0.061 -0.04,0.04 -17.1,-19.176"
         style="fill:#bc482b;fill-opacity:1;fill-rule:nonzero;stroke:none;stroke-width:0.1"
         id="path504" />
      <path
         d="m 1851.32,803.725 c 0.34,1.559 0.82,3.179 1.4,4.779 l 5.95,7.776 3.85,4.434 -2.33,2.329 c 3.4,5.285 7.03,9.983 9.69,13.223 0.47,0.547 0.9,1.073 1.29,1.539 0.86,0.364 1.7,0.547 2.49,0.547 v 0 c -0.79,0 -1.63,-0.183 -2.49,-0.547 -0.39,-0.466 -0.82,-0.992 -1.29,-1.539 1.48,-3.827 2.55,-8.991 0.99,-14.498 v 0 c -0.9,0.06 -1.73,0.385 -2.38,1.033 l -0.04,0.04 -0.04,0.061 z m 1.94,6.217 c 0.02,0.081 0.06,0.162 0.09,0.222 l 0.73,0.852 -0.82,-1.074"
         style="fill:#ea5832;fill-opacity:1;fill-rule:nonzero;stroke:none;stroke-width:0.1"
         id="path506" />
      <path
         d="m 1734.91,684.795 -13.22,13.219 117.19,112.009 8.93,-8.91 -112.9,-116.318"
         style="fill:#55341b;fill-opacity:1;fill-rule:nonzero;stroke:none;stroke-width:0.1"
         id="path508" />
      <path
         d="m 1642.72,601.741 c -0.37,-0.285 -0.74,-0.637 -1.09,-0.993 -3.29,-3.26 -5.83,-7.734 -7.09,-12.004 0.03,-0.287 -0.04,-0.547 -0.22,-0.778 l -0.02,-0.069 -0.03,0.015 c -0.37,-0.383 -1,-0.383 -1.39,0 l -10.13,10.149 c -0.4,0.369 -0.4,0.994 0,1.391 l 0.03,0.014 0.02,0.012 c 0.22,0.205 0.51,0.275 0.78,0.233 4.29,1.255 8.76,3.752 12.05,7.039 4.72,4.734 5.18,11.418 7.75,17.175 1.29,2.92 5.49,7.409 9.65,11.392 4.87,4.692 9.72,8.687 9.72,8.687 l 16.38,-16.395 c 0,0 -13.82,-16.303 -20.2,-19.1 -5.39,-2.345 -11.56,-2.918 -16.21,-6.768"
         style="fill:#55341b;fill-opacity:1;fill-rule:nonzero;stroke:none;stroke-width:0.1"
         id="path510" />
      <path
         d="m 1659.68,633.202 c -0.65,-0.64 -1.7,-0.64 -2.34,0 -0.65,0.655 -0.65,1.69 0,2.344 0.64,0.63 1.69,0.63 2.33,0 0.66,-0.654 0.66,-1.689 0.01,-2.344"
         style="fill:#fefefe;fill-opacity:1;fill-rule:nonzero;stroke:none;stroke-width:0.1"
         id="path512" />
      <path
         d="m 1663.35,629.546 c -0.66,-0.668 -1.69,-0.654 -2.35,0 -0.63,0.64 -0.63,1.693 0,2.319 0.66,0.656 1.69,0.656 2.35,0 0.64,-0.626 0.64,-1.679 0,-2.319"
         style="fill:#fefefe;fill-opacity:1;fill-rule:nonzero;stroke:none;stroke-width:0.1"
         id="path514" />
      <path
         d="m 1667.07,625.806 c -0.64,-0.654 -1.69,-0.654 -2.33,0 -0.66,0.628 -0.66,1.693 0,2.335 0.64,0.654 1.69,0.654 2.33,0 0.65,-0.642 0.65,-1.707 0,-2.335"
         style="fill:#fefefe;fill-opacity:1;fill-rule:nonzero;stroke:none;stroke-width:0.1"
         id="path516" />
      <path
         d="m 1671.47,621.4 c -0.65,-0.64 -1.69,-0.64 -2.34,0 -0.65,0.654 -0.65,1.693 0,2.347 0.65,0.641 1.69,0.641 2.34,0 0.64,-0.654 0.64,-1.693 0,-2.347"
         style="fill:#fefefe;fill-opacity:1;fill-rule:nonzero;stroke:none;stroke-width:0.1"
         id="path518" />
      <path
         d="m 1633.58,587.626 c -0.25,0 -0.5,0.095 -0.7,0.286 l -10.13,10.149 c -0.2,0.184 -0.3,0.433 -0.3,0.684 0,0.253 0.1,0.508 0.3,0.707 l 0.03,0.014 v 0.004 c 1.45,-1.849 3.03,-3.627 4.72,-5.324 0.3,-0.299 0.62,-0.56 0.92,-0.846 0.29,-0.3 0.55,-0.614 0.84,-0.915 1.6,-1.602 3.28,-3.094 5.03,-4.479 l -0.01,0.002 -0.01,0.004 c -0.11,-0.112 -0.24,-0.191 -0.38,-0.237 -0.09,-0.033 -0.2,-0.049 -0.31,-0.049"
         style="fill:#432316;fill-opacity:1;fill-rule:nonzero;stroke:none;stroke-width:0.1"
         id="path520" />
      <path
         d="m 1846.54,802.348 -6.55,6.582 18.36,15.956 4.17,-4.172 -15.98,-18.366"
         style="fill:#3e2617;fill-opacity:1;fill-rule:nonzero;stroke:none;stroke-width:0.1"
         id="path522" />
      <path
         d="m 1724.15,620.487 c 0.06,0.587 0.01,1.187 -0.14,1.733 0.31,1.049 0.07,2.183 -0.75,2.987 -1.19,1.187 -3.09,1.187 -4.28,0 -1.18,-1.172 -1.18,-3.082 0,-4.269 0.21,-0.218 0.46,-0.382 0.71,-0.504 -0.19,-0.3 -0.52,-0.601 -0.99,-0.861 -0.92,-0.505 -2.11,-0.232 -2.72,-0.028 -1.5,0.478 -2.96,1.624 -3.48,2.703 -0.57,1.199 -0.75,2.564 -0.6,3.902 h 0.07 c 0.71,5.468 5.92,8.414 11.45,11.526 4.55,2.538 9.25,5.17 11.81,9.495 1.98,3.301 2.15,7.557 0.48,11.077 -1.03,2.128 -3.38,4.052 -6,4.912 -2.18,0.723 -4.34,0.6 -6.05,-0.328 -1.95,-1.053 -3.23,-2.8 -3.44,-4.651 -0.03,-0.397 -0.01,-0.78 0.04,-1.174 -0.3,-1.037 -0.05,-2.169 0.74,-2.973 1.19,-1.189 3.11,-1.189 4.29,0 1.18,1.185 1.18,3.096 0,4.283 l -0.32,0.259 c 0.19,0.178 0.4,0.354 0.72,0.53 0.92,0.478 2.09,0.221 2.7,0.014 1.5,-0.463 2.97,-1.609 3.49,-2.713 1.06,-2.209 0.94,-4.981 -0.32,-7.081 -1.96,-3.341 -5.97,-5.579 -10.21,-7.952 -4.54,-2.554 -9.52,-5.348 -12.04,-9.959 h -0.02 c -2.01,-3.369 -2.23,-7.585 -0.61,-10.981 0.37,-0.806 0.95,-1.569 1.64,-2.264 1.16,-1.16 2.7,-2.13 4.35,-2.665 2.18,-0.705 4.33,-0.597 6.05,0.331 1.94,1.05 3.23,2.784 3.43,4.651"
         style="fill:#55341b;fill-opacity:1;fill-rule:nonzero;stroke:none;stroke-width:0.1"
         id="path524" />
      <path
         d="m 1656.28,688.341 c 0.61,0.07 1.17,0.015 1.75,-0.136 1.02,0.301 2.18,0.069 2.98,-0.737 1.19,-1.187 1.19,-3.097 0,-4.295 -1.17,-1.175 -3.09,-1.175 -4.28,0 -0.21,0.229 -0.37,0.461 -0.5,0.706 -0.29,-0.188 -0.6,-0.502 -0.86,-0.98 -0.5,-0.929 -0.24,-2.101 -0.03,-2.728 0.48,-1.487 1.62,-2.934 2.71,-3.466 1.19,-0.559 2.57,-0.763 3.89,-0.601 v 0.056 c 5.51,0.709 8.43,5.921 11.53,11.458 2.55,4.555 5.18,9.25 9.49,11.815 3.33,1.95 7.57,2.142 11.09,0.478 2.14,-1.037 4.06,-3.384 4.92,-6.004 0.71,-2.195 0.59,-4.337 -0.33,-6.044 -1.07,-1.936 -2.8,-3.233 -4.66,-3.45 -0.4,-0.027 -0.79,-0.013 -1.18,0.027 -1.02,-0.285 -2.16,-0.04 -2.97,0.765 -1.18,1.185 -1.18,3.097 0,4.269 1.2,1.187 3.11,1.187 4.29,0 l 0.26,-0.301 c 0.19,0.192 0.37,0.397 0.52,0.696 0.5,0.93 0.23,2.114 0.03,2.728 -0.47,1.484 -1.64,2.962 -2.71,3.478 -2.22,1.052 -5,0.943 -7.08,-0.285 -3.35,-1.992 -5.59,-5.988 -7.97,-10.244 -2.54,-4.53 -5.36,-9.509 -9.95,-12.034 l 0.02,-0.012 c -3.4,-2.019 -7.6,-2.252 -11.01,-0.642 -0.79,0.397 -1.56,0.955 -2.25,1.652 -1.18,1.172 -2.14,2.727 -2.68,4.352 -0.71,2.195 -0.59,4.337 0.35,6.054 1.05,1.938 2.78,3.22 4.63,3.425"
         style="fill:#55341b;fill-opacity:1;fill-rule:nonzero;stroke:none;stroke-width:0.1"
         id="path526" />
      <path
         d="m 1702.94,644.741 -22.19,22.197 2.08,2.074 22.19,-22.183 -2.08,-2.088"
         style="fill:#fefefe;fill-opacity:1;fill-rule:nonzero;stroke:none;stroke-width:0.1"
         id="path528" />
      <path
         d="m 1847.81,801.093 -8.91,8.909 0.7,0.709 8.92,-8.93 -0.71,-0.688"
         style="fill:#fefefe;fill-opacity:1;fill-rule:nonzero;stroke:none;stroke-width:0.1"
         id="path530" />
      <path
         d="m 1841.3,808.99 18.01,14.519 0.02,0.304 -0.3,0.041 -18.01,-14.52 -0.04,-0.303 0.32,-0.041"
         style="fill:#fefefe;fill-opacity:1;fill-rule:nonzero;stroke:none;stroke-width:0.1"
         id="path532" />
      <path
         d="m 1843.52,806.783 16.43,16.098 v 0.304 l -0.3,0.02 -16.44,-16.098 -0.01,-0.324 h 0.32"
         style="fill:#fefefe;fill-opacity:1;fill-rule:nonzero;stroke:none;stroke-width:0.1"
         id="path534" />
      <path
         d="m 1845.48,804.13 15.58,17.678 -0.02,0.324 -0.31,-0.02 -15.57,-17.678 0.02,-0.304 h 0.3"
         style="fill:#fefefe;fill-opacity:1;fill-rule:nonzero;stroke:none;stroke-width:0.1"
         id="path536" />
      <path
         d="m 1861.75,821.038 -14.4,-18.811 0.04,-0.304 0.31,0.041 14.41,18.811 -0.04,0.304 -0.32,-0.041"
         style="fill:#fefefe;fill-opacity:1;fill-rule:nonzero;stroke:none;stroke-width:0.1"
         id="path538" />
      <path
         d="m 1670.6,574.719 c -6.99,0.279 -13.83,1.644 -20.26,4.082 6.43,-2.436 13.28,-3.79 20.26,-4.082 z m -20.28,4.086 c -0.03,0.011 -0.06,0.022 -0.09,0.034 0.03,-0.012 0.06,-0.023 0.09,-0.034"
         style="fill:#9f4125;fill-opacity:1;fill-rule:nonzero;stroke:none;stroke-width:0.1"
         id="path540" />
      <path
         d="m 1670.6,574.719 c -6.98,0.292 -13.83,1.646 -20.26,4.082 -0.01,0 -0.01,0.003 -0.02,0.004 -0.03,0.011 -0.06,0.022 -0.09,0.034 -3.24,1.236 -6.38,2.744 -9.38,4.529 2.23,-0.314 4.48,-0.519 6.75,-0.614 v 0 c -0.93,6.941 -1.15,14.144 -0.77,21.513 3.86,1.77 8.18,2.539 12.1,4.242 3.59,1.577 9.56,7.45 14.08,12.271 -3.2,-15.918 -4.34,-31.561 -2.41,-46.061 z m 4.81,56.617 -12.66,12.668 c 0,0 -4.85,-3.995 -9.72,-8.687 -0.69,-0.666 -1.39,-1.347 -2.07,-2.033 2.88,12.904 7.03,25.94 11.93,38.656 1.51,0.233 2.99,0.756 4.35,1.56 l -0.02,0.012 c 4.59,2.525 7.41,7.504 9.95,12.034 2.38,4.256 4.62,8.252 7.97,10.244 1.13,0.667 2.47,1.005 3.81,1.005 1.12,0 2.25,-0.24 3.27,-0.72 1.07,-0.516 2.24,-1.994 2.71,-3.478 0.2,-0.614 0.47,-1.798 -0.03,-2.728 -0.15,-0.299 -0.33,-0.504 -0.52,-0.696 l -0.26,0.301 c -0.59,0.593 -1.37,0.891 -2.14,0.891 -0.77,0 -1.55,-0.298 -2.15,-0.891 -1.18,-1.172 -1.18,-3.084 0,-4.269 0.6,-0.591 1.37,-0.88 2.14,-0.88 0.28,0 0.56,0.039 0.83,0.115 0.25,-0.026 0.51,-0.042 0.77,-0.042 0.13,0 0.27,0.006 0.41,0.015 0.18,0.021 0.37,0.054 0.55,0.096 -2.83,-6.245 -5.54,-12.642 -8.07,-19.124 l -3.63,3.627 -2.08,-2.074 4.56,-4.554 c -3.89,-10.231 -7.28,-20.66 -9.9,-31.048"
         style="fill:#ea5d31;fill-opacity:1;fill-rule:nonzero;stroke:none;stroke-width:0.1"
         id="path542" />
      <path
         d="m 1646.83,604.267 c 0.43,8.649 1.69,17.522 3.57,26.476 0.86,1.62 1.75,3.145 2.63,4.574 -0.69,-0.666 -1.39,-1.347 -2.07,-2.033 v 0 c 0.68,0.686 1.38,1.367 2.07,2.033 4.87,4.692 9.72,8.687 9.72,8.687 l 12.66,-12.668 c -0.9,-3.527 -1.7,-7.045 -2.4,-10.556 -4.52,-4.821 -10.49,-10.694 -14.08,-12.271 -3.92,-1.703 -8.24,-2.472 -12.1,-4.242 z m 23.47,19.962 c -0.42,0 -0.85,-0.16 -1.17,-0.482 -0.65,-0.654 -0.65,-1.693 0,-2.347 0.32,-0.318 0.75,-0.48 1.17,-0.48 0.42,0 0.85,0.162 1.17,0.48 0.64,0.654 0.64,1.693 0,2.347 -0.32,0.322 -0.75,0.482 -1.17,0.482 z m -4.4,4.402 c -0.42,0 -0.84,-0.162 -1.16,-0.49 -0.66,-0.642 -0.66,-1.707 0,-2.335 0.32,-0.326 0.74,-0.49 1.16,-0.49 0.43,0 0.85,0.164 1.17,0.49 0.65,0.628 0.65,1.693 0,2.335 -0.32,0.328 -0.74,0.49 -1.17,0.49 z m -3.72,3.726 c -0.43,0 -0.85,-0.164 -1.18,-0.492 -0.63,-0.626 -0.63,-1.679 0,-2.319 0.33,-0.33 0.76,-0.496 1.18,-0.496 0.42,0 0.84,0.164 1.17,0.496 0.64,0.64 0.64,1.693 0,2.319 -0.33,0.328 -0.75,0.492 -1.17,0.492 z m -3.67,3.661 c -0.43,0 -0.85,-0.156 -1.17,-0.472 -0.65,-0.654 -0.65,-1.689 0,-2.344 0.32,-0.321 0.74,-0.481 1.17,-0.481 0.42,0 0.85,0.16 1.17,0.481 0.65,0.655 0.65,1.69 -0.01,2.344 -0.32,0.316 -0.74,0.472 -1.16,0.472"
         style="fill:#542e19;fill-opacity:1;fill-rule:nonzero;stroke:none;stroke-width:0.1"
         id="path544" />
      <path
         d="m 1694.8,734.614 c 0.1,0.77 0.02,1.58 -0.33,2.329 0,0 0,0 0,0 0.36,-0.749 0.43,-1.539 0.33,-2.329"
         style="fill:#fbd7a5;fill-opacity:1;fill-rule:nonzero;stroke:none;stroke-width:0.1"
         id="path546" />
      <path
         d="m 1664.91,677.068 c 6.25,15.543 13.51,30.507 20.76,44.061 -4.68,-5.511 -9.83,-10.272 -16.36,-12.906 v 0 c 6.53,2.634 11.68,7.395 16.36,12.906 2.65,3.118 5.16,6.479 7.69,9.86 0.63,0.972 1.29,2.268 1.44,3.625 0.1,0.79 0.03,1.58 -0.33,2.329 1.13,1.964 2.25,3.888 3.35,5.771 v 0 c 3.48,0.911 6.93,2.065 8.55,3.3 0.21,0.203 0.44,0.386 0.66,0.568 8.6,7.35 19.43,12.675 30.09,14.052 -9.65,-14.538 -24.73,-38.716 -38.17,-66.666 -0.87,2.595 -2.78,4.914 -4.9,5.943 -1.6,0.753 -3.34,1.128 -5.08,1.128 -2.1,0 -4.19,-0.541 -6.01,-1.606 -4.31,-2.565 -6.94,-7.26 -9.49,-11.815 -2.5,-4.452 -4.87,-8.689 -8.56,-10.55"
         style="fill:#ea5d31;fill-opacity:1;fill-rule:nonzero;stroke:none;stroke-width:0.1"
         id="path548" />
      <path
         d="m 1658.51,632.721 c -0.43,0 -0.85,0.16 -1.17,0.481 -0.65,0.655 -0.65,1.69 0,2.344 0.32,0.316 0.74,0.472 1.17,0.472 0.42,0 0.84,-0.156 1.16,-0.472 0.66,-0.654 0.66,-1.689 0.01,-2.344 -0.32,-0.321 -0.75,-0.481 -1.17,-0.481"
         style="fill:#fbd7a5;fill-opacity:1;fill-rule:nonzero;stroke:none;stroke-width:0.1"
         id="path550" />
      <path
         d="m 1662.18,629.05 c -0.42,0 -0.85,0.166 -1.18,0.496 -0.63,0.64 -0.63,1.693 0,2.319 0.33,0.328 0.75,0.492 1.18,0.492 0.42,0 0.84,-0.164 1.17,-0.492 0.64,-0.626 0.64,-1.679 0,-2.319 -0.33,-0.332 -0.75,-0.496 -1.17,-0.496"
         style="fill:#fbd7a5;fill-opacity:1;fill-rule:nonzero;stroke:none;stroke-width:0.1"
         id="path552" />
      <path
         d="m 1665.9,625.316 c -0.42,0 -0.84,0.164 -1.16,0.49 -0.66,0.628 -0.66,1.693 0,2.335 0.32,0.328 0.74,0.49 1.16,0.49 0.43,0 0.85,-0.162 1.17,-0.49 0.65,-0.642 0.65,-1.707 0,-2.335 -0.32,-0.326 -0.74,-0.49 -1.17,-0.49"
         style="fill:#fbd7a5;fill-opacity:1;fill-rule:nonzero;stroke:none;stroke-width:0.1"
         id="path554" />
      <path
         d="m 1670.3,620.92 c -0.42,0 -0.85,0.162 -1.17,0.48 -0.65,0.654 -0.65,1.693 0,2.347 0.32,0.322 0.75,0.482 1.17,0.482 0.42,0 0.85,-0.16 1.17,-0.482 0.64,-0.654 0.64,-1.693 0,-2.347 -0.32,-0.318 -0.75,-0.48 -1.17,-0.48"
         style="fill:#fbd7a5;fill-opacity:1;fill-rule:nonzero;stroke:none;stroke-width:0.1"
         id="path556" />
      <path
         d="m 1650.4,630.743 c 0.18,0.846 0.37,1.695 0.56,2.541 0.68,0.686 1.38,1.367 2.07,2.033 -0.88,-1.429 -1.77,-2.954 -2.63,-4.574"
         style="fill:#432016;fill-opacity:1;fill-rule:nonzero;stroke:none;stroke-width:0.1"
         id="path558" />
      <path
         d="m 1662.89,671.94 c 0.66,1.714 1.33,3.424 2.02,5.128 3.69,1.861 6.06,6.098 8.56,10.55 2.55,4.555 5.18,9.25 9.49,11.815 1.82,1.065 3.91,1.606 6.01,1.606 1.74,0 3.48,-0.375 5.08,-1.128 2.12,-1.029 4.03,-3.348 4.9,-5.943 -1.5,-3.111 -2.97,-6.266 -4.42,-9.459 -0.18,-0.042 -0.37,-0.075 -0.55,-0.096 -0.14,-0.009 -0.28,-0.015 -0.41,-0.015 -0.26,0 -0.52,0.016 -0.77,0.042 -0.27,-0.076 -0.55,-0.115 -0.83,-0.115 -0.77,0 -1.54,0.289 -2.14,0.88 -1.18,1.185 -1.18,3.097 0,4.269 0.6,0.593 1.38,0.891 2.15,0.891 0.77,0 1.55,-0.298 2.14,-0.891 l 0.26,-0.301 c 0.19,0.192 0.37,0.397 0.52,0.696 0.5,0.93 0.23,2.114 0.03,2.728 -0.47,1.484 -1.64,2.962 -2.71,3.478 -1.02,0.48 -2.15,0.72 -3.27,0.72 -1.34,0 -2.68,-0.338 -3.81,-1.005 -3.35,-1.992 -5.59,-5.988 -7.97,-10.244 -2.54,-4.53 -5.36,-9.509 -9.95,-12.034 l 0.02,-0.012 c -1.36,-0.804 -2.84,-1.327 -4.35,-1.56"
         style="fill:#542e19;fill-opacity:1;fill-rule:nonzero;stroke:none;stroke-width:0.1"
         id="path560" />
      <path
         d="m 1688.01,740.527 c 0.33,0.061 1.21,0.223 2.42,0.466 -1.21,-0.243 -2.09,-0.405 -2.42,-0.466"
         style="fill:#fbd7a5;fill-opacity:1;fill-rule:nonzero;stroke:none;stroke-width:0.1"
         id="path562" />
      <path
         d="m 1685.31,662.384 -4.56,4.554 2.08,2.074 3.63,-3.627 c -0.39,-0.997 -0.77,-1.998 -1.15,-3.001"
         style="fill:#fbd7a5;fill-opacity:1;fill-rule:nonzero;stroke:none;stroke-width:0.1"
         id="path564" />
      <path
         d="m 1694.47,736.943 c -0.44,0.931 -1.29,1.782 -2.76,2.47 0.13,-0.06 0.27,-0.121 0.39,-0.202 1.23,-0.648 1.97,-1.418 2.37,-2.268 z m -6.59,3.544 c 0,0 0.05,0.02 0.13,0.04 0,0 -0.01,-0.02 -0.02,-0.02 -0.07,0 -0.11,-0.02 -0.11,-0.02"
         style="fill:#f8c7a9;fill-opacity:1;fill-rule:nonzero;stroke:none;stroke-width:0.1"
         id="path566" />
      <path
         d="m 1692.1,739.211 c -0.12,0.081 -0.26,0.142 -0.39,0.202 -0.98,0.446 -2.24,0.83 -3.83,1.074 v 0 c 0,0 0.04,0.02 0.11,0.02 -0.04,0 -0.08,0 -0.1,-0.02 1.8,-0.284 3.18,-0.729 4.21,-1.276"
         style="fill:#ea5832;fill-opacity:1;fill-rule:nonzero;stroke:none;stroke-width:0.1"
         id="path568" />
      <path
         d="m 1690.43,740.993 c 1.74,0.344 4.17,0.87 6.64,1.518 -1.22,-0.323 -2.43,-0.607 -3.55,-0.85 -1.15,-0.263 -2.2,-0.486 -3.09,-0.668"
         style="fill:#f8c7a9;fill-opacity:1;fill-rule:nonzero;stroke:none;stroke-width:0.1"
         id="path570" />
      <path
         d="m 1693.52,741.661 c 1.12,0.243 2.33,0.527 3.55,0.85 0.25,0.061 0.5,0.122 0.75,0.203 -1.47,-0.405 -2.94,-0.749 -4.3,-1.053"
         style="fill:#ea5832;fill-opacity:1;fill-rule:nonzero;stroke:none;stroke-width:0.1"
         id="path572" />
      <path
         d="m 1694.47,736.943 v 0 c -0.4,0.85 -1.14,1.62 -2.37,2.268 1.24,-0.628 1.98,-1.418 2.37,-2.268 0,0 0,0 0,0 z m -6.48,3.564 c 0.01,0 0.02,0.02 0.02,0.02 0.33,0.061 1.21,0.223 2.42,0.466 0.89,0.182 1.94,0.405 3.09,0.668 -2.77,-0.648 -5.01,-1.053 -5.53,-1.154"
         style="fill:#f4aa6e;fill-opacity:1;fill-rule:nonzero;stroke:none;stroke-width:0.1"
         id="path574" />
      <path
         d="m 1694.47,736.943 c -0.39,0.85 -1.13,1.64 -2.37,2.268 -1.03,0.547 -2.41,0.992 -4.21,1.276 0.02,0.02 0.06,0.02 0.1,0.02 0.52,0.101 2.76,0.506 5.53,1.154 1.36,0.304 2.83,0.648 4.3,1.053 v 0 c -1.1,-1.883 -2.22,-3.807 -3.35,-5.771"
         style="fill:#e94f2e;fill-opacity:1;fill-rule:nonzero;stroke:none;stroke-width:0.1"
         id="path576" />
      <path
         d="m 1647.6,582.754 c -2.27,0.095 -4.52,0.3 -6.75,0.614 v 0 c -2.27,1.356 -4.47,2.869 -6.56,4.538 l 0.01,-0.009 0.02,0.069 c 0.15,0.195 0.23,0.412 0.23,0.644 0,0.045 0,0.087 -0.01,0.134 1.26,4.27 3.8,8.744 7.09,12.004 0.35,0.356 0.72,0.708 1.09,0.993 v 0 c 1.27,1.054 2.66,1.86 4.11,2.526 -0.38,-7.369 -0.16,-14.572 0.77,-21.513"
         style="fill:#ea562d;fill-opacity:1;fill-rule:nonzero;stroke:none;stroke-width:0.1"
         id="path578" />
      <path
         d="m 1642.72,601.741 c 0.09,11.318 3.56,21.222 7.68,29.002 -1.88,-8.954 -3.14,-17.827 -3.57,-26.476 -1.45,-0.666 -2.84,-1.472 -4.11,-2.526"
         style="fill:#60301a;fill-opacity:1;fill-rule:nonzero;stroke:none;stroke-width:0.1"
         id="path580" />
      <path
         d="m 1657.63,706.028 c -0.4,0 -0.82,0.008 -1.24,0.02 0.42,-0.012 0.83,-0.02 1.24,-0.02 4.33,0 8.15,0.787 11.59,2.161 -3.43,-1.375 -7.25,-2.161 -11.59,-2.161 z m 11.64,2.179 c 0.01,0.006 0.02,0.012 0.04,0.016 -0.02,-0.004 -0.03,-0.01 -0.04,-0.016"
         style="fill:#f5ae6f;fill-opacity:1;fill-rule:nonzero;stroke:none;stroke-width:0.1"
         id="path582" />
      <path
         d="m 1622.78,599.47 c -8.21,10.465 -12.49,23.192 -12.95,36.432 -0.03,0.796 -0.04,1.596 -0.04,2.396 -0.01,13.832 4.11,28.12 12.28,40.849 1.5,2.345 3.14,4.626 4.92,6.848 l 0.03,0.041 c 1,1.256 2.04,2.482 3.12,3.698 7.16,9.023 8.74,15.606 8.74,19.659 v 0 c -0.01,2.984 -0.87,4.6 -0.99,4.814 3.36,-5.431 12.64,-7.954 18.5,-8.159 v 0 c 0.42,-0.012 0.84,-0.02 1.24,-0.02 4.34,0 8.16,0.786 11.59,2.161 0.02,0.008 0.03,0.014 0.05,0.018 0.01,0.006 0.02,0.012 0.04,0.016 6.53,2.634 11.68,7.395 16.36,12.906 -7.25,-13.554 -14.51,-28.518 -20.76,-44.061 -0.9,-0.456 -1.89,-0.768 -2.97,-0.908 v -0.056 c -0.29,-0.034 -0.59,-0.053 -0.89,-0.053 -1.03,0 -2.07,0.219 -3,0.654 -1.09,0.532 -2.23,1.979 -2.71,3.466 -0.21,0.627 -0.47,1.799 0.03,2.728 0.26,0.478 0.57,0.792 0.86,0.98 0.13,-0.245 0.29,-0.477 0.5,-0.706 0.59,-0.587 1.37,-0.881 2.15,-0.881 0.77,0 1.55,0.294 2.13,0.881 1.19,1.198 1.19,3.108 0,4.295 -0.58,0.58 -1.34,0.864 -2.1,0.864 -0.3,0 -0.59,-0.043 -0.88,-0.127 -0.41,0.107 -0.81,0.166 -1.23,0.166 -0.17,0 -0.34,-0.01 -0.52,-0.03 -1.85,-0.205 -3.58,-1.487 -4.63,-3.425 -0.94,-1.717 -1.06,-3.859 -0.35,-6.054 0.54,-1.625 1.5,-3.18 2.68,-4.352 0.69,-0.697 1.46,-1.255 2.25,-1.652 1.49,-0.709 3.15,-1.059 4.82,-1.059 0.61,0 1.23,0.046 1.84,0.141 -4.9,-12.716 -9.05,-25.752 -11.93,-38.656 -3.41,-3.41 -6.51,-6.927 -7.58,-9.359 -2.57,-5.757 -3.03,-12.441 -7.75,-17.175 -3.29,-3.287 -7.76,-5.784 -12.05,-7.039 -0.05,0.008 -0.1,0.01 -0.15,0.01 -0.22,0 -0.45,-0.075 -0.63,-0.243 l -0.02,-0.008"
         style="fill:#ea562d;fill-opacity:1;fill-rule:nonzero;stroke:none;stroke-width:0.1"
         id="path584" />
      <path
         d="m 1634.3,587.897 -0.01,0.009 c -1.75,1.385 -3.43,2.877 -5.03,4.479 -0.29,0.301 -0.55,0.615 -0.84,0.915 -0.3,0.286 -0.62,0.547 -0.92,0.846 -1.69,1.697 -3.27,3.475 -4.72,5.324 l 0.02,0.008 c 0.18,0.168 0.41,0.243 0.63,0.243 0.05,0 0.1,-0.002 0.15,-0.01 4.29,1.255 8.76,3.752 12.05,7.039 4.72,4.734 5.18,11.418 7.75,17.175 1.07,2.432 4.17,5.949 7.58,9.359 -0.19,-0.846 -0.38,-1.695 -0.56,-2.541 -4.12,-7.78 -7.59,-17.684 -7.68,-29.002 v 0 c -0.37,-0.285 -0.74,-0.637 -1.09,-0.993 -3.29,-3.26 -5.83,-7.734 -7.09,-12.004 v 0 c 0.01,-0.047 0.01,-0.089 0.01,-0.134 0,-0.232 -0.08,-0.449 -0.23,-0.644 l -0.02,-0.069"
         style="fill:#492016;fill-opacity:1;fill-rule:nonzero;stroke:none;stroke-width:0.1"
         id="path586" />
      <path
         d="m 1661.05,671.799 c -1.67,0 -3.33,0.35 -4.82,1.059 -0.79,0.397 -1.56,0.955 -2.25,1.652 -1.18,1.172 -2.14,2.727 -2.68,4.352 -0.71,2.195 -0.59,4.337 0.35,6.054 1.05,1.938 2.78,3.22 4.63,3.425 0.18,0.02 0.35,0.03 0.52,0.03 0.42,0 0.82,-0.059 1.23,-0.166 0.29,0.084 0.58,0.127 0.88,0.127 0.76,0 1.52,-0.284 2.1,-0.864 1.19,-1.187 1.19,-3.097 0,-4.295 -0.58,-0.587 -1.36,-0.881 -2.13,-0.881 -0.78,0 -1.56,0.294 -2.15,0.881 -0.21,0.229 -0.37,0.461 -0.5,0.706 -0.29,-0.188 -0.6,-0.502 -0.86,-0.98 -0.5,-0.929 -0.24,-2.101 -0.03,-2.728 0.48,-1.487 1.62,-2.934 2.71,-3.466 0.93,-0.435 1.97,-0.654 3,-0.654 0.3,0 0.6,0.019 0.89,0.053 v 0.056 c 1.08,0.14 2.07,0.452 2.97,0.908 -0.69,-1.704 -1.36,-3.414 -2.02,-5.128 -0.61,-0.095 -1.23,-0.141 -1.84,-0.141"
         style="fill:#60301a;fill-opacity:1;fill-rule:nonzero;stroke:none;stroke-width:0.1"
         id="path588" />
      <path
         d="m 1734.91,684.795 v 0 l -5.06,5.074 114.59,114.586 0.02,-0.021 2.08,-2.086 h 0.01 l 1.25,-1.255 v 0 l -62.61,-64.494 -7.15,-7.371 -43.13,-44.433"
         style="fill:#422116;fill-opacity:1;fill-rule:nonzero;stroke:none;stroke-width:0.1"
         id="path590" />
      <path
         d="m 1846.54,802.348 -2.08,2.086 1.14,-1.134 0.95,-0.952 h -0.01"
         style="fill:#381d15;fill-opacity:1;fill-rule:nonzero;stroke:none;stroke-width:0.1"
         id="path592" />
      <path
         d="m 1847.8,801.093 v 0 l -1.25,1.255 -0.95,0.952 2.21,-2.187 -0.01,-0.02"
         style="fill:#8c6844;fill-opacity:1;fill-rule:nonzero;stroke:none;stroke-width:0.1"
         id="path594" />
      <path
         d="m 1731.06,681.016 -13.18,13.191 3.81,3.807 13.21,-13.193 -3.84,-3.805"
         style="fill:#29271e;fill-opacity:1;fill-rule:nonzero;stroke:none;stroke-width:0.1"
         id="path596" />
      <path
         d="m 1679.05,627.554 -16.33,16.3 3.82,3.821 16.32,-16.314 -3.81,-3.807"
         style="fill:#29271e;fill-opacity:1;fill-rule:nonzero;stroke:none;stroke-width:0.1"
         id="path598" />
      <path
         d="m 1842.5,806.398 -180.48,-175.55 v -0.309 l 0.3,-0.005 180.49,175.56 v 0.304 h -0.31"
         style="fill:#fefefe;fill-opacity:1;fill-rule:nonzero;stroke:none;stroke-width:0.1"
         id="path600" />
      <path
         d="M 1840.33,808.565 1658.35,634.532 v -0.309 l 0.31,-0.005 181.97,174.043 0.01,0.304 h -0.31"
         style="fill:#fefefe;fill-opacity:1;fill-rule:nonzero;stroke:none;stroke-width:0.1"
         id="path602" />
      <path
         d="M 1847.01,801.882 1670.15,622.74 v -0.307 l 0.31,0.002 176.86,179.144 v 0.303 h -0.31"
         style="fill:#fefefe;fill-opacity:1;fill-rule:nonzero;stroke:none;stroke-width:0.1"
         id="path604" />
      <path
         d="M 1844.8,804.089 1665.75,627.122 v -0.31 h 0.31 l 179.06,176.974 v 0.303 h -0.32"
         style="fill:#fefefe;fill-opacity:1;fill-rule:nonzero;stroke:none;stroke-width:0.1"
         id="path606" />
      <path
         d="m 1872.85,822.153 c 0.49,0.222 0.95,0.546 1.37,0.951 1.65,1.66 1.8,4.253 0.28,5.751 h 0.01 c 0.7,-0.709 1.04,-1.661 1.04,-2.633 0,-1.093 -0.45,-2.227 -1.33,-3.118 -0.42,-0.405 -0.88,-0.729 -1.37,-0.951"
         style="fill:#bb402a;fill-opacity:1;fill-rule:nonzero;stroke:none;stroke-width:0.1"
         id="path608" />
      <path
         d="m 1876.35,837.339 c -0.68,0.669 -1.63,1.013 -2.69,1.013 v 0 c 1.06,0 2.01,-0.344 2.69,-1.013"
         style="fill:#f29c81;fill-opacity:1;fill-rule:nonzero;stroke:none;stroke-width:0.1"
         id="path610" />
      <path
         d="m 1871.07,821.768 c -0.08,0 -0.14,0 -0.2,0 1.56,5.507 0.49,10.671 -0.99,14.498 0.47,0.547 0.9,1.073 1.29,1.539 0.86,0.364 1.7,0.547 2.49,0.547 1.06,0 2.01,-0.344 2.69,-1.013 v 0 c 0.68,-0.688 1.01,-1.64 0.99,-2.693 0,-1.782 -0.94,-3.908 -2.67,-5.65 l -0.17,-0.141 v 0 c 1.52,-1.498 1.37,-4.091 -0.28,-5.751 -0.42,-0.405 -0.88,-0.729 -1.37,-0.951 -0.57,-0.264 -1.19,-0.385 -1.78,-0.385"
         style="fill:#e94d30;fill-opacity:1;fill-rule:nonzero;stroke:none;stroke-width:0.1"
         id="path612" />
    </g>
  </g>
</svg>
