<?xml version="1.0" encoding="UTF-8" standalone="no"?>
<svg
   xmlns:dc="http://purl.org/dc/elements/1.1/"
   xmlns:cc="http://creativecommons.org/ns#"
   xmlns:rdf="http://www.w3.org/1999/02/22-rdf-syntax-ns#"
   xmlns:svg="http://www.w3.org/2000/svg"
   xmlns="http://www.w3.org/2000/svg"
   xmlns:sodipodi="http://sodipodi.sourceforge.net/DTD/sodipodi-0.dtd"
   xmlns:inkscape="http://www.inkscape.org/namespaces/inkscape"
   sodipodi:docname="guitar.svg"
   inkscape:version="1.0 (4035a4f, 2020-05-01)"
   id="svg10811"
   version="1.1"
   viewBox="0 0 59.513401 96.123459"
   height="96.123459mm"
   width="59.513401mm">
  <defs
     id="defs10805" />
  <sodipodi:namedview
     inkscape:window-maximized="0"
     inkscape:window-y="121"
     inkscape:window-x="407"
     inkscape:window-height="825"
     inkscape:window-width="834"
     fit-margin-bottom="0"
     fit-margin-right="0"
     fit-margin-left="0"
     fit-margin-top="0"
     showgrid="false"
     inkscape:document-rotation="0"
     inkscape:current-layer="layer1"
     inkscape:document-units="mm"
     inkscape:cy="433.07922"
     inkscape:cx="175.32341"
     inkscape:zoom="0.35"
     inkscape:pageshadow="2"
     inkscape:pageopacity="0.0"
     borderopacity="1.0"
     bordercolor="#666666"
     pagecolor="#ffffff"
     id="base" />
  <metadata
     id="metadata10808">
    <rdf:RDF>
      <cc:Work
         rdf:about="">
        <dc:format>image/svg+xml</dc:format>
        <dc:type
           rdf:resource="http://purl.org/dc/dcmitype/StillImage" />
        <dc:title></dc:title>
      </cc:Work>
    </rdf:RDF>
  </metadata>
  <g
     transform="translate(-80.612347,-73.646601)"
     id="layer1"
     inkscape:groupmode="layer"
     inkscape:label="Layer 1">
    <g
       transform="matrix(0.35277777,0,0,-0.35277777,3.2656004,790.63429)"
       id="g10803">
      <path
         d="m 372.471,1994.56 -4.7,2.08 0.798,1.79 4.692,-2.09 -0.79,-1.78"
         style="fill:#915941;fill-opacity:1;fill-rule:nonzero;stroke:none;stroke-width:0.1"
         id="path3510" />
      <path
         d="m 372.172,1995.75 c -0.233,-0.52 -0.207,-1.36 0.073,-2.18 0.35,-0.96 1.03,-1.88 2.039,-2.33 1.917,-0.84 4.052,-0.19 4.775,1.47 0.355,0.78 0.336,1.64 -0.014,2.41 -0.341,0.89 -1.09,1.65 -2.095,2.1 -1.903,0.85 -4.274,-0.31 -4.778,-1.47"
         style="fill:#9f9fa0;fill-opacity:1;fill-rule:nonzero;stroke:none;stroke-width:0.1"
         id="path3512" />
      <path
         d="m 376.001,1990.87 c -0.563,0 -1.15,0.11 -1.717,0.37 -1.009,0.45 -1.689,1.37 -2.039,2.33 0.971,-0.33 1.832,-0.47 2.592,-0.47 2.164,0 3.497,1.11 4.208,2.02 0.18,-0.39 0.271,-0.82 0.271,-1.24 0,-0.4 -0.086,-0.79 -0.257,-1.17 -0.509,-1.17 -1.718,-1.84 -3.058,-1.84"
         style="fill:#c8c8c9;fill-opacity:1;fill-rule:nonzero;stroke:none;stroke-width:0.1"
         id="path3514" />
      <path
         d="m 381.1,2005.96 -4.688,2.06 0.777,1.8 4.707,-2.08 -0.796,-1.78"
         style="fill:#915941;fill-opacity:1;fill-rule:nonzero;stroke:none;stroke-width:0.1"
         id="path3516" />
      <path
         d="m 380.814,2007.17 c -0.249,-0.53 -0.212,-1.38 0.073,-2.2 0.349,-0.95 1.025,-1.9 2.045,-2.33 1.904,-0.86 4.04,-0.19 4.769,1.46 0.34,0.78 0.328,1.63 -0.014,2.41 -0.36,0.9 -1.092,1.66 -2.106,2.11 -1.898,0.85 -4.272,-0.32 -4.767,-1.45"
         style="fill:#9f9fa0;fill-opacity:1;fill-rule:nonzero;stroke:none;stroke-width:0.1"
         id="path3518" />
      <path
         d="m 384.647,2002.26 c -0.565,0 -1.148,0.13 -1.715,0.38 -1.02,0.43 -1.696,1.38 -2.045,2.33 0.976,-0.33 1.838,-0.46 2.596,-0.46 2.158,0 3.485,1.09 4.204,2 0.178,-0.4 0.265,-0.82 0.263,-1.24 -0.002,-0.4 -0.083,-0.79 -0.249,-1.17 -0.512,-1.16 -1.721,-1.84 -3.054,-1.84"
         style="fill:#c8c8c9;fill-opacity:1;fill-rule:nonzero;stroke:none;stroke-width:0.1"
         id="path3520" />
      <path
         d="m 341.271,2007.8 4.694,-2.08 0.798,1.79 -4.7,2.08 -0.792,-1.79"
         style="fill:#915941;fill-opacity:1;fill-rule:nonzero;stroke:none;stroke-width:0.1"
         id="path3522" />
      <path
         d="m 342.355,2008.4 c -0.237,-0.54 -0.877,-1.1 -1.684,-1.42 -0.927,-0.38 -2.067,-0.51 -3.089,-0.05 -1.912,0.84 -2.853,2.86 -2.116,4.51 0.35,0.79 0.988,1.34 1.788,1.61 0.899,0.35 1.97,0.32 2.974,-0.12 1.904,-0.85 2.641,-3.41 2.127,-4.53"
         style="fill:#9f9fa0;fill-opacity:1;fill-rule:nonzero;stroke:none;stroke-width:0.1"
         id="path3524" />
      <path
         d="m 338.995,2006.64 c -0.474,0 -0.956,0.08 -1.413,0.29 -1.462,0.64 -2.357,1.98 -2.365,3.31 -0.005,0.4 0.077,0.81 0.249,1.2 0.35,0.79 0.988,1.34 1.788,1.61 -0.251,-1.55 -0.026,-4.13 3.417,-6.07 -0.511,-0.22 -1.089,-0.34 -1.676,-0.34"
         style="fill:#c8c8c9;fill-opacity:1;fill-rule:nonzero;stroke:none;stroke-width:0.1"
         id="path3526" />
      <path
         d="m 343.912,2021.86 4.698,-2.08 0.792,1.77 -4.701,2.09 -0.789,-1.78"
         style="fill:#915941;fill-opacity:1;fill-rule:nonzero;stroke:none;stroke-width:0.1"
         id="path3528" />
      <path
         d="m 345.001,2022.44 c -0.238,-0.54 -0.872,-1.08 -1.677,-1.4 -0.927,-0.4 -2.079,-0.52 -3.11,-0.06 -1.895,0.84 -2.844,2.86 -2.114,4.52 0.362,0.79 1.002,1.33 1.8,1.6 0.907,0.34 1.964,0.33 2.981,-0.13 1.898,-0.85 2.619,-3.4 2.12,-4.53"
         style="fill:#9f9fa0;fill-opacity:1;fill-rule:nonzero;stroke:none;stroke-width:0.1"
         id="path3530" />
      <path
         d="m 341.646,2020.68 c -0.482,0 -0.97,0.1 -1.432,0.3 -1.466,0.64 -2.365,2 -2.361,3.35 0.002,0.4 0.081,0.8 0.247,1.17 0.362,0.79 1.002,1.33 1.8,1.6 -0.245,-1.53 -0.028,-4.14 3.424,-6.06 -0.51,-0.22 -1.089,-0.36 -1.678,-0.36"
         style="fill:#c8c8c9;fill-opacity:1;fill-rule:nonzero;stroke:none;stroke-width:0.1"
         id="path3532" />
      <path
         d="m 378.814,2009.84 c -2.246,-4.84 -5.191,-9.58 -8.758,-13.59 -1.956,-2.23 -4.182,-4.17 -6.317,-6.21 -0.312,-0.32 -0.641,-0.63 -0.955,-0.93 l -17.979,7.96 c -0.11,1.49 -0.199,2.99 -0.282,4.48 -0.125,1.96 -0.523,3.91 -0.407,5.89 0.081,1.53 0.478,3 0.818,4.49 1.25,5.42 2.673,10.83 5.507,15.7 0.68,1.19 1.514,2.81 2.822,3.44 1.903,0.89 3.171,-1.08 4.653,-1.87 0.448,-0.23 0.925,-0.44 1.426,-0.6 0.708,-0.22 1.458,-0.29 2.194,0.03 1.42,0.55 2.518,1.96 3.812,2.78 1.569,1 3.329,1.35 5.07,0.57 1.754,-0.78 2.857,-2.19 3.356,-4.01 0.708,-2.61 -0.268,-6.17 2.992,-7.31 1.018,-0.32 2.367,0.08 3.242,-0.59 0.689,-0.49 1.138,-1.68 1.221,-2.48 0.11,-1.15 -0.299,-2.28 -0.644,-3.34 -0.502,-1.5 -1.11,-2.95 -1.771,-4.41"
         style="fill:#be7453;fill-opacity:1;fill-rule:nonzero;stroke:none;stroke-width:0.1"
         id="path3534" />
      <path
         d="m 362.784,1989.11 -17.979,7.96 c -0.11,1.49 -0.199,2.99 -0.282,4.48 -0.111,1.72 -0.429,3.42 -0.429,5.15 0,0.25 0.006,0.49 0.022,0.74 0.081,1.53 0.478,3 0.818,4.49 1.25,5.42 2.673,10.83 5.507,15.7 0.68,1.19 1.514,2.81 2.822,3.44 0.338,0.16 0.656,0.22 0.959,0.22 1.402,0 2.477,-1.44 3.694,-2.09 0.448,-0.23 0.925,-0.44 1.426,-0.6 -2.655,-8.62 -6.646,-26.31 4.397,-38.56 -0.312,-0.32 -0.641,-0.63 -0.955,-0.93"
         style="fill:#8a4534;fill-opacity:1;fill-rule:nonzero;stroke:none;stroke-width:0.1"
         id="path3536" />
      <path
         d="m 330.515,1791.86 c -6.01,-15.35 -20.606,-29.27 -34.876,-31.54 -10.23,-1.61 -20.065,2.03 -28.96,6.09 -9.149,4.19 -19.059,8.43 -26.65,15.27 -10.115,9.15 -12.577,24.72 -9.992,38.86 3.238,17.7 14.57,26.68 26.464,38.32 3.323,3.27 6.642,6.6 7.995,11.28 1.269,4.39 0.749,8.95 1.924,13.35 1.267,4.74 3.772,9.43 6.43,13.52 7.169,11.07 16.35,16 26.295,16.78 6.748,0.51 13.834,-0.86 20.887,-3.54 1.14,-0.44 2.284,-0.91 3.43,-1.41 2.817,-1.24 5.69,-2.69 8.492,-4.28 1.46,-0.84 2.891,-1.7 4.277,-2.62 1.583,-0.99 3.103,-2.1 4.556,-3.19 10.518,-8.05 12.176,-21.49 8.821,-34.2 -0.206,-0.73 -0.403,-1.46 -0.636,-2.18 -1.624,-5.28 -4.086,-10.4 -7.12,-14.86 l -0.143,-0.19 c -3.235,-4.36 -7.375,-7.7 -8.398,-13.33 -1.82,-10.06 0.573,-19.89 0.006,-29.89 -0.231,-4.06 -1.211,-8.2 -2.802,-12.24"
         style="fill:#974d40;fill-opacity:1;fill-rule:nonzero;stroke:none;stroke-width:0.1"
         id="path3538" />
      <path
         d="m 282.346,1762.1 c -1.228,0 -2.45,0.07 -3.67,0.18 -7.401,0.75 -14.515,3.63 -20.496,6.37 l -1.406,0.64 c -3.322,1.5 -6.732,3.06 -10.067,4.74 -6.561,3.29 -11.452,6.49 -15.382,10.04 -9.399,8.55 -13.204,23.45 -10.183,39.87 2.96,16.04 12.585,25.33 22.776,35.16 1.507,1.43 2.78,2.66 4.062,3.92 3.187,3.17 6.488,6.42 7.818,10.99 0.62,2.17 0.798,4.38 0.985,6.71 0.176,2.19 0.355,4.46 0.947,6.69 1.138,4.22 3.356,8.88 6.602,13.88 6.856,10.61 15.948,16.44 27.024,17.34 0.989,0.07 1.993,0.12 2.994,0.12 5.71,0 11.855,-1.24 18.28,-3.69 1.215,-0.48 2.347,-0.93 3.474,-1.41 2.876,-1.26 5.762,-2.72 8.585,-4.34 1.46,-0.84 2.9,-1.73 4.305,-2.63 1.61,-1.05 3.145,-2.14 4.603,-3.24 9.727,-7.49 13.03,-20.35 9.066,-35.31 -0.203,-0.76 -0.409,-1.49 -0.649,-2.23 -1.664,-5.36 -4.181,-10.6 -7.291,-15.2 -1.009,-1.36 -1.91,-2.44 -2.803,-3.49 -2.525,-2.99 -4.913,-5.8 -5.633,-9.81 -1.066,-5.84 -0.689,-11.73 -0.328,-17.44 0.251,-4.07 0.518,-8.3 0.271,-12.51 -0.251,-4.09 -1.233,-8.33 -2.906,-12.57 -6.336,-16.17 -21.675,-30.1 -35.671,-32.37 -1.788,-0.28 -3.554,-0.41 -5.307,-0.41"
         style="fill:#be7453;fill-opacity:1;fill-rule:nonzero;stroke:none;stroke-width:0.1"
         id="path3540" />
      <path
         d="m 294.35,1919.62 c -1.03,0 -2.054,-0.03 -3.062,-0.11 -11.364,-0.92 -20.681,-6.89 -27.693,-17.76 -3.289,-5.05 -5.551,-9.8 -6.711,-14.11 -0.605,-2.31 -0.792,-4.63 -0.97,-6.86 -0.184,-2.28 -0.354,-4.44 -0.953,-6.54 -1.27,-4.34 -4.482,-7.51 -7.593,-10.6 -1.275,-1.25 -2.544,-2.47 -3.804,-3.67 -10.546,-10.17 -20.268,-19.55 -23.281,-35.88 -3.082,-16.71 0.833,-31.91 10.455,-40.66 3.991,-3.61 8.942,-6.85 15.58,-10.18 3.336,-1.69 6.765,-3.24 10.094,-4.76 l 1.406,-0.64 c 6.052,-2.76 13.246,-5.68 20.769,-6.43 1.25,-0.13 2.499,-0.18 3.759,-0.18 1.836,0 3.661,0.12 5.436,0.41 14.522,2.35 29.807,16.2 36.354,32.91 1.707,4.32 2.71,8.65 2.968,12.83 0.254,4.27 -0.02,8.52 -0.279,12.63 -0.368,5.91 -0.723,11.51 0.32,17.23 0.682,3.78 2.995,6.5 5.435,9.4 0.909,1.07 1.822,2.16 2.681,3.3 3.335,4.92 5.901,10.25 7.594,15.68 0.231,0.76 0.447,1.5 0.654,2.27 4.058,15.31 0.642,28.52 -9.373,36.22 -1.487,1.13 -3.042,2.23 -4.652,3.29 -1.438,0.91 -2.886,1.8 -4.364,2.66 -2.845,1.64 -5.765,3.1 -8.662,4.37 -1.149,0.51 -2.287,0.96 -3.413,1.39 -6.627,2.53 -12.876,3.79 -18.695,3.79 z m 0,-1.75 c 5.859,0 11.93,-1.32 17.966,-3.63 l 0.104,-0.04 c 1.103,-0.42 2.223,-0.88 3.335,-1.36 2.822,-1.23 5.688,-2.68 8.499,-4.29 1.451,-0.84 2.877,-1.72 4.268,-2.6 1.584,-1.04 3.104,-2.12 4.55,-3.21 10.52,-8.08 12.142,-21.57 8.744,-34.39 -0.196,-0.74 -0.401,-1.46 -0.632,-2.2 -1.658,-5.32 -4.141,-10.46 -7.182,-14.96 l -0.146,-0.19 c -3.252,-4.39 -7.399,-7.75 -8.43,-13.44 -1.841,-10.1 0.526,-20 -0.067,-30.05 -0.253,-4.08 -1.243,-8.25 -2.845,-12.31 -6.05,-15.43 -20.707,-29.5 -35.003,-31.82 -1.734,-0.28 -3.452,-0.4 -5.165,-0.4 -1.201,0 -2.394,0.05 -3.583,0.17 -7.085,0.72 -13.887,3.41 -20.223,6.29 -3.744,1.72 -7.644,3.46 -11.438,5.37 -5.456,2.74 -10.731,5.87 -15.189,9.92 -10.103,9.18 -12.531,24.84 -9.911,39.05 2.931,15.89 12.298,24.83 22.761,34.92 1.269,1.21 2.543,2.43 3.835,3.71 3.319,3.28 6.668,6.65 8.039,11.35 1.263,4.41 0.765,9 1.938,13.42 1.288,4.79 3.807,9.51 6.488,13.63 7.194,11.14 16.401,16.14 26.362,16.95 0.968,0.07 1.942,0.11 2.925,0.11"
         style="fill:#fefefe;fill-opacity:1;fill-rule:nonzero;stroke:none;stroke-width:0.1"
         id="path3542" />
      <path
         d="m 282.346,1762.98 c -0.618,0 -1.232,0.01 -1.847,0.05 -0.579,0.02 -1.156,0.07 -1.736,0.12 v 0 c 0.272,5.94 1.707,12.95 4.569,20.87 l 6.777,-3.01 0.62,2.2 3.329,11.86 -4.98,2.2 c 2.992,5.96 6.691,12.29 11.18,18.94 16.809,24.92 18.779,52.7 16.558,74.22 l 5.58,-0.27 h 0.043 c 0.354,0 0.674,0.22 0.812,0.55 l 5.952,14.79 c 1.338,-0.9 2.632,-1.82 3.869,-2.76 7.335,-5.64 10.346,-13.91 10.342,-22.73 0,-3.84 -0.569,-7.77 -1.598,-11.66 -0.196,-0.74 -0.401,-1.46 -0.632,-2.2 -1.658,-5.32 -4.141,-10.46 -7.182,-14.96 l -0.146,-0.19 c -3.252,-4.39 -7.399,-7.75 -8.43,-13.44 -0.53,-2.92 -0.712,-5.83 -0.715,-8.72 -0.003,-5.95 0.746,-11.86 0.746,-17.81 0,-1.17 -0.029,-2.34 -0.098,-3.52 -0.253,-4.08 -1.243,-8.25 -2.845,-12.31 -6.05,-15.43 -20.707,-29.5 -35.003,-31.82 v 0 c -0.466,-0.08 -0.93,-0.14 -1.391,-0.19 -1.264,-0.15 -2.521,-0.21 -3.774,-0.21"
         style="fill:#c56e49;fill-opacity:1;fill-rule:nonzero;stroke:none;stroke-width:0.1"
         id="path3544" />
      <path
         d="m 282.341,1762.98 c -0.615,0 -1.229,0.01 -1.842,0.05 0.615,-0.04 1.229,-0.05 1.847,-0.05 1.253,0 2.51,0.06 3.774,0.21 -1.267,-0.15 -2.525,-0.21 -3.779,-0.21 z m -3.578,0.17 z m 8.748,0.23 v 0 c 14.296,2.32 28.953,16.39 35.003,31.82 1.602,4.06 2.592,8.23 2.845,12.31 0.069,1.18 0.098,2.35 0.098,3.52 0,-1.17 -0.029,-2.34 -0.098,-3.52 -0.253,-4.08 -1.243,-8.25 -2.845,-12.31 -6.05,-15.43 -20.707,-29.5 -35.003,-31.82 z m 37.2,65.46 c 0.003,2.89 0.185,5.8 0.715,8.72 1.031,5.69 5.178,9.05 8.43,13.44 l 0.146,0.19 c 3.041,4.5 5.524,9.64 7.182,14.96 0.231,0.74 0.436,1.46 0.632,2.2 1.029,3.89 1.598,7.82 1.598,11.66 0,-3.84 -0.569,-7.77 -1.598,-11.66 -0.196,-0.74 -0.401,-1.46 -0.632,-2.2 -1.658,-5.32 -4.141,-10.46 -7.182,-14.96 l -0.146,-0.19 c -3.252,-4.39 -7.399,-7.75 -8.43,-13.44 -0.53,-2.92 -0.712,-5.83 -0.715,-8.72"
         style="fill:#fefefe;fill-opacity:1;fill-rule:nonzero;stroke:none;stroke-width:0.1"
         id="path3546" />
      <path
         d="m 310.243,1849.66 c -1.275,-2.88 -3.171,-5.32 -5.451,-7.19 -1.78,-1.46 -3.785,-2.6 -5.927,-3.36 -4.562,-1.62 -9.732,-1.56 -14.513,0.56 -7.032,3.11 -11.303,9.84 -11.645,17 -0.156,2.96 0.382,6.01 1.652,8.9 4.404,9.92 16.001,14.39 25.905,9.98 5.314,-2.34 9.058,-6.77 10.722,-11.91 l 0.006,-0.04 c 1.428,-4.42 1.284,-9.36 -0.749,-13.94"
         style="fill:#3e2617;fill-opacity:1;fill-rule:nonzero;stroke:none;stroke-width:0.1"
         id="path3548" />
      <path
         d="m 310.243,1849.66 c -1.275,-2.88 -3.171,-5.32 -5.451,-7.19 -1.78,-1.46 -3.785,-2.6 -5.927,-3.36 -3.88,-0.82 -8.021,-0.45 -11.909,1.29 -7.024,3.07 -11.315,9.82 -11.649,17.01 0.129,2.1 0.648,4.21 1.535,6.24 4.181,9.43 15.203,13.69 24.644,9.51 4.407,-1.96 7.68,-5.42 9.5,-9.52 l 0.006,-0.04 c 1.428,-4.42 1.284,-9.36 -0.749,-13.94"
         style="fill:#55341b;fill-opacity:1;fill-rule:nonzero;stroke:none;stroke-width:0.1"
         id="path3550" />
      <path
         d="m 307.59,1891.32 -11.084,10.73 46.927,92.99 17.877,-7.47 -15.477,-39.56 -22.991,-57.13 c -0.062,-0.17 -0.226,-0.28 -0.403,-0.28 l -14.849,0.72"
         style="fill:#4b331d;fill-opacity:1;fill-rule:nonzero;stroke:none;stroke-width:0.1"
         id="path3552" />
      <path
         d="m 343.823,1995.72 c -0.32,0 -0.628,-0.18 -0.778,-0.48 l -47.009,-92.47 c -0.178,-0.34 -0.111,-0.75 0.162,-1.03 l 10.799,-10.61 c 0.156,-0.15 0.354,-0.23 0.566,-0.24 l 5.416,-0.28 9.417,-0.45 h 0.043 c 0.354,0 0.674,0.22 0.812,0.55 l 22.994,57.13 15.701,39 c 0.17,0.44 -0.028,0.94 -0.456,1.13 l -17.313,7.68 c -0.116,0.05 -0.231,0.07 -0.354,0.07 z m 0,-0.87 17.311,-7.69 -15.701,-38.99 -22.994,-57.13 -9.419,0.44 -5.409,0.28 -10.797,10.61 47.009,92.48"
         style="fill:#4b331d;fill-opacity:1;fill-rule:nonzero;stroke:none;stroke-width:0.1"
         id="path3554" />
      <path
         d="m 324.418,1895.88 -25.231,11.19 c -0.221,0.1 -0.48,0 -0.577,-0.23 -0.097,-0.21 0.002,-0.48 0.223,-0.58 l 25.23,-11.17 c 0.219,-0.11 0.478,0 0.578,0.22 0.097,0.22 -0.005,0.47 -0.223,0.57"
         style="fill:#cfd0d0;fill-opacity:1;fill-rule:nonzero;stroke:none;stroke-width:0.1"
         id="path3556" />
      <path
         d="m 328.66,1906.44 -24.318,10.78 c -0.22,0.1 -0.478,0 -0.574,-0.23 -0.1,-0.22 0,-0.47 0.22,-0.57 l 24.318,-10.77 c 0.22,-0.1 0.477,0 0.574,0.21 0.1,0.23 0,0.48 -0.22,0.58"
         style="fill:#cfd0d0;fill-opacity:1;fill-rule:nonzero;stroke:none;stroke-width:0.1"
         id="path3558" />
      <path
         d="m 332.807,1916.74 -23.437,10.39 c -0.221,0.11 -0.477,0 -0.575,-0.22 -0.099,-0.22 0,-0.48 0.221,-0.57 l 23.436,-10.4 c 0.221,-0.1 0.478,0 0.578,0.22 0.097,0.22 -0.003,0.48 -0.223,0.58"
         style="fill:#cfd0d0;fill-opacity:1;fill-rule:nonzero;stroke:none;stroke-width:0.1"
         id="path3560" />
      <path
         d="m 337.26,1927.78 -22.481,9.97 c -0.221,0.1 -0.48,0 -0.577,-0.22 -0.097,-0.22 0.002,-0.49 0.223,-0.58 l 22.48,-9.97 c 0.221,-0.1 0.48,0 0.577,0.22 0.098,0.23 -0.002,0.48 -0.222,0.58"
         style="fill:#cfd0d0;fill-opacity:1;fill-rule:nonzero;stroke:none;stroke-width:0.1"
         id="path3562" />
      <path
         d="m 341.968,1939.5 -21.467,9.51 c -0.221,0.11 -0.479,0 -0.575,-0.21 -0.099,-0.23 0,-0.48 0.221,-0.58 l 21.464,-9.53 c 0.221,-0.09 0.48,0 0.577,0.23 0.098,0.21 -10e-4,0.48 -0.22,0.58"
         style="fill:#cfd0d0;fill-opacity:1;fill-rule:nonzero;stroke:none;stroke-width:0.1"
         id="path3564" />
      <path
         d="m 347.239,1952.59 -20.333,9.01 c -0.221,0.11 -0.478,0 -0.575,-0.21 -0.099,-0.23 0,-0.48 0.221,-0.58 l 20.332,-9.02 c 0.221,-0.09 0.48,0 0.577,0.22 0.097,0.23 -0.002,0.48 -0.222,0.58"
         style="fill:#cfd0d0;fill-opacity:1;fill-rule:nonzero;stroke:none;stroke-width:0.1"
         id="path3566" />
      <path
         d="m 353.454,1968.07 -18.999,8.42 c -0.22,0.1 -0.478,0 -0.575,-0.21 -0.099,-0.23 0.002,-0.48 0.223,-0.58 l 18.998,-8.42 c 0.219,-0.1 0.476,0 0.575,0.22 0.097,0.22 -0.002,0.48 -0.222,0.57"
         style="fill:#cfd0d0;fill-opacity:1;fill-rule:nonzero;stroke:none;stroke-width:0.1"
         id="path3568" />
      <path
         d="m 290.109,1781.01 -51.546,22.85 1.174,1.97 6.295,10.5 48.026,-21.26 -3.329,-11.86 -0.62,-2.2"
         style="fill:#000000;fill-opacity:1;fill-rule:nonzero;stroke:none;stroke-width:0.1"
         id="path3570" />
      <path
         d="m 290.729,1783.21 -50.994,22.62 6.297,10.5 48.026,-21.26 -3.329,-11.86"
         style="fill:#55341b;fill-opacity:1;fill-rule:nonzero;stroke:none;stroke-width:0.1"
         id="path3572" />
      <path
         d="m 252.218,1808.51 30.326,-13.44 c 0.22,-0.11 0.48,0 0.577,0.21 0.097,0.23 -0.002,0.48 -0.223,0.58 l -30.325,13.45 c -0.221,0.1 -0.48,0 -0.577,-0.22 -0.097,-0.22 0.002,-0.48 0.222,-0.58"
         style="fill:#cfd0d0;fill-opacity:1;fill-rule:nonzero;stroke:none;stroke-width:0.1"
         id="path3574" />
      <path
         d="m 322.439,1891.04 -9.419,0.44 3.152,7.1 7.891,-3.49 c 0.002,0 0.002,0 0.004,0 z m 1.954,4.85 -7.865,3.49 4.263,9.6 7.515,-3.33 c 0.004,0 0.007,-0.02 0.01,-0.02 l -3.923,-9.74"
         style="fill:#3f2518;fill-opacity:1;fill-rule:nonzero;stroke:none;stroke-width:0.1"
         id="path3576" />
      <path
         d="m 324.067,1895.09 v 0 c -0.002,0 -0.002,0 -0.004,0 l -7.891,3.49 0.356,0.8 7.865,-3.49 -0.326,-0.8"
         style="fill:#8d745a;fill-opacity:1;fill-rule:nonzero;stroke:none;stroke-width:0.1"
         id="path3578" />
      <path
         d="m 328.641,1906.45 -7.496,3.32 4.154,9.35 7.153,-3.18 c 0.003,0 0.007,0 0.009,0 l -3.82,-9.49"
         style="fill:#3f2518;fill-opacity:1;fill-rule:nonzero;stroke:none;stroke-width:0.1"
         id="path3580" />
      <path
         d="m 332.789,1916.75 -7.136,3.16 4.475,10.07 6.777,-3 -4.116,-10.23"
         style="fill:#3f2518;fill-opacity:1;fill-rule:nonzero;stroke:none;stroke-width:0.1"
         id="path3582" />
      <path
         d="m 332.789,1916.75 v 0 l 4.116,10.23 v 0 l -4.116,-10.23"
         style="fill:#3f2518;fill-opacity:1;fill-rule:nonzero;stroke:none;stroke-width:0.1"
         id="path3584" />
      <path
         d="m 337.231,1927.79 -6.747,2.99 4.771,10.74 6.356,-2.83 c 0.003,0 0.007,0 0.009,0 l -4.389,-10.9"
         style="fill:#3f2518;fill-opacity:1;fill-rule:nonzero;stroke:none;stroke-width:0.1"
         id="path3586" />
      <path
         d="m 341.945,1939.5 -6.336,2.81 5.377,12.1 5.856,-2.6 -1.409,-3.64 -3.488,-8.67"
         style="fill:#3f2518;fill-opacity:1;fill-rule:nonzero;stroke:none;stroke-width:0.1"
         id="path3588" />
      <path
         d="m 347.158,1952.63 -5.818,2.57 6.417,14.45 5.109,-2.27 z m 6.021,15.57 -5.068,2.24 8.356,18.8 4.142,-1.84 -7.43,-19.2"
         style="fill:#3f2518;fill-opacity:1;fill-rule:nonzero;stroke:none;stroke-width:0.1"
         id="path3590" />
      <path
         d="m 360.609,1987.4 -4.142,1.84 v 0 l 0.204,0.47 4.129,-1.83 -0.185,-0.46 -0.006,-0.02"
         style="fill:#3f2518;fill-opacity:1;fill-rule:nonzero;stroke:none;stroke-width:0.1"
         id="path3592" />
      <path
         d="m 328.316,1905.63 v 0 c -0.003,0 -0.006,0.02 -0.01,0.02 l -7.515,3.33 0.354,0.79 7.496,-3.32 -0.325,-0.82"
         style="fill:#8d745a;fill-opacity:1;fill-rule:nonzero;stroke:none;stroke-width:0.1"
         id="path3594" />
      <path
         d="m 332.461,1915.94 v 0 c -0.002,0 -0.006,0 -0.009,0 l -7.153,3.18 0.354,0.79 7.136,-3.16 -0.328,-0.81"
         style="fill:#8d745a;fill-opacity:1;fill-rule:nonzero;stroke:none;stroke-width:0.1"
         id="path3596" />
      <path
         d="m 336.905,1926.98 v 0 l -6.777,3 0.356,0.8 6.747,-2.99 -0.326,-0.81"
         style="fill:#8d745a;fill-opacity:1;fill-rule:nonzero;stroke:none;stroke-width:0.1"
         id="path3598" />
      <path
         d="m 341.62,1938.69 v 0 c -0.002,0 -0.006,0 -0.009,0 l -6.356,2.83 0.354,0.79 6.336,-2.81 -0.325,-0.81"
         style="fill:#8d745a;fill-opacity:1;fill-rule:nonzero;stroke:none;stroke-width:0.1"
         id="path3600" />
      <path
         d="m 346.842,1951.81 -5.856,2.6 0.354,0.79 5.818,-2.57 -0.316,-0.82"
         style="fill:#8d745a;fill-opacity:1;fill-rule:nonzero;stroke:none;stroke-width:0.1"
         id="path3602" />
      <path
         d="m 352.866,1967.38 -5.109,2.27 0.354,0.79 5.068,-2.24 -0.313,-0.82"
         style="fill:#8d745a;fill-opacity:1;fill-rule:nonzero;stroke:none;stroke-width:0.1"
         id="path3604" />
      <path
         d="m 358.447,1988.94 -86.19,-197.65 0.602,-0.27 86.189,197.66 -0.601,0.26"
         style="fill:#fefefe;fill-opacity:1;fill-rule:nonzero;stroke:none;stroke-width:0.1"
         id="path3606" />
      <path
         d="m 353.488,1991.12 -87,-197.28 0.6,-0.26 86.999,197.28 -0.599,0.26"
         style="fill:#fefefe;fill-opacity:1;fill-rule:nonzero;stroke:none;stroke-width:0.1"
         id="path3608" />
      <path
         d="m 262.276,1795.71 87.445,196.19 -0.597,0.27 -87.445,-196.2 0.597,-0.26"
         style="fill:#fefefe;fill-opacity:1;fill-rule:nonzero;stroke:none;stroke-width:0.1"
         id="path3610" />
      <path
         d="m 345.625,1994.06 -89.49,-195.63 0.597,-0.26 89.488,195.61 -0.595,0.28"
         style="fill:#fefefe;fill-opacity:1;fill-rule:nonzero;stroke:none;stroke-width:0.1"
         id="path3612" />
      <path
         d="m 359.668,2017.05 c -0.703,-1.59 -2.558,-2.28 -4.155,-1.6 -1.576,0.69 -2.293,2.55 -1.588,4.14 0.703,1.6 2.557,2.31 4.147,1.61 1.581,-0.71 2.297,-2.55 1.596,-4.15"
         style="fill:#9f9fa0;fill-opacity:1;fill-rule:nonzero;stroke:none;stroke-width:0.1"
         id="path3614" />
      <path
         d="m 359.048,2017.34 c -0.561,-1.25 -2.021,-1.81 -3.248,-1.28 -1.249,0.57 -1.806,2.01 -1.261,3.27 0.552,1.23 2.01,1.79 3.26,1.23 1.235,-0.54 1.792,-1.99 1.249,-3.22"
         style="fill:#8e8e8e;fill-opacity:1;fill-rule:nonzero;stroke:none;stroke-width:0.1"
         id="path3616" />
      <path
         d="m 354.164,2004.63 c -0.705,-1.59 -2.553,-2.29 -4.147,-1.6 -1.583,0.71 -2.308,2.57 -1.598,4.15 0.711,1.6 2.558,2.3 4.147,1.61 1.584,-0.72 2.307,-2.58 1.598,-4.16"
         style="fill:#9f9fa0;fill-opacity:1;fill-rule:nonzero;stroke:none;stroke-width:0.1"
         id="path3618" />
      <path
         d="m 353.536,2004.92 c -0.546,-1.24 -1.998,-1.81 -3.241,-1.26 -1.234,0.54 -1.809,2.01 -1.248,3.25 0.545,1.23 1.992,1.8 3.248,1.23 1.227,-0.53 1.8,-1.99 1.241,-3.22"
         style="fill:#8e8e8e;fill-opacity:1;fill-rule:nonzero;stroke:none;stroke-width:0.1"
         id="path3620" />
      <path
         d="m 372.327,2011.44 c -0.702,-1.59 -2.564,-2.31 -4.155,-1.6 -1.581,0.72 -2.3,2.56 -1.581,4.14 0.682,1.59 2.551,2.31 4.127,1.6 1.595,-0.7 2.31,-2.54 1.609,-4.14"
         style="fill:#9f9fa0;fill-opacity:1;fill-rule:nonzero;stroke:none;stroke-width:0.1"
         id="path3622" />
      <path
         d="m 371.7,2011.72 c -0.553,-1.24 -2.005,-1.81 -3.24,-1.25 -1.244,0.53 -1.803,2 -1.255,3.24 0.546,1.24 2.004,1.81 3.248,1.24 1.233,-0.52 1.792,-2 1.247,-3.23"
         style="fill:#8e8e8e;fill-opacity:1;fill-rule:nonzero;stroke:none;stroke-width:0.1"
         id="path3624" />
      <path
         d="m 370.683,2012.17 c -0.301,-0.71 -1.097,-1 -1.773,-0.71 -0.689,0.32 -0.995,1.13 -0.689,1.81 0.306,0.68 1.092,0.98 1.78,0.68 0.682,-0.32 0.983,-1.11 0.682,-1.78"
         style="fill:#6f6e6e;fill-opacity:1;fill-rule:nonzero;stroke:none;stroke-width:0.1"
         id="path3626" />
      <path
         d="m 366.822,1999.02 c -0.709,-1.58 -2.564,-2.3 -4.147,-1.6 -1.582,0.72 -2.298,2.56 -1.594,4.15 0.695,1.59 2.549,2.29 4.145,1.6 1.583,-0.69 2.299,-2.54 1.596,-4.15"
         style="fill:#9f9fa0;fill-opacity:1;fill-rule:nonzero;stroke:none;stroke-width:0.1"
         id="path3628" />
      <path
         d="m 366.194,1999.31 c -0.551,-1.26 -2.011,-1.82 -3.244,-1.26 -1.243,0.55 -1.81,2.01 -1.249,3.26 0.544,1.22 1.998,1.8 3.252,1.24 1.229,-0.56 1.794,-2 1.241,-3.24"
         style="fill:#8e8e8e;fill-opacity:1;fill-rule:nonzero;stroke:none;stroke-width:0.1"
         id="path3630" />
      <path
         d="m 361.802,1986.56 -18.881,8.37 1.208,2.72 18.886,-8.36 -1.213,-2.73"
         style="fill:#fefefe;fill-opacity:1;fill-rule:nonzero;stroke:none;stroke-width:0.1"
         id="path3632" />
      <path
         d="m 349.855,1992.22 7.243,26.01 -0.631,0.18 -7.244,-26.02 0.632,-0.17"
         style="fill:#fefefe;fill-opacity:1;fill-rule:nonzero;stroke:none;stroke-width:0.1"
         id="path3634" />
      <path
         d="m 358.032,2017.78 c -0.302,-0.68 -1.106,-0.99 -1.789,-0.7 -0.674,0.31 -0.982,1.13 -0.688,1.81 0.3,0.66 1.106,0.98 1.788,0.66 0.68,-0.31 0.98,-1.09 0.689,-1.77"
         style="fill:#6f6e6e;fill-opacity:1;fill-rule:nonzero;stroke:none;stroke-width:0.1"
         id="path3636" />
      <path
         d="m 346.427,1994.25 5.169,11.52 -0.597,0.26 -5.169,-11.51 0.597,-0.27"
         style="fill:#fefefe;fill-opacity:1;fill-rule:nonzero;stroke:none;stroke-width:0.1"
         id="path3638" />
      <path
         d="m 352.526,2005.35 c -0.308,-0.67 -1.104,-0.98 -1.786,-0.67 -0.677,0.31 -0.984,1.1 -0.677,1.77 0.294,0.7 1.1,0.99 1.776,0.7 0.687,-0.31 0.981,-1.12 0.687,-1.8"
         style="fill:#6f6e6e;fill-opacity:1;fill-rule:nonzero;stroke:none;stroke-width:0.1"
         id="path3640" />
      <path
         d="m 354.202,1991.15 15.519,21.37 -0.53,0.39 -15.519,-21.37 0.53,-0.39"
         style="fill:#fefefe;fill-opacity:1;fill-rule:nonzero;stroke:none;stroke-width:0.1"
         id="path3642" />
      <path
         d="m 359.196,1989.02 5.046,11.15 -0.597,0.27 -5.047,-11.16 0.598,-0.26"
         style="fill:#fefefe;fill-opacity:1;fill-rule:nonzero;stroke:none;stroke-width:0.1"
         id="path3644" />
      <path
         d="m 365.186,1999.74 c -0.316,-0.68 -1.106,-0.98 -1.782,-0.68 -0.689,0.3 -0.994,1.11 -0.689,1.78 0.3,0.69 1.1,0.98 1.776,0.69 0.695,-0.3 0.995,-1.12 0.695,-1.79"
         style="fill:#6f6e6e;fill-opacity:1;fill-rule:nonzero;stroke:none;stroke-width:0.1"
         id="path3646" />
      <path
         d="m 285.053,1785.41 -40.331,17.87 2.011,4.53 40.341,-17.87 -2.021,-4.53"
         style="fill:#000000;fill-opacity:1;fill-rule:nonzero;stroke:none;stroke-width:0.1"
         id="path3648" />
      <path
         d="m 247.102,1774.81 c -5.456,2.74 -10.731,5.87 -15.189,9.92 -7.637,6.93 -10.889,17.57 -10.889,28.5 0,3.53 0.339,7.08 0.978,10.55 2.931,15.89 12.298,24.83 22.761,34.92 -8.505,-27.17 -11.779,-58.08 2.339,-83.89"
         style="fill:#8a4534;fill-opacity:1;fill-rule:nonzero;stroke:none;stroke-width:0.1"
         id="path3650" />
    </g>
  </g>
</svg>
