<svg xmlns="http://www.w3.org/2000/svg" xmlns:xlink="http://www.w3.org/1999/xlink">
    <symbol id="_0x0">
        <path></path>
    </symbol>
    <symbol id="_0x1">
        <path></path>
    </symbol>
    <symbol id="_0x2">
        <path></path>
    </symbol>
    <symbol id="_0x3">
        <path></path>
    </symbol>
    <symbol id="_0x4">
        <path></path>
    </symbol>
    <symbol id="_0x5">
        <path></path>
    </symbol>
    <symbol id="_1x0">
        <path></path>
    </symbol>
    <symbol id="_1x1" viewBox="81.81818181818181 73.5 131.8181818181818 138.5">
        <path
            d="M 106.82,103.5 C 123.18 101 150.81 98.26 142.64 113.96 C 134.47 129.66 167.2 129.66 159 113.96 C 150.81 98.26 172.27 102.04 188.64 103.5  M 188.64,103.5 C 188.28 119.2 195.6 138.85 179.23 133.05 C 162.87 127.26 162.87 158.66 179.23 148.75 C 195.6 138.85 188.61 166.3 188.64 182 C 172.27 182.78 146.37 174.69 156.31 190.39 C 166.26 206.09 133.53 206.09 139.95 190.39 C 146.37 174.69 123.18 183.82 106.82 182 C 106.59 166.3 99.81 142.39 116.17 152.14 C 132.53 161.89 132.53 130.49 116.17 136.44 C 99.81 142.39 106.94 119.2 106.82 103.5"></path>
    </symbol>
    <symbol id="_1x2" viewBox="81.81818181818181 152 131.8181818181818 138.5">
        <path
            d="M 106.82,182 C 123.18 183.82 146.37 174.69 139.95 190.39 C 133.53 206.09 166.26 206.09 156.31 190.39 C 146.37 174.69 172.27 182.78 188.64 182  M 188.64,182 C 188.66 197.7 178.39 223.01 194.76 214.68 C 211.12 206.35 211.12 237.75 194.76 230.38 C 178.39 223.01 191.29 244.8 188.64 260.5 C 172.27 260.77 150.22 265.48 156.5 249.78 C 162.79 234.08 130.06 234.08 140.14 249.78 C 150.22 265.48 123.18 259.14 106.82 260.5 C 108.11 244.8 112.63 219.82 96.26 230 C 79.9 240.17 79.9 208.77 96.26 214.3 C 112.63 219.82 107.05 197.7 106.82 182"></path>
    </symbol>
    <symbol id="_1x3" viewBox="81.81818181818181 230.5 131.8181818181818 138.5">
        <path
            d="M 106.82,260.5 C 123.18 259.14 150.22 265.48 140.14 249.78 C 130.06 234.08 162.79 234.08 156.5 249.78 C 150.22 265.48 172.27 260.77 188.64 260.5  M 188.64,260.5 C 185.98 276.2 180.07 300.46 196.43 290.6 C 212.8 280.74 212.8 312.14 196.43 306.3 C 180.07 300.46 188.18 323.3 188.64 339 C 172.27 341.06 149.76 346.5 156.82 330.8 C 163.87 315.1 131.15 315.1 140.45 330.8 C 149.76 346.5 123.18 339.25 106.82 339 C 104.65 323.3 112.99 298.47 96.63 305.51 C 80.26 312.55 80.26 281.15 96.63 289.81 C 112.99 298.47 105.53 276.2 106.82 260.5"></path>
    </symbol>
    <symbol id="_1x4" viewBox="81.81818181818181 309 131.8181818181818 138.5">
        <path
            d="M 106.82,339 C 123.18 339.25 149.76 346.5 140.45 330.8 C 131.15 315.1 163.87 315.1 156.82 330.8 C 149.76 346.5 172.27 341.06 188.64 339  M 188.64,339 C 189.1 354.7 182.2 378.9 198.57 369.45 C 214.93 359.99 214.93 391.39 198.57 385.15 C 182.2 378.9 190.32 401.8 188.64 417.5 C 172.27 414.87 143.76 409.93 153.56 425.63 C 163.36 441.33 130.63 441.33 137.19 425.63 C 143.76 409.93 123.18 419.22 106.82 417.5 C 104.81 401.8 100.98 378.46 117.34 384.03 C 133.71 389.6 133.71 358.2 117.34 368.33 C 100.98 378.46 108.99 354.7 106.82 339"></path>
    </symbol>
    <symbol id="_1x5">
        <path></path>
    </symbol>
    <symbol id="_2x0">
        <path></path>
    </symbol>
    <symbol id="_2x1" viewBox="163.63636363636363 73.5 131.8181818181818 138.5">
        <path
            d="M 188.64,103.5 C 205 104.96 230.11 98.22 221.33 113.92 C 212.55 129.62 245.28 129.62 237.69 113.92 C 230.11 98.22 254.09 105.98 270.45 103.5  M 270.45,103.5 C 273.26 119.2 265.36 144.28 281.72 136.08 C 298.09 127.87 298.09 159.27 281.72 151.78 C 265.36 144.28 273.64 166.3 270.45 182 C 254.09 179.91 226.61 172.47 235.49 188.17 C 244.37 203.87 211.65 203.87 219.13 188.17 C 226.61 172.47 205 181.22 188.64 182 C 188.61 166.3 195.6 138.85 179.23 148.75 C 162.87 158.66 162.87 127.26 179.23 133.05 C 195.6 138.85 188.28 119.2 188.64 103.5"></path>
    </symbol>
    <symbol id="_2x2" viewBox="163.63636363636363 152 131.8181818181818 138.5">
        <path
            d="M 188.64,182 C 205 181.22 226.61 172.47 219.13 188.17 C 211.65 203.87 244.37 203.87 235.49 188.17 C 226.61 172.47 254.09 179.91 270.45 182  M 270.45,182 C 267.27 197.7 263.11 223.22 279.47 214.44 C 295.84 205.65 295.84 237.05 279.47 230.14 C 263.11 223.22 268.22 244.8 270.45 260.5 C 254.09 258.5 230.59 255.73 236.16 271.43 C 241.72 287.13 208.99 287.13 219.79 271.43 C 230.59 255.73 205 260.23 188.64 260.5 C 191.29 244.8 178.39 223.01 194.76 230.38 C 211.12 237.75 211.12 206.35 194.76 214.68 C 178.39 223.01 188.66 197.7 188.64 182"></path>
    </symbol>
    <symbol id="_2x3" viewBox="163.63636363636363 230.5 131.8181818181818 138.5">
        <path
            d="M 188.64,260.5 C 205 260.23 230.59 255.73 219.79 271.43 C 208.99 287.13 241.72 287.13 236.16 271.43 C 230.59 255.73 254.09 258.5 270.45 260.5  M 270.45,260.5 C 272.69 276.2 281.34 295.07 264.98 289.54 C 248.62 284.01 248.62 315.41 264.98 305.24 C 281.34 295.07 268.32 323.3 270.45 339 C 254.09 336.66 228.23 331.44 235.11 347.14 C 241.99 362.84 209.26 362.84 218.74 347.14 C 228.23 331.44 205 336.94 188.64 339 C 188.18 323.3 180.07 300.46 196.43 306.3 C 212.8 312.14 212.8 280.74 196.43 290.6 C 180.07 300.46 185.98 276.2 188.64 260.5"></path>
    </symbol>
    <symbol id="_2x4" viewBox="163.63636363636363 309 131.8181818181818 138.5">
        <path
            d="M 188.64,339 C 205 336.94 228.23 331.44 218.74 347.14 C 209.26 362.84 241.99 362.84 235.11 347.14 C 228.23 331.44 254.09 336.66 270.45 339  M 270.45,339 C 272.59 354.7 281.84 376.55 265.47 371.26 C 249.11 365.98 249.11 397.38 265.47 386.96 C 281.84 376.55 272.51 401.8 270.45 417.5 C 254.09 418.15 230.25 408.98 240.03 424.68 C 249.82 440.38 217.09 440.38 223.67 424.68 C 230.25 408.98 205 420.13 188.64 417.5 C 190.32 401.8 182.2 378.9 198.57 385.15 C 214.93 391.39 214.93 359.99 198.57 369.45 C 182.2 378.9 189.1 354.7 188.64 339"></path>
    </symbol>
    <symbol id="_2x5">
        <path></path>
    </symbol>
    <symbol id="_3x0">
        <path></path>
    </symbol>
    <symbol id="_3x1" viewBox="245.45454545454544 73.5 131.8181818181818 138.5">
        <path
            d="M 270.45,103.5 C 286.82 101.02 314.98 95.79 304.19 111.49 C 293.4 127.19 326.13 127.19 320.55 111.49 C 314.98 95.79 335.91 105.09 352.27 103.5  M 352.27,103.5 C 352.45 119.2 361.2 146.54 344.84 136.57 C 328.47 126.6 328.47 158 344.84 152.27 C 361.2 146.54 354.61 166.3 352.27 182 C 335.91 179.45 310.83 190.34 320.72 174.64 C 330.61 158.94 297.88 158.94 304.35 174.64 C 310.83 190.34 286.82 184.09 270.45 182 C 273.64 166.3 265.36 144.28 281.72 151.78 C 298.09 159.27 298.09 127.87 281.72 136.08 C 265.36 144.28 273.26 119.2 270.45 103.5"></path>
    </symbol>
    <symbol id="_3x2" viewBox="245.45454545454544 152 131.8181818181818 138.5">
        <path
            d="M 270.45,182 C 286.82 184.09 310.83 190.34 304.35 174.64 C 297.88 158.94 330.61 158.94 320.72 174.64 C 310.83 190.34 335.91 179.45 352.27 182  M 352.27,182 C 349.93 197.7 345.14 225.76 361.51 215.53 C 377.87 205.3 377.87 236.7 361.51 231.23 C 345.14 225.76 354.33 244.8 352.27 260.5 C 335.91 260.87 310.86 269.13 320.79 253.43 C 330.72 237.73 298 237.73 304.43 253.43 C 310.86 269.13 286.82 262.5 270.45 260.5 C 268.22 244.8 263.11 223.22 279.47 230.14 C 295.84 237.05 295.84 205.65 279.47 214.44 C 263.11 223.22 267.27 197.7 270.45 182"></path>
    </symbol>
    <symbol id="_3x3" viewBox="245.45454545454544 230.5 131.8181818181818 138.5">
        <path
            d="M 270.45,260.5 C 286.82 262.5 310.86 269.13 304.43 253.43 C 298 237.73 330.72 237.73 320.79 253.43 C 310.86 269.13 335.91 260.87 352.27 260.5  M 352.27,260.5 C 350.22 276.2 346.18 298.02 362.54 290.93 C 378.9 283.84 378.9 315.24 362.54 306.63 C 346.18 298.02 352.93 323.3 352.27 339 C 335.91 341.3 306.49 329.4 316.92 345.1 C 327.34 360.8 294.61 360.8 300.55 345.1 C 306.49 329.4 286.82 341.34 270.45 339 C 268.32 323.3 281.34 295.07 264.98 305.24 C 248.62 315.41 248.62 284.01 264.98 289.54 C 281.34 295.07 272.69 276.2 270.45 260.5"></path>
    </symbol>
    <symbol id="_3x4" viewBox="245.45454545454544 309 131.8181818181818 138.5">
        <path
            d="M 270.45,339 C 286.82 341.34 306.49 329.4 300.55 345.1 C 294.61 360.8 327.34 360.8 316.92 345.1 C 306.49 329.4 335.91 341.3 352.27 339  M 352.27,339 C 351.61 354.7 358.49 378.21 342.13 370.67 C 325.76 363.13 325.76 394.53 342.13 386.37 C 358.49 378.21 351.82 401.8 352.27 417.5 C 335.91 416.59 314.21 412.05 320.34 427.75 C 326.47 443.45 293.75 443.45 303.98 427.75 C 314.21 412.05 286.82 416.85 270.45 417.5 C 272.51 401.8 281.84 376.55 265.47 386.96 C 249.11 397.38 249.11 365.98 265.47 371.26 C 281.84 376.55 272.59 354.7 270.45 339"></path>
    </symbol>
    <symbol id="_3x5">
        <path></path>
    </symbol>
    <symbol id="_4x0">
        <path></path>
    </symbol>
    <symbol id="_4x1" viewBox="327.27272727272725 73.5 131.8181818181818 138.5">
        <path
            d="M 352.27,103.5 C 368.64 101.91 390.98 95.56 384.83 111.26 C 378.68 126.96 411.41 126.96 401.19 111.26 C 390.98 95.56 417.73 105.41 434.09 103.5  M 434.09,103.5 C 432.94 119.2 428.02 137.21 444.39 131.85 C 460.75 126.48 460.75 157.88 444.39 147.55 C 428.02 137.21 430.9 166.3 434.09 182 C 417.73 182.86 396.61 176.54 402.13 192.24 C 407.65 207.94 374.92 207.94 385.77 192.24 C 396.61 176.54 368.64 184.55 352.27 182 C 354.61 166.3 361.2 146.54 344.84 152.27 C 328.47 158 328.47 126.6 344.84 136.57 C 361.2 146.54 352.45 119.2 352.27 103.5"></path>
    </symbol>
    <symbol id="_4x2" viewBox="327.27272727272725 152 131.8181818181818 138.5">
        <path
            d="M 352.27,182 C 368.64 184.55 396.61 176.54 385.77 192.24 C 374.92 207.94 407.65 207.94 402.13 192.24 C 396.61 176.54 417.73 182.86 434.09 182  M 434.09,182 C 437.28 197.7 427.63 222.12 444 213.56 C 460.36 205 460.36 236.4 444 229.26 C 427.63 222.12 434.87 244.8 434.09 260.5 C 417.73 263.39 390.54 251.55 401.55 267.25 C 412.56 282.95 379.83 282.95 385.19 267.25 C 390.54 251.55 368.64 260.13 352.27 260.5 C 354.33 244.8 345.14 225.76 361.51 231.23 C 377.87 236.7 377.87 205.3 361.51 215.53 C 345.14 225.76 349.93 197.7 352.27 182"></path>
    </symbol>
    <symbol id="_4x3" viewBox="327.27272727272725 230.5 131.8181818181818 138.5">
        <path
            d="M 352.27,260.5 C 368.64 260.13 390.54 251.55 385.19 267.25 C 379.83 282.95 412.56 282.95 401.55 267.25 C 390.54 251.55 417.73 263.39 434.09 260.5  M 434.09,260.5 C 433.31 276.2 444.48 300 428.12 290.98 C 411.75 281.95 411.75 313.35 428.12 306.68 C 444.48 300 434.05 323.3 434.09 339 C 417.73 336.48 392.69 349.43 401.11 333.73 C 409.53 318.03 376.8 318.03 384.75 333.73 C 392.69 349.43 368.64 336.7 352.27 339 C 352.93 323.3 346.18 298.02 362.54 306.63 C 378.9 315.24 378.9 283.84 362.54 290.93 C 346.18 298.02 350.22 276.2 352.27 260.5"></path>
    </symbol>
    <symbol id="_4x4" viewBox="327.27272727272725 309 131.8181818181818 138.5">
        <path
            d="M 352.27,339 C 368.64 336.7 392.69 349.43 384.75 333.73 C 376.8 318.03 409.53 318.03 401.11 333.73 C 392.69 349.43 417.73 336.48 434.09 339  M 434.09,339 C 434.13 354.7 428 377.84 444.37 369.45 C 460.73 361.05 460.73 392.45 444.37 385.15 C 428 377.84 435.39 401.8 434.09 417.5 C 417.73 414.72 393.81 412.18 401.68 427.88 C 409.56 443.58 376.83 443.58 385.32 427.88 C 393.81 412.18 368.64 418.41 352.27 417.5 C 351.82 401.8 358.49 378.21 342.13 386.37 C 325.76 394.53 325.76 363.13 342.13 370.67 C 358.49 378.21 351.61 354.7 352.27 339"></path>
    </symbol>
    <symbol id="_4x5">
        <path></path>
    </symbol>
    <symbol id="_5x0">
        <path></path>
    </symbol>
    <symbol id="_5x1" viewBox="409.09090909090907 73.5 131.8181818181818 138.5">
        <path
            d="M 434.09,103.5 C 450.45 101.59 471.74 109.71 464.93 94.01 C 458.13 78.31 490.85 78.31 481.3 94.01 C 471.74 109.71 499.55 101.85 515.91 103.5  M 515.91,103.5 C 514.03 119.2 505.47 141.98 521.83 135.1 C 538.2 128.22 538.2 159.62 521.83 150.8 C 505.47 141.98 518.49 166.3 515.91 182 C 499.55 182.83 475.79 192.54 483.84 176.84 C 491.88 161.14 459.15 161.14 467.47 176.84 C 475.79 192.54 450.45 181.14 434.09 182 C 430.9 166.3 428.02 137.21 444.39 147.55 C 460.75 157.88 460.75 126.48 444.39 131.85 C 428.02 137.21 432.94 119.2 434.09 103.5"></path>
    </symbol>
    <symbol id="_5x2" viewBox="409.09090909090907 152 131.8181818181818 138.5">
        <path
            d="M 434.09,182 C 450.45 181.14 475.79 192.54 467.47 176.84 C 459.15 161.14 491.88 161.14 483.84 176.84 C 475.79 192.54 499.55 182.83 515.91 182  M 515.91,182 C 513.32 197.7 507.01 219.74 523.37 213.81 C 539.74 207.87 539.74 239.27 523.37 229.51 C 507.01 219.74 516.73 244.8 515.91 260.5 C 499.55 262.87 472.78 249.7 484.14 265.4 C 495.5 281.1 462.78 281.1 467.78 265.4 C 472.78 249.7 450.45 257.61 434.09 260.5 C 434.87 244.8 427.63 222.12 444 229.26 C 460.36 236.4 460.36 205 444 213.56 C 427.63 222.12 437.28 197.7 434.09 182"></path>
    </symbol>
    <symbol id="_5x3" viewBox="409.09090909090907 230.5 131.8181818181818 138.5">
        <path
            d="M 434.09,260.5 C 450.45 257.61 472.78 249.7 467.78 265.4 C 462.78 281.1 495.5 281.1 484.14 265.4 C 472.78 249.7 499.55 262.87 515.91 260.5  M 515.91,260.5 C 515.09 276.2 509.09 296.55 525.45 290.83 C 541.81 285.12 541.81 316.52 525.45 306.53 C 509.09 296.55 517.03 323.3 515.91 339 C 499.55 337.88 471.12 333.57 480.28 349.27 C 489.44 364.97 456.71 364.97 463.91 349.27 C 471.12 333.57 450.45 341.52 434.09 339 C 434.05 323.3 444.48 300 428.12 306.68 C 411.75 313.35 411.75 281.95 428.12 290.98 C 444.48 300 433.31 276.2 434.09 260.5"></path>
    </symbol>
    <symbol id="_5x4" viewBox="409.09090909090907 309 131.8181818181818 138.5">
        <path
            d="M 434.09,339 C 450.45 341.52 471.12 333.57 463.91 349.27 C 456.71 364.97 489.44 364.97 480.28 349.27 C 471.12 333.57 499.55 337.88 515.91 339  M 515.91,339 C 514.79 354.7 523.54 374.25 507.18 369.03 C 490.82 363.8 490.82 395.2 507.18 384.73 C 523.54 374.25 512.8 401.8 515.91 417.5 C 499.55 415.57 475.56 425.11 482.6 409.41 C 489.63 393.71 456.91 393.71 466.23 409.41 C 475.56 425.11 450.45 420.28 434.09 417.5 C 435.39 401.8 428 377.84 444.37 385.15 C 460.73 392.45 460.73 361.05 444.37 369.45 C 428 377.84 434.13 354.7 434.09 339"></path>
    </symbol>
    <symbol id="_5x5">
        <path></path>
    </symbol>
    <symbol id="_6x0">
        <path></path>
    </symbol>
    <symbol id="_6x1" viewBox="490.9090909090909 73.5 131.8181818181818 138.5">
        <path
            d="M 515.91,103.5 C 532.27 105.15 560.81 93.05 551.86 108.75 C 542.92 124.45 575.65 124.45 568.23 108.75 C 560.81 93.05 581.36 103.09 597.73 103.5  M 597.73,103.5 C 595.73 119.2 592.05 142.43 608.41 132.01 C 624.78 121.58 624.78 152.98 608.41 147.71 C 592.05 142.43 595.2 166.3 597.73 182 C 581.36 178.93 552.23 192.22 562.13 176.52 C 572.03 160.82 539.3 160.82 545.77 176.52 C 552.23 192.22 532.27 181.17 515.91 182 C 518.49 166.3 505.47 141.98 521.83 150.8 C 538.2 159.62 538.2 128.22 521.83 135.1 C 505.47 141.98 514.03 119.2 515.91 103.5"></path>
    </symbol>
    <symbol id="_6x2" viewBox="490.9090909090909 152 131.8181818181818 138.5">
        <path
            d="M 515.91,182 C 532.27 181.17 552.23 192.22 545.77 176.52 C 539.3 160.82 572.03 160.82 562.13 176.52 C 552.23 192.22 581.36 178.93 597.73 182  M 597.73,182 C 600.26 197.7 607.41 225.23 591.05 215.43 C 574.68 205.64 574.68 237.04 591.05 231.13 C 607.41 225.23 598.02 244.8 597.73 260.5 C 581.36 261.55 551.3 265.81 562.29 250.11 C 573.28 234.41 540.55 234.41 545.92 250.11 C 551.3 265.81 532.27 258.13 515.91 260.5 C 516.73 244.8 507.01 219.74 523.37 229.51 C 539.74 239.27 539.74 207.87 523.37 213.81 C 507.01 219.74 513.32 197.7 515.91 182"></path>
    </symbol>
    <symbol id="_6x3" viewBox="490.9090909090909 230.5 131.8181818181818 138.5">
        <path
            d="M 515.91,260.5 C 532.27 258.13 551.3 265.81 545.92 250.11 C 540.55 234.41 573.28 234.41 562.29 250.11 C 551.3 265.81 581.36 261.55 597.73 260.5  M 597.73,260.5 C 597.44 276.2 603.44 295.02 587.08 288.82 C 570.72 282.61 570.72 314.01 587.08 304.52 C 603.44 295.02 595.08 323.3 597.73 339 C 581.36 339.68 557.46 333.85 566.14 349.55 C 574.81 365.25 542.08 365.25 549.77 349.55 C 557.46 333.85 532.27 340.12 515.91 339 C 517.03 323.3 509.09 296.55 525.45 306.53 C 541.81 316.52 541.81 285.12 525.45 290.83 C 509.09 296.55 515.09 276.2 515.91 260.5"></path>
    </symbol>
    <symbol id="_6x4" viewBox="490.9090909090909 309 131.8181818181818 138.5">
        <path
            d="M 515.91,339 C 532.27 340.12 557.46 333.85 549.77 349.55 C 542.08 365.25 574.81 365.25 566.14 349.55 C 557.46 333.85 581.36 339.68 597.73 339  M 597.73,339 C 600.38 354.7 607.02 377.34 590.66 368.93 C 574.3 360.52 574.3 391.92 590.66 384.63 C 607.02 377.34 596.2 401.8 597.73 417.5 C 581.36 417.03 557.1 412.29 564.32 427.99 C 571.55 443.69 538.82 443.69 547.96 427.99 C 557.1 412.29 532.27 419.43 515.91 417.5 C 512.8 401.8 523.54 374.25 507.18 384.73 C 490.82 395.2 490.82 363.8 507.18 369.03 C 523.54 374.25 514.79 354.7 515.91 339"></path>
    </symbol>
    <symbol id="_6x5">
        <path></path>
    </symbol>
    <symbol id="_7x0">
        <path></path>
    </symbol>
    <symbol id="_7x1" viewBox="572.7272727272727 73.5 131.8181818181818 138.5">
        <path
            d="M 597.73,103.5 C 614.09 103.91 636.05 94.4 630.76 110.1 C 625.47 125.8 658.2 125.8 647.12 110.1 C 636.05 94.4 663.18 101.7 679.55 103.5  M 679.55,103.5 C 680.97 119.2 669.51 142.35 685.88 136.66 C 702.24 130.97 702.24 162.37 685.88 152.36 C 669.51 142.35 679.02 166.3 679.55 182 C 663.18 184.71 640.44 173.7 649.57 189.4 C 658.69 205.1 625.96 205.1 633.2 189.4 C 640.44 173.7 614.09 185.07 597.73 182 C 595.2 166.3 592.05 142.43 608.41 147.71 C 624.78 152.98 624.78 121.58 608.41 132.01 C 592.05 142.43 595.73 119.2 597.73 103.5"></path>
    </symbol>
    <symbol id="_7x2" viewBox="572.7272727272727 152 131.8181818181818 138.5">
        <path
            d="M 597.73,182 C 614.09 185.07 640.44 173.7 633.2 189.4 C 625.96 205.1 658.69 205.1 649.57 189.4 C 640.44 173.7 663.18 184.71 679.55 182  M 679.55,182 C 680.07 197.7 671.53 222.68 687.9 215.66 C 704.26 208.63 704.26 240.03 687.9 231.36 C 671.53 222.68 680.84 244.8 679.55 260.5 C 663.18 260.84 636.33 269.05 646.15 253.35 C 655.97 237.65 623.24 237.65 629.79 253.35 C 636.33 269.05 614.09 259.45 597.73 260.5 C 598.02 244.8 607.41 225.23 591.05 231.13 C 574.68 237.04 574.68 205.64 591.05 215.43 C 607.41 225.23 600.26 197.7 597.73 182"></path>
    </symbol>
    <symbol id="_7x3" viewBox="572.7272727272727 230.5 131.8181818181818 138.5">
        <path
            d="M 597.73,260.5 C 614.09 259.45 636.33 269.05 629.79 253.35 C 623.24 237.65 655.97 237.65 646.15 253.35 C 636.33 269.05 663.18 260.84 679.55 260.5  M 679.55,260.5 C 678.25 276.2 671.2 301.99 687.56 294.31 C 703.93 286.64 703.93 318.04 687.56 310.01 C 671.2 301.99 676.8 323.3 679.55 339 C 663.18 340.76 635.91 345.87 645.93 330.17 C 655.96 314.47 623.23 314.47 629.57 330.17 C 635.91 345.87 614.09 338.32 597.73 339 C 595.08 323.3 603.44 295.02 587.08 304.52 C 570.72 314.01 570.72 282.61 587.08 288.82 C 603.44 295.02 597.44 276.2 597.73 260.5"></path>
    </symbol>
    <symbol id="_7x4" viewBox="572.7272727272727 309 131.8181818181818 138.5">
        <path
            d="M 597.73,339 C 614.09 338.32 635.91 345.87 629.57 330.17 C 623.23 314.47 655.96 314.47 645.93 330.17 C 635.91 345.87 663.18 340.76 679.55 339  M 679.55,339 C 682.29 354.7 687.87 376.95 671.51 370.92 C 655.15 364.89 655.15 396.29 671.51 386.62 C 687.87 376.95 677.73 401.8 679.55 417.5 C 663.18 414.4 638.65 406.84 645.52 422.54 C 652.39 438.24 619.67 438.24 629.16 422.54 C 638.65 406.84 614.09 417.97 597.73 417.5 C 596.2 401.8 607.02 377.34 590.66 384.63 C 574.3 391.92 574.3 360.52 590.66 368.93 C 607.02 377.34 600.38 354.7 597.73 339"></path>
    </symbol>
    <symbol id="_7x5">
        <path></path>
    </symbol>
    <symbol id="_8x0">
        <path></path>
    </symbol>
    <symbol id="_8x1" viewBox="654.5454545454545 73.5 131.8181818181818 138.5">
        <path
            d="M 679.55,103.5 C 695.91 105.3 715.29 93.12 709.18 108.82 C 703.06 124.52 735.79 124.52 725.54 108.82 C 715.29 93.12 745 100.97 761.36 103.5  M 761.36,103.5 C 762.17 119.2 754.19 142.13 770.56 132.18 C 786.92 122.24 786.92 153.64 770.56 147.88 C 754.19 142.13 762.93 166.3 761.36 182 C 745 179.96 718.6 171.53 726.59 187.23 C 734.59 202.93 701.86 202.93 710.23 187.23 C 718.6 171.53 695.91 179.29 679.55 182 C 679.02 166.3 669.51 142.35 685.88 152.36 C 702.24 162.37 702.24 130.97 685.88 136.66 C 669.51 142.35 680.97 119.2 679.55 103.5"></path>
    </symbol>
    <symbol id="_8x2" viewBox="654.5454545454545 152 131.8181818181818 138.5">
        <path
            d="M 679.55,182 C 695.91 179.29 718.6 171.53 710.23 187.23 C 701.86 202.93 734.59 202.93 726.59 187.23 C 718.6 171.53 745 179.96 761.36 182  M 761.36,182 C 759.8 197.7 753.9 222.25 770.26 214.64 C 786.63 207.03 786.63 238.43 770.26 230.34 C 753.9 222.25 758.12 244.8 761.36 260.5 C 745 261.36 716.99 249.61 726.17 265.31 C 735.34 281.01 702.62 281.01 709.8 265.31 C 716.99 249.61 695.91 260.16 679.55 260.5 C 680.84 244.8 671.53 222.68 687.9 231.36 C 704.26 240.03 704.26 208.63 687.9 215.66 C 671.53 222.68 680.07 197.7 679.55 182"></path>
    </symbol>
    <symbol id="_8x3" viewBox="654.5454545454545 230.5 131.8181818181818 138.5">
        <path
            d="M 679.55,260.5 C 695.91 260.16 716.99 249.61 709.8 265.31 C 702.62 281.01 735.34 281.01 726.17 265.31 C 716.99 249.61 745 261.36 761.36 260.5  M 761.36,260.5 C 764.61 276.2 755.9 300.49 772.26 293.77 C 788.63 287.06 788.63 318.46 772.26 309.47 C 755.9 300.49 762.45 323.3 761.36 339 C 745 336.49 717.2 331.55 726.88 347.25 C 736.57 362.95 703.85 362.95 710.52 347.25 C 717.2 331.55 695.91 337.24 679.55 339 C 676.8 323.3 671.2 301.99 687.56 310.01 C 703.93 318.04 703.93 286.64 687.56 294.31 C 671.2 301.99 678.25 276.2 679.55 260.5"></path>
    </symbol>
    <symbol id="_8x4" viewBox="654.5454545454545 309 131.8181818181818 138.5">
        <path
            d="M 679.55,339 C 695.91 337.24 717.2 331.55 710.52 347.25 C 703.85 362.95 736.57 362.95 726.88 347.25 C 717.2 331.55 745 336.49 761.36 339  M 761.36,339 C 760.27 354.7 769.57 378.87 753.2 368.21 C 736.84 357.55 736.84 388.95 753.2 383.91 C 769.57 378.87 758.84 401.8 761.36 417.5 C 745 415.3 717.68 427.43 726.36 411.73 C 735.03 396.03 702.31 396.03 710 411.73 C 717.68 427.43 695.91 420.6 679.55 417.5 C 677.73 401.8 687.87 376.95 671.51 386.62 C 655.15 396.29 655.15 364.89 671.51 370.92 C 687.87 376.95 682.29 354.7 679.55 339"></path>
    </symbol>
    <symbol id="_8x5">
        <path></path>
    </symbol>
    <symbol id="_9x0">
        <path></path>
    </symbol>
    <symbol id="_9x1" viewBox="736.3636363636363 73.5 131.8181818181818 138.5">
        <path
            d="M 761.36,103.5 C 777.73 106.03 802.11 96.16 790.98 111.86 C 779.86 127.56 812.58 127.56 807.34 111.86 C 802.11 96.16 826.82 104.63 843.18 103.5  M 843.18,103.5 C 840.82 119.2 850.38 140.72 834.02 134.86 C 817.65 128.99 817.65 160.39 834.02 150.56 C 850.38 140.72 845.37 166.3 843.18 182 C 826.82 182.2 803.52 175.29 810.72 190.99 C 817.92 206.69 785.19 206.69 794.35 190.99 C 803.52 175.29 777.73 184.04 761.36 182 C 762.93 166.3 754.19 142.13 770.56 147.88 C 786.92 153.64 786.92 122.24 770.56 132.18 C 754.19 142.13 762.17 119.2 761.36 103.5"></path>
    </symbol>
    <symbol id="_9x2" viewBox="736.3636363636363 152 131.8181818181818 138.5">
        <path
            d="M 761.36,182 C 777.73 184.04 803.52 175.29 794.35 190.99 C 785.19 206.69 817.92 206.69 810.72 190.99 C 803.52 175.29 826.82 182.2 843.18 182  M 843.18,182 C 840.99 197.7 850.08 216.71 833.71 210.27 C 817.35 203.83 817.35 235.23 833.71 225.97 C 850.08 216.71 840.16 244.8 843.18 260.5 C 826.82 262.49 800.55 266.17 809.46 250.47 C 818.37 234.77 785.64 234.77 793.1 250.47 C 800.55 266.17 777.73 259.64 761.36 260.5 C 758.12 244.8 753.9 222.25 770.26 230.34 C 786.63 238.43 786.63 207.03 770.26 214.64 C 753.9 222.25 759.8 197.7 761.36 182"></path>
    </symbol>
    <symbol id="_9x3" viewBox="736.3636363636363 230.5 131.8181818181818 138.5">
        <path
            d="M 761.36,260.5 C 777.73 259.64 800.55 266.17 793.1 250.47 C 785.64 234.77 818.37 234.77 809.46 250.47 C 800.55 266.17 826.82 262.49 843.18 260.5  M 843.18,260.5 C 846.2 276.2 832.1 298.7 848.47 289.17 C 864.83 279.63 864.83 311.03 848.47 304.87 C 832.1 298.7 843.31 323.3 843.18 339 C 826.82 341.05 802.17 330.7 812.98 346.4 C 823.78 362.1 791.06 362.1 796.61 346.4 C 802.17 330.7 777.73 341.51 761.36 339 C 762.45 323.3 755.9 300.49 772.26 309.47 C 788.63 318.46 788.63 287.06 772.26 293.77 C 755.9 300.49 764.61 276.2 761.36 260.5"></path>
    </symbol>
    <symbol id="_9x4" viewBox="736.3636363636363 309 131.8181818181818 138.5">
        <path
            d="M 761.36,339 C 777.73 341.51 802.17 330.7 796.61 346.4 C 791.06 362.1 823.78 362.1 812.98 346.4 C 802.17 330.7 826.82 341.05 843.18 339  M 843.18,339 C 843.05 354.7 848.98 382.97 832.62 373.26 C 816.26 363.56 816.26 394.96 832.62 388.96 C 848.98 382.97 844.3 401.8 843.18 417.5 C 826.82 419.37 798.38 427.47 808.67 411.77 C 818.97 396.07 786.24 396.07 792.31 411.77 C 798.38 427.47 777.73 419.7 761.36 417.5 C 758.84 401.8 769.57 378.87 753.2 383.91 C 736.84 388.95 736.84 357.55 753.2 368.21 C 769.57 378.87 760.27 354.7 761.36 339"></path>
    </symbol>
    <symbol id="_9x5">
        <path></path>
    </symbol>
    <symbol id="_10x0">
        <path></path>
    </symbol>
    <symbol id="_10x1">
        <path></path>
    </symbol>
    <symbol id="_10x2">
        <path></path>
    </symbol>
    <symbol id="_10x3">
        <path></path>
    </symbol>
    <symbol id="_10x4">
        <path></path>
    </symbol>
    <symbol id="_10x5">
        <path></path>
    </symbol>

    <use x="  0" y="  0" width="82" height="73.5" xlink:href="#_1x1"></use>
    <use x="100" y="  0" width="82" height="73.5" xlink:href="#_1x2"></use>
    <use x="200" y="  0" width="82" height="73.5" xlink:href="#_1x3"></use>
    <use x="300" y="  0" width="82" height="73.5" xlink:href="#_1x4"></use>

    <use x="  0" y="100" width="82" height="73.5" xlink:href="#_2x1"></use>
    <use x="100" y="100" width="82" height="73.5" xlink:href="#_2x2"></use>
    <use x="200" y="100" width="82" height="73.5" xlink:href="#_2x3"></use>
    <use x="300" y="100" width="82" height="73.5" xlink:href="#_2x4"></use>

    <use x="  0" y="200" width="82" height="73.5" xlink:href="#_3x1"></use>
    <use x="100" y="200" width="82" height="73.5" xlink:href="#_3x2"></use>
    <use x="200" y="200" width="82" height="73.5" xlink:href="#_3x3"></use>
    <use x="300" y="200" width="82" height="73.5" xlink:href="#_3x4"></use>
</svg>