<?xml version="1.0" standalone="no"?>
<!DOCTYPE svg PUBLIC "-//W3C//DTD SVG 20010904//EN"
 "http://www.w3.org/TR/2001/REC-SVG-20010904/DTD/svg10.dtd">
<svg version="1.0" xmlns="http://www.w3.org/2000/svg"
 width="793.000000pt" height="793.000000pt" viewBox="0 0 793.000000 793.000000"
 preserveAspectRatio="xMidYMid meet">
<metadata>
Created by potrace 1.14, written by Peter Selinger 2001-2017
</metadata>
<g transform="translate(0.000000,793.000000) scale(0.100000,-0.100000)"
fill="#000000" stroke="none">
<path d="M3952 7919 c-90 -27 -185 -100 -218 -167 -22 -43 -25 -61 -21 -105 3
-28 6 -56 8 -62 6 -22 -13 -53 -39 -63 -15 -6 -54 -18 -87 -27 -105 -29 -155
-105 -161 -243 -4 -97 36 -195 111 -267 52 -50 163 -103 274 -131 52 -13 97
-26 99 -29 3 -3 -15 -24 -39 -49 -60 -60 -136 -83 -304 -92 -294 -17 -400 -4
-470 57 -46 41 -45 67 6 134 73 97 81 161 33 263 -73 155 -221 226 -342 163
-128 -66 -169 -209 -100 -348 40 -81 83 -115 183 -143 74 -21 95 -38 95 -78 0
-49 -70 -91 -195 -118 -61 -12 -349 -13 -395 -1 -122 34 -166 85 -222 264 -34
111 -65 151 -137 177 -133 47 -228 1 -236 -114 -8 -122 44 -181 248 -279 121
-59 204 -115 208 -140 0 -3 2 -51 4 -106 5 -173 35 -287 109 -417 19 -35 47
-76 61 -93 14 -16 40 -45 56 -64 17 -19 33 -47 36 -63 3 -15 9 -29 14 -29 5
-1 15 -2 22 -3 6 -1 17 0 22 3 6 3 15 6 20 7 6 1 39 12 75 23 73 25 245 72
275 77 11 2 38 8 60 13 44 10 100 20 200 36 22 3 49 8 60 10 11 2 45 7 75 10
30 3 73 8 95 10 232 24 665 24 885 0 25 -3 68 -7 95 -10 109 -9 372 -56 505
-90 8 -2 33 -8 55 -13 95 -24 245 -74 388 -128 48 -19 80 -13 83 15 1 6 2 15
3 20 0 5 20 29 44 53 90 91 167 213 201 324 26 82 34 125 40 231 9 140 11 142
277 257 91 40 174 103 191 145 28 69 21 151 -15 191 -45 51 -104 62 -195 35
-76 -23 -111 -63 -150 -176 -75 -211 -147 -260 -376 -254 -216 6 -395 51 -425
109 -34 65 -15 90 91 118 102 26 146 59 187 140 28 55 34 78 33 126 -1 183
-168 296 -325 222 -94 -45 -183 -180 -180 -277 1 -53 31 -121 75 -167 39 -42
16 -92 -60 -130 -57 -29 -160 -36 -322 -22 -41 4 -91 8 -110 10 -120 11 -216
38 -269 76 -44 32 -81 90 -59 90 77 3 211 40 288 81 50 27 140 100 140 114 0
3 9 18 19 33 50 70 61 218 23 305 -28 63 -66 93 -154 123 -92 30 -104 45 -90
112 15 73 14 100 -10 145 -63 124 -247 213 -366 176z m191 -259 c26 -12 61
-38 77 -58 26 -32 47 -98 41 -129 -1 -7 3 -13 8 -13 19 0 128 -115 150 -158
54 -106 31 -215 -67 -310 -59 -57 -195 -111 -265 -106 -18 1 -37 3 -44 3 -6 1
-11 10 -10 22 1 13 24 36 68 65 157 104 183 259 64 379 -71 70 -145 89 -219
56 -127 -56 -189 -190 -141 -305 18 -44 97 -126 143 -150 29 -15 48 -51 32
-61 -20 -13 -124 -3 -159 15 -9 4 -33 16 -55 26 -61 30 -129 97 -160 158 -62
122 -17 243 132 355 30 23 42 40 42 58 0 66 69 142 150 168 61 18 155 12 213
-15z m92 -1124 c207 -14 247 -16 279 -20 18 -3 68 -8 112 -11 43 -4 88 -9 99
-11 11 -2 40 -6 65 -9 291 -36 581 -132 679 -225 40 -38 88 -126 75 -139 -3
-3 -51 -6 -107 -7 -56 0 -110 -5 -119 -10 -15 -8 -15 -12 -2 -40 8 -16 39 -57
69 -89 60 -66 59 -69 -21 -94 -50 -16 -119 -11 -232 18 -45 11 -96 23 -112 26
-17 3 -61 12 -98 19 -37 8 -85 17 -107 20 -23 4 -50 8 -60 10 -49 9 -141 22
-210 31 -246 29 -407 38 -665 38 -201 1 -391 -6 -505 -17 -22 -3 -69 -7 -105
-11 -36 -3 -76 -8 -90 -10 -14 -2 -50 -7 -80 -10 -30 -4 -64 -9 -75 -11 -10
-2 -37 -6 -58 -9 -51 -8 -186 -33 -217 -40 -37 -9 -108 -7 -127 4 -10 5 -21 9
-26 10 -4 0 -21 8 -38 16 l-30 16 49 47 c78 75 115 140 80 143 -7 0 -24 2 -38
4 -14 2 -62 5 -107 6 l-83 1 7 27 c16 66 72 125 163 171 41 21 136 57 170 65
8 2 42 10 75 18 33 9 78 18 100 21 22 4 54 9 70 11 70 11 86 14 136 19 101 12
164 17 299 22 74 4 136 7 137 8 6 5 554 -2 648 -8z"/>
<path d="M3965 6448 c-22 -5 -53 -15 -70 -22 -16 -8 -48 -19 -70 -26 -71 -22
-205 -90 -205 -104 0 -19 69 -50 229 -103 151 -51 147 -51 308 -4 125 36 216
76 211 93 -5 16 -222 125 -303 153 -46 16 -70 19 -100 13z"/>
<path d="M3103 6374 c-76 -20 -124 -47 -166 -93 -42 -46 -46 -77 -17 -114 30
-38 91 -54 190 -52 148 5 258 53 295 131 17 35 17 40 1 68 -33 62 -185 92
-303 60z"/>
<path d="M4705 6353 c-139 -27 -177 -110 -86 -189 67 -59 186 -94 304 -90 157
5 204 95 99 187 -44 39 -126 76 -184 84 -69 9 -112 12 -133 8z"/>
<path d="M1758 7373 c-55 -18 -122 -72 -144 -115 -29 -55 -9 -127 46 -165 18
-13 24 -12 50 7 49 35 134 68 186 73 127 11 236 -51 356 -201 34 -43 41 -28
34 76 -10 141 -12 155 -30 190 -24 46 -45 54 -77 31 -33 -23 -56 -16 -114 36
-89 80 -200 105 -307 68z"/>
<path d="M6121 7288 c-57 -9 -95 -27 -185 -92 l-55 -38 -29 21 c-17 11 -35 21
-40 21 -37 0 -76 -133 -81 -272 l-2 -68 85 85 c46 47 92 85 100 85 9 0 16 4
16 9 0 12 109 41 156 41 59 0 135 -26 194 -65 29 -19 57 -35 64 -35 35 1 84
76 80 123 -3 30 -36 89 -65 116 -27 25 -98 59 -138 66 -19 3 -37 7 -40 9 -3 1
-30 -1 -60 -6z"/>
<path d="M3482 5292 c-5 -16 -10 -64 -10 -107 0 -92 20 -157 67 -210 17 -20
31 -41 31 -47 0 -12 -2 -11 -120 30 -85 30 -192 55 -282 66 -27 3 -69 9 -95
12 -25 3 -115 7 -199 8 l-152 3 -38 30 c-88 68 -202 103 -332 102 -78 0 -182
-25 -189 -45 -2 -6 8 -16 22 -24 14 -7 55 -47 92 -87 83 -92 133 -123 202
-124 28 -1 51 -5 51 -8 0 -4 -12 -14 -27 -23 -33 -20 -118 -101 -191 -183 -49
-54 -113 -151 -152 -230 -12 -22 -23 -30 -45 -31 -17 -1 -41 -4 -55 -7 -131
-26 -183 -29 -238 -17 -31 8 -61 15 -67 16 -97 22 -181 24 -270 7 -105 -21
-172 -26 -204 -15 -37 13 -40 5 -29 -63 12 -70 67 -141 138 -178 47 -25 63
-28 108 -24 28 3 52 3 52 0 0 -3 -22 -50 -50 -105 -27 -55 -52 -109 -55 -121
-2 -12 -11 -47 -18 -77 -36 -147 13 -302 126 -393 157 -128 377 -139 495 -25
73 72 91 213 37 304 -31 53 -74 77 -135 77 -94 0 -177 -74 -184 -164 -3 -39 8
-70 42 -116 l23 -31 -21 -15 c-42 -29 -120 -1 -196 69 -97 91 -131 242 -85
384 26 80 55 127 117 192 120 126 272 205 430 224 l41 5 1 -81 c1 -44 3 -84 6
-89 3 -4 8 -23 11 -42 18 -103 107 -216 211 -268 59 -30 80 -35 140 -35 61 -1
76 3 113 27 48 32 85 100 77 144 -2 16 -5 33 -5 38 -2 20 -49 65 -84 80 -72
30 -157 15 -215 -38 l-23 -21 -30 32 c-16 18 -36 47 -44 66 -19 44 -30 136
-21 171 7 27 8 27 65 22 212 -21 445 -240 662 -623 10 -19 27 -49 37 -66 56
-99 162 -309 162 -320 0 -7 -21 -35 -46 -63 -24 -27 -75 -83 -112 -124 -37
-41 -73 -83 -81 -93 -12 -18 -14 -18 -31 -3 -44 40 -143 288 -169 425 -23 119
-27 147 -26 188 1 23 0 42 -2 42 -19 0 -331 -173 -373 -207 -8 -6 -52 -39 -97
-72 -222 -163 -392 -379 -462 -588 -40 -119 -55 -268 -37 -376 3 -21 4 -42 1
-47 -2 -4 -28 -3 -57 2 -156 28 -269 140 -312 305 -22 83 -15 210 14 288 26
68 95 170 136 200 15 11 32 25 38 30 6 6 28 19 49 30 43 23 46 32 14 40 -44
11 -62 12 -102 3 -22 -6 -49 -11 -60 -14 -11 -2 -46 -17 -78 -33 l-57 -30 -15
36 c-8 19 -15 37 -15 40 0 14 -70 105 -112 145 -51 50 -163 112 -181 101 -8
-5 -7 -8 1 -11 17 -5 76 -116 100 -187 27 -82 33 -107 46 -206 4 -25 9 -57 11
-70 21 -124 27 -158 36 -185 5 -17 11 -40 13 -51 14 -70 88 -231 131 -282 63
-76 84 -96 139 -135 76 -53 160 -90 256 -112 41 -9 80 -23 86 -31 6 -7 20 -25
30 -39 81 -111 181 -193 318 -262 74 -37 75 -38 62 -63 -23 -44 -61 -199 -70
-285 -2 -14 -5 -25 -7 -26 -6 -3 -110 31 -149 49 -126 58 -262 182 -308 282
-35 75 -36 82 -37 187 0 85 -1 92 -19 88 -43 -8 -86 -71 -88 -127 0 -17 9 -56
21 -84 26 -65 14 -68 -49 -13 -96 86 -209 110 -330 72 l-55 -18 30 -19 c16
-11 50 -40 75 -63 97 -93 193 -144 305 -161 39 -6 81 -13 95 -15 14 -3 32 -5
40 -5 8 -1 29 -13 45 -27 51 -44 143 -114 151 -114 4 0 21 -10 38 -23 37 -28
196 -110 196 -102 0 3 8 1 18 -4 12 -6 19 -22 19 -43 1 -62 14 -175 23 -207
10 -35 7 -35 -48 6 -18 14 -68 41 -110 60 -61 28 -92 37 -147 39 -71 3 -135
-14 -135 -36 0 -18 73 -117 127 -173 50 -52 184 -86 258 -65 78 22 82 21 115
-41 47 -87 153 -224 260 -332 54 -55 92 -99 86 -100 -84 -5 -177 -41 -223 -85
-24 -22 -43 -45 -43 -51 0 -18 151 -66 216 -69 53 -3 68 1 105 25 24 15 56 40
70 54 l26 27 64 -26 c211 -84 357 -115 547 -116 89 0 102 -2 102 -17 0 -10
-15 -24 -34 -34 -70 -33 -128 -142 -127 -240 0 -44 -5 -67 -17 -81 -17 -18
-16 -19 31 -14 63 7 162 57 215 110 63 61 95 129 107 228 5 34 12 42 116 125
79 64 135 95 169 95 30 0 92 -36 214 -122 90 -63 90 -63 91 -109 3 -62 46
-153 97 -202 51 -48 147 -95 203 -99 32 -2 39 0 36 12 -5 18 -5 40 2 96 10 81
-36 157 -120 200 -35 17 -50 30 -46 40 5 13 17 18 36 15 21 -3 177 0 212 4 22
3 78 14 125 25 47 11 96 23 109 25 13 3 80 26 149 51 l125 45 41 -40 c56 -55
117 -80 182 -75 60 5 186 46 191 61 7 20 -56 80 -110 106 -28 14 -76 29 -104
33 -29 3 -53 10 -53 15 0 5 4 9 9 9 16 0 172 160 248 255 40 50 83 111 95 136
31 64 45 71 99 53 44 -16 120 -19 172 -9 47 9 115 45 130 68 8 12 25 33 39 47
44 45 80 100 75 113 -7 18 -74 37 -128 37 -73 0 -176 -37 -269 -95 -22 -14
-41 -25 -44 -25 -2 0 0 17 5 38 10 46 17 101 21 161 2 42 4 44 56 67 94 41
281 164 347 227 37 35 60 45 120 52 33 3 80 9 104 11 94 11 201 64 300 148 29
26 62 51 73 57 27 14 9 35 -40 45 -20 4 -44 9 -52 11 -30 8 -106 5 -145 -6
-22 -6 -63 -28 -92 -50 -97 -74 -110 -74 -72 0 38 76 20 160 -43 199 -32 19
-54 18 -42 -2 12 -20 6 -127 -11 -185 -18 -61 -66 -142 -118 -200 -66 -73
-217 -163 -322 -192 -64 -18 -70 -15 -71 27 -2 67 -25 187 -52 267 l-20 57 37
14 c105 42 198 97 240 143 13 14 48 58 77 97 51 67 56 71 96 73 65 4 82 6 96
15 6 4 12 5 12 2 0 -10 126 41 169 68 41 26 121 101 151 141 66 88 149 321
174 487 22 142 102 380 167 495 34 61 35 68 12 58 -10 -4 -24 -8 -31 -9 -29
-5 -144 -90 -186 -139 -25 -28 -62 -82 -81 -119 -25 -47 -40 -65 -50 -61 -8 3
-15 8 -15 12 0 15 -152 67 -190 66 -23 -2 -60 -16 -60 -23 0 -4 23 -20 51 -37
57 -33 130 -109 151 -155 7 -17 16 -30 20 -30 5 0 8 -8 8 -18 0 -10 4 -22 9
-27 14 -17 32 -134 30 -198 -9 -237 -155 -406 -371 -431 -45 -5 -49 -1 -37 31
15 40 21 84 24 166 2 70 -1 99 -19 186 -42 199 -214 442 -451 636 -89 73 -89
73 -160 120 -33 22 -62 43 -65 46 -3 3 -12 9 -20 12 -8 4 -28 16 -45 27 -16
11 -41 25 -55 32 -14 7 -27 15 -30 18 -3 3 -28 17 -56 32 l-50 27 -11 -89
c-17 -131 -97 -358 -185 -525 -47 -88 -38 -88 -125 1 -83 84 -173 198 -173
217 0 7 10 28 22 47 11 19 32 55 45 80 88 165 225 388 304 493 187 249 357
372 526 383 61 4 61 4 68 -26 10 -45 4 -131 -12 -170 -14 -35 -60 -90 -75 -90
-4 0 -18 11 -30 25 -12 14 -45 32 -73 41 -88 25 -171 1 -195 -57 -29 -69 -17
-129 35 -183 63 -65 155 -71 269 -18 75 36 118 78 155 157 36 74 43 107 47
215 l2 85 34 1 c29 0 58 -5 118 -21 65 -17 212 -86 237 -111 8 -8 18 -14 23
-14 20 0 138 -130 163 -180 35 -70 55 -178 46 -248 -14 -110 -96 -223 -194
-268 -55 -26 -86 -30 -116 -14 -22 12 -24 23 -6 42 86 90 61 219 -53 278 -82
42 -185 7 -226 -77 -27 -56 -25 -174 4 -229 81 -157 325 -189 508 -68 53 35
114 96 114 114 0 5 5 10 10 10 6 0 10 9 10 19 0 11 4 22 9 25 5 3 12 23 16 43
5 21 10 45 12 53 4 15 3 89 -2 140 -4 46 -37 143 -76 223 -21 44 -36 83 -33
88 2 5 17 4 32 -2 82 -32 216 46 262 153 24 55 24 105 0 100 -43 -10 -110 -7
-145 5 -57 21 -163 39 -215 37 -50 -1 -151 -14 -161 -20 -10 -5 -79 -17 -114
-19 -76 -3 -275 42 -282 64 -17 51 -59 132 -95 185 -46 68 -159 186 -228 238
l-46 34 61 -2 c78 -2 118 18 204 105 36 36 79 76 96 88 l29 21 -38 16 c-21 9
-48 18 -60 20 -11 3 -36 10 -55 15 -19 6 -78 9 -131 7 -78 -2 -106 -7 -154
-29 -58 -27 -131 -78 -153 -107 -9 -13 -24 -15 -75 -10 -67 7 -416 4 -458 -4
-14 -2 -41 -7 -60 -11 -52 -9 -140 -33 -190 -50 -24 -8 -45 -13 -48 -11 -2 3
10 24 27 48 45 64 66 193 46 291 -8 43 -20 46 -85 16 -107 -49 -155 -111 -206
-269 -20 -60 -45 -124 -57 -142 -29 -44 -115 -87 -164 -82 -74 7 -157 69 -159
119 -1 46 -20 140 -36 183 -25 66 -102 145 -179 185 -67 34 -75 34 -87 -1z
m-282 -397 c14 -3 42 -7 62 -10 21 -2 41 -6 46 -9 5 -3 24 -8 43 -11 19 -3 48
-10 64 -15 189 -59 359 -130 363 -151 1 -8 -10 -22 -25 -30 -44 -26 -249 -92
-323 -106 -14 -2 -43 -9 -65 -15 -22 -5 -48 -12 -57 -14 -10 -2 -28 -6 -40 -9
-13 -3 -34 -7 -48 -10 -14 -3 -40 -9 -57 -14 -18 -5 -33 -7 -33 -5 0 3 -6 2
-12 -3 -7 -4 -17 -8 -23 -8 -38 -2 -154 -30 -148 -35 4 -3 33 -12 63 -20 125
-30 313 -130 484 -260 105 -79 227 -201 234 -233 3 -16 -285 -310 -298 -305
-5 2 -70 86 -146 188 -335 451 -566 599 -964 615 -31 1 -35 4 -33 25 3 53 28
103 87 176 106 131 277 225 471 258 77 13 301 14 355 1z m1920 -9 c14 -3 41
-9 60 -12 35 -6 154 -51 200 -76 93 -49 198 -156 239 -243 31 -66 49 -135 35
-136 -301 -25 -474 -79 -646 -198 -88 -61 -233 -207 -348 -351 -46 -58 -87
-107 -90 -110 -3 -3 -25 -31 -49 -62 -24 -32 -46 -58 -50 -58 -14 0 -291 286
-291 300 0 26 115 136 235 224 166 123 359 223 511 266 l94 26 -162 33 c-90
18 -172 34 -183 37 -99 19 -314 74 -393 100 -57 19 -115 49 -131 68 -10 12 -7
17 20 31 72 38 352 126 449 141 19 3 37 7 40 9 3 2 37 7 75 10 39 4 72 9 74
11 6 6 282 -3 311 -10z m-1100 -267 c77 -29 227 -84 343 -124 53 -19 102 -37
108 -41 6 -3 -29 -28 -77 -53 -171 -91 -373 -215 -421 -260 -28 -27 -28 -27
-72 8 -58 46 -184 117 -350 199 l-153 75 83 34 c46 18 87 33 91 33 5 0 27 9
51 19 69 31 321 130 332 131 6 0 35 -10 65 -21z m478 -275 c-3 -3 -32 -24 -65
-47 -188 -134 -481 -428 -703 -707 -19 -24 -47 -58 -61 -75 -29 -33 -24 -27
-145 -180 -130 -164 -202 -245 -368 -410 -199 -198 -304 -287 -461 -390 -62
-41 -67 -44 -147 -87 -52 -29 -170 -75 -208 -82 -67 -13 -88 -16 -122 -20 -51
-5 -48 6 5 22 41 13 198 83 227 102 8 5 35 21 60 36 43 25 172 117 196 139 6
5 33 28 59 50 62 52 204 194 290 290 39 43 75 83 80 89 6 6 35 40 65 76 31 36
65 76 77 90 11 14 38 46 59 71 200 236 358 412 510 563 80 81 182 174 239 217
17 13 32 27 33 31 2 5 10 8 17 8 7 0 15 4 17 9 5 14 156 111 252 162 89 47
105 55 94 43z m-823 -157 c71 -35 143 -83 168 -111 17 -19 17 -21 -7 -45 l-25
-24 -48 49 c-54 54 -122 116 -168 153 -29 22 -29 23 -5 16 14 -4 52 -21 85
-38z m-856 -11 c57 -43 141 -130 213 -221 77 -97 218 -294 218 -304 0 -4 9
-16 20 -26 11 -10 20 -22 20 -27 0 -6 9 -21 20 -35 11 -14 20 -29 20 -32 0 -4
-15 -23 -33 -43 l-33 -36 -42 64 c-23 35 -42 66 -42 69 0 2 -16 29 -35 59 -19
30 -35 60 -35 66 0 5 -4 10 -10 10 -5 0 -10 5 -10 10 0 8 -133 204 -173 255
-4 6 -34 46 -66 91 -108 150 -111 158 -32 100z m2325 12 c-17 -28 -89 -123
-96 -126 -5 -2 -8 -10 -8 -18 0 -8 -4 -14 -8 -14 -4 0 -25 -25 -47 -56 -22
-31 -60 -84 -85 -118 -25 -34 -49 -69 -55 -78 -5 -8 -32 -49 -59 -89 -27 -41
-116 -191 -199 -334 -140 -242 -173 -300 -204 -350 -6 -11 -33 -56 -59 -100
-50 -85 -223 -363 -236 -380 -5 -5 -38 -53 -74 -105 -140 -200 -371 -458 -489
-545 -22 -17 -47 -36 -55 -44 -32 -31 -195 -132 -273 -170 -86 -42 -246 -98
-307 -107 -19 -3 -38 -8 -42 -10 -4 -2 -31 -7 -60 -9 -29 -3 -64 -7 -77 -10
-48 -9 -4 14 114 60 236 93 415 199 625 371 107 88 334 339 420 464 13 19 27
37 30 40 12 10 157 236 225 350 38 63 77 127 87 142 10 15 18 30 18 33 0 8
209 366 225 385 6 8 14 22 17 30 3 8 70 105 148 215 128 179 163 226 235 314
44 53 163 170 224 219 68 55 77 60 65 40z m-897 -525 c111 -120 143 -157 143
-167 0 -28 -59 -95 -60 -68 0 4 -22 30 -48 58 -26 28 -74 82 -107 120 -33 37
-78 88 -101 113 l-41 45 31 34 31 34 40 -45 c22 -25 72 -81 112 -124z m-228
-79 c70 -74 231 -285 231 -302 0 -5 -35 -65 -77 -131 -117 -181 -143 -223
-202 -317 l-53 -86 -20 32 c-10 18 -40 73 -66 122 -26 49 -58 110 -72 136
-100 184 -118 221 -112 224 4 2 45 55 92 118 46 63 89 120 95 127 5 6 32 41
59 77 27 36 52 66 56 66 4 0 35 -30 69 -66z m-1394 -39 c-25 -134 -11 -408 30
-595 4 -14 8 -36 11 -50 3 -14 12 -47 20 -75 l15 -50 -76 -72 c-84 -80 -171
-149 -225 -179 -19 -10 -37 -21 -40 -24 -10 -11 -127 -59 -180 -74 -30 -8 -85
-18 -121 -21 l-66 -6 -26 53 c-152 314 -21 653 372 968 95 76 290 205 297 197
2 -1 -3 -34 -11 -72z m2788 -19 c398 -266 602 -543 599 -811 -2 -112 -12 -155
-65 -262 -27 -57 -33 -63 -61 -64 -137 -4 -254 36 -420 146 -87 57 -94 63
-203 161 -48 44 -71 71 -68 83 2 10 13 48 24 86 12 37 23 77 25 89 3 11 11 50
20 86 8 36 18 81 21 100 2 19 9 62 14 95 5 33 9 126 8 208 -1 81 1 147 4 147
4 0 50 -29 102 -64z m-2603 -503 l33 -73 -24 -35 c-21 -31 -25 -33 -36 -19
-15 20 -69 248 -77 324 l-6 55 38 -90 c22 -49 54 -123 72 -162z m2366 125
c-29 -222 -178 -592 -389 -968 -39 -69 -74 -126 -79 -128 -4 -2 -8 -8 -8 -14
0 -14 -202 -318 -212 -318 -4 0 -8 -5 -8 -11 0 -6 -12 -26 -27 -45 -16 -18
-46 -56 -68 -85 -22 -28 -44 -57 -50 -63 -5 -6 -35 -40 -65 -76 -64 -76 -246
-258 -316 -315 -106 -87 -277 -201 -337 -225 -12 -4 -40 -16 -62 -26 -48 -21
-79 -28 -51 -11 152 93 346 264 487 432 19 21 41 46 49 55 48 49 318 400 366
475 10 17 21 32 25 35 5 4 161 238 219 330 61 94 213 353 280 475 102 184 240
485 240 523 0 6 3 12 6 12 4 0 3 -24 0 -52z m-481 1 c17 -23 59 -68 95 -101
36 -33 79 -73 97 -90 l32 -30 -17 -46 c-9 -25 -22 -47 -27 -49 -11 -3 -79 63
-203 196 l-69 74 26 43 c14 24 28 43 31 43 3 0 19 -18 35 -40z m-1108 -58 c-1
-3 6 -17 14 -31 9 -14 67 -117 128 -229 122 -220 119 -209 72 -270 l-19 -25
-47 75 c-26 41 -67 103 -90 139 -44 67 -55 87 -116 201 -50 92 -50 94 -29 121
47 57 52 59 71 42 10 -9 17 -19 16 -23z m-72 -358 c72 -119 142 -237 157 -263
l27 -46 -60 -78 c-65 -84 -106 -132 -181 -209 l-46 -48 -35 53 c-84 131 -122
198 -212 373 l-73 141 142 147 c77 80 143 146 146 146 3 0 64 -97 135 -216z
m1106 144 c121 -107 182 -174 176 -197 -5 -19 -255 -451 -266 -460 -3 -3 -12
-16 -19 -30 -7 -14 -24 -38 -38 -53 l-24 -29 -63 53 c-116 99 -207 199 -207
227 0 8 41 79 90 159 50 79 90 148 90 153 0 4 3 10 8 12 4 2 29 39 56 83 68
112 98 155 106 155 4 0 45 -33 91 -73z m612 -270 c139 -118 309 -220 422 -253
59 -18 67 -19 93 -22 7 -1 11 -6 7 -11 -7 -12 -96 -7 -155 9 -134 34 -304 116
-418 202 -43 32 -51 42 -41 54 6 8 9 14 6 14 -3 0 -1 14 4 30 6 17 13 30 15
30 3 0 33 -24 67 -53z m-2219 -67 c26 -59 119 -224 128 -228 4 -2 8 -7 8 -12
0 -4 38 -72 85 -151 l84 -142 -32 -28 c-18 -16 -37 -29 -44 -29 -16 0 -108
164 -225 399 l-91 185 29 23 c16 12 32 23 35 23 3 0 13 -18 23 -40z m-86 -293
c103 -208 188 -363 203 -373 9 -5 -49 -64 -63 -64 -3 0 -13 -6 -20 -13 -24
-23 -234 -138 -253 -138 -2 0 -24 -8 -47 -18 -37 -15 -64 -23 -163 -48 -42
-10 -202 -12 -245 -2 -25 5 -50 17 -56 25 -22 28 -8 146 30 254 l22 65 60 -4
c179 -10 268 -6 342 18 39 13 72 27 72 32 0 5 5 9 11 9 15 0 52 47 65 85 39
108 -63 216 -205 217 -59 0 -140 -17 -156 -33 -5 -5 -17 -9 -27 -9 -10 0 -18
-4 -18 -9 0 -5 -8 -12 -18 -15 -10 -3 -53 -39 -97 -81 -44 -41 -85 -74 -92
-75 -34 -1 -213 168 -213 202 0 2 39 3 88 3 90 0 171 9 232 25 19 5 64 16 100
26 133 34 320 106 328 126 8 18 24 -10 120 -205z m2267 141 c42 -23 178 -76
250 -98 153 -46 305 -65 379 -46 l28 7 -20 -28 c-11 -15 -31 -37 -44 -48 -39
-34 -152 -105 -167 -105 -7 0 -45 30 -84 66 -87 82 -145 119 -224 144 -192 59
-370 -65 -308 -214 23 -55 109 -115 185 -129 14 -3 39 -9 55 -13 17 -4 93 -8
170 -8 l140 -1 14 -30 c29 -60 58 -196 51 -242 -4 -24 -9 -46 -12 -49 -17 -17
-178 -24 -253 -11 -27 4 -63 10 -79 13 -61 12 -205 68 -296 116 -93 49 -220
133 -220 145 0 10 64 108 72 111 5 2 8 8 8 14 0 6 15 36 34 67 33 54 89 160
176 328 l42 83 37 -28 c20 -15 50 -34 66 -44z m-965 -238 c31 -30 77 -74 103
-98 26 -24 47 -47 47 -51 0 -12 -40 -61 -50 -61 -13 0 -162 124 -205 172 -83
90 -79 79 -43 126 l32 42 30 -38 c16 -20 55 -62 86 -92z m-1469 55 c115 -60
45 -159 -129 -183 -66 -9 -239 -8 -249 1 -3 4 7 23 22 44 98 133 250 192 356
138z m2594 -26 c74 -35 203 -171 173 -181 -30 -10 -239 2 -305 18 -72 17 -133
64 -133 102 0 25 56 86 70 77 5 -3 12 0 16 6 11 18 124 4 179 -22z m-1311
-178 c50 -49 115 -111 145 -138 l54 -50 -31 -47 c-18 -26 -32 -51 -32 -56 0
-4 -3 -10 -8 -12 -4 -1 -30 -34 -57 -73 -27 -38 -54 -75 -60 -82 -5 -6 -35
-43 -65 -81 -66 -84 -85 -98 -107 -80 -32 27 -178 207 -234 289 l-58 87 171
166 c95 91 176 166 181 166 5 0 51 -40 101 -89z m694 -270 c59 -41 238 -125
307 -143 25 -7 45 -16 45 -20 0 -4 6 -8 13 -8 27 0 147 -42 142 -50 -5 -8 -8
-7 -120 10 -71 12 -281 75 -301 91 -6 5 -39 23 -72 39 -75 38 -87 52 -72 79
13 26 25 26 58 2z m-1178 -119 c71 -99 198 -258 238 -299 l32 -31 -20 -24 -20
-23 -67 70 c-38 39 -110 125 -161 193 -52 67 -100 128 -107 135 -11 10 -10 16
8 35 11 12 25 22 31 22 6 0 36 -35 66 -78z m1080 -50 c102 -48 308 -108 405
-117 17 -2 30 -4 30 -5 0 -1 9 -3 20 -5 185 -26 412 -26 494 0 20 6 21 3 21
-57 0 -73 -29 -186 -66 -261 -135 -269 -481 -514 -839 -594 -96 -21 -293 -25
-376 -8 -126 27 -280 101 -287 139 -3 12 17 38 52 72 70 68 114 96 135 85 17
-9 145 -40 196 -47 17 -3 37 -8 45 -11 8 -3 70 -7 137 -8 129 -3 202 9 275 46
142 73 164 236 44 333 -118 96 -297 80 -491 -44 -85 -54 -104 -57 -162 -24
-64 37 -113 73 -113 84 0 6 14 22 32 37 33 30 288 291 288 296 0 7 105 115
109 113 3 -1 26 -12 51 -24z m-1296 -5 c11 -13 39 -45 61 -71 22 -27 45 -54
50 -60 6 -6 30 -36 55 -66 24 -30 76 -88 115 -128 38 -40 72 -78 74 -84 7 -19
-126 -125 -167 -133 -13 -2 -40 9 -69 30 -170 122 -231 150 -333 154 -175 7
-310 -136 -269 -285 15 -53 107 -135 169 -149 3 -1 19 -4 35 -8 17 -4 41 -10
55 -12 29 -6 204 -6 240 -1 109 17 165 28 227 46 40 11 79 20 86 20 20 0 123
-101 132 -129 9 -30 -11 -47 -114 -98 -115 -56 -220 -80 -353 -81 -157 -1
-276 26 -434 99 -60 28 -227 132 -260 163 -184 172 -272 294 -329 461 -24 69
-42 215 -29 236 2 4 30 0 62 -8 60 -16 307 -21 407 -9 72 10 125 16 166 20 19
3 55 10 80 16 24 7 52 14 61 15 49 10 149 41 193 61 63 29 63 29 89 1z m-124
-481 c61 -24 240 -127 240 -138 0 -14 -92 -70 -145 -89 -125 -44 -304 7 -355
101 -28 52 -17 96 33 125 63 38 135 38 227 1z m1629 5 c80 -25 104 -87 54
-140 -28 -28 -97 -68 -137 -78 -48 -12 -168 -11 -225 3 -68 15 -141 49 -141
64 0 33 224 150 310 162 40 6 102 1 139 -11z m-717 -51 c3 0 13 -6 20 -12 23
-22 127 -98 142 -104 18 -7 29 -33 13 -30 -60 13 -112 39 -238 123 l-40 26 22
23 21 23 27 -25 c14 -13 29 -24 33 -24z m-131 -102 c35 -23 67 -46 71 -51 3
-6 -27 -37 -68 -69 l-75 -59 -52 30 c-29 17 -65 42 -80 56 l-28 27 78 54 c42
30 80 54 83 54 3 0 35 -19 71 -42z"/>
</g>
</svg>
