<?xml version="1.0" standalone="no"?>
<!DOCTYPE svg PUBLIC "-//W3C//DTD SVG 20010904//EN"
 "http://www.w3.org/TR/2001/REC-SVG-20010904/DTD/svg10.dtd">
<svg version="1.0" xmlns="http://www.w3.org/2000/svg"
 width="700.000000pt" height="700.000000pt" viewBox="0 0 700.000000 700.000000"
 preserveAspectRatio="xMidYMid meet">
<metadata>
Created by potrace 1.14, written by Peter Selinger 2001-2017
</metadata>
<g transform="translate(0.000000,700.000000) scale(0.100000,-0.100000)"
fill="#000000" stroke="none">
<path d="M2944 6454 c-17 -40 -20 -175 -5 -236 10 -44 51 -115 80 -142 12 -11
21 -30 21 -43 l0 -23 -39 19 c-54 28 -251 86 -341 101 -41 7 -82 14 -90 15
-67 12 -263 23 -421 24 -92 1 -98 2 -135 32 -148 120 -419 161 -583 88 l-44
-19 39 -26 c22 -15 52 -41 68 -58 121 -132 149 -156 199 -174 35 -14 69 -19
106 -16 l54 4 -49 -35 c-64 -45 -191 -171 -264 -260 -58 -71 -135 -198 -146
-239 -4 -17 -13 -22 -42 -24 -32 -2 -94 -12 -171 -27 -89 -17 -129 -15 -231
11 -140 35 -268 37 -394 5 -91 -23 -164 -23 -208 0 -16 9 -18 5 -18 -30 0 -55
33 -140 74 -187 64 -75 199 -125 255 -94 35 18 26 -15 -34 -135 -73 -144 -99
-247 -93 -370 3 -82 8 -101 41 -168 125 -254 490 -354 681 -187 106 94 126
289 38 390 -41 48 -59 59 -113 66 -139 20 -271 -117 -237 -246 6 -19 23 -51
38 -71 27 -34 28 -38 13 -59 -14 -19 -22 -22 -62 -17 -64 8 -107 32 -172 96
-181 182 -162 466 46 677 81 81 167 143 269 189 98 46 250 83 272 66 5 -3 9
-51 9 -106 1 -211 96 -371 271 -456 61 -30 79 -34 149 -34 119 0 177 36 218
134 16 37 8 108 -16 141 -54 77 -174 102 -272 56 -27 -12 -56 -30 -64 -39 -19
-23 -26 -22 -61 14 -52 55 -89 197 -73 281 5 25 8 26 52 23 295 -22 579 -308
886 -890 32 -60 77 -147 101 -192 24 -45 44 -88 44 -95 0 -7 -14 -29 -31 -48
-188 -215 -265 -300 -271 -300 -13 0 -73 99 -106 175 -83 192 -135 404 -136
563 0 23 -1 42 -3 42 -9 0 -171 -85 -259 -136 -488 -281 -786 -626 -860 -994
-18 -91 -23 -241 -11 -329 l8 -54 -61 6 c-92 9 -195 62 -260 134 -232 253
-156 689 148 856 54 29 60 36 47 47 -44 37 -225 4 -325 -58 -28 -18 -49 -28
-46 -23 3 5 -13 46 -35 91 -68 136 -206 258 -323 286 l-30 7 25 -27 c72 -77
136 -263 169 -492 35 -241 85 -419 153 -544 112 -207 284 -335 525 -391 l91
-21 56 -73 c104 -137 212 -224 362 -295 l83 -39 -20 -50 c-24 -61 -54 -182
-70 -277 l-11 -72 -37 9 c-68 15 -189 70 -258 116 -150 101 -246 230 -280 371
-11 48 -13 162 -3 202 3 10 -2 14 -16 12 -59 -9 -115 -92 -109 -161 2 -23 13
-64 25 -91 12 -28 19 -53 16 -57 -8 -7 -40 14 -87 56 -108 97 -223 120 -376
73 l-58 -18 33 -23 c18 -13 56 -46 84 -73 60 -56 164 -129 221 -152 50 -21
144 -42 221 -50 85 -10 93 -13 155 -66 110 -95 392 -260 444 -260 10 0 16 -9
17 -22 0 -13 2 -39 4 -58 2 -19 6 -67 9 -105 4 -39 11 -86 16 -105 6 -19 10
-36 10 -37 0 -2 -33 19 -72 45 -165 110 -299 142 -410 99 l-48 -19 17 -31 c31
-62 141 -192 179 -214 80 -44 205 -60 287 -36 61 18 83 11 97 -32 13 -38 87
-147 174 -255 71 -87 225 -245 245 -252 27 -8 3 -24 -40 -27 -98 -5 -227 -69
-261 -129 l-18 -30 63 -25 c93 -37 169 -55 221 -51 51 3 124 40 159 81 38 43
51 46 114 19 230 -96 464 -146 669 -140 52 1 94 -2 94 -6 0 -5 3 -15 6 -23 4
-11 -4 -17 -25 -22 -44 -9 -113 -91 -141 -165 -13 -36 -24 -87 -25 -123 -1
-34 -7 -72 -13 -84 -18 -32 -11 -34 78 -18 55 10 150 65 206 120 65 64 101
134 116 227 13 81 13 82 147 189 79 64 158 109 191 109 32 0 104 -41 229 -129
63 -45 118 -81 123 -81 4 0 6 -11 4 -24 -7 -36 21 -144 49 -192 63 -107 188
-186 319 -201 l48 -5 -17 26 c-14 22 -16 34 -8 59 21 71 -1 160 -55 224 -28
31 -92 73 -113 73 -14 0 -19 7 -19 25 l0 25 103 -2 c90 -1 233 8 247 17 3 2
23 6 45 9 81 13 287 76 439 135 l50 19 54 -54 c69 -68 121 -89 205 -81 72 6
227 53 227 68 0 6 -14 29 -31 50 -39 49 -153 106 -232 115 -31 4 -57 10 -57
13 0 3 16 17 35 30 102 69 405 435 405 488 0 23 41 32 80 17 78 -33 236 -19
312 26 40 23 188 198 188 222 0 8 -21 22 -51 32 -102 37 -251 4 -407 -89 -49
-29 -72 -39 -68 -28 13 34 27 109 33 178 3 38 7 77 9 85 1 8 3 18 3 23 1 4 9
7 19 7 58 0 385 210 485 312 10 10 28 19 40 20 28 2 54 4 142 13 141 14 253
66 388 179 43 36 87 68 97 71 29 9 18 20 -43 39 -93 29 -155 35 -219 20 -64
-15 -85 -26 -170 -92 -71 -55 -87 -48 -52 21 34 66 37 139 7 188 -20 32 -69
69 -91 69 -5 0 -7 -30 -4 -73 17 -263 -201 -518 -526 -617 -40 -12 -75 -20
-77 -18 -3 2 -7 26 -10 54 -11 88 -45 250 -65 309 -11 32 -20 59 -20 60 0 2
36 17 81 35 88 36 175 89 230 141 27 26 117 140 156 198 1 2 28 6 60 8 126 9
269 61 363 131 130 97 223 256 289 494 19 69 24 89 36 156 3 15 10 47 15 72 5
25 12 59 15 75 22 138 159 488 212 541 17 17 17 17 -15 11 -66 -13 -147 -62
-218 -132 -74 -73 -145 -172 -164 -230 l-11 -33 -48 32 c-88 60 -233 88 -268
53 -12 -12 -5 -19 46 -50 196 -121 296 -379 241 -618 -31 -135 -125 -269 -232
-332 -49 -28 -151 -57 -206 -57 -30 0 -33 2 -26 22 28 88 37 268 19 373 -54
316 -312 649 -729 940 -84 58 -367 228 -372 222 -1 -1 -4 -31 -7 -67 -6 -75
-37 -202 -73 -305 -61 -174 -176 -414 -201 -422 -13 -5 -125 104 -188 182 -22
28 -43 52 -46 55 -4 3 -20 27 -37 54 -31 48 -31 49 -13 75 10 14 49 82 86 151
129 235 305 516 358 573 7 6 30 35 52 62 105 133 247 253 363 308 63 29 189
57 228 49 27 -5 34 -28 34 -108 0 -104 -38 -191 -98 -223 -18 -9 -24 -7 -41
18 -42 58 -177 83 -253 47 -51 -24 -80 -74 -80 -134 1 -58 12 -88 47 -131 74
-87 210 -97 343 -24 90 49 152 124 186 226 24 72 30 112 30 216 l1 93 65 -6
c168 -18 393 -130 523 -261 143 -146 185 -368 101 -540 -67 -136 -251 -249
-323 -199 -27 19 -27 36 0 60 110 99 48 280 -113 328 -90 27 -188 -27 -225
-123 -26 -67 -23 -182 7 -244 80 -169 323 -222 537 -117 273 134 337 411 173
755 -37 77 -53 125 -43 125 2 0 14 -5 25 -11 32 -17 103 -12 156 11 80 35 161
129 176 205 18 85 18 88 -1 80 -27 -11 -156 -15 -168 -6 -5 5 -49 19 -97 30
-109 28 -214 26 -362 -4 -137 -29 -186 -26 -368 17 -78 18 -87 23 -93 47 -11
47 -74 164 -124 231 -64 85 -165 187 -249 251 -37 28 -56 48 -43 44 46 -14
116 -8 165 13 30 14 83 55 140 110 50 49 102 96 114 105 23 15 23 16 4 26 -96
51 -270 76 -395 56 -66 -11 -180 -70 -240 -125 -42 -38 -59 -48 -78 -44 -13 3
-123 7 -244 9 -178 2 -244 -1 -345 -16 -101 -15 -256 -55 -327 -85 -24 -10
-13 21 22 64 41 53 59 124 59 242 0 100 -9 140 -29 140 -29 0 -141 -57 -180
-91 -58 -51 -91 -110 -136 -247 -47 -143 -74 -192 -127 -225 -72 -46 -131 -51
-210 -17 -79 34 -102 70 -118 185 -18 137 -40 189 -107 262 -40 44 -178 133
-205 133 -7 0 -20 -16 -28 -36z m-324 -463 c195 -30 376 -85 633 -195 66 -29
45 -56 -83 -105 -100 -39 -258 -81 -530 -141 -325 -73 -347 -78 -327 -80 105
-13 340 -117 497 -220 179 -118 337 -254 401 -346 l28 -42 -176 -176 c-97 -97
-180 -175 -184 -174 -4 2 -50 62 -102 134 -52 72 -102 140 -110 150 -9 10 -46
57 -83 104 -213 268 -443 440 -674 504 -99 28 -194 42 -330 50 -43 3 -45 4
-42 32 4 32 53 134 83 174 143 184 361 302 628 339 75 10 278 6 371 -8z m2215
-6 c221 -33 417 -137 539 -285 49 -60 98 -165 111 -238 4 -27 3 -28 -38 -30
-23 -1 -78 -7 -122 -13 -76 -10 -93 -12 -156 -24 -75 -14 -213 -61 -293 -100
-199 -98 -342 -231 -619 -577 -83 -104 -155 -188 -161 -188 -6 0 -87 76 -180
169 -190 190 -180 165 -101 252 33 38 107 102 199 176 56 45 254 168 341 211
135 68 193 91 300 118 50 12 87 23 83 23 -3 1 -53 10 -110 22 -57 11 -114 23
-128 25 -20 4 -152 32 -324 69 -60 13 -194 50 -276 76 -117 37 -174 67 -178
96 -3 18 12 26 123 67 228 84 420 133 600 152 33 3 61 8 63 9 6 5 284 -3 327
-10z m-1115 -370 c107 -40 239 -88 292 -106 54 -19 98 -36 98 -39 0 -3 -32
-21 -72 -40 -144 -70 -446 -251 -491 -294 -7 -6 -25 -21 -40 -33 l-29 -22 -51
40 c-86 69 -298 186 -497 275 -94 43 -95 43 -65 54 17 6 165 64 330 129 165
66 307 117 315 114 8 -3 103 -38 210 -78z m364 -300 c-27 -19 -60 -43 -74 -52
-154 -111 -479 -434 -671 -667 -13 -16 -31 -37 -39 -45 -22 -24 -202 -247
-295 -366 -75 -96 -118 -147 -225 -269 -50 -58 -386 -395 -442 -444 -257 -224
-537 -390 -741 -438 -70 -17 -167 -26 -167 -16 0 4 30 18 68 31 312 111 628
352 977 746 15 17 74 86 133 155 59 69 109 127 112 130 3 3 27 32 55 65 27 33
52 62 55 65 3 3 32 37 65 75 260 304 574 628 725 748 123 99 272 198 391 261
120 64 144 71 73 21z m-797 -221 c47 -31 87 -63 90 -71 3 -8 -6 -27 -21 -42
l-27 -28 -62 61 c-34 33 -98 94 -142 134 l-80 72 79 -35 c44 -20 117 -61 163
-91z m-1117 57 c114 -84 285 -291 498 -605 l101 -148 -37 -45 -37 -44 -30 34
c-16 19 -65 96 -109 171 -43 76 -146 233 -229 349 -254 357 -243 341 -216 327
13 -7 40 -25 59 -39z m2714 17 c-4 -6 -72 -99 -152 -207 -138 -187 -324 -460
-372 -546 -140 -251 -492 -848 -618 -1047 -147 -233 -296 -439 -421 -583 -48
-54 -267 -272 -316 -314 -61 -52 -222 -164 -301 -209 -165 -96 -413 -181 -567
-197 -23 -3 -64 -7 -92 -11 -27 -3 -48 -4 -45 -1 3 2 69 30 147 61 266 104
519 248 692 391 224 185 411 389 592 645 142 200 190 278 419 675 190 330 286
485 382 617 37 51 97 136 134 188 142 201 300 376 439 486 82 66 91 72 79 52z
m-1059 -603 c51 -55 113 -125 138 -155 44 -52 45 -56 30 -80 -42 -71 -38 -71
-103 -2 -32 34 -78 85 -102 114 -47 56 -127 145 -170 190 -16 16 -28 31 -28
34 0 4 14 24 32 46 l32 41 39 -44 c22 -24 81 -89 132 -144z m-245 -115 c36
-39 111 -132 167 -207 l102 -136 -19 -26 c-10 -14 -46 -71 -81 -126 -34 -55
-86 -136 -114 -180 -28 -44 -80 -126 -116 -182 -35 -56 -67 -103 -70 -103 -4
0 -16 17 -27 38 -10 20 -51 96 -89 167 -88 164 -173 323 -189 354 -8 14 -10
29 -5 35 5 6 59 79 120 161 61 83 117 157 124 165 7 9 31 41 55 73 51 68 50
68 142 -33z m-1637 -32 c-27 -136 -22 -372 11 -584 10 -60 57 -264 67 -292 9
-22 2 -32 -63 -97 -238 -235 -476 -357 -718 -367 -34 -2 -44 8 -70 65 -48 102
-64 180 -64 302 0 132 17 203 78 330 93 194 278 394 534 579 72 52 226 145
233 140 3 -2 0 -36 -8 -76z m3260 -29 c162 -109 252 -182 373 -303 155 -156
246 -297 295 -456 35 -110 33 -274 -4 -385 -15 -44 -40 -102 -55 -130 l-27
-50 -85 1 c-197 1 -462 144 -703 379 l-58 57 35 131 c49 181 67 260 82 366 4
25 9 55 11 66 8 38 11 310 4 358 -5 29 -4 47 2 47 5 0 64 -36 130 -81z m-3113
-434 c29 -66 65 -145 81 -176 l28 -56 -31 -43 c-28 -38 -33 -41 -44 -26 -10
15 -43 131 -60 216 -2 14 -9 48 -15 75 -13 66 -23 141 -16 135 2 -3 28 -59 57
-125z m2834 23 c-3 -24 -10 -65 -15 -93 -6 -27 -13 -63 -16 -79 -9 -52 -98
-308 -153 -436 -70 -165 -236 -491 -340 -665 -338 -568 -740 -1027 -1121
-1278 -84 -56 -285 -157 -311 -157 -7 0 19 21 57 46 282 185 645 585 1025
1128 347 497 716 1147 836 1474 21 56 39 102 40 102 2 0 1 -19 -2 -42z m-576
-12 c28 -42 106 -122 200 -207 l73 -65 -21 -55 c-12 -30 -25 -57 -29 -62 -6
-6 -109 94 -264 260 l-58 62 33 50 c18 28 35 51 38 51 3 0 15 -15 28 -34z
m-1241 -164 c39 -70 88 -158 108 -197 21 -38 62 -112 92 -163 60 -103 61 -112
10 -176 l-24 -29 -68 104 c-114 174 -193 304 -241 399 l-45 90 38 50 c21 27
43 49 48 50 6 0 42 -57 82 -128z m-112 -362 c210 -346 200 -327 186 -354 -36
-65 -299 -366 -320 -366 -18 0 -203 316 -312 532 l-63 126 131 134 c73 73 146
150 164 171 17 20 34 37 38 37 3 0 83 -126 176 -280z m1239 228 c98 -83 246
-235 246 -253 0 -38 -364 -648 -400 -670 -6 -4 -32 10 -58 31 -73 59 -238 227
-255 261 l-17 31 202 326 c112 179 207 326 212 326 5 0 37 -23 70 -52z m716
-318 c41 -40 164 -133 243 -185 113 -73 236 -130 332 -154 76 -19 101 -30 74
-32 -8 -1 -26 -2 -42 -3 -84 -8 -258 45 -427 130 -119 60 -261 158 -256 177 2
7 10 33 16 60 13 50 15 50 60 7z m-2537 -147 c24 -49 101 -184 171 -302 70
-118 136 -232 146 -252 l19 -37 -44 -36 -44 -36 -19 27 c-56 79 -342 633 -342
662 0 7 58 60 67 61 0 0 21 -39 46 -87z m2582 -164 c230 -108 553 -178 678
-146 18 5 27 4 27 -5 0 -27 -150 -148 -237 -191 l-33 -15 -84 81 c-139 135
-249 189 -386 189 -91 0 -151 -24 -203 -81 -123 -136 -8 -308 232 -347 18 -3
43 -8 55 -10 27 -5 241 -5 283 1 28 4 33 1 51 -38 37 -80 55 -160 56 -249 1
-47 -2 -89 -5 -92 -12 -13 -56 -18 -164 -21 -89 -3 -131 1 -218 21 -182 42
-395 141 -550 255 -66 48 -68 51 -53 72 16 23 92 147 112 182 72 129 185 339
221 413 l45 93 36 -33 c20 -17 82 -53 137 -79z m-2695 -150 c69 -139 149 -293
178 -343 39 -66 51 -95 45 -106 -16 -25 -155 -117 -264 -174 -193 -100 -375
-149 -539 -145 -116 3 -167 15 -182 42 -22 43 8 236 53 335 l20 43 57 -7 c31
-3 66 -8 77 -10 32 -6 186 -6 230 1 148 22 248 87 273 178 18 65 -1 129 -55
178 -52 49 -92 63 -183 65 -150 4 -242 -40 -398 -190 -35 -34 -70 -62 -78 -64
-15 -4 -92 50 -149 104 -39 37 -105 115 -105 125 0 4 35 6 77 5 43 -1 100 1
128 5 27 4 70 11 95 14 133 20 388 98 505 155 44 21 82 39 85 39 3 1 61 -112
130 -250z m1430 -16 c25 -31 92 -99 150 -151 58 -52 107 -99 109 -104 5 -15
-51 -88 -63 -81 -62 37 -316 275 -316 296 0 11 62 97 69 97 4 0 26 -25 51 -57z
m-1635 -23 c59 -28 81 -74 61 -125 -9 -25 -85 -65 -154 -81 -62 -15 -279 -25
-329 -16 -21 4 -22 6 -8 32 19 38 112 130 158 159 86 53 200 66 272 31z m3040
-35 c72 -35 178 -141 198 -197 6 -16 -5 -17 -136 -14 -147 4 -237 20 -308 57
-114 58 -80 167 58 188 61 9 124 -2 188 -34z m-1541 -203 c61 -59 140 -133
176 -164 61 -55 63 -58 47 -76 -9 -10 -17 -23 -17 -28 -1 -27 -330 -456 -360
-469 -10 -5 -31 11 -63 47 -81 89 -192 229 -252 317 l-57 85 203 198 c112 109
206 198 208 198 3 0 55 -49 115 -108z m833 -329 c56 -35 222 -117 273 -134
194 -64 311 -107 304 -111 -35 -21 -257 25 -419 87 -74 28 -234 110 -253 130
-7 7 19 65 29 65 5 0 34 -17 66 -37z m-1377 -150 c103 -141 209 -274 261 -329
l39 -40 -26 -25 -26 -24 -71 75 c-61 64 -293 352 -321 399 -7 10 -1 21 20 38
16 12 31 23 34 23 3 -1 43 -53 90 -117z m1451 -113 c296 -88 688 -121 896 -75
l33 7 -4 -83 c-4 -103 -27 -192 -72 -282 -96 -192 -257 -359 -477 -496 -387
-240 -825 -301 -1135 -158 -70 32 -152 87 -152 101 0 13 34 62 60 87 35 35
128 99 143 99 8 0 57 -11 109 -24 87 -23 167 -40 248 -51 74 -10 231 -5 300 9
91 19 153 49 202 97 121 117 77 298 -92 377 -56 26 -158 35 -240 20 -68 -12
-169 -55 -260 -112 -51 -32 -105 -58 -120 -58 -34 -1 -185 88 -199 118 -8 19
-3 27 42 65 41 35 182 177 232 233 6 6 56 61 113 123 l103 111 84 -39 c47 -21
130 -52 186 -69z m-1727 78 c11 -13 33 -39 50 -58 17 -20 51 -60 76 -90 114
-137 222 -259 259 -293 23 -20 41 -41 41 -46 0 -11 -80 -83 -137 -122 -67 -46
-94 -41 -198 41 -207 163 -422 189 -560 68 -122 -108 -128 -262 -13 -364 137
-120 426 -132 793 -33 38 11 75 19 81 19 18 0 133 -110 151 -143 15 -31 15
-31 -18 -59 -70 -59 -257 -134 -384 -154 -235 -37 -526 29 -770 173 -70 42
-215 156 -280 220 -204 203 -322 444 -323 658 0 67 2 76 16 70 67 -27 148 -34
347 -30 116 2 228 7 250 10 141 19 196 29 300 55 115 28 251 75 270 91 15 14
29 10 49 -13z m-133 -569 c30 -13 105 -53 167 -90 126 -75 124 -69 39 -128
-156 -107 -400 -81 -502 53 -54 71 -35 138 49 178 55 26 170 20 247 -13z
m1880 11 c53 -15 102 -51 110 -82 16 -59 -62 -137 -172 -171 -108 -34 -254
-25 -371 24 -79 33 -87 43 -59 73 29 30 229 132 296 151 61 16 147 18 196 5z
m-796 -83 c44 -32 88 -65 97 -72 10 -8 36 -27 58 -41 70 -47 5 -49 -82 -3 -19
9 -201 124 -217 136 -10 7 43 52 53 46 6 -4 47 -33 91 -66z m-152 -118 c37
-24 66 -47 65 -50 -2 -4 -41 -37 -88 -74 l-84 -68 -51 27 c-61 32 -145 105
-128 112 6 3 49 32 94 64 75 54 85 58 104 46 11 -7 50 -33 88 -57z"/>
</g>
</svg>
