<svg xmlns="http://www.w3.org/2000/svg" xmlns:xlink="http://www.w3.org/1999/xlink" version="1.2" width="594.00mm" height="420.00mm" viewBox="0.0000 -0.0000 355.8092 251.5823">
<style type="text/css">
<![CDATA[
tspan { white-space: pre; }
]]>
</style>
<g transform="translate(17.9702, 56.2241)">
<line stroke-linejoin="round" stroke-linecap="round" stroke-width="0.0944" stroke="currentColor" x1="0.0472" y1="0" x2="144.9918" y2="0"/>
</g>
<g transform="translate(17.9702, 55.4873)">
<line stroke-linejoin="round" stroke-linecap="round" stroke-width="0.0944" stroke="currentColor" x1="0.0472" y1="0" x2="144.9918" y2="0"/>
</g>
<g transform="translate(17.9702, 54.7504)">
<line stroke-linejoin="round" stroke-linecap="round" stroke-width="0.0944" stroke="currentColor" x1="0.0472" y1="0" x2="144.9918" y2="0"/>
</g>
<g transform="translate(17.9702, 54.0136)">
<line stroke-linejoin="round" stroke-linecap="round" stroke-width="0.0944" stroke="currentColor" x1="0.0472" y1="0" x2="144.9918" y2="0"/>
</g>
<g transform="translate(17.9702, 53.2768)">
<line stroke-linejoin="round" stroke-linecap="round" stroke-width="0.0944" stroke="currentColor" x1="0.0472" y1="0" x2="144.9918" y2="0"/>
</g>
<g transform="translate(88.1222, 54.7504)">
<rect x="0.0000" y="-1.4737" width="0.1794" height="2.9474" ry="0.0000" fill="currentColor"/>
</g>
<g transform="translate(120.1119, 54.7504)">
<rect x="0.0000" y="-1.4737" width="0.1794" height="2.9474" ry="0.0000" fill="currentColor"/>
</g>
<g transform="translate(162.8298, 54.7504)">
<rect x="0.0000" y="-1.4737" width="0.1794" height="2.9474" ry="0.0000" fill="currentColor"/>
</g>
<g transform="translate(56.3824, 54.7504)">
<rect x="0.0000" y="-1.4737" width="0.1794" height="2.9474" ry="0.0000" fill="currentColor"/>
</g>
<g transform="translate(17.9702, 56.9610)">
<rect x="135.1315" y="-0.0841" width="1.4347" height="0.1681" ry="0.0841" fill="currentColor"/>
</g>
<g transform="translate(17.9702, 56.9610)">
<rect x="133.3251" y="-0.0841" width="1.4347" height="0.1681" ry="0.0841" fill="currentColor"/>
</g>
<g transform="translate(17.9702, 56.9610)">
<rect x="131.7686" y="-0.0841" width="1.4347" height="0.1681" ry="0.0841" fill="currentColor"/>
</g>
<g transform="translate(17.9702, 57.6978)">
<rect x="131.7686" y="-0.0841" width="1.4347" height="0.1681" ry="0.0841" fill="currentColor"/>
</g>
<g transform="translate(17.9702, 56.9610)">
<rect x="130.2689" y="-0.0841" width="1.3779" height="0.1681" ry="0.0841" fill="currentColor"/>
</g>
<g transform="translate(17.9702, 56.9610)">
<rect x="127.8639" y="-0.0841" width="1.3706" height="0.1681" ry="0.0841" fill="currentColor"/>
</g>
<g transform="translate(17.9702, 52.5399)">
<rect x="107.1446" y="-0.0841" width="1.3956" height="0.1681" ry="0.0841" fill="currentColor"/>
</g>
<g transform="translate(17.9702, 52.5399)">
<rect x="105.6490" y="-0.0841" width="1.3956" height="0.1681" ry="0.0841" fill="currentColor"/>
</g>
<g transform="translate(17.9702, 56.9610)">
<rect x="82.4812" y="-0.0841" width="1.4347" height="0.1681" ry="0.0841" fill="currentColor"/>
</g>
<g transform="translate(17.9702, 56.9610)">
<rect x="74.7053" y="-0.0841" width="1.4347" height="0.1681" ry="0.0841" fill="currentColor"/>
</g>
<g transform="translate(17.9702, 56.9610)">
<rect x="72.8988" y="-0.0841" width="1.4347" height="0.1681" ry="0.0841" fill="currentColor"/>
</g>
<g transform="translate(17.9702, 52.5399)">
<rect x="68.3564" y="-0.0841" width="1.4347" height="0.1681" ry="0.0841" fill="currentColor"/>
</g>
<g transform="translate(17.9702, 56.9610)">
<rect x="50.4915" y="-0.0841" width="1.4347" height="0.1681" ry="0.0841" fill="currentColor"/>
</g>
<g transform="translate(17.9702, 56.9610)">
<rect x="41.1591" y="-0.0841" width="1.4347" height="0.1681" ry="0.0841" fill="currentColor"/>
</g>
<g transform="translate(17.9702, 52.5399)">
<rect x="36.6167" y="-0.0841" width="1.4347" height="0.1681" ry="0.0841" fill="currentColor"/>
</g>
<g transform="translate(17.9702, 52.5399)">
<rect x="34.8102" y="-0.0841" width="1.4347" height="0.1681" ry="0.0841" fill="currentColor"/>
</g>
<g transform="translate(122.9469, 54.7504)">
<rect x="-0.0614" y="-5.0283" width="0.1228" height="4.5406" ry="0.0421" fill="currentColor"/>
</g>
<g transform="translate(122.0518, 54.3820)">
<path transform="scale(0.0029, -0.0029)" d="M208 139c61 0 117 -33 117 -99c0 -71 -52 -119 -99 -147c-34 -20 -71 -32 -110 -32c-61 0 -116 33 -116 99c0 71 51 119 98 147c34 20 71 32 110 32z" fill="currentColor"/>
</g>
<g transform="translate(120.8913, 54.3820)">
<path transform="scale(0.0029, -0.0029)" d="M0 114c0 12 7 22 18 26l37 15v151c0 12 10 22 22 22s22 -10 22 -22v-134l77 29v152c0 12 10 22 22 22s22 -10 22 -22v-134l16 6c3 1 8 2 11 2c15 0 28 -12 28 -28v-50c0 -12 -7 -23 -18 -27l-37 -14v-152l16 7c3 1 8 2 11 2c15 0 28 -13 28 -29v-50c0 -12 -7 -22 -18 -26
l-37 -15v-151c0 -12 -10 -22 -22 -22s-22 10 -22 22v134l-77 -29v-152c0 -12 -10 -22 -22 -22s-22 10 -22 22v134l-16 -6c-3 -1 -8 -2 -11 -2c-15 0 -28 12 -28 28v50c0 12 7 23 18 27l37 14v152l-16 -7c-3 -1 -8 -2 -11 -2c-15 0 -28 13 -28 29v50zM176 91l-77 -30v-152
l77 30v152z" fill="currentColor"/>
</g>
<g transform="translate(131.5408, 54.0136)">
<path transform="scale(0.0029, -0.0029)" d="M208 139c61 0 117 -33 117 -99c0 -71 -52 -119 -99 -147c-34 -20 -71 -32 -110 -32c-61 0 -116 33 -116 99c0 71 51 119 98 147c34 20 71 32 110 32z" fill="currentColor"/>
</g>
<g transform="translate(115.4424, 53.6452)">
<path transform="scale(0.0029, -0.0029)" d="M208 139c61 0 117 -33 117 -99c0 -71 -52 -119 -99 -147c-34 -20 -71 -32 -110 -32c-61 0 -116 33 -116 99c0 71 51 119 98 147c34 20 71 32 110 32z" fill="currentColor"/>
</g>
<g transform="translate(116.3375, 54.7504)">
<rect x="-0.0614" y="-3.8669" width="0.1228" height="2.6424" ry="0.0421" fill="currentColor"/>
</g>
<g transform="translate(116.9989, 53.2768)">
<path transform="scale(0.0029, -0.0029)" d="M208 139c61 0 117 -33 117 -99c0 -71 -52 -119 -99 -147c-34 -20 -71 -32 -110 -32c-61 0 -116 33 -116 99c0 71 51 119 98 147c34 20 71 32 110 32z" fill="currentColor"/>
</g>
<g transform="translate(117.8940, 54.7504)">
<rect x="-0.0614" y="-4.0750" width="0.1228" height="2.4821" ry="0.0421" fill="currentColor"/>
</g>
<g transform="translate(118.5554, 52.9083)">
<path transform="scale(0.0029, -0.0029)" d="M208 139c61 0 117 -33 117 -99c0 -71 -52 -119 -99 -147c-34 -20 -71 -32 -110 -32c-61 0 -116 33 -116 99c0 71 51 119 98 147c34 20 71 32 110 32z" fill="currentColor"/>
</g>
<g transform="translate(119.4505, 54.7504)">
<rect x="-0.0614" y="-4.2832" width="0.1228" height="2.3219" ry="0.0421" fill="currentColor"/>
</g>
<g transform="translate(128.4278, 53.2768)">
<path transform="scale(0.0029, -0.0029)" d="M208 139c61 0 117 -33 117 -99c0 -71 -52 -119 -99 -147c-34 -20 -71 -32 -110 -32c-61 0 -116 33 -116 99c0 71 51 119 98 147c34 20 71 32 110 32z" fill="currentColor"/>
</g>
<g transform="translate(129.3229, 54.7504)">
<rect x="-0.0614" y="-5.0283" width="0.1228" height="3.4354" ry="0.0421" fill="currentColor"/>
</g>
<g transform="translate(127.7664, 54.7504)">
<rect x="-0.0614" y="-5.0283" width="0.1228" height="3.0669" ry="0.0421" fill="currentColor"/>
</g>
<g transform="translate(129.9843, 53.6452)">
<path transform="scale(0.0029, -0.0029)" d="M208 139c61 0 117 -33 117 -99c0 -71 -52 -119 -99 -147c-34 -20 -71 -32 -110 -32c-61 0 -116 33 -116 99c0 71 51 119 98 147c34 20 71 32 110 32z" fill="currentColor"/>
</g>
<g transform="translate(130.8794, 54.7504)">
<rect x="-0.0614" y="-5.0283" width="0.1228" height="3.8038" ry="0.0421" fill="currentColor"/>
</g>
<g transform="translate(123.8583, 52.1715)">
<path transform="scale(0.0029, -0.0029)" d="M208 139c61 0 117 -33 117 -99c0 -71 -52 -119 -99 -147c-34 -20 -71 -32 -110 -32c-61 0 -116 33 -116 99c0 71 51 119 98 147c34 20 71 32 110 32z" fill="currentColor"/>
</g>
<g transform="translate(124.7534, 54.7504)">
<rect x="-0.0614" y="-5.0283" width="0.1228" height="2.3301" ry="0.0421" fill="currentColor"/>
</g>
<g transform="translate(125.3148, 52.5399)">
<path transform="scale(0.0029, -0.0029)" d="M208 139c61 0 117 -33 117 -99c0 -71 -52 -119 -99 -147c-34 -20 -71 -32 -110 -32c-61 0 -116 33 -116 99c0 71 51 119 98 147c34 20 71 32 110 32z" fill="currentColor"/>
</g>
<g transform="translate(126.2099, 54.7504)">
<rect x="-0.0614" y="-5.0283" width="0.1228" height="2.6985" ry="0.0421" fill="currentColor"/>
</g>
<g transform="translate(126.8713, 52.9083)">
<path transform="scale(0.0029, -0.0029)" d="M208 139c61 0 117 -33 117 -99c0 -71 -52 -119 -99 -147c-34 -20 -71 -32 -110 -32c-61 0 -116 33 -116 99c0 71 51 119 98 147c34 20 71 32 110 32z" fill="currentColor"/>
</g>
<g transform="translate(100.6905, 57.3294)">
<path transform="scale(0.0029, -0.0029)" d="M208 139c61 0 117 -33 117 -99c0 -71 -52 -119 -99 -147c-34 -20 -71 -32 -110 -32c-61 0 -116 33 -116 99c0 71 51 119 98 147c34 20 71 32 110 32z" fill="currentColor"/>
</g>
<g transform="translate(98.7840, 56.5926)">
<path transform="scale(0.0029, -0.0029)" d="M208 139c61 0 117 -33 117 -99c0 -71 -52 -119 -99 -147c-34 -20 -71 -32 -110 -32c-61 0 -116 33 -116 99c0 71 51 119 98 147c34 20 71 32 110 32z" fill="currentColor"/>
</g>
<g transform="translate(99.6791, 54.7504)">
<rect x="-0.0614" y="-0.7423" width="0.1228" height="2.4652" ry="0.0421" fill="currentColor"/>
</g>
<g transform="translate(101.5856, 54.7504)">
<rect x="-0.0614" y="-0.9115" width="0.1228" height="3.3712" ry="0.0421" fill="currentColor"/>
</g>
<g transform="translate(103.0970, 56.5926)">
<path transform="scale(0.0029, -0.0029)" d="M208 139c61 0 117 -33 117 -99c0 -71 -52 -119 -99 -147c-34 -20 -71 -32 -110 -32c-61 0 -116 33 -116 99c0 71 51 119 98 147c34 20 71 32 110 32z" fill="currentColor"/>
</g>
<g transform="translate(103.9921, 54.7504)">
<rect x="-0.0614" y="-1.1250" width="0.1228" height="2.8479" ry="0.0421" fill="currentColor"/>
</g>
<g transform="translate(94.4710, 56.5926)">
<path transform="scale(0.0029, -0.0029)" d="M208 139c61 0 117 -33 117 -99c0 -71 -52 -119 -99 -147c-34 -20 -71 -32 -110 -32c-61 0 -116 33 -116 99c0 71 51 119 98 147c34 20 71 32 110 32z" fill="currentColor"/>
</g>
<g transform="translate(149.9779, 54.7504)">
<path stroke-width="0.0755" stroke-linejoin="round" stroke-linecap="round" stroke="currentColor" fill="currentColor" d="M0.8809 -1.8921C2.4386 -3.1861 10.2596 -3.5349 11.9263 -2.3846L11.9263 -2.3846C10.2647 -3.4217 2.4436 -3.0729 0.8809 -1.8921z"/>
</g>
<g transform="translate(92.9146, 56.9610)">
<path transform="scale(0.0029, -0.0029)" d="M208 139c61 0 117 -33 117 -99c0 -71 -52 -119 -99 -147c-34 -20 -71 -32 -110 -32c-61 0 -116 33 -116 99c0 71 51 119 98 147c34 20 71 32 110 32z" fill="currentColor"/>
</g>
<g transform="translate(93.8097, 54.7504)">
<rect x="-0.0614" y="-2.6576" width="0.1228" height="4.7489" ry="0.0421" fill="currentColor"/>
</g>
<g transform="translate(95.3661, 54.7504)">
<rect x="-0.0614" y="-2.4847" width="0.1228" height="4.2076" ry="0.0421" fill="currentColor"/>
</g>
<g transform="translate(96.8775, 55.8557)">
<path transform="scale(0.0029, -0.0029)" d="M208 139c61 0 117 -33 117 -99c0 -71 -52 -119 -99 -147c-34 -20 -71 -32 -110 -32c-61 0 -116 33 -116 99c0 71 51 119 98 147c34 20 71 32 110 32z" fill="currentColor"/>
</g>
<g transform="translate(97.7726, 54.7504)">
<rect x="-0.0614" y="-2.2173" width="0.1228" height="3.2034" ry="0.0421" fill="currentColor"/>
</g>
<g transform="translate(110.7729, 54.7504)">
<path transform="scale(0.0029, -0.0029)" d="M208 139c61 0 117 -33 117 -99c0 -71 -52 -119 -99 -147c-34 -20 -71 -32 -110 -32c-61 0 -116 33 -116 99c0 71 51 119 98 147c34 20 71 32 110 32z" fill="currentColor"/>
</g>
<g transform="translate(111.6681, 54.7504)">
<rect x="-0.0614" y="-3.2423" width="0.1228" height="3.1231" ry="0.0421" fill="currentColor"/>
</g>
<g transform="translate(112.3294, 54.3820)">
<path transform="scale(0.0029, -0.0029)" d="M208 139c61 0 117 -33 117 -99c0 -71 -52 -119 -99 -147c-34 -20 -71 -32 -110 -32c-61 0 -116 33 -116 99c0 71 51 119 98 147c34 20 71 32 110 32z" fill="currentColor"/>
</g>
<g transform="translate(113.2245, 54.7504)">
<rect x="-0.0614" y="-3.4505" width="0.1228" height="2.9628" ry="0.0421" fill="currentColor"/>
</g>
<g transform="translate(113.8859, 54.0136)">
<path transform="scale(0.0029, -0.0029)" d="M208 139c61 0 117 -33 117 -99c0 -71 -52 -119 -99 -147c-34 -20 -71 -32 -110 -32c-61 0 -116 33 -116 99c0 71 51 119 98 147c34 20 71 32 110 32z" fill="currentColor"/>
</g>
<g transform="translate(114.7810, 54.7504)">
<rect x="-0.0614" y="-3.6587" width="0.1228" height="2.8026" ry="0.0421" fill="currentColor"/>
</g>
<g transform="translate(107.6600, 55.4873)">
<path transform="scale(0.0029, -0.0029)" d="M208 139c61 0 117 -33 117 -99c0 -71 -52 -119 -99 -147c-34 -20 -71 -32 -110 -32c-61 0 -116 33 -116 99c0 71 51 119 98 147c34 20 71 32 110 32z" fill="currentColor"/>
</g>
<g transform="translate(105.5035, 55.8557)">
<path transform="scale(0.0029, -0.0029)" d="M208 139c61 0 117 -33 117 -99c0 -71 -52 -119 -99 -147c-34 -20 -71 -32 -110 -32c-61 0 -116 33 -116 99c0 71 51 119 98 147c34 20 71 32 110 32z" fill="currentColor"/>
</g>
<g transform="translate(106.3986, 54.7504)">
<rect x="-0.0614" y="-1.3386" width="0.1228" height="2.3246" ry="0.0421" fill="currentColor"/>
</g>
<g transform="translate(108.5551, 54.7504)">
<rect x="-0.0614" y="-2.8260" width="0.1228" height="3.4436" ry="0.0421" fill="currentColor"/>
</g>
<g transform="translate(109.2165, 55.1189)">
<path transform="scale(0.0029, -0.0029)" d="M208 139c61 0 117 -33 117 -99c0 -71 -52 -119 -99 -147c-34 -20 -71 -32 -110 -32c-61 0 -116 33 -116 99c0 71 51 119 98 147c34 20 71 32 110 32z" fill="currentColor"/>
</g>
<g transform="translate(110.1116, 54.7504)">
<rect x="-0.0614" y="-3.0341" width="0.1228" height="3.2833" ry="0.0421" fill="currentColor"/>
</g>
<g transform="translate(157.3489, 54.7504)">
<rect x="-0.0614" y="-1.6356" width="0.1228" height="2.9900" ry="0.0421" fill="currentColor"/>
</g>
<g transform="translate(158.0103, 55.8557)">
<path transform="scale(0.0029, -0.0029)" d="M208 139c61 0 117 -33 117 -99c0 -71 -52 -119 -99 -147c-34 -20 -71 -32 -110 -32c-61 0 -116 33 -116 99c0 71 51 119 98 147c34 20 71 32 110 32z" fill="currentColor"/>
</g>
<g transform="translate(158.9054, 54.7504)">
<rect x="-0.0614" y="-1.7050" width="0.1228" height="2.6910" ry="0.0421" fill="currentColor"/>
</g>
<g transform="translate(156.4538, 56.2241)">
<path transform="scale(0.0029, -0.0029)" d="M208 139c61 0 117 -33 117 -99c0 -71 -52 -119 -99 -147c-34 -20 -71 -32 -110 -32c-61 0 -116 33 -116 99c0 71 51 119 98 147c34 20 71 32 110 32z" fill="currentColor"/>
</g>
<g transform="translate(159.5668, 55.4873)">
<path transform="scale(0.0029, -0.0029)" d="M208 139c61 0 117 -33 117 -99c0 -71 -52 -119 -99 -147c-34 -20 -71 -32 -110 -32c-61 0 -116 33 -116 99c0 71 51 119 98 147c34 20 71 32 110 32z" fill="currentColor"/>
</g>
<g transform="translate(160.4619, 54.7504)">
<rect x="-0.0614" y="-1.7744" width="0.1228" height="2.3920" ry="0.0421" fill="currentColor"/>
</g>
<g transform="translate(152.4294, 54.7504)">
<rect x="-0.0614" y="-1.4162" width="0.1228" height="3.8759" ry="0.0421" fill="currentColor"/>
</g>
<g transform="translate(153.3408, 56.9610)">
<path transform="scale(0.0029, -0.0029)" d="M208 139c61 0 117 -33 117 -99c0 -71 -52 -119 -99 -147c-34 -20 -71 -32 -110 -32c-61 0 -116 33 -116 99c0 71 51 119 98 147c34 20 71 32 110 32z" fill="currentColor"/>
</g>
<g transform="translate(154.2359, 54.7504)">
<rect x="-0.0614" y="-1.4968" width="0.1228" height="3.5881" ry="0.0421" fill="currentColor"/>
</g>
<g transform="translate(161.0233, 56.2241)">
<path transform="scale(0.0029, -0.0029)" d="M208 139c61 0 117 -33 117 -99c0 -71 -52 -119 -99 -147c-34 -20 -71 -32 -110 -32c-61 0 -116 33 -116 99c0 71 51 119 98 147c34 20 71 32 110 32z" fill="currentColor"/>
</g>
<g transform="translate(154.8973, 56.5926)">
<path transform="scale(0.0029, -0.0029)" d="M208 139c61 0 117 -33 117 -99c0 -71 -52 -119 -99 -147c-34 -20 -71 -32 -110 -32c-61 0 -116 33 -116 99c0 71 51 119 98 147c34 20 71 32 110 32z" fill="currentColor"/>
</g>
<g transform="translate(155.7924, 54.7504)">
<rect x="-0.0614" y="-1.5662" width="0.1228" height="3.2891" ry="0.0421" fill="currentColor"/>
</g>
<g transform="translate(91.1081, 54.7504)">
<path stroke-width="0.0755" stroke-linejoin="round" stroke-linecap="round" stroke="currentColor" fill="currentColor" d="M0.9303 -3.4036C1.8042 -4.0561 3.5839 -3.8584 4.2933 -3.0300L4.2933 -3.0300C3.5714 -3.7458 1.7917 -3.9435 0.9303 -3.4036z"/>
</g>
<g transform="translate(44.5143, 51.1959)">
<polygon stroke-linejoin="round" stroke-linecap="round" stroke-width="0.0842" fill="currentColor" stroke="currentColor" points="11.2261 -1.6084 11.2261 -1.3389 0.0421 0.1347 0.0421 -0.1347"/>
</g>
<g transform="translate(44.5143, 51.8031)">
<polygon stroke-linejoin="round" stroke-linecap="round" stroke-width="0.0842" fill="currentColor" stroke="currentColor" points="11.2261 -1.6084 11.2261 -1.3389 0.0421 0.1347 0.0421 -0.1347"/>
</g>
<g transform="translate(44.5143, 52.4103)">
<polygon stroke-linejoin="round" stroke-linecap="round" stroke-width="0.0842" fill="currentColor" stroke="currentColor" points="11.2261 -1.6084 11.2261 -1.3389 0.0421 0.1347 0.0421 -0.1347"/>
</g>
<g transform="translate(43.6805, 54.7504)">
<path stroke-width="0.0755" stroke-linejoin="round" stroke-linecap="round" stroke="currentColor" fill="currentColor" d="M0.8615 -4.1079C2.4927 -5.5702 12.7413 -6.6564 14.6428 -5.5685L14.6428 -5.5685C12.7532 -6.5437 2.5047 -5.4575 0.8615 -4.1079z"/>
</g>
<g transform="translate(58.2956, 51.1959)">
<polygon stroke-linejoin="round" stroke-linecap="round" stroke-width="0.0842" fill="currentColor" stroke="currentColor" points="7.5066 0.6021 7.5066 0.8716 0.0421 0.1347 0.0421 -0.1347"/>
</g>
<g transform="translate(58.2956, 51.8031)">
<polygon stroke-linejoin="round" stroke-linecap="round" stroke-width="0.0842" fill="currentColor" stroke="currentColor" points="7.5066 0.6021 7.5066 0.8716 0.0421 0.1347 0.0421 -0.1347"/>
</g>
<g transform="translate(60.2021, 52.5964)">
<polygon stroke-linejoin="round" stroke-linecap="round" stroke-width="0.0842" fill="currentColor" stroke="currentColor" points="1.6371 0.0292 1.6371 0.2987 0.0421 0.1347 0.0421 -0.1347"/>
</g>
<g transform="translate(59.3683, 54.7504)">
<path stroke-width="0.0755" stroke-linejoin="round" stroke-linecap="round" stroke="currentColor" fill="currentColor" d="M0.8885 -3.9078C1.6228 -4.6296 3.2379 -4.6631 4.0015 -3.9723L4.0015 -3.9723C3.2402 -4.5498 1.6252 -4.5163 0.8885 -3.9078z"/>
</g>
<g transform="translate(67.6280, 54.0136)">
<polygon stroke-linejoin="round" stroke-linecap="round" stroke-width="0.0842" fill="currentColor" stroke="currentColor" points="6.8001 -0.7420 6.8001 -0.4725 0.0421 0.1347 0.0421 -0.1347"/>
</g>
<g transform="translate(67.6280, 54.6208)">
<polygon stroke-linejoin="round" stroke-linecap="round" stroke-width="0.0842" fill="currentColor" stroke="currentColor" points="6.8001 -0.7420 6.8001 -0.4725 0.0421 0.1347 0.0421 -0.1347"/>
</g>
<g transform="translate(76.5040, 51.4347)">
<polygon stroke-linejoin="round" stroke-linecap="round" stroke-width="0.0842" fill="currentColor" stroke="currentColor" points="10.9761 -1.6084 10.9761 -1.3389 0.0421 0.1347 0.0421 -0.1347"/>
</g>
<g transform="translate(76.5040, 52.0419)">
<polygon stroke-linejoin="round" stroke-linecap="round" stroke-width="0.0842" fill="currentColor" stroke="currentColor" points="10.9761 -1.6084 10.9761 -1.3389 0.0421 0.1347 0.0421 -0.1347"/>
</g>
<g transform="translate(76.5040, 52.6491)">
<polygon stroke-linejoin="round" stroke-linecap="round" stroke-width="0.0842" fill="currentColor" stroke="currentColor" points="10.9761 -1.6084 10.9761 -1.3389 0.0421 0.1347 0.0421 -0.1347"/>
</g>
<g transform="translate(75.6702, 54.7504)">
<path stroke-width="0.0755" stroke-linejoin="round" stroke-linecap="round" stroke="currentColor" fill="currentColor" d="M0.8613 -3.8693C2.4794 -5.3267 12.5039 -6.3945 14.3927 -5.3106L14.3927 -5.3106C12.5159 -6.2819 2.4914 -5.2141 0.8613 -3.8693z"/>
</g>
<g transform="translate(90.0353, 51.6735)">
<polygon stroke-linejoin="round" stroke-linecap="round" stroke-width="0.0842" fill="currentColor" stroke="currentColor" points="7.7566 0.7317 7.7566 1.0012 0.0421 0.1347 0.0421 -0.1347"/>
</g>
<g transform="translate(90.0353, 52.2807)">
<polygon stroke-linejoin="round" stroke-linecap="round" stroke-width="0.0842" fill="currentColor" stroke="currentColor" points="7.7566 0.7317 7.7566 1.0012 0.0421 0.1347 0.0421 -0.1347"/>
</g>
<g transform="translate(91.9418, 53.0997)">
<polygon stroke-linejoin="round" stroke-linecap="round" stroke-width="0.0842" fill="currentColor" stroke="currentColor" points="1.8871 0.0796 1.8871 0.3491 0.0421 0.1347 0.0421 -0.1347"/>
</g>
<g transform="translate(35.6383, 53.2768)">
<polygon stroke-linejoin="round" stroke-linecap="round" stroke-width="0.0842" fill="currentColor" stroke="currentColor" points="6.8001 -0.7420 6.8001 -0.4725 0.0421 0.1347 0.0421 -0.1347"/>
</g>
<g transform="translate(35.6383, 53.8840)">
<polygon stroke-linejoin="round" stroke-linecap="round" stroke-width="0.0842" fill="currentColor" stroke="currentColor" points="6.8001 -0.7420 6.8001 -0.4725 0.0421 0.1347 0.0421 -0.1347"/>
</g>
<g transform="translate(99.6177, 54.0136)">
<polygon stroke-linejoin="round" stroke-linecap="round" stroke-width="0.0842" fill="currentColor" stroke="currentColor" points="6.8001 -0.7420 6.8001 -0.4725 0.0421 0.1347 0.0421 -0.1347"/>
</g>
<g transform="translate(99.6177, 54.6208)">
<polygon stroke-linejoin="round" stroke-linecap="round" stroke-width="0.0842" fill="currentColor" stroke="currentColor" points="6.8001 -0.7420 6.8001 -0.4725 0.0421 0.1347 0.0421 -0.1347"/>
</g>
<g transform="translate(108.4937, 51.9327)">
<polygon stroke-linejoin="round" stroke-linecap="round" stroke-width="0.0842" fill="currentColor" stroke="currentColor" points="10.9761 -1.6084 10.9761 -1.3389 0.0421 0.1347 0.0421 -0.1347"/>
</g>
<g transform="translate(108.4937, 52.5399)">
<polygon stroke-linejoin="round" stroke-linecap="round" stroke-width="0.0842" fill="currentColor" stroke="currentColor" points="10.9761 -1.6084 10.9761 -1.3389 0.0421 0.1347 0.0421 -0.1347"/>
</g>
<g transform="translate(108.4937, 53.1471)">
<polygon stroke-linejoin="round" stroke-linecap="round" stroke-width="0.0842" fill="currentColor" stroke="currentColor" points="10.9761 -1.6084 10.9761 -1.3389 0.0421 0.1347 0.0421 -0.1347"/>
</g>
<g transform="translate(107.6600, 54.7504)">
<path stroke-width="0.0755" stroke-linejoin="round" stroke-linecap="round" stroke="currentColor" fill="currentColor" d="M0.8528 -3.3712C2.2862 -4.7955 9.9910 -5.8260 11.7483 -4.8285L11.7483 -4.8285C10.0060 -5.7137 2.3012 -4.6832 0.8528 -3.3712z"/>
</g>
<g transform="translate(122.8855, 49.7222)">
<polygon stroke-linejoin="round" stroke-linecap="round" stroke-width="0.0842" fill="currentColor" stroke="currentColor" points="11.9819 -0.1347 11.9819 0.1347 0.0421 0.1347 0.0421 -0.1347"/>
</g>
<g transform="translate(122.8855, 50.3294)">
<polygon stroke-linejoin="round" stroke-linecap="round" stroke-width="0.0842" fill="currentColor" stroke="currentColor" points="11.9819 -0.1347 11.9819 0.1347 0.0421 0.1347 0.0421 -0.1347"/>
</g>
<g transform="translate(122.8855, 50.9366)">
<polygon stroke-linejoin="round" stroke-linecap="round" stroke-width="0.0842" fill="currentColor" stroke="currentColor" points="11.9819 -0.1347 11.9819 0.1347 0.0421 0.1347 0.0421 -0.1347"/>
</g>
<g transform="translate(123.8583, 54.7504)">
<path stroke-width="0.0755" stroke-linejoin="round" stroke-linecap="round" stroke="currentColor" fill="currentColor" d="M0.8951 -5.5735C2.4422 -6.7700 9.4428 -6.7700 10.9899 -5.5735L10.9899 -5.5735C9.4428 -6.6566 2.4422 -6.6566 0.8951 -5.5735z"/>
</g>
<g transform="translate(136.3433, 52.1715)">
<polygon stroke-linejoin="round" stroke-linecap="round" stroke-width="0.0842" fill="currentColor" stroke="currentColor" points="12.9925 1.1002 12.9925 1.3696 0.0421 0.1347 0.0421 -0.1347"/>
</g>
<g transform="translate(136.3433, 52.7787)">
<polygon stroke-linejoin="round" stroke-linecap="round" stroke-width="0.0842" fill="currentColor" stroke="currentColor" points="12.9925 1.1002 12.9925 1.3696 0.0421 0.1347 0.0421 -0.1347"/>
</g>
<g transform="translate(136.3433, 53.3859)">
<polygon stroke-linejoin="round" stroke-linecap="round" stroke-width="0.0842" fill="currentColor" stroke="currentColor" points="12.9925 1.1002 12.9925 1.3696 0.0421 0.1347 0.0421 -0.1347"/>
</g>
<g transform="translate(135.5096, 54.7504)">
<path stroke-width="0.0755" stroke-linejoin="round" stroke-linecap="round" stroke="currentColor" fill="currentColor" d="M0.9252 -3.1184C2.7661 -4.2158 12.2349 -3.3187 13.8370 -1.8951L13.8370 -1.8951C12.2242 -3.2059 2.7554 -4.1029 0.9252 -3.1184z"/>
</g>
<g transform="translate(150.8116, 53.4064)">
<polygon stroke-linejoin="round" stroke-linecap="round" stroke-width="0.0842" fill="currentColor" stroke="currentColor" points="11.1261 -0.6328 11.1261 -0.3633 0.0421 0.1347 0.0421 -0.1347"/>
</g>
<g transform="translate(150.8116, 54.0136)">
<polygon stroke-linejoin="round" stroke-linecap="round" stroke-width="0.0842" fill="currentColor" stroke="currentColor" points="11.1261 -0.6328 11.1261 -0.3633 0.0421 0.1347 0.0421 -0.1347"/>
</g>
<g transform="translate(150.8116, 54.6208)">
<polygon stroke-linejoin="round" stroke-linecap="round" stroke-width="0.0842" fill="currentColor" stroke="currentColor" points="11.1261 -0.6328 11.1261 -0.3633 0.0421 0.1347 0.0421 -0.1347"/>
</g>
<g transform="translate(161.9184, 54.7504)">
<rect x="-0.0614" y="-1.8394" width="0.1228" height="3.1938" ry="0.0421" fill="currentColor"/>
</g>
<g transform="translate(151.5343, 57.3294)">
<path transform="scale(0.0029, -0.0029)" d="M208 139c61 0 117 -33 117 -99c0 -71 -52 -119 -99 -147c-34 -20 -71 -32 -110 -32c-61 0 -116 33 -116 99c0 71 51 119 98 147c34 20 71 32 110 32z" fill="currentColor"/>
</g>
<g transform="translate(26.3059, 53.2768)">
<polygon stroke-linejoin="round" stroke-linecap="round" stroke-width="0.0842" fill="currentColor" stroke="currentColor" points="7.5066 -0.7420 7.5066 -0.4725 0.0421 0.1347 0.0421 -0.1347"/>
</g>
<g transform="translate(26.3059, 53.8840)">
<polygon stroke-linejoin="round" stroke-linecap="round" stroke-width="0.0842" fill="currentColor" stroke="currentColor" points="7.5066 -0.7420 7.5066 -0.4725 0.0421 0.1347 0.0421 -0.1347"/>
</g>
<g transform="translate(28.2123, 54.3378)">
<polygon stroke-linejoin="round" stroke-linecap="round" stroke-width="0.0842" fill="currentColor" stroke="currentColor" points="1.6371 -0.2698 1.6371 -0.0003 0.0421 0.1347 0.0421 -0.1347"/>
</g>
<g transform="translate(27.3786, 54.7504)">
<path stroke-width="0.0755" stroke-linejoin="round" stroke-linecap="round" stroke="currentColor" fill="currentColor" d="M0.8695 -2.1772C1.5612 -2.9430 3.1774 -3.0730 3.9825 -2.4277L3.9825 -2.4277C3.1865 -2.9600 1.5703 -2.8300 0.8695 -2.1772z"/>
</g>
<g transform="translate(137.0661, 55.1189)">
<path transform="scale(0.0029, -0.0029)" d="M208 139c61 0 117 -33 117 -99c0 -71 -52 -119 -99 -147c-34 -20 -71 -32 -110 -32c-61 0 -116 33 -116 99c0 71 51 119 98 147c34 20 71 32 110 32z" fill="currentColor"/>
</g>
<g transform="translate(137.9612, 54.7504)">
<rect x="-0.0614" y="-2.4257" width="0.1228" height="2.6749" ry="0.0421" fill="currentColor"/>
</g>
<g transform="translate(138.6226, 55.4873)">
<path transform="scale(0.0029, -0.0029)" d="M208 139c61 0 117 -33 117 -99c0 -71 -52 -119 -99 -147c-34 -20 -71 -32 -110 -32c-61 0 -116 33 -116 99c0 71 51 119 98 147c34 20 71 32 110 32z" fill="currentColor"/>
</g>
<g transform="translate(139.5177, 54.7504)">
<rect x="-0.0614" y="-2.2782" width="0.1228" height="2.8958" ry="0.0421" fill="currentColor"/>
</g>
<g transform="translate(140.1790, 55.8557)">
<path transform="scale(0.0029, -0.0029)" d="M208 139c61 0 117 -33 117 -99c0 -71 -52 -119 -99 -147c-34 -20 -71 -32 -110 -32c-61 0 -116 33 -116 99c0 71 51 119 98 147c34 20 71 32 110 32z" fill="currentColor"/>
</g>
<g transform="translate(141.0741, 54.7504)">
<rect x="-0.0614" y="-2.1307" width="0.1228" height="3.1168" ry="0.0421" fill="currentColor"/>
</g>
<g transform="translate(133.9531, 54.3820)">
<path transform="scale(0.0029, -0.0029)" d="M208 139c61 0 117 -33 117 -99c0 -71 -52 -119 -99 -147c-34 -20 -71 -32 -110 -32c-61 0 -116 33 -116 99c0 71 51 119 98 147c34 20 71 32 110 32z" fill="currentColor"/>
</g>
<g transform="translate(134.8482, 54.7504)">
<rect x="-0.0614" y="-5.0283" width="0.1228" height="4.5406" ry="0.0421" fill="currentColor"/>
</g>
<g transform="translate(133.0972, 54.3820)">
<path transform="scale(0.0029, -0.0029)" d="M-8 375c8 5 18 7 27 7s20 -2 28 -7l-3 -196l99 24h4c11 0 20 -8 20 -19l8 -559c-8 -5 -19 -7 -28 -7s-19 2 -27 7l3 196l-99 -24h-5c-11 0 -19 8 -19 19zM127 109l-85 -20l-2 -198l84 20z" fill="currentColor"/>
</g>
<g transform="translate(135.5096, 54.7504)">
<path transform="scale(0.0029, -0.0029)" d="M208 139c61 0 117 -33 117 -99c0 -71 -52 -119 -99 -147c-34 -20 -71 -32 -110 -32c-61 0 -116 33 -116 99c0 71 51 119 98 147c34 20 71 32 110 32z" fill="currentColor"/>
</g>
<g transform="translate(136.4047, 54.7504)">
<rect x="-0.0614" y="-2.5731" width="0.1228" height="2.4539" ry="0.0421" fill="currentColor"/>
</g>
<g transform="translate(144.8485, 56.9610)">
<path transform="scale(0.0029, -0.0029)" d="M0 114c0 12 7 22 18 26l37 15v151c0 12 10 22 22 22s22 -10 22 -22v-134l77 29v152c0 12 10 22 22 22s22 -10 22 -22v-134l16 6c3 1 8 2 11 2c15 0 28 -12 28 -28v-50c0 -12 -7 -23 -18 -27l-37 -14v-152l16 7c3 1 8 2 11 2c15 0 28 -13 28 -29v-50c0 -12 -7 -22 -18 -26
l-37 -15v-151c0 -12 -10 -22 -22 -22s-22 10 -22 22v134l-77 -29v-152c0 -12 -10 -22 -22 -22s-22 10 -22 22v134l-16 -6c-3 -1 -8 -2 -11 -2c-15 0 -28 12 -28 28v50c0 12 7 23 18 27l37 14v152l-16 -7c-3 -1 -8 -2 -11 -2c-15 0 -28 13 -28 29v50zM176 91l-77 -30v-152
l77 30v152z" fill="currentColor"/>
</g>
<g transform="translate(148.4214, 57.3294)">
<path transform="scale(0.0029, -0.0029)" d="M208 139c61 0 117 -33 117 -99c0 -71 -52 -119 -99 -147c-34 -20 -71 -32 -110 -32c-61 0 -116 33 -116 99c0 71 51 119 98 147c34 20 71 32 110 32z" fill="currentColor"/>
</g>
<g transform="translate(149.3165, 54.7504)">
<rect x="-0.0614" y="-1.3499" width="0.1228" height="3.8096" ry="0.0421" fill="currentColor"/>
</g>
<g transform="translate(147.5655, 57.3294)">
<path transform="scale(0.0029, -0.0029)" d="M-8 375c8 5 18 7 27 7s20 -2 28 -7l-3 -196l99 24h4c11 0 20 -8 20 -19l8 -559c-8 -5 -19 -7 -28 -7s-19 2 -27 7l3 196l-99 -24h-5c-11 0 -19 8 -19 19zM127 109l-85 -20l-2 -198l84 20z" fill="currentColor"/>
</g>
<g transform="translate(149.9779, 57.6978)">
<path transform="scale(0.0029, -0.0029)" d="M208 139c61 0 117 -33 117 -99c0 -71 -52 -119 -99 -147c-34 -20 -71 -32 -110 -32c-61 0 -116 33 -116 99c0 71 51 119 98 147c34 20 71 32 110 32z" fill="currentColor"/>
</g>
<g transform="translate(150.8730, 54.7504)">
<rect x="-0.0614" y="-1.3468" width="0.1228" height="4.1749" ry="0.0421" fill="currentColor"/>
</g>
<g transform="translate(141.7355, 56.2241)">
<path transform="scale(0.0029, -0.0029)" d="M208 139c61 0 117 -33 117 -99c0 -71 -52 -119 -99 -147c-34 -20 -71 -32 -110 -32c-61 0 -116 33 -116 99c0 71 51 119 98 147c34 20 71 32 110 32z" fill="currentColor"/>
</g>
<g transform="translate(142.6306, 54.7504)">
<rect x="-0.0614" y="-1.9833" width="0.1228" height="3.3377" ry="0.0421" fill="currentColor"/>
</g>
<g transform="translate(143.2920, 56.5926)">
<path transform="scale(0.0029, -0.0029)" d="M208 139c61 0 117 -33 117 -99c0 -71 -52 -119 -99 -147c-34 -20 -71 -32 -110 -32c-61 0 -116 33 -116 99c0 71 51 119 98 147c34 20 71 32 110 32z" fill="currentColor"/>
</g>
<g transform="translate(144.1871, 54.7504)">
<rect x="-0.0614" y="-1.8358" width="0.1228" height="3.5587" ry="0.0421" fill="currentColor"/>
</g>
<g transform="translate(132.4359, 54.7504)">
<rect x="-0.0614" y="-5.0283" width="0.1228" height="4.1722" ry="0.0421" fill="currentColor"/>
</g>
<g transform="translate(146.0090, 56.9610)">
<path transform="scale(0.0029, -0.0029)" d="M208 139c61 0 117 -33 117 -99c0 -71 -52 -119 -99 -147c-34 -20 -71 -32 -110 -32c-61 0 -116 33 -116 99c0 71 51 119 98 147c34 20 71 32 110 32z" fill="currentColor"/>
</g>
<g transform="translate(146.9041, 54.7504)">
<rect x="-0.0614" y="-1.5784" width="0.1228" height="3.6697" ry="0.0421" fill="currentColor"/>
</g>
<g transform="translate(49.9065, 53.2768)">
<path transform="scale(0.0029, -0.0029)" d="M208 139c61 0 117 -33 117 -99c0 -71 -52 -119 -99 -147c-34 -20 -71 -32 -110 -32c-61 0 -116 33 -116 99c0 71 51 119 98 147c34 20 71 32 110 32z" fill="currentColor"/>
</g>
<g transform="translate(50.8016, 54.7504)">
<rect x="-0.0614" y="-4.3769" width="0.1228" height="2.7839" ry="0.0421" fill="currentColor"/>
</g>
<g transform="translate(51.4630, 52.9083)">
<path transform="scale(0.0029, -0.0029)" d="M208 139c61 0 117 -33 117 -99c0 -71 -52 -119 -99 -147c-34 -20 -71 -32 -110 -32c-61 0 -116 33 -116 99c0 71 51 119 98 147c34 20 71 32 110 32z" fill="currentColor"/>
</g>
<g transform="translate(52.3581, 54.7504)">
<rect x="-0.0614" y="-4.5804" width="0.1228" height="2.6191" ry="0.0421" fill="currentColor"/>
</g>
<g transform="translate(53.0195, 52.5399)">
<path transform="scale(0.0029, -0.0029)" d="M208 139c61 0 117 -33 117 -99c0 -71 -52 -119 -99 -147c-34 -20 -71 -32 -110 -32c-61 0 -116 33 -116 99c0 71 51 119 98 147c34 20 71 32 110 32z" fill="currentColor"/>
</g>
<g transform="translate(53.9146, 54.7504)">
<rect x="-0.0614" y="-4.7840" width="0.1228" height="2.4542" ry="0.0421" fill="currentColor"/>
</g>
<g transform="translate(45.2370, 54.3820)">
<path transform="scale(0.0029, -0.0029)" d="M208 139c61 0 117 -33 117 -99c0 -71 -52 -119 -99 -147c-34 -20 -71 -32 -110 -32c-61 0 -116 33 -116 99c0 71 51 119 98 147c34 20 71 32 110 32z" fill="currentColor"/>
</g>
<g transform="translate(46.1321, 54.7504)">
<rect x="-0.0614" y="-3.7662" width="0.1228" height="3.2785" ry="0.0421" fill="currentColor"/>
</g>
<g transform="translate(46.7935, 54.0136)">
<path transform="scale(0.0029, -0.0029)" d="M208 139c61 0 117 -33 117 -99c0 -71 -52 -119 -99 -147c-34 -20 -71 -32 -110 -32c-61 0 -116 33 -116 99c0 71 51 119 98 147c34 20 71 32 110 32z" fill="currentColor"/>
</g>
<g transform="translate(47.6886, 54.7504)">
<rect x="-0.0614" y="-3.9697" width="0.1228" height="3.1137" ry="0.0421" fill="currentColor"/>
</g>
<g transform="translate(48.3500, 53.6452)">
<path transform="scale(0.0029, -0.0029)" d="M208 139c61 0 117 -33 117 -99c0 -71 -52 -119 -99 -147c-34 -20 -71 -32 -110 -32c-61 0 -116 33 -116 99c0 71 51 119 98 147c34 20 71 32 110 32z" fill="currentColor"/>
</g>
<g transform="translate(49.2451, 54.7504)">
<rect x="-0.0614" y="-4.1733" width="0.1228" height="2.9488" ry="0.0421" fill="currentColor"/>
</g>
<g transform="translate(60.2635, 54.7504)">
<rect x="-0.0614" y="-3.3625" width="0.1228" height="5.4538" ry="0.0421" fill="currentColor"/>
</g>
<g transform="translate(59.3683, 56.9610)">
<path transform="scale(0.0029, -0.0029)" d="M208 139c61 0 117 -33 117 -99c0 -71 -52 -119 -99 -147c-34 -20 -71 -32 -110 -32c-61 0 -116 33 -116 99c0 71 51 119 98 147c34 20 71 32 110 32z" fill="currentColor"/>
</g>
<g transform="translate(60.9248, 56.5926)">
<path transform="scale(0.0029, -0.0029)" d="M208 139c61 0 117 -33 117 -99c0 -71 -52 -119 -99 -147c-34 -20 -71 -32 -110 -32c-61 0 -116 33 -116 99c0 71 51 119 98 147c34 20 71 32 110 32z" fill="currentColor"/>
</g>
<g transform="translate(61.8199, 54.7504)">
<rect x="-0.0614" y="-3.2106" width="0.1228" height="4.9334" ry="0.0421" fill="currentColor"/>
</g>
<g transform="translate(54.8259, 52.1715)">
<path transform="scale(0.0029, -0.0029)" d="M208 139c61 0 117 -33 117 -99c0 -71 -52 -119 -99 -147c-34 -20 -71 -32 -110 -32c-61 0 -116 33 -116 99c0 71 51 119 98 147c34 20 71 32 110 32z" fill="currentColor"/>
</g>
<g transform="translate(55.7210, 54.7504)">
<rect x="-0.0614" y="-5.0202" width="0.1228" height="2.3221" ry="0.0421" fill="currentColor"/>
</g>
<g transform="translate(57.4619, 53.6452)">
<path transform="scale(0.0029, -0.0029)" d="M208 139c61 0 117 -33 117 -99c0 -71 -52 -119 -99 -147c-34 -20 -71 -32 -110 -32c-61 0 -116 33 -116 99c0 71 51 119 98 147c34 20 71 32 110 32z" fill="currentColor"/>
</g>
<g transform="translate(58.3570, 54.7504)">
<rect x="-0.0614" y="-3.5486" width="0.1228" height="2.3241" ry="0.0421" fill="currentColor"/>
</g>
<g transform="translate(28.9351, 56.2241)">
<path transform="scale(0.0029, -0.0029)" d="M208 139c61 0 117 -33 117 -99c0 -71 -52 -119 -99 -147c-34 -20 -71 -32 -110 -32c-61 0 -116 33 -116 99c0 71 51 119 98 147c34 20 71 32 110 32z" fill="currentColor"/>
</g>
<g transform="translate(27.3786, 56.5926)">
<path transform="scale(0.0029, -0.0029)" d="M208 139c61 0 117 -33 117 -99c0 -71 -52 -119 -99 -147c-34 -20 -71 -32 -110 -32c-61 0 -116 33 -116 99c0 71 51 119 98 147c34 20 71 32 110 32z" fill="currentColor"/>
</g>
<g transform="translate(28.2737, 54.7504)">
<rect x="-0.0614" y="-1.6320" width="0.1228" height="3.3549" ry="0.0421" fill="currentColor"/>
</g>
<g transform="translate(29.8302, 54.7504)">
<rect x="-0.0614" y="-1.7572" width="0.1228" height="3.1116" ry="0.0421" fill="currentColor"/>
</g>
<g transform="translate(30.4916, 55.8557)">
<path transform="scale(0.0029, -0.0029)" d="M208 139c61 0 117 -33 117 -99c0 -71 -52 -119 -99 -147c-34 -20 -71 -32 -110 -32c-61 0 -116 33 -116 99c0 71 51 119 98 147c34 20 71 32 110 32z" fill="currentColor"/>
</g>
<g transform="translate(31.3867, 54.7504)">
<rect x="-0.0614" y="-1.8824" width="0.1228" height="2.8684" ry="0.0421" fill="currentColor"/>
</g>
<g transform="translate(18.7702, 55.4873)">
<path transform="scale(0.0029, -0.0029)" d="M381 266h9c157 0 258 -130 258 -264c0 -77 -33 -156 -108 -212c-22 -16 -46 -28 -71 -36c2 -32 3 -65 3 -97c0 -21 -1 -43 -2 -64c-7 -122 -91 -230 -211 -230c-108 0 -197 88 -197 197c0 58 54 104 113 104c54 0 95 -48 95 -104c0 -52 -43 -95 -95 -95c-8 0 -16 2 -24 4
c25 -35 65 -59 111 -59c95 0 155 92 161 190c1 20 2 39 2 59c0 28 -1 55 -3 83c-29 -5 -57 -7 -87 -7c-189 0 -333 174 -333 377c0 176 128 307 242 443c-21 62 -41 124 -50 189c-7 52 -8 106 -8 159c0 113 54 219 146 286c8 6 21 7 29 0c72 -82 136 -244 136 -357
c0 -141 -83 -253 -174 -362c22 -67 41 -135 58 -204zM464 -200c64 25 108 93 108 159c0 87 -62 173 -163 187c24 -113 43 -225 55 -346zM338 -218c27 0 54 2 80 6c-13 125 -33 242 -58 359c-79 -7 -123 -59 -123 -116c0 -43 24 -89 78 -120c5 -5 8 -11 8 -17
c0 -13 -11 -24 -24 -24c-3 0 -7 0 -10 2c-81 44 -119 116 -119 187c0 90 60 178 164 201c-14 56 -30 112 -47 167c-104 -122 -208 -245 -208 -404c0 -132 127 -241 259 -241zM239 782c0 -69 22 -127 41 -183c77 97 140 199 140 323c0 49 -3 69 -19 113
c-99 -45 -162 -145 -162 -253z" fill="currentColor"/>
</g>
<g transform="translate(22.3827, 54.7504)">
<path transform="scale(0.0029, -0.0029)" d="M33 35l-2 -60v-11c0 -21 2 -43 5 -64c42 38 87 81 87 138c0 32 -13 63 -41 63c-31 0 -48 -32 -49 -66zM32 446l-9 -337c25 26 59 40 95 40c50 0 82 -51 82 -105c0 -77 -80 -117 -137 -169c-18 -17 -26 -48 -52 -48c-16 0 -28 15 -28 32l-15 587c10 6 21 8 32 8
s22 -2 32 -8z" fill="currentColor"/>
</g>
<g transform="translate(25.4721, 55.8557)">
<path transform="scale(0.0029, -0.0029)" d="M208 139c61 0 117 -33 117 -99c0 -71 -52 -119 -99 -147c-34 -20 -71 -32 -110 -32c-61 0 -116 33 -116 99c0 71 51 119 98 147c34 20 71 32 110 32z" fill="currentColor"/>
</g>
<g transform="translate(26.3672, 54.7504)">
<rect x="-0.0614" y="-1.4786" width="0.1228" height="2.4647" ry="0.0421" fill="currentColor"/>
</g>
<g transform="translate(39.1176, 55.8557)">
<path transform="scale(0.0029, -0.0029)" d="M208 139c61 0 117 -33 117 -99c0 -71 -52 -119 -99 -147c-34 -20 -71 -32 -110 -32c-61 0 -116 33 -116 99c0 71 51 119 98 147c34 20 71 32 110 32z" fill="currentColor"/>
</g>
<g transform="translate(40.0127, 54.7504)">
<rect x="-0.0614" y="-1.8619" width="0.1228" height="2.8479" ry="0.0421" fill="currentColor"/>
</g>
<g transform="translate(41.5240, 55.1189)">
<path transform="scale(0.0029, -0.0029)" d="M208 139c61 0 117 -33 117 -99c0 -71 -52 -119 -99 -147c-34 -20 -71 -32 -110 -32c-61 0 -116 33 -116 99c0 71 51 119 98 147c34 20 71 32 110 32z" fill="currentColor"/>
</g>
<g transform="translate(42.4191, 54.7504)">
<rect x="-0.0614" y="-2.0755" width="0.1228" height="2.3246" ry="0.0421" fill="currentColor"/>
</g>
<g transform="translate(43.6805, 54.7504)">
<path transform="scale(0.0029, -0.0029)" d="M208 139c61 0 117 -33 117 -99c0 -71 -52 -119 -99 -147c-34 -20 -71 -32 -110 -32c-61 0 -116 33 -116 99c0 71 51 119 98 147c34 20 71 32 110 32z" fill="currentColor"/>
</g>
<g transform="translate(44.5756, 54.7504)">
<rect x="-0.0614" y="-3.5626" width="0.1228" height="3.4434" ry="0.0421" fill="currentColor"/>
</g>
<g transform="translate(34.8046, 55.8557)">
<path transform="scale(0.0029, -0.0029)" d="M208 139c61 0 117 -33 117 -99c0 -71 -52 -119 -99 -147c-34 -20 -71 -32 -110 -32c-61 0 -116 33 -116 99c0 71 51 119 98 147c34 20 71 32 110 32z" fill="currentColor"/>
</g>
<g transform="translate(32.8981, 55.1189)">
<path transform="scale(0.0029, -0.0029)" d="M208 139c61 0 117 -33 117 -99c0 -71 -52 -119 -99 -147c-34 -20 -71 -32 -110 -32c-61 0 -116 33 -116 99c0 71 51 119 98 147c34 20 71 32 110 32z" fill="currentColor"/>
</g>
<g transform="translate(33.7932, 54.7504)">
<rect x="-0.0614" y="-2.0760" width="0.1228" height="2.3252" ry="0.0421" fill="currentColor"/>
</g>
<g transform="translate(35.6997, 54.7504)">
<rect x="-0.0614" y="-1.4791" width="0.1228" height="2.4652" ry="0.0421" fill="currentColor"/>
</g>
<g transform="translate(36.7111, 56.5926)">
<path transform="scale(0.0029, -0.0029)" d="M208 139c61 0 117 -33 117 -99c0 -71 -52 -119 -99 -147c-34 -20 -71 -32 -110 -32c-61 0 -116 33 -116 99c0 71 51 119 98 147c34 20 71 32 110 32z" fill="currentColor"/>
</g>
<g transform="translate(37.6062, 54.7504)">
<rect x="-0.0614" y="-1.6483" width="0.1228" height="3.3712" ry="0.0421" fill="currentColor"/>
</g>
<g transform="translate(82.7913, 54.7504)">
<rect x="-0.0614" y="-4.1567" width="0.1228" height="2.9322" ry="0.0421" fill="currentColor"/>
</g>
<g transform="translate(80.3397, 54.0136)">
<path transform="scale(0.0029, -0.0029)" d="M208 139c61 0 117 -33 117 -99c0 -71 -52 -119 -99 -147c-34 -20 -71 -32 -110 -32c-61 0 -116 33 -116 99c0 71 51 119 98 147c34 20 71 32 110 32z" fill="currentColor"/>
</g>
<g transform="translate(81.2348, 54.7504)">
<rect x="-0.0614" y="-3.9485" width="0.1228" height="3.0925" ry="0.0421" fill="currentColor"/>
</g>
<g transform="translate(81.8962, 53.6452)">
<path transform="scale(0.0029, -0.0029)" d="M208 139c61 0 117 -33 117 -99c0 -71 -52 -119 -99 -147c-34 -20 -71 -32 -110 -32c-61 0 -116 33 -116 99c0 71 51 119 98 147c34 20 71 32 110 32z" fill="currentColor"/>
</g>
<g transform="translate(83.4527, 53.2768)">
<path transform="scale(0.0029, -0.0029)" d="M208 139c61 0 117 -33 117 -99c0 -71 -52 -119 -99 -147c-34 -20 -71 -32 -110 -32c-61 0 -116 33 -116 99c0 71 51 119 98 147c34 20 71 32 110 32z" fill="currentColor"/>
</g>
<g transform="translate(84.3478, 54.7504)">
<rect x="-0.0614" y="-4.3649" width="0.1228" height="2.7720" ry="0.0421" fill="currentColor"/>
</g>
<g transform="translate(75.6702, 55.1189)">
<path transform="scale(0.0029, -0.0029)" d="M208 139c61 0 117 -33 117 -99c0 -71 -52 -119 -99 -147c-34 -20 -71 -32 -110 -32c-61 0 -116 33 -116 99c0 71 51 119 98 147c34 20 71 32 110 32z" fill="currentColor"/>
</g>
<g transform="translate(76.5654, 54.7504)">
<rect x="-0.0614" y="-3.3240" width="0.1228" height="3.5732" ry="0.0421" fill="currentColor"/>
</g>
<g transform="translate(77.2267, 54.7504)">
<path transform="scale(0.0029, -0.0029)" d="M208 139c61 0 117 -33 117 -99c0 -71 -52 -119 -99 -147c-34 -20 -71 -32 -110 -32c-61 0 -116 33 -116 99c0 71 51 119 98 147c34 20 71 32 110 32z" fill="currentColor"/>
</g>
<g transform="translate(78.1218, 54.7504)">
<rect x="-0.0614" y="-3.5322" width="0.1228" height="3.4130" ry="0.0421" fill="currentColor"/>
</g>
<g transform="translate(78.7832, 54.3820)">
<path transform="scale(0.0029, -0.0029)" d="M208 139c61 0 117 -33 117 -99c0 -71 -52 -119 -99 -147c-34 -20 -71 -32 -110 -32c-61 0 -116 33 -116 99c0 71 51 119 98 147c34 20 71 32 110 32z" fill="currentColor"/>
</g>
<g transform="translate(79.6783, 54.7504)">
<rect x="-0.0614" y="-3.7404" width="0.1228" height="3.2527" ry="0.0421" fill="currentColor"/>
</g>
<g transform="translate(90.0967, 54.7504)">
<rect x="-0.0614" y="-3.0702" width="0.1228" height="2.2141" ry="0.0421" fill="currentColor"/>
</g>
<g transform="translate(91.1081, 57.3294)">
<path transform="scale(0.0029, -0.0029)" d="M208 139c61 0 117 -33 117 -99c0 -71 -52 -119 -99 -147c-34 -20 -71 -32 -110 -32c-61 0 -116 33 -116 99c0 71 51 119 98 147c34 20 71 32 110 32z" fill="currentColor"/>
</g>
<g transform="translate(92.0032, 54.7504)">
<rect x="-0.0614" y="-2.8584" width="0.1228" height="5.3181" ry="0.0421" fill="currentColor"/>
</g>
<g transform="translate(89.2016, 54.0136)">
<path transform="scale(0.0029, -0.0029)" d="M208 139c61 0 117 -33 117 -99c0 -71 -52 -119 -99 -147c-34 -20 -71 -32 -110 -32c-61 0 -116 33 -116 99c0 71 51 119 98 147c34 20 71 32 110 32z" fill="currentColor"/>
</g>
<g transform="translate(87.4608, 54.7504)">
<rect x="-0.0614" y="-4.7813" width="0.1228" height="2.4515" ry="0.0421" fill="currentColor"/>
</g>
<g transform="translate(86.5657, 52.5399)">
<path transform="scale(0.0029, -0.0029)" d="M208 139c61 0 117 -33 117 -99c0 -71 -52 -119 -99 -147c-34 -20 -71 -32 -110 -32c-61 0 -116 33 -116 99c0 71 51 119 98 147c34 20 71 32 110 32z" fill="currentColor"/>
</g>
<g transform="translate(85.9043, 54.7504)">
<rect x="-0.0614" y="-4.5731" width="0.1228" height="2.6117" ry="0.0421" fill="currentColor"/>
</g>
<g transform="translate(85.0092, 52.9083)">
<path transform="scale(0.0029, -0.0029)" d="M208 139c61 0 117 -33 117 -99c0 -71 -52 -119 -99 -147c-34 -20 -71 -32 -110 -32c-61 0 -116 33 -116 99c0 71 51 119 98 147c34 20 71 32 110 32z" fill="currentColor"/>
</g>
<g transform="translate(64.8878, 55.4873)">
<path transform="scale(0.0029, -0.0029)" d="M208 139c61 0 117 -33 117 -99c0 -71 -52 -119 -99 -147c-34 -20 -71 -32 -110 -32c-61 0 -116 33 -116 99c0 71 51 119 98 147c34 20 71 32 110 32z" fill="currentColor"/>
</g>
<g transform="translate(72.0024, 54.7504)">
<rect x="-0.0614" y="-1.1250" width="0.1228" height="2.4795" ry="0.0421" fill="currentColor"/>
</g>
<g transform="translate(71.1073, 56.2241)">
<path transform="scale(0.0029, -0.0029)" d="M208 139c61 0 117 -33 117 -99c0 -71 -52 -119 -99 -147c-34 -20 -71 -32 -110 -32c-61 0 -116 33 -116 99c0 71 51 119 98 147c34 20 71 32 110 32z" fill="currentColor"/>
</g>
<g transform="translate(65.7829, 54.7504)">
<rect x="-0.0614" y="-2.8237" width="0.1228" height="3.4413" ry="0.0421" fill="currentColor"/>
</g>
<g transform="translate(69.5959, 54.7504)">
<rect x="-0.0614" y="-0.9115" width="0.1228" height="3.0028" ry="0.0421" fill="currentColor"/>
</g>
<g transform="translate(66.7943, 56.2241)">
<path transform="scale(0.0029, -0.0029)" d="M208 139c61 0 117 -33 117 -99c0 -71 -52 -119 -99 -147c-34 -20 -71 -32 -110 -32c-61 0 -116 33 -116 99c0 71 51 119 98 147c34 20 71 32 110 32z" fill="currentColor"/>
</g>
<g transform="translate(68.7008, 56.9610)">
<path transform="scale(0.0029, -0.0029)" d="M208 139c61 0 117 -33 117 -99c0 -71 -52 -119 -99 -147c-34 -20 -71 -32 -110 -32c-61 0 -116 33 -116 99c0 71 51 119 98 147c34 20 71 32 110 32z" fill="currentColor"/>
</g>
<g transform="translate(67.6894, 54.7504)">
<rect x="-0.0614" y="-0.7423" width="0.1228" height="2.0967" ry="0.0421" fill="currentColor"/>
</g>
<g transform="translate(62.4813, 56.2241)">
<path transform="scale(0.0029, -0.0029)" d="M208 139c61 0 117 -33 117 -99c0 -71 -52 -119 -99 -147c-34 -20 -71 -32 -110 -32c-61 0 -116 33 -116 99c0 71 51 119 98 147c34 20 71 32 110 32z" fill="currentColor"/>
</g>
<g transform="translate(74.4089, 54.7504)">
<rect x="-0.0614" y="-1.3386" width="0.1228" height="1.9562" ry="0.0421" fill="currentColor"/>
</g>
<g transform="translate(73.5138, 55.4873)">
<path transform="scale(0.0029, -0.0029)" d="M208 139c61 0 117 -33 117 -99c0 -71 -52 -119 -99 -147c-34 -20 -71 -32 -110 -32c-61 0 -116 33 -116 99c0 71 51 119 98 147c34 20 71 32 110 32z" fill="currentColor"/>
</g>
<g transform="translate(63.3764, 54.7504)">
<rect x="-0.0614" y="-3.0586" width="0.1228" height="4.4131" ry="0.0421" fill="currentColor"/>
</g>
</svg>
