<svg xmlns="http://www.w3.org/2000/svg" xmlns:xlink="http://www.w3.org/1999/xlink" version="1.2" width="594.00mm" height="420.00mm" viewBox="0.0000 -0.0000 355.8092 251.5823">
<style type="text/css">
<![CDATA[
tspan { white-space: pre; }
]]>
</style>
<g transform="translate(17.9702, 56.2241)">
<line stroke-linejoin="round" stroke-linecap="round" stroke-width="0.0944" stroke="currentColor" x1="0.0472" y1="0" x2="100.2967" y2="0"/>
</g>
<g transform="translate(17.9702, 55.4873)">
<line stroke-linejoin="round" stroke-linecap="round" stroke-width="0.0944" stroke="currentColor" x1="0.0472" y1="0" x2="100.2967" y2="0"/>
</g>
<g transform="translate(17.9702, 54.7504)">
<line stroke-linejoin="round" stroke-linecap="round" stroke-width="0.0944" stroke="currentColor" x1="0.0472" y1="0" x2="100.2967" y2="0"/>
</g>
<g transform="translate(17.9702, 54.0136)">
<line stroke-linejoin="round" stroke-linecap="round" stroke-width="0.0944" stroke="currentColor" x1="0.0472" y1="0" x2="100.2967" y2="0"/>
</g>
<g transform="translate(17.9702, 53.2768)">
<line stroke-linejoin="round" stroke-linecap="round" stroke-width="0.0944" stroke="currentColor" x1="0.0472" y1="0" x2="100.2967" y2="0"/>
</g>
<g transform="translate(17.9702, 56.9610)">
<rect x="82.1735" y="-0.0841" width="1.4347" height="0.1681" ry="0.0841" fill="currentColor"/>
</g>
<g transform="translate(17.9702, 57.6978)">
<rect x="82.1735" y="-0.0841" width="1.4347" height="0.1681" ry="0.0841" fill="currentColor"/>
</g>
<g transform="translate(17.9702, 56.9610)">
<rect x="78.8170" y="-0.0841" width="1.4347" height="0.1681" ry="0.0841" fill="currentColor"/>
</g>
<g transform="translate(17.9702, 57.6978)">
<rect x="78.8170" y="-0.0841" width="1.4347" height="0.1681" ry="0.0841" fill="currentColor"/>
</g>
<g transform="translate(17.9702, 56.9610)">
<rect x="58.8425" y="-0.0841" width="1.4347" height="0.1681" ry="0.0841" fill="currentColor"/>
</g>
<g transform="translate(17.9702, 56.9610)">
<rect x="36.5269" y="-0.0841" width="1.3706" height="0.1681" ry="0.0841" fill="currentColor"/>
</g>
<g transform="translate(118.1347, 54.7504)">
<rect x="0.0000" y="-1.4737" width="0.1794" height="2.9474" ry="0.0000" fill="currentColor"/>
</g>
<g transform="translate(68.5507, 54.7504)">
<rect x="0.0000" y="-1.4737" width="0.1794" height="2.9474" ry="0.0000" fill="currentColor"/>
</g>
<g transform="translate(45.9209, 54.7504)">
<rect x="0.0000" y="-1.4737" width="0.1794" height="2.9474" ry="0.0000" fill="currentColor"/>
</g>
<g transform="translate(92.8404, 54.7504)">
<rect x="0.0000" y="-1.4737" width="0.1794" height="2.9474" ry="0.0000" fill="currentColor"/>
</g>
<g transform="translate(94.8149, 54.7504)">
<rect x="-0.0614" y="-2.5604" width="0.1228" height="1.7043" ry="0.0421" fill="currentColor"/>
</g>
<g transform="translate(93.9198, 54.0136)">
<path transform="scale(0.0029, -0.0029)" d="M208 139c61 0 117 -33 117 -99c0 -71 -52 -119 -99 -147c-34 -20 -71 -32 -110 -32c-61 0 -116 33 -116 99c0 71 51 119 98 147c34 20 71 32 110 32z" fill="currentColor"/>
</g>
<g transform="translate(89.4278, 54.3820)">
<path transform="scale(0.0029, -0.0029)" d="M0 114c0 12 7 22 18 26l37 15v151c0 12 10 22 22 22s22 -10 22 -22v-134l77 29v152c0 12 10 22 22 22s22 -10 22 -22v-134l16 6c3 1 8 2 11 2c15 0 28 -12 28 -28v-50c0 -12 -7 -23 -18 -27l-37 -14v-152l16 7c3 1 8 2 11 2c15 0 28 -13 28 -29v-50c0 -12 -7 -22 -18 -26
l-37 -15v-151c0 -12 -10 -22 -22 -22s-22 10 -22 22v134l-77 -29v-152c0 -12 -10 -22 -22 -22s-22 10 -22 22v134l-16 -6c-3 -1 -8 -2 -11 -2c-15 0 -28 12 -28 28v50c0 12 7 23 18 27l37 14v152l-16 -7c-3 -1 -8 -2 -11 -2c-15 0 -28 13 -28 29v50zM176 91l-77 -30v-152
l77 30v152z" fill="currentColor"/>
</g>
<g transform="translate(91.4834, 54.7504)">
<rect x="-0.0614" y="-3.0692" width="0.1228" height="2.5816" ry="0.0421" fill="currentColor"/>
</g>
<g transform="translate(90.5883, 54.3820)">
<path transform="scale(0.0029, -0.0029)" d="M208 139c61 0 117 -33 117 -99c0 -71 -52 -119 -99 -147c-34 -20 -71 -32 -110 -32c-61 0 -116 33 -116 99c0 71 51 119 98 147c34 20 71 32 110 32z" fill="currentColor"/>
</g>
<g transform="translate(97.0263, 58.0662)">
<path transform="scale(0.0029, -0.0029)" d="M208 139c61 0 117 -33 117 -99c0 -71 -52 -119 -99 -147c-34 -20 -71 -32 -110 -32c-61 0 -116 33 -116 99c0 71 51 119 98 147c34 20 71 32 110 32z" fill="currentColor"/>
</g>
<g transform="translate(97.1491, 60.2347)">
<path transform="scale(0.0029, -0.0029)" d="M0 250c94 60 217 150 217 259c0 56 -15 110 -41 160v6c0 16 14 26 28 26c9 0 17 -4 22 -14c25 -56 40 -116 40 -178c0 -203 -266 -306 -266 -509h-21v250h21z" fill="currentColor"/>
</g>
<g transform="translate(97.0877, 54.7504)">
<rect x="-0.0614" y="3.4350" width="0.1228" height="2.0913" ry="0.0421" fill="currentColor"/>
</g>
<g transform="translate(97.9214, 54.7504)">
<rect x="-0.0614" y="-1.6219" width="0.1228" height="2.6079" ry="0.0421" fill="currentColor"/>
</g>
<g transform="translate(97.0263, 55.8557)">
<path transform="scale(0.0029, -0.0029)" d="M208 139c61 0 117 -33 117 -99c0 -71 -52 -119 -99 -147c-34 -20 -71 -32 -110 -32c-61 0 -116 33 -116 99c0 71 51 119 98 147c34 20 71 32 110 32z" fill="currentColor"/>
</g>
<g transform="translate(77.9469, 54.7504)">
<rect x="-0.0614" y="-1.3518" width="0.1228" height="3.8116" ry="0.0421" fill="currentColor"/>
</g>
<g transform="translate(77.0518, 57.3294)">
<path transform="scale(0.0029, -0.0029)" d="M208 139c61 0 117 -33 117 -99c0 -71 -52 -119 -99 -147c-34 -20 -71 -32 -110 -32c-61 0 -116 33 -116 99c0 71 51 119 98 147c34 20 71 32 110 32z" fill="currentColor"/>
</g>
<g transform="translate(76.0404, 54.7504)">
<rect x="-0.0614" y="-2.0757" width="0.1228" height="2.3249" ry="0.0421" fill="currentColor"/>
</g>
<g transform="translate(75.1453, 55.1189)">
<path transform="scale(0.0029, -0.0029)" d="M208 139c61 0 117 -33 117 -99c0 -71 -52 -119 -99 -147c-34 -20 -71 -32 -110 -32c-61 0 -116 33 -116 99c0 71 51 119 98 147c34 20 71 32 110 32z" fill="currentColor"/>
</g>
<g transform="translate(73.8839, 54.7504)">
<rect x="-0.0614" y="-1.8930" width="0.1228" height="2.5106" ry="0.0421" fill="currentColor"/>
</g>
<g transform="translate(72.9888, 55.4873)">
<path transform="scale(0.0029, -0.0029)" d="M208 139c61 0 117 -33 117 -99c0 -71 -52 -119 -99 -147c-34 -20 -71 -32 -110 -32c-61 0 -116 33 -116 99c0 71 51 119 98 147c34 20 71 32 110 32z" fill="currentColor"/>
</g>
<g transform="translate(110.0924, 52.6695)">
<polygon stroke-linejoin="round" stroke-linecap="round" stroke-width="0.0842" fill="currentColor" stroke="currentColor" points="6.5501 0.4725 6.5501 0.7420 0.0421 0.1347 0.0421 -0.1347"/>
</g>
<g transform="translate(110.0924, 53.2768)">
<polygon stroke-linejoin="round" stroke-linecap="round" stroke-width="0.0842" fill="currentColor" stroke="currentColor" points="6.5501 0.4725 6.5501 0.7420 0.0421 0.1347 0.0421 -0.1347"/>
</g>
<g transform="translate(88.7664, 54.7504)">
<rect x="-0.0614" y="-2.7245" width="0.1228" height="1.8684" ry="0.0421" fill="currentColor"/>
</g>
<g transform="translate(87.8713, 54.0136)">
<path transform="scale(0.0029, -0.0029)" d="M208 139c61 0 117 -33 117 -99c0 -71 -52 -119 -99 -147c-34 -20 -71 -32 -110 -32c-61 0 -116 33 -116 99c0 71 51 119 98 147c34 20 71 32 110 32z" fill="currentColor"/>
</g>
<g transform="translate(85.1599, 54.7504)">
<rect x="-0.0614" y="-2.2669" width="0.1228" height="2.8846" ry="0.0421" fill="currentColor"/>
</g>
<g transform="translate(84.2648, 55.4873)">
<path transform="scale(0.0029, -0.0029)" d="M208 139c61 0 117 -33 117 -99c0 -71 -52 -119 -99 -147c-34 -20 -71 -32 -110 -32c-61 0 -116 33 -116 99c0 71 51 119 98 147c34 20 71 32 110 32z" fill="currentColor"/>
</g>
<g transform="translate(81.5534, 54.7504)">
<rect x="-0.0614" y="-1.8094" width="0.1228" height="3.5323" ry="0.0421" fill="currentColor"/>
</g>
<g transform="translate(80.6583, 56.5926)">
<path transform="scale(0.0029, -0.0029)" d="M208 139c61 0 117 -33 117 -99c0 -71 -52 -119 -99 -147c-34 -20 -71 -32 -110 -32c-61 0 -116 33 -116 99c0 71 51 119 98 147c34 20 71 32 110 32z" fill="currentColor"/>
</g>
<g transform="translate(116.6233, 54.7504)">
<rect x="-0.0614" y="-1.4793" width="0.1228" height="2.8338" ry="0.0421" fill="currentColor"/>
</g>
<g transform="translate(115.7282, 56.2241)">
<path transform="scale(0.0029, -0.0029)" d="M208 139c61 0 117 -33 117 -99c0 -71 -52 -119 -99 -147c-34 -20 -71 -32 -110 -32c-61 0 -116 33 -116 99c0 71 51 119 98 147c34 20 71 32 110 32z" fill="currentColor"/>
</g>
<g transform="translate(114.4668, 54.7504)">
<rect x="-0.0614" y="-1.6780" width="0.1228" height="2.6640" ry="0.0421" fill="currentColor"/>
</g>
<g transform="translate(113.5717, 55.8557)">
<path transform="scale(0.0029, -0.0029)" d="M208 139c61 0 117 -33 117 -99c0 -71 -52 -119 -99 -147c-34 -20 -71 -32 -110 -32c-61 0 -116 33 -116 99c0 71 51 119 98 147c34 20 71 32 110 32z" fill="currentColor"/>
</g>
<g transform="translate(112.3103, 54.7504)">
<rect x="-0.0614" y="-1.8766" width="0.1228" height="2.4942" ry="0.0421" fill="currentColor"/>
</g>
<g transform="translate(111.4152, 55.4873)">
<path transform="scale(0.0029, -0.0029)" d="M208 139c61 0 117 -33 117 -99c0 -71 -52 -119 -99 -147c-34 -20 -71 -32 -110 -32c-61 0 -116 33 -116 99c0 71 51 119 98 147c34 20 71 32 110 32z" fill="currentColor"/>
</g>
<g transform="translate(26.3059, 51.4347)">
<polygon stroke-linejoin="round" stroke-linecap="round" stroke-width="0.0842" fill="currentColor" stroke="currentColor" points="17.1131 -0.1347 17.1131 0.1347 0.0421 0.1347 0.0421 -0.1347"/>
</g>
<g transform="translate(101.2165, 53.4064)">
<polygon stroke-linejoin="round" stroke-linecap="round" stroke-width="0.0842" fill="currentColor" stroke="currentColor" points="6.8001 -1.0012 6.8001 -0.7317 0.0421 0.1347 0.0421 -0.1347"/>
</g>
<g transform="translate(101.2165, 54.0136)">
<polygon stroke-linejoin="round" stroke-linecap="round" stroke-width="0.0842" fill="currentColor" stroke="currentColor" points="6.8001 -1.0012 6.8001 -0.7317 0.0421 0.1347 0.0421 -0.1347"/>
</g>
<g transform="translate(94.7535, 52.1715)">
<polygon stroke-linejoin="round" stroke-linecap="round" stroke-width="0.0842" fill="currentColor" stroke="currentColor" points="3.1871 0.8409 3.1871 1.1104 0.0421 0.1347 0.0421 -0.1347"/>
</g>
<g transform="translate(87.8713, 54.7504)">
<path stroke-width="0.0755" stroke-linejoin="round" stroke-linecap="round" stroke="currentColor" fill="currentColor" d="M0.8979 -3.6382C1.5791 -4.2769 2.9450 -4.2649 3.6149 -3.6145L3.6149 -3.6145C2.9440 -4.1516 1.5781 -4.1635 0.8979 -3.6382z"/>
</g>
<g transform="translate(77.8855, 53.4064)">
<polygon stroke-linejoin="round" stroke-linecap="round" stroke-width="0.0842" fill="currentColor" stroke="currentColor" points="13.6171 -1.8677 13.6171 -1.5982 0.0421 0.1347 0.0421 -0.1347"/>
</g>
<g transform="translate(88.7050, 52.6410)">
<polygon stroke-linejoin="round" stroke-linecap="round" stroke-width="0.0842" fill="currentColor" stroke="currentColor" points="2.7977 -0.4950 2.7977 -0.2255 0.0421 0.1347 0.0421 -0.1347"/>
</g>
<g transform="translate(72.9888, 54.7504)">
<path stroke-width="0.0755" stroke-linejoin="round" stroke-linecap="round" stroke="currentColor" fill="currentColor" d="M0.8682 -2.4382C1.3844 -3.0314 2.4160 -3.1188 3.0247 -2.6210L3.0247 -2.6210C2.4256 -3.0059 1.3939 -2.9184 0.8682 -2.4382z"/>
</g>
<g transform="translate(70.4661, 53.1471)">
<polygon stroke-linejoin="round" stroke-linecap="round" stroke-width="0.0842" fill="currentColor" stroke="currentColor" points="5.5936 -0.6123 5.5936 -0.3429 0.0421 0.1347 0.0421 -0.1347"/>
</g>
<g transform="translate(73.8226, 53.4699)">
<polygon stroke-linejoin="round" stroke-linecap="round" stroke-width="0.0842" fill="currentColor" stroke="currentColor" points="2.2371 -0.3279 2.2371 -0.0584 0.0421 0.1347 0.0421 -0.1347"/>
</g>
<g transform="translate(55.5058, 52.6695)">
<polygon stroke-linejoin="round" stroke-linecap="round" stroke-width="0.0842" fill="currentColor" stroke="currentColor" points="10.4001 -0.1347 10.4001 0.1347 0.0421 0.1347 0.0421 -0.1347"/>
</g>
<g transform="translate(50.3591, 54.7504)">
<path stroke-width="0.0755" stroke-linejoin="round" stroke-linecap="round" stroke="currentColor" fill="currentColor" d="M0.8682 -2.4382C1.3844 -3.0314 2.4160 -3.1188 3.0247 -2.6210L3.0247 -2.6210C2.4256 -3.0059 1.3939 -2.9184 0.8682 -2.4382z"/>
</g>
<g transform="translate(47.8363, 53.1471)">
<polygon stroke-linejoin="round" stroke-linecap="round" stroke-width="0.0842" fill="currentColor" stroke="currentColor" points="5.5936 -0.6123 5.5936 -0.3429 0.0421 0.1347 0.0421 -0.1347"/>
</g>
<g transform="translate(51.1928, 53.4699)">
<polygon stroke-linejoin="round" stroke-linecap="round" stroke-width="0.0842" fill="currentColor" stroke="currentColor" points="2.2371 -0.3279 2.2371 -0.0584 0.0421 0.1347 0.0421 -0.1347"/>
</g>
<g transform="translate(100.4442, 54.7504)">
<rect x="-0.0614" y="3.0666" width="0.1228" height="2.2755" ry="0.0421" fill="currentColor"/>
</g>
<g transform="translate(103.4344, 54.7504)">
<rect x="-0.0614" y="-1.6249" width="0.1228" height="2.6110" ry="0.0421" fill="currentColor"/>
</g>
<g transform="translate(102.5393, 55.8557)">
<path transform="scale(0.0029, -0.0029)" d="M208 139c61 0 117 -33 117 -99c0 -71 -52 -119 -99 -147c-34 -20 -71 -32 -110 -32c-61 0 -116 33 -116 99c0 71 51 119 98 147c34 20 71 32 110 32z" fill="currentColor"/>
</g>
<g transform="translate(100.5055, 60.0504)">
<path transform="scale(0.0029, -0.0029)" d="M266 659c0 -44 -15 -80 -38 -114c16 -35 25 -73 25 -111c0 -180 -252 -254 -253 -433v-1h-21v500h21v-70c94 49 217 126 217 229c0 20 -5 41 -14 59v5c0 16 13 26 27 26c32 0 36 -61 36 -90zM0 205c88 51 204 130 204 229c0 22 -4 44 -12 65c-79 -85 -192 -155 -192 -274
v-20z" fill="currentColor"/>
</g>
<g transform="translate(101.2779, 54.7504)">
<rect x="-0.0614" y="-1.3518" width="0.1228" height="2.7063" ry="0.0421" fill="currentColor"/>
</g>
<g transform="translate(100.3828, 57.6978)">
<path transform="scale(0.0029, -0.0029)" d="M208 139c61 0 117 -33 117 -99c0 -71 -52 -119 -99 -147c-34 -20 -71 -32 -110 -32c-61 0 -116 33 -116 99c0 71 51 119 98 147c34 20 71 32 110 32z" fill="currentColor"/>
</g>
<g transform="translate(100.3828, 56.2241)">
<path transform="scale(0.0029, -0.0029)" d="M208 139c61 0 117 -33 117 -99c0 -71 -52 -119 -99 -147c-34 -20 -71 -32 -110 -32c-61 0 -116 33 -116 99c0 71 51 119 98 147c34 20 71 32 110 32z" fill="currentColor"/>
</g>
<g transform="translate(107.9973, 54.7504)">
<rect x="-0.0614" y="-2.2028" width="0.1228" height="2.0835" ry="0.0421" fill="currentColor"/>
</g>
<g transform="translate(110.1538, 54.7504)">
<rect x="-0.0614" y="-2.0752" width="0.1228" height="2.3244" ry="0.0421" fill="currentColor"/>
</g>
<g transform="translate(109.2587, 55.1189)">
<path transform="scale(0.0029, -0.0029)" d="M208 139c61 0 117 -33 117 -99c0 -71 -52 -119 -99 -147c-34 -20 -71 -32 -110 -32c-61 0 -116 33 -116 99c0 71 51 119 98 147c34 20 71 32 110 32z" fill="currentColor"/>
</g>
<g transform="translate(107.1022, 54.7504)">
<path transform="scale(0.0029, -0.0029)" d="M208 139c61 0 117 -33 117 -99c0 -71 -52 -119 -99 -147c-34 -20 -71 -32 -110 -32c-61 0 -116 33 -116 99c0 71 51 119 98 147c34 20 71 32 110 32z" fill="currentColor"/>
</g>
<g transform="translate(105.5909, 54.7504)">
<rect x="-0.0614" y="-1.8980" width="0.1228" height="2.5156" ry="0.0421" fill="currentColor"/>
</g>
<g transform="translate(104.6957, 55.4873)">
<path transform="scale(0.0029, -0.0029)" d="M208 139c61 0 117 -33 117 -99c0 -71 -52 -119 -99 -147c-34 -20 -71 -32 -110 -32c-61 0 -116 33 -116 99c0 71 51 119 98 147c34 20 71 32 110 32z" fill="currentColor"/>
</g>
<g transform="translate(43.3997, 54.7504)">
<rect x="-0.0614" y="-3.3158" width="0.1228" height="2.4597" ry="0.0421" fill="currentColor"/>
</g>
<g transform="translate(42.5046, 54.0136)">
<path transform="scale(0.0029, -0.0029)" d="M208 139c61 0 117 -33 117 -99c0 -71 -52 -119 -99 -147c-34 -20 -71 -32 -110 -32c-61 0 -116 33 -116 99c0 71 51 119 98 147c34 20 71 32 110 32z" fill="currentColor"/>
</g>
<g transform="translate(37.9876, 54.3820)">
<path transform="scale(0.0029, -0.0029)" d="M0 114c0 12 7 22 18 26l37 15v151c0 12 10 22 22 22s22 -10 22 -22v-134l77 29v152c0 12 10 22 22 22s22 -10 22 -22v-134l16 6c3 1 8 2 11 2c15 0 28 -12 28 -28v-50c0 -12 -7 -23 -18 -27l-37 -14v-152l16 7c3 1 8 2 11 2c15 0 28 -13 28 -29v-50c0 -12 -7 -22 -18 -26
l-37 -15v-151c0 -12 -10 -22 -22 -22s-22 10 -22 22v134l-77 -29v-152c0 -12 -10 -22 -22 -22s-22 10 -22 22v134l-16 -6c-3 -1 -8 -2 -11 -2c-15 0 -28 12 -28 28v50c0 12 7 23 18 27l37 14v152l-16 -7c-3 -1 -8 -2 -11 -2c-15 0 -28 13 -28 29v50zM176 91l-77 -30v-152
l77 30v152z" fill="currentColor"/>
</g>
<g transform="translate(40.0432, 54.7504)">
<rect x="-0.0614" y="-3.3158" width="0.1228" height="2.8281" ry="0.0421" fill="currentColor"/>
</g>
<g transform="translate(39.1481, 54.3820)">
<path transform="scale(0.0029, -0.0029)" d="M208 139c61 0 117 -33 117 -99c0 -71 -52 -119 -99 -147c-34 -20 -71 -32 -110 -32c-61 0 -116 33 -116 99c0 71 51 119 98 147c34 20 71 32 110 32z" fill="currentColor"/>
</g>
<g transform="translate(36.6867, 54.7504)">
<rect x="-0.0614" y="-3.3158" width="0.1228" height="2.4597" ry="0.0421" fill="currentColor"/>
</g>
<g transform="translate(35.7916, 54.0136)">
<path transform="scale(0.0029, -0.0029)" d="M208 139c61 0 117 -33 117 -99c0 -71 -52 -119 -99 -147c-34 -20 -71 -32 -110 -32c-61 0 -116 33 -116 99c0 71 51 119 98 147c34 20 71 32 110 32z" fill="currentColor"/>
</g>
<g transform="translate(47.1253, 58.7610)">
<path transform="scale(0.0029, -0.0029)" d="M0 250c94 60 217 150 217 259c0 56 -15 110 -41 160v6c0 16 14 26 28 26c9 0 17 -4 22 -14c25 -56 40 -116 40 -178c0 -203 -266 -306 -266 -509h-21v250h21z" fill="currentColor"/>
</g>
<g transform="translate(47.8977, 54.7504)">
<rect x="-0.0614" y="-1.6085" width="0.1228" height="2.2261" ry="0.0421" fill="currentColor"/>
</g>
<g transform="translate(47.0026, 56.5926)">
<path transform="scale(0.0029, -0.0029)" d="M208 139c61 0 117 -33 117 -99c0 -71 -52 -119 -99 -147c-34 -20 -71 -32 -110 -32c-61 0 -116 33 -116 99c0 71 51 119 98 147c34 20 71 32 110 32z" fill="currentColor"/>
</g>
<g transform="translate(47.0026, 55.4873)">
<path transform="scale(0.0029, -0.0029)" d="M208 139c61 0 117 -33 117 -99c0 -71 -52 -119 -99 -147c-34 -20 -71 -32 -110 -32c-61 0 -116 33 -116 99c0 71 51 119 98 147c34 20 71 32 110 32z" fill="currentColor"/>
</g>
<g transform="translate(26.3672, 54.7504)">
<rect x="-0.0614" y="-3.3158" width="0.1228" height="4.3018" ry="0.0421" fill="currentColor"/>
</g>
<g transform="translate(25.4721, 56.5926)">
<path transform="scale(0.0029, -0.0029)" d="M208 139c61 0 117 -33 117 -99c0 -71 -52 -119 -99 -147c-34 -20 -71 -32 -110 -32c-61 0 -116 33 -116 99c0 71 51 119 98 147c34 20 71 32 110 32z" fill="currentColor"/>
</g>
<g transform="translate(25.4721, 55.8557)">
<path transform="scale(0.0029, -0.0029)" d="M208 139c61 0 117 -33 117 -99c0 -71 -52 -119 -99 -147c-34 -20 -71 -32 -110 -32c-61 0 -116 33 -116 99c0 71 51 119 98 147c34 20 71 32 110 32z" fill="currentColor"/>
</g>
<g transform="translate(22.3827, 54.7504)">
<path transform="scale(0.0029, -0.0029)" d="M33 35l-2 -60v-11c0 -21 2 -43 5 -64c42 38 87 81 87 138c0 32 -13 63 -41 63c-31 0 -48 -32 -49 -66zM32 446l-9 -337c25 26 59 40 95 40c50 0 82 -51 82 -105c0 -77 -80 -117 -137 -169c-18 -17 -26 -48 -52 -48c-16 0 -28 15 -28 32l-15 587c10 6 21 8 32 8
s22 -2 32 -8z" fill="currentColor"/>
</g>
<g transform="translate(18.7702, 55.4873)">
<path transform="scale(0.0029, -0.0029)" d="M381 266h9c157 0 258 -130 258 -264c0 -77 -33 -156 -108 -212c-22 -16 -46 -28 -71 -36c2 -32 3 -65 3 -97c0 -21 -1 -43 -2 -64c-7 -122 -91 -230 -211 -230c-108 0 -197 88 -197 197c0 58 54 104 113 104c54 0 95 -48 95 -104c0 -52 -43 -95 -95 -95c-8 0 -16 2 -24 4
c25 -35 65 -59 111 -59c95 0 155 92 161 190c1 20 2 39 2 59c0 28 -1 55 -3 83c-29 -5 -57 -7 -87 -7c-189 0 -333 174 -333 377c0 176 128 307 242 443c-21 62 -41 124 -50 189c-7 52 -8 106 -8 159c0 113 54 219 146 286c8 6 21 7 29 0c72 -82 136 -244 136 -357
c0 -141 -83 -253 -174 -362c22 -67 41 -135 58 -204zM464 -200c64 25 108 93 108 159c0 87 -62 173 -163 187c24 -113 43 -225 55 -346zM338 -218c27 0 54 2 80 6c-13 125 -33 242 -58 359c-79 -7 -123 -59 -123 -116c0 -43 24 -89 78 -120c5 -5 8 -11 8 -17
c0 -13 -11 -24 -24 -24c-3 0 -7 0 -10 2c-81 44 -119 116 -119 187c0 90 60 178 164 201c-14 56 -30 112 -47 167c-104 -122 -208 -245 -208 -404c0 -132 127 -241 259 -241zM239 782c0 -69 22 -127 41 -183c77 97 140 199 140 323c0 49 -3 69 -19 113
c-99 -45 -162 -145 -162 -253z" fill="currentColor"/>
</g>
<g transform="translate(29.9737, 54.7504)">
<rect x="-0.0614" y="-3.3158" width="0.1228" height="1.7229" ry="0.0421" fill="currentColor"/>
</g>
<g transform="translate(33.3302, 54.7504)">
<rect x="-0.0614" y="-3.3158" width="0.1228" height="2.0913" ry="0.0421" fill="currentColor"/>
</g>
<g transform="translate(32.4351, 53.6452)">
<path transform="scale(0.0029, -0.0029)" d="M208 139c61 0 117 -33 117 -99c0 -71 -52 -119 -99 -147c-34 -20 -71 -32 -110 -32c-61 0 -116 33 -116 99c0 71 51 119 98 147c34 20 71 32 110 32z" fill="currentColor"/>
</g>
<g transform="translate(47.0640, 54.7504)">
<rect x="-0.0614" y="1.9613" width="0.1228" height="2.0913" ry="0.0421" fill="currentColor"/>
</g>
<g transform="translate(29.0786, 53.2768)">
<path transform="scale(0.0029, -0.0029)" d="M208 139c61 0 117 -33 117 -99c0 -71 -52 -119 -99 -147c-34 -20 -71 -32 -110 -32c-61 0 -116 33 -116 99c0 71 51 119 98 147c34 20 71 32 110 32z" fill="currentColor"/>
</g>
<g transform="translate(25.5949, 58.7610)">
<path transform="scale(0.0029, -0.0029)" d="M0 250c94 60 217 150 217 259c0 56 -15 110 -41 160v6c0 16 14 26 28 26c9 0 17 -4 22 -14c25 -56 40 -116 40 -178c0 -203 -266 -306 -266 -509h-21v250h21z" fill="currentColor"/>
</g>
<g transform="translate(25.5335, 54.7504)">
<rect x="-0.0614" y="1.9613" width="0.1228" height="2.0913" ry="0.0421" fill="currentColor"/>
</g>
<g transform="translate(65.8866, 54.7504)">
<rect x="-0.0614" y="-2.0809" width="0.1228" height="2.6985" ry="0.0421" fill="currentColor"/>
</g>
<g transform="translate(64.9915, 55.4873)">
<path transform="scale(0.0029, -0.0029)" d="M208 139c61 0 117 -33 117 -99c0 -71 -52 -119 -99 -147c-34 -20 -71 -32 -110 -32c-61 0 -116 33 -116 99c0 71 51 119 98 147c34 20 71 32 110 32z" fill="currentColor"/>
</g>
<g transform="translate(62.5301, 54.7504)">
<rect x="-0.0614" y="-2.0809" width="0.1228" height="2.3301" ry="0.0421" fill="currentColor"/>
</g>
<g transform="translate(61.6350, 55.1189)">
<path transform="scale(0.0029, -0.0029)" d="M208 139c61 0 117 -33 117 -99c0 -71 -52 -119 -99 -147c-34 -20 -71 -32 -110 -32c-61 0 -116 33 -116 99c0 71 51 119 98 147c34 20 71 32 110 32z" fill="currentColor"/>
</g>
<g transform="translate(59.1736, 54.7504)">
<rect x="-0.0614" y="-2.0809" width="0.1228" height="1.9617" ry="0.0421" fill="currentColor"/>
</g>
<g transform="translate(58.2785, 54.7504)">
<path transform="scale(0.0029, -0.0029)" d="M208 139c61 0 117 -33 117 -99c0 -71 -52 -119 -99 -147c-34 -20 -71 -32 -110 -32c-61 0 -116 33 -116 99c0 71 51 119 98 147c34 20 71 32 110 32z" fill="currentColor"/>
</g>
<g transform="translate(69.7551, 58.7610)">
<path transform="scale(0.0029, -0.0029)" d="M0 250c94 60 217 150 217 259c0 56 -15 110 -41 160v6c0 16 14 26 28 26c9 0 17 -4 22 -14c25 -56 40 -116 40 -178c0 -203 -266 -306 -266 -509h-21v250h21z" fill="currentColor"/>
</g>
<g transform="translate(69.6937, 54.7504)">
<rect x="-0.0614" y="1.9613" width="0.1228" height="2.0913" ry="0.0421" fill="currentColor"/>
</g>
<g transform="translate(70.5275, 54.7504)">
<rect x="-0.0614" y="-1.6085" width="0.1228" height="2.5945" ry="0.0421" fill="currentColor"/>
</g>
<g transform="translate(69.6324, 56.5926)">
<path transform="scale(0.0029, -0.0029)" d="M208 139c61 0 117 -33 117 -99c0 -71 -52 -119 -99 -147c-34 -20 -71 -32 -110 -32c-61 0 -116 33 -116 99c0 71 51 119 98 147c34 20 71 32 110 32z" fill="currentColor"/>
</g>
<g transform="translate(69.6324, 55.8557)">
<path transform="scale(0.0029, -0.0029)" d="M208 139c61 0 117 -33 117 -99c0 -71 -52 -119 -99 -147c-34 -20 -71 -32 -110 -32c-61 0 -116 33 -116 99c0 71 51 119 98 147c34 20 71 32 110 32z" fill="currentColor"/>
</g>
<g transform="translate(53.4107, 54.7504)">
<rect x="-0.0614" y="-2.0757" width="0.1228" height="1.9565" ry="0.0421" fill="currentColor"/>
</g>
<g transform="translate(52.5156, 54.7504)">
<path transform="scale(0.0029, -0.0029)" d="M208 139c61 0 117 -33 117 -99c0 -71 -52 -119 -99 -147c-34 -20 -71 -32 -110 -32c-61 0 -116 33 -116 99c0 71 51 119 98 147c34 20 71 32 110 32z" fill="currentColor"/>
</g>
<g transform="translate(54.6720, 56.9610)">
<path transform="scale(0.0029, -0.0029)" d="M208 139c61 0 117 -33 117 -99c0 -71 -52 -119 -99 -147c-34 -20 -71 -32 -110 -32c-61 0 -116 33 -116 99c0 71 51 119 98 147c34 20 71 32 110 32z" fill="currentColor"/>
</g>
<g transform="translate(55.5671, 54.7504)">
<rect x="-0.0614" y="-2.0809" width="0.1228" height="4.1722" ry="0.0421" fill="currentColor"/>
</g>
<g transform="translate(51.2542, 54.7504)">
<rect x="-0.0614" y="-1.8930" width="0.1228" height="2.1421" ry="0.0421" fill="currentColor"/>
</g>
<g transform="translate(50.3591, 55.1189)">
<path transform="scale(0.0029, -0.0029)" d="M208 139c61 0 117 -33 117 -99c0 -71 -52 -119 -99 -147c-34 -20 -71 -32 -110 -32c-61 0 -116 33 -116 99c0 71 51 119 98 147c34 20 71 32 110 32z" fill="currentColor"/>
</g>
<g transform="translate(53.5115, 56.9610)">
<path transform="scale(0.0029, -0.0029)" d="M0 114c0 12 7 22 18 26l37 15v151c0 12 10 22 22 22s22 -10 22 -22v-134l77 29v152c0 12 10 22 22 22s22 -10 22 -22v-134l16 6c3 1 8 2 11 2c15 0 28 -12 28 -28v-50c0 -12 -7 -23 -18 -27l-37 -14v-152l16 7c3 1 8 2 11 2c15 0 28 -13 28 -29v-50c0 -12 -7 -22 -18 -26
l-37 -15v-151c0 -12 -10 -22 -22 -22s-22 10 -22 22v134l-77 -29v-152c0 -12 -10 -22 -22 -22s-22 10 -22 22v134l-16 -6c-3 -1 -8 -2 -11 -2c-15 0 -28 12 -28 28v50c0 12 7 23 18 27l37 14v152l-16 -7c-3 -1 -8 -2 -11 -2c-15 0 -28 13 -28 29v50zM176 91l-77 -30v-152
l77 30v152z" fill="currentColor"/>
</g>
</svg>
