<svg xmlns="http://www.w3.org/2000/svg" xmlns:xlink="http://www.w3.org/1999/xlink" version="1.2" width="594.00mm" height="420.00mm" viewBox="0.0000 -0.0000 355.8092 251.5823">
<style type="text/css">
<![CDATA[
tspan { white-space: pre; }
]]>
</style>
<g transform="translate(17.9702, 56.2241)">
<line stroke-linejoin="round" stroke-linecap="round" stroke-width="0.0944" stroke="currentColor" x1="0.0472" y1="0" x2="161.8840" y2="0"/>
</g>
<g transform="translate(17.9702, 55.4873)">
<line stroke-linejoin="round" stroke-linecap="round" stroke-width="0.0944" stroke="currentColor" x1="0.0472" y1="0" x2="161.8840" y2="0"/>
</g>
<g transform="translate(17.9702, 54.7504)">
<line stroke-linejoin="round" stroke-linecap="round" stroke-width="0.0944" stroke="currentColor" x1="0.0472" y1="0" x2="161.8840" y2="0"/>
</g>
<g transform="translate(17.9702, 54.0136)">
<line stroke-linejoin="round" stroke-linecap="round" stroke-width="0.0944" stroke="currentColor" x1="0.0472" y1="0" x2="161.8840" y2="0"/>
</g>
<g transform="translate(17.9702, 53.2768)">
<line stroke-linejoin="round" stroke-linecap="round" stroke-width="0.0944" stroke="currentColor" x1="0.0472" y1="0" x2="161.8840" y2="0"/>
</g>
<g transform="translate(17.9702, 52.5399)">
<rect x="149.2107" y="-0.0841" width="1.4347" height="0.1681" ry="0.0841" fill="currentColor"/>
</g>
<g transform="translate(17.9702, 52.5399)">
<rect x="147.4042" y="-0.0841" width="1.4347" height="0.1681" ry="0.0841" fill="currentColor"/>
</g>
<g transform="translate(17.9702, 52.5399)">
<rect x="124.7576" y="-0.0841" width="1.4347" height="0.1681" ry="0.0841" fill="currentColor"/>
</g>
<g transform="translate(17.9702, 52.5399)">
<rect x="112.3521" y="-0.0841" width="1.3956" height="0.1681" ry="0.0841" fill="currentColor"/>
</g>
<g transform="translate(17.9702, 52.5399)">
<rect x="110.8565" y="-0.0841" width="1.3956" height="0.1681" ry="0.0841" fill="currentColor"/>
</g>
<g transform="translate(17.9702, 52.5399)">
<rect x="109.0500" y="-0.0841" width="1.4347" height="0.1681" ry="0.0841" fill="currentColor"/>
</g>
<g transform="translate(17.9702, 56.9610)">
<rect x="80.2687" y="-0.0841" width="1.4347" height="0.1681" ry="0.0841" fill="currentColor"/>
</g>
<g transform="translate(17.9702, 56.9610)">
<rect x="76.7827" y="-0.0841" width="1.4347" height="0.1681" ry="0.0841" fill="currentColor"/>
</g>
<g transform="translate(17.9702, 57.6978)">
<rect x="76.7827" y="-0.0841" width="1.4347" height="0.1681" ry="0.0841" fill="currentColor"/>
</g>
<g transform="translate(17.9702, 56.9610)">
<rect x="74.6262" y="-0.0841" width="1.4347" height="0.1681" ry="0.0841" fill="currentColor"/>
</g>
<g transform="translate(17.9702, 56.9610)">
<rect x="72.7198" y="-0.0841" width="1.4347" height="0.1681" ry="0.0841" fill="currentColor"/>
</g>
<g transform="translate(17.9702, 52.5399)">
<rect x="70.8133" y="-0.0841" width="1.4347" height="0.1681" ry="0.0841" fill="currentColor"/>
</g>
<g transform="translate(17.9702, 56.9610)">
<rect x="43.6884" y="-0.0841" width="1.4347" height="0.1681" ry="0.0841" fill="currentColor"/>
</g>
<g transform="translate(17.9702, 56.9610)">
<rect x="40.2025" y="-0.0841" width="1.4347" height="0.1681" ry="0.0841" fill="currentColor"/>
</g>
<g transform="translate(17.9702, 56.9610)">
<rect x="38.2960" y="-0.0841" width="1.4347" height="0.1681" ry="0.0841" fill="currentColor"/>
</g>
<g transform="translate(17.9702, 52.5399)">
<rect x="34.2330" y="-0.0841" width="1.4347" height="0.1681" ry="0.0841" fill="currentColor"/>
</g>
<g transform="translate(17.9702, 52.5399)">
<rect x="32.4265" y="-0.0841" width="1.4347" height="0.1681" ry="0.0841" fill="currentColor"/>
</g>
<g transform="translate(179.7219, 54.7504)">
<rect x="0.0000" y="-1.4737" width="0.1794" height="2.9474" ry="0.0000" fill="currentColor"/>
</g>
<g transform="translate(60.8183, 54.7504)">
<rect x="0.0000" y="-1.4737" width="0.1794" height="2.9474" ry="0.0000" fill="currentColor"/>
</g>
<g transform="translate(139.2204, 54.7504)">
<rect x="0.0000" y="-1.4737" width="0.1794" height="2.9474" ry="0.0000" fill="currentColor"/>
</g>
<g transform="translate(97.3985, 54.7504)">
<rect x="0.0000" y="-1.4737" width="0.1794" height="2.9474" ry="0.0000" fill="currentColor"/>
</g>
<g transform="translate(132.0787, 52.9083)">
<path transform="scale(0.0029, -0.0029)" d="M208 139c61 0 117 -33 117 -99c0 -71 -52 -119 -99 -147c-34 -20 -71 -32 -110 -32c-61 0 -116 33 -116 99c0 71 51 119 98 147c34 20 71 32 110 32z" fill="currentColor"/>
</g>
<g transform="translate(127.2593, 52.5399)">
<path transform="scale(0.0029, -0.0029)" d="M208 139c61 0 117 -33 117 -99c0 -71 -52 -119 -99 -147c-34 -20 -71 -32 -110 -32c-61 0 -116 33 -116 99c0 71 51 119 98 147c34 20 71 32 110 32z" fill="currentColor"/>
</g>
<g transform="translate(128.1544, 54.7504)">
<rect x="-0.0614" y="-5.0283" width="0.1228" height="2.6985" ry="0.0421" fill="currentColor"/>
</g>
<g transform="translate(129.0658, 52.1715)">
<path transform="scale(0.0029, -0.0029)" d="M208 139c61 0 117 -33 117 -99c0 -71 -52 -119 -99 -147c-34 -20 -71 -32 -110 -32c-61 0 -116 33 -116 99c0 71 51 119 98 147c34 20 71 32 110 32z" fill="currentColor"/>
</g>
<g transform="translate(129.9609, 54.7504)">
<rect x="-0.0614" y="-5.0283" width="0.1228" height="2.3301" ry="0.0421" fill="currentColor"/>
</g>
<g transform="translate(130.5223, 52.5399)">
<path transform="scale(0.0029, -0.0029)" d="M208 139c61 0 117 -33 117 -99c0 -71 -52 -119 -99 -147c-34 -20 -71 -32 -110 -32c-61 0 -116 33 -116 99c0 71 51 119 98 147c34 20 71 32 110 32z" fill="currentColor"/>
</g>
<g transform="translate(131.4174, 54.7504)">
<rect x="-0.0614" y="-5.0283" width="0.1228" height="2.6985" ry="0.0421" fill="currentColor"/>
</g>
<g transform="translate(121.4293, 53.6452)">
<path transform="scale(0.0029, -0.0029)" d="M208 139c61 0 117 -33 117 -99c0 -71 -52 -119 -99 -147c-34 -20 -71 -32 -110 -32c-61 0 -116 33 -116 99c0 71 51 119 98 147c34 20 71 32 110 32z" fill="currentColor"/>
</g>
<g transform="translate(122.3244, 54.7504)">
<rect x="-0.0614" y="-4.3187" width="0.1228" height="3.0942" ry="0.0421" fill="currentColor"/>
</g>
<g transform="translate(124.1463, 53.2768)">
<path transform="scale(0.0029, -0.0029)" d="M208 139c61 0 117 -33 117 -99c0 -71 -52 -119 -99 -147c-34 -20 -71 -32 -110 -32c-61 0 -116 33 -116 99c0 71 51 119 98 147c34 20 71 32 110 32z" fill="currentColor"/>
</g>
<g transform="translate(125.0414, 54.7504)">
<rect x="-0.0614" y="-4.5456" width="0.1228" height="2.9526" ry="0.0421" fill="currentColor"/>
</g>
<g transform="translate(122.9858, 53.2768)">
<path transform="scale(0.0029, -0.0029)" d="M0 114c0 12 7 22 18 26l37 15v151c0 12 10 22 22 22s22 -10 22 -22v-134l77 29v152c0 12 10 22 22 22s22 -10 22 -22v-134l16 6c3 1 8 2 11 2c15 0 28 -12 28 -28v-50c0 -12 -7 -23 -18 -27l-37 -14v-152l16 7c3 1 8 2 11 2c15 0 28 -13 28 -29v-50c0 -12 -7 -22 -18 -26
l-37 -15v-151c0 -12 -10 -22 -22 -22s-22 10 -22 22v134l-77 -29v-152c0 -12 -10 -22 -22 -22s-22 10 -22 22v134l-16 -6c-3 -1 -8 -2 -11 -2c-15 0 -28 12 -28 28v50c0 12 7 23 18 27l37 14v152l-16 -7c-3 -1 -8 -2 -11 -2c-15 0 -28 13 -28 29v50zM176 91l-77 -30v-152
l77 30v152z" fill="currentColor"/>
</g>
<g transform="translate(125.7028, 52.9083)">
<path transform="scale(0.0029, -0.0029)" d="M208 139c61 0 117 -33 117 -99c0 -71 -52 -119 -99 -147c-34 -20 -71 -32 -110 -32c-61 0 -116 33 -116 99c0 71 51 119 98 147c34 20 71 32 110 32z" fill="currentColor"/>
</g>
<g transform="translate(126.5979, 54.7504)">
<rect x="-0.0614" y="-5.0283" width="0.1228" height="3.0669" ry="0.0421" fill="currentColor"/>
</g>
<g transform="translate(141.1604, 54.3820)">
<path transform="scale(0.0029, -0.0029)" d="M208 139c61 0 117 -33 117 -99c0 -71 -52 -119 -99 -147c-34 -20 -71 -32 -110 -32c-61 0 -116 33 -116 99c0 71 51 119 98 147c34 20 71 32 110 32z" fill="currentColor"/>
</g>
<g transform="translate(142.0555, 54.7504)">
<rect x="-0.0614" y="-4.7883" width="0.1228" height="4.3006" ry="0.0421" fill="currentColor"/>
</g>
<g transform="translate(138.4992, 54.7504)">
<rect x="-0.0614" y="-5.0283" width="0.1228" height="4.1722" ry="0.0421" fill="currentColor"/>
</g>
<g transform="translate(139.9998, 54.3820)">
<path transform="scale(0.0029, -0.0029)" d="M0 114c0 12 7 22 18 26l37 15v151c0 12 10 22 22 22s22 -10 22 -22v-134l77 29v152c0 12 10 22 22 22s22 -10 22 -22v-134l16 6c3 1 8 2 11 2c15 0 28 -12 28 -28v-50c0 -12 -7 -23 -18 -27l-37 -14v-152l16 7c3 1 8 2 11 2c15 0 28 -13 28 -29v-50c0 -12 -7 -22 -18 -26
l-37 -15v-151c0 -12 -10 -22 -22 -22s-22 10 -22 22v134l-77 -29v-152c0 -12 -10 -22 -22 -22s-22 10 -22 22v134l-16 -6c-3 -1 -8 -2 -11 -2c-15 0 -28 12 -28 28v50c0 12 7 23 18 27l37 14v152l-16 -7c-3 -1 -8 -2 -11 -2c-15 0 -28 13 -28 29v50zM176 91l-77 -30v-152
l77 30v152z" fill="currentColor"/>
</g>
<g transform="translate(134.4911, 53.2768)">
<path transform="scale(0.0029, -0.0029)" d="M208 139c61 0 117 -33 117 -99c0 -71 -52 -119 -99 -147c-34 -20 -71 -32 -110 -32c-61 0 -116 33 -116 99c0 71 51 119 98 147c34 20 71 32 110 32z" fill="currentColor"/>
</g>
<g transform="translate(135.3862, 54.7504)">
<rect x="-0.0614" y="-5.0283" width="0.1228" height="3.4354" ry="0.0421" fill="currentColor"/>
</g>
<g transform="translate(132.9738, 54.7504)">
<rect x="-0.0614" y="-5.0283" width="0.1228" height="3.0669" ry="0.0421" fill="currentColor"/>
</g>
<g transform="translate(133.6352, 53.2768)">
<path transform="scale(0.0029, -0.0029)" d="M-8 375c8 5 18 7 27 7s20 -2 28 -7l-3 -196l99 24h4c11 0 20 -8 20 -19l8 -559c-8 -5 -19 -7 -28 -7s-19 2 -27 7l3 196l-99 -24h-5c-11 0 -19 8 -19 19zM127 109l-85 -20l-2 -198l84 20z" fill="currentColor"/>
</g>
<g transform="translate(136.0476, 53.6452)">
<path transform="scale(0.0029, -0.0029)" d="M208 139c61 0 117 -33 117 -99c0 -71 -52 -119 -99 -147c-34 -20 -71 -32 -110 -32c-61 0 -116 33 -116 99c0 71 51 119 98 147c34 20 71 32 110 32z" fill="currentColor"/>
</g>
<g transform="translate(136.9427, 54.7504)">
<rect x="-0.0614" y="-5.0283" width="0.1228" height="3.8038" ry="0.0421" fill="currentColor"/>
</g>
<g transform="translate(137.6041, 54.0136)">
<path transform="scale(0.0029, -0.0029)" d="M208 139c61 0 117 -33 117 -99c0 -71 -52 -119 -99 -147c-34 -20 -71 -32 -110 -32c-61 0 -116 33 -116 99c0 71 51 119 98 147c34 20 71 32 110 32z" fill="currentColor"/>
</g>
<g transform="translate(108.5660, 54.7504)">
<rect x="-0.0614" y="-2.4414" width="0.1228" height="2.6905" ry="0.0421" fill="currentColor"/>
</g>
<g transform="translate(103.3974, 55.8557)">
<path transform="scale(0.0029, -0.0029)" d="M0 114c0 12 7 22 18 26l37 15v151c0 12 10 22 22 22s22 -10 22 -22v-134l77 29v152c0 12 10 22 22 22s22 -10 22 -22v-134l16 6c3 1 8 2 11 2c15 0 28 -12 28 -28v-50c0 -12 -7 -23 -18 -27l-37 -14v-152l16 7c3 1 8 2 11 2c15 0 28 -13 28 -29v-50c0 -12 -7 -22 -18 -26
l-37 -15v-151c0 -12 -10 -22 -22 -22s-22 10 -22 22v134l-77 -29v-152c0 -12 -10 -22 -22 -22s-22 10 -22 22v134l-16 -6c-3 -1 -8 -2 -11 -2c-15 0 -28 12 -28 28v50c0 12 7 23 18 27l37 14v152l-16 -7c-3 -1 -8 -2 -11 -2c-15 0 -28 13 -28 29v50zM176 91l-77 -30v-152
l77 30v152z" fill="currentColor"/>
</g>
<g transform="translate(106.1144, 55.4873)">
<path transform="scale(0.0029, -0.0029)" d="M208 139c61 0 117 -33 117 -99c0 -71 -52 -119 -99 -147c-34 -20 -71 -32 -110 -32c-61 0 -116 33 -116 99c0 71 51 119 98 147c34 20 71 32 110 32z" fill="currentColor"/>
</g>
<g transform="translate(107.0095, 54.7504)">
<rect x="-0.0614" y="-2.2568" width="0.1228" height="2.8744" ry="0.0421" fill="currentColor"/>
</g>
<g transform="translate(107.6709, 55.1189)">
<path transform="scale(0.0029, -0.0029)" d="M208 139c61 0 117 -33 117 -99c0 -71 -52 -119 -99 -147c-34 -20 -71 -32 -110 -32c-61 0 -116 33 -116 99c0 71 51 119 98 147c34 20 71 32 110 32z" fill="currentColor"/>
</g>
<g transform="translate(109.2274, 54.7504)">
<path transform="scale(0.0029, -0.0029)" d="M208 139c61 0 117 -33 117 -99c0 -71 -52 -119 -99 -147c-34 -20 -71 -32 -110 -32c-61 0 -116 33 -116 99c0 71 51 119 98 147c34 20 71 32 110 32z" fill="currentColor"/>
</g>
<g transform="translate(110.1225, 54.7504)">
<rect x="-0.0614" y="-2.6259" width="0.1228" height="2.5067" ry="0.0421" fill="currentColor"/>
</g>
<g transform="translate(101.8409, 56.2241)">
<path transform="scale(0.0029, -0.0029)" d="M208 139c61 0 117 -33 117 -99c0 -71 -52 -119 -99 -147c-34 -20 -71 -32 -110 -32c-61 0 -116 33 -116 99c0 71 51 119 98 147c34 20 71 32 110 32z" fill="currentColor"/>
</g>
<g transform="translate(168.2537, 49.7222)">
<polygon stroke-linejoin="round" stroke-linecap="round" stroke-width="0.0842" fill="currentColor" stroke="currentColor" points="10.5761 2.0758 10.5761 2.3453 0.0421 0.1347 0.0421 -0.1347"/>
</g>
<g transform="translate(168.2537, 50.3294)">
<polygon stroke-linejoin="round" stroke-linecap="round" stroke-width="0.0842" fill="currentColor" stroke="currentColor" points="10.5761 2.0758 10.5761 2.3453 0.0421 0.1347 0.0421 -0.1347"/>
</g>
<g transform="translate(168.2537, 50.9366)">
<polygon stroke-linejoin="round" stroke-linecap="round" stroke-width="0.0842" fill="currentColor" stroke="currentColor" points="10.5761 2.0758 10.5761 2.3453 0.0421 0.1347 0.0421 -0.1347"/>
</g>
<g transform="translate(100.2844, 56.5926)">
<path transform="scale(0.0029, -0.0029)" d="M208 139c61 0 117 -33 117 -99c0 -71 -52 -119 -99 -147c-34 -20 -71 -32 -110 -32c-61 0 -116 33 -116 99c0 71 51 119 98 147c34 20 71 32 110 32z" fill="currentColor"/>
</g>
<g transform="translate(101.1795, 54.7504)">
<rect x="-0.0614" y="-1.5655" width="0.1228" height="3.2884" ry="0.0421" fill="currentColor"/>
</g>
<g transform="translate(102.7360, 54.7504)">
<rect x="-0.0614" y="-1.7501" width="0.1228" height="3.1045" ry="0.0421" fill="currentColor"/>
</g>
<g transform="translate(104.5579, 55.8557)">
<path transform="scale(0.0029, -0.0029)" d="M208 139c61 0 117 -33 117 -99c0 -71 -52 -119 -99 -147c-34 -20 -71 -32 -110 -32c-61 0 -116 33 -116 99c0 71 51 119 98 147c34 20 71 32 110 32z" fill="currentColor"/>
</g>
<g transform="translate(105.4530, 54.7504)">
<rect x="-0.0614" y="-2.0722" width="0.1228" height="3.0583" ry="0.0421" fill="currentColor"/>
</g>
<g transform="translate(118.3163, 54.3820)">
<path transform="scale(0.0029, -0.0029)" d="M208 139c61 0 117 -33 117 -99c0 -71 -52 -119 -99 -147c-34 -20 -71 -32 -110 -32c-61 0 -116 33 -116 99c0 71 51 119 98 147c34 20 71 32 110 32z" fill="currentColor"/>
</g>
<g transform="translate(116.7598, 54.7504)">
<path transform="scale(0.0029, -0.0029)" d="M208 139c61 0 117 -33 117 -99c0 -71 -52 -119 -99 -147c-34 -20 -71 -32 -110 -32c-61 0 -116 33 -116 99c0 71 51 119 98 147c34 20 71 32 110 32z" fill="currentColor"/>
</g>
<g transform="translate(117.6549, 54.7504)">
<rect x="-0.0614" y="-3.9288" width="0.1228" height="3.8095" ry="0.0421" fill="currentColor"/>
</g>
<g transform="translate(116.0984, 54.7504)">
<rect x="-0.0614" y="-3.7988" width="0.1228" height="4.0480" ry="0.0421" fill="currentColor"/>
</g>
<g transform="translate(119.2114, 54.7504)">
<rect x="-0.0614" y="-4.0587" width="0.1228" height="3.5711" ry="0.0421" fill="currentColor"/>
</g>
<g transform="translate(119.8728, 54.0136)">
<path transform="scale(0.0029, -0.0029)" d="M208 139c61 0 117 -33 117 -99c0 -71 -52 -119 -99 -147c-34 -20 -71 -32 -110 -32c-61 0 -116 33 -116 99c0 71 51 119 98 147c34 20 71 32 110 32z" fill="currentColor"/>
</g>
<g transform="translate(120.7679, 54.7504)">
<rect x="-0.0614" y="-4.1887" width="0.1228" height="3.3326" ry="0.0421" fill="currentColor"/>
</g>
<g transform="translate(110.7839, 54.3820)">
<path transform="scale(0.0029, -0.0029)" d="M208 139c61 0 117 -33 117 -99c0 -71 -52 -119 -99 -147c-34 -20 -71 -32 -110 -32c-61 0 -116 33 -116 99c0 71 51 119 98 147c34 20 71 32 110 32z" fill="currentColor"/>
</g>
<g transform="translate(111.6790, 54.7504)">
<rect x="-0.0614" y="-2.8105" width="0.1228" height="2.3228" ry="0.0421" fill="currentColor"/>
</g>
<g transform="translate(112.3404, 54.0136)">
<path transform="scale(0.0029, -0.0029)" d="M208 139c61 0 117 -33 117 -99c0 -71 -52 -119 -99 -147c-34 -20 -71 -32 -110 -32c-61 0 -116 33 -116 99c0 71 51 119 98 147c34 20 71 32 110 32z" fill="currentColor"/>
</g>
<g transform="translate(113.2355, 54.7504)">
<rect x="-0.0614" y="-3.5597" width="0.1228" height="2.7036" ry="0.0421" fill="currentColor"/>
</g>
<g transform="translate(113.6469, 55.4873)">
<path transform="scale(0.0029, -0.0029)" d="M208 139c61 0 117 -33 117 -99c0 -71 -52 -119 -99 -147c-34 -20 -71 -32 -110 -32c-61 0 -116 33 -116 99c0 71 51 119 98 147c34 20 71 32 110 32z" fill="currentColor"/>
</g>
<g transform="translate(114.5420, 54.7504)">
<rect x="-0.0614" y="-3.6688" width="0.1228" height="4.2864" ry="0.0421" fill="currentColor"/>
</g>
<g transform="translate(115.2033, 55.1189)">
<path transform="scale(0.0029, -0.0029)" d="M208 139c61 0 117 -33 117 -99c0 -71 -52 -119 -99 -147c-34 -20 -71 -32 -110 -32c-61 0 -116 33 -116 99c0 71 51 119 98 147c34 20 71 32 110 32z" fill="currentColor"/>
</g>
<g transform="translate(172.6846, 54.7504)">
<rect x="-0.0614" y="-4.1058" width="0.1228" height="3.6182" ry="0.0421" fill="currentColor"/>
</g>
<g transform="translate(170.3330, 53.6452)">
<path transform="scale(0.0029, -0.0029)" d="M208 139c61 0 117 -33 117 -99c0 -71 -52 -119 -99 -147c-34 -20 -71 -32 -110 -32c-61 0 -116 33 -116 99c0 71 51 119 98 147c34 20 71 32 110 32z" fill="currentColor"/>
</g>
<g transform="translate(171.2281, 54.7504)">
<rect x="-0.0614" y="-4.4091" width="0.1228" height="3.1846" ry="0.0421" fill="currentColor"/>
</g>
<g transform="translate(171.7895, 54.3820)">
<path transform="scale(0.0029, -0.0029)" d="M208 139c61 0 117 -33 117 -99c0 -71 -52 -119 -99 -147c-34 -20 -71 -32 -110 -32c-61 0 -116 33 -116 99c0 71 51 119 98 147c34 20 71 32 110 32z" fill="currentColor"/>
</g>
<g transform="translate(173.2460, 55.1189)">
<path transform="scale(0.0029, -0.0029)" d="M208 139c61 0 117 -33 117 -99c0 -71 -52 -119 -99 -147c-34 -20 -71 -32 -110 -32c-61 0 -116 33 -116 99c0 71 51 119 98 147c34 20 71 32 110 32z" fill="currentColor"/>
</g>
<g transform="translate(174.1411, 54.7504)">
<rect x="-0.0614" y="-3.8026" width="0.1228" height="4.0518" ry="0.0421" fill="currentColor"/>
</g>
<g transform="translate(164.9521, 54.7504)">
<rect x="-0.0614" y="-4.5731" width="0.1228" height="2.6117" ry="0.0421" fill="currentColor"/>
</g>
<g transform="translate(165.6135, 52.5399)">
<path transform="scale(0.0029, -0.0029)" d="M208 139c61 0 117 -33 117 -99c0 -71 -52 -119 -99 -147c-34 -20 -71 -32 -110 -32c-61 0 -116 33 -116 99c0 71 51 119 98 147c34 20 71 32 110 32z" fill="currentColor"/>
</g>
<g transform="translate(166.5086, 54.7504)">
<rect x="-0.0614" y="-4.7813" width="0.1228" height="2.4515" ry="0.0421" fill="currentColor"/>
</g>
<g transform="translate(167.4200, 52.1715)">
<path transform="scale(0.0029, -0.0029)" d="M208 139c61 0 117 -33 117 -99c0 -71 -52 -119 -99 -147c-34 -20 -71 -32 -110 -32c-61 0 -116 33 -116 99c0 71 51 119 98 147c34 20 71 32 110 32z" fill="currentColor"/>
</g>
<g transform="translate(168.3151, 54.7504)">
<rect x="-0.0614" y="-5.0155" width="0.1228" height="2.3173" ry="0.0421" fill="currentColor"/>
</g>
<g transform="translate(168.8765, 52.9083)">
<path transform="scale(0.0029, -0.0029)" d="M208 139c61 0 117 -33 117 -99c0 -71 -52 -119 -99 -147c-34 -20 -71 -32 -110 -32c-61 0 -116 33 -116 99c0 71 51 119 98 147c34 20 71 32 110 32z" fill="currentColor"/>
</g>
<g transform="translate(169.7716, 54.7504)">
<rect x="-0.0614" y="-4.7123" width="0.1228" height="2.7509" ry="0.0421" fill="currentColor"/>
</g>
<g transform="translate(39.8404, 54.7504)">
<path stroke-width="0.0755" stroke-linejoin="round" stroke-linecap="round" stroke="currentColor" fill="currentColor" d="M0.8593 -3.8680C2.3132 -5.2585 9.9269 -6.1197 11.6547 -5.0890L11.6547 -5.0890C9.9397 -6.0071 2.3259 -5.1459 0.8593 -3.8680z"/>
</g>
<g transform="translate(26.3059, 52.6695)">
<polygon stroke-linejoin="round" stroke-linecap="round" stroke-width="0.0842" fill="currentColor" stroke="currentColor" points="12.8925 -1.3696 12.8925 -1.1002 0.0421 0.1347 0.0421 -0.1347"/>
</g>
<g transform="translate(26.3059, 53.2768)">
<polygon stroke-linejoin="round" stroke-linecap="round" stroke-width="0.0842" fill="currentColor" stroke="currentColor" points="12.8925 -1.3696 12.8925 -1.1002 0.0421 0.1347 0.0421 -0.1347"/>
</g>
<g transform="translate(26.3059, 53.8840)">
<polygon stroke-linejoin="round" stroke-linecap="round" stroke-width="0.0842" fill="currentColor" stroke="currentColor" points="12.8925 -1.3696 12.8925 -1.1002 0.0421 0.1347 0.0421 -0.1347"/>
</g>
<g transform="translate(25.4721, 54.7504)">
<path stroke-width="0.0755" stroke-linejoin="round" stroke-linecap="round" stroke="currentColor" fill="currentColor" d="M0.8648 -2.6320C2.4605 -4.0543 11.8406 -4.9498 13.6766 -3.8552L13.6766 -3.8552C11.8513 -4.8370 2.4713 -3.9415 0.8648 -2.6320z"/>
</g>
<g transform="translate(40.6741, 51.4347)">
<polygon stroke-linejoin="round" stroke-linecap="round" stroke-width="0.0842" fill="currentColor" stroke="currentColor" points="10.8761 -1.3696 10.8761 -1.1002 0.0421 0.1347 0.0421 -0.1347"/>
</g>
<g transform="translate(40.6741, 52.0419)">
<polygon stroke-linejoin="round" stroke-linecap="round" stroke-width="0.0842" fill="currentColor" stroke="currentColor" points="10.8761 -1.3696 10.8761 -1.1002 0.0421 0.1347 0.0421 -0.1347"/>
</g>
<g transform="translate(40.6741, 52.6491)">
<polygon stroke-linejoin="round" stroke-linecap="round" stroke-width="0.0842" fill="currentColor" stroke="currentColor" points="10.8761 -1.3696 10.8761 -1.1002 0.0421 0.1347 0.0421 -0.1347"/>
</g>
<g transform="translate(53.2760, 49.7222)">
<polygon stroke-linejoin="round" stroke-linecap="round" stroke-width="0.0842" fill="currentColor" stroke="currentColor" points="6.0501 1.9462 6.0501 2.2156 0.0421 0.1347 0.0421 -0.1347"/>
</g>
<g transform="translate(53.2760, 50.3294)">
<polygon stroke-linejoin="round" stroke-linecap="round" stroke-width="0.0842" fill="currentColor" stroke="currentColor" points="6.0501 1.9462 6.0501 2.2156 0.0421 0.1347 0.0421 -0.1347"/>
</g>
<g transform="translate(62.7314, 53.4064)">
<polygon stroke-linejoin="round" stroke-linecap="round" stroke-width="0.0842" fill="currentColor" stroke="currentColor" points="12.1366 -1.6084 12.1366 -1.3389 0.0421 0.1347 0.0421 -0.1347"/>
</g>
<g transform="translate(62.7314, 54.0136)">
<polygon stroke-linejoin="round" stroke-linecap="round" stroke-width="0.0842" fill="currentColor" stroke="currentColor" points="12.1366 -1.6084 12.1366 -1.3389 0.0421 0.1347 0.0421 -0.1347"/>
</g>
<g transform="translate(62.7314, 54.6208)">
<polygon stroke-linejoin="round" stroke-linecap="round" stroke-width="0.0842" fill="currentColor" stroke="currentColor" points="12.1366 -1.6084 12.1366 -1.3389 0.0421 0.1347 0.0421 -0.1347"/>
</g>
<g transform="translate(76.3438, 51.1959)">
<polygon stroke-linejoin="round" stroke-linecap="round" stroke-width="0.0842" fill="currentColor" stroke="currentColor" points="12.0366 -1.1308 12.0366 -0.8614 0.0421 0.1347 0.0421 -0.1347"/>
</g>
<g transform="translate(76.3438, 51.8031)">
<polygon stroke-linejoin="round" stroke-linecap="round" stroke-width="0.0842" fill="currentColor" stroke="currentColor" points="12.0366 -1.1308 12.0366 -0.8614 0.0421 0.1347 0.0421 -0.1347"/>
</g>
<g transform="translate(76.3438, 52.4103)">
<polygon stroke-linejoin="round" stroke-linecap="round" stroke-width="0.0842" fill="currentColor" stroke="currentColor" points="12.0366 -1.1308 12.0366 -0.8614 0.0421 0.1347 0.0421 -0.1347"/>
</g>
<g transform="translate(89.8563, 50.6978)">
<polygon stroke-linejoin="round" stroke-linecap="round" stroke-width="0.0842" fill="currentColor" stroke="currentColor" points="6.0501 1.8370 6.0501 2.1065 0.0421 0.1347 0.0421 -0.1347"/>
</g>
<g transform="translate(89.8563, 51.3050)">
<polygon stroke-linejoin="round" stroke-linecap="round" stroke-width="0.0842" fill="currentColor" stroke="currentColor" points="6.0501 1.8370 6.0501 2.1065 0.0421 0.1347 0.0421 -0.1347"/>
</g>
<g transform="translate(99.3117, 53.4064)">
<polygon stroke-linejoin="round" stroke-linecap="round" stroke-width="0.0842" fill="currentColor" stroke="currentColor" points="12.3866 -1.6084 12.3866 -1.3389 0.0421 0.1347 0.0421 -0.1347"/>
</g>
<g transform="translate(99.3117, 54.0136)">
<polygon stroke-linejoin="round" stroke-linecap="round" stroke-width="0.0842" fill="currentColor" stroke="currentColor" points="12.3866 -1.6084 12.3866 -1.3389 0.0421 0.1347 0.0421 -0.1347"/>
</g>
<g transform="translate(99.3117, 54.6208)">
<polygon stroke-linejoin="round" stroke-linecap="round" stroke-width="0.0842" fill="currentColor" stroke="currentColor" points="12.3866 -1.6084 12.3866 -1.3389 0.0421 0.1347 0.0421 -0.1347"/>
</g>
<g transform="translate(113.1741, 51.1959)">
<polygon stroke-linejoin="round" stroke-linecap="round" stroke-width="0.0842" fill="currentColor" stroke="currentColor" points="11.8866 -1.1308 11.8866 -0.8614 0.0421 0.1347 0.0421 -0.1347"/>
</g>
<g transform="translate(113.1741, 51.8031)">
<polygon stroke-linejoin="round" stroke-linecap="round" stroke-width="0.0842" fill="currentColor" stroke="currentColor" points="11.8866 -1.1308 11.8866 -0.8614 0.0421 0.1347 0.0421 -0.1347"/>
</g>
<g transform="translate(113.1741, 52.4103)">
<polygon stroke-linejoin="round" stroke-linecap="round" stroke-width="0.0842" fill="currentColor" stroke="currentColor" points="11.8866 -1.1308 11.8866 -0.8614 0.0421 0.1347 0.0421 -0.1347"/>
</g>
<g transform="translate(126.5365, 49.7222)">
<polygon stroke-linejoin="round" stroke-linecap="round" stroke-width="0.0842" fill="currentColor" stroke="currentColor" points="11.9819 -0.1347 11.9819 0.1347 0.0421 0.1347 0.0421 -0.1347"/>
</g>
<g transform="translate(126.5365, 50.3294)">
<polygon stroke-linejoin="round" stroke-linecap="round" stroke-width="0.0842" fill="currentColor" stroke="currentColor" points="11.9819 -0.1347 11.9819 0.1347 0.0421 0.1347 0.0421 -0.1347"/>
</g>
<g transform="translate(126.5365, 50.9366)">
<polygon stroke-linejoin="round" stroke-linecap="round" stroke-width="0.0842" fill="currentColor" stroke="currentColor" points="11.9819 -0.1347 11.9819 0.1347 0.0421 0.1347 0.0421 -0.1347"/>
</g>
<g transform="translate(141.9941, 49.9610)">
<polygon stroke-linejoin="round" stroke-linecap="round" stroke-width="0.0842" fill="currentColor" stroke="currentColor" points="12.0819 0.1041 12.0819 0.3735 0.0421 0.1347 0.0421 -0.1347"/>
</g>
<g transform="translate(141.9941, 50.5682)">
<polygon stroke-linejoin="round" stroke-linecap="round" stroke-width="0.0842" fill="currentColor" stroke="currentColor" points="12.0819 0.1041 12.0819 0.3735 0.0421 0.1347 0.0421 -0.1347"/>
</g>
<g transform="translate(141.9941, 51.1754)">
<polygon stroke-linejoin="round" stroke-linecap="round" stroke-width="0.0842" fill="currentColor" stroke="currentColor" points="12.0819 0.1041 12.0819 0.3735 0.0421 0.1347 0.0421 -0.1347"/>
</g>
<g transform="translate(155.5518, 51.4347)">
<polygon stroke-linejoin="round" stroke-linecap="round" stroke-width="0.0842" fill="currentColor" stroke="currentColor" points="10.9761 -1.6084 10.9761 -1.3389 0.0421 0.1347 0.0421 -0.1347"/>
</g>
<g transform="translate(155.5518, 52.0419)">
<polygon stroke-linejoin="round" stroke-linecap="round" stroke-width="0.0842" fill="currentColor" stroke="currentColor" points="10.9761 -1.6084 10.9761 -1.3389 0.0421 0.1347 0.0421 -0.1347"/>
</g>
<g transform="translate(155.5518, 52.6491)">
<polygon stroke-linejoin="round" stroke-linecap="round" stroke-width="0.0842" fill="currentColor" stroke="currentColor" points="10.9761 -1.6084 10.9761 -1.3389 0.0421 0.1347 0.0421 -0.1347"/>
</g>
<g transform="translate(174.8025, 55.4873)">
<path transform="scale(0.0029, -0.0029)" d="M208 139c61 0 117 -33 117 -99c0 -71 -52 -119 -99 -147c-34 -20 -71 -32 -110 -32c-61 0 -116 33 -116 99c0 71 51 119 98 147c34 20 71 32 110 32z" fill="currentColor"/>
</g>
<g transform="translate(175.6976, 54.7504)">
<rect x="-0.0614" y="-3.4786" width="0.1228" height="4.0962" ry="0.0421" fill="currentColor"/>
</g>
<g transform="translate(176.3589, 55.8557)">
<path transform="scale(0.0029, -0.0029)" d="M208 139c61 0 117 -33 117 -99c0 -71 -52 -119 -99 -147c-34 -20 -71 -32 -110 -32c-61 0 -116 33 -116 99c0 71 51 119 98 147c34 20 71 32 110 32z" fill="currentColor"/>
</g>
<g transform="translate(177.2540, 54.7504)">
<rect x="-0.0614" y="-3.1546" width="0.1228" height="4.1406" ry="0.0421" fill="currentColor"/>
</g>
<g transform="translate(164.0570, 52.9083)">
<path transform="scale(0.0029, -0.0029)" d="M208 139c61 0 117 -33 117 -99c0 -71 -52 -119 -99 -147c-34 -20 -71 -32 -110 -32c-61 0 -116 33 -116 99c0 71 51 119 98 147c34 20 71 32 110 32z" fill="currentColor"/>
</g>
<g transform="translate(177.9154, 56.2241)">
<path transform="scale(0.0029, -0.0029)" d="M208 139c61 0 117 -33 117 -99c0 -71 -52 -119 -99 -147c-34 -20 -71 -32 -110 -32c-61 0 -116 33 -116 99c0 71 51 119 98 147c34 20 71 32 110 32z" fill="currentColor"/>
</g>
<g transform="translate(178.8105, 54.7504)">
<rect x="-0.0614" y="-2.8305" width="0.1228" height="4.1850" ry="0.0421" fill="currentColor"/>
</g>
<g transform="translate(148.5314, 54.7504)">
<rect x="-0.0614" y="-4.6607" width="0.1228" height="3.4362" ry="0.0421" fill="currentColor"/>
</g>
<g transform="translate(149.1928, 54.0136)">
<path transform="scale(0.0029, -0.0029)" d="M208 139c61 0 117 -33 117 -99c0 -71 -52 -119 -99 -147c-34 -20 -71 -32 -110 -32c-61 0 -116 33 -116 99c0 71 51 119 98 147c34 20 71 32 110 32z" fill="currentColor"/>
</g>
<g transform="translate(150.0879, 54.7504)">
<rect x="-0.0614" y="-4.6301" width="0.1228" height="3.7740" ry="0.0421" fill="currentColor"/>
</g>
<g transform="translate(147.6363, 53.6452)">
<path transform="scale(0.0029, -0.0029)" d="M208 139c61 0 117 -33 117 -99c0 -71 -52 -119 -99 -147c-34 -20 -71 -32 -110 -32c-61 0 -116 33 -116 99c0 71 51 119 98 147c34 20 71 32 110 32z" fill="currentColor"/>
</g>
<g transform="translate(150.7493, 54.3820)">
<path transform="scale(0.0029, -0.0029)" d="M208 139c61 0 117 -33 117 -99c0 -71 -52 -119 -99 -147c-34 -20 -71 -32 -110 -32c-61 0 -116 33 -116 99c0 71 51 119 98 147c34 20 71 32 110 32z" fill="currentColor"/>
</g>
<g transform="translate(151.6444, 54.7504)">
<rect x="-0.0614" y="-4.5994" width="0.1228" height="4.1117" ry="0.0421" fill="currentColor"/>
</g>
<g transform="translate(153.1616, 54.7504)">
<path transform="scale(0.0029, -0.0029)" d="M208 139c61 0 117 -33 117 -99c0 -71 -52 -119 -99 -147c-34 -20 -71 -32 -110 -32c-61 0 -116 33 -116 99c0 71 51 119 98 147c34 20 71 32 110 32z" fill="currentColor"/>
</g>
<g transform="translate(154.0567, 54.7504)">
<rect x="-0.0614" y="-4.5519" width="0.1228" height="4.4327" ry="0.0421" fill="currentColor"/>
</g>
<g transform="translate(142.9669, 52.5399)">
<path transform="scale(0.0029, -0.0029)" d="M208 139c61 0 117 -33 117 -99c0 -71 -52 -119 -99 -147c-34 -20 -71 -32 -110 -32c-61 0 -116 33 -116 99c0 71 51 119 98 147c34 20 71 32 110 32z" fill="currentColor"/>
</g>
<g transform="translate(143.8620, 54.7504)">
<rect x="-0.0614" y="-4.7527" width="0.1228" height="2.4229" ry="0.0421" fill="currentColor"/>
</g>
<g transform="translate(144.5233, 52.9083)">
<path transform="scale(0.0029, -0.0029)" d="M208 139c61 0 117 -33 117 -99c0 -71 -52 -119 -99 -147c-34 -20 -71 -32 -110 -32c-61 0 -116 33 -116 99c0 71 51 119 98 147c34 20 71 32 110 32z" fill="currentColor"/>
</g>
<g transform="translate(145.4184, 54.7504)">
<rect x="-0.0614" y="-4.7220" width="0.1228" height="2.7607" ry="0.0421" fill="currentColor"/>
</g>
<g transform="translate(146.0798, 53.2768)">
<path transform="scale(0.0029, -0.0029)" d="M208 139c61 0 117 -33 117 -99c0 -71 -52 -119 -99 -147c-34 -20 -71 -32 -110 -32c-61 0 -116 33 -116 99c0 71 51 119 98 147c34 20 71 32 110 32z" fill="currentColor"/>
</g>
<g transform="translate(146.9749, 54.7504)">
<rect x="-0.0614" y="-4.6914" width="0.1228" height="3.0985" ry="0.0421" fill="currentColor"/>
</g>
<g transform="translate(159.3876, 54.0136)">
<path transform="scale(0.0029, -0.0029)" d="M208 139c61 0 117 -33 117 -99c0 -71 -52 -119 -99 -147c-34 -20 -71 -32 -110 -32c-61 0 -116 33 -116 99c0 71 51 119 98 147c34 20 71 32 110 32z" fill="currentColor"/>
</g>
<g transform="translate(160.2827, 54.7504)">
<rect x="-0.0614" y="-3.9485" width="0.1228" height="3.0925" ry="0.0421" fill="currentColor"/>
</g>
<g transform="translate(160.9441, 53.6452)">
<path transform="scale(0.0029, -0.0029)" d="M208 139c61 0 117 -33 117 -99c0 -71 -52 -119 -99 -147c-34 -20 -71 -32 -110 -32c-61 0 -116 33 -116 99c0 71 51 119 98 147c34 20 71 32 110 32z" fill="currentColor"/>
</g>
<g transform="translate(161.8392, 54.7504)">
<rect x="-0.0614" y="-4.1567" width="0.1228" height="2.9322" ry="0.0421" fill="currentColor"/>
</g>
<g transform="translate(162.5006, 53.2768)">
<path transform="scale(0.0029, -0.0029)" d="M208 139c61 0 117 -33 117 -99c0 -71 -52 -119 -99 -147c-34 -20 -71 -32 -110 -32c-61 0 -116 33 -116 99c0 71 51 119 98 147c34 20 71 32 110 32z" fill="currentColor"/>
</g>
<g transform="translate(163.3957, 54.7504)">
<rect x="-0.0614" y="-4.3649" width="0.1228" height="2.7720" ry="0.0421" fill="currentColor"/>
</g>
<g transform="translate(152.3058, 54.7504)">
<path transform="scale(0.0029, -0.0029)" d="M-8 375c8 5 18 7 27 7s20 -2 28 -7l-3 -196l99 24h4c11 0 20 -8 20 -19l8 -559c-8 -5 -19 -7 -28 -7s-19 2 -27 7l3 196l-99 -24h-5c-11 0 -19 8 -19 19zM127 109l-85 -20l-2 -198l84 20z" fill="currentColor"/>
</g>
<g transform="translate(154.7181, 55.1189)">
<path transform="scale(0.0029, -0.0029)" d="M208 139c61 0 117 -33 117 -99c0 -71 -52 -119 -99 -147c-34 -20 -71 -32 -110 -32c-61 0 -116 33 -116 99c0 71 51 119 98 147c34 20 71 32 110 32z" fill="currentColor"/>
</g>
<g transform="translate(155.6132, 54.7504)">
<rect x="-0.0614" y="-3.3240" width="0.1228" height="3.5732" ry="0.0421" fill="currentColor"/>
</g>
<g transform="translate(156.2746, 54.7504)">
<path transform="scale(0.0029, -0.0029)" d="M208 139c61 0 117 -33 117 -99c0 -71 -52 -119 -99 -147c-34 -20 -71 -32 -110 -32c-61 0 -116 33 -116 99c0 71 51 119 98 147c34 20 71 32 110 32z" fill="currentColor"/>
</g>
<g transform="translate(157.1697, 54.7504)">
<rect x="-0.0614" y="-3.5322" width="0.1228" height="3.4130" ry="0.0421" fill="currentColor"/>
</g>
<g transform="translate(157.8311, 54.3820)">
<path transform="scale(0.0029, -0.0029)" d="M208 139c61 0 117 -33 117 -99c0 -71 -52 -119 -99 -147c-34 -20 -71 -32 -110 -32c-61 0 -116 33 -116 99c0 71 51 119 98 147c34 20 71 32 110 32z" fill="currentColor"/>
</g>
<g transform="translate(158.7262, 54.7504)">
<rect x="-0.0614" y="-3.7404" width="0.1228" height="3.2527" ry="0.0421" fill="currentColor"/>
</g>
<g transform="translate(49.0793, 52.9083)">
<path transform="scale(0.0029, -0.0029)" d="M208 139c61 0 117 -33 117 -99c0 -71 -52 -119 -99 -147c-34 -20 -71 -32 -110 -32c-61 0 -116 33 -116 99c0 71 51 119 98 147c34 20 71 32 110 32z" fill="currentColor"/>
</g>
<g transform="translate(49.9744, 54.7504)">
<rect x="-0.0614" y="-4.3677" width="0.1228" height="2.4064" ry="0.0421" fill="currentColor"/>
</g>
<g transform="translate(50.6358, 52.5399)">
<path transform="scale(0.0029, -0.0029)" d="M208 139c61 0 117 -33 117 -99c0 -71 -52 -119 -99 -147c-34 -20 -71 -32 -110 -32c-61 0 -116 33 -116 99c0 71 51 119 98 147c34 20 71 32 110 32z" fill="currentColor"/>
</g>
<g transform="translate(51.5309, 54.7504)">
<rect x="-0.0614" y="-4.5437" width="0.1228" height="2.2140" ry="0.0421" fill="currentColor"/>
</g>
<g transform="translate(52.4423, 52.1715)">
<path transform="scale(0.0029, -0.0029)" d="M208 139c61 0 117 -33 117 -99c0 -71 -52 -119 -99 -147c-34 -20 -71 -32 -110 -32c-61 0 -116 33 -116 99c0 71 51 119 98 147c34 20 71 32 110 32z" fill="currentColor"/>
</g>
<g transform="translate(53.3374, 54.7504)">
<rect x="-0.0614" y="-5.0073" width="0.1228" height="2.3091" ry="0.0421" fill="currentColor"/>
</g>
<g transform="translate(54.3488, 56.5926)">
<path transform="scale(0.0029, -0.0029)" d="M208 139c61 0 117 -33 117 -99c0 -71 -52 -119 -99 -147c-34 -20 -71 -32 -110 -32c-61 0 -116 33 -116 99c0 71 51 119 98 147c34 20 71 32 110 32z" fill="currentColor"/>
</g>
<g transform="translate(55.2439, 54.7504)">
<rect x="-0.0614" y="-4.3561" width="0.1228" height="6.0790" ry="0.0421" fill="currentColor"/>
</g>
<g transform="translate(46.8615, 54.7504)">
<rect x="-0.0614" y="-4.0156" width="0.1228" height="2.7911" ry="0.0421" fill="currentColor"/>
</g>
<g transform="translate(44.4099, 54.0136)">
<path transform="scale(0.0029, -0.0029)" d="M208 139c61 0 117 -33 117 -99c0 -71 -52 -119 -99 -147c-34 -20 -71 -32 -110 -32c-61 0 -116 33 -116 99c0 71 51 119 98 147c34 20 71 32 110 32z" fill="currentColor"/>
</g>
<g transform="translate(45.3050, 54.7504)">
<rect x="-0.0614" y="-3.8396" width="0.1228" height="2.9835" ry="0.0421" fill="currentColor"/>
</g>
<g transform="translate(45.9664, 53.6452)">
<path transform="scale(0.0029, -0.0029)" d="M208 139c61 0 117 -33 117 -99c0 -71 -52 -119 -99 -147c-34 -20 -71 -32 -110 -32c-61 0 -116 33 -116 99c0 71 51 119 98 147c34 20 71 32 110 32z" fill="currentColor"/>
</g>
<g transform="translate(47.5229, 53.2768)">
<path transform="scale(0.0029, -0.0029)" d="M208 139c61 0 117 -33 117 -99c0 -71 -52 -119 -99 -147c-34 -20 -71 -32 -110 -32c-61 0 -116 33 -116 99c0 71 51 119 98 147c34 20 71 32 110 32z" fill="currentColor"/>
</g>
<g transform="translate(48.4180, 54.7504)">
<rect x="-0.0614" y="-4.1916" width="0.1228" height="2.5987" ry="0.0421" fill="currentColor"/>
</g>
<g transform="translate(62.7928, 54.7504)">
<rect x="-0.0614" y="-1.3515" width="0.1228" height="3.4428" ry="0.0421" fill="currentColor"/>
</g>
<g transform="translate(63.4542, 56.5926)">
<path transform="scale(0.0029, -0.0029)" d="M208 139c61 0 117 -33 117 -99c0 -71 -52 -119 -99 -147c-34 -20 -71 -32 -110 -32c-61 0 -116 33 -116 99c0 71 51 119 98 147c34 20 71 32 110 32z" fill="currentColor"/>
</g>
<g transform="translate(64.3493, 54.7504)">
<rect x="-0.0614" y="-1.5398" width="0.1228" height="3.2627" ry="0.0421" fill="currentColor"/>
</g>
<g transform="translate(65.0107, 56.2241)">
<path transform="scale(0.0029, -0.0029)" d="M208 139c61 0 117 -33 117 -99c0 -71 -52 -119 -99 -147c-34 -20 -71 -32 -110 -32c-61 0 -116 33 -116 99c0 71 51 119 98 147c34 20 71 32 110 32z" fill="currentColor"/>
</g>
<g transform="translate(65.9058, 54.7504)">
<rect x="-0.0614" y="-1.7282" width="0.1228" height="3.0826" ry="0.0421" fill="currentColor"/>
</g>
<g transform="translate(56.5053, 56.9610)">
<path transform="scale(0.0029, -0.0029)" d="M208 139c61 0 117 -33 117 -99c0 -71 -52 -119 -99 -147c-34 -20 -71 -32 -110 -32c-61 0 -116 33 -116 99c0 71 51 119 98 147c34 20 71 32 110 32z" fill="currentColor"/>
</g>
<g transform="translate(56.9835, 50.7772)">
<path transform="scale(0.0029, -0.0029)" d="M-290 228c0 -20 16 -27 36 -27c38 0 69 14 100 28l3 17c-22 17 -48 28 -78 28c-29 0 -61 -14 -61 -46zM-26 105c0 -62 -46 -115 -98 -115c-39 0 -56 43 -56 90c0 14 1 28 4 41l15 72c-30 -12 -61 -23 -99 -23c-36 0 -62 18 -62 52c0 53 50 84 99 84c30 0 57 -9 80 -23
l45 227c6 -3 13 -5 20 -5c22 0 48 16 68 35l-53 -262l63 34c26 14 52 21 74 21c28 0 50 -10 62 -27c18 17 43 26 67 26c38 0 73 -22 73 -73c0 -47 -28 -93 -67 -93c-26 0 -40 22 -40 49c0 42 31 65 62 65h1c-8 15 -22 21 -37 21c-22 0 -46 -14 -51 -38l-54 -273
c-11 7 -25 11 -39 11s-29 -4 -43 -11l54 273c0 2 1 3 1 5c0 14 -12 24 -28 24c-7 0 -16 -2 -24 -7l-81 -45l-5 -23c26 -32 49 -69 49 -112zM-89 39c21 0 31 35 31 61c0 27 -11 50 -26 71l-4 -20c-4 -19 -15 -60 -15 -87c0 -15 4 -25 14 -25z" fill="currentColor"/>
</g>
<g transform="translate(57.4004, 54.7504)">
<rect x="-0.0614" y="-3.6195" width="0.1228" height="5.7108" ry="0.0421" fill="currentColor"/>
</g>
<g transform="translate(58.4118, 57.3294)">
<path transform="scale(0.0029, -0.0029)" d="M208 139c61 0 117 -33 117 -99c0 -71 -52 -119 -99 -147c-34 -20 -71 -32 -110 -32c-61 0 -116 33 -116 99c0 71 51 119 98 147c34 20 71 32 110 32z" fill="currentColor"/>
</g>
<g transform="translate(59.3069, 54.7504)">
<rect x="-0.0614" y="-2.9683" width="0.1228" height="5.4281" ry="0.0421" fill="currentColor"/>
</g>
<g transform="translate(61.8977, 56.9610)">
<path transform="scale(0.0029, -0.0029)" d="M208 139c61 0 117 -33 117 -99c0 -71 -52 -119 -99 -147c-34 -20 -71 -32 -110 -32c-61 0 -116 33 -116 99c0 71 51 119 98 147c34 20 71 32 110 32z" fill="currentColor"/>
</g>
<g transform="translate(26.9286, 56.5926)">
<path transform="scale(0.0029, -0.0029)" d="M208 139c61 0 117 -33 117 -99c0 -71 -52 -119 -99 -147c-34 -20 -71 -32 -110 -32c-61 0 -116 33 -116 99c0 71 51 119 98 147c34 20 71 32 110 32z" fill="currentColor"/>
</g>
<g transform="translate(27.8237, 54.7504)">
<rect x="-0.0614" y="-2.2258" width="0.1228" height="3.9487" ry="0.0421" fill="currentColor"/>
</g>
<g transform="translate(28.4851, 56.2241)">
<path transform="scale(0.0029, -0.0029)" d="M208 139c61 0 117 -33 117 -99c0 -71 -52 -119 -99 -147c-34 -20 -71 -32 -110 -32c-61 0 -116 33 -116 99c0 71 51 119 98 147c34 20 71 32 110 32z" fill="currentColor"/>
</g>
<g transform="translate(29.3802, 54.7504)">
<rect x="-0.0614" y="-2.3744" width="0.1228" height="3.7289" ry="0.0421" fill="currentColor"/>
</g>
<g transform="translate(30.0416, 55.8557)">
<path transform="scale(0.0029, -0.0029)" d="M208 139c61 0 117 -33 117 -99c0 -71 -52 -119 -99 -147c-34 -20 -71 -32 -110 -32c-61 0 -116 33 -116 99c0 71 51 119 98 147c34 20 71 32 110 32z" fill="currentColor"/>
</g>
<g transform="translate(30.9367, 54.7504)">
<rect x="-0.0614" y="-2.5230" width="0.1228" height="3.5091" ry="0.0421" fill="currentColor"/>
</g>
<g transform="translate(31.5981, 55.4873)">
<path transform="scale(0.0029, -0.0029)" d="M208 139c61 0 117 -33 117 -99c0 -71 -52 -119 -99 -147c-34 -20 -71 -32 -110 -32c-61 0 -116 33 -116 99c0 71 51 119 98 147c34 20 71 32 110 32z" fill="currentColor"/>
</g>
<g transform="translate(32.4932, 54.7504)">
<rect x="-0.0614" y="-2.6716" width="0.1228" height="3.2892" ry="0.0421" fill="currentColor"/>
</g>
<g transform="translate(18.7702, 55.4873)">
<path transform="scale(0.0029, -0.0029)" d="M381 266h9c157 0 258 -130 258 -264c0 -77 -33 -156 -108 -212c-22 -16 -46 -28 -71 -36c2 -32 3 -65 3 -97c0 -21 -1 -43 -2 -64c-7 -122 -91 -230 -211 -230c-108 0 -197 88 -197 197c0 58 54 104 113 104c54 0 95 -48 95 -104c0 -52 -43 -95 -95 -95c-8 0 -16 2 -24 4
c25 -35 65 -59 111 -59c95 0 155 92 161 190c1 20 2 39 2 59c0 28 -1 55 -3 83c-29 -5 -57 -7 -87 -7c-189 0 -333 174 -333 377c0 176 128 307 242 443c-21 62 -41 124 -50 189c-7 52 -8 106 -8 159c0 113 54 219 146 286c8 6 21 7 29 0c72 -82 136 -244 136 -357
c0 -141 -83 -253 -174 -362c22 -67 41 -135 58 -204zM464 -200c64 25 108 93 108 159c0 87 -62 173 -163 187c24 -113 43 -225 55 -346zM338 -218c27 0 54 2 80 6c-13 125 -33 242 -58 359c-79 -7 -123 -59 -123 -116c0 -43 24 -89 78 -120c5 -5 8 -11 8 -17
c0 -13 -11 -24 -24 -24c-3 0 -7 0 -10 2c-81 44 -119 116 -119 187c0 90 60 178 164 201c-14 56 -30 112 -47 167c-104 -122 -208 -245 -208 -404c0 -132 127 -241 259 -241zM239 782c0 -69 22 -127 41 -183c77 97 140 199 140 323c0 49 -3 69 -19 113
c-99 -45 -162 -145 -162 -253z" fill="currentColor"/>
</g>
<g transform="translate(22.3827, 54.7504)">
<path transform="scale(0.0029, -0.0029)" d="M33 35l-2 -60v-11c0 -21 2 -43 5 -64c42 38 87 81 87 138c0 32 -13 63 -41 63c-31 0 -48 -32 -49 -66zM32 446l-9 -337c25 26 59 40 95 40c50 0 82 -51 82 -105c0 -77 -80 -117 -137 -169c-18 -17 -26 -48 -52 -48c-16 0 -28 15 -28 32l-15 587c10 6 21 8 32 8
s22 -2 32 -8z" fill="currentColor"/>
</g>
<g transform="translate(25.4721, 55.8557)">
<path transform="scale(0.0029, -0.0029)" d="M208 139c61 0 117 -33 117 -99c0 -71 -52 -119 -99 -147c-34 -20 -71 -32 -110 -32c-61 0 -116 33 -116 99c0 71 51 119 98 147c34 20 71 32 110 32z" fill="currentColor"/>
</g>
<g transform="translate(26.3672, 54.7504)">
<rect x="-0.0614" y="-2.0868" width="0.1228" height="3.0728" ry="0.0421" fill="currentColor"/>
</g>
<g transform="translate(37.1234, 54.3820)">
<path transform="scale(0.0029, -0.0029)" d="M0 114c0 12 7 22 18 26l37 15v151c0 12 10 22 22 22s22 -10 22 -22v-134l77 29v152c0 12 10 22 22 22s22 -10 22 -22v-134l16 6c3 1 8 2 11 2c15 0 28 -12 28 -28v-50c0 -12 -7 -23 -18 -27l-37 -14v-152l16 7c3 1 8 2 11 2c15 0 28 -13 28 -29v-50c0 -12 -7 -22 -18 -26
l-37 -15v-151c0 -12 -10 -22 -22 -22s-22 10 -22 22v134l-77 -29v-152c0 -12 -10 -22 -22 -22s-22 10 -22 22v134l-16 -6c-3 -1 -8 -2 -11 -2c-15 0 -28 12 -28 28v50c0 12 7 23 18 27l37 14v152l-16 -7c-3 -1 -8 -2 -11 -2c-15 0 -28 13 -28 29v50zM176 91l-77 -30v-152
l77 30v152z" fill="currentColor"/>
</g>
<g transform="translate(39.8404, 54.0136)">
<path transform="scale(0.0029, -0.0029)" d="M208 139c61 0 117 -33 117 -99c0 -71 -52 -119 -99 -147c-34 -20 -71 -32 -110 -32c-61 0 -116 33 -116 99c0 71 51 119 98 147c34 20 71 32 110 32z" fill="currentColor"/>
</g>
<g transform="translate(40.7355, 54.7504)">
<rect x="-0.0614" y="-3.3227" width="0.1228" height="2.4667" ry="0.0421" fill="currentColor"/>
</g>
<g transform="translate(41.2969, 54.7504)">
<path transform="scale(0.0029, -0.0029)" d="M208 139c61 0 117 -33 117 -99c0 -71 -52 -119 -99 -147c-34 -20 -71 -32 -110 -32c-61 0 -116 33 -116 99c0 71 51 119 98 147c34 20 71 32 110 32z" fill="currentColor"/>
</g>
<g transform="translate(42.1920, 54.7504)">
<rect x="-0.0614" y="-3.4875" width="0.1228" height="3.3682" ry="0.0421" fill="currentColor"/>
</g>
<g transform="translate(42.8534, 54.3820)">
<path transform="scale(0.0029, -0.0029)" d="M208 139c61 0 117 -33 117 -99c0 -71 -52 -119 -99 -147c-34 -20 -71 -32 -110 -32c-61 0 -116 33 -116 99c0 71 51 119 98 147c34 20 71 32 110 32z" fill="currentColor"/>
</g>
<g transform="translate(43.7485, 54.7504)">
<rect x="-0.0614" y="-3.6635" width="0.1228" height="3.1759" ry="0.0421" fill="currentColor"/>
</g>
<g transform="translate(35.5669, 54.7504)">
<path transform="scale(0.0029, -0.0029)" d="M208 139c61 0 117 -33 117 -99c0 -71 -52 -119 -99 -147c-34 -20 -71 -32 -110 -32c-61 0 -116 33 -116 99c0 71 51 119 98 147c34 20 71 32 110 32z" fill="currentColor"/>
</g>
<g transform="translate(33.1546, 55.1189)">
<path transform="scale(0.0029, -0.0029)" d="M208 139c61 0 117 -33 117 -99c0 -71 -52 -119 -99 -147c-34 -20 -71 -32 -110 -32c-61 0 -116 33 -116 99c0 71 51 119 98 147c34 20 71 32 110 32z" fill="currentColor"/>
</g>
<g transform="translate(34.0497, 54.7504)">
<rect x="-0.0614" y="-2.8202" width="0.1228" height="3.0694" ry="0.0421" fill="currentColor"/>
</g>
<g transform="translate(36.4620, 54.7504)">
<rect x="-0.0614" y="-3.0505" width="0.1228" height="2.9313" ry="0.0421" fill="currentColor"/>
</g>
<g transform="translate(34.7111, 54.7504)">
<path transform="scale(0.0029, -0.0029)" d="M-8 375c8 5 18 7 27 7s20 -2 28 -7l-3 -196l99 24h4c11 0 20 -8 20 -19l8 -559c-8 -5 -19 -7 -28 -7s-19 2 -27 7l3 196l-99 -24h-5c-11 0 -19 8 -19 19zM127 109l-85 -20l-2 -198l84 20z" fill="currentColor"/>
</g>
<g transform="translate(38.2839, 54.3820)">
<path transform="scale(0.0029, -0.0029)" d="M208 139c61 0 117 -33 117 -99c0 -71 -52 -119 -99 -147c-34 -20 -71 -32 -110 -32c-61 0 -116 33 -116 99c0 71 51 119 98 147c34 20 71 32 110 32z" fill="currentColor"/>
</g>
<g transform="translate(39.1790, 54.7504)">
<rect x="-0.0614" y="-3.3099" width="0.1228" height="2.8223" ry="0.0421" fill="currentColor"/>
</g>
<g transform="translate(83.1926, 53.6452)">
<path transform="scale(0.0029, -0.0029)" d="M208 139c61 0 117 -33 117 -99c0 -71 -52 -119 -99 -147c-34 -20 -71 -32 -110 -32c-61 0 -116 33 -116 99c0 71 51 119 98 147c34 20 71 32 110 32z" fill="currentColor"/>
</g>
<g transform="translate(84.0877, 54.7504)">
<rect x="-0.0614" y="-4.1932" width="0.1228" height="2.9687" ry="0.0421" fill="currentColor"/>
</g>
<g transform="translate(85.9096, 53.2768)">
<path transform="scale(0.0029, -0.0029)" d="M208 139c61 0 117 -33 117 -99c0 -71 -52 -119 -99 -147c-34 -20 -71 -32 -110 -32c-61 0 -116 33 -116 99c0 71 51 119 98 147c34 20 71 32 110 32z" fill="currentColor"/>
</g>
<g transform="translate(86.8047, 54.7504)">
<rect x="-0.0614" y="-4.4173" width="0.1228" height="2.8243" ry="0.0421" fill="currentColor"/>
</g>
<g transform="translate(84.7491, 53.2768)">
<path transform="scale(0.0029, -0.0029)" d="M0 114c0 12 7 22 18 26l37 15v151c0 12 10 22 22 22s22 -10 22 -22v-134l77 29v152c0 12 10 22 22 22s22 -10 22 -22v-134l16 6c3 1 8 2 11 2c15 0 28 -12 28 -28v-50c0 -12 -7 -23 -18 -27l-37 -14v-152l16 7c3 1 8 2 11 2c15 0 28 -13 28 -29v-50c0 -12 -7 -22 -18 -26
l-37 -15v-151c0 -12 -10 -22 -22 -22s-22 10 -22 22v134l-77 -29v-152c0 -12 -10 -22 -22 -22s-22 10 -22 22v134l-16 -6c-3 -1 -8 -2 -11 -2c-15 0 -28 12 -28 28v50c0 12 7 23 18 27l37 14v152l-16 -7c-3 -1 -8 -2 -11 -2c-15 0 -28 13 -28 29v50zM176 91l-77 -30v-152
l77 30v152z" fill="currentColor"/>
</g>
<g transform="translate(87.4661, 52.9083)">
<path transform="scale(0.0029, -0.0029)" d="M208 139c61 0 117 -33 117 -99c0 -71 -52 -119 -99 -147c-34 -20 -71 -32 -110 -32c-61 0 -116 33 -116 99c0 71 51 119 98 147c34 20 71 32 110 32z" fill="currentColor"/>
</g>
<g transform="translate(88.3612, 54.7504)">
<rect x="-0.0614" y="-4.5456" width="0.1228" height="2.5843" ry="0.0421" fill="currentColor"/>
</g>
<g transform="translate(80.0796, 54.3820)">
<path transform="scale(0.0029, -0.0029)" d="M208 139c61 0 117 -33 117 -99c0 -71 -52 -119 -99 -147c-34 -20 -71 -32 -110 -32c-61 0 -116 33 -116 99c0 71 51 119 98 147c34 20 71 32 110 32z" fill="currentColor"/>
</g>
<g transform="translate(78.5231, 54.7504)">
<path transform="scale(0.0029, -0.0029)" d="M208 139c61 0 117 -33 117 -99c0 -71 -52 -119 -99 -147c-34 -20 -71 -32 -110 -32c-61 0 -116 33 -116 99c0 71 51 119 98 147c34 20 71 32 110 32z" fill="currentColor"/>
</g>
<g transform="translate(79.4182, 54.7504)">
<rect x="-0.0614" y="-3.8081" width="0.1228" height="3.6889" ry="0.0421" fill="currentColor"/>
</g>
<g transform="translate(80.9747, 54.7504)">
<rect x="-0.0614" y="-3.9365" width="0.1228" height="3.4488" ry="0.0421" fill="currentColor"/>
</g>
<g transform="translate(82.5312, 54.7504)">
<rect x="-0.0614" y="-4.0648" width="0.1228" height="3.2088" ry="0.0421" fill="currentColor"/>
</g>
<g transform="translate(94.9920, 57.6978)">
<path transform="scale(0.0029, -0.0029)" d="M208 139c61 0 117 -33 117 -99c0 -71 -52 -119 -99 -147c-34 -20 -71 -32 -110 -32c-61 0 -116 33 -116 99c0 71 51 119 98 147c34 20 71 32 110 32z" fill="currentColor"/>
</g>
<g transform="translate(95.8871, 54.7504)">
<rect x="-0.0614" y="-2.1008" width="0.1228" height="4.9289" ry="0.0421" fill="currentColor"/>
</g>
<g transform="translate(98.4779, 57.3294)">
<path transform="scale(0.0029, -0.0029)" d="M208 139c61 0 117 -33 117 -99c0 -71 -52 -119 -99 -147c-34 -20 -71 -32 -110 -32c-61 0 -116 33 -116 99c0 71 51 119 98 147c34 20 71 32 110 32z" fill="currentColor"/>
</g>
<g transform="translate(99.3730, 54.7504)">
<rect x="-0.0614" y="-1.3513" width="0.1228" height="3.8111" ry="0.0421" fill="currentColor"/>
</g>
<g transform="translate(89.0226, 52.5399)">
<path transform="scale(0.0029, -0.0029)" d="M208 139c61 0 117 -33 117 -99c0 -71 -52 -119 -99 -147c-34 -20 -71 -32 -110 -32c-61 0 -116 33 -116 99c0 71 51 119 98 147c34 20 71 32 110 32z" fill="currentColor"/>
</g>
<g transform="translate(89.9177, 54.7504)">
<rect x="-0.0614" y="-4.0328" width="0.1228" height="1.7030" ry="0.0421" fill="currentColor"/>
</g>
<g transform="translate(90.9290, 56.9610)">
<path transform="scale(0.0029, -0.0029)" d="M208 139c61 0 117 -33 117 -99c0 -71 -52 -119 -99 -147c-34 -20 -71 -32 -110 -32c-61 0 -116 33 -116 99c0 71 51 119 98 147c34 20 71 32 110 32z" fill="currentColor"/>
</g>
<g transform="translate(91.8241, 54.7504)">
<rect x="-0.0614" y="-3.4157" width="0.1228" height="5.5070" ry="0.0421" fill="currentColor"/>
</g>
<g transform="translate(81.6361, 54.0136)">
<path transform="scale(0.0029, -0.0029)" d="M208 139c61 0 117 -33 117 -99c0 -71 -52 -119 -99 -147c-34 -20 -71 -32 -110 -32c-61 0 -116 33 -116 99c0 71 51 119 98 147c34 20 71 32 110 32z" fill="currentColor"/>
</g>
<g transform="translate(92.8355, 57.3294)">
<path transform="scale(0.0029, -0.0029)" d="M208 139c61 0 117 -33 117 -99c0 -71 -52 -119 -99 -147c-34 -20 -71 -32 -110 -32c-61 0 -116 33 -116 99c0 71 51 119 98 147c34 20 71 32 110 32z" fill="currentColor"/>
</g>
<g transform="translate(92.8355, 50.9400)">
<text font-family="serif" font-size="1.6209" text-anchor="start" fill="currentColor">
<tspan>(tr)</tspan>
</text>
</g>
<g transform="translate(93.7306, 54.7504)">
<rect x="-0.0614" y="-2.7987" width="0.1228" height="5.2584" ry="0.0421" fill="currentColor"/>
</g>
<g transform="translate(70.8407, 55.1189)">
<path transform="scale(0.0029, -0.0029)" d="M208 139c61 0 117 -33 117 -99c0 -71 -52 -119 -99 -147c-34 -20 -71 -32 -110 -32c-61 0 -116 33 -116 99c0 71 51 119 98 147c34 20 71 32 110 32z" fill="currentColor"/>
</g>
<g transform="translate(71.7358, 54.7504)">
<rect x="-0.0614" y="-2.4336" width="0.1228" height="2.6828" ry="0.0421" fill="currentColor"/>
</g>
<g transform="translate(72.3972, 54.7504)">
<path transform="scale(0.0029, -0.0029)" d="M208 139c61 0 117 -33 117 -99c0 -71 -52 -119 -99 -147c-34 -20 -71 -32 -110 -32c-61 0 -116 33 -116 99c0 71 51 119 98 147c34 20 71 32 110 32z" fill="currentColor"/>
</g>
<g transform="translate(73.2923, 54.7504)">
<rect x="-0.0614" y="-2.6220" width="0.1228" height="2.5027" ry="0.0421" fill="currentColor"/>
</g>
<g transform="translate(73.9536, 54.3820)">
<path transform="scale(0.0029, -0.0029)" d="M208 139c61 0 117 -33 117 -99c0 -71 -52 -119 -99 -147c-34 -20 -71 -32 -110 -32c-61 0 -116 33 -116 99c0 71 51 119 98 147c34 20 71 32 110 32z" fill="currentColor"/>
</g>
<g transform="translate(74.8487, 54.7504)">
<rect x="-0.0614" y="-2.8103" width="0.1228" height="2.3227" ry="0.0421" fill="currentColor"/>
</g>
<g transform="translate(67.7277, 55.8557)">
<path transform="scale(0.0029, -0.0029)" d="M208 139c61 0 117 -33 117 -99c0 -71 -52 -119 -99 -147c-34 -20 -71 -32 -110 -32c-61 0 -116 33 -116 99c0 71 51 119 98 147c34 20 71 32 110 32z" fill="currentColor"/>
</g>
<g transform="translate(68.6228, 54.7504)">
<rect x="-0.0614" y="-2.0569" width="0.1228" height="3.0430" ry="0.0421" fill="currentColor"/>
</g>
<g transform="translate(66.5672, 55.8557)">
<path transform="scale(0.0029, -0.0029)" d="M0 114c0 12 7 22 18 26l37 15v151c0 12 10 22 22 22s22 -10 22 -22v-134l77 29v152c0 12 10 22 22 22s22 -10 22 -22v-134l16 6c3 1 8 2 11 2c15 0 28 -12 28 -28v-50c0 -12 -7 -23 -18 -27l-37 -14v-152l16 7c3 1 8 2 11 2c15 0 28 -13 28 -29v-50c0 -12 -7 -22 -18 -26
l-37 -15v-151c0 -12 -10 -22 -22 -22s-22 10 -22 22v134l-77 -29v-152c0 -12 -10 -22 -22 -22s-22 10 -22 22v134l-16 -6c-3 -1 -8 -2 -11 -2c-15 0 -28 12 -28 28v50c0 12 7 23 18 27l37 14v152l-16 -7c-3 -1 -8 -2 -11 -2c-15 0 -28 13 -28 29v50zM176 91l-77 -30v-152
l77 30v152z" fill="currentColor"/>
</g>
<g transform="translate(69.2842, 55.4873)">
<path transform="scale(0.0029, -0.0029)" d="M208 139c61 0 117 -33 117 -99c0 -71 -52 -119 -99 -147c-34 -20 -71 -32 -110 -32c-61 0 -116 33 -116 99c0 71 51 119 98 147c34 20 71 32 110 32z" fill="currentColor"/>
</g>
<g transform="translate(70.1793, 54.7504)">
<rect x="-0.0614" y="-2.2453" width="0.1228" height="2.8629" ry="0.0421" fill="currentColor"/>
</g>
<g transform="translate(76.4052, 54.7504)">
<rect x="-0.0614" y="-3.5596" width="0.1228" height="2.7036" ry="0.0421" fill="currentColor"/>
</g>
<g transform="translate(76.9666, 55.1189)">
<path transform="scale(0.0029, -0.0029)" d="M208 139c61 0 117 -33 117 -99c0 -71 -52 -119 -99 -147c-34 -20 -71 -32 -110 -32c-61 0 -116 33 -116 99c0 71 51 119 98 147c34 20 71 32 110 32z" fill="currentColor"/>
</g>
<g transform="translate(77.8617, 54.7504)">
<rect x="-0.0614" y="-3.6798" width="0.1228" height="3.9290" ry="0.0421" fill="currentColor"/>
</g>
<g transform="translate(75.5101, 54.0136)">
<path transform="scale(0.0029, -0.0029)" d="M208 139c61 0 117 -33 117 -99c0 -71 -52 -119 -99 -147c-34 -20 -71 -32 -110 -32c-61 0 -116 33 -116 99c0 71 51 119 98 147c34 20 71 32 110 32z" fill="currentColor"/>
</g>
</svg>
