<svg xmlns="http://www.w3.org/2000/svg" xmlns:xlink="http://www.w3.org/1999/xlink" version="1.2" width="594.00mm" height="420.00mm" viewBox="0.0000 -0.0000 355.8092 251.5823">
<style type="text/css">
<![CDATA[
tspan { white-space: pre; }
]]>
</style>
<g transform="translate(17.9702, 56.2241)">
<line stroke-linejoin="round" stroke-linecap="round" stroke-width="0.0944" stroke="currentColor" x1="0.0472" y1="0" x2="118.8291" y2="0"/>
</g>
<g transform="translate(17.9702, 55.4873)">
<line stroke-linejoin="round" stroke-linecap="round" stroke-width="0.0944" stroke="currentColor" x1="0.0472" y1="0" x2="118.8291" y2="0"/>
</g>
<g transform="translate(17.9702, 54.7504)">
<line stroke-linejoin="round" stroke-linecap="round" stroke-width="0.0944" stroke="currentColor" x1="0.0472" y1="0" x2="118.8291" y2="0"/>
</g>
<g transform="translate(17.9702, 54.0136)">
<line stroke-linejoin="round" stroke-linecap="round" stroke-width="0.0944" stroke="currentColor" x1="0.0472" y1="0" x2="118.8291" y2="0"/>
</g>
<g transform="translate(17.9702, 53.2768)">
<line stroke-linejoin="round" stroke-linecap="round" stroke-width="0.0944" stroke="currentColor" x1="0.0472" y1="0" x2="118.8291" y2="0"/>
</g>
<g transform="translate(107.7646, 54.7504)">
<rect x="0.0000" y="-1.4737" width="0.1794" height="2.9474" ry="0.0000" fill="currentColor"/>
</g>
<g transform="translate(52.3500, 54.7504)">
<rect x="0.0000" y="-1.4737" width="0.1794" height="2.9474" ry="0.0000" fill="currentColor"/>
</g>
<g transform="translate(136.6670, 54.7504)">
<rect x="0.0000" y="-1.4737" width="0.1794" height="2.9474" ry="0.0000" fill="currentColor"/>
</g>
<g transform="translate(80.0573, 54.7504)">
<rect x="0.0000" y="-1.4737" width="0.1794" height="2.9474" ry="0.0000" fill="currentColor"/>
</g>
<g transform="translate(17.9702, 51.0662)">
<rect x="110.0577" y="-0.0841" width="1.4347" height="0.1681" ry="0.0841" fill="currentColor"/>
</g>
<g transform="translate(17.9702, 51.8031)">
<rect x="110.0577" y="-0.0841" width="1.4347" height="0.1681" ry="0.0841" fill="currentColor"/>
</g>
<g transform="translate(17.9702, 52.5399)">
<rect x="110.0577" y="-0.0841" width="1.4347" height="0.1681" ry="0.0841" fill="currentColor"/>
</g>
<g transform="translate(17.9702, 51.8031)">
<rect x="107.7153" y="-0.0841" width="1.3706" height="0.1681" ry="0.0841" fill="currentColor"/>
</g>
<g transform="translate(17.9702, 52.5399)">
<rect x="107.6512" y="-0.0841" width="1.4347" height="0.1681" ry="0.0841" fill="currentColor"/>
</g>
<g transform="translate(17.9702, 52.5399)">
<rect x="104.9342" y="-0.0841" width="1.4347" height="0.1681" ry="0.0841" fill="currentColor"/>
</g>
<g transform="translate(17.9702, 52.5399)">
<rect x="100.6212" y="-0.0841" width="1.4347" height="0.1681" ry="0.0841" fill="currentColor"/>
</g>
<g transform="translate(17.9702, 56.9610)">
<rect x="64.8339" y="-0.0841" width="1.4347" height="0.1681" ry="0.0841" fill="currentColor"/>
</g>
<g transform="translate(17.9702, 52.5399)">
<rect x="59.6915" y="-0.0841" width="1.4347" height="0.1681" ry="0.0841" fill="currentColor"/>
</g>
<g transform="translate(17.9702, 56.9610)">
<rect x="37.1266" y="-0.0841" width="1.4347" height="0.1681" ry="0.0841" fill="currentColor"/>
</g>
<g transform="translate(17.9702, 52.5399)">
<rect x="31.9842" y="-0.0841" width="1.4347" height="0.1681" ry="0.0841" fill="currentColor"/>
</g>
<g transform="translate(17.9702, 52.5399)">
<rect x="29.5777" y="-0.0841" width="1.4347" height="0.1681" ry="0.0841" fill="currentColor"/>
</g>
<g transform="translate(102.1902, 54.7504)">
<rect x="-0.0614" y="-3.2631" width="0.1228" height="2.0387" ry="0.0421" fill="currentColor"/>
</g>
<g transform="translate(101.2951, 53.6452)">
<path transform="scale(0.0029, -0.0029)" d="M208 139c61 0 117 -33 117 -99c0 -71 -52 -119 -99 -147c-34 -20 -71 -32 -110 -32c-61 0 -116 33 -116 99c0 71 51 119 98 147c34 20 71 32 110 32z" fill="currentColor"/>
</g>
<g transform="translate(103.4516, 53.2768)">
<path transform="scale(0.0029, -0.0029)" d="M208 139c61 0 117 -33 117 -99c0 -71 -52 -119 -99 -147c-34 -20 -71 -32 -110 -32c-61 0 -116 33 -116 99c0 71 51 119 98 147c34 20 71 32 110 32z" fill="currentColor"/>
</g>
<g transform="translate(99.7837, 54.7504)">
<rect x="-0.0614" y="-2.8288" width="0.1228" height="3.4464" ry="0.0421" fill="currentColor"/>
</g>
<g transform="translate(98.8886, 55.4873)">
<path transform="scale(0.0029, -0.0029)" d="M208 139c61 0 117 -33 117 -99c0 -71 -52 -119 -99 -147c-34 -20 -71 -32 -110 -32c-61 0 -116 33 -116 99c0 71 51 119 98 147c34 20 71 32 110 32z" fill="currentColor"/>
</g>
<g transform="translate(97.8772, 54.7504)">
<rect x="-0.0614" y="-2.8123" width="0.1228" height="1.9562" ry="0.0421" fill="currentColor"/>
</g>
<g transform="translate(96.9821, 54.0136)">
<path transform="scale(0.0029, -0.0029)" d="M208 139c61 0 117 -33 117 -99c0 -71 -52 -119 -99 -147c-34 -20 -71 -32 -110 -32c-61 0 -116 33 -116 99c0 71 51 119 98 147c34 20 71 32 110 32z" fill="currentColor"/>
</g>
<g transform="translate(109.7045, 54.3820)">
<path transform="scale(0.0029, -0.0029)" d="M208 139c61 0 117 -33 117 -99c0 -71 -52 -119 -99 -147c-34 -20 -71 -32 -110 -32c-61 0 -116 33 -116 99c0 71 51 119 98 147c34 20 71 32 110 32z" fill="currentColor"/>
</g>
<g transform="translate(81.1367, 54.0136)">
<path transform="scale(0.0029, -0.0029)" d="M208 139c61 0 117 -33 117 -99c0 -71 -52 -119 -99 -147c-34 -20 -71 -32 -110 -32c-61 0 -116 33 -116 99c0 71 51 119 98 147c34 20 71 32 110 32z" fill="currentColor"/>
</g>
<g transform="translate(108.5440, 54.3820)">
<path transform="scale(0.0029, -0.0029)" d="M0 114c0 12 7 22 18 26l37 15v151c0 12 10 22 22 22s22 -10 22 -22v-134l77 29v152c0 12 10 22 22 22s22 -10 22 -22v-134l16 6c3 1 8 2 11 2c15 0 28 -12 28 -28v-50c0 -12 -7 -23 -18 -27l-37 -14v-152l16 7c3 1 8 2 11 2c15 0 28 -13 28 -29v-50c0 -12 -7 -22 -18 -26
l-37 -15v-151c0 -12 -10 -22 -22 -22s-22 10 -22 22v134l-77 -29v-152c0 -12 -10 -22 -22 -22s-22 10 -22 22v134l-16 -6c-3 -1 -8 -2 -11 -2c-15 0 -28 12 -28 28v50c0 12 7 23 18 27l37 14v152l-16 -7c-3 -1 -8 -2 -11 -2c-15 0 -28 13 -28 29v50zM176 91l-77 -30v-152
l77 30v152z" fill="currentColor"/>
</g>
<g transform="translate(110.5996, 54.7504)">
<rect x="-0.0614" y="-2.5834" width="0.1228" height="2.0958" ry="0.0421" fill="currentColor"/>
</g>
<g transform="translate(104.3467, 54.7504)">
<rect x="-0.0614" y="-3.6523" width="0.1228" height="2.0594" ry="0.0421" fill="currentColor"/>
</g>
<g transform="translate(106.5032, 54.7504)">
<rect x="-0.0614" y="-4.0416" width="0.1228" height="2.0802" ry="0.0421" fill="currentColor"/>
</g>
<g transform="translate(105.6081, 52.9083)">
<path transform="scale(0.0029, -0.0029)" d="M208 139c61 0 117 -33 117 -99c0 -71 -52 -119 -99 -147c-34 -20 -71 -32 -110 -32c-61 0 -116 33 -116 99c0 71 51 119 98 147c34 20 71 32 110 32z" fill="currentColor"/>
</g>
<g transform="translate(86.3448, 54.7504)">
<rect x="-0.0614" y="-2.3467" width="0.1228" height="4.0695" ry="0.0421" fill="currentColor"/>
</g>
<g transform="translate(85.4497, 56.5926)">
<path transform="scale(0.0029, -0.0029)" d="M208 139c61 0 117 -33 117 -99c0 -71 -52 -119 -99 -147c-34 -20 -71 -32 -110 -32c-61 0 -116 33 -116 99c0 71 51 119 98 147c34 20 71 32 110 32z" fill="currentColor"/>
</g>
<g transform="translate(83.9383, 54.7504)">
<rect x="-0.0614" y="-2.6058" width="0.1228" height="5.0655" ry="0.0421" fill="currentColor"/>
</g>
<g transform="translate(83.0432, 57.3294)">
<path transform="scale(0.0029, -0.0029)" d="M208 139c61 0 117 -33 117 -99c0 -71 -52 -119 -99 -147c-34 -20 -71 -32 -110 -32c-61 0 -116 33 -116 99c0 71 51 119 98 147c34 20 71 32 110 32z" fill="currentColor"/>
</g>
<g transform="translate(82.0318, 54.7504)">
<rect x="-0.0614" y="-2.8111" width="0.1228" height="1.9551" ry="0.0421" fill="currentColor"/>
</g>
<g transform="translate(130.1734, 54.7504)">
<path stroke-width="0.0755" stroke-linejoin="round" stroke-linecap="round" stroke="currentColor" fill="currentColor" d="M0.9612 -5.8933C2.0798 -6.5443 4.5158 -6.0281 5.2742 -4.9793L5.2742 -4.9793C4.4923 -5.9172 2.0563 -6.4335 0.9612 -5.8933z"/>
</g>
<g transform="translate(95.4707, 54.7504)">
<rect x="-0.0614" y="-2.5987" width="0.1228" height="2.4795" ry="0.0421" fill="currentColor"/>
</g>
<g transform="translate(94.5756, 54.7504)">
<path transform="scale(0.0029, -0.0029)" d="M208 139c61 0 117 -33 117 -99c0 -71 -52 -119 -99 -147c-34 -20 -71 -32 -110 -32c-61 0 -116 33 -116 99c0 71 51 119 98 147c34 20 71 32 110 32z" fill="currentColor"/>
</g>
<g transform="translate(93.0642, 54.7504)">
<rect x="-0.0614" y="-2.3852" width="0.1228" height="3.3712" ry="0.0421" fill="currentColor"/>
</g>
<g transform="translate(92.1691, 55.8557)">
<path transform="scale(0.0029, -0.0029)" d="M208 139c61 0 117 -33 117 -99c0 -71 -52 -119 -99 -147c-34 -20 -71 -32 -110 -32c-61 0 -116 33 -116 99c0 71 51 119 98 147c34 20 71 32 110 32z" fill="currentColor"/>
</g>
<g transform="translate(91.1578, 54.7504)">
<rect x="-0.0614" y="-2.2160" width="0.1228" height="2.0967" ry="0.0421" fill="currentColor"/>
</g>
<g transform="translate(90.2627, 54.7504)">
<path transform="scale(0.0029, -0.0029)" d="M208 139c61 0 117 -33 117 -99c0 -71 -52 -119 -99 -147c-34 -20 -71 -32 -110 -32c-61 0 -116 33 -116 99c0 71 51 119 98 147c34 20 71 32 110 32z" fill="currentColor"/>
</g>
<g transform="translate(88.7513, 54.7504)">
<rect x="-0.0614" y="-2.0875" width="0.1228" height="3.0735" ry="0.0421" fill="currentColor"/>
</g>
<g transform="translate(87.8562, 55.8557)">
<path transform="scale(0.0029, -0.0029)" d="M208 139c61 0 117 -33 117 -99c0 -71 -52 -119 -99 -147c-34 -20 -71 -32 -110 -32c-61 0 -116 33 -116 99c0 71 51 119 98 147c34 20 71 32 110 32z" fill="currentColor"/>
</g>
<g transform="translate(135.3815, 54.7504)">
<rect x="-0.0614" y="-4.4341" width="0.1228" height="3.2096" ry="0.0421" fill="currentColor"/>
</g>
<g transform="translate(134.4864, 53.6452)">
<path transform="scale(0.0029, -0.0029)" d="M208 139c61 0 117 -33 117 -99c0 -71 -52 -119 -99 -147c-34 -20 -71 -32 -110 -32c-61 0 -116 33 -116 99c0 71 51 119 98 147c34 20 71 32 110 32z" fill="currentColor"/>
</g>
<g transform="translate(133.2250, 54.7504)">
<rect x="-0.0614" y="-4.8911" width="0.1228" height="3.2982" ry="0.0421" fill="currentColor"/>
</g>
<g transform="translate(132.3299, 53.2768)">
<path transform="scale(0.0029, -0.0029)" d="M208 139c61 0 117 -33 117 -99c0 -71 -52 -119 -99 -147c-34 -20 -71 -32 -110 -32c-61 0 -116 33 -116 99c0 71 51 119 98 147c34 20 71 32 110 32z" fill="currentColor"/>
</g>
<g transform="translate(131.0685, 54.7504)">
<rect x="-0.0614" y="-5.3481" width="0.1228" height="3.3867" ry="0.0421" fill="currentColor"/>
</g>
<g transform="translate(130.1734, 52.9083)">
<path transform="scale(0.0029, -0.0029)" d="M208 139c61 0 117 -33 117 -99c0 -71 -52 -119 -99 -147c-34 -20 -71 -32 -110 -32c-61 0 -116 33 -116 99c0 71 51 119 98 147c34 20 71 32 110 32z" fill="currentColor"/>
</g>
<g transform="translate(129.1620, 54.7504)">
<rect x="-0.0614" y="-5.7521" width="0.1228" height="1.9487" ry="0.0421" fill="currentColor"/>
</g>
<g transform="translate(128.2669, 51.0662)">
<path transform="scale(0.0029, -0.0029)" d="M208 139c61 0 117 -33 117 -99c0 -71 -52 -119 -99 -147c-34 -20 -71 -32 -110 -32c-61 0 -116 33 -116 99c0 71 51 119 98 147c34 20 71 32 110 32z" fill="currentColor"/>
</g>
<g transform="translate(45.6305, 54.7504)">
<path stroke-width="0.0755" stroke-linejoin="round" stroke-linecap="round" stroke="currentColor" fill="currentColor" d="M0.8404 -4.5296C1.6643 -5.5779 4.2737 -6.0323 5.4034 -5.3240L5.4034 -5.3240C4.2931 -5.9206 1.6837 -5.4663 0.8404 -4.5296z"/>
</g>
<g transform="translate(129.1007, 48.9853)">
<polygon stroke-linejoin="round" stroke-linecap="round" stroke-width="0.0842" fill="currentColor" stroke="currentColor" points="6.3001 1.2093 6.3001 1.4788 0.0421 0.1347 0.0421 -0.1347"/>
</g>
<g transform="translate(129.1007, 49.5926)">
<polygon stroke-linejoin="round" stroke-linecap="round" stroke-width="0.0842" fill="currentColor" stroke="currentColor" points="6.3001 1.2093 6.3001 1.4788 0.0421 0.1347 0.0421 -0.1347"/>
</g>
<g transform="translate(119.6642, 50.1998)">
<polygon stroke-linejoin="round" stroke-linecap="round" stroke-width="0.0842" fill="currentColor" stroke="currentColor" points="7.1107 -0.8716 7.1107 -0.6021 0.0421 0.1347 0.0421 -0.1347"/>
</g>
<g transform="translate(119.6642, 50.8070)">
<polygon stroke-linejoin="round" stroke-linecap="round" stroke-width="0.0842" fill="currentColor" stroke="currentColor" points="7.1107 -0.8716 7.1107 -0.6021 0.0421 0.1347 0.0421 -0.1347"/>
</g>
<g transform="translate(110.5382, 52.1715)">
<polygon stroke-linejoin="round" stroke-linecap="round" stroke-width="0.0842" fill="currentColor" stroke="currentColor" points="6.8001 -0.6328 6.8001 -0.3633 0.0421 0.1347 0.0421 -0.1347"/>
</g>
<g transform="translate(110.5382, 52.7787)">
<polygon stroke-linejoin="round" stroke-linecap="round" stroke-width="0.0842" fill="currentColor" stroke="currentColor" points="6.8001 -0.6328 6.8001 -0.3633 0.0421 0.1347 0.0421 -0.1347"/>
</g>
<g transform="translate(101.2951, 54.7504)">
<path stroke-width="0.0755" stroke-linejoin="round" stroke-linecap="round" stroke="currentColor" fill="currentColor" d="M0.8385 -3.8084C1.6249 -4.8303 4.0574 -5.2694 5.1515 -4.5868L5.1515 -4.5868C4.0775 -5.1578 1.6451 -4.7188 0.8385 -3.8084z"/>
</g>
<g transform="translate(99.7223, 51.9327)">
<polygon stroke-linejoin="round" stroke-linecap="round" stroke-width="0.0842" fill="currentColor" stroke="currentColor" points="6.8001 -1.3696 6.8001 -1.1002 0.0421 0.1347 0.0421 -0.1347"/>
</g>
<g transform="translate(99.7223, 52.5399)">
<polygon stroke-linejoin="round" stroke-linecap="round" stroke-width="0.0842" fill="currentColor" stroke="currentColor" points="6.8001 -1.3696 6.8001 -1.1002 0.0421 0.1347 0.0421 -0.1347"/>
</g>
<g transform="translate(91.0964, 52.5399)">
<polygon stroke-linejoin="round" stroke-linecap="round" stroke-width="0.0842" fill="currentColor" stroke="currentColor" points="6.8001 -0.7420 6.8001 -0.4725 0.0421 0.1347 0.0421 -0.1347"/>
</g>
<g transform="translate(91.0964, 53.1471)">
<polygon stroke-linejoin="round" stroke-linecap="round" stroke-width="0.0842" fill="currentColor" stroke="currentColor" points="6.8001 -0.7420 6.8001 -0.4725 0.0421 0.1347 0.0421 -0.1347"/>
</g>
<g transform="translate(81.9704, 51.9327)">
<polygon stroke-linejoin="round" stroke-linecap="round" stroke-width="0.0842" fill="currentColor" stroke="currentColor" points="6.8001 0.6021 6.8001 0.8716 0.0421 0.1347 0.0421 -0.1347"/>
</g>
<g transform="translate(81.9704, 52.5399)">
<polygon stroke-linejoin="round" stroke-linecap="round" stroke-width="0.0842" fill="currentColor" stroke="currentColor" points="6.8001 0.6021 6.8001 0.8716 0.0421 0.1347 0.0421 -0.1347"/>
</g>
<g transform="translate(73.5878, 54.7504)">
<path stroke-width="0.0755" stroke-linejoin="round" stroke-linecap="round" stroke="currentColor" fill="currentColor" d="M0.8394 -4.0603C1.6285 -5.0796 4.0606 -5.5113 5.1524 -4.8258L5.1524 -4.8258C4.0804 -5.3997 1.6483 -4.9681 0.8394 -4.0603z"/>
</g>
<g transform="translate(72.0150, 51.6735)">
<polygon stroke-linejoin="round" stroke-linecap="round" stroke-width="0.0842" fill="currentColor" stroke="currentColor" points="6.8001 -1.3492 6.8001 -1.0797 0.0421 0.1347 0.0421 -0.1347"/>
</g>
<g transform="translate(72.0150, 52.2807)">
<polygon stroke-linejoin="round" stroke-linecap="round" stroke-width="0.0842" fill="currentColor" stroke="currentColor" points="6.8001 -1.3492 6.8001 -1.0797 0.0421 0.1347 0.0421 -0.1347"/>
</g>
<g transform="translate(63.3891, 52.5399)">
<polygon stroke-linejoin="round" stroke-linecap="round" stroke-width="0.0842" fill="currentColor" stroke="currentColor" points="6.8001 -0.7420 6.8001 -0.4725 0.0421 0.1347 0.0421 -0.1347"/>
</g>
<g transform="translate(63.3891, 53.1471)">
<polygon stroke-linejoin="round" stroke-linecap="round" stroke-width="0.0842" fill="currentColor" stroke="currentColor" points="6.8001 -0.7420 6.8001 -0.4725 0.0421 0.1347 0.0421 -0.1347"/>
</g>
<g transform="translate(54.2631, 51.9327)">
<polygon stroke-linejoin="round" stroke-linecap="round" stroke-width="0.0842" fill="currentColor" stroke="currentColor" points="6.8001 0.6021 6.8001 0.8716 0.0421 0.1347 0.0421 -0.1347"/>
</g>
<g transform="translate(54.2631, 52.5399)">
<polygon stroke-linejoin="round" stroke-linecap="round" stroke-width="0.0842" fill="currentColor" stroke="currentColor" points="6.8001 0.6021 6.8001 0.8716 0.0421 0.1347 0.0421 -0.1347"/>
</g>
<g transform="translate(44.0578, 51.1959)">
<polygon stroke-linejoin="round" stroke-linecap="round" stroke-width="0.0842" fill="currentColor" stroke="currentColor" points="7.0501 -1.3696 7.0501 -1.1002 0.0421 0.1347 0.0421 -0.1347"/>
</g>
<g transform="translate(44.0578, 51.8031)">
<polygon stroke-linejoin="round" stroke-linecap="round" stroke-width="0.0842" fill="currentColor" stroke="currentColor" points="7.0501 -1.3696 7.0501 -1.1002 0.0421 0.1347 0.0421 -0.1347"/>
</g>
<g transform="translate(35.4318, 51.8031)">
<polygon stroke-linejoin="round" stroke-linecap="round" stroke-width="0.0842" fill="currentColor" stroke="currentColor" points="6.8001 -0.7420 6.8001 -0.4725 0.0421 0.1347 0.0421 -0.1347"/>
</g>
<g transform="translate(35.4318, 52.4103)">
<polygon stroke-linejoin="round" stroke-linecap="round" stroke-width="0.0842" fill="currentColor" stroke="currentColor" points="6.8001 -0.7420 6.8001 -0.4725 0.0421 0.1347 0.0421 -0.1347"/>
</g>
<g transform="translate(26.3059, 53.2768)">
<polygon stroke-linejoin="round" stroke-linecap="round" stroke-width="0.0842" fill="currentColor" stroke="currentColor" points="6.8001 -0.7420 6.8001 -0.4725 0.0421 0.1347 0.0421 -0.1347"/>
</g>
<g transform="translate(26.3059, 53.8840)">
<polygon stroke-linejoin="round" stroke-linecap="round" stroke-width="0.0842" fill="currentColor" stroke="currentColor" points="6.8001 -0.7420 6.8001 -0.4725 0.0421 0.1347 0.0421 -0.1347"/>
</g>
<g transform="translate(114.9126, 54.7504)">
<rect x="-0.0614" y="-2.8974" width="0.1228" height="2.4097" ry="0.0421" fill="currentColor"/>
</g>
<g transform="translate(118.8305, 52.5399)">
<path transform="scale(0.0029, -0.0029)" d="M208 139c61 0 117 -33 117 -99c0 -71 -52 -119 -99 -147c-34 -20 -71 -32 -110 -32c-61 0 -116 33 -116 99c0 71 51 119 98 147c34 20 71 32 110 32z" fill="currentColor"/>
</g>
<g transform="translate(117.3191, 54.7504)">
<rect x="-0.0614" y="-3.0725" width="0.1228" height="1.8480" ry="0.0421" fill="currentColor"/>
</g>
<g transform="translate(116.4240, 53.6452)">
<path transform="scale(0.0029, -0.0029)" d="M208 139c61 0 117 -33 117 -99c0 -71 -52 -119 -99 -147c-34 -20 -71 -32 -110 -32c-61 0 -116 33 -116 99c0 71 51 119 98 147c34 20 71 32 110 32z" fill="currentColor"/>
</g>
<g transform="translate(119.7256, 54.7504)">
<rect x="-0.0614" y="-4.5570" width="0.1228" height="2.2272" ry="0.0421" fill="currentColor"/>
</g>
<g transform="translate(114.0175, 54.3820)">
<path transform="scale(0.0029, -0.0029)" d="M208 139c61 0 117 -33 117 -99c0 -71 -52 -119 -99 -147c-34 -20 -71 -32 -110 -32c-61 0 -116 33 -116 99c0 71 51 119 98 147c34 20 71 32 110 32z" fill="currentColor"/>
</g>
<g transform="translate(112.5061, 54.7504)">
<rect x="-0.0614" y="-2.7222" width="0.1228" height="2.9714" ry="0.0421" fill="currentColor"/>
</g>
<g transform="translate(111.6110, 55.1189)">
<path transform="scale(0.0029, -0.0029)" d="M208 139c61 0 117 -33 117 -99c0 -71 -52 -119 -99 -147c-34 -20 -71 -32 -110 -32c-61 0 -116 33 -116 99c0 71 51 119 98 147c34 20 71 32 110 32z" fill="currentColor"/>
</g>
<g transform="translate(124.0385, 54.7504)">
<rect x="-0.0614" y="-5.0013" width="0.1228" height="2.6715" ry="0.0421" fill="currentColor"/>
</g>
<g transform="translate(124.6999, 51.8031)">
<path transform="scale(0.0029, -0.0029)" d="M0 114c0 12 7 22 18 26l37 15v151c0 12 10 22 22 22s22 -10 22 -22v-134l77 29v152c0 12 10 22 22 22s22 -10 22 -22v-134l16 6c3 1 8 2 11 2c15 0 28 -12 28 -28v-50c0 -12 -7 -23 -18 -27l-37 -14v-152l16 7c3 1 8 2 11 2c15 0 28 -13 28 -29v-50c0 -12 -7 -22 -18 -26
l-37 -15v-151c0 -12 -10 -22 -22 -22s-22 10 -22 22v134l-77 -29v-152c0 -12 -10 -22 -22 -22s-22 10 -22 22v134l-16 -6c-3 -1 -8 -2 -11 -2c-15 0 -28 12 -28 28v50c0 12 7 23 18 27l37 14v152l-16 -7c-3 -1 -8 -2 -11 -2c-15 0 -28 13 -28 29v50zM176 91l-77 -30v-152
l77 30v152z" fill="currentColor"/>
</g>
<g transform="translate(126.7556, 54.7504)">
<rect x="-0.0614" y="-5.2812" width="0.1228" height="2.2146" ry="0.0421" fill="currentColor"/>
</g>
<g transform="translate(125.8605, 51.8031)">
<path transform="scale(0.0029, -0.0029)" d="M208 139c61 0 117 -33 117 -99c0 -71 -52 -119 -99 -147c-34 -20 -71 -32 -110 -32c-61 0 -116 33 -116 99c0 71 51 119 98 147c34 20 71 32 110 32z" fill="currentColor"/>
</g>
<g transform="translate(123.1434, 52.5399)">
<path transform="scale(0.0029, -0.0029)" d="M208 139c61 0 117 -33 117 -99c0 -71 -52 -119 -99 -147c-34 -20 -71 -32 -110 -32c-61 0 -116 33 -116 99c0 71 51 119 98 147c34 20 71 32 110 32z" fill="currentColor"/>
</g>
<g transform="translate(121.6321, 54.7504)">
<rect x="-0.0614" y="-4.7534" width="0.1228" height="3.5289" ry="0.0421" fill="currentColor"/>
</g>
<g transform="translate(120.7369, 53.6452)">
<path transform="scale(0.0029, -0.0029)" d="M208 139c61 0 117 -33 117 -99c0 -71 -52 -119 -99 -147c-34 -20 -71 -32 -110 -32c-61 0 -116 33 -116 99c0 71 51 119 98 147c34 20 71 32 110 32z" fill="currentColor"/>
</g>
<g transform="translate(46.5256, 54.7504)">
<rect x="-0.0614" y="-3.9843" width="0.1228" height="2.0230" ry="0.0421" fill="currentColor"/>
</g>
<g transform="translate(45.6305, 52.9083)">
<path transform="scale(0.0029, -0.0029)" d="M208 139c61 0 117 -33 117 -99c0 -71 -52 -119 -99 -147c-34 -20 -71 -32 -110 -32c-61 0 -116 33 -116 99c0 71 51 119 98 147c34 20 71 32 110 32z" fill="currentColor"/>
</g>
<g transform="translate(44.1191, 54.7504)">
<rect x="-0.0614" y="-3.5653" width="0.1228" height="3.4460" ry="0.0421" fill="currentColor"/>
</g>
<g transform="translate(43.2240, 54.7504)">
<path transform="scale(0.0029, -0.0029)" d="M208 139c61 0 117 -33 117 -99c0 -71 -52 -119 -99 -147c-34 -20 -71 -32 -110 -32c-61 0 -116 33 -116 99c0 71 51 119 98 147c34 20 71 32 110 32z" fill="currentColor"/>
</g>
<g transform="translate(42.2127, 54.7504)">
<rect x="-0.0614" y="-3.5491" width="0.1228" height="1.9562" ry="0.0421" fill="currentColor"/>
</g>
<g transform="translate(41.3176, 53.2768)">
<path transform="scale(0.0029, -0.0029)" d="M208 139c61 0 117 -33 117 -99c0 -71 -52 -119 -99 -147c-34 -20 -71 -32 -110 -32c-61 0 -116 33 -116 99c0 71 51 119 98 147c34 20 71 32 110 32z" fill="currentColor"/>
</g>
<g transform="translate(39.8062, 54.7504)">
<rect x="-0.0614" y="-3.3356" width="0.1228" height="2.4795" ry="0.0421" fill="currentColor"/>
</g>
<g transform="translate(38.9111, 54.0136)">
<path transform="scale(0.0029, -0.0029)" d="M208 139c61 0 117 -33 117 -99c0 -71 -52 -119 -99 -147c-34 -20 -71 -32 -110 -32c-61 0 -116 33 -116 99c0 71 51 119 98 147c34 20 71 32 110 32z" fill="currentColor"/>
</g>
<g transform="translate(54.3245, 54.7504)">
<rect x="-0.0614" y="-2.8111" width="0.1228" height="1.5866" ry="0.0421" fill="currentColor"/>
</g>
<g transform="translate(53.4294, 53.6452)">
<path transform="scale(0.0029, -0.0029)" d="M208 139c61 0 117 -33 117 -99c0 -71 -52 -119 -99 -147c-34 -20 -71 -32 -110 -32c-61 0 -116 33 -116 99c0 71 51 119 98 147c34 20 71 32 110 32z" fill="currentColor"/>
</g>
<g transform="translate(51.0886, 54.7504)">
<rect x="-0.0614" y="-4.7788" width="0.1228" height="2.0806" ry="0.0421" fill="currentColor"/>
</g>
<g transform="translate(50.1935, 52.1715)">
<path transform="scale(0.0029, -0.0029)" d="M208 139c61 0 117 -33 117 -99c0 -71 -52 -119 -99 -147c-34 -20 -71 -32 -110 -32c-61 0 -116 33 -116 99c0 71 51 119 98 147c34 20 71 32 110 32z" fill="currentColor"/>
</g>
<g transform="translate(48.6821, 54.7504)">
<rect x="-0.0614" y="-4.3598" width="0.1228" height="2.0300" ry="0.0421" fill="currentColor"/>
</g>
<g transform="translate(47.7870, 52.5399)">
<path transform="scale(0.0029, -0.0029)" d="M208 139c61 0 117 -33 117 -99c0 -71 -52 -119 -99 -147c-34 -20 -71 -32 -110 -32c-61 0 -116 33 -116 99c0 71 51 119 98 147c34 20 71 32 110 32z" fill="currentColor"/>
</g>
<g transform="translate(28.2737, 54.7504)">
<rect x="-0.0614" y="-1.6483" width="0.1228" height="3.3712" ry="0.0421" fill="currentColor"/>
</g>
<g transform="translate(27.3786, 56.5926)">
<path transform="scale(0.0029, -0.0029)" d="M208 139c61 0 117 -33 117 -99c0 -71 -52 -119 -99 -147c-34 -20 -71 -32 -110 -32c-61 0 -116 33 -116 99c0 71 51 119 98 147c34 20 71 32 110 32z" fill="currentColor"/>
</g>
<g transform="translate(26.3672, 54.7504)">
<rect x="-0.0614" y="-1.4791" width="0.1228" height="2.4652" ry="0.0421" fill="currentColor"/>
</g>
<g transform="translate(25.4721, 55.8557)">
<path transform="scale(0.0029, -0.0029)" d="M208 139c61 0 117 -33 117 -99c0 -71 -52 -119 -99 -147c-34 -20 -71 -32 -110 -32c-61 0 -116 33 -116 99c0 71 51 119 98 147c34 20 71 32 110 32z" fill="currentColor"/>
</g>
<g transform="translate(22.3827, 54.7504)">
<path transform="scale(0.0029, -0.0029)" d="M33 35l-2 -60v-11c0 -21 2 -43 5 -64c42 38 87 81 87 138c0 32 -13 63 -41 63c-31 0 -48 -32 -49 -66zM32 446l-9 -337c25 26 59 40 95 40c50 0 82 -51 82 -105c0 -77 -80 -117 -137 -169c-18 -17 -26 -48 -52 -48c-16 0 -28 15 -28 32l-15 587c10 6 21 8 32 8
s22 -2 32 -8z" fill="currentColor"/>
</g>
<g transform="translate(18.7702, 55.4873)">
<path transform="scale(0.0029, -0.0029)" d="M381 266h9c157 0 258 -130 258 -264c0 -77 -33 -156 -108 -212c-22 -16 -46 -28 -71 -36c2 -32 3 -65 3 -97c0 -21 -1 -43 -2 -64c-7 -122 -91 -230 -211 -230c-108 0 -197 88 -197 197c0 58 54 104 113 104c54 0 95 -48 95 -104c0 -52 -43 -95 -95 -95c-8 0 -16 2 -24 4
c25 -35 65 -59 111 -59c95 0 155 92 161 190c1 20 2 39 2 59c0 28 -1 55 -3 83c-29 -5 -57 -7 -87 -7c-189 0 -333 174 -333 377c0 176 128 307 242 443c-21 62 -41 124 -50 189c-7 52 -8 106 -8 159c0 113 54 219 146 286c8 6 21 7 29 0c72 -82 136 -244 136 -357
c0 -141 -83 -253 -174 -362c22 -67 41 -135 58 -204zM464 -200c64 25 108 93 108 159c0 87 -62 173 -163 187c24 -113 43 -225 55 -346zM338 -218c27 0 54 2 80 6c-13 125 -33 242 -58 359c-79 -7 -123 -59 -123 -116c0 -43 24 -89 78 -120c5 -5 8 -11 8 -17
c0 -13 -11 -24 -24 -24c-3 0 -7 0 -10 2c-81 44 -119 116 -119 187c0 90 60 178 164 201c-14 56 -30 112 -47 167c-104 -122 -208 -245 -208 -404c0 -132 127 -241 259 -241zM239 782c0 -69 22 -127 41 -183c77 97 140 199 140 323c0 49 -3 69 -19 113
c-99 -45 -162 -145 -162 -253z" fill="currentColor"/>
</g>
<g transform="translate(37.3997, 54.7504)">
<rect x="-0.0614" y="-3.1220" width="0.1228" height="3.3712" ry="0.0421" fill="currentColor"/>
</g>
<g transform="translate(36.5046, 55.1189)">
<path transform="scale(0.0029, -0.0029)" d="M208 139c61 0 117 -33 117 -99c0 -71 -52 -119 -99 -147c-34 -20 -71 -32 -110 -32c-61 0 -116 33 -116 99c0 71 51 119 98 147c34 20 71 32 110 32z" fill="currentColor"/>
</g>
<g transform="translate(35.4932, 54.7504)">
<rect x="-0.0614" y="-2.9528" width="0.1228" height="2.0967" ry="0.0421" fill="currentColor"/>
</g>
<g transform="translate(34.5981, 54.0136)">
<path transform="scale(0.0029, -0.0029)" d="M208 139c61 0 117 -33 117 -99c0 -71 -52 -119 -99 -147c-34 -20 -71 -32 -110 -32c-61 0 -116 33 -116 99c0 71 51 119 98 147c34 20 71 32 110 32z" fill="currentColor"/>
</g>
<g transform="translate(33.0867, 54.7504)">
<rect x="-0.0614" y="-2.0755" width="0.1228" height="2.3246" ry="0.0421" fill="currentColor"/>
</g>
<g transform="translate(32.1916, 55.1189)">
<path transform="scale(0.0029, -0.0029)" d="M208 139c61 0 117 -33 117 -99c0 -71 -52 -119 -99 -147c-34 -20 -71 -32 -110 -32c-61 0 -116 33 -116 99c0 71 51 119 98 147c34 20 71 32 110 32z" fill="currentColor"/>
</g>
<g transform="translate(30.6802, 54.7504)">
<rect x="-0.0614" y="-1.8619" width="0.1228" height="2.8479" ry="0.0421" fill="currentColor"/>
</g>
<g transform="translate(29.7851, 55.8557)">
<path transform="scale(0.0029, -0.0029)" d="M208 139c61 0 117 -33 117 -99c0 -71 -52 -119 -99 -147c-34 -20 -71 -32 -110 -32c-61 0 -116 33 -116 99c0 71 51 119 98 147c34 20 71 32 110 32z" fill="currentColor"/>
</g>
<g transform="translate(65.3570, 54.7504)">
<rect x="-0.0614" y="-2.3852" width="0.1228" height="3.0028" ry="0.0421" fill="currentColor"/>
</g>
<g transform="translate(64.4619, 55.4873)">
<path transform="scale(0.0029, -0.0029)" d="M208 139c61 0 117 -33 117 -99c0 -71 -52 -119 -99 -147c-34 -20 -71 -32 -110 -32c-61 0 -116 33 -116 99c0 71 51 119 98 147c34 20 71 32 110 32z" fill="currentColor"/>
</g>
<g transform="translate(73.5878, 53.2768)">
<path transform="scale(0.0029, -0.0029)" d="M208 139c61 0 117 -33 117 -99c0 -71 -52 -119 -99 -147c-34 -20 -71 -32 -110 -32c-61 0 -116 33 -116 99c0 71 51 119 98 147c34 20 71 32 110 32z" fill="currentColor"/>
</g>
<g transform="translate(74.4829, 54.7504)">
<rect x="-0.0614" y="-3.5150" width="0.1228" height="1.9221" ry="0.0421" fill="currentColor"/>
</g>
<g transform="translate(63.4505, 54.7504)">
<rect x="-0.0614" y="-2.2160" width="0.1228" height="1.7283" ry="0.0421" fill="currentColor"/>
</g>
<g transform="translate(62.5554, 54.3820)">
<path transform="scale(0.0029, -0.0029)" d="M208 139c61 0 117 -33 117 -99c0 -71 -52 -119 -99 -147c-34 -20 -71 -32 -110 -32c-61 0 -116 33 -116 99c0 71 51 119 98 147c34 20 71 32 110 32z" fill="currentColor"/>
</g>
<g transform="translate(70.1699, 54.7504)">
<rect x="-0.0614" y="-2.8123" width="0.1228" height="1.5878" ry="0.0421" fill="currentColor"/>
</g>
<g transform="translate(71.1813, 55.1189)">
<path transform="scale(0.0029, -0.0029)" d="M208 139c61 0 117 -33 117 -99c0 -71 -52 -119 -99 -147c-34 -20 -71 -32 -110 -32c-61 0 -116 33 -116 99c0 71 51 119 98 147c34 20 71 32 110 32z" fill="currentColor"/>
</g>
<g transform="translate(72.0764, 54.7504)">
<rect x="-0.0614" y="-3.0879" width="0.1228" height="3.3371" ry="0.0421" fill="currentColor"/>
</g>
<g transform="translate(69.2748, 53.6452)">
<path transform="scale(0.0029, -0.0029)" d="M208 139c61 0 117 -33 117 -99c0 -71 -52 -119 -99 -147c-34 -20 -71 -32 -110 -32c-61 0 -116 33 -116 99c0 71 51 119 98 147c34 20 71 32 110 32z" fill="currentColor"/>
</g>
<g transform="translate(67.7635, 54.7504)">
<rect x="-0.0614" y="-2.5987" width="0.1228" height="2.1111" ry="0.0421" fill="currentColor"/>
</g>
<g transform="translate(66.8683, 54.3820)">
<path transform="scale(0.0029, -0.0029)" d="M208 139c61 0 117 -33 117 -99c0 -71 -52 -119 -99 -147c-34 -20 -71 -32 -110 -32c-61 0 -116 33 -116 99c0 71 51 119 98 147c34 20 71 32 110 32z" fill="currentColor"/>
</g>
<g transform="translate(56.2310, 54.7504)">
<rect x="-0.0614" y="-2.6058" width="0.1228" height="4.6971" ry="0.0421" fill="currentColor"/>
</g>
<g transform="translate(77.9008, 52.5399)">
<path transform="scale(0.0029, -0.0029)" d="M208 139c61 0 117 -33 117 -99c0 -71 -52 -119 -99 -147c-34 -20 -71 -32 -110 -32c-61 0 -116 33 -116 99c0 71 51 119 98 147c34 20 71 32 110 32z" fill="currentColor"/>
</g>
<g transform="translate(78.7959, 54.7504)">
<rect x="-0.0614" y="-4.2805" width="0.1228" height="1.9508" ry="0.0421" fill="currentColor"/>
</g>
<g transform="translate(55.3359, 56.9610)">
<path transform="scale(0.0029, -0.0029)" d="M208 139c61 0 117 -33 117 -99c0 -71 -52 -119 -99 -147c-34 -20 -71 -32 -110 -32c-61 0 -116 33 -116 99c0 71 51 119 98 147c34 20 71 32 110 32z" fill="currentColor"/>
</g>
<g transform="translate(60.1489, 55.4873)">
<path transform="scale(0.0029, -0.0029)" d="M208 139c61 0 117 -33 117 -99c0 -71 -52 -119 -99 -147c-34 -20 -71 -32 -110 -32c-61 0 -116 33 -116 99c0 71 51 119 98 147c34 20 71 32 110 32z" fill="currentColor"/>
</g>
<g transform="translate(75.7443, 52.9083)">
<path transform="scale(0.0029, -0.0029)" d="M208 139c61 0 117 -33 117 -99c0 -71 -52 -119 -99 -147c-34 -20 -71 -32 -110 -32c-61 0 -116 33 -116 99c0 71 51 119 98 147c34 20 71 32 110 32z" fill="currentColor"/>
</g>
<g transform="translate(76.6394, 54.7504)">
<rect x="-0.0614" y="-3.8978" width="0.1228" height="1.9364" ry="0.0421" fill="currentColor"/>
</g>
<g transform="translate(61.0440, 54.7504)">
<rect x="-0.0614" y="-2.0875" width="0.1228" height="2.7051" ry="0.0421" fill="currentColor"/>
</g>
<g transform="translate(58.6375, 54.7504)">
<rect x="-0.0614" y="-2.3467" width="0.1228" height="3.7011" ry="0.0421" fill="currentColor"/>
</g>
<g transform="translate(57.7424, 56.2241)">
<path transform="scale(0.0029, -0.0029)" d="M208 139c61 0 117 -33 117 -99c0 -71 -52 -119 -99 -147c-34 -20 -71 -32 -110 -32c-61 0 -116 33 -116 99c0 71 51 119 98 147c34 20 71 32 110 32z" fill="currentColor"/>
</g>
</svg>
