<svg xmlns="http://www.w3.org/2000/svg" xmlns:xlink="http://www.w3.org/1999/xlink" version="1.2" width="594.00mm" height="420.00mm" viewBox="0.0000 -0.0000 355.8092 251.5823">
<style type="text/css">
<![CDATA[
tspan { white-space: pre; }
]]>
</style>
<g transform="translate(17.9702, 56.2241)">
<line stroke-linejoin="round" stroke-linecap="round" stroke-width="0.0944" stroke="currentColor" x1="0.0472" y1="0" x2="119.0193" y2="0"/>
</g>
<g transform="translate(17.9702, 55.4873)">
<line stroke-linejoin="round" stroke-linecap="round" stroke-width="0.0944" stroke="currentColor" x1="0.0472" y1="0" x2="119.0193" y2="0"/>
</g>
<g transform="translate(17.9702, 54.7504)">
<line stroke-linejoin="round" stroke-linecap="round" stroke-width="0.0944" stroke="currentColor" x1="0.0472" y1="0" x2="119.0193" y2="0"/>
</g>
<g transform="translate(17.9702, 54.0136)">
<line stroke-linejoin="round" stroke-linecap="round" stroke-width="0.0944" stroke="currentColor" x1="0.0472" y1="0" x2="119.0193" y2="0"/>
</g>
<g transform="translate(17.9702, 53.2768)">
<line stroke-linejoin="round" stroke-linecap="round" stroke-width="0.0944" stroke="currentColor" x1="0.0472" y1="0" x2="119.0193" y2="0"/>
</g>
<g transform="translate(80.4815, 54.7504)">
<rect x="0.0000" y="-1.4737" width="0.1794" height="2.9474" ry="0.0000" fill="currentColor"/>
</g>
<g transform="translate(136.8572, 54.7504)">
<rect x="0.0000" y="-1.4737" width="0.1794" height="2.9474" ry="0.0000" fill="currentColor"/>
</g>
<g transform="translate(107.4985, 54.7504)">
<rect x="0.0000" y="-1.4737" width="0.1794" height="2.9474" ry="0.0000" fill="currentColor"/>
</g>
<g transform="translate(53.1264, 54.7504)">
<rect x="0.0000" y="-1.4737" width="0.1794" height="2.9474" ry="0.0000" fill="currentColor"/>
</g>
<g transform="translate(17.9702, 51.8031)">
<rect x="87.2519" y="-0.0841" width="1.4347" height="0.1681" ry="0.0841" fill="currentColor"/>
</g>
<g transform="translate(17.9702, 52.5399)">
<rect x="87.2519" y="-0.0841" width="1.4347" height="0.1681" ry="0.0841" fill="currentColor"/>
</g>
<g transform="translate(17.9702, 51.8031)">
<rect x="85.0954" y="-0.0841" width="1.4347" height="0.1681" ry="0.0841" fill="currentColor"/>
</g>
<g transform="translate(17.9702, 52.5399)">
<rect x="85.0954" y="-0.0841" width="1.4347" height="0.1681" ry="0.0841" fill="currentColor"/>
</g>
<g transform="translate(17.9702, 51.8031)">
<rect x="82.9389" y="-0.0841" width="1.4347" height="0.1681" ry="0.0841" fill="currentColor"/>
</g>
<g transform="translate(17.9702, 52.5399)">
<rect x="82.9389" y="-0.0841" width="1.4347" height="0.1681" ry="0.0841" fill="currentColor"/>
</g>
<g transform="translate(17.9702, 51.8031)">
<rect x="80.7824" y="-0.0841" width="1.4347" height="0.1681" ry="0.0841" fill="currentColor"/>
</g>
<g transform="translate(17.9702, 52.5399)">
<rect x="80.7824" y="-0.0841" width="1.4347" height="0.1681" ry="0.0841" fill="currentColor"/>
</g>
<g transform="translate(17.9702, 52.5399)">
<rect x="78.6260" y="-0.0841" width="1.4347" height="0.1681" ry="0.0841" fill="currentColor"/>
</g>
<g transform="translate(17.9702, 52.5399)">
<rect x="76.4695" y="-0.0841" width="1.4347" height="0.1681" ry="0.0841" fill="currentColor"/>
</g>
<g transform="translate(17.9702, 52.5399)">
<rect x="74.3130" y="-0.0841" width="1.4347" height="0.1681" ry="0.0841" fill="currentColor"/>
</g>
<g transform="translate(17.9702, 52.5399)">
<rect x="63.3517" y="-0.0841" width="1.4347" height="0.1681" ry="0.0841" fill="currentColor"/>
</g>
<g transform="translate(17.9702, 51.8031)">
<rect x="60.2407" y="-0.0841" width="1.4347" height="0.1681" ry="0.0841" fill="currentColor"/>
</g>
<g transform="translate(17.9702, 52.5399)">
<rect x="60.2407" y="-0.0841" width="1.4347" height="0.1681" ry="0.0841" fill="currentColor"/>
</g>
<g transform="translate(17.9702, 51.8031)">
<rect x="58.0843" y="-0.0841" width="1.4347" height="0.1681" ry="0.0841" fill="currentColor"/>
</g>
<g transform="translate(17.9702, 52.5399)">
<rect x="58.0843" y="-0.0841" width="1.4347" height="0.1681" ry="0.0841" fill="currentColor"/>
</g>
<g transform="translate(17.9702, 51.8031)">
<rect x="55.9846" y="-0.0841" width="1.3779" height="0.1681" ry="0.0841" fill="currentColor"/>
</g>
<g transform="translate(17.9702, 52.5399)">
<rect x="55.9278" y="-0.0841" width="1.4347" height="0.1681" ry="0.0841" fill="currentColor"/>
</g>
<g transform="translate(17.9702, 51.8031)">
<rect x="53.5154" y="-0.0841" width="1.4347" height="0.1681" ry="0.0841" fill="currentColor"/>
</g>
<g transform="translate(17.9702, 52.5399)">
<rect x="53.5154" y="-0.0841" width="1.4347" height="0.1681" ry="0.0841" fill="currentColor"/>
</g>
<g transform="translate(17.9702, 51.8031)">
<rect x="51.3589" y="-0.0841" width="1.4347" height="0.1681" ry="0.0841" fill="currentColor"/>
</g>
<g transform="translate(17.9702, 52.5399)">
<rect x="51.3589" y="-0.0841" width="1.4347" height="0.1681" ry="0.0841" fill="currentColor"/>
</g>
<g transform="translate(17.9702, 51.8031)">
<rect x="49.2025" y="-0.0841" width="1.4347" height="0.1681" ry="0.0841" fill="currentColor"/>
</g>
<g transform="translate(17.9702, 52.5399)">
<rect x="49.2025" y="-0.0841" width="1.4347" height="0.1681" ry="0.0841" fill="currentColor"/>
</g>
<g transform="translate(17.9702, 51.8031)">
<rect x="47.0460" y="-0.0841" width="1.4347" height="0.1681" ry="0.0841" fill="currentColor"/>
</g>
<g transform="translate(17.9702, 52.5399)">
<rect x="47.0460" y="-0.0841" width="1.4347" height="0.1681" ry="0.0841" fill="currentColor"/>
</g>
<g transform="translate(101.1482, 51.4347)">
<path transform="scale(0.0029, -0.0029)" d="M208 139c61 0 117 -33 117 -99c0 -71 -52 -119 -99 -147c-34 -20 -71 -32 -110 -32c-61 0 -116 33 -116 99c0 71 51 119 98 147c34 20 71 32 110 32z" fill="currentColor"/>
</g>
<g transform="translate(103.3661, 54.7504)">
<rect x="-0.0614" y="-1.3545" width="0.1228" height="2.0913" ry="0.0421" fill="currentColor"/>
</g>
<g transform="translate(101.1482, 53.2768)">
<path transform="scale(0.0029, -0.0029)" d="M208 139c61 0 117 -33 117 -99c0 -71 -52 -119 -99 -147c-34 -20 -71 -32 -110 -32c-61 0 -116 33 -116 99c0 71 51 119 98 147c34 20 71 32 110 32z" fill="currentColor"/>
</g>
<g transform="translate(102.0433, 54.7504)">
<rect x="-0.0614" y="-5.2875" width="0.1228" height="1.8525" ry="0.0421" fill="currentColor"/>
</g>
<g transform="translate(101.2096, 54.7504)">
<rect x="-0.0614" y="-1.3545" width="0.1228" height="2.0913" ry="0.0421" fill="currentColor"/>
</g>
<g transform="translate(103.3047, 51.4347)">
<path transform="scale(0.0029, -0.0029)" d="M208 139c61 0 117 -33 117 -99c0 -71 -52 -119 -99 -147c-34 -20 -71 -32 -110 -32c-61 0 -116 33 -116 99c0 71 51 119 98 147c34 20 71 32 110 32z" fill="currentColor"/>
</g>
<g transform="translate(103.3047, 53.2768)">
<path transform="scale(0.0029, -0.0029)" d="M208 139c61 0 117 -33 117 -99c0 -71 -52 -119 -99 -147c-34 -20 -71 -32 -110 -32c-61 0 -116 33 -116 99c0 71 51 119 98 147c34 20 71 32 110 32z" fill="currentColor"/>
</g>
<g transform="translate(104.1998, 54.7504)">
<rect x="-0.0614" y="-5.2875" width="0.1228" height="1.8525" ry="0.0421" fill="currentColor"/>
</g>
<g transform="translate(96.8352, 52.1715)">
<path transform="scale(0.0029, -0.0029)" d="M208 139c61 0 117 -33 117 -99c0 -71 -52 -119 -99 -147c-34 -20 -71 -32 -110 -32c-61 0 -116 33 -116 99c0 71 51 119 98 147c34 20 71 32 110 32z" fill="currentColor"/>
</g>
<g transform="translate(96.8352, 52.9083)">
<path transform="scale(0.0029, -0.0029)" d="M208 139c61 0 117 -33 117 -99c0 -71 -52 -119 -99 -147c-34 -20 -71 -32 -110 -32c-61 0 -116 33 -116 99c0 71 51 119 98 147c34 20 71 32 110 32z" fill="currentColor"/>
</g>
<g transform="translate(97.7304, 54.7504)">
<rect x="-0.0614" y="-4.5507" width="0.1228" height="1.8525" ry="0.0421" fill="currentColor"/>
</g>
<g transform="translate(96.8966, 54.7504)">
<rect x="-0.0614" y="-1.7229" width="0.1228" height="2.3301" ry="0.0421" fill="currentColor"/>
</g>
<g transform="translate(98.9917, 51.8031)">
<path transform="scale(0.0029, -0.0029)" d="M208 139c61 0 117 -33 117 -99c0 -71 -52 -119 -99 -147c-34 -20 -71 -32 -110 -32c-61 0 -116 33 -116 99c0 71 51 119 98 147c34 20 71 32 110 32z" fill="currentColor"/>
</g>
<g transform="translate(98.9917, 52.9083)">
<path transform="scale(0.0029, -0.0029)" d="M208 139c61 0 117 -33 117 -99c0 -71 -52 -119 -99 -147c-34 -20 -71 -32 -110 -32c-61 0 -116 33 -116 99c0 71 51 119 98 147c34 20 71 32 110 32z" fill="currentColor"/>
</g>
<g transform="translate(99.8868, 54.7504)">
<rect x="-0.0614" y="-5.2875" width="0.1228" height="2.2209" ry="0.0421" fill="currentColor"/>
</g>
<g transform="translate(99.0531, 54.7504)">
<rect x="-0.0614" y="-1.7229" width="0.1228" height="2.4597" ry="0.0421" fill="currentColor"/>
</g>
<g transform="translate(109.7574, 54.7504)">
<rect x="-0.0614" y="-1.3545" width="0.1228" height="2.6985" ry="0.0421" fill="currentColor"/>
</g>
<g transform="translate(111.3742, 52.9083)">
<path transform="scale(0.0029, -0.0029)" d="M208 139c61 0 117 -33 117 -99c0 -71 -52 -119 -99 -147c-34 -20 -71 -32 -110 -32c-61 0 -116 33 -116 99c0 71 51 119 98 147c34 20 71 32 110 32z" fill="currentColor"/>
</g>
<g transform="translate(111.3742, 53.6452)">
<path transform="scale(0.0029, -0.0029)" d="M208 139c61 0 117 -33 117 -99c0 -71 -52 -119 -99 -147c-34 -20 -71 -32 -110 -32c-61 0 -116 33 -116 99c0 71 51 119 98 147c34 20 71 32 110 32z" fill="currentColor"/>
</g>
<g transform="translate(112.2693, 54.7504)">
<rect x="-0.0614" y="-3.8138" width="0.1228" height="1.8525" ry="0.0421" fill="currentColor"/>
</g>
<g transform="translate(111.4356, 54.7504)">
<rect x="-0.0614" y="-0.9860" width="0.1228" height="2.3301" ry="0.0421" fill="currentColor"/>
</g>
<g transform="translate(105.4612, 51.4347)">
<path transform="scale(0.0029, -0.0029)" d="M208 139c61 0 117 -33 117 -99c0 -71 -52 -119 -99 -147c-34 -20 -71 -32 -110 -32c-61 0 -116 33 -116 99c0 71 51 119 98 147c34 20 71 32 110 32z" fill="currentColor"/>
</g>
<g transform="translate(105.4612, 53.2768)">
<path transform="scale(0.0029, -0.0029)" d="M208 139c61 0 117 -33 117 -99c0 -71 -52 -119 -99 -147c-34 -20 -71 -32 -110 -32c-61 0 -116 33 -116 99c0 71 51 119 98 147c34 20 71 32 110 32z" fill="currentColor"/>
</g>
<g transform="translate(106.3563, 54.7504)">
<rect x="-0.0614" y="-5.2875" width="0.1228" height="1.8525" ry="0.0421" fill="currentColor"/>
</g>
<g transform="translate(105.5226, 54.7504)">
<rect x="-0.0614" y="-1.3545" width="0.1228" height="2.0913" ry="0.0421" fill="currentColor"/>
</g>
<g transform="translate(108.7395, 52.9083)">
<path transform="scale(0.0029, -0.0029)" d="M208 139c61 0 117 -33 117 -99c0 -71 -52 -119 -99 -147c-34 -20 -71 -32 -110 -32c-61 0 -116 33 -116 99c0 71 51 119 98 147c34 20 71 32 110 32z" fill="currentColor"/>
</g>
<g transform="translate(109.6960, 53.2768)">
<path transform="scale(0.0029, -0.0029)" d="M208 139c61 0 117 -33 117 -99c0 -71 -52 -119 -99 -147c-34 -20 -71 -32 -110 -32c-61 0 -116 33 -116 99c0 71 51 119 98 147c34 20 71 32 110 32z" fill="currentColor"/>
</g>
<g transform="translate(109.6346, 54.7504)">
<rect x="-0.0614" y="-3.8138" width="0.1228" height="1.8525" ry="0.0421" fill="currentColor"/>
</g>
<g transform="translate(86.9841, 54.7504)">
<rect x="-0.0614" y="-0.6072" width="0.1228" height="2.3301" ry="0.0421" fill="currentColor"/>
</g>
<g transform="translate(86.0889, 52.5399)">
<path transform="scale(0.0029, -0.0029)" d="M63 -250l119 325c-32 -11 -65 -21 -99 -21c-47 0 -87 34 -87 79c0 40 34 72 75 72c25 0 48 -13 56 -36c10 -26 4 -58 32 -58c13 0 48 38 54 50c8 15 30 15 37 0l-117 -411c-10 -8 -23 -13 -35 -13s-25 5 -35 13z" fill="currentColor"/>
</g>
<g transform="translate(86.0889, 56.5926)">
<path transform="scale(0.0029, -0.0029)" d="M208 139c61 0 117 -33 117 -99c0 -71 -52 -119 -99 -147c-34 -20 -71 -32 -110 -32c-61 0 -116 33 -116 99c0 71 51 119 98 147c34 20 71 32 110 32z" fill="currentColor"/>
</g>
<g transform="translate(86.0889, 56.5926)">
<path transform="scale(0.0029, -0.0029)" d="M208 139c61 0 117 -33 117 -99c0 -71 -52 -119 -99 -147c-34 -20 -71 -32 -110 -32c-61 0 -116 33 -116 99c0 71 51 119 98 147c34 20 71 32 110 32z" fill="currentColor"/>
</g>
<g transform="translate(86.1503, 54.7504)">
<rect x="-0.0614" y="1.9613" width="0.1228" height="1.8525" ry="0.0421" fill="currentColor"/>
</g>
<g transform="translate(88.2454, 56.5926)">
<path transform="scale(0.0029, -0.0029)" d="M208 139c61 0 117 -33 117 -99c0 -71 -52 -119 -99 -147c-34 -20 -71 -32 -110 -32c-61 0 -116 33 -116 99c0 71 51 119 98 147c34 20 71 32 110 32z" fill="currentColor"/>
</g>
<g transform="translate(83.9566, 51.8031)">
<path transform="scale(0.0029, -0.0029)" d="M57 -500l102 325c-32 -11 -66 -21 -100 -21c-47 0 -87 34 -87 79c0 40 34 72 75 72c25 0 49 -13 57 -36c10 -26 4 -58 32 -58c15 0 49 49 54 64l47 150c-32 -11 -66 -21 -100 -21c-47 0 -87 34 -87 79c0 40 34 72 75 72c25 0 49 -13 57 -36c10 -26 4 -58 32 -58
c13 0 43 38 49 50c8 15 30 15 37 0l-173 -661c-10 -8 -23 -13 -35 -13s-25 5 -35 13z" fill="currentColor"/>
</g>
<g transform="translate(127.4261, 56.9610)">
<polygon stroke-linejoin="round" stroke-linecap="round" stroke-width="0.0842" fill="currentColor" stroke="currentColor" points="7.1878 -0.3735 7.1878 -0.1041 0.0421 0.1347 0.0421 -0.1347"/>
</g>
<g transform="translate(127.4261, 57.5682)">
<polygon stroke-linejoin="round" stroke-linecap="round" stroke-width="0.0842" fill="currentColor" stroke="currentColor" points="7.1878 -0.3735 7.1878 -0.1041 0.0421 0.1347 0.0421 -0.1347"/>
</g>
<g transform="translate(82.9957, 50.5557)">
<path transform="scale(0.0029, -0.0029)" d="M0 -212v-213v213c0 -114 85 -201 146 -295c4 13 6 26 6 40c0 94 -87 188 -152 255zM0 0c0 -177 201 -290 201 -467c0 -33 -9 -66 -23 -96c18 -36 29 -74 29 -116c0 -63 -15 -125 -41 -182c-5 -10 -14 -13 -23 -13c-14 0 -28 10 -28 26c0 2 1 3 1 5c26 51 42 107 42 164
c0 95 -90 188 -158 254v-75h-21v500h21z" fill="currentColor"/>
</g>
<g transform="translate(88.2454, 56.5926)">
<path transform="scale(0.0029, -0.0029)" d="M208 139c61 0 117 -33 117 -99c0 -71 -52 -119 -99 -147c-34 -20 -71 -32 -110 -32c-61 0 -116 33 -116 99c0 71 51 119 98 147c34 20 71 32 110 32z" fill="currentColor"/>
</g>
<g transform="translate(83.9566, 56.5926)">
<path transform="scale(0.0029, -0.0029)" d="M208 139c61 0 117 -33 117 -99c0 -71 -52 -119 -99 -147c-34 -20 -71 -32 -110 -32c-61 0 -116 33 -116 99c0 71 51 119 98 147c34 20 71 32 110 32z" fill="currentColor"/>
</g>
<g transform="translate(83.9566, 56.5926)">
<path transform="scale(0.0029, -0.0029)" d="M208 139c61 0 117 -33 117 -99c0 -71 -52 -119 -99 -147c-34 -20 -71 -32 -110 -32c-61 0 -116 33 -116 99c0 71 51 119 98 147c34 20 71 32 110 32z" fill="currentColor"/>
</g>
<g transform="translate(84.8517, 54.7504)">
<rect x="-0.0614" y="-0.6072" width="0.1228" height="2.3301" ry="0.0421" fill="currentColor"/>
</g>
<g transform="translate(84.0179, 54.7504)">
<rect x="-0.0614" y="1.9613" width="0.1228" height="1.8525" ry="0.0421" fill="currentColor"/>
</g>
<g transform="translate(92.5223, 52.1715)">
<path transform="scale(0.0029, -0.0029)" d="M208 139c61 0 117 -33 117 -99c0 -71 -52 -119 -99 -147c-34 -20 -71 -32 -110 -32c-61 0 -116 33 -116 99c0 71 51 119 98 147c34 20 71 32 110 32z" fill="currentColor"/>
</g>
<g transform="translate(92.5223, 52.9083)">
<path transform="scale(0.0029, -0.0029)" d="M208 139c61 0 117 -33 117 -99c0 -71 -52 -119 -99 -147c-34 -20 -71 -32 -110 -32c-61 0 -116 33 -116 99c0 71 51 119 98 147c34 20 71 32 110 32z" fill="currentColor"/>
</g>
<g transform="translate(93.4174, 54.7504)">
<rect x="-0.0614" y="-4.5507" width="0.1228" height="1.8525" ry="0.0421" fill="currentColor"/>
</g>
<g transform="translate(92.5837, 54.7504)">
<rect x="-0.0614" y="-1.7229" width="0.1228" height="2.3301" ry="0.0421" fill="currentColor"/>
</g>
<g transform="translate(90.5247, 58.9452)">
<path transform="scale(0.0029, -0.0029)" d="M266 659c0 -44 -15 -80 -38 -114c16 -35 25 -73 25 -111c0 -180 -252 -254 -253 -433v-1h-21v500h21v-70c94 49 217 126 217 229c0 20 -5 41 -14 59v5c0 16 13 26 27 26c32 0 36 -61 36 -90zM0 205c88 51 204 130 204 229c0 22 -4 44 -12 65c-79 -85 -192 -155 -192 -274
v-20z" fill="currentColor"/>
</g>
<g transform="translate(94.6788, 52.1715)">
<path transform="scale(0.0029, -0.0029)" d="M208 139c61 0 117 -33 117 -99c0 -71 -52 -119 -99 -147c-34 -20 -71 -32 -110 -32c-61 0 -116 33 -116 99c0 71 51 119 98 147c34 20 71 32 110 32z" fill="currentColor"/>
</g>
<g transform="translate(94.6788, 52.9083)">
<path transform="scale(0.0029, -0.0029)" d="M208 139c61 0 117 -33 117 -99c0 -71 -52 -119 -99 -147c-34 -20 -71 -32 -110 -32c-61 0 -116 33 -116 99c0 71 51 119 98 147c34 20 71 32 110 32z" fill="currentColor"/>
</g>
<g transform="translate(95.5739, 54.7504)">
<rect x="-0.0614" y="-4.5507" width="0.1228" height="1.8525" ry="0.0421" fill="currentColor"/>
</g>
<g transform="translate(94.7401, 54.7504)">
<rect x="-0.0614" y="-1.7229" width="0.1228" height="2.3301" ry="0.0421" fill="currentColor"/>
</g>
<g transform="translate(90.4019, 56.5926)">
<path transform="scale(0.0029, -0.0029)" d="M208 139c61 0 117 -33 117 -99c0 -71 -52 -119 -99 -147c-34 -20 -71 -32 -110 -32c-61 0 -116 33 -116 99c0 71 51 119 98 147c34 20 71 32 110 32z" fill="currentColor"/>
</g>
<g transform="translate(89.1405, 54.7504)">
<rect x="-0.0614" y="-0.6072" width="0.1228" height="2.3301" ry="0.0421" fill="currentColor"/>
</g>
<g transform="translate(88.3068, 54.7504)">
<rect x="-0.0614" y="1.9613" width="0.1228" height="1.8525" ry="0.0421" fill="currentColor"/>
</g>
<g transform="translate(90.4019, 51.8031)">
<path transform="scale(0.0029, -0.0029)" d="M57 -500l102 325c-32 -11 -66 -21 -100 -21c-47 0 -87 34 -87 79c0 40 34 72 75 72c25 0 49 -13 57 -36c10 -26 4 -58 32 -58c15 0 49 49 54 64l47 150c-32 -11 -66 -21 -100 -21c-47 0 -87 34 -87 79c0 40 34 72 75 72c25 0 49 -13 57 -36c10 -26 4 -58 32 -58
c13 0 43 38 49 50c8 15 30 15 37 0l-173 -661c-10 -8 -23 -13 -35 -13s-25 5 -35 13z" fill="currentColor"/>
</g>
<g transform="translate(90.4019, 56.5926)">
<path transform="scale(0.0029, -0.0029)" d="M208 139c61 0 117 -33 117 -99c0 -71 -52 -119 -99 -147c-34 -20 -71 -32 -110 -32c-61 0 -116 33 -116 99c0 71 51 119 98 147c34 20 71 32 110 32z" fill="currentColor"/>
</g>
<g transform="translate(91.2970, 54.7504)">
<rect x="-0.0614" y="-0.7368" width="0.1228" height="2.4597" ry="0.0421" fill="currentColor"/>
</g>
<g transform="translate(91.3584, 54.0557)">
<path transform="scale(0.0029, -0.0029)" d="M0 -212v-213v213c0 -114 85 -201 146 -295c4 13 6 26 6 40c0 94 -87 188 -152 255zM0 0c0 -177 201 -290 201 -467c0 -33 -9 -66 -23 -96c18 -36 29 -74 29 -116c0 -63 -15 -125 -41 -182c-5 -10 -14 -13 -23 -13c-14 0 -28 10 -28 26c0 2 1 3 1 5c26 51 42 107 42 164
c0 95 -90 188 -158 254v-75h-21v500h21z" fill="currentColor"/>
</g>
<g transform="translate(90.4633, 54.7504)">
<rect x="-0.0614" y="1.9613" width="0.1228" height="2.2755" ry="0.0421" fill="currentColor"/>
</g>
<g transform="translate(132.2174, 53.6452)">
<path transform="scale(0.0029, -0.0029)" d="M208 139c61 0 117 -33 117 -99c0 -71 -52 -119 -99 -147c-34 -20 -71 -32 -110 -32c-61 0 -116 33 -116 99c0 71 51 119 98 147c34 20 71 32 110 32z" fill="currentColor"/>
</g>
<g transform="translate(132.6956, 54.3820)">
<path transform="scale(0.0029, -0.0029)" d="M208 139c61 0 117 -33 117 -99c0 -71 -52 -119 -99 -147c-34 -20 -71 -32 -110 -32c-61 0 -116 33 -116 99c0 71 51 119 98 147c34 20 71 32 110 32z" fill="currentColor"/>
</g>
<g transform="translate(132.2174, 55.1189)">
<path transform="scale(0.0029, -0.0029)" d="M208 139c61 0 117 -33 117 -99c0 -71 -52 -119 -99 -147c-34 -20 -71 -32 -110 -32c-61 0 -116 33 -116 99c0 71 51 119 98 147c34 20 71 32 110 32z" fill="currentColor"/>
</g>
<g transform="translate(133.1125, 54.7504)">
<rect x="-0.0614" y="-3.0770" width="0.1228" height="1.8525" ry="0.0421" fill="currentColor"/>
</g>
<g transform="translate(129.9628, 54.7504)">
<rect x="-0.0614" y="0.4876" width="0.1228" height="2.2463" ry="0.0421" fill="currentColor"/>
</g>
<g transform="translate(133.5907, 54.7504)">
<rect x="-0.0614" y="-2.6630" width="0.1228" height="2.1754" ry="0.0421" fill="currentColor"/>
</g>
<g transform="translate(132.2787, 54.7504)">
<rect x="-0.0614" y="0.4876" width="0.1228" height="2.1698" ry="0.0421" fill="currentColor"/>
</g>
<g transform="translate(134.5333, 53.6452)">
<path transform="scale(0.0029, -0.0029)" d="M208 139c61 0 117 -33 117 -99c0 -71 -52 -119 -99 -147c-34 -20 -71 -32 -110 -32c-61 0 -116 33 -116 99c0 71 51 119 98 147c34 20 71 32 110 32z" fill="currentColor"/>
</g>
<g transform="translate(129.9015, 53.6452)">
<path transform="scale(0.0029, -0.0029)" d="M208 139c61 0 117 -33 117 -99c0 -71 -52 -119 -99 -147c-34 -20 -71 -32 -110 -32c-61 0 -116 33 -116 99c0 71 51 119 98 147c34 20 71 32 110 32z" fill="currentColor"/>
</g>
<g transform="translate(129.2777, 54.7504)">
<rect x="-0.0614" y="-2.8156" width="0.1228" height="1.9595" ry="0.0421" fill="currentColor"/>
</g>
<g transform="translate(127.4875, 54.7504)">
<rect x="-0.0614" y="0.8561" width="0.1228" height="1.9596" ry="0.0421" fill="currentColor"/>
</g>
<g transform="translate(135.0115, 54.3820)">
<path transform="scale(0.0029, -0.0029)" d="M208 139c61 0 117 -33 117 -99c0 -71 -52 -119 -99 -147c-34 -20 -71 -32 -110 -32c-61 0 -116 33 -116 99c0 71 51 119 98 147c34 20 71 32 110 32z" fill="currentColor"/>
</g>
<g transform="translate(130.3797, 54.3820)">
<path transform="scale(0.0029, -0.0029)" d="M208 139c61 0 117 -33 117 -99c0 -71 -52 -119 -99 -147c-34 -20 -71 -32 -110 -32c-61 0 -116 33 -116 99c0 71 51 119 98 147c34 20 71 32 110 32z" fill="currentColor"/>
</g>
<g transform="translate(129.9015, 55.1189)">
<path transform="scale(0.0029, -0.0029)" d="M208 139c61 0 117 -33 117 -99c0 -71 -52 -119 -99 -147c-34 -20 -71 -32 -110 -32c-61 0 -116 33 -116 99c0 71 51 119 98 147c34 20 71 32 110 32z" fill="currentColor"/>
</g>
<g transform="translate(130.7966, 54.7504)">
<rect x="-0.0614" y="-3.0770" width="0.1228" height="1.8525" ry="0.0421" fill="currentColor"/>
</g>
<g transform="translate(131.2748, 54.7504)">
<rect x="-0.0614" y="-2.7449" width="0.1228" height="2.2573" ry="0.0421" fill="currentColor"/>
</g>
<g transform="translate(84.7903, 54.1432)">
<polygon stroke-linejoin="round" stroke-linecap="round" stroke-width="0.0842" fill="currentColor" stroke="currentColor" points="4.3695 -0.1347 4.3695 0.1347 0.0421 0.1347 0.0421 -0.1347"/>
</g>
<g transform="translate(84.7903, 54.7504)">
<polygon stroke-linejoin="round" stroke-linecap="round" stroke-width="0.0842" fill="currentColor" stroke="currentColor" points="4.3695 -0.1347 4.3695 0.1347 0.0421 0.1347 0.0421 -0.1347"/>
</g>
<g transform="translate(29.5168, 54.1432)">
<polygon stroke-linejoin="round" stroke-linecap="round" stroke-width="0.0842" fill="currentColor" stroke="currentColor" points="4.3695 -0.1347 4.3695 0.1347 0.0421 0.1347 0.0421 -0.1347"/>
</g>
<g transform="translate(29.5168, 54.7504)">
<polygon stroke-linejoin="round" stroke-linecap="round" stroke-width="0.0842" fill="currentColor" stroke="currentColor" points="4.3695 -0.1347 4.3695 0.1347 0.0421 0.1347 0.0421 -0.1347"/>
</g>
<g transform="translate(28.6830, 57.9571)">
<polygon stroke-linejoin="round" stroke-linecap="round" stroke-width="0.0842" fill="currentColor" stroke="currentColor" points="4.3695 -0.1347 4.3695 0.1347 0.0421 0.1347 0.0421 -0.1347"/>
</g>
<g transform="translate(28.6830, 58.5643)">
<polygon stroke-linejoin="round" stroke-linecap="round" stroke-width="0.0842" fill="currentColor" stroke="currentColor" points="4.3695 -0.1347 4.3695 0.1347 0.0421 0.1347 0.0421 -0.1347"/>
</g>
<g transform="translate(35.9621, 52.6695)">
<polygon stroke-linejoin="round" stroke-linecap="round" stroke-width="0.0842" fill="currentColor" stroke="currentColor" points="6.8001 -0.1347 6.8001 0.1347 0.0421 0.1347 0.0421 -0.1347"/>
</g>
<g transform="translate(35.9621, 53.2768)">
<polygon stroke-linejoin="round" stroke-linecap="round" stroke-width="0.0842" fill="currentColor" stroke="currentColor" points="6.8001 -0.1347 6.8001 0.1347 0.0421 0.1347 0.0421 -0.1347"/>
</g>
<g transform="translate(35.1284, 57.6978)">
<polygon stroke-linejoin="round" stroke-linecap="round" stroke-width="0.0842" fill="currentColor" stroke="currentColor" points="6.8001 -0.8716 6.8001 -0.6021 0.0421 0.1347 0.0421 -0.1347"/>
</g>
<g transform="translate(35.1284, 58.3050)">
<polygon stroke-linejoin="round" stroke-linecap="round" stroke-width="0.0842" fill="currentColor" stroke="currentColor" points="6.8001 -0.8716 6.8001 -0.6021 0.0421 0.1347 0.0421 -0.1347"/>
</g>
<g transform="translate(44.8381, 52.1715)">
<polygon stroke-linejoin="round" stroke-linecap="round" stroke-width="0.0842" fill="currentColor" stroke="currentColor" points="7.0284 -0.3735 7.0284 -0.1041 0.0421 0.1347 0.0421 -0.1347"/>
</g>
<g transform="translate(44.8381, 52.7787)">
<polygon stroke-linejoin="round" stroke-linecap="round" stroke-width="0.0842" fill="currentColor" stroke="currentColor" points="7.0284 -0.3735 7.0284 -0.1041 0.0421 0.1347 0.0421 -0.1347"/>
</g>
<g transform="translate(44.9608, 56.9610)">
<polygon stroke-linejoin="round" stroke-linecap="round" stroke-width="0.0842" fill="currentColor" stroke="currentColor" points="6.0719 -0.1347 6.0719 0.1347 0.0421 0.1347 0.0421 -0.1347"/>
</g>
<g transform="translate(44.9608, 57.5682)">
<polygon stroke-linejoin="round" stroke-linecap="round" stroke-width="0.0842" fill="currentColor" stroke="currentColor" points="6.0719 -0.1347 6.0719 0.1347 0.0421 0.1347 0.0421 -0.1347"/>
</g>
<g transform="translate(57.5233, 54.1432)">
<polygon stroke-linejoin="round" stroke-linecap="round" stroke-width="0.0842" fill="currentColor" stroke="currentColor" points="4.3695 -0.1347 4.3695 0.1347 0.0421 0.1347 0.0421 -0.1347"/>
</g>
<g transform="translate(57.5233, 54.7504)">
<polygon stroke-linejoin="round" stroke-linecap="round" stroke-width="0.0842" fill="currentColor" stroke="currentColor" points="4.3695 -0.1347 4.3695 0.1347 0.0421 0.1347 0.0421 -0.1347"/>
</g>
<g transform="translate(56.6895, 57.9571)">
<polygon stroke-linejoin="round" stroke-linecap="round" stroke-width="0.0842" fill="currentColor" stroke="currentColor" points="4.3695 -0.1347 4.3695 0.1347 0.0421 0.1347 0.0421 -0.1347"/>
</g>
<g transform="translate(56.6895, 58.5643)">
<polygon stroke-linejoin="round" stroke-linecap="round" stroke-width="0.0842" fill="currentColor" stroke="currentColor" points="4.3695 -0.1347 4.3695 0.1347 0.0421 0.1347 0.0421 -0.1347"/>
</g>
<g transform="translate(66.0890, 49.4629)">
<polygon stroke-linejoin="round" stroke-linecap="round" stroke-width="0.0842" fill="currentColor" stroke="currentColor" points="4.3936 -0.1347 4.3936 0.1347 0.0421 0.1347 0.0421 -0.1347"/>
</g>
<g transform="translate(66.0890, 50.0701)">
<polygon stroke-linejoin="round" stroke-linecap="round" stroke-width="0.0842" fill="currentColor" stroke="currentColor" points="4.3936 -0.1347 4.3936 0.1347 0.0421 0.1347 0.0421 -0.1347"/>
</g>
<g transform="translate(65.2553, 55.6169)">
<polygon stroke-linejoin="round" stroke-linecap="round" stroke-width="0.0842" fill="currentColor" stroke="currentColor" points="4.3936 -0.1347 4.3936 0.1347 0.0421 0.1347 0.0421 -0.1347"/>
</g>
<g transform="translate(65.2553, 56.2241)">
<polygon stroke-linejoin="round" stroke-linecap="round" stroke-width="0.0842" fill="currentColor" stroke="currentColor" points="4.3936 -0.1347 4.3936 0.1347 0.0421 0.1347 0.0421 -0.1347"/>
</g>
<g transform="translate(72.5584, 49.4629)">
<polygon stroke-linejoin="round" stroke-linecap="round" stroke-width="0.0842" fill="currentColor" stroke="currentColor" points="6.8060 0.1245 6.8060 0.3940 0.0421 0.1347 0.0421 -0.1347"/>
</g>
<g transform="translate(72.5584, 50.0701)">
<polygon stroke-linejoin="round" stroke-linecap="round" stroke-width="0.0842" fill="currentColor" stroke="currentColor" points="6.8060 0.1245 6.8060 0.3940 0.0421 0.1347 0.0421 -0.1347"/>
</g>
<g transform="translate(71.7247, 55.6169)">
<polygon stroke-linejoin="round" stroke-linecap="round" stroke-width="0.0842" fill="currentColor" stroke="currentColor" points="6.8060 -0.2644 6.8060 0.0051 0.0421 0.1347 0.0421 -0.1347"/>
</g>
<g transform="translate(71.7247, 56.2241)">
<polygon stroke-linejoin="round" stroke-linecap="round" stroke-width="0.0842" fill="currentColor" stroke="currentColor" points="6.8060 -0.2644 6.8060 0.0051 0.0421 0.1347 0.0421 -0.1347"/>
</g>
<g transform="translate(83.9566, 57.9571)">
<polygon stroke-linejoin="round" stroke-linecap="round" stroke-width="0.0842" fill="currentColor" stroke="currentColor" points="4.3695 -0.1347 4.3695 0.1347 0.0421 0.1347 0.0421 -0.1347"/>
</g>
<g transform="translate(83.9566, 58.5643)">
<polygon stroke-linejoin="round" stroke-linecap="round" stroke-width="0.0842" fill="currentColor" stroke="currentColor" points="4.3695 -0.1347 4.3695 0.1347 0.0421 0.1347 0.0421 -0.1347"/>
</g>
<g transform="translate(93.3560, 50.1998)">
<polygon stroke-linejoin="round" stroke-linecap="round" stroke-width="0.0842" fill="currentColor" stroke="currentColor" points="4.3936 -0.1347 4.3936 0.1347 0.0421 0.1347 0.0421 -0.1347"/>
</g>
<g transform="translate(93.3560, 50.8070)">
<polygon stroke-linejoin="round" stroke-linecap="round" stroke-width="0.0842" fill="currentColor" stroke="currentColor" points="4.3936 -0.1347 4.3936 0.1347 0.0421 0.1347 0.0421 -0.1347"/>
</g>
<g transform="translate(92.5223, 54.7504)">
<polygon stroke-linejoin="round" stroke-linecap="round" stroke-width="0.0842" fill="currentColor" stroke="currentColor" points="4.3936 -0.1347 4.3936 0.1347 0.0421 0.1347 0.0421 -0.1347"/>
</g>
<g transform="translate(92.5223, 55.3577)">
<polygon stroke-linejoin="round" stroke-linecap="round" stroke-width="0.0842" fill="currentColor" stroke="currentColor" points="4.3936 -0.1347 4.3936 0.1347 0.0421 0.1347 0.0421 -0.1347"/>
</g>
<g transform="translate(99.8255, 49.4629)">
<polygon stroke-linejoin="round" stroke-linecap="round" stroke-width="0.0842" fill="currentColor" stroke="currentColor" points="6.5501 -0.1347 6.5501 0.1347 0.0421 0.1347 0.0421 -0.1347"/>
</g>
<g transform="translate(99.8255, 50.0701)">
<polygon stroke-linejoin="round" stroke-linecap="round" stroke-width="0.0842" fill="currentColor" stroke="currentColor" points="6.5501 -0.1347 6.5501 0.1347 0.0421 0.1347 0.0421 -0.1347"/>
</g>
<g transform="translate(98.9917, 54.8801)">
<polygon stroke-linejoin="round" stroke-linecap="round" stroke-width="0.0842" fill="currentColor" stroke="currentColor" points="6.5501 -0.1347 6.5501 0.1347 0.0421 0.1347 0.0421 -0.1347"/>
</g>
<g transform="translate(98.9917, 55.4873)">
<polygon stroke-linejoin="round" stroke-linecap="round" stroke-width="0.0842" fill="currentColor" stroke="currentColor" points="6.5501 -0.1347 6.5501 0.1347 0.0421 0.1347 0.0421 -0.1347"/>
</g>
<g transform="translate(109.5732, 50.9366)">
<polygon stroke-linejoin="round" stroke-linecap="round" stroke-width="0.0842" fill="currentColor" stroke="currentColor" points="7.0284 -0.1347 7.0284 0.1347 0.0421 0.1347 0.0421 -0.1347"/>
</g>
<g transform="translate(109.5732, 51.5438)">
<polygon stroke-linejoin="round" stroke-linecap="round" stroke-width="0.0842" fill="currentColor" stroke="currentColor" points="7.0284 -0.1347 7.0284 0.1347 0.0421 0.1347 0.0421 -0.1347"/>
</g>
<g transform="translate(109.6960, 55.4873)">
<polygon stroke-linejoin="round" stroke-linecap="round" stroke-width="0.0842" fill="currentColor" stroke="currentColor" points="6.0719 -0.1347 6.0719 0.1347 0.0421 0.1347 0.0421 -0.1347"/>
</g>
<g transform="translate(109.6960, 56.0945)">
<polygon stroke-linejoin="round" stroke-linecap="round" stroke-width="0.0842" fill="currentColor" stroke="currentColor" points="6.0719 -0.1347 6.0719 0.1347 0.0421 0.1347 0.0421 -0.1347"/>
</g>
<g transform="translate(118.6774, 51.1959)">
<polygon stroke-linejoin="round" stroke-linecap="round" stroke-width="0.0842" fill="currentColor" stroke="currentColor" points="7.3472 -0.1347 7.3472 0.1347 0.0421 0.1347 0.0421 -0.1347"/>
</g>
<g transform="translate(118.6774, 51.8031)">
<polygon stroke-linejoin="round" stroke-linecap="round" stroke-width="0.0842" fill="currentColor" stroke="currentColor" points="7.3472 -0.1347 7.3472 0.1347 0.0421 0.1347 0.0421 -0.1347"/>
</g>
<g transform="translate(119.6339, 51.6735)">
<polygon stroke-linejoin="round" stroke-linecap="round" stroke-width="0.0842" fill="currentColor" stroke="currentColor" points="6.8690 -0.0051 6.8690 0.2644 0.0421 0.1347 0.0421 -0.1347"/>
</g>
<g transform="translate(119.6339, 52.2807)">
<polygon stroke-linejoin="round" stroke-linecap="round" stroke-width="0.0842" fill="currentColor" stroke="currentColor" points="6.8690 -0.0051 6.8690 0.2644 0.0421 0.1347 0.0421 -0.1347"/>
</g>
<g transform="translate(120.4784, 57.2202)">
<polygon stroke-linejoin="round" stroke-linecap="round" stroke-width="0.0842" fill="currentColor" stroke="currentColor" points="4.7125 -0.1347 4.7125 0.1347 0.0421 0.1347 0.0421 -0.1347"/>
</g>
<g transform="translate(120.4784, 57.8274)">
<polygon stroke-linejoin="round" stroke-linecap="round" stroke-width="0.0842" fill="currentColor" stroke="currentColor" points="4.7125 -0.1347 4.7125 0.1347 0.0421 0.1347 0.0421 -0.1347"/>
</g>
<g transform="translate(128.2599, 51.6735)">
<polygon stroke-linejoin="round" stroke-linecap="round" stroke-width="0.0842" fill="currentColor" stroke="currentColor" points="7.1878 -0.1347 7.1878 0.1347 0.0421 0.1347 0.0421 -0.1347"/>
</g>
<g transform="translate(128.2599, 52.2807)">
<polygon stroke-linejoin="round" stroke-linecap="round" stroke-width="0.0842" fill="currentColor" stroke="currentColor" points="7.1878 -0.1347 7.1878 0.1347 0.0421 0.1347 0.0421 -0.1347"/>
</g>
<g transform="translate(129.2163, 51.9327)">
<polygon stroke-linejoin="round" stroke-linecap="round" stroke-width="0.0842" fill="currentColor" stroke="currentColor" points="6.7095 0.1041 6.7095 0.3735 0.0421 0.1347 0.0421 -0.1347"/>
</g>
<g transform="translate(129.2163, 52.5399)">
<polygon stroke-linejoin="round" stroke-linecap="round" stroke-width="0.0842" fill="currentColor" stroke="currentColor" points="6.7095 0.1041 6.7095 0.3735 0.0421 0.1347 0.0421 -0.1347"/>
</g>
<g transform="translate(134.5333, 55.1189)">
<path transform="scale(0.0029, -0.0029)" d="M208 139c61 0 117 -33 117 -99c0 -71 -52 -119 -99 -147c-34 -20 -71 -32 -110 -32c-61 0 -116 33 -116 99c0 71 51 119 98 147c34 20 71 32 110 32z" fill="currentColor"/>
</g>
<g transform="translate(135.4284, 54.7504)">
<rect x="-0.0614" y="-3.0770" width="0.1228" height="1.8525" ry="0.0421" fill="currentColor"/>
</g>
<g transform="translate(135.9066, 54.7504)">
<rect x="-0.0614" y="-2.5811" width="0.1228" height="2.0935" ry="0.0421" fill="currentColor"/>
</g>
<g transform="translate(134.5946, 54.7504)">
<rect x="-0.0614" y="0.4876" width="0.1228" height="2.0933" ry="0.0421" fill="currentColor"/>
</g>
<g transform="translate(117.8437, 53.2768)">
<path transform="scale(0.0029, -0.0029)" d="M208 139c61 0 117 -33 117 -99c0 -71 -52 -119 -99 -147c-34 -20 -71 -32 -110 -32c-61 0 -116 33 -116 99c0 71 51 119 98 147c34 20 71 32 110 32z" fill="currentColor"/>
</g>
<g transform="translate(118.8002, 53.6452)">
<path transform="scale(0.0029, -0.0029)" d="M208 139c61 0 117 -33 117 -99c0 -71 -52 -119 -99 -147c-34 -20 -71 -32 -110 -32c-61 0 -116 33 -116 99c0 71 51 119 98 147c34 20 71 32 110 32z" fill="currentColor"/>
</g>
<g transform="translate(118.7388, 54.7504)">
<rect x="-0.0614" y="-3.5546" width="0.1228" height="1.9617" ry="0.0421" fill="currentColor"/>
</g>
<g transform="translate(119.6953, 54.7504)">
<rect x="-0.0614" y="-3.0758" width="0.1228" height="1.8513" ry="0.0421" fill="currentColor"/>
</g>
<g transform="translate(120.4784, 53.2768)">
<path transform="scale(0.0029, -0.0029)" d="M208 139c61 0 117 -33 117 -99c0 -71 -52 -119 -99 -147c-34 -20 -71 -32 -110 -32c-61 0 -116 33 -116 99c0 71 51 119 98 147c34 20 71 32 110 32z" fill="currentColor"/>
</g>
<g transform="translate(120.9567, 54.0136)">
<path transform="scale(0.0029, -0.0029)" d="M208 139c61 0 117 -33 117 -99c0 -71 -52 -119 -99 -147c-34 -20 -71 -32 -110 -32c-61 0 -116 33 -116 99c0 71 51 119 98 147c34 20 71 32 110 32z" fill="currentColor"/>
</g>
<g transform="translate(120.4784, 55.8557)">
<path transform="scale(0.0029, -0.0029)" d="M208 139c61 0 117 -33 117 -99c0 -71 -52 -119 -99 -147c-34 -20 -71 -32 -110 -32c-61 0 -116 33 -116 99c0 71 51 119 98 147c34 20 71 32 110 32z" fill="currentColor"/>
</g>
<g transform="translate(121.3735, 54.7504)">
<rect x="-0.0614" y="-3.5546" width="0.1228" height="1.9617" ry="0.0421" fill="currentColor"/>
</g>
<g transform="translate(121.8518, 54.7504)">
<rect x="-0.0614" y="-3.0354" width="0.1228" height="2.1793" ry="0.0421" fill="currentColor"/>
</g>
<g transform="translate(113.5307, 52.9083)">
<path transform="scale(0.0029, -0.0029)" d="M208 139c61 0 117 -33 117 -99c0 -71 -52 -119 -99 -147c-34 -20 -71 -32 -110 -32c-61 0 -116 33 -116 99c0 71 51 119 98 147c34 20 71 32 110 32z" fill="currentColor"/>
</g>
<g transform="translate(113.5307, 53.6452)">
<path transform="scale(0.0029, -0.0029)" d="M208 139c61 0 117 -33 117 -99c0 -71 -52 -119 -99 -147c-34 -20 -71 -32 -110 -32c-61 0 -116 33 -116 99c0 71 51 119 98 147c34 20 71 32 110 32z" fill="currentColor"/>
</g>
<g transform="translate(114.4258, 54.7504)">
<rect x="-0.0614" y="-3.8138" width="0.1228" height="1.8525" ry="0.0421" fill="currentColor"/>
</g>
<g transform="translate(113.5921, 54.7504)">
<rect x="-0.0614" y="-0.9860" width="0.1228" height="2.3301" ry="0.0421" fill="currentColor"/>
</g>
<g transform="translate(115.6872, 52.9083)">
<path transform="scale(0.0029, -0.0029)" d="M208 139c61 0 117 -33 117 -99c0 -71 -52 -119 -99 -147c-34 -20 -71 -32 -110 -32c-61 0 -116 33 -116 99c0 71 51 119 98 147c34 20 71 32 110 32z" fill="currentColor"/>
</g>
<g transform="translate(115.6872, 53.6452)">
<path transform="scale(0.0029, -0.0029)" d="M208 139c61 0 117 -33 117 -99c0 -71 -52 -119 -99 -147c-34 -20 -71 -32 -110 -32c-61 0 -116 33 -116 99c0 71 51 119 98 147c34 20 71 32 110 32z" fill="currentColor"/>
</g>
<g transform="translate(116.5823, 54.7504)">
<rect x="-0.0614" y="-3.8138" width="0.1228" height="1.8525" ry="0.0421" fill="currentColor"/>
</g>
<g transform="translate(115.7486, 54.7504)">
<rect x="-0.0614" y="-0.9860" width="0.1228" height="2.3301" ry="0.0421" fill="currentColor"/>
</g>
<g transform="translate(125.1102, 53.2768)">
<path transform="scale(0.0029, -0.0029)" d="M208 139c61 0 117 -33 117 -99c0 -71 -52 -119 -99 -147c-34 -20 -71 -32 -110 -32c-61 0 -116 33 -116 99c0 71 51 119 98 147c34 20 71 32 110 32z" fill="currentColor"/>
</g>
<g transform="translate(125.5885, 54.0136)">
<path transform="scale(0.0029, -0.0029)" d="M208 139c61 0 117 -33 117 -99c0 -71 -52 -119 -99 -147c-34 -20 -71 -32 -110 -32c-61 0 -116 33 -116 99c0 71 51 119 98 147c34 20 71 32 110 32z" fill="currentColor"/>
</g>
<g transform="translate(125.1102, 55.8557)">
<path transform="scale(0.0029, -0.0029)" d="M208 139c61 0 117 -33 117 -99c0 -71 -52 -119 -99 -147c-34 -20 -71 -32 -110 -32c-61 0 -116 33 -116 99c0 71 51 119 98 147c34 20 71 32 110 32z" fill="currentColor"/>
</g>
<g transform="translate(126.0053, 54.7504)">
<rect x="-0.0614" y="-3.5546" width="0.1228" height="1.9617" ry="0.0421" fill="currentColor"/>
</g>
<g transform="translate(126.4836, 54.7504)">
<rect x="-0.0614" y="-2.9485" width="0.1228" height="2.0924" ry="0.0421" fill="currentColor"/>
</g>
<g transform="translate(125.1716, 54.7504)">
<rect x="-0.0614" y="1.2245" width="0.1228" height="1.8525" ry="0.0421" fill="currentColor"/>
</g>
<g transform="translate(127.4261, 53.6452)">
<path transform="scale(0.0029, -0.0029)" d="M208 139c61 0 117 -33 117 -99c0 -71 -52 -119 -99 -147c-34 -20 -71 -32 -110 -32c-61 0 -116 33 -116 99c0 71 51 119 98 147c34 20 71 32 110 32z" fill="currentColor"/>
</g>
<g transform="translate(128.3826, 54.0136)">
<path transform="scale(0.0029, -0.0029)" d="M208 139c61 0 117 -33 117 -99c0 -71 -52 -119 -99 -147c-34 -20 -71 -32 -110 -32c-61 0 -116 33 -116 99c0 71 51 119 98 147c34 20 71 32 110 32z" fill="currentColor"/>
</g>
<g transform="translate(127.4261, 55.4873)">
<path transform="scale(0.0029, -0.0029)" d="M208 139c61 0 117 -33 117 -99c0 -71 -52 -119 -99 -147c-34 -20 -71 -32 -110 -32c-61 0 -116 33 -116 99c0 71 51 119 98 147c34 20 71 32 110 32z" fill="currentColor"/>
</g>
<g transform="translate(128.3212, 54.7504)">
<rect x="-0.0614" y="-3.0770" width="0.1228" height="1.8525" ry="0.0421" fill="currentColor"/>
</g>
<g transform="translate(120.5398, 54.7504)">
<rect x="-0.0614" y="1.2245" width="0.1228" height="1.8525" ry="0.0421" fill="currentColor"/>
</g>
<g transform="translate(122.7943, 53.2768)">
<path transform="scale(0.0029, -0.0029)" d="M208 139c61 0 117 -33 117 -99c0 -71 -52 -119 -99 -147c-34 -20 -71 -32 -110 -32c-61 0 -116 33 -116 99c0 71 51 119 98 147c34 20 71 32 110 32z" fill="currentColor"/>
</g>
<g transform="translate(123.2726, 54.0136)">
<path transform="scale(0.0029, -0.0029)" d="M208 139c61 0 117 -33 117 -99c0 -71 -52 -119 -99 -147c-34 -20 -71 -32 -110 -32c-61 0 -116 33 -116 99c0 71 51 119 98 147c34 20 71 32 110 32z" fill="currentColor"/>
</g>
<g transform="translate(122.7943, 55.8557)">
<path transform="scale(0.0029, -0.0029)" d="M208 139c61 0 117 -33 117 -99c0 -71 -52 -119 -99 -147c-34 -20 -71 -32 -110 -32c-61 0 -116 33 -116 99c0 71 51 119 98 147c34 20 71 32 110 32z" fill="currentColor"/>
</g>
<g transform="translate(123.6894, 54.7504)">
<rect x="-0.0614" y="-3.5546" width="0.1228" height="1.9617" ry="0.0421" fill="currentColor"/>
</g>
<g transform="translate(124.1677, 54.7504)">
<rect x="-0.0614" y="-2.9920" width="0.1228" height="2.1359" ry="0.0421" fill="currentColor"/>
</g>
<g transform="translate(122.8557, 54.7504)">
<rect x="-0.0614" y="1.2245" width="0.1228" height="1.8525" ry="0.0421" fill="currentColor"/>
</g>
<g transform="translate(41.9092, 54.7504)">
<rect x="-0.0614" y="0.4876" width="0.1228" height="2.3367" ry="0.0421" fill="currentColor"/>
</g>
<g transform="translate(44.0044, 54.7504)">
<path transform="scale(0.0029, -0.0029)" d="M208 139c61 0 117 -33 117 -99c0 -71 -52 -119 -99 -147c-34 -20 -71 -32 -110 -32c-61 0 -116 33 -116 99c0 71 51 119 98 147c34 20 71 32 110 32z" fill="currentColor"/>
</g>
<g transform="translate(44.9608, 55.1189)">
<path transform="scale(0.0029, -0.0029)" d="M208 139c61 0 117 -33 117 -99c0 -71 -52 -119 -99 -147c-34 -20 -71 -32 -110 -32c-61 0 -116 33 -116 99c0 71 51 119 98 147c34 20 71 32 110 32z" fill="currentColor"/>
</g>
<g transform="translate(44.8995, 54.7504)">
<rect x="-0.0614" y="-2.5810" width="0.1228" height="2.4618" ry="0.0421" fill="currentColor"/>
</g>
<g transform="translate(45.0222, 54.7504)">
<rect x="-0.0614" y="0.4876" width="0.1228" height="2.3301" ry="0.0421" fill="currentColor"/>
</g>
<g transform="translate(46.6391, 54.7504)">
<path transform="scale(0.0029, -0.0029)" d="M208 139c61 0 117 -33 117 -99c0 -71 -52 -119 -99 -147c-34 -20 -71 -32 -110 -32c-61 0 -116 33 -116 99c0 71 51 119 98 147c34 20 71 32 110 32z" fill="currentColor"/>
</g>
<g transform="translate(46.6391, 55.4873)">
<path transform="scale(0.0029, -0.0029)" d="M208 139c61 0 117 -33 117 -99c0 -71 -52 -119 -99 -147c-34 -20 -71 -32 -110 -32c-61 0 -116 33 -116 99c0 71 51 119 98 147c34 20 71 32 110 32z" fill="currentColor"/>
</g>
<g transform="translate(47.5342, 54.7504)">
<rect x="-0.0614" y="-2.6700" width="0.1228" height="2.5508" ry="0.0421" fill="currentColor"/>
</g>
<g transform="translate(37.5963, 54.7504)">
<rect x="-0.0614" y="0.4876" width="0.1228" height="2.8012" ry="0.0421" fill="currentColor"/>
</g>
<g transform="translate(39.6914, 55.1189)">
<path transform="scale(0.0029, -0.0029)" d="M208 139c61 0 117 -33 117 -99c0 -71 -52 -119 -99 -147c-34 -20 -71 -32 -110 -32c-61 0 -116 33 -116 99c0 71 51 119 98 147c34 20 71 32 110 32z" fill="currentColor"/>
</g>
<g transform="translate(39.6914, 55.1189)">
<path transform="scale(0.0029, -0.0029)" d="M208 139c61 0 117 -33 117 -99c0 -71 -52 -119 -99 -147c-34 -20 -71 -32 -110 -32c-61 0 -116 33 -116 99c0 71 51 119 98 147c34 20 71 32 110 32z" fill="currentColor"/>
</g>
<g transform="translate(40.5865, 54.7504)">
<rect x="-0.0614" y="-2.0809" width="0.1228" height="2.3301" ry="0.0421" fill="currentColor"/>
</g>
<g transform="translate(39.7528, 54.7504)">
<rect x="-0.0614" y="0.4876" width="0.1228" height="2.5689" ry="0.0421" fill="currentColor"/>
</g>
<g transform="translate(41.8479, 55.1189)">
<path transform="scale(0.0029, -0.0029)" d="M208 139c61 0 117 -33 117 -99c0 -71 -52 -119 -99 -147c-34 -20 -71 -32 -110 -32c-61 0 -116 33 -116 99c0 71 51 119 98 147c34 20 71 32 110 32z" fill="currentColor"/>
</g>
<g transform="translate(41.8479, 55.1189)">
<path transform="scale(0.0029, -0.0029)" d="M208 139c61 0 117 -33 117 -99c0 -71 -52 -119 -99 -147c-34 -20 -71 -32 -110 -32c-61 0 -116 33 -116 99c0 71 51 119 98 147c34 20 71 32 110 32z" fill="currentColor"/>
</g>
<g transform="translate(42.7430, 54.7504)">
<rect x="-0.0614" y="-2.0809" width="0.1228" height="2.3301" ry="0.0421" fill="currentColor"/>
</g>
<g transform="translate(82.9343, 54.7504)">
<rect x="-0.0614" y="-4.2368" width="0.1228" height="2.2755" ry="0.0421" fill="currentColor"/>
</g>
<g transform="translate(51.0134, 54.7504)">
<rect x="-0.0614" y="0.8561" width="0.1228" height="1.9617" ry="0.0421" fill="currentColor"/>
</g>
<g transform="translate(54.2058, 54.0136)">
<path transform="scale(0.0029, -0.0029)" d="M208 139c61 0 117 -33 117 -99c0 -71 -52 -119 -99 -147c-34 -20 -71 -32 -110 -32c-61 0 -116 33 -116 99c0 71 51 119 98 147c34 20 71 32 110 32z" fill="currentColor"/>
</g>
<g transform="translate(54.6841, 55.8557)">
<path transform="scale(0.0029, -0.0029)" d="M208 139c61 0 117 -33 117 -99c0 -71 -52 -119 -99 -147c-34 -20 -71 -32 -110 -32c-61 0 -116 33 -116 99c0 71 51 119 98 147c34 20 71 32 110 32z" fill="currentColor"/>
</g>
<g transform="translate(54.2058, 57.6978)">
<path transform="scale(0.0029, -0.0029)" d="M57 -500l102 325c-32 -11 -66 -21 -100 -21c-47 0 -87 34 -87 79c0 40 34 72 75 72c25 0 49 -13 57 -36c10 -26 4 -58 32 -58c15 0 49 49 54 64l47 150c-32 -11 -66 -21 -100 -21c-47 0 -87 34 -87 79c0 40 34 72 75 72c25 0 49 -13 57 -36c10 -26 4 -58 32 -58
c13 0 43 38 49 50c8 15 30 15 37 0l-173 -661c-10 -8 -23 -13 -35 -13s-25 5 -35 13z" fill="currentColor"/>
</g>
<g transform="translate(55.1009, 54.7504)">
<rect x="-0.0614" y="-3.1316" width="0.1228" height="2.2755" ry="0.0421" fill="currentColor"/>
</g>
<g transform="translate(55.1623, 51.6610)">
<path transform="scale(0.0029, -0.0029)" d="M0 -212v-213v213c0 -114 85 -201 146 -295c4 13 6 26 6 40c0 94 -87 188 -152 255zM0 0c0 -177 201 -290 201 -467c0 -33 -9 -66 -23 -96c18 -36 29 -74 29 -116c0 -63 -15 -125 -41 -182c-5 -10 -14 -13 -23 -13c-14 0 -28 10 -28 26c0 2 1 3 1 5c26 51 42 107 42 164
c0 95 -90 188 -158 254v-75h-21v500h21z" fill="currentColor"/>
</g>
<g transform="translate(55.5792, 54.7504)">
<rect x="-0.0614" y="-1.4737" width="0.1228" height="2.4597" ry="0.0421" fill="currentColor"/>
</g>
<g transform="translate(55.6406, 53.3189)">
<path transform="scale(0.0029, -0.0029)" d="M0 -212v-213v213c0 -114 85 -201 146 -295c4 13 6 26 6 40c0 94 -87 188 -152 255zM0 0c0 -177 201 -290 201 -467c0 -33 -9 -66 -23 -96c18 -36 29 -74 29 -116c0 -63 -15 -125 -41 -182c-5 -10 -14 -13 -23 -13c-14 0 -28 10 -28 26c0 2 1 3 1 5c26 51 42 107 42 164
c0 95 -90 188 -158 254v-75h-21v500h21z" fill="currentColor"/>
</g>
<g transform="translate(46.7005, 54.7504)">
<rect x="-0.0614" y="0.8561" width="0.1228" height="1.9617" ry="0.0421" fill="currentColor"/>
</g>
<g transform="translate(48.7956, 54.3820)">
<path transform="scale(0.0029, -0.0029)" d="M208 139c61 0 117 -33 117 -99c0 -71 -52 -119 -99 -147c-34 -20 -71 -32 -110 -32c-61 0 -116 33 -116 99c0 71 51 119 98 147c34 20 71 32 110 32z" fill="currentColor"/>
</g>
<g transform="translate(48.7956, 55.4873)">
<path transform="scale(0.0029, -0.0029)" d="M208 139c61 0 117 -33 117 -99c0 -71 -52 -119 -99 -147c-34 -20 -71 -32 -110 -32c-61 0 -116 33 -116 99c0 71 51 119 98 147c34 20 71 32 110 32z" fill="currentColor"/>
</g>
<g transform="translate(49.6907, 54.7504)">
<rect x="-0.0614" y="-2.7428" width="0.1228" height="2.2552" ry="0.0421" fill="currentColor"/>
</g>
<g transform="translate(48.8570, 54.7504)">
<rect x="-0.0614" y="0.8561" width="0.1228" height="1.9617" ry="0.0421" fill="currentColor"/>
</g>
<g transform="translate(50.9521, 54.3820)">
<path transform="scale(0.0029, -0.0029)" d="M208 139c61 0 117 -33 117 -99c0 -71 -52 -119 -99 -147c-34 -20 -71 -32 -110 -32c-61 0 -116 33 -116 99c0 71 51 119 98 147c34 20 71 32 110 32z" fill="currentColor"/>
</g>
<g transform="translate(50.9521, 55.4873)">
<path transform="scale(0.0029, -0.0029)" d="M208 139c61 0 117 -33 117 -99c0 -71 -52 -119 -99 -147c-34 -20 -71 -32 -110 -32c-61 0 -116 33 -116 99c0 71 51 119 98 147c34 20 71 32 110 32z" fill="currentColor"/>
</g>
<g transform="translate(51.8472, 54.7504)">
<rect x="-0.0614" y="-2.8157" width="0.1228" height="2.3280" ry="0.0421" fill="currentColor"/>
</g>
<g transform="translate(28.6830, 51.8031)">
<path transform="scale(0.0029, -0.0029)" d="M57 -500l102 325c-32 -11 -66 -21 -100 -21c-47 0 -87 34 -87 79c0 40 34 72 75 72c25 0 49 -13 57 -36c10 -26 4 -58 32 -58c15 0 49 49 54 64l47 150c-32 -11 -66 -21 -100 -21c-47 0 -87 34 -87 79c0 40 34 72 75 72c25 0 49 -13 57 -36c10 -26 4 -58 32 -58
c13 0 43 38 49 50c8 15 30 15 37 0l-173 -661c-10 -8 -23 -13 -35 -13s-25 5 -35 13z" fill="currentColor"/>
</g>
<g transform="translate(28.6830, 56.5926)">
<path transform="scale(0.0029, -0.0029)" d="M208 139c61 0 117 -33 117 -99c0 -71 -52 -119 -99 -147c-34 -20 -71 -32 -110 -32c-61 0 -116 33 -116 99c0 71 51 119 98 147c34 20 71 32 110 32z" fill="currentColor"/>
</g>
<g transform="translate(28.6830, 56.5926)">
<path transform="scale(0.0029, -0.0029)" d="M208 139c61 0 117 -33 117 -99c0 -71 -52 -119 -99 -147c-34 -20 -71 -32 -110 -32c-61 0 -116 33 -116 99c0 71 51 119 98 147c34 20 71 32 110 32z" fill="currentColor"/>
</g>
<g transform="translate(29.5781, 54.7504)">
<rect x="-0.0614" y="-0.6072" width="0.1228" height="2.3301" ry="0.0421" fill="currentColor"/>
</g>
<g transform="translate(28.7444, 54.7504)">
<rect x="-0.0614" y="1.9613" width="0.1228" height="1.8525" ry="0.0421" fill="currentColor"/>
</g>
<g transform="translate(18.7702, 55.4873)">
<path transform="scale(0.0029, -0.0029)" d="M381 266h9c157 0 258 -130 258 -264c0 -77 -33 -156 -108 -212c-22 -16 -46 -28 -71 -36c2 -32 3 -65 3 -97c0 -21 -1 -43 -2 -64c-7 -122 -91 -230 -211 -230c-108 0 -197 88 -197 197c0 58 54 104 113 104c54 0 95 -48 95 -104c0 -52 -43 -95 -95 -95c-8 0 -16 2 -24 4
c25 -35 65 -59 111 -59c95 0 155 92 161 190c1 20 2 39 2 59c0 28 -1 55 -3 83c-29 -5 -57 -7 -87 -7c-189 0 -333 174 -333 377c0 176 128 307 242 443c-21 62 -41 124 -50 189c-7 52 -8 106 -8 159c0 113 54 219 146 286c8 6 21 7 29 0c72 -82 136 -244 136 -357
c0 -141 -83 -253 -174 -362c22 -67 41 -135 58 -204zM464 -200c64 25 108 93 108 159c0 87 -62 173 -163 187c24 -113 43 -225 55 -346zM338 -218c27 0 54 2 80 6c-13 125 -33 242 -58 359c-79 -7 -123 -59 -123 -116c0 -43 24 -89 78 -120c5 -5 8 -11 8 -17
c0 -13 -11 -24 -24 -24c-3 0 -7 0 -10 2c-81 44 -119 116 -119 187c0 90 60 178 164 201c-14 56 -30 112 -47 167c-104 -122 -208 -245 -208 -404c0 -132 127 -241 259 -241zM239 782c0 -69 22 -127 41 -183c77 97 140 199 140 323c0 49 -3 69 -19 113
c-99 -45 -162 -145 -162 -253z" fill="currentColor"/>
</g>
<g transform="translate(22.2702, 53.2768)">
<path transform="scale(0.0029, -0.0029)" d="M0 114c0 12 7 22 18 26l37 15v151c0 12 10 22 22 22s22 -10 22 -22v-134l77 29v152c0 12 10 22 22 22s22 -10 22 -22v-134l16 6c3 1 8 2 11 2c15 0 28 -12 28 -28v-50c0 -12 -7 -23 -18 -27l-37 -14v-152l16 7c3 1 8 2 11 2c15 0 28 -13 28 -29v-50c0 -12 -7 -22 -18 -26
l-37 -15v-151c0 -12 -10 -22 -22 -22s-22 10 -22 22v134l-77 -29v-152c0 -12 -10 -22 -22 -22s-22 10 -22 22v134l-16 -6c-3 -1 -8 -2 -11 -2c-15 0 -28 12 -28 28v50c0 12 7 23 18 27l37 14v152l-16 -7c-3 -1 -8 -2 -11 -2c-15 0 -28 13 -28 29v50zM176 91l-77 -30v-152
l77 30v152z" fill="currentColor"/>
</g>
<g transform="translate(23.0807, 54.3820)">
<path transform="scale(0.0029, -0.0029)" d="M0 114c0 12 7 22 18 26l37 15v151c0 12 10 22 22 22s22 -10 22 -22v-134l77 29v152c0 12 10 22 22 22s22 -10 22 -22v-134l16 6c3 1 8 2 11 2c15 0 28 -12 28 -28v-50c0 -12 -7 -23 -18 -27l-37 -14v-152l16 7c3 1 8 2 11 2c15 0 28 -13 28 -29v-50c0 -12 -7 -22 -18 -26
l-37 -15v-151c0 -12 -10 -22 -22 -22s-22 10 -22 22v134l-77 -29v-152c0 -12 -10 -22 -22 -22s-22 10 -22 22v134l-16 -6c-3 -1 -8 -2 -11 -2c-15 0 -28 12 -28 28v50c0 12 7 23 18 27l37 14v152l-16 -7c-3 -1 -8 -2 -11 -2c-15 0 -28 13 -28 29v50zM176 91l-77 -30v-152
l77 30v152z" fill="currentColor"/>
</g>
<g transform="translate(26.3912, 53.2768)">
<path transform="scale(0.0029, -0.0029)" d="M208 139c61 0 117 -33 117 -99c0 -71 -52 -119 -99 -147c-34 -20 -71 -32 -110 -32c-61 0 -116 33 -116 99c0 71 51 119 98 147c34 20 71 32 110 32z" fill="currentColor"/>
</g>
<g transform="translate(26.8695, 54.0136)">
<path transform="scale(0.0029, -0.0029)" d="M208 139c61 0 117 -33 117 -99c0 -71 -52 -119 -99 -147c-34 -20 -71 -32 -110 -32c-61 0 -116 33 -116 99c0 71 51 119 98 147c34 20 71 32 110 32z" fill="currentColor"/>
</g>
<g transform="translate(26.3912, 56.2241)">
<path transform="scale(0.0029, -0.0029)" d="M57 -500l102 325c-32 -11 -66 -21 -100 -21c-47 0 -87 34 -87 79c0 40 34 72 75 72c25 0 49 -13 57 -36c10 -26 4 -58 32 -58c15 0 49 49 54 64l47 150c-32 -11 -66 -21 -100 -21c-47 0 -87 34 -87 79c0 40 34 72 75 72c25 0 49 -13 57 -36c10 -26 4 -58 32 -58
c13 0 43 38 49 50c8 15 30 15 37 0l-173 -661c-10 -8 -23 -13 -35 -13s-25 5 -35 13z" fill="currentColor"/>
</g>
<g transform="translate(27.2863, 54.7504)">
<rect x="-0.0614" y="-3.8684" width="0.1228" height="2.2755" ry="0.0421" fill="currentColor"/>
</g>
<g transform="translate(27.3477, 50.9241)">
<path transform="scale(0.0029, -0.0029)" d="M0 -212v-213v213c0 -114 85 -201 146 -295c4 13 6 26 6 40c0 94 -87 188 -152 255zM0 0c0 -177 201 -290 201 -467c0 -33 -9 -66 -23 -96c18 -36 29 -74 29 -116c0 -63 -15 -125 -41 -182c-5 -10 -14 -13 -23 -13c-14 0 -28 10 -28 26c0 2 1 3 1 5c26 51 42 107 42 164
c0 95 -90 188 -158 254v-75h-21v500h21z" fill="currentColor"/>
</g>
<g transform="translate(27.7646, 54.7504)">
<rect x="-0.0614" y="-3.1316" width="0.1228" height="2.2755" ry="0.0421" fill="currentColor"/>
</g>
<g transform="translate(27.8260, 51.6610)">
<path transform="scale(0.0029, -0.0029)" d="M0 -212v-213v213c0 -114 85 -201 146 -295c4 13 6 26 6 40c0 94 -87 188 -152 255zM0 0c0 -177 201 -290 201 -467c0 -33 -9 -66 -23 -96c18 -36 29 -74 29 -116c0 -63 -15 -125 -41 -182c-5 -10 -14 -13 -23 -13c-14 0 -28 10 -28 26c0 2 1 3 1 5c26 51 42 107 42 164
c0 95 -90 188 -158 254v-75h-21v500h21z" fill="currentColor"/>
</g>
<g transform="translate(33.0333, 54.7504)">
<rect x="-0.0614" y="1.9613" width="0.1228" height="1.8525" ry="0.0421" fill="currentColor"/>
</g>
<g transform="translate(35.1284, 56.5926)">
<path transform="scale(0.0029, -0.0029)" d="M208 139c61 0 117 -33 117 -99c0 -71 -52 -119 -99 -147c-34 -20 -71 -32 -110 -32c-61 0 -116 33 -116 99c0 71 51 119 98 147c34 20 71 32 110 32z" fill="currentColor"/>
</g>
<g transform="translate(35.1284, 56.5926)">
<path transform="scale(0.0029, -0.0029)" d="M208 139c61 0 117 -33 117 -99c0 -71 -52 -119 -99 -147c-34 -20 -71 -32 -110 -32c-61 0 -116 33 -116 99c0 71 51 119 98 147c34 20 71 32 110 32z" fill="currentColor"/>
</g>
<g transform="translate(36.0235, 54.7504)">
<rect x="-0.0614" y="-2.0809" width="0.1228" height="3.8038" ry="0.0421" fill="currentColor"/>
</g>
<g transform="translate(35.1898, 54.7504)">
<rect x="-0.0614" y="1.9613" width="0.1228" height="1.5866" ry="0.0421" fill="currentColor"/>
</g>
<g transform="translate(37.5349, 55.1189)">
<path transform="scale(0.0029, -0.0029)" d="M208 139c61 0 117 -33 117 -99c0 -71 -52 -119 -99 -147c-34 -20 -71 -32 -110 -32c-61 0 -116 33 -116 99c0 71 51 119 98 147c34 20 71 32 110 32z" fill="currentColor"/>
</g>
<g transform="translate(37.5349, 55.1189)">
<path transform="scale(0.0029, -0.0029)" d="M208 139c61 0 117 -33 117 -99c0 -71 -52 -119 -99 -147c-34 -20 -71 -32 -110 -32c-61 0 -116 33 -116 99c0 71 51 119 98 147c34 20 71 32 110 32z" fill="currentColor"/>
</g>
<g transform="translate(38.4300, 54.7504)">
<rect x="-0.0614" y="-2.0809" width="0.1228" height="2.3301" ry="0.0421" fill="currentColor"/>
</g>
<g transform="translate(30.8768, 54.7504)">
<rect x="-0.0614" y="1.9613" width="0.1228" height="1.8525" ry="0.0421" fill="currentColor"/>
</g>
<g transform="translate(30.8154, 52.5399)">
<path transform="scale(0.0029, -0.0029)" d="M63 -250l119 325c-32 -11 -65 -21 -99 -21c-47 0 -87 34 -87 79c0 40 34 72 75 72c25 0 48 -13 56 -36c10 -26 4 -58 32 -58c13 0 48 38 54 50c8 15 30 15 37 0l-117 -411c-10 -8 -23 -13 -35 -13s-25 5 -35 13z" fill="currentColor"/>
</g>
<g transform="translate(30.8154, 56.5926)">
<path transform="scale(0.0029, -0.0029)" d="M208 139c61 0 117 -33 117 -99c0 -71 -52 -119 -99 -147c-34 -20 -71 -32 -110 -32c-61 0 -116 33 -116 99c0 71 51 119 98 147c34 20 71 32 110 32z" fill="currentColor"/>
</g>
<g transform="translate(30.8154, 56.5926)">
<path transform="scale(0.0029, -0.0029)" d="M208 139c61 0 117 -33 117 -99c0 -71 -52 -119 -99 -147c-34 -20 -71 -32 -110 -32c-61 0 -116 33 -116 99c0 71 51 119 98 147c34 20 71 32 110 32z" fill="currentColor"/>
</g>
<g transform="translate(31.7105, 54.7504)">
<rect x="-0.0614" y="-0.6072" width="0.1228" height="2.3301" ry="0.0421" fill="currentColor"/>
</g>
<g transform="translate(32.9719, 56.5926)">
<path transform="scale(0.0029, -0.0029)" d="M208 139c61 0 117 -33 117 -99c0 -71 -52 -119 -99 -147c-34 -20 -71 -32 -110 -32c-61 0 -116 33 -116 99c0 71 51 119 98 147c34 20 71 32 110 32z" fill="currentColor"/>
</g>
<g transform="translate(32.9719, 56.5926)">
<path transform="scale(0.0029, -0.0029)" d="M208 139c61 0 117 -33 117 -99c0 -71 -52 -119 -99 -147c-34 -20 -71 -32 -110 -32c-61 0 -116 33 -116 99c0 71 51 119 98 147c34 20 71 32 110 32z" fill="currentColor"/>
</g>
<g transform="translate(33.8670, 54.7504)">
<rect x="-0.0614" y="-0.6072" width="0.1228" height="2.3301" ry="0.0421" fill="currentColor"/>
</g>
<g transform="translate(67.4731, 54.7504)">
<rect x="-0.0614" y="-0.6176" width="0.1228" height="2.0913" ry="0.0421" fill="currentColor"/>
</g>
<g transform="translate(67.4117, 51.4347)">
<path transform="scale(0.0029, -0.0029)" d="M208 139c61 0 117 -33 117 -99c0 -71 -52 -119 -99 -147c-34 -20 -71 -32 -110 -32c-61 0 -116 33 -116 99c0 71 51 119 98 147c34 20 71 32 110 32z" fill="currentColor"/>
</g>
<g transform="translate(67.4117, 54.0136)">
<path transform="scale(0.0029, -0.0029)" d="M208 139c61 0 117 -33 117 -99c0 -71 -52 -119 -99 -147c-34 -20 -71 -32 -110 -32c-61 0 -116 33 -116 99c0 71 51 119 98 147c34 20 71 32 110 32z" fill="currentColor"/>
</g>
<g transform="translate(68.3068, 54.7504)">
<rect x="-0.0614" y="-5.2875" width="0.1228" height="1.8525" ry="0.0421" fill="currentColor"/>
</g>
<g transform="translate(69.5682, 51.4347)">
<path transform="scale(0.0029, -0.0029)" d="M208 139c61 0 117 -33 117 -99c0 -71 -52 -119 -99 -147c-34 -20 -71 -32 -110 -32c-61 0 -116 33 -116 99c0 71 51 119 98 147c34 20 71 32 110 32z" fill="currentColor"/>
</g>
<g transform="translate(69.5682, 54.0136)">
<path transform="scale(0.0029, -0.0029)" d="M208 139c61 0 117 -33 117 -99c0 -71 -52 -119 -99 -147c-34 -20 -71 -32 -110 -32c-61 0 -116 33 -116 99c0 71 51 119 98 147c34 20 71 32 110 32z" fill="currentColor"/>
</g>
<g transform="translate(70.4633, 54.7504)">
<rect x="-0.0614" y="-5.2875" width="0.1228" height="1.8525" ry="0.0421" fill="currentColor"/>
</g>
<g transform="translate(66.1504, 54.7504)">
<rect x="-0.0614" y="-5.2875" width="0.1228" height="1.8525" ry="0.0421" fill="currentColor"/>
</g>
<g transform="translate(63.1963, 54.7504)">
<rect x="-0.0614" y="1.9613" width="0.1228" height="2.2755" ry="0.0421" fill="currentColor"/>
</g>
<g transform="translate(63.2577, 58.9452)">
<path transform="scale(0.0029, -0.0029)" d="M266 659c0 -44 -15 -80 -38 -114c16 -35 25 -73 25 -111c0 -180 -252 -254 -253 -433v-1h-21v500h21v-70c94 49 217 126 217 229c0 20 -5 41 -14 59v5c0 16 13 26 27 26c32 0 36 -61 36 -90zM0 205c88 51 204 130 204 229c0 22 -4 44 -12 65c-79 -85 -192 -155 -192 -274
v-20z" fill="currentColor"/>
</g>
<g transform="translate(79.3451, 54.7504)">
<rect x="-0.0614" y="-5.0306" width="0.1228" height="1.9640" ry="0.0421" fill="currentColor"/>
</g>
<g transform="translate(65.2553, 51.4347)">
<path transform="scale(0.0029, -0.0029)" d="M208 139c61 0 117 -33 117 -99c0 -71 -52 -119 -99 -147c-34 -20 -71 -32 -110 -32c-61 0 -116 33 -116 99c0 71 51 119 98 147c34 20 71 32 110 32z" fill="currentColor"/>
</g>
<g transform="translate(65.2553, 54.0136)">
<path transform="scale(0.0029, -0.0029)" d="M208 139c61 0 117 -33 117 -99c0 -71 -52 -119 -99 -147c-34 -20 -71 -32 -110 -32c-61 0 -116 33 -116 99c0 71 51 119 98 147c34 20 71 32 110 32z" fill="currentColor"/>
</g>
<g transform="translate(78.4500, 53.2768)">
<path transform="scale(0.0029, -0.0029)" d="M208 139c61 0 117 -33 117 -99c0 -71 -52 -119 -99 -147c-34 -20 -71 -32 -110 -32c-61 0 -116 33 -116 99c0 71 51 119 98 147c34 20 71 32 110 32z" fill="currentColor"/>
</g>
<g transform="translate(78.4500, 51.8031)">
<path transform="scale(0.0029, -0.0029)" d="M208 139c61 0 117 -33 117 -99c0 -71 -52 -119 -99 -147c-34 -20 -71 -32 -110 -32c-61 0 -116 33 -116 99c0 71 51 119 98 147c34 20 71 32 110 32z" fill="currentColor"/>
</g>
<g transform="translate(65.3166, 54.7504)">
<rect x="-0.0614" y="-0.6176" width="0.1228" height="2.0913" ry="0.0421" fill="currentColor"/>
</g>
<g transform="translate(74.1371, 51.8031)">
<path transform="scale(0.0029, -0.0029)" d="M208 139c61 0 117 -33 117 -99c0 -71 -52 -119 -99 -147c-34 -20 -71 -32 -110 -32c-61 0 -116 33 -116 99c0 71 51 119 98 147c34 20 71 32 110 32z" fill="currentColor"/>
</g>
<g transform="translate(74.1371, 53.6452)">
<path transform="scale(0.0029, -0.0029)" d="M208 139c61 0 117 -33 117 -99c0 -71 -52 -119 -99 -147c-34 -20 -71 -32 -110 -32c-61 0 -116 33 -116 99c0 71 51 119 98 147c34 20 71 32 110 32z" fill="currentColor"/>
</g>
<g transform="translate(75.0322, 54.7504)">
<rect x="-0.0614" y="-5.1939" width="0.1228" height="2.1273" ry="0.0421" fill="currentColor"/>
</g>
<g transform="translate(77.1886, 54.7504)">
<rect x="-0.0614" y="-5.1122" width="0.1228" height="2.0456" ry="0.0421" fill="currentColor"/>
</g>
<g transform="translate(74.1984, 54.7504)">
<rect x="-0.0614" y="-0.9860" width="0.1228" height="2.4129" ry="0.0421" fill="currentColor"/>
</g>
<g transform="translate(73.2812, 51.8031)">
<path transform="scale(0.0029, -0.0029)" d="M-8 375c8 5 18 7 27 7s20 -2 28 -7l-3 -196l99 24h4c11 0 20 -8 20 -19l8 -559c-8 -5 -19 -7 -28 -7s-19 2 -27 7l3 196l-99 -24h-5c-11 0 -19 8 -19 19zM127 109l-85 -20l-2 -198l84 20z" fill="currentColor"/>
</g>
<g transform="translate(76.2935, 53.2768)">
<path transform="scale(0.0029, -0.0029)" d="M208 139c61 0 117 -33 117 -99c0 -71 -52 -119 -99 -147c-34 -20 -71 -32 -110 -32c-61 0 -116 33 -116 99c0 71 51 119 98 147c34 20 71 32 110 32z" fill="currentColor"/>
</g>
<g transform="translate(76.2935, 51.8031)">
<path transform="scale(0.0029, -0.0029)" d="M208 139c61 0 117 -33 117 -99c0 -71 -52 -119 -99 -147c-34 -20 -71 -32 -110 -32c-61 0 -116 33 -116 99c0 71 51 119 98 147c34 20 71 32 110 32z" fill="currentColor"/>
</g>
<g transform="translate(71.7247, 53.6452)">
<path transform="scale(0.0029, -0.0029)" d="M208 139c61 0 117 -33 117 -99c0 -71 -52 -119 -99 -147c-34 -20 -71 -32 -110 -32c-61 0 -116 33 -116 99c0 71 51 119 98 147c34 20 71 32 110 32z" fill="currentColor"/>
</g>
<g transform="translate(69.6296, 54.7504)">
<rect x="-0.0614" y="-0.6176" width="0.1228" height="2.0913" ry="0.0421" fill="currentColor"/>
</g>
<g transform="translate(76.3549, 54.7504)">
<rect x="-0.0614" y="-1.3545" width="0.1228" height="2.7405" ry="0.0421" fill="currentColor"/>
</g>
<g transform="translate(71.7247, 51.4347)">
<path transform="scale(0.0029, -0.0029)" d="M208 139c61 0 117 -33 117 -99c0 -71 -52 -119 -99 -147c-34 -20 -71 -32 -110 -32c-61 0 -116 33 -116 99c0 71 51 119 98 147c34 20 71 32 110 32z" fill="currentColor"/>
</g>
<g transform="translate(72.6198, 54.7504)">
<rect x="-0.0614" y="-5.2852" width="0.1228" height="1.8502" ry="0.0421" fill="currentColor"/>
</g>
<g transform="translate(71.7861, 54.7504)">
<rect x="-0.0614" y="-0.9860" width="0.1228" height="2.4586" ry="0.0421" fill="currentColor"/>
</g>
<g transform="translate(82.0392, 52.9083)">
<path transform="scale(0.0029, -0.0029)" d="M208 139c61 0 117 -33 117 -99c0 -71 -52 -119 -99 -147c-34 -20 -71 -32 -110 -32c-61 0 -116 33 -116 99c0 71 51 119 98 147c34 20 71 32 110 32z" fill="currentColor"/>
</g>
<g transform="translate(82.4560, 54.7504)">
<rect x="-0.0614" y="-4.9737" width="0.1228" height="2.2755" ry="0.0421" fill="currentColor"/>
</g>
<g transform="translate(56.7509, 54.7504)">
<rect x="-0.0614" y="1.9613" width="0.1228" height="1.8525" ry="0.0421" fill="currentColor"/>
</g>
<g transform="translate(81.5609, 52.1715)">
<path transform="scale(0.0029, -0.0029)" d="M208 139c61 0 117 -33 117 -99c0 -71 -52 -119 -99 -147c-34 -20 -71 -32 -110 -32c-61 0 -116 33 -116 99c0 71 51 119 98 147c34 20 71 32 110 32z" fill="currentColor"/>
</g>
<g transform="translate(58.8219, 52.5399)">
<path transform="scale(0.0029, -0.0029)" d="M63 -250l119 325c-32 -11 -65 -21 -99 -21c-47 0 -87 34 -87 79c0 40 34 72 75 72c25 0 48 -13 56 -36c10 -26 4 -58 32 -58c13 0 48 38 54 50c8 15 30 15 37 0l-117 -411c-10 -8 -23 -13 -35 -13s-25 5 -35 13z" fill="currentColor"/>
</g>
<g transform="translate(58.8219, 56.5926)">
<path transform="scale(0.0029, -0.0029)" d="M208 139c61 0 117 -33 117 -99c0 -71 -52 -119 -99 -147c-34 -20 -71 -32 -110 -32c-61 0 -116 33 -116 99c0 71 51 119 98 147c34 20 71 32 110 32z" fill="currentColor"/>
</g>
<g transform="translate(58.8219, 56.5926)">
<path transform="scale(0.0029, -0.0029)" d="M208 139c61 0 117 -33 117 -99c0 -71 -52 -119 -99 -147c-34 -20 -71 -32 -110 -32c-61 0 -116 33 -116 99c0 71 51 119 98 147c34 20 71 32 110 32z" fill="currentColor"/>
</g>
<g transform="translate(56.6895, 56.5926)">
<path transform="scale(0.0029, -0.0029)" d="M208 139c61 0 117 -33 117 -99c0 -71 -52 -119 -99 -147c-34 -20 -71 -32 -110 -32c-61 0 -116 33 -116 99c0 71 51 119 98 147c34 20 71 32 110 32z" fill="currentColor"/>
</g>
<g transform="translate(56.6895, 51.8031)">
<path transform="scale(0.0029, -0.0029)" d="M57 -500l102 325c-32 -11 -66 -21 -100 -21c-47 0 -87 34 -87 79c0 40 34 72 75 72c25 0 49 -13 57 -36c10 -26 4 -58 32 -58c15 0 49 49 54 64l47 150c-32 -11 -66 -21 -100 -21c-47 0 -87 34 -87 79c0 40 34 72 75 72c25 0 49 -13 57 -36c10 -26 4 -58 32 -58
c13 0 43 38 49 50c8 15 30 15 37 0l-173 -661c-10 -8 -23 -13 -35 -13s-25 5 -35 13z" fill="currentColor"/>
</g>
<g transform="translate(59.7170, 54.7504)">
<rect x="-0.0614" y="-0.6072" width="0.1228" height="2.3301" ry="0.0421" fill="currentColor"/>
</g>
<g transform="translate(56.6895, 56.5926)">
<path transform="scale(0.0029, -0.0029)" d="M208 139c61 0 117 -33 117 -99c0 -71 -52 -119 -99 -147c-34 -20 -71 -32 -110 -32c-61 0 -116 33 -116 99c0 71 51 119 98 147c34 20 71 32 110 32z" fill="currentColor"/>
</g>
<g transform="translate(82.5174, 49.8189)">
<path transform="scale(0.0029, -0.0029)" d="M0 -212v-213v213c0 -114 85 -201 146 -295c4 13 6 26 6 40c0 94 -87 188 -152 255zM0 0c0 -177 201 -290 201 -467c0 -33 -9 -66 -23 -96c18 -36 29 -74 29 -116c0 -63 -15 -125 -41 -182c-5 -10 -14 -13 -23 -13c-14 0 -28 10 -28 26c0 2 1 3 1 5c26 51 42 107 42 164
c0 95 -90 188 -158 254v-75h-21v500h21z" fill="currentColor"/>
</g>
<g transform="translate(57.5846, 54.7504)">
<rect x="-0.0614" y="-0.6072" width="0.1228" height="2.3301" ry="0.0421" fill="currentColor"/>
</g>
<g transform="translate(63.1349, 56.5926)">
<path transform="scale(0.0029, -0.0029)" d="M208 139c61 0 117 -33 117 -99c0 -71 -52 -119 -99 -147c-34 -20 -71 -32 -110 -32c-61 0 -116 33 -116 99c0 71 51 119 98 147c34 20 71 32 110 32z" fill="currentColor"/>
</g>
<g transform="translate(61.0398, 54.7504)">
<rect x="-0.0614" y="1.9613" width="0.1228" height="1.8525" ry="0.0421" fill="currentColor"/>
</g>
<g transform="translate(78.5114, 54.7504)">
<rect x="-0.0614" y="-1.3545" width="0.1228" height="2.6997" ry="0.0421" fill="currentColor"/>
</g>
<g transform="translate(63.1349, 51.8031)">
<path transform="scale(0.0029, -0.0029)" d="M57 -500l102 325c-32 -11 -66 -21 -100 -21c-47 0 -87 34 -87 79c0 40 34 72 75 72c25 0 49 -13 57 -36c10 -26 4 -58 32 -58c15 0 49 49 54 64l47 150c-32 -11 -66 -21 -100 -21c-47 0 -87 34 -87 79c0 40 34 72 75 72c25 0 49 -13 57 -36c10 -26 4 -58 32 -58
c13 0 43 38 49 50c8 15 30 15 37 0l-173 -661c-10 -8 -23 -13 -35 -13s-25 5 -35 13z" fill="currentColor"/>
</g>
<g transform="translate(63.1349, 56.5926)">
<path transform="scale(0.0029, -0.0029)" d="M208 139c61 0 117 -33 117 -99c0 -71 -52 -119 -99 -147c-34 -20 -71 -32 -110 -32c-61 0 -116 33 -116 99c0 71 51 119 98 147c34 20 71 32 110 32z" fill="currentColor"/>
</g>
<g transform="translate(64.0300, 54.7504)">
<rect x="-0.0614" y="-0.7368" width="0.1228" height="2.4597" ry="0.0421" fill="currentColor"/>
</g>
<g transform="translate(64.0914, 54.0557)">
<path transform="scale(0.0029, -0.0029)" d="M0 -212v-213v213c0 -114 85 -201 146 -295c4 13 6 26 6 40c0 94 -87 188 -152 255zM0 0c0 -177 201 -290 201 -467c0 -33 -9 -66 -23 -96c18 -36 29 -74 29 -116c0 -63 -15 -125 -41 -182c-5 -10 -14 -13 -23 -13c-14 0 -28 10 -28 26c0 2 1 3 1 5c26 51 42 107 42 164
c0 95 -90 188 -158 254v-75h-21v500h21z" fill="currentColor"/>
</g>
<g transform="translate(58.8833, 54.7504)">
<rect x="-0.0614" y="1.9613" width="0.1228" height="1.8525" ry="0.0421" fill="currentColor"/>
</g>
<g transform="translate(60.9784, 56.5926)">
<path transform="scale(0.0029, -0.0029)" d="M208 139c61 0 117 -33 117 -99c0 -71 -52 -119 -99 -147c-34 -20 -71 -32 -110 -32c-61 0 -116 33 -116 99c0 71 51 119 98 147c34 20 71 32 110 32z" fill="currentColor"/>
</g>
<g transform="translate(60.9784, 56.5926)">
<path transform="scale(0.0029, -0.0029)" d="M208 139c61 0 117 -33 117 -99c0 -71 -52 -119 -99 -147c-34 -20 -71 -32 -110 -32c-61 0 -116 33 -116 99c0 71 51 119 98 147c34 20 71 32 110 32z" fill="currentColor"/>
</g>
<g transform="translate(61.8735, 54.7504)">
<rect x="-0.0614" y="-0.6072" width="0.1228" height="2.3301" ry="0.0421" fill="currentColor"/>
</g>
</svg>
