<svg xmlns="http://www.w3.org/2000/svg" xmlns:xlink="http://www.w3.org/1999/xlink" version="1.2" width="594.00mm" height="420.00mm" viewBox="0.0000 -0.0000 355.8092 251.5823">
<style type="text/css">
<![CDATA[
tspan { white-space: pre; }
]]>
</style>
<g transform="translate(17.9702, 56.2241)">
<line stroke-linejoin="round" stroke-linecap="round" stroke-width="0.0944" stroke="currentColor" x1="0.0472" y1="0" x2="144.7198" y2="0"/>
</g>
<g transform="translate(17.9702, 55.4873)">
<line stroke-linejoin="round" stroke-linecap="round" stroke-width="0.0944" stroke="currentColor" x1="0.0472" y1="0" x2="144.7198" y2="0"/>
</g>
<g transform="translate(17.9702, 54.7504)">
<line stroke-linejoin="round" stroke-linecap="round" stroke-width="0.0944" stroke="currentColor" x1="0.0472" y1="0" x2="144.7198" y2="0"/>
</g>
<g transform="translate(17.9702, 54.0136)">
<line stroke-linejoin="round" stroke-linecap="round" stroke-width="0.0944" stroke="currentColor" x1="0.0472" y1="0" x2="144.7198" y2="0"/>
</g>
<g transform="translate(17.9702, 53.2768)">
<line stroke-linejoin="round" stroke-linecap="round" stroke-width="0.0944" stroke="currentColor" x1="0.0472" y1="0" x2="144.7198" y2="0"/>
</g>
<g transform="translate(17.9702, 52.5399)">
<rect x="120.4899" y="-0.0841" width="1.4347" height="0.1681" ry="0.0841" fill="currentColor"/>
</g>
<g transform="translate(17.9702, 52.5399)">
<rect x="114.9705" y="-0.0841" width="1.4347" height="0.1681" ry="0.0841" fill="currentColor"/>
</g>
<g transform="translate(17.9702, 56.9610)">
<rect x="80.4682" y="-0.0841" width="1.4347" height="0.1681" ry="0.0841" fill="currentColor"/>
</g>
<g transform="translate(17.9702, 52.5399)">
<rect x="78.9618" y="-0.0841" width="1.4347" height="0.1681" ry="0.0841" fill="currentColor"/>
</g>
<g transform="translate(17.9702, 52.5399)">
<rect x="72.1129" y="-0.0841" width="1.4347" height="0.1681" ry="0.0841" fill="currentColor"/>
</g>
<g transform="translate(17.9702, 56.9610)">
<rect x="46.0220" y="-0.0841" width="1.4347" height="0.1681" ry="0.0841" fill="currentColor"/>
</g>
<g transform="translate(17.9702, 52.5399)">
<rect x="44.5156" y="-0.0841" width="1.4347" height="0.1681" ry="0.0841" fill="currentColor"/>
</g>
<g transform="translate(17.9702, 52.5399)">
<rect x="37.6667" y="-0.0841" width="1.4347" height="0.1681" ry="0.0841" fill="currentColor"/>
</g>
<g transform="translate(162.5577, 54.7504)">
<rect x="0.0000" y="-1.4737" width="0.1794" height="2.9474" ry="0.0000" fill="currentColor"/>
</g>
<g transform="translate(92.0786, 54.7504)">
<rect x="0.0000" y="-1.4737" width="0.1794" height="2.9474" ry="0.0000" fill="currentColor"/>
</g>
<g transform="translate(57.6324, 54.7504)">
<rect x="0.0000" y="-1.4737" width="0.1794" height="2.9474" ry="0.0000" fill="currentColor"/>
</g>
<g transform="translate(127.3768, 54.7504)">
<rect x="0.0000" y="-1.4737" width="0.1794" height="2.9474" ry="0.0000" fill="currentColor"/>
</g>
<g transform="translate(131.1733, 54.3820)">
<path transform="scale(0.0029, -0.0029)" d="M208 139c61 0 117 -33 117 -99c0 -71 -52 -119 -99 -147c-34 -20 -71 -32 -110 -32c-61 0 -116 33 -116 99c0 71 51 119 98 147c34 20 71 32 110 32z" fill="currentColor"/>
</g>
<g transform="translate(132.0684, 54.7504)">
<rect x="-0.0614" y="-3.8112" width="0.1228" height="3.3236" ry="0.0421" fill="currentColor"/>
</g>
<g transform="translate(130.0127, 54.3820)">
<path transform="scale(0.0029, -0.0029)" d="M0 114c0 12 7 22 18 26l37 15v151c0 12 10 22 22 22s22 -10 22 -22v-134l77 29v152c0 12 10 22 22 22s22 -10 22 -22v-134l16 6c3 1 8 2 11 2c15 0 28 -12 28 -28v-50c0 -12 -7 -23 -18 -27l-37 -14v-152l16 7c3 1 8 2 11 2c15 0 28 -13 28 -29v-50c0 -12 -7 -22 -18 -26
l-37 -15v-151c0 -12 -10 -22 -22 -22s-22 10 -22 22v134l-77 -29v-152c0 -12 -10 -22 -22 -22s-22 10 -22 22v134l-16 -6c-3 -1 -8 -2 -11 -2c-15 0 -28 12 -28 28v50c0 12 7 23 18 27l37 14v152l-16 -7c-3 -1 -8 -2 -11 -2c-15 0 -28 13 -28 29v50zM176 91l-77 -30v-152
l77 30v152z" fill="currentColor"/>
</g>
<g transform="translate(133.1798, 52.1715)">
<path transform="scale(0.0029, -0.0029)" d="M208 139c61 0 117 -33 117 -99c0 -71 -52 -119 -99 -147c-34 -20 -71 -32 -110 -32c-61 0 -116 33 -116 99c0 71 51 119 98 147c34 20 71 32 110 32z" fill="currentColor"/>
</g>
<g transform="translate(134.0749, 54.7504)">
<rect x="-0.0614" y="-4.5287" width="0.1228" height="1.8306" ry="0.0421" fill="currentColor"/>
</g>
<g transform="translate(128.4563, 56.2241)">
<path transform="scale(0.0029, -0.0029)" d="M208 139c61 0 117 -33 117 -99c0 -71 -52 -119 -99 -147c-34 -20 -71 -32 -110 -32c-61 0 -116 33 -116 99c0 71 51 119 98 147c34 20 71 32 110 32z" fill="currentColor"/>
</g>
<g transform="translate(145.9752, 55.4873)">
<path transform="scale(0.0029, -0.0029)" d="M208 139c61 0 117 -33 117 -99c0 -71 -52 -119 -99 -147c-34 -20 -71 -32 -110 -32c-61 0 -116 33 -116 99c0 71 51 119 98 147c34 20 71 32 110 32z" fill="currentColor"/>
</g>
<g transform="translate(125.6203, 52.9083)">
<path transform="scale(0.0029, -0.0029)" d="M208 139c61 0 117 -33 117 -99c0 -71 -52 -119 -99 -147c-34 -20 -71 -32 -110 -32c-61 0 -116 33 -116 99c0 71 51 119 98 147c34 20 71 32 110 32z" fill="currentColor"/>
</g>
<g transform="translate(126.5154, 54.7504)">
<rect x="-0.0614" y="-3.6623" width="0.1228" height="1.7010" ry="0.0421" fill="currentColor"/>
</g>
<g transform="translate(129.3514, 54.7504)">
<rect x="-0.0614" y="-2.8397" width="0.1228" height="4.1941" ry="0.0421" fill="currentColor"/>
</g>
<g transform="translate(140.2057, 55.4873)">
<path transform="scale(0.0029, -0.0029)" d="M208 139c61 0 117 -33 117 -99c0 -71 -52 -119 -99 -147c-34 -20 -71 -32 -110 -32c-61 0 -116 33 -116 99c0 71 51 119 98 147c34 20 71 32 110 32z" fill="currentColor"/>
</g>
<g transform="translate(141.1008, 54.7504)">
<rect x="-0.0614" y="-2.5973" width="0.1228" height="3.2149" ry="0.0421" fill="currentColor"/>
</g>
<g transform="translate(142.2122, 53.6452)">
<path transform="scale(0.0029, -0.0029)" d="M208 139c61 0 117 -33 117 -99c0 -71 -52 -119 -99 -147c-34 -20 -71 -32 -110 -32c-61 0 -116 33 -116 99c0 71 51 119 98 147c34 20 71 32 110 32z" fill="currentColor"/>
</g>
<g transform="translate(143.1073, 54.7504)">
<rect x="-0.0614" y="-3.1964" width="0.1228" height="1.9719" ry="0.0421" fill="currentColor"/>
</g>
<g transform="translate(144.2187, 52.9083)">
<path transform="scale(0.0029, -0.0029)" d="M208 139c61 0 117 -33 117 -99c0 -71 -52 -119 -99 -147c-34 -20 -71 -32 -110 -32c-61 0 -116 33 -116 99c0 71 51 119 98 147c34 20 71 32 110 32z" fill="currentColor"/>
</g>
<g transform="translate(145.1138, 54.7504)">
<rect x="-0.0614" y="-3.7955" width="0.1228" height="1.8342" ry="0.0421" fill="currentColor"/>
</g>
<g transform="translate(100.6840, 56.5926)">
<path transform="scale(0.0029, -0.0029)" d="M208 139c61 0 117 -33 117 -99c0 -71 -52 -119 -99 -147c-34 -20 -71 -32 -110 -32c-61 0 -116 33 -116 99c0 71 51 119 98 147c34 20 71 32 110 32z" fill="currentColor"/>
</g>
<g transform="translate(134.6862, 55.8557)">
<path transform="scale(0.0029, -0.0029)" d="M208 139c61 0 117 -33 117 -99c0 -71 -52 -119 -99 -147c-34 -20 -71 -32 -110 -32c-61 0 -116 33 -116 99c0 71 51 119 98 147c34 20 71 32 110 32z" fill="currentColor"/>
</g>
<g transform="translate(135.5813, 54.7504)">
<rect x="-0.0614" y="-2.6008" width="0.1228" height="3.5869" ry="0.0421" fill="currentColor"/>
</g>
<g transform="translate(136.6927, 54.0136)">
<path transform="scale(0.0029, -0.0029)" d="M208 139c61 0 117 -33 117 -99c0 -71 -52 -119 -99 -147c-34 -20 -71 -32 -110 -32c-61 0 -116 33 -116 99c0 71 51 119 98 147c34 20 71 32 110 32z" fill="currentColor"/>
</g>
<g transform="translate(137.5878, 54.7504)">
<rect x="-0.0614" y="-3.3158" width="0.1228" height="2.4597" ry="0.0421" fill="currentColor"/>
</g>
<g transform="translate(138.6992, 52.5399)">
<path transform="scale(0.0029, -0.0029)" d="M208 139c61 0 117 -33 117 -99c0 -71 -52 -119 -99 -147c-34 -20 -71 -32 -110 -32c-61 0 -116 33 -116 99c0 71 51 119 98 147c34 20 71 32 110 32z" fill="currentColor"/>
</g>
<g transform="translate(139.5943, 54.7504)">
<rect x="-0.0614" y="-4.0308" width="0.1228" height="1.7010" ry="0.0421" fill="currentColor"/>
</g>
<g transform="translate(108.2100, 54.7504)">
<path transform="scale(0.0029, -0.0029)" d="M208 139c61 0 117 -33 117 -99c0 -71 -52 -119 -99 -147c-34 -20 -71 -32 -110 -32c-61 0 -116 33 -116 99c0 71 51 119 98 147c34 20 71 32 110 32z" fill="currentColor"/>
</g>
<g transform="translate(109.1051, 54.7504)">
<rect x="-0.0614" y="-2.1977" width="0.1228" height="2.0784" ry="0.0421" fill="currentColor"/>
</g>
<g transform="translate(107.0986, 54.7504)">
<rect x="-0.0614" y="-1.7773" width="0.1228" height="2.7633" ry="0.0421" fill="currentColor"/>
</g>
<g transform="translate(109.7165, 55.8557)">
<path transform="scale(0.0029, -0.0029)" d="M208 139c61 0 117 -33 117 -99c0 -71 -52 -119 -99 -147c-34 -20 -71 -32 -110 -32c-61 0 -116 33 -116 99c0 71 51 119 98 147c34 20 71 32 110 32z" fill="currentColor"/>
</g>
<g transform="translate(110.6116, 54.7504)">
<rect x="-0.0614" y="-2.0957" width="0.1228" height="3.0817" ry="0.0421" fill="currentColor"/>
</g>
<g transform="translate(111.7229, 54.7504)">
<path transform="scale(0.0029, -0.0029)" d="M208 139c61 0 117 -33 117 -99c0 -71 -52 -119 -99 -147c-34 -20 -71 -32 -110 -32c-61 0 -116 33 -116 99c0 71 51 119 98 147c34 20 71 32 110 32z" fill="currentColor"/>
</g>
<g transform="translate(112.6181, 54.7504)">
<rect x="-0.0614" y="-2.5789" width="0.1228" height="2.4597" ry="0.0421" fill="currentColor"/>
</g>
<g transform="translate(159.2524, 51.4154)">
<text font-family="serif" font-style="italic" font-size="1.2869" text-anchor="start" fill="currentColor">
<tspan>3</tspan>
</text>
</g>
<g transform="translate(101.5791, 54.7504)">
<rect x="-0.0614" y="-0.9756" width="0.1228" height="2.6985" ry="0.0421" fill="currentColor"/>
</g>
<g transform="translate(102.6905, 55.8557)">
<path transform="scale(0.0029, -0.0029)" d="M208 139c61 0 117 -33 117 -99c0 -71 -52 -119 -99 -147c-34 -20 -71 -32 -110 -32c-61 0 -116 33 -116 99c0 71 51 119 98 147c34 20 71 32 110 32z" fill="currentColor"/>
</g>
<g transform="translate(103.5856, 54.7504)">
<rect x="-0.0614" y="-1.3331" width="0.1228" height="2.3192" ry="0.0421" fill="currentColor"/>
</g>
<g transform="translate(104.1970, 56.5926)">
<path transform="scale(0.0029, -0.0029)" d="M208 139c61 0 117 -33 117 -99c0 -71 -52 -119 -99 -147c-34 -20 -71 -32 -110 -32c-61 0 -116 33 -116 99c0 71 51 119 98 147c34 20 71 32 110 32z" fill="currentColor"/>
</g>
<g transform="translate(105.0921, 54.7504)">
<rect x="-0.0614" y="-1.3569" width="0.1228" height="3.0798" ry="0.0421" fill="currentColor"/>
</g>
<g transform="translate(106.2035, 55.8557)">
<path transform="scale(0.0029, -0.0029)" d="M208 139c61 0 117 -33 117 -99c0 -71 -52 -119 -99 -147c-34 -20 -71 -32 -110 -32c-61 0 -116 33 -116 99c0 71 51 119 98 147c34 20 71 32 110 32z" fill="currentColor"/>
</g>
<g transform="translate(121.6074, 56.2241)">
<path transform="scale(0.0029, -0.0029)" d="M208 139c61 0 117 -33 117 -99c0 -71 -52 -119 -99 -147c-34 -20 -71 -32 -110 -32c-61 0 -116 33 -116 99c0 71 51 119 98 147c34 20 71 32 110 32z" fill="currentColor"/>
</g>
<g transform="translate(119.8509, 53.6452)">
<path transform="scale(0.0029, -0.0029)" d="M208 139c61 0 117 -33 117 -99c0 -71 -52 -119 -99 -147c-34 -20 -71 -32 -110 -32c-61 0 -116 33 -116 99c0 71 51 119 98 147c34 20 71 32 110 32z" fill="currentColor"/>
</g>
<g transform="translate(120.7460, 54.7504)">
<rect x="-0.0614" y="-4.0400" width="0.1228" height="2.8155" ry="0.0421" fill="currentColor"/>
</g>
<g transform="translate(118.9114, 53.6452)">
<path transform="scale(0.0029, -0.0029)" d="M33 35l-2 -60v-11c0 -21 2 -43 5 -64c42 38 87 81 87 138c0 32 -13 63 -41 63c-31 0 -48 -32 -49 -66zM32 446l-9 -337c25 26 59 40 95 40c50 0 82 -51 82 -105c0 -77 -80 -117 -137 -169c-18 -17 -26 -48 -52 -48c-16 0 -28 15 -28 32l-15 587c10 6 21 8 32 8
s22 -2 32 -8z" fill="currentColor"/>
</g>
<g transform="translate(122.5025, 54.7504)">
<rect x="-0.0614" y="-2.2324" width="0.1228" height="3.5869" ry="0.0421" fill="currentColor"/>
</g>
<g transform="translate(120.6679, 56.2241)">
<path transform="scale(0.0029, -0.0029)" d="M33 35l-2 -60v-11c0 -21 2 -43 5 -64c42 38 87 81 87 138c0 32 -13 63 -41 63c-31 0 -48 -32 -49 -66zM32 446l-9 -337c25 26 59 40 95 40c50 0 82 -51 82 -105c0 -77 -80 -117 -137 -169c-18 -17 -26 -48 -52 -48c-16 0 -28 15 -28 32l-15 587c10 6 21 8 32 8
s22 -2 32 -8z" fill="currentColor"/>
</g>
<g transform="translate(123.6138, 54.7504)">
<path transform="scale(0.0029, -0.0029)" d="M208 139c61 0 117 -33 117 -99c0 -71 -52 -119 -99 -147c-34 -20 -71 -32 -110 -32c-61 0 -116 33 -116 99c0 71 51 119 98 147c34 20 71 32 110 32z" fill="currentColor"/>
</g>
<g transform="translate(124.5090, 54.7504)">
<rect x="-0.0614" y="-2.9474" width="0.1228" height="2.8281" ry="0.0421" fill="currentColor"/>
</g>
<g transform="translate(116.1310, 54.7504)">
<rect x="-0.0614" y="-3.0896" width="0.1228" height="3.7072" ry="0.0421" fill="currentColor"/>
</g>
<g transform="translate(113.7294, 54.0136)">
<path transform="scale(0.0029, -0.0029)" d="M208 139c61 0 117 -33 117 -99c0 -71 -52 -119 -99 -147c-34 -20 -71 -32 -110 -32c-61 0 -116 33 -116 99c0 71 51 119 98 147c34 20 71 32 110 32z" fill="currentColor"/>
</g>
<g transform="translate(114.6245, 54.7504)">
<rect x="-0.0614" y="-3.0622" width="0.1228" height="2.2061" ry="0.0421" fill="currentColor"/>
</g>
<g transform="translate(115.2359, 55.4873)">
<path transform="scale(0.0029, -0.0029)" d="M208 139c61 0 117 -33 117 -99c0 -71 -52 -119 -99 -147c-34 -20 -71 -32 -110 -32c-61 0 -116 33 -116 99c0 71 51 119 98 147c34 20 71 32 110 32z" fill="currentColor"/>
</g>
<g transform="translate(117.2424, 54.7504)">
<path transform="scale(0.0029, -0.0029)" d="M208 139c61 0 117 -33 117 -99c0 -71 -52 -119 -99 -147c-34 -20 -71 -32 -110 -32c-61 0 -116 33 -116 99c0 71 51 119 98 147c34 20 71 32 110 32z" fill="currentColor"/>
</g>
<g transform="translate(118.1375, 54.7504)">
<rect x="-0.0614" y="-3.5028" width="0.1228" height="3.3836" ry="0.0421" fill="currentColor"/>
</g>
<g transform="translate(75.2702, 54.7504)">
<path stroke-width="0.0755" stroke-linejoin="round" stroke-linecap="round" stroke="currentColor" fill="currentColor" d="M0.8769 -4.1146C1.7287 -4.9904 3.9437 -5.1172 4.8899 -4.3443L4.8899 -4.3443C3.9501 -5.0041 1.7352 -4.8773 0.8769 -4.1146z"/>
</g>
<g transform="translate(77.7585, 51.3487)">
<text font-family="serif" font-style="italic" font-size="1.2869" text-anchor="start" fill="currentColor">
<tspan>3</tspan>
</text>
</g>
<g transform="translate(81.6234, 52.1715)">
<polygon stroke-linejoin="round" stroke-linecap="round" stroke-width="0.0842" fill="currentColor" stroke="currentColor" points="4.0936 -1.1104 4.0936 -0.8409 0.0421 0.1347 0.0421 -0.1347"/>
</g>
<g transform="translate(81.6234, 52.7787)">
<polygon stroke-linejoin="round" stroke-linecap="round" stroke-width="0.0842" fill="currentColor" stroke="currentColor" points="4.0936 -1.1104 4.0936 -0.8409 0.0421 0.1347 0.0421 -0.1347"/>
</g>
<g transform="translate(80.7897, 54.7504)">
<path stroke-width="0.0755" stroke-linejoin="round" stroke-linecap="round" stroke="currentColor" fill="currentColor" d="M0.8785 -4.6124C1.7344 -5.4838 3.9492 -5.5996 4.8914 -4.8222L4.8914 -4.8222C3.9552 -5.4865 1.7403 -5.3707 0.8785 -4.6124z"/>
</g>
<g transform="translate(83.2780, 50.8612)">
<text font-family="serif" font-style="italic" font-size="1.2869" text-anchor="start" fill="currentColor">
<tspan>3</tspan>
</text>
</g>
<g transform="translate(87.1429, 52.1715)">
<polygon stroke-linejoin="round" stroke-linecap="round" stroke-width="0.0842" fill="currentColor" stroke="currentColor" points="4.0936 -1.6084 4.0936 -1.3389 0.0421 0.1347 0.0421 -0.1347"/>
</g>
<g transform="translate(87.1429, 52.7787)">
<polygon stroke-linejoin="round" stroke-linecap="round" stroke-width="0.0842" fill="currentColor" stroke="currentColor" points="4.0936 -1.6084 4.0936 -1.3389 0.0421 0.1347 0.0421 -0.1347"/>
</g>
<g transform="translate(86.3092, 54.7504)">
<path stroke-width="0.0755" stroke-linejoin="round" stroke-linecap="round" stroke="currentColor" fill="currentColor" d="M0.8408 -4.6198C1.5947 -5.5941 3.8168 -5.9779 4.8538 -5.3129L4.8538 -5.3129C3.8361 -5.8662 1.6140 -5.4824 0.8408 -4.6198z"/>
</g>
<g transform="translate(76.1040, 52.6695)">
<polygon stroke-linejoin="round" stroke-linecap="round" stroke-width="0.0842" fill="currentColor" stroke="currentColor" points="4.0936 -1.1308 4.0936 -0.8614 0.0421 0.1347 0.0421 -0.1347"/>
</g>
<g transform="translate(76.1040, 53.2768)">
<polygon stroke-linejoin="round" stroke-linecap="round" stroke-width="0.0842" fill="currentColor" stroke="currentColor" points="4.0936 -1.1308 4.0936 -0.8614 0.0421 0.1347 0.0421 -0.1347"/>
</g>
<g transform="translate(88.7975, 50.6050)">
<text font-family="serif" font-style="italic" font-size="1.2869" text-anchor="start" fill="currentColor">
<tspan>3</tspan>
</text>
</g>
<g transform="translate(93.9918, 51.9327)">
<polygon stroke-linejoin="round" stroke-linecap="round" stroke-width="0.0842" fill="currentColor" stroke="currentColor" points="4.0936 -1.7380 4.0936 -1.4686 0.0421 0.1347 0.0421 -0.1347"/>
</g>
<g transform="translate(93.9918, 52.5399)">
<polygon stroke-linejoin="round" stroke-linecap="round" stroke-width="0.0842" fill="currentColor" stroke="currentColor" points="4.0936 -1.7380 4.0936 -1.4686 0.0421 0.1347 0.0421 -0.1347"/>
</g>
<g transform="translate(93.1581, 54.7504)">
<path stroke-width="0.0755" stroke-linejoin="round" stroke-linecap="round" stroke="currentColor" fill="currentColor" d="M0.8047 -4.4921C1.4529 -5.5646 3.6902 -6.2265 4.8176 -5.6794L4.8176 -5.6794C3.7223 -6.1179 1.4850 -5.4559 0.8047 -4.4921z"/>
</g>
<g transform="translate(95.6463, 50.2996)">
<text font-family="serif" font-style="italic" font-size="1.2869" text-anchor="start" fill="currentColor">
<tspan>3</tspan>
</text>
</g>
<g transform="translate(99.5113, 54.1432)">
<polygon stroke-linejoin="round" stroke-linecap="round" stroke-width="0.0842" fill="currentColor" stroke="currentColor" points="4.0936 -0.8716 4.0936 -0.6021 0.0421 0.1347 0.0421 -0.1347"/>
</g>
<g transform="translate(99.5113, 54.7504)">
<polygon stroke-linejoin="round" stroke-linecap="round" stroke-width="0.0842" fill="currentColor" stroke="currentColor" points="4.0936 -0.8716 4.0936 -0.6021 0.0421 0.1347 0.0421 -0.1347"/>
</g>
<g transform="translate(98.6775, 54.7504)">
<path stroke-width="0.0755" stroke-linejoin="round" stroke-linecap="round" stroke="currentColor" fill="currentColor" d="M0.8677 -2.2687C1.6950 -3.1699 3.9111 -3.3613 4.8806 -2.6152L4.8806 -2.6152C3.9208 -3.2483 1.7047 -3.0570 0.8677 -2.2687z"/>
</g>
<g transform="translate(101.1658, 52.9558)">
<text font-family="serif" font-style="italic" font-size="1.2869" text-anchor="start" fill="currentColor">
<tspan>3</tspan>
</text>
</g>
<g transform="translate(46.3435, 54.7504)">
<path stroke-width="0.0755" stroke-linejoin="round" stroke-linecap="round" stroke="currentColor" fill="currentColor" d="M0.8769 -4.8515C1.7287 -5.7273 3.9437 -5.8541 4.8899 -5.0812L4.8899 -5.0812C3.9501 -5.7409 1.7352 -5.6141 0.8769 -4.8515z"/>
</g>
<g transform="translate(48.8318, 50.6119)">
<text font-family="serif" font-style="italic" font-size="1.2869" text-anchor="start" fill="currentColor">
<tspan>3</tspan>
</text>
</g>
<g transform="translate(52.6967, 51.8031)">
<polygon stroke-linejoin="round" stroke-linecap="round" stroke-width="0.0842" fill="currentColor" stroke="currentColor" points="4.0936 -1.6084 4.0936 -1.3389 0.0421 0.1347 0.0421 -0.1347"/>
</g>
<g transform="translate(52.6967, 52.4103)">
<polygon stroke-linejoin="round" stroke-linecap="round" stroke-width="0.0842" fill="currentColor" stroke="currentColor" points="4.0936 -1.6084 4.0936 -1.3389 0.0421 0.1347 0.0421 -0.1347"/>
</g>
<g transform="translate(51.8630, 54.7504)">
<path stroke-width="0.0755" stroke-linejoin="round" stroke-linecap="round" stroke="currentColor" fill="currentColor" d="M0.8408 -4.9882C1.5947 -5.9625 3.8168 -6.3463 4.8538 -5.6813L4.8538 -5.6813C3.8361 -6.2346 1.6140 -5.8508 0.8408 -4.9882z"/>
</g>
<g transform="translate(54.3512, 50.2366)">
<text font-family="serif" font-style="italic" font-size="1.2869" text-anchor="start" fill="currentColor">
<tspan>3</tspan>
</text>
</g>
<g transform="translate(59.5456, 51.9327)">
<polygon stroke-linejoin="round" stroke-linecap="round" stroke-width="0.0842" fill="currentColor" stroke="currentColor" points="4.0936 -1.7380 4.0936 -1.4686 0.0421 0.1347 0.0421 -0.1347"/>
</g>
<g transform="translate(59.5456, 52.5399)">
<polygon stroke-linejoin="round" stroke-linecap="round" stroke-width="0.0842" fill="currentColor" stroke="currentColor" points="4.0936 -1.7380 4.0936 -1.4686 0.0421 0.1347 0.0421 -0.1347"/>
</g>
<g transform="translate(58.7119, 54.7504)">
<path stroke-width="0.0755" stroke-linejoin="round" stroke-linecap="round" stroke="currentColor" fill="currentColor" d="M0.8047 -4.4921C1.4529 -5.5646 3.6902 -6.2265 4.8176 -5.6794L4.8176 -5.6794C3.7223 -6.1179 1.4850 -5.4559 0.8047 -4.4921z"/>
</g>
<g transform="translate(105.0307, 53.4064)">
<polygon stroke-linejoin="round" stroke-linecap="round" stroke-width="0.0842" fill="currentColor" stroke="currentColor" points="4.0936 -1.0012 4.0936 -0.7317 0.0421 0.1347 0.0421 -0.1347"/>
</g>
<g transform="translate(105.0307, 54.0136)">
<polygon stroke-linejoin="round" stroke-linecap="round" stroke-width="0.0842" fill="currentColor" stroke="currentColor" points="4.0936 -1.0012 4.0936 -0.7317 0.0421 0.1347 0.0421 -0.1347"/>
</g>
<g transform="translate(61.2001, 50.2996)">
<text font-family="serif" font-style="italic" font-size="1.2869" text-anchor="start" fill="currentColor">
<tspan>3</tspan>
</text>
</g>
<g transform="translate(65.0650, 54.1432)">
<polygon stroke-linejoin="round" stroke-linecap="round" stroke-width="0.0842" fill="currentColor" stroke="currentColor" points="4.0936 -1.0012 4.0936 -0.7317 0.0421 0.1347 0.0421 -0.1347"/>
</g>
<g transform="translate(65.0650, 54.7504)">
<polygon stroke-linejoin="round" stroke-linecap="round" stroke-width="0.0842" fill="currentColor" stroke="currentColor" points="4.0936 -1.0012 4.0936 -0.7317 0.0421 0.1347 0.0421 -0.1347"/>
</g>
<g transform="translate(64.2313, 54.7504)">
<path stroke-width="0.0755" stroke-linejoin="round" stroke-linecap="round" stroke="currentColor" fill="currentColor" d="M0.8869 -2.6390C1.7649 -3.4871 3.9791 -3.5445 4.8998 -2.7429L4.8998 -2.7429C3.9820 -3.4312 1.7678 -3.3738 0.8869 -2.6390z"/>
</g>
<g transform="translate(66.7196, 52.8891)">
<text font-family="serif" font-style="italic" font-size="1.2869" text-anchor="start" fill="currentColor">
<tspan>3</tspan>
</text>
</g>
<g transform="translate(70.5845, 53.2768)">
<polygon stroke-linejoin="round" stroke-linecap="round" stroke-width="0.0842" fill="currentColor" stroke="currentColor" points="4.0936 -1.2400 4.0936 -0.9705 0.0421 0.1347 0.0421 -0.1347"/>
</g>
<g transform="translate(70.5845, 53.8840)">
<polygon stroke-linejoin="round" stroke-linecap="round" stroke-width="0.0842" fill="currentColor" stroke="currentColor" points="4.0936 -1.2400 4.0936 -0.9705 0.0421 0.1347 0.0421 -0.1347"/>
</g>
<g transform="translate(69.7508, 54.7504)">
<path stroke-width="0.0755" stroke-linejoin="round" stroke-linecap="round" stroke="currentColor" fill="currentColor" d="M0.8685 -3.5090C1.6981 -4.4079 3.9141 -4.5932 4.8815 -3.8446L4.8815 -3.8446C3.9236 -4.4803 1.7076 -4.2949 0.8685 -3.5090z"/>
</g>
<g transform="translate(72.2391, 51.8998)">
<text font-family="serif" font-style="italic" font-size="1.2869" text-anchor="start" fill="currentColor">
<tspan>3</tspan>
</text>
</g>
<g transform="translate(145.9752, 54.7504)">
<path stroke-width="0.0755" stroke-linejoin="round" stroke-linecap="round" stroke="currentColor" fill="currentColor" d="M0.8685 -4.6143C1.6981 -5.5131 3.9141 -5.6985 4.8815 -4.9499L4.8815 -4.9499C3.9236 -5.5855 1.7076 -5.4002 0.8685 -4.6143z"/>
</g>
<g transform="translate(135.5200, 52.1715)">
<polygon stroke-linejoin="round" stroke-linecap="round" stroke-width="0.0842" fill="currentColor" stroke="currentColor" points="4.0936 -1.6084 4.0936 -1.3389 0.0421 0.1347 0.0421 -0.1347"/>
</g>
<g transform="translate(135.5200, 52.7787)">
<polygon stroke-linejoin="round" stroke-linecap="round" stroke-width="0.0842" fill="currentColor" stroke="currentColor" points="4.0936 -1.6084 4.0936 -1.3389 0.0421 0.1347 0.0421 -0.1347"/>
</g>
<g transform="translate(134.6862, 54.7504)">
<path stroke-width="0.0755" stroke-linejoin="round" stroke-linecap="round" stroke="currentColor" fill="currentColor" d="M0.8408 -4.6198C1.5947 -5.5941 3.8168 -5.9779 4.8538 -5.3129L4.8538 -5.3129C3.8361 -5.8662 1.6140 -5.4824 0.8408 -4.6198z"/>
</g>
<g transform="translate(137.1745, 50.6050)">
<text font-family="serif" font-style="italic" font-size="1.2869" text-anchor="start" fill="currentColor">
<tspan>3</tspan>
</text>
</g>
<g transform="translate(141.0394, 52.1715)">
<polygon stroke-linejoin="round" stroke-linecap="round" stroke-width="0.0842" fill="currentColor" stroke="currentColor" points="4.0936 -1.3696 4.0936 -1.1002 0.0421 0.1347 0.0421 -0.1347"/>
</g>
<g transform="translate(141.0394, 52.7787)">
<polygon stroke-linejoin="round" stroke-linecap="round" stroke-width="0.0842" fill="currentColor" stroke="currentColor" points="4.0936 -1.3696 4.0936 -1.1002 0.0421 0.1347 0.0421 -0.1347"/>
</g>
<g transform="translate(140.2057, 54.7504)">
<path stroke-width="0.0755" stroke-linejoin="round" stroke-linecap="round" stroke="currentColor" fill="currentColor" d="M0.8587 -4.6162C1.6618 -5.5420 3.8794 -5.7970 4.8717 -5.0776L4.8717 -5.0776C3.8924 -5.6844 1.6747 -5.4294 0.8587 -4.6162z"/>
</g>
<g transform="translate(142.6940, 50.7279)">
<text font-family="serif" font-style="italic" font-size="1.2869" text-anchor="start" fill="currentColor">
<tspan>3</tspan>
</text>
</g>
<g transform="translate(146.8089, 52.1715)">
<polygon stroke-linejoin="round" stroke-linecap="round" stroke-width="0.0842" fill="currentColor" stroke="currentColor" points="4.0936 -1.2400 4.0936 -0.9705 0.0421 0.1347 0.0421 -0.1347"/>
</g>
<g transform="translate(146.8089, 52.7787)">
<polygon stroke-linejoin="round" stroke-linecap="round" stroke-width="0.0842" fill="currentColor" stroke="currentColor" points="4.0936 -1.2400 4.0936 -0.9705 0.0421 0.1347 0.0421 -0.1347"/>
</g>
<g transform="translate(131.2998, 50.2364)">
<text font-family="serif" font-style="italic" font-size="1.2869" text-anchor="start" fill="currentColor">
<tspan>3</tspan>
</text>
</g>
<g transform="translate(148.4634, 50.7945)">
<text font-family="serif" font-style="italic" font-size="1.2869" text-anchor="start" fill="currentColor">
<tspan>3</tspan>
</text>
</g>
<g transform="translate(152.3284, 52.1715)">
<polygon stroke-linejoin="round" stroke-linecap="round" stroke-width="0.0842" fill="currentColor" stroke="currentColor" points="3.8436 -0.8716 3.8436 -0.6021 0.0421 0.1347 0.0421 -0.1347"/>
</g>
<g transform="translate(152.3284, 52.7787)">
<polygon stroke-linejoin="round" stroke-linecap="round" stroke-width="0.0842" fill="currentColor" stroke="currentColor" points="3.8436 -0.8716 3.8436 -0.6021 0.0421 0.1347 0.0421 -0.1347"/>
</g>
<g transform="translate(151.4946, 54.7504)">
<path stroke-width="0.0755" stroke-linejoin="round" stroke-linecap="round" stroke="currentColor" fill="currentColor" d="M0.8357 -4.2411C1.5414 -5.1923 3.5937 -5.5815 4.5987 -4.9547L4.5987 -4.9547C3.6149 -5.4702 1.5625 -5.0810 0.8357 -4.2411z"/>
</g>
<g transform="translate(153.8579, 50.9834)">
<text font-family="serif" font-style="italic" font-size="1.2869" text-anchor="start" fill="currentColor">
<tspan>3</tspan>
</text>
</g>
<g transform="translate(157.5978, 52.6695)">
<polygon stroke-linejoin="round" stroke-linecap="round" stroke-width="0.0842" fill="currentColor" stroke="currentColor" points="4.0936 -1.0012 4.0936 -0.7317 0.0421 0.1347 0.0421 -0.1347"/>
</g>
<g transform="translate(157.5978, 53.2768)">
<polygon stroke-linejoin="round" stroke-linecap="round" stroke-width="0.0842" fill="currentColor" stroke="currentColor" points="4.0936 -1.0012 4.0936 -0.7317 0.0421 0.1347 0.0421 -0.1347"/>
</g>
<g transform="translate(156.7641, 54.7504)">
<path stroke-width="0.0755" stroke-linejoin="round" stroke-linecap="round" stroke="currentColor" fill="currentColor" d="M0.8869 -4.1127C1.7649 -4.9608 3.9791 -5.0181 4.8998 -4.2166L4.8998 -4.2166C3.9820 -4.9049 1.7678 -4.8475 0.8869 -4.1127z"/>
</g>
<g transform="translate(104.1970, 54.7504)">
<path stroke-width="0.0755" stroke-linejoin="round" stroke-linecap="round" stroke="currentColor" fill="currentColor" d="M0.8869 -3.3759C1.7649 -4.2240 3.9791 -4.2813 4.8998 -3.4798L4.8998 -3.4798C3.9820 -4.1680 1.7678 -4.1107 0.8869 -3.3759z"/>
</g>
<g transform="translate(106.6853, 52.1523)">
<text font-family="serif" font-style="italic" font-size="1.2869" text-anchor="start" fill="currentColor">
<tspan>3</tspan>
</text>
</g>
<g transform="translate(110.5502, 52.6695)">
<polygon stroke-linejoin="round" stroke-linecap="round" stroke-width="0.0842" fill="currentColor" stroke="currentColor" points="4.0936 -1.1308 4.0936 -0.8614 0.0421 0.1347 0.0421 -0.1347"/>
</g>
<g transform="translate(110.5502, 53.2768)">
<polygon stroke-linejoin="round" stroke-linecap="round" stroke-width="0.0842" fill="currentColor" stroke="currentColor" points="4.0936 -1.1308 4.0936 -0.8614 0.0421 0.1347 0.0421 -0.1347"/>
</g>
<g transform="translate(109.7165, 54.7504)">
<path stroke-width="0.0755" stroke-linejoin="round" stroke-linecap="round" stroke="currentColor" fill="currentColor" d="M0.8769 -4.1146C1.7287 -4.9904 3.9437 -5.1172 4.8899 -4.3443L4.8899 -4.3443C3.9501 -5.0041 1.7352 -4.8773 0.8769 -4.1146z"/>
</g>
<g transform="translate(112.2047, 51.3487)">
<text font-family="serif" font-style="italic" font-size="1.2869" text-anchor="start" fill="currentColor">
<tspan>3</tspan>
</text>
</g>
<g transform="translate(116.0696, 51.6735)">
<polygon stroke-linejoin="round" stroke-linecap="round" stroke-width="0.0842" fill="currentColor" stroke="currentColor" points="4.6956 -1.1104 4.6956 -0.8409 0.0421 0.1347 0.0421 -0.1347"/>
</g>
<g transform="translate(116.0696, 52.2807)">
<polygon stroke-linejoin="round" stroke-linecap="round" stroke-width="0.0842" fill="currentColor" stroke="currentColor" points="4.6956 -1.1104 4.6956 -0.8409 0.0421 0.1347 0.0421 -0.1347"/>
</g>
<g transform="translate(115.2359, 54.7504)">
<path stroke-width="0.0755" stroke-linejoin="round" stroke-linecap="round" stroke="currentColor" fill="currentColor" d="M0.8552 -4.7402C1.7299 -5.7510 4.3719 -6.0841 5.4702 -5.3221L5.4702 -5.3221C4.3861 -5.9717 1.7441 -5.6386 0.8552 -4.7402z"/>
</g>
<g transform="translate(47.1772, 51.9327)">
<polygon stroke-linejoin="round" stroke-linecap="round" stroke-width="0.0842" fill="currentColor" stroke="currentColor" points="4.0936 -1.1308 4.0936 -0.8614 0.0421 0.1347 0.0421 -0.1347"/>
</g>
<g transform="translate(47.1772, 52.5399)">
<polygon stroke-linejoin="round" stroke-linecap="round" stroke-width="0.0842" fill="currentColor" stroke="currentColor" points="4.0936 -1.1308 4.0936 -0.8614 0.0421 0.1347 0.0421 -0.1347"/>
</g>
<g transform="translate(118.0252, 50.3649)">
<text font-family="serif" font-style="italic" font-size="1.2869" text-anchor="start" fill="currentColor">
<tspan>3</tspan>
</text>
</g>
<g transform="translate(122.4411, 52.5399)">
<polygon stroke-linejoin="round" stroke-linecap="round" stroke-width="0.0842" fill="currentColor" stroke="currentColor" points="4.0936 -1.6084 4.0936 -1.3389 0.0421 0.1347 0.0421 -0.1347"/>
</g>
<g transform="translate(122.4411, 53.1471)">
<polygon stroke-linejoin="round" stroke-linecap="round" stroke-width="0.0842" fill="currentColor" stroke="currentColor" points="4.0936 -1.6084 4.0936 -1.3389 0.0421 0.1347 0.0421 -0.1347"/>
</g>
<g transform="translate(121.6074, 54.7504)">
<path stroke-width="0.0755" stroke-linejoin="round" stroke-linecap="round" stroke="currentColor" fill="currentColor" d="M0.8408 -4.2513C1.5947 -5.2257 3.8168 -5.6095 4.8538 -4.9444L4.8538 -4.9444C3.8361 -5.4978 1.6140 -5.1140 0.8408 -4.2513z"/>
</g>
<g transform="translate(124.0956, 50.9735)">
<text font-family="serif" font-style="italic" font-size="1.2869" text-anchor="start" fill="currentColor">
<tspan>3</tspan>
</text>
</g>
<g transform="translate(129.2900, 51.9327)">
<polygon stroke-linejoin="round" stroke-linecap="round" stroke-width="0.0842" fill="currentColor" stroke="currentColor" points="4.8042 -1.8677 4.8042 -1.5982 0.0421 0.1347 0.0421 -0.1347"/>
</g>
<g transform="translate(129.2900, 52.5399)">
<polygon stroke-linejoin="round" stroke-linecap="round" stroke-width="0.0842" fill="currentColor" stroke="currentColor" points="4.8042 -1.8677 4.8042 -1.5982 0.0421 0.1347 0.0421 -0.1347"/>
</g>
<g transform="translate(128.4563, 54.7504)">
<path stroke-width="0.0755" stroke-linejoin="round" stroke-linecap="round" stroke="currentColor" fill="currentColor" d="M0.8560 -4.8586C1.7470 -5.8796 4.4668 -6.2157 5.5795 -5.4424L5.5795 -5.4424C4.4807 -6.1033 1.7609 -5.7671 0.8560 -4.8586z"/>
</g>
<g transform="translate(152.3897, 54.7504)">
<rect x="-0.0614" y="-2.5906" width="0.1228" height="2.8398" ry="0.0421" fill="currentColor"/>
</g>
<g transform="translate(153.5011, 54.0136)">
<path transform="scale(0.0029, -0.0029)" d="M208 139c61 0 117 -33 117 -99c0 -71 -52 -119 -99 -147c-34 -20 -71 -32 -110 -32c-61 0 -116 33 -116 99c0 71 51 119 98 147c34 20 71 32 110 32z" fill="currentColor"/>
</g>
<g transform="translate(154.3962, 54.7504)">
<rect x="-0.0614" y="-2.9711" width="0.1228" height="2.1150" ry="0.0421" fill="currentColor"/>
</g>
<g transform="translate(151.4946, 55.1189)">
<path transform="scale(0.0029, -0.0029)" d="M208 139c61 0 117 -33 117 -99c0 -71 -52 -119 -99 -147c-34 -20 -71 -32 -110 -32c-61 0 -116 33 -116 99c0 71 51 119 98 147c34 20 71 32 110 32z" fill="currentColor"/>
</g>
<g transform="translate(155.2576, 53.6452)">
<path transform="scale(0.0029, -0.0029)" d="M208 139c61 0 117 -33 117 -99c0 -71 -52 -119 -99 -147c-34 -20 -71 -32 -110 -32c-61 0 -116 33 -116 99c0 71 51 119 98 147c34 20 71 32 110 32z" fill="currentColor"/>
</g>
<g transform="translate(156.1527, 54.7504)">
<rect x="-0.0614" y="-3.3041" width="0.1228" height="2.0797" ry="0.0421" fill="currentColor"/>
</g>
<g transform="translate(156.7641, 55.1189)">
<path transform="scale(0.0029, -0.0029)" d="M208 139c61 0 117 -33 117 -99c0 -71 -52 -119 -99 -147c-34 -20 -71 -32 -110 -32c-61 0 -116 33 -116 99c0 71 51 119 98 147c34 20 71 32 110 32z" fill="currentColor"/>
</g>
<g transform="translate(157.6592, 54.7504)">
<rect x="-0.0614" y="-2.0938" width="0.1228" height="2.3430" ry="0.0421" fill="currentColor"/>
</g>
<g transform="translate(144.8146, 55.4873)">
<path transform="scale(0.0029, -0.0029)" d="M0 114c0 12 7 22 18 26l37 15v151c0 12 10 22 22 22s22 -10 22 -22v-134l77 29v152c0 12 10 22 22 22s22 -10 22 -22v-134l16 6c3 1 8 2 11 2c15 0 28 -12 28 -28v-50c0 -12 -7 -23 -18 -27l-37 -14v-152l16 7c3 1 8 2 11 2c15 0 28 -13 28 -29v-50c0 -12 -7 -22 -18 -26
l-37 -15v-151c0 -12 -10 -22 -22 -22s-22 10 -22 22v134l-77 -29v-152c0 -12 -10 -22 -22 -22s-22 10 -22 22v134l-16 -6c-3 -1 -8 -2 -11 -2c-15 0 -28 12 -28 28v50c0 12 7 23 18 27l37 14v152l-16 -7c-3 -1 -8 -2 -11 -2c-15 0 -28 13 -28 29v50zM176 91l-77 -30v-152
l77 30v152z" fill="currentColor"/>
</g>
<g transform="translate(147.9817, 54.0136)">
<path transform="scale(0.0029, -0.0029)" d="M208 139c61 0 117 -33 117 -99c0 -71 -52 -119 -99 -147c-34 -20 -71 -32 -110 -32c-61 0 -116 33 -116 99c0 71 51 119 98 147c34 20 71 32 110 32z" fill="currentColor"/>
</g>
<g transform="translate(148.8768, 54.7504)">
<rect x="-0.0614" y="-3.1316" width="0.1228" height="2.2755" ry="0.0421" fill="currentColor"/>
</g>
<g transform="translate(149.9881, 53.2768)">
<path transform="scale(0.0029, -0.0029)" d="M208 139c61 0 117 -33 117 -99c0 -71 -52 -119 -99 -147c-34 -20 -71 -32 -110 -32c-61 0 -116 33 -116 99c0 71 51 119 98 147c34 20 71 32 110 32z" fill="currentColor"/>
</g>
<g transform="translate(150.8832, 54.7504)">
<rect x="-0.0614" y="-3.6678" width="0.1228" height="2.0749" ry="0.0421" fill="currentColor"/>
</g>
<g transform="translate(26.3059, 53.2768)">
<polygon stroke-linejoin="round" stroke-linecap="round" stroke-width="0.0842" fill="currentColor" stroke="currentColor" points="2.4871 -0.7420 2.4871 -0.4725 0.0421 0.1347 0.0421 -0.1347"/>
</g>
<g transform="translate(26.3059, 53.8840)">
<polygon stroke-linejoin="round" stroke-linecap="round" stroke-width="0.0842" fill="currentColor" stroke="currentColor" points="2.4871 -0.7420 2.4871 -0.4725 0.0421 0.1347 0.0421 -0.1347"/>
</g>
<g transform="translate(25.4721, 54.7504)">
<path stroke-width="0.0755" stroke-linejoin="round" stroke-linecap="round" stroke="currentColor" fill="currentColor" d="M0.8207 -2.0337C1.2906 -2.7673 2.4754 -3.0517 3.2272 -2.6114L3.2272 -2.6114C2.5019 -2.9415 1.3170 -2.6571 0.8207 -2.0337z"/>
</g>
<g transform="translate(30.6188, 54.1432)">
<polygon stroke-linejoin="round" stroke-linecap="round" stroke-width="0.0842" fill="currentColor" stroke="currentColor" points="4.0936 -1.0012 4.0936 -0.7317 0.0421 0.1347 0.0421 -0.1347"/>
</g>
<g transform="translate(30.6188, 54.7504)">
<polygon stroke-linejoin="round" stroke-linecap="round" stroke-width="0.0842" fill="currentColor" stroke="currentColor" points="4.0936 -1.0012 4.0936 -0.7317 0.0421 0.1347 0.0421 -0.1347"/>
</g>
<g transform="translate(29.7851, 54.7504)">
<path stroke-width="0.0755" stroke-linejoin="round" stroke-linecap="round" stroke="currentColor" fill="currentColor" d="M0.8869 -2.6390C1.7649 -3.4871 3.9791 -3.5445 4.8998 -2.7429L4.8998 -2.7429C3.9820 -3.4312 1.7678 -3.3738 0.8869 -2.6390z"/>
</g>
<g transform="translate(32.2734, 52.8891)">
<text font-family="serif" font-style="italic" font-size="1.2869" text-anchor="start" fill="currentColor">
<tspan>3</tspan>
</text>
</g>
<g transform="translate(36.1383, 52.6695)">
<polygon stroke-linejoin="round" stroke-linecap="round" stroke-width="0.0842" fill="currentColor" stroke="currentColor" points="4.0936 -1.1308 4.0936 -0.8614 0.0421 0.1347 0.0421 -0.1347"/>
</g>
<g transform="translate(36.1383, 53.2768)">
<polygon stroke-linejoin="round" stroke-linecap="round" stroke-width="0.0842" fill="currentColor" stroke="currentColor" points="4.0936 -1.1308 4.0936 -0.8614 0.0421 0.1347 0.0421 -0.1347"/>
</g>
<g transform="translate(35.3046, 54.7504)">
<path stroke-width="0.0755" stroke-linejoin="round" stroke-linecap="round" stroke="currentColor" fill="currentColor" d="M0.8769 -4.1146C1.7287 -4.9904 3.9437 -5.1172 4.8899 -4.3443L4.8899 -4.3443C3.9501 -5.0041 1.7352 -4.8773 0.8769 -4.1146z"/>
</g>
<g transform="translate(37.7929, 51.3487)">
<text font-family="serif" font-style="italic" font-size="1.2869" text-anchor="start" fill="currentColor">
<tspan>3</tspan>
</text>
</g>
<g transform="translate(41.6578, 52.1715)">
<polygon stroke-linejoin="round" stroke-linecap="round" stroke-width="0.0842" fill="currentColor" stroke="currentColor" points="4.0936 -1.1104 4.0936 -0.8409 0.0421 0.1347 0.0421 -0.1347"/>
</g>
<g transform="translate(41.6578, 52.7787)">
<polygon stroke-linejoin="round" stroke-linecap="round" stroke-width="0.0842" fill="currentColor" stroke="currentColor" points="4.0936 -1.1104 4.0936 -0.8409 0.0421 0.1347 0.0421 -0.1347"/>
</g>
<g transform="translate(40.8240, 54.7504)">
<path stroke-width="0.0755" stroke-linejoin="round" stroke-linecap="round" stroke="currentColor" fill="currentColor" d="M0.8785 -4.6124C1.7344 -5.4838 3.9492 -5.5996 4.8914 -4.8222L4.8914 -4.8222C3.9552 -5.4865 1.7403 -5.3707 0.8785 -4.6124z"/>
</g>
<g transform="translate(43.3123, 50.8612)">
<text font-family="serif" font-style="italic" font-size="1.2869" text-anchor="start" fill="currentColor">
<tspan>3</tspan>
</text>
</g>
<g transform="translate(160.7771, 53.6452)">
<path transform="scale(0.0029, -0.0029)" d="M208 139c61 0 117 -33 117 -99c0 -71 -52 -119 -99 -147c-34 -20 -71 -32 -110 -32c-61 0 -116 33 -116 99c0 71 51 119 98 147c34 20 71 32 110 32z" fill="currentColor"/>
</g>
<g transform="translate(158.7706, 54.3820)">
<path transform="scale(0.0029, -0.0029)" d="M208 139c61 0 117 -33 117 -99c0 -71 -52 -119 -99 -147c-34 -20 -71 -32 -110 -32c-61 0 -116 33 -116 99c0 71 51 119 98 147c34 20 71 32 110 32z" fill="currentColor"/>
</g>
<g transform="translate(159.6657, 54.7504)">
<rect x="-0.0614" y="-2.5141" width="0.1228" height="2.0265" ry="0.0421" fill="currentColor"/>
</g>
<g transform="translate(146.8703, 54.7504)">
<rect x="-0.0614" y="-2.5954" width="0.1228" height="3.2130" ry="0.0421" fill="currentColor"/>
</g>
<g transform="translate(161.6722, 54.7504)">
<rect x="-0.0614" y="-2.9345" width="0.1228" height="1.7100" ry="0.0421" fill="currentColor"/>
</g>
<g transform="translate(50.3565, 52.9083)">
<path transform="scale(0.0029, -0.0029)" d="M208 139c61 0 117 -33 117 -99c0 -71 -52 -119 -99 -147c-34 -20 -71 -32 -110 -32c-61 0 -116 33 -116 99c0 71 51 119 98 147c34 20 71 32 110 32z" fill="currentColor"/>
</g>
<g transform="translate(51.2516, 54.7504)">
<rect x="-0.0614" y="-3.7991" width="0.1228" height="1.8377" ry="0.0421" fill="currentColor"/>
</g>
<g transform="translate(51.8630, 55.4873)">
<path transform="scale(0.0029, -0.0029)" d="M208 139c61 0 117 -33 117 -99c0 -71 -52 -119 -99 -147c-34 -20 -71 -32 -110 -32c-61 0 -116 33 -116 99c0 71 51 119 98 147c34 20 71 32 110 32z" fill="currentColor"/>
</g>
<g transform="translate(52.7581, 54.7504)">
<rect x="-0.0614" y="-2.9692" width="0.1228" height="3.5869" ry="0.0421" fill="currentColor"/>
</g>
<g transform="translate(53.8695, 54.0136)">
<path transform="scale(0.0029, -0.0029)" d="M208 139c61 0 117 -33 117 -99c0 -71 -52 -119 -99 -147c-34 -20 -71 -32 -110 -32c-61 0 -116 33 -116 99c0 71 51 119 98 147c34 20 71 32 110 32z" fill="currentColor"/>
</g>
<g transform="translate(54.7646, 54.7504)">
<rect x="-0.0614" y="-3.6842" width="0.1228" height="2.8281" ry="0.0421" fill="currentColor"/>
</g>
<g transform="translate(46.3435, 54.7504)">
<path transform="scale(0.0029, -0.0029)" d="M208 139c61 0 117 -33 117 -99c0 -71 -52 -119 -99 -147c-34 -20 -71 -32 -110 -32c-61 0 -116 33 -116 99c0 71 51 119 98 147c34 20 71 32 110 32z" fill="currentColor"/>
</g>
<g transform="translate(44.8370, 53.2768)">
<path transform="scale(0.0029, -0.0029)" d="M208 139c61 0 117 -33 117 -99c0 -71 -52 -119 -99 -147c-34 -20 -71 -32 -110 -32c-61 0 -116 33 -116 99c0 71 51 119 98 147c34 20 71 32 110 32z" fill="currentColor"/>
</g>
<g transform="translate(45.7321, 54.7504)">
<rect x="-0.0614" y="-3.5401" width="0.1228" height="1.9472" ry="0.0421" fill="currentColor"/>
</g>
<g transform="translate(55.8759, 52.1715)">
<path transform="scale(0.0029, -0.0029)" d="M208 139c61 0 117 -33 117 -99c0 -71 -52 -119 -99 -147c-34 -20 -71 -32 -110 -32c-61 0 -116 33 -116 99c0 71 51 119 98 147c34 20 71 32 110 32z" fill="currentColor"/>
</g>
<g transform="translate(47.2386, 54.7504)">
<rect x="-0.0614" y="-2.8325" width="0.1228" height="2.7133" ry="0.0421" fill="currentColor"/>
</g>
<g transform="translate(48.3500, 54.0136)">
<path transform="scale(0.0029, -0.0029)" d="M208 139c61 0 117 -33 117 -99c0 -71 -52 -119 -99 -147c-34 -20 -71 -32 -110 -32c-61 0 -116 33 -116 99c0 71 51 119 98 147c34 20 71 32 110 32z" fill="currentColor"/>
</g>
<g transform="translate(49.2451, 54.7504)">
<rect x="-0.0614" y="-3.3158" width="0.1228" height="2.4597" ry="0.0421" fill="currentColor"/>
</g>
<g transform="translate(60.7183, 54.3820)">
<path transform="scale(0.0029, -0.0029)" d="M208 139c61 0 117 -33 117 -99c0 -71 -52 -119 -99 -147c-34 -20 -71 -32 -110 -32c-61 0 -116 33 -116 99c0 71 51 119 98 147c34 20 71 32 110 32z" fill="currentColor"/>
</g>
<g transform="translate(61.6135, 54.7504)">
<rect x="-0.0614" y="-3.6194" width="0.1228" height="3.1317" ry="0.0421" fill="currentColor"/>
</g>
<g transform="translate(62.7248, 52.1715)">
<path transform="scale(0.0029, -0.0029)" d="M208 139c61 0 117 -33 117 -99c0 -71 -52 -119 -99 -147c-34 -20 -71 -32 -110 -32c-61 0 -116 33 -116 99c0 71 51 119 98 147c34 20 71 32 110 32z" fill="currentColor"/>
</g>
<g transform="translate(63.6199, 54.7504)">
<rect x="-0.0614" y="-4.3973" width="0.1228" height="1.6991" ry="0.0421" fill="currentColor"/>
</g>
<g transform="translate(64.2313, 56.9610)">
<path transform="scale(0.0029, -0.0029)" d="M208 139c61 0 117 -33 117 -99c0 -71 -52 -119 -99 -147c-34 -20 -71 -32 -110 -32c-61 0 -116 33 -116 99c0 71 51 119 98 147c34 20 71 32 110 32z" fill="currentColor"/>
</g>
<g transform="translate(65.1264, 54.7504)">
<rect x="-0.0614" y="-0.6201" width="0.1228" height="2.7114" ry="0.0421" fill="currentColor"/>
</g>
<g transform="translate(56.7710, 54.7504)">
<rect x="-0.0614" y="-4.3992" width="0.1228" height="1.7010" ry="0.0421" fill="currentColor"/>
</g>
<g transform="translate(58.7119, 56.2241)">
<path transform="scale(0.0029, -0.0029)" d="M208 139c61 0 117 -33 117 -99c0 -71 -52 -119 -99 -147c-34 -20 -71 -32 -110 -32c-61 0 -116 33 -116 99c0 71 51 119 98 147c34 20 71 32 110 32z" fill="currentColor"/>
</g>
<g transform="translate(59.6070, 54.7504)">
<rect x="-0.0614" y="-2.8415" width="0.1228" height="4.1960" ry="0.0421" fill="currentColor"/>
</g>
<g transform="translate(28.7737, 54.7504)">
<rect x="-0.0614" y="-2.0662" width="0.1228" height="2.3154" ry="0.0421" fill="currentColor"/>
</g>
<g transform="translate(25.5335, 54.7504)">
<rect x="-0.0614" y="1.9613" width="0.1228" height="2.2755" ry="0.0421" fill="currentColor"/>
</g>
<g transform="translate(25.5949, 58.9452)">
<path transform="scale(0.0029, -0.0029)" d="M266 659c0 -44 -15 -80 -38 -114c16 -35 25 -73 25 -111c0 -180 -252 -254 -253 -433v-1h-21v500h21v-70c94 49 217 126 217 229c0 20 -5 41 -14 59v5c0 16 13 26 27 26c32 0 36 -61 36 -90zM0 205c88 51 204 130 204 229c0 22 -4 44 -12 65c-79 -85 -192 -155 -192 -274
v-20z" fill="currentColor"/>
</g>
<g transform="translate(27.8786, 55.1189)">
<path transform="scale(0.0029, -0.0029)" d="M208 139c61 0 117 -33 117 -99c0 -71 -52 -119 -99 -147c-34 -20 -71 -32 -110 -32c-61 0 -116 33 -116 99c0 71 51 119 98 147c34 20 71 32 110 32z" fill="currentColor"/>
</g>
<g transform="translate(29.7851, 56.5926)">
<path transform="scale(0.0029, -0.0029)" d="M208 139c61 0 117 -33 117 -99c0 -71 -52 -119 -99 -147c-34 -20 -71 -32 -110 -32c-61 0 -116 33 -116 99c0 71 51 119 98 147c34 20 71 32 110 32z" fill="currentColor"/>
</g>
<g transform="translate(30.6802, 54.7504)">
<rect x="-0.0614" y="-0.6201" width="0.1228" height="2.3430" ry="0.0421" fill="currentColor"/>
</g>
<g transform="translate(18.7702, 55.4873)">
<path transform="scale(0.0029, -0.0029)" d="M381 266h9c157 0 258 -130 258 -264c0 -77 -33 -156 -108 -212c-22 -16 -46 -28 -71 -36c2 -32 3 -65 3 -97c0 -21 -1 -43 -2 -64c-7 -122 -91 -230 -211 -230c-108 0 -197 88 -197 197c0 58 54 104 113 104c54 0 95 -48 95 -104c0 -52 -43 -95 -95 -95c-8 0 -16 2 -24 4
c25 -35 65 -59 111 -59c95 0 155 92 161 190c1 20 2 39 2 59c0 28 -1 55 -3 83c-29 -5 -57 -7 -87 -7c-189 0 -333 174 -333 377c0 176 128 307 242 443c-21 62 -41 124 -50 189c-7 52 -8 106 -8 159c0 113 54 219 146 286c8 6 21 7 29 0c72 -82 136 -244 136 -357
c0 -141 -83 -253 -174 -362c22 -67 41 -135 58 -204zM464 -200c64 25 108 93 108 159c0 87 -62 173 -163 187c24 -113 43 -225 55 -346zM338 -218c27 0 54 2 80 6c-13 125 -33 242 -58 359c-79 -7 -123 -59 -123 -116c0 -43 24 -89 78 -120c5 -5 8 -11 8 -17
c0 -13 -11 -24 -24 -24c-3 0 -7 0 -10 2c-81 44 -119 116 -119 187c0 90 60 178 164 201c-14 56 -30 112 -47 167c-104 -122 -208 -245 -208 -404c0 -132 127 -241 259 -241zM239 782c0 -69 22 -127 41 -183c77 97 140 199 140 323c0 49 -3 69 -19 113
c-99 -45 -162 -145 -162 -253z" fill="currentColor"/>
</g>
<g transform="translate(22.3827, 54.7504)">
<path transform="scale(0.0029, -0.0029)" d="M33 35l-2 -60v-11c0 -21 2 -43 5 -64c42 38 87 81 87 138c0 32 -13 63 -41 63c-31 0 -48 -32 -49 -66zM32 446l-9 -337c25 26 59 40 95 40c50 0 82 -51 82 -105c0 -77 -80 -117 -137 -169c-18 -17 -26 -48 -52 -48c-16 0 -28 15 -28 32l-15 587c10 6 21 8 32 8
s22 -2 32 -8z" fill="currentColor"/>
</g>
<g transform="translate(25.4721, 55.8557)">
<path transform="scale(0.0029, -0.0029)" d="M208 139c61 0 117 -33 117 -99c0 -71 -52 -119 -99 -147c-34 -20 -71 -32 -110 -32c-61 0 -116 33 -116 99c0 71 51 119 98 147c34 20 71 32 110 32z" fill="currentColor"/>
</g>
<g transform="translate(25.4721, 56.5926)">
<path transform="scale(0.0029, -0.0029)" d="M208 139c61 0 117 -33 117 -99c0 -71 -52 -119 -99 -147c-34 -20 -71 -32 -110 -32c-61 0 -116 33 -116 99c0 71 51 119 98 147c34 20 71 32 110 32z" fill="currentColor"/>
</g>
<g transform="translate(26.3672, 54.7504)">
<rect x="-0.0614" y="-1.4884" width="0.1228" height="2.4745" ry="0.0421" fill="currentColor"/>
</g>
<g transform="translate(38.2062, 54.7504)">
<rect x="-0.0614" y="-2.5789" width="0.1228" height="2.8281" ry="0.0421" fill="currentColor"/>
</g>
<g transform="translate(39.3176, 54.0136)">
<path transform="scale(0.0029, -0.0029)" d="M208 139c61 0 117 -33 117 -99c0 -71 -52 -119 -99 -147c-34 -20 -71 -32 -110 -32c-61 0 -116 33 -116 99c0 71 51 119 98 147c34 20 71 32 110 32z" fill="currentColor"/>
</g>
<g transform="translate(40.2127, 54.7504)">
<rect x="-0.0614" y="-3.0622" width="0.1228" height="2.2061" ry="0.0421" fill="currentColor"/>
</g>
<g transform="translate(37.3111, 55.1189)">
<path transform="scale(0.0029, -0.0029)" d="M208 139c61 0 117 -33 117 -99c0 -71 -52 -119 -99 -147c-34 -20 -71 -32 -110 -32c-61 0 -116 33 -116 99c0 71 51 119 98 147c34 20 71 32 110 32z" fill="currentColor"/>
</g>
<g transform="translate(40.8240, 55.1189)">
<path transform="scale(0.0029, -0.0029)" d="M208 139c61 0 117 -33 117 -99c0 -71 -52 -119 -99 -147c-34 -20 -71 -32 -110 -32c-61 0 -116 33 -116 99c0 71 51 119 98 147c34 20 71 32 110 32z" fill="currentColor"/>
</g>
<g transform="translate(41.7191, 54.7504)">
<rect x="-0.0614" y="-2.5934" width="0.1228" height="2.8426" ry="0.0421" fill="currentColor"/>
</g>
<g transform="translate(42.8305, 54.0136)">
<path transform="scale(0.0029, -0.0029)" d="M208 139c61 0 117 -33 117 -99c0 -71 -52 -119 -99 -147c-34 -20 -71 -32 -110 -32c-61 0 -116 33 -116 99c0 71 51 119 98 147c34 20 71 32 110 32z" fill="currentColor"/>
</g>
<g transform="translate(43.7256, 54.7504)">
<rect x="-0.0614" y="-3.0668" width="0.1228" height="2.2107" ry="0.0421" fill="currentColor"/>
</g>
<g transform="translate(31.7916, 55.8557)">
<path transform="scale(0.0029, -0.0029)" d="M208 139c61 0 117 -33 117 -99c0 -71 -52 -119 -99 -147c-34 -20 -71 -32 -110 -32c-61 0 -116 33 -116 99c0 71 51 119 98 147c34 20 71 32 110 32z" fill="currentColor"/>
</g>
<g transform="translate(32.6867, 54.7504)">
<rect x="-0.0614" y="-1.0405" width="0.1228" height="2.0265" ry="0.0421" fill="currentColor"/>
</g>
<g transform="translate(33.7981, 55.1189)">
<path transform="scale(0.0029, -0.0029)" d="M208 139c61 0 117 -33 117 -99c0 -71 -52 -119 -99 -147c-34 -20 -71 -32 -110 -32c-61 0 -116 33 -116 99c0 71 51 119 98 147c34 20 71 32 110 32z" fill="currentColor"/>
</g>
<g transform="translate(34.6932, 54.7504)">
<rect x="-0.0614" y="-1.4608" width="0.1228" height="1.7100" ry="0.0421" fill="currentColor"/>
</g>
<g transform="translate(35.3046, 55.8557)">
<path transform="scale(0.0029, -0.0029)" d="M208 139c61 0 117 -33 117 -99c0 -71 -52 -119 -99 -147c-34 -20 -71 -32 -110 -32c-61 0 -116 33 -116 99c0 71 51 119 98 147c34 20 71 32 110 32z" fill="currentColor"/>
</g>
<g transform="translate(36.1997, 54.7504)">
<rect x="-0.0614" y="-2.0957" width="0.1228" height="3.0817" ry="0.0421" fill="currentColor"/>
</g>
<g transform="translate(83.6913, 54.7504)">
<rect x="-0.0614" y="-3.0668" width="0.1228" height="2.5791" ry="0.0421" fill="currentColor"/>
</g>
<g transform="translate(82.7962, 54.3820)">
<path transform="scale(0.0029, -0.0029)" d="M208 139c61 0 117 -33 117 -99c0 -71 -52 -119 -99 -147c-34 -20 -71 -32 -110 -32c-61 0 -116 33 -116 99c0 71 51 119 98 147c34 20 71 32 110 32z" fill="currentColor"/>
</g>
<g transform="translate(94.0532, 54.7504)">
<rect x="-0.0614" y="-2.8415" width="0.1228" height="4.5644" ry="0.0421" fill="currentColor"/>
</g>
<g transform="translate(81.6848, 54.7504)">
<rect x="-0.0614" y="-2.5934" width="0.1228" height="2.8426" ry="0.0421" fill="currentColor"/>
</g>
<g transform="translate(80.7897, 55.1189)">
<path transform="scale(0.0029, -0.0029)" d="M208 139c61 0 117 -33 117 -99c0 -71 -52 -119 -99 -147c-34 -20 -71 -32 -110 -32c-61 0 -116 33 -116 99c0 71 51 119 98 147c34 20 71 32 110 32z" fill="currentColor"/>
</g>
<g transform="translate(80.1783, 54.7504)">
<rect x="-0.0614" y="-3.0622" width="0.1228" height="1.8377" ry="0.0421" fill="currentColor"/>
</g>
<g transform="translate(79.2832, 53.6452)">
<path transform="scale(0.0029, -0.0029)" d="M208 139c61 0 117 -33 117 -99c0 -71 -52 -119 -99 -147c-34 -20 -71 -32 -110 -32c-61 0 -116 33 -116 99c0 71 51 119 98 147c34 20 71 32 110 32z" fill="currentColor"/>
</g>
<g transform="translate(78.1718, 54.7504)">
<rect x="-0.0614" y="-2.5789" width="0.1228" height="2.0913" ry="0.0421" fill="currentColor"/>
</g>
<g transform="translate(77.2767, 54.3820)">
<path transform="scale(0.0029, -0.0029)" d="M208 139c61 0 117 -33 117 -99c0 -71 -52 -119 -99 -147c-34 -20 -71 -32 -110 -32c-61 0 -116 33 -116 99c0 71 51 119 98 147c34 20 71 32 110 32z" fill="currentColor"/>
</g>
<g transform="translate(90.3222, 52.5399)">
<path transform="scale(0.0029, -0.0029)" d="M208 139c61 0 117 -33 117 -99c0 -71 -52 -119 -99 -147c-34 -20 -71 -32 -110 -32c-61 0 -116 33 -116 99c0 71 51 119 98 147c34 20 71 32 110 32z" fill="currentColor"/>
</g>
<g transform="translate(91.2173, 54.7504)">
<rect x="-0.0614" y="-4.0308" width="0.1228" height="1.7010" ry="0.0421" fill="currentColor"/>
</g>
<g transform="translate(89.2108, 54.7504)">
<rect x="-0.0614" y="-3.3158" width="0.1228" height="2.8281" ry="0.0421" fill="currentColor"/>
</g>
<g transform="translate(88.3157, 54.3820)">
<path transform="scale(0.0029, -0.0029)" d="M208 139c61 0 117 -33 117 -99c0 -71 -52 -119 -99 -147c-34 -20 -71 -32 -110 -32c-61 0 -116 33 -116 99c0 71 51 119 98 147c34 20 71 32 110 32z" fill="currentColor"/>
</g>
<g transform="translate(87.2043, 54.7504)">
<rect x="-0.0614" y="-2.6008" width="0.1228" height="3.5869" ry="0.0421" fill="currentColor"/>
</g>
<g transform="translate(86.3092, 55.8557)">
<path transform="scale(0.0029, -0.0029)" d="M208 139c61 0 117 -33 117 -99c0 -71 -52 -119 -99 -147c-34 -20 -71 -32 -110 -32c-61 0 -116 33 -116 99c0 71 51 119 98 147c34 20 71 32 110 32z" fill="currentColor"/>
</g>
<g transform="translate(85.6978, 54.7504)">
<rect x="-0.0614" y="-3.5401" width="0.1228" height="1.9472" ry="0.0421" fill="currentColor"/>
</g>
<g transform="translate(84.8027, 53.2768)">
<path transform="scale(0.0029, -0.0029)" d="M208 139c61 0 117 -33 117 -99c0 -71 -52 -119 -99 -147c-34 -20 -71 -32 -110 -32c-61 0 -116 33 -116 99c0 71 51 119 98 147c34 20 71 32 110 32z" fill="currentColor"/>
</g>
<g transform="translate(93.1581, 56.5926)">
<path transform="scale(0.0029, -0.0029)" d="M208 139c61 0 117 -33 117 -99c0 -71 -52 -119 -99 -147c-34 -20 -71 -32 -110 -32c-61 0 -116 33 -116 99c0 71 51 119 98 147c34 20 71 32 110 32z" fill="currentColor"/>
</g>
<g transform="translate(72.6524, 54.7504)">
<rect x="-0.0614" y="-2.0263" width="0.1228" height="2.6439" ry="0.0421" fill="currentColor"/>
</g>
<g transform="translate(97.1710, 52.5399)">
<path transform="scale(0.0029, -0.0029)" d="M208 139c61 0 117 -33 117 -99c0 -71 -52 -119 -99 -147c-34 -20 -71 -32 -110 -32c-61 0 -116 33 -116 99c0 71 51 119 98 147c34 20 71 32 110 32z" fill="currentColor"/>
</g>
<g transform="translate(71.7573, 55.4873)">
<path transform="scale(0.0029, -0.0029)" d="M208 139c61 0 117 -33 117 -99c0 -71 -52 -119 -99 -147c-34 -20 -71 -32 -110 -32c-61 0 -116 33 -116 99c0 71 51 119 98 147c34 20 71 32 110 32z" fill="currentColor"/>
</g>
<g transform="translate(98.0661, 54.7504)">
<rect x="-0.0614" y="-4.3973" width="0.1228" height="2.0675" ry="0.0421" fill="currentColor"/>
</g>
<g transform="translate(70.6459, 54.7504)">
<rect x="-0.0614" y="-1.4901" width="0.1228" height="2.8445" ry="0.0421" fill="currentColor"/>
</g>
<g transform="translate(69.7508, 56.2241)">
<path transform="scale(0.0029, -0.0029)" d="M208 139c61 0 117 -33 117 -99c0 -71 -52 -119 -99 -147c-34 -20 -71 -32 -110 -32c-61 0 -116 33 -116 99c0 71 51 119 98 147c34 20 71 32 110 32z" fill="currentColor"/>
</g>
<g transform="translate(98.6775, 57.3294)">
<path transform="scale(0.0029, -0.0029)" d="M208 139c61 0 117 -33 117 -99c0 -71 -52 -119 -99 -147c-34 -20 -71 -32 -110 -32c-61 0 -116 33 -116 99c0 71 51 119 98 147c34 20 71 32 110 32z" fill="currentColor"/>
</g>
<g transform="translate(99.5726, 54.7504)">
<rect x="-0.0614" y="-0.6182" width="0.1228" height="3.0779" ry="0.0421" fill="currentColor"/>
</g>
<g transform="translate(69.1394, 54.7504)">
<rect x="-0.0614" y="-1.4608" width="0.1228" height="2.0784" ry="0.0421" fill="currentColor"/>
</g>
<g transform="translate(68.2443, 55.4873)">
<path transform="scale(0.0029, -0.0029)" d="M208 139c61 0 117 -33 117 -99c0 -71 -52 -119 -99 -147c-34 -20 -71 -32 -110 -32c-61 0 -116 33 -116 99c0 71 51 119 98 147c34 20 71 32 110 32z" fill="currentColor"/>
</g>
<g transform="translate(67.1329, 54.7504)">
<rect x="-0.0614" y="-1.0405" width="0.1228" height="2.3949" ry="0.0421" fill="currentColor"/>
</g>
<g transform="translate(66.2378, 56.2241)">
<path transform="scale(0.0029, -0.0029)" d="M208 139c61 0 117 -33 117 -99c0 -71 -52 -119 -99 -147c-34 -20 -71 -32 -110 -32c-61 0 -116 33 -116 99c0 71 51 119 98 147c34 20 71 32 110 32z" fill="currentColor"/>
</g>
<g transform="translate(96.0597, 54.7504)">
<rect x="-0.0614" y="-3.6194" width="0.1228" height="3.5002" ry="0.0421" fill="currentColor"/>
</g>
<g transform="translate(75.2702, 55.4873)">
<path transform="scale(0.0029, -0.0029)" d="M208 139c61 0 117 -33 117 -99c0 -71 -52 -119 -99 -147c-34 -20 -71 -32 -110 -32c-61 0 -116 33 -116 99c0 71 51 119 98 147c34 20 71 32 110 32z" fill="currentColor"/>
</g>
<g transform="translate(76.1654, 54.7504)">
<rect x="-0.0614" y="-2.0957" width="0.1228" height="2.7133" ry="0.0421" fill="currentColor"/>
</g>
<g transform="translate(74.6589, 54.7504)">
<rect x="-0.0614" y="-2.5625" width="0.1228" height="2.0749" ry="0.0421" fill="currentColor"/>
</g>
<g transform="translate(73.7638, 54.3820)">
<path transform="scale(0.0029, -0.0029)" d="M208 139c61 0 117 -33 117 -99c0 -71 -52 -119 -99 -147c-34 -20 -71 -32 -110 -32c-61 0 -116 33 -116 99c0 71 51 119 98 147c34 20 71 32 110 32z" fill="currentColor"/>
</g>
<g transform="translate(95.1646, 54.7504)">
<path transform="scale(0.0029, -0.0029)" d="M208 139c61 0 117 -33 117 -99c0 -71 -52 -119 -99 -147c-34 -20 -71 -32 -110 -32c-61 0 -116 33 -116 99c0 71 51 119 98 147c34 20 71 32 110 32z" fill="currentColor"/>
</g>
</svg>
