<svg xmlns="http://www.w3.org/2000/svg" xmlns:xlink="http://www.w3.org/1999/xlink" version="1.2" width="594.00mm" height="420.00mm" viewBox="0.0000 -0.0000 355.8092 251.5823">
<style type="text/css">
<![CDATA[
tspan { white-space: pre; }
]]>
</style>
<g transform="translate(17.9702, 56.2241)">
<line stroke-linejoin="round" stroke-linecap="round" stroke-width="0.0944" stroke="currentColor" x1="0.0472" y1="0" x2="150.5778" y2="0"/>
</g>
<g transform="translate(17.9702, 55.4873)">
<line stroke-linejoin="round" stroke-linecap="round" stroke-width="0.0944" stroke="currentColor" x1="0.0472" y1="0" x2="150.5778" y2="0"/>
</g>
<g transform="translate(17.9702, 54.7504)">
<line stroke-linejoin="round" stroke-linecap="round" stroke-width="0.0944" stroke="currentColor" x1="0.0472" y1="0" x2="150.5778" y2="0"/>
</g>
<g transform="translate(17.9702, 54.0136)">
<line stroke-linejoin="round" stroke-linecap="round" stroke-width="0.0944" stroke="currentColor" x1="0.0472" y1="0" x2="150.5778" y2="0"/>
</g>
<g transform="translate(17.9702, 53.2768)">
<line stroke-linejoin="round" stroke-linecap="round" stroke-width="0.0944" stroke="currentColor" x1="0.0472" y1="0" x2="150.5778" y2="0"/>
</g>
<g transform="translate(168.4158, 54.7504)">
<rect x="0.0000" y="-1.4737" width="0.1794" height="2.9474" ry="0.0000" fill="currentColor"/>
</g>
<g transform="translate(127.2544, 54.7504)">
<rect x="0.0000" y="-1.4737" width="0.1794" height="2.9474" ry="0.0000" fill="currentColor"/>
</g>
<g transform="translate(91.6613, 54.7504)">
<rect x="0.0000" y="-1.4737" width="0.1794" height="2.9474" ry="0.0000" fill="currentColor"/>
</g>
<g transform="translate(57.5889, 54.7504)">
<rect x="0.0000" y="-1.4737" width="0.1794" height="2.9474" ry="0.0000" fill="currentColor"/>
</g>
<g transform="translate(17.9702, 56.9610)">
<rect x="115.3180" y="-0.0841" width="1.3706" height="0.1681" ry="0.0841" fill="currentColor"/>
</g>
<g transform="translate(17.9702, 56.9610)">
<rect x="112.5937" y="-0.0841" width="1.3779" height="0.1681" ry="0.0841" fill="currentColor"/>
</g>
<g transform="translate(17.9702, 56.9610)">
<rect x="110.1245" y="-0.0841" width="1.4347" height="0.1681" ry="0.0841" fill="currentColor"/>
</g>
<g transform="translate(17.9702, 57.6978)">
<rect x="110.1245" y="-0.0841" width="1.4347" height="0.1681" ry="0.0841" fill="currentColor"/>
</g>
<g transform="translate(17.9702, 56.9610)">
<rect x="107.1669" y="-0.0841" width="1.3779" height="0.1681" ry="0.0841" fill="currentColor"/>
</g>
<g transform="translate(17.9702, 56.9610)">
<rect x="104.6977" y="-0.0841" width="1.4347" height="0.1681" ry="0.0841" fill="currentColor"/>
</g>
<g transform="translate(17.9702, 56.9610)">
<rect x="103.0053" y="-0.0841" width="1.3706" height="0.1681" ry="0.0841" fill="currentColor"/>
</g>
<g transform="translate(17.9702, 56.9610)">
<rect x="74.5314" y="-0.0841" width="1.4347" height="0.1681" ry="0.0841" fill="currentColor"/>
</g>
<g transform="translate(17.9702, 56.9610)">
<rect x="40.4591" y="-0.0841" width="1.4347" height="0.1681" ry="0.0841" fill="currentColor"/>
</g>
<g transform="translate(17.9702, 52.5399)">
<rect x="9.2693" y="-0.0841" width="1.4347" height="0.1681" ry="0.0841" fill="currentColor"/>
</g>
<g transform="translate(134.3583, 54.7504)">
<rect x="-0.0614" y="-1.6773" width="0.1228" height="3.7686" ry="0.0421" fill="currentColor"/>
</g>
<g transform="translate(130.7462, 57.3294)">
<path transform="scale(0.0029, -0.0029)" d="M208 139c61 0 117 -33 117 -99c0 -71 -52 -119 -99 -147c-34 -20 -71 -32 -110 -32c-61 0 -116 33 -116 99c0 71 51 119 98 147c34 20 71 32 110 32z" fill="currentColor"/>
</g>
<g transform="translate(131.6413, 54.7504)">
<rect x="-0.0614" y="-1.5029" width="0.1228" height="3.9626" ry="0.0421" fill="currentColor"/>
</g>
<g transform="translate(129.8903, 57.3294)">
<path transform="scale(0.0029, -0.0029)" d="M-8 375c8 5 18 7 27 7s20 -2 28 -7l-3 -196l99 24h4c11 0 20 -8 20 -19l8 -559c-8 -5 -19 -7 -28 -7s-19 2 -27 7l3 196l-99 -24h-5c-11 0 -19 8 -19 19zM127 109l-85 -20l-2 -198l84 20z" fill="currentColor"/>
</g>
<g transform="translate(133.4632, 56.9610)">
<path transform="scale(0.0029, -0.0029)" d="M208 139c61 0 117 -33 117 -99c0 -71 -52 -119 -99 -147c-34 -20 -71 -32 -110 -32c-61 0 -116 33 -116 99c0 71 51 119 98 147c34 20 71 32 110 32z" fill="currentColor"/>
</g>
<g transform="translate(132.3026, 56.9610)">
<path transform="scale(0.0029, -0.0029)" d="M0 114c0 12 7 22 18 26l37 15v151c0 12 10 22 22 22s22 -10 22 -22v-134l77 29v152c0 12 10 22 22 22s22 -10 22 -22v-134l16 6c3 1 8 2 11 2c15 0 28 -12 28 -28v-50c0 -12 -7 -23 -18 -27l-37 -14v-152l16 7c3 1 8 2 11 2c15 0 28 -13 28 -29v-50c0 -12 -7 -22 -18 -26
l-37 -15v-151c0 -12 -10 -22 -22 -22s-22 10 -22 22v134l-77 -29v-152c0 -12 -10 -22 -22 -22s-22 10 -22 22v134l-16 -6c-3 -1 -8 -2 -11 -2c-15 0 -28 12 -28 28v50c0 12 7 23 18 27l37 14v152l-16 -7c-3 -1 -8 -2 -11 -2c-15 0 -28 13 -28 29v50zM176 91l-77 -30v-152
l77 30v152z" fill="currentColor"/>
</g>
<g transform="translate(135.0197, 56.5926)">
<path transform="scale(0.0029, -0.0029)" d="M208 139c61 0 117 -33 117 -99c0 -71 -52 -119 -99 -147c-34 -20 -71 -32 -110 -32c-61 0 -116 33 -116 99c0 71 51 119 98 147c34 20 71 32 110 32z" fill="currentColor"/>
</g>
<g transform="translate(135.9148, 54.7504)">
<rect x="-0.0614" y="-1.7772" width="0.1228" height="3.5001" ry="0.0421" fill="currentColor"/>
</g>
<g transform="translate(124.4635, 57.3294)">
<path transform="scale(0.0029, -0.0029)" d="M-8 375c8 5 18 7 27 7s20 -2 28 -7l-3 -196l99 24h4c11 0 20 -8 20 -19l8 -559c-8 -5 -19 -7 -28 -7s-19 2 -27 7l3 196l-99 -24h-5c-11 0 -19 8 -19 19zM127 109l-85 -20l-2 -198l84 20z" fill="currentColor"/>
</g>
<g transform="translate(128.3338, 57.6978)">
<path transform="scale(0.0029, -0.0029)" d="M208 139c61 0 117 -33 117 -99c0 -71 -52 -119 -99 -147c-34 -20 -71 -32 -110 -32c-61 0 -116 33 -116 99c0 71 51 119 98 147c34 20 71 32 110 32z" fill="currentColor"/>
</g>
<g transform="translate(129.2289, 54.7504)">
<rect x="-0.0614" y="-1.3480" width="0.1228" height="4.1761" ry="0.0421" fill="currentColor"/>
</g>
<g transform="translate(143.6579, 54.7504)">
<path transform="scale(0.0029, -0.0029)" d="M208 139c61 0 117 -33 117 -99c0 -71 -52 -119 -99 -147c-34 -20 -71 -32 -110 -32c-61 0 -116 33 -116 99c0 71 51 119 98 147c34 20 71 32 110 32z" fill="currentColor"/>
</g>
<g transform="translate(141.2456, 55.1189)">
<path transform="scale(0.0029, -0.0029)" d="M208 139c61 0 117 -33 117 -99c0 -71 -52 -119 -99 -147c-34 -20 -71 -32 -110 -32c-61 0 -116 33 -116 99c0 71 51 119 98 147c34 20 71 32 110 32z" fill="currentColor"/>
</g>
<g transform="translate(142.1407, 54.7504)">
<rect x="-0.0614" y="-3.3210" width="0.1228" height="3.5702" ry="0.0421" fill="currentColor"/>
</g>
<g transform="translate(144.5530, 54.7504)">
<rect x="-0.0614" y="-3.5255" width="0.1228" height="3.4063" ry="0.0421" fill="currentColor"/>
</g>
<g transform="translate(142.8021, 54.7504)">
<path transform="scale(0.0029, -0.0029)" d="M-8 375c8 5 18 7 27 7s20 -2 28 -7l-3 -196l99 24h4c11 0 20 -8 20 -19l8 -559c-8 -5 -19 -7 -28 -7s-19 2 -27 7l3 196l-99 -24h-5c-11 0 -19 8 -19 19zM127 109l-85 -20l-2 -198l84 20z" fill="currentColor"/>
</g>
<g transform="translate(146.3750, 54.3820)">
<path transform="scale(0.0029, -0.0029)" d="M208 139c61 0 117 -33 117 -99c0 -71 -52 -119 -99 -147c-34 -20 -71 -32 -110 -32c-61 0 -116 33 -116 99c0 71 51 119 98 147c34 20 71 32 110 32z" fill="currentColor"/>
</g>
<g transform="translate(147.2701, 54.7504)">
<rect x="-0.0614" y="-3.7559" width="0.1228" height="3.2683" ry="0.0421" fill="currentColor"/>
</g>
<g transform="translate(136.5761, 56.2241)">
<path transform="scale(0.0029, -0.0029)" d="M208 139c61 0 117 -33 117 -99c0 -71 -52 -119 -99 -147c-34 -20 -71 -32 -110 -32c-61 0 -116 33 -116 99c0 71 51 119 98 147c34 20 71 32 110 32z" fill="currentColor"/>
</g>
<g transform="translate(137.4712, 54.7504)">
<rect x="-0.0614" y="-1.8771" width="0.1228" height="3.2316" ry="0.0421" fill="currentColor"/>
</g>
<g transform="translate(138.1326, 55.8557)">
<path transform="scale(0.0029, -0.0029)" d="M208 139c61 0 117 -33 117 -99c0 -71 -52 -119 -99 -147c-34 -20 -71 -32 -110 -32c-61 0 -116 33 -116 99c0 71 51 119 98 147c34 20 71 32 110 32z" fill="currentColor"/>
</g>
<g transform="translate(139.0277, 54.7504)">
<rect x="-0.0614" y="-1.9770" width="0.1228" height="2.9631" ry="0.0421" fill="currentColor"/>
</g>
<g transform="translate(139.6891, 55.4873)">
<path transform="scale(0.0029, -0.0029)" d="M208 139c61 0 117 -33 117 -99c0 -71 -52 -119 -99 -147c-34 -20 -71 -32 -110 -32c-61 0 -116 33 -116 99c0 71 51 119 98 147c34 20 71 32 110 32z" fill="currentColor"/>
</g>
<g transform="translate(140.5842, 54.7504)">
<rect x="-0.0614" y="-2.0770" width="0.1228" height="2.6946" ry="0.0421" fill="currentColor"/>
</g>
<g transform="translate(107.8946, 55.1189)">
<path transform="scale(0.0029, -0.0029)" d="M208 139c61 0 117 -33 117 -99c0 -71 -52 -119 -99 -147c-34 -20 -71 -32 -110 -32c-61 0 -116 33 -116 99c0 71 51 119 98 147c34 20 71 32 110 32z" fill="currentColor"/>
</g>
<g transform="translate(108.7897, 54.7504)">
<rect x="-0.0614" y="-2.0831" width="0.1228" height="2.3323" ry="0.0421" fill="currentColor"/>
</g>
<g transform="translate(109.6511, 55.4873)">
<path transform="scale(0.0029, -0.0029)" d="M208 139c61 0 117 -33 117 -99c0 -71 -52 -119 -99 -147c-34 -20 -71 -32 -110 -32c-61 0 -116 33 -116 99c0 71 51 119 98 147c34 20 71 32 110 32z" fill="currentColor"/>
</g>
<g transform="translate(110.5462, 54.7504)">
<rect x="-0.0614" y="-1.4715" width="0.1228" height="2.0891" ry="0.0421" fill="currentColor"/>
</g>
<g transform="translate(111.4075, 55.4873)">
<path transform="scale(0.0029, -0.0029)" d="M208 139c61 0 117 -33 117 -99c0 -71 -52 -119 -99 -147c-34 -20 -71 -32 -110 -32c-61 0 -116 33 -116 99c0 71 51 119 98 147c34 20 71 32 110 32z" fill="currentColor"/>
</g>
<g transform="translate(112.3026, 54.7504)">
<rect x="-0.0614" y="-1.4089" width="0.1228" height="2.0265" ry="0.0421" fill="currentColor"/>
</g>
<g transform="translate(113.1640, 55.8557)">
<path transform="scale(0.0029, -0.0029)" d="M208 139c61 0 117 -33 117 -99c0 -71 -52 -119 -99 -147c-34 -20 -71 -32 -110 -32c-61 0 -116 33 -116 99c0 71 51 119 98 147c34 20 71 32 110 32z" fill="currentColor"/>
</g>
<g transform="translate(104.3816, 54.7504)">
<path transform="scale(0.0029, -0.0029)" d="M208 139c61 0 117 -33 117 -99c0 -71 -52 -119 -99 -147c-34 -20 -71 -32 -110 -32c-61 0 -116 33 -116 99c0 71 51 119 98 147c34 20 71 32 110 32z" fill="currentColor"/>
</g>
<g transform="translate(156.5476, 51.1959)">
<polygon stroke-linejoin="round" stroke-linecap="round" stroke-width="0.0842" fill="currentColor" stroke="currentColor" points="10.9761 1.3389 10.9761 1.6084 0.0421 0.1347 0.0421 -0.1347"/>
</g>
<g transform="translate(156.5476, 51.8031)">
<polygon stroke-linejoin="round" stroke-linecap="round" stroke-width="0.0842" fill="currentColor" stroke="currentColor" points="10.9761 1.3389 10.9761 1.6084 0.0421 0.1347 0.0421 -0.1347"/>
</g>
<g transform="translate(156.5476, 52.4103)">
<polygon stroke-linejoin="round" stroke-linecap="round" stroke-width="0.0842" fill="currentColor" stroke="currentColor" points="10.9761 1.3389 10.9761 1.6084 0.0421 0.1347 0.0421 -0.1347"/>
</g>
<g transform="translate(102.6251, 54.3820)">
<path transform="scale(0.0029, -0.0029)" d="M208 139c61 0 117 -33 117 -99c0 -71 -52 -119 -99 -147c-34 -20 -71 -32 -110 -32c-61 0 -116 33 -116 99c0 71 51 119 98 147c34 20 71 32 110 32z" fill="currentColor"/>
</g>
<g transform="translate(103.5202, 54.7504)">
<rect x="-0.0614" y="-2.5830" width="0.1228" height="2.0953" ry="0.0421" fill="currentColor"/>
</g>
<g transform="translate(114.0591, 54.7504)">
<rect x="-0.0614" y="-1.3462" width="0.1228" height="2.3323" ry="0.0421" fill="currentColor"/>
</g>
<g transform="translate(105.2767, 54.7504)">
<rect x="-0.0614" y="-2.2083" width="0.1228" height="2.0891" ry="0.0421" fill="currentColor"/>
</g>
<g transform="translate(106.1381, 54.7504)">
<path transform="scale(0.0029, -0.0029)" d="M208 139c61 0 117 -33 117 -99c0 -71 -52 -119 -99 -147c-34 -20 -71 -32 -110 -32c-61 0 -116 33 -116 99c0 71 51 119 98 147c34 20 71 32 110 32z" fill="currentColor"/>
</g>
<g transform="translate(107.0332, 54.7504)">
<rect x="-0.0614" y="-2.1457" width="0.1228" height="2.0265" ry="0.0421" fill="currentColor"/>
</g>
<g transform="translate(121.1505, 56.9610)">
<path transform="scale(0.0029, -0.0029)" d="M208 139c61 0 117 -33 117 -99c0 -71 -52 -119 -99 -147c-34 -20 -71 -32 -110 -32c-61 0 -116 33 -116 99c0 71 51 119 98 147c34 20 71 32 110 32z" fill="currentColor"/>
</g>
<g transform="translate(122.0456, 54.7504)">
<rect x="-0.0614" y="0.0019" width="0.1228" height="2.0894" ry="0.0421" fill="currentColor"/>
</g>
<g transform="translate(119.9900, 56.9610)">
<path transform="scale(0.0029, -0.0029)" d="M0 114c0 12 7 22 18 26l37 15v151c0 12 10 22 22 22s22 -10 22 -22v-134l77 29v152c0 12 10 22 22 22s22 -10 22 -22v-134l16 6c3 1 8 2 11 2c15 0 28 -12 28 -28v-50c0 -12 -7 -23 -18 -27l-37 -14v-152l16 7c3 1 8 2 11 2c15 0 28 -13 28 -29v-50c0 -12 -7 -22 -18 -26
l-37 -15v-151c0 -12 -10 -22 -22 -22s-22 10 -22 22v134l-77 -29v-152c0 -12 -10 -22 -22 -22s-22 10 -22 22v134l-16 -6c-3 -1 -8 -2 -11 -2c-15 0 -28 12 -28 28v50c0 12 7 23 18 27l37 14v152l-16 -7c-3 -1 -8 -2 -11 -2c-15 0 -28 13 -28 29v50zM176 91l-77 -30v-152
l77 30v152z" fill="currentColor"/>
</g>
<g transform="translate(122.9070, 56.9610)">
<path transform="scale(0.0029, -0.0029)" d="M208 139c61 0 117 -33 117 -99c0 -71 -52 -119 -99 -147c-34 -20 -71 -32 -110 -32c-61 0 -116 33 -116 99c0 71 51 119 98 147c34 20 71 32 110 32z" fill="currentColor"/>
</g>
<g transform="translate(123.8021, 54.7504)">
<rect x="-0.0614" y="0.0549" width="0.1228" height="2.0364" ry="0.0421" fill="currentColor"/>
</g>
<g transform="translate(125.3193, 57.3294)">
<path transform="scale(0.0029, -0.0029)" d="M208 139c61 0 117 -33 117 -99c0 -71 -52 -119 -99 -147c-34 -20 -71 -32 -110 -32c-61 0 -116 33 -116 99c0 71 51 119 98 147c34 20 71 32 110 32z" fill="currentColor"/>
</g>
<g transform="translate(126.2144, 54.7504)">
<rect x="-0.0614" y="0.1278" width="0.1228" height="2.3319" ry="0.0421" fill="currentColor"/>
</g>
<g transform="translate(114.9205, 56.2241)">
<path transform="scale(0.0029, -0.0029)" d="M208 139c61 0 117 -33 117 -99c0 -71 -52 -119 -99 -147c-34 -20 -71 -32 -110 -32c-61 0 -116 33 -116 99c0 71 51 119 98 147c34 20 71 32 110 32z" fill="currentColor"/>
</g>
<g transform="translate(115.8156, 54.7504)">
<rect x="-0.0614" y="-0.7347" width="0.1228" height="2.0891" ry="0.0421" fill="currentColor"/>
</g>
<g transform="translate(116.6770, 56.2241)">
<path transform="scale(0.0029, -0.0029)" d="M208 139c61 0 117 -33 117 -99c0 -71 -52 -119 -99 -147c-34 -20 -71 -32 -110 -32c-61 0 -116 33 -116 99c0 71 51 119 98 147c34 20 71 32 110 32z" fill="currentColor"/>
</g>
<g transform="translate(117.5721, 54.7504)">
<rect x="-0.0614" y="-0.6720" width="0.1228" height="2.0265" ry="0.0421" fill="currentColor"/>
</g>
<g transform="translate(118.4335, 56.5926)">
<path transform="scale(0.0029, -0.0029)" d="M208 139c61 0 117 -33 117 -99c0 -71 -52 -119 -99 -147c-34 -20 -71 -32 -110 -32c-61 0 -116 33 -116 99c0 71 51 119 98 147c34 20 71 32 110 32z" fill="currentColor"/>
</g>
<g transform="translate(119.3286, 54.7504)">
<rect x="-0.0614" y="-0.6094" width="0.1228" height="2.3323" ry="0.0421" fill="currentColor"/>
</g>
<g transform="translate(54.5577, 50.6185)">
<text font-family="serif" font-style="italic" font-size="1.2869" text-anchor="start" fill="currentColor">
<tspan>3</tspan>
</text>
</g>
<g transform="translate(42.3643, 52.5399)">
<polygon stroke-linejoin="round" stroke-linecap="round" stroke-width="0.0842" fill="currentColor" stroke="currentColor" points="3.5936 -0.0051 3.5936 0.2644 0.0421 0.1347 0.0421 -0.1347"/>
</g>
<g transform="translate(42.3643, 53.1471)">
<polygon stroke-linejoin="round" stroke-linecap="round" stroke-width="0.0842" fill="currentColor" stroke="currentColor" points="3.5936 -0.0051 3.5936 0.2644 0.0421 0.1347 0.0421 -0.1347"/>
</g>
<g transform="translate(43.7688, 51.7942)">
<text font-family="serif" font-style="italic" font-size="1.2869" text-anchor="start" fill="currentColor">
<tspan>3</tspan>
</text>
</g>
<g transform="translate(43.2870, 54.7504)">
<path stroke-width="0.0755" stroke-linejoin="round" stroke-linecap="round" stroke="currentColor" fill="currentColor" d="M0.9971 -2.6910C1.9624 -3.1202 3.5583 -2.5631 4.0467 -1.6264L4.0467 -1.6264C3.5210 -2.4561 1.9250 -3.0133 0.9971 -2.6910z"/>
</g>
<g transform="translate(47.6337, 52.5399)">
<polygon stroke-linejoin="round" stroke-linecap="round" stroke-width="0.0842" fill="currentColor" stroke="currentColor" points="3.8436 -0.7420 3.8436 -0.4725 0.0421 0.1347 0.0421 -0.1347"/>
</g>
<g transform="translate(47.6337, 53.1471)">
<polygon stroke-linejoin="round" stroke-linecap="round" stroke-width="0.0842" fill="currentColor" stroke="currentColor" points="3.8436 -0.7420 3.8436 -0.4725 0.0421 0.1347 0.0421 -0.1347"/>
</g>
<g transform="translate(49.1633, 51.4186)">
<text font-family="serif" font-style="italic" font-size="1.2869" text-anchor="start" fill="currentColor">
<tspan>3</tspan>
</text>
</g>
<g transform="translate(48.8065, 54.7504)">
<path stroke-width="0.0755" stroke-linejoin="round" stroke-linecap="round" stroke="currentColor" fill="currentColor" d="M0.8336 -3.8158C1.8964 -5.1228 6.3811 -6.0045 7.8596 -5.1970L7.8596 -5.1970C6.4029 -5.8933 1.9183 -5.0116 0.8336 -3.8158z"/>
</g>
<g transform="translate(53.1532, 51.6735)">
<polygon stroke-linejoin="round" stroke-linecap="round" stroke-width="0.0842" fill="currentColor" stroke="currentColor" points="3.5936 -0.6123 3.5936 -0.3429 0.0421 0.1347 0.0421 -0.1347"/>
</g>
<g transform="translate(53.1532, 52.2807)">
<polygon stroke-linejoin="round" stroke-linecap="round" stroke-width="0.0842" fill="currentColor" stroke="currentColor" points="3.5936 -0.6123 3.5936 -0.3429 0.0421 0.1347 0.0421 -0.1347"/>
</g>
<g transform="translate(38.0176, 54.7504)">
<path stroke-width="0.0755" stroke-linejoin="round" stroke-linecap="round" stroke="currentColor" fill="currentColor" d="M1.0126 -3.2436C2.0108 -3.6229 3.6047 -2.9669 4.0467 -1.9948L4.0467 -1.9948C3.5615 -2.8621 1.9677 -3.5181 1.0126 -3.2436z"/>
</g>
<g transform="translate(59.5021, 51.0662)">
<polygon stroke-linejoin="round" stroke-linecap="round" stroke-width="0.0842" fill="currentColor" stroke="currentColor" points="3.8436 -0.1347 3.8436 0.1347 0.0421 0.1347 0.0421 -0.1347"/>
</g>
<g transform="translate(59.5021, 51.6735)">
<polygon stroke-linejoin="round" stroke-linecap="round" stroke-width="0.0842" fill="currentColor" stroke="currentColor" points="3.8436 -0.1347 3.8436 0.1347 0.0421 0.1347 0.0421 -0.1347"/>
</g>
<g transform="translate(61.0316, 50.2578)">
<text font-family="serif" font-style="italic" font-size="1.2869" text-anchor="start" fill="currentColor">
<tspan>3</tspan>
</text>
</g>
<g transform="translate(60.6748, 54.7504)">
<path stroke-width="0.0755" stroke-linejoin="round" stroke-linecap="round" stroke="currentColor" fill="currentColor" d="M1.0118 -4.2295C2.0085 -4.6112 3.6024 -3.9600 4.0467 -2.9896L4.0467 -2.9896C3.5596 -3.8551 1.9657 -4.5063 1.0118 -4.2295z"/>
</g>
<g transform="translate(65.0215, 51.6735)">
<polygon stroke-linejoin="round" stroke-linecap="round" stroke-width="0.0842" fill="currentColor" stroke="currentColor" points="3.5936 -0.0051 3.5936 0.2644 0.0421 0.1347 0.0421 -0.1347"/>
</g>
<g transform="translate(65.0215, 52.2807)">
<polygon stroke-linejoin="round" stroke-linecap="round" stroke-width="0.0842" fill="currentColor" stroke="currentColor" points="3.5936 -0.0051 3.5936 0.2644 0.0421 0.1347 0.0421 -0.1347"/>
</g>
<g transform="translate(66.4261, 50.9277)">
<text font-family="serif" font-style="italic" font-size="1.2869" text-anchor="start" fill="currentColor">
<tspan>3</tspan>
</text>
</g>
<g transform="translate(65.9443, 54.7504)">
<path stroke-width="0.0755" stroke-linejoin="round" stroke-linecap="round" stroke="currentColor" fill="currentColor" d="M1.0171 -3.5574C2.0251 -3.9216 3.6186 -3.2353 4.0467 -2.2527L4.0467 -2.2527C3.5738 -3.1313 1.9803 -3.8175 1.0171 -3.5574z"/>
</g>
<g transform="translate(70.2910, 51.9327)">
<polygon stroke-linejoin="round" stroke-linecap="round" stroke-width="0.0842" fill="currentColor" stroke="currentColor" points="3.5936 0.1041 3.5936 0.3735 0.0421 0.1347 0.0421 -0.1347"/>
</g>
<g transform="translate(70.2910, 52.5399)">
<polygon stroke-linejoin="round" stroke-linecap="round" stroke-width="0.0842" fill="currentColor" stroke="currentColor" points="3.5936 0.1041 3.5936 0.3735 0.0421 0.1347 0.0421 -0.1347"/>
</g>
<g transform="translate(26.3059, 50.6978)">
<polygon stroke-linejoin="round" stroke-linecap="round" stroke-width="0.0842" fill="currentColor" stroke="currentColor" points="3.8436 -0.1347 3.8436 0.1347 0.0421 0.1347 0.0421 -0.1347"/>
</g>
<g transform="translate(26.3059, 51.3050)">
<polygon stroke-linejoin="round" stroke-linecap="round" stroke-width="0.0842" fill="currentColor" stroke="currentColor" points="3.8436 -0.1347 3.8436 0.1347 0.0421 0.1347 0.0421 -0.1347"/>
</g>
<g transform="translate(27.8354, 49.8894)">
<text font-family="serif" font-style="italic" font-size="1.2869" text-anchor="start" fill="currentColor">
<tspan>3</tspan>
</text>
</g>
<g transform="translate(27.4786, 54.7504)">
<path stroke-width="0.0755" stroke-linejoin="round" stroke-linecap="round" stroke="currentColor" fill="currentColor" d="M1.0118 -4.5979C2.0085 -4.9796 3.6024 -4.3284 4.0467 -3.3580L4.0467 -3.3580C3.5596 -4.2235 1.9657 -4.8747 1.0118 -4.5979z"/>
</g>
<g transform="translate(31.8253, 51.1959)">
<polygon stroke-linejoin="round" stroke-linecap="round" stroke-width="0.0842" fill="currentColor" stroke="currentColor" points="3.5936 0.1041 3.5936 0.3735 0.0421 0.1347 0.0421 -0.1347"/>
</g>
<g transform="translate(31.8253, 51.8031)">
<polygon stroke-linejoin="round" stroke-linecap="round" stroke-width="0.0842" fill="currentColor" stroke="currentColor" points="3.5936 0.1041 3.5936 0.3735 0.0421 0.1347 0.0421 -0.1347"/>
</g>
<g transform="translate(33.2299, 50.5030)">
<text font-family="serif" font-style="italic" font-size="1.2869" text-anchor="start" fill="currentColor">
<tspan>3</tspan>
</text>
</g>
<g transform="translate(32.7481, 54.7504)">
<path stroke-width="0.0755" stroke-linejoin="round" stroke-linecap="round" stroke="currentColor" fill="currentColor" d="M1.0126 -3.9805C2.0108 -4.3598 3.6047 -3.7038 4.0467 -2.7317L4.0467 -2.7317C3.5615 -3.5990 1.9677 -4.2550 1.0126 -3.9805z"/>
</g>
<g transform="translate(37.0948, 51.9327)">
<polygon stroke-linejoin="round" stroke-linecap="round" stroke-width="0.0842" fill="currentColor" stroke="currentColor" points="3.5936 0.1041 3.5936 0.3735 0.0421 0.1347 0.0421 -0.1347"/>
</g>
<g transform="translate(37.0948, 52.5399)">
<polygon stroke-linejoin="round" stroke-linecap="round" stroke-width="0.0842" fill="currentColor" stroke="currentColor" points="3.5936 0.1041 3.5936 0.3735 0.0421 0.1347 0.0421 -0.1347"/>
</g>
<g transform="translate(38.4993, 51.2398)">
<text font-family="serif" font-style="italic" font-size="1.2869" text-anchor="start" fill="currentColor">
<tspan>3</tspan>
</text>
</g>
<g transform="translate(115.7542, 54.0136)">
<polygon stroke-linejoin="round" stroke-linecap="round" stroke-width="0.0842" fill="currentColor" stroke="currentColor" points="3.5936 -0.0051 3.5936 0.2644 0.0421 0.1347 0.0421 -0.1347"/>
</g>
<g transform="translate(115.7542, 54.6208)">
<polygon stroke-linejoin="round" stroke-linecap="round" stroke-width="0.0842" fill="currentColor" stroke="currentColor" points="3.5936 -0.0051 3.5936 0.2644 0.0421 0.1347 0.0421 -0.1347"/>
</g>
<g transform="translate(100.8686, 54.7504)">
<path stroke-width="0.0755" stroke-linejoin="round" stroke-linecap="round" stroke="currentColor" fill="currentColor" d="M1.0126 -3.2436C2.0108 -3.6229 3.6047 -2.9669 4.0467 -1.9948L4.0467 -1.9948C3.5615 -2.8621 1.9677 -3.5181 1.0126 -3.2436z"/>
</g>
<g transform="translate(105.2153, 52.5399)">
<polygon stroke-linejoin="round" stroke-linecap="round" stroke-width="0.0842" fill="currentColor" stroke="currentColor" points="3.5936 -0.0051 3.5936 0.2644 0.0421 0.1347 0.0421 -0.1347"/>
</g>
<g transform="translate(105.2153, 53.1471)">
<polygon stroke-linejoin="round" stroke-linecap="round" stroke-width="0.0842" fill="currentColor" stroke="currentColor" points="3.5936 -0.0051 3.5936 0.2644 0.0421 0.1347 0.0421 -0.1347"/>
</g>
<g transform="translate(106.6199, 51.7942)">
<text font-family="serif" font-style="italic" font-size="1.2869" text-anchor="start" fill="currentColor">
<tspan>3</tspan>
</text>
</g>
<g transform="translate(106.1381, 54.7504)">
<path stroke-width="0.0755" stroke-linejoin="round" stroke-linecap="round" stroke="currentColor" fill="currentColor" d="M0.9971 -2.6910C1.9624 -3.1202 3.5583 -2.5631 4.0467 -1.6264L4.0467 -1.6264C3.5210 -2.4561 1.9250 -3.0133 0.9971 -2.6910z"/>
</g>
<g transform="translate(110.4848, 53.2768)">
<polygon stroke-linejoin="round" stroke-linecap="round" stroke-width="0.0842" fill="currentColor" stroke="currentColor" points="3.5936 -0.0051 3.5936 0.2644 0.0421 0.1347 0.0421 -0.1347"/>
</g>
<g transform="translate(110.4848, 53.8840)">
<polygon stroke-linejoin="round" stroke-linecap="round" stroke-width="0.0842" fill="currentColor" stroke="currentColor" points="3.5936 -0.0051 3.5936 0.2644 0.0421 0.1347 0.0421 -0.1347"/>
</g>
<g transform="translate(111.8893, 52.5311)">
<text font-family="serif" font-style="italic" font-size="1.2869" text-anchor="start" fill="currentColor">
<tspan>3</tspan>
</text>
</g>
<g transform="translate(111.4075, 54.7504)">
<path stroke-width="0.0755" stroke-linejoin="round" stroke-linecap="round" stroke="currentColor" fill="currentColor" d="M0.9971 -1.9541C1.9624 -2.3834 3.5583 -1.8263 4.0467 -0.8896L4.0467 -0.8896C3.5210 -1.7193 1.9250 -2.2764 0.9971 -1.9541z"/>
</g>
<g transform="translate(101.3504, 51.2398)">
<text font-family="serif" font-style="italic" font-size="1.2869" text-anchor="start" fill="currentColor">
<tspan>3</tspan>
</text>
</g>
<g transform="translate(117.1588, 53.2679)">
<text font-family="serif" font-style="italic" font-size="1.2869" text-anchor="start" fill="currentColor">
<tspan>3</tspan>
</text>
</g>
<g transform="translate(116.6770, 54.7504)">
<path stroke-width="0.0755" stroke-linejoin="round" stroke-linecap="round" stroke="currentColor" fill="currentColor" d="M0.9750 -1.1463C2.0833 -1.5600 4.3293 -0.9670 5.0072 -0.0817L5.0072 -0.0817C4.3004 -0.8575 2.0543 -1.4505 0.9750 -1.1463z"/>
</g>
<g transform="translate(121.9842, 54.7504)">
<polygon stroke-linejoin="round" stroke-linecap="round" stroke-width="0.0842" fill="currentColor" stroke="currentColor" points="4.2495 -0.0051 4.2495 0.2644 0.0421 0.1347 0.0421 -0.1347"/>
</g>
<g transform="translate(121.9842, 55.3577)">
<polygon stroke-linejoin="round" stroke-linecap="round" stroke-width="0.0842" fill="currentColor" stroke="currentColor" points="4.2495 -0.0051 4.2495 0.2644 0.0421 0.1347 0.0421 -0.1347"/>
</g>
<g transform="translate(123.7167, 54.0051)">
<text font-family="serif" font-style="italic" font-size="1.2869" text-anchor="start" fill="currentColor">
<tspan>3</tspan>
</text>
</g>
<g transform="translate(122.9070, 54.7504)">
<path stroke-width="0.0755" stroke-linejoin="round" stroke-linecap="round" stroke="currentColor" fill="currentColor" d="M0.9458 -0.5762C2.1355 -1.5785 5.0710 -1.1005 5.9605 0.2404L5.9605 0.2404C5.0528 -0.9886 2.1172 -1.4667 0.9458 -0.5762z"/>
</g>
<g transform="translate(129.1675, 53.4064)">
<polygon stroke-linejoin="round" stroke-linecap="round" stroke-width="0.0842" fill="currentColor" stroke="currentColor" points="11.4360 -0.8716 11.4360 -0.6021 0.0421 0.1347 0.0421 -0.1347"/>
</g>
<g transform="translate(129.1675, 54.0136)">
<polygon stroke-linejoin="round" stroke-linecap="round" stroke-width="0.0842" fill="currentColor" stroke="currentColor" points="11.4360 -0.8716 11.4360 -0.6021 0.0421 0.1347 0.0421 -0.1347"/>
</g>
<g transform="translate(131.5799, 54.4660)">
<polygon stroke-linejoin="round" stroke-linecap="round" stroke-width="0.0842" fill="currentColor" stroke="currentColor" points="9.0236 -0.7167 9.0236 -0.4472 0.0421 0.1347 0.0421 -0.1347"/>
</g>
<g transform="translate(142.0793, 51.4347)">
<polygon stroke-linejoin="round" stroke-linecap="round" stroke-width="0.0842" fill="currentColor" stroke="currentColor" points="12.9925 -1.2400 12.9925 -0.9705 0.0421 0.1347 0.0421 -0.1347"/>
</g>
<g transform="translate(142.0793, 52.0419)">
<polygon stroke-linejoin="round" stroke-linecap="round" stroke-width="0.0842" fill="currentColor" stroke="currentColor" points="12.9925 -1.2400 12.9925 -0.9705 0.0421 0.1347 0.0421 -0.1347"/>
</g>
<g transform="translate(142.0793, 52.6491)">
<polygon stroke-linejoin="round" stroke-linecap="round" stroke-width="0.0842" fill="currentColor" stroke="currentColor" points="12.9925 -1.2400 12.9925 -0.9705 0.0421 0.1347 0.0421 -0.1347"/>
</g>
<g transform="translate(82.0027, 54.7504)">
<path stroke-width="0.0755" stroke-linejoin="round" stroke-linecap="round" stroke="currentColor" fill="currentColor" d="M0.8349 -3.8158C1.9768 -5.1755 7.1483 -6.1694 8.7129 -5.3297L8.7129 -5.3297C7.1697 -6.0581 1.9982 -5.0643 0.8349 -3.8158z"/>
</g>
<g transform="translate(71.6956, 51.2398)">
<text font-family="serif" font-style="italic" font-size="1.2869" text-anchor="start" fill="currentColor">
<tspan>3</tspan>
</text>
</g>
<g transform="translate(71.2138, 54.7504)">
<path stroke-width="0.0755" stroke-linejoin="round" stroke-linecap="round" stroke="currentColor" fill="currentColor" d="M1.0214 -3.2436C2.0389 -3.5930 3.6322 -2.8771 4.0467 -1.8843L4.0467 -1.8843C3.5858 -2.7737 1.9925 -3.4896 1.0214 -3.2436z"/>
</g>
<g transform="translate(75.5605, 52.5399)">
<polygon stroke-linejoin="round" stroke-linecap="round" stroke-width="0.0842" fill="currentColor" stroke="currentColor" points="3.5936 -0.0051 3.5936 0.2644 0.0421 0.1347 0.0421 -0.1347"/>
</g>
<g transform="translate(75.5605, 53.1471)">
<polygon stroke-linejoin="round" stroke-linecap="round" stroke-width="0.0842" fill="currentColor" stroke="currentColor" points="3.5936 -0.0051 3.5936 0.2644 0.0421 0.1347 0.0421 -0.1347"/>
</g>
<g transform="translate(76.9650, 51.7942)">
<text font-family="serif" font-style="italic" font-size="1.2869" text-anchor="start" fill="currentColor">
<tspan>3</tspan>
</text>
</g>
<g transform="translate(76.4832, 54.7504)">
<path stroke-width="0.0755" stroke-linejoin="round" stroke-linecap="round" stroke="currentColor" fill="currentColor" d="M1.0065 -2.6910C1.9917 -3.0903 3.5862 -2.4739 4.0467 -1.5159L4.0467 -1.5159C3.5453 -2.3682 1.9508 -2.9846 1.0065 -2.6910z"/>
</g>
<g transform="translate(80.8299, 53.2768)">
<polygon stroke-linejoin="round" stroke-linecap="round" stroke-width="0.0842" fill="currentColor" stroke="currentColor" points="3.8436 -0.7420 3.8436 -0.4725 0.0421 0.1347 0.0421 -0.1347"/>
</g>
<g transform="translate(80.8299, 53.8840)">
<polygon stroke-linejoin="round" stroke-linecap="round" stroke-width="0.0842" fill="currentColor" stroke="currentColor" points="3.8436 -0.7420 3.8436 -0.4725 0.0421 0.1347 0.0421 -0.1347"/>
</g>
<g transform="translate(82.3595, 52.1555)">
<text font-family="serif" font-style="italic" font-size="1.2869" text-anchor="start" fill="currentColor">
<tspan>3</tspan>
</text>
</g>
<g transform="translate(86.3494, 51.4347)">
<polygon stroke-linejoin="round" stroke-linecap="round" stroke-width="0.0842" fill="currentColor" stroke="currentColor" points="4.4456 -0.5032 4.4456 -0.2337 0.0421 0.1347 0.0421 -0.1347"/>
</g>
<g transform="translate(86.3494, 52.0419)">
<polygon stroke-linejoin="round" stroke-linecap="round" stroke-width="0.0842" fill="currentColor" stroke="currentColor" points="4.4456 -0.5032 4.4456 -0.2337 0.0421 0.1347 0.0421 -0.1347"/>
</g>
<g transform="translate(88.1799, 50.4371)">
<text font-family="serif" font-style="italic" font-size="1.2869" text-anchor="start" fill="currentColor">
<tspan>3</tspan>
</text>
</g>
<g transform="translate(93.5744, 51.1959)">
<polygon stroke-linejoin="round" stroke-linecap="round" stroke-width="0.0842" fill="currentColor" stroke="currentColor" points="4.6956 -0.1347 4.6956 0.1347 0.0421 0.1347 0.0421 -0.1347"/>
</g>
<g transform="translate(93.5744, 51.8031)">
<polygon stroke-linejoin="round" stroke-linecap="round" stroke-width="0.0842" fill="currentColor" stroke="currentColor" points="4.6956 -0.1347 4.6956 0.1347 0.0421 0.1347 0.0421 -0.1347"/>
</g>
<g transform="translate(95.5300, 50.3875)">
<text font-family="serif" font-style="italic" font-size="1.2869" text-anchor="start" fill="currentColor">
<tspan>3</tspan>
</text>
</g>
<g transform="translate(94.7472, 54.7504)">
<path stroke-width="0.0755" stroke-linejoin="round" stroke-linecap="round" stroke="currentColor" fill="currentColor" d="M0.9407 -4.0998C2.0148 -4.8225 4.4804 -4.4658 5.3057 -3.4685L5.3057 -3.4685C4.4642 -4.3537 1.9986 -4.7103 0.9407 -4.0998z"/>
</g>
<g transform="translate(99.9458, 51.9327)">
<polygon stroke-linejoin="round" stroke-linecap="round" stroke-width="0.0842" fill="currentColor" stroke="currentColor" points="3.5936 0.1041 3.5936 0.3735 0.0421 0.1347 0.0421 -0.1347"/>
</g>
<g transform="translate(99.9458, 52.5399)">
<polygon stroke-linejoin="round" stroke-linecap="round" stroke-width="0.0842" fill="currentColor" stroke="currentColor" points="3.5936 0.1041 3.5936 0.3735 0.0421 0.1347 0.0421 -0.1347"/>
</g>
<g transform="translate(152.6009, 52.9083)">
<path transform="scale(0.0029, -0.0029)" d="M208 139c61 0 117 -33 117 -99c0 -71 -52 -119 -99 -147c-34 -20 -71 -32 -110 -32c-61 0 -116 33 -116 99c0 71 51 119 98 147c34 20 71 32 110 32z" fill="currentColor"/>
</g>
<g transform="translate(153.4960, 54.7504)">
<rect x="-0.0614" y="-4.2839" width="0.1228" height="2.3225" ry="0.0421" fill="currentColor"/>
</g>
<g transform="translate(154.1574, 53.2768)">
<path transform="scale(0.0029, -0.0029)" d="M208 139c61 0 117 -33 117 -99c0 -71 -52 -119 -99 -147c-34 -20 -71 -32 -110 -32c-61 0 -116 33 -116 99c0 71 51 119 98 147c34 20 71 32 110 32z" fill="currentColor"/>
</g>
<g transform="translate(155.0525, 54.7504)">
<rect x="-0.0614" y="-4.4158" width="0.1228" height="2.8229" ry="0.0421" fill="currentColor"/>
</g>
<g transform="translate(155.7139, 53.6452)">
<path transform="scale(0.0029, -0.0029)" d="M208 139c61 0 117 -33 117 -99c0 -71 -52 -119 -99 -147c-34 -20 -71 -32 -110 -32c-61 0 -116 33 -116 99c0 71 51 119 98 147c34 20 71 32 110 32z" fill="currentColor"/>
</g>
<g transform="translate(156.6090, 54.7504)">
<rect x="-0.0614" y="-3.5464" width="0.1228" height="2.3219" ry="0.0421" fill="currentColor"/>
</g>
<g transform="translate(157.2704, 54.0136)">
<path transform="scale(0.0029, -0.0029)" d="M208 139c61 0 117 -33 117 -99c0 -71 -52 -119 -99 -147c-34 -20 -71 -32 -110 -32c-61 0 -116 33 -116 99c0 71 51 119 98 147c34 20 71 32 110 32z" fill="currentColor"/>
</g>
<g transform="translate(158.1655, 54.7504)">
<rect x="-0.0614" y="-3.3382" width="0.1228" height="2.4821" ry="0.0421" fill="currentColor"/>
</g>
<g transform="translate(150.3830, 54.7504)">
<rect x="-0.0614" y="-4.0199" width="0.1228" height="2.7954" ry="0.0421" fill="currentColor"/>
</g>
<g transform="translate(145.2144, 54.3820)">
<path transform="scale(0.0029, -0.0029)" d="M0 114c0 12 7 22 18 26l37 15v151c0 12 10 22 22 22s22 -10 22 -22v-134l77 29v152c0 12 10 22 22 22s22 -10 22 -22v-134l16 6c3 1 8 2 11 2c15 0 28 -12 28 -28v-50c0 -12 -7 -23 -18 -27l-37 -14v-152l16 7c3 1 8 2 11 2c15 0 28 -13 28 -29v-50c0 -12 -7 -22 -18 -26
l-37 -15v-151c0 -12 -10 -22 -22 -22s-22 10 -22 22v134l-77 -29v-152c0 -12 -10 -22 -22 -22s-22 10 -22 22v134l-16 -6c-3 -1 -8 -2 -11 -2c-15 0 -28 12 -28 28v50c0 12 7 23 18 27l37 14v152l-16 -7c-3 -1 -8 -2 -11 -2c-15 0 -28 13 -28 29v50zM176 91l-77 -30v-152
l77 30v152z" fill="currentColor"/>
</g>
<g transform="translate(147.9314, 54.0136)">
<path transform="scale(0.0029, -0.0029)" d="M208 139c61 0 117 -33 117 -99c0 -71 -52 -119 -99 -147c-34 -20 -71 -32 -110 -32c-61 0 -116 33 -116 99c0 71 51 119 98 147c34 20 71 32 110 32z" fill="currentColor"/>
</g>
<g transform="translate(148.8265, 54.7504)">
<rect x="-0.0614" y="-3.8879" width="0.1228" height="3.0318" ry="0.0421" fill="currentColor"/>
</g>
<g transform="translate(149.4879, 53.6452)">
<path transform="scale(0.0029, -0.0029)" d="M208 139c61 0 117 -33 117 -99c0 -71 -52 -119 -99 -147c-34 -20 -71 -32 -110 -32c-61 0 -116 33 -116 99c0 71 51 119 98 147c34 20 71 32 110 32z" fill="currentColor"/>
</g>
<g transform="translate(151.0444, 53.2768)">
<path transform="scale(0.0029, -0.0029)" d="M208 139c61 0 117 -33 117 -99c0 -71 -52 -119 -99 -147c-34 -20 -71 -32 -110 -32c-61 0 -116 33 -116 99c0 71 51 119 98 147c34 20 71 32 110 32z" fill="currentColor"/>
</g>
<g transform="translate(151.9395, 54.7504)">
<rect x="-0.0614" y="-4.1519" width="0.1228" height="2.5590" ry="0.0421" fill="currentColor"/>
</g>
<g transform="translate(163.4963, 55.4873)">
<path transform="scale(0.0029, -0.0029)" d="M208 139c61 0 117 -33 117 -99c0 -71 -52 -119 -99 -147c-34 -20 -71 -32 -110 -32c-61 0 -116 33 -116 99c0 71 51 119 98 147c34 20 71 32 110 32z" fill="currentColor"/>
</g>
<g transform="translate(164.3914, 54.7504)">
<rect x="-0.0614" y="-2.5055" width="0.1228" height="3.1231" ry="0.0421" fill="currentColor"/>
</g>
<g transform="translate(165.0528, 55.8557)">
<path transform="scale(0.0029, -0.0029)" d="M208 139c61 0 117 -33 117 -99c0 -71 -52 -119 -99 -147c-34 -20 -71 -32 -110 -32c-61 0 -116 33 -116 99c0 71 51 119 98 147c34 20 71 32 110 32z" fill="currentColor"/>
</g>
<g transform="translate(165.9479, 54.7504)">
<rect x="-0.0614" y="-2.2973" width="0.1228" height="3.2833" ry="0.0421" fill="currentColor"/>
</g>
<g transform="translate(166.6093, 56.2241)">
<path transform="scale(0.0029, -0.0029)" d="M208 139c61 0 117 -33 117 -99c0 -71 -52 -119 -99 -147c-34 -20 -71 -32 -110 -32c-61 0 -116 33 -116 99c0 71 51 119 98 147c34 20 71 32 110 32z" fill="currentColor"/>
</g>
<g transform="translate(167.5044, 54.7504)">
<rect x="-0.0614" y="-2.0891" width="0.1228" height="3.4436" ry="0.0421" fill="currentColor"/>
</g>
<g transform="translate(160.3833, 54.7504)">
<path transform="scale(0.0029, -0.0029)" d="M208 139c61 0 117 -33 117 -99c0 -71 -52 -119 -99 -147c-34 -20 -71 -32 -110 -32c-61 0 -116 33 -116 99c0 71 51 119 98 147c34 20 71 32 110 32z" fill="currentColor"/>
</g>
<g transform="translate(158.8269, 54.3820)">
<path transform="scale(0.0029, -0.0029)" d="M208 139c61 0 117 -33 117 -99c0 -71 -52 -119 -99 -147c-34 -20 -71 -32 -110 -32c-61 0 -116 33 -116 99c0 71 51 119 98 147c34 20 71 32 110 32z" fill="currentColor"/>
</g>
<g transform="translate(159.7220, 54.7504)">
<rect x="-0.0614" y="-3.1300" width="0.1228" height="2.6424" ry="0.0421" fill="currentColor"/>
</g>
<g transform="translate(161.2784, 54.7504)">
<rect x="-0.0614" y="-2.9218" width="0.1228" height="2.8026" ry="0.0421" fill="currentColor"/>
</g>
<g transform="translate(161.9398, 55.1189)">
<path transform="scale(0.0029, -0.0029)" d="M208 139c61 0 117 -33 117 -99c0 -71 -52 -119 -99 -147c-34 -20 -71 -32 -110 -32c-61 0 -116 33 -116 99c0 71 51 119 98 147c34 20 71 32 110 32z" fill="currentColor"/>
</g>
<g transform="translate(162.8349, 54.7504)">
<rect x="-0.0614" y="-2.7137" width="0.1228" height="2.9628" ry="0.0421" fill="currentColor"/>
</g>
<g transform="translate(51.4581, 54.7504)">
<rect x="-0.0614" y="-2.8082" width="0.1228" height="2.3205" ry="0.0421" fill="currentColor"/>
</g>
<g transform="translate(52.3195, 54.0136)">
<path transform="scale(0.0029, -0.0029)" d="M208 139c61 0 117 -33 117 -99c0 -71 -52 -119 -99 -147c-34 -20 -71 -32 -110 -32c-61 0 -116 33 -116 99c0 71 51 119 98 147c34 20 71 32 110 32z" fill="currentColor"/>
</g>
<g transform="translate(53.2146, 54.7504)">
<rect x="-0.0614" y="-3.0851" width="0.1228" height="2.2290" ry="0.0421" fill="currentColor"/>
</g>
<g transform="translate(50.5630, 54.3820)">
<path transform="scale(0.0029, -0.0029)" d="M208 139c61 0 117 -33 117 -99c0 -71 -52 -119 -99 -147c-34 -20 -71 -32 -110 -32c-61 0 -116 33 -116 99c0 71 51 119 98 147c34 20 71 32 110 32z" fill="currentColor"/>
</g>
<g transform="translate(54.0759, 53.6452)">
<path transform="scale(0.0029, -0.0029)" d="M208 139c61 0 117 -33 117 -99c0 -71 -52 -119 -99 -147c-34 -20 -71 -32 -110 -32c-61 0 -116 33 -116 99c0 71 51 119 98 147c34 20 71 32 110 32z" fill="currentColor"/>
</g>
<g transform="translate(54.9710, 54.7504)">
<rect x="-0.0614" y="-3.3158" width="0.1228" height="2.0913" ry="0.0421" fill="currentColor"/>
</g>
<g transform="translate(55.8324, 53.2768)">
<path transform="scale(0.0029, -0.0029)" d="M208 139c61 0 117 -33 117 -99c0 -71 -52 -119 -99 -147c-34 -20 -71 -32 -110 -32c-61 0 -116 33 -116 99c0 71 51 119 98 147c34 20 71 32 110 32z" fill="currentColor"/>
</g>
<g transform="translate(56.7275, 54.7504)">
<rect x="-0.0614" y="-3.5465" width="0.1228" height="1.9536" ry="0.0421" fill="currentColor"/>
</g>
<g transform="translate(45.0435, 55.1189)">
<path transform="scale(0.0029, -0.0029)" d="M208 139c61 0 117 -33 117 -99c0 -71 -52 -119 -99 -147c-34 -20 -71 -32 -110 -32c-61 0 -116 33 -116 99c0 71 51 119 98 147c34 20 71 32 110 32z" fill="currentColor"/>
</g>
<g transform="translate(45.9386, 54.7504)">
<rect x="-0.0614" y="-2.0831" width="0.1228" height="2.3323" ry="0.0421" fill="currentColor"/>
</g>
<g transform="translate(46.8000, 55.4873)">
<path transform="scale(0.0029, -0.0029)" d="M208 139c61 0 117 -33 117 -99c0 -71 -52 -119 -99 -147c-34 -20 -71 -32 -110 -32c-61 0 -116 33 -116 99c0 71 51 119 98 147c34 20 71 32 110 32z" fill="currentColor"/>
</g>
<g transform="translate(47.6951, 54.7504)">
<rect x="-0.0614" y="-2.2201" width="0.1228" height="2.8377" ry="0.0421" fill="currentColor"/>
</g>
<g transform="translate(48.8065, 54.7504)">
<path transform="scale(0.0029, -0.0029)" d="M208 139c61 0 117 -33 117 -99c0 -71 -52 -119 -99 -147c-34 -20 -71 -32 -110 -32c-61 0 -116 33 -116 99c0 71 51 119 98 147c34 20 71 32 110 32z" fill="currentColor"/>
</g>
<g transform="translate(49.7016, 54.7504)">
<rect x="-0.0614" y="-2.5337" width="0.1228" height="2.4144" ry="0.0421" fill="currentColor"/>
</g>
<g transform="translate(62.4313, 53.2768)">
<path transform="scale(0.0029, -0.0029)" d="M208 139c61 0 117 -33 117 -99c0 -71 -52 -119 -99 -147c-34 -20 -71 -32 -110 -32c-61 0 -116 33 -116 99c0 71 51 119 98 147c34 20 71 32 110 32z" fill="currentColor"/>
</g>
<g transform="translate(63.3264, 54.7504)">
<rect x="-0.0614" y="-3.6842" width="0.1228" height="2.0913" ry="0.0421" fill="currentColor"/>
</g>
<g transform="translate(61.5699, 54.7504)">
<rect x="-0.0614" y="-3.6842" width="0.1228" height="1.7229" ry="0.0421" fill="currentColor"/>
</g>
<g transform="translate(64.1878, 53.6452)">
<path transform="scale(0.0029, -0.0029)" d="M208 139c61 0 117 -33 117 -99c0 -71 -52 -119 -99 -147c-34 -20 -71 -32 -110 -32c-61 0 -116 33 -116 99c0 71 51 119 98 147c34 20 71 32 110 32z" fill="currentColor"/>
</g>
<g transform="translate(65.0829, 54.7504)">
<rect x="-0.0614" y="-3.0748" width="0.1228" height="1.8503" ry="0.0421" fill="currentColor"/>
</g>
<g transform="translate(65.9443, 53.6452)">
<path transform="scale(0.0029, -0.0029)" d="M208 139c61 0 117 -33 117 -99c0 -71 -52 -119 -99 -147c-34 -20 -71 -32 -110 -32c-61 0 -116 33 -116 99c0 71 51 119 98 147c34 20 71 32 110 32z" fill="currentColor"/>
</g>
<g transform="translate(66.8394, 54.7504)">
<rect x="-0.0614" y="-3.0122" width="0.1228" height="1.7877" ry="0.0421" fill="currentColor"/>
</g>
<g transform="translate(58.6683, 56.9610)">
<path transform="scale(0.0029, -0.0029)" d="M208 139c61 0 117 -33 117 -99c0 -71 -52 -119 -99 -147c-34 -20 -71 -32 -110 -32c-61 0 -116 33 -116 99c0 71 51 119 98 147c34 20 71 32 110 32z" fill="currentColor"/>
</g>
<g transform="translate(59.5635, 54.7504)">
<rect x="-0.0614" y="-3.6842" width="0.1228" height="5.7755" ry="0.0421" fill="currentColor"/>
</g>
<g transform="translate(60.6748, 52.9083)">
<path transform="scale(0.0029, -0.0029)" d="M208 139c61 0 117 -33 117 -99c0 -71 -52 -119 -99 -147c-34 -20 -71 -32 -110 -32c-61 0 -116 33 -116 99c0 71 51 119 98 147c34 20 71 32 110 32z" fill="currentColor"/>
</g>
<g transform="translate(27.4786, 52.5399)">
<path transform="scale(0.0029, -0.0029)" d="M208 139c61 0 117 -33 117 -99c0 -71 -52 -119 -99 -147c-34 -20 -71 -32 -110 -32c-61 0 -116 33 -116 99c0 71 51 119 98 147c34 20 71 32 110 32z" fill="currentColor"/>
</g>
<g transform="translate(28.3737, 54.7504)">
<rect x="-0.0614" y="-4.0526" width="0.1228" height="1.7229" ry="0.0421" fill="currentColor"/>
</g>
<g transform="translate(29.2351, 52.9083)">
<path transform="scale(0.0029, -0.0029)" d="M208 139c61 0 117 -33 117 -99c0 -71 -52 -119 -99 -147c-34 -20 -71 -32 -110 -32c-61 0 -116 33 -116 99c0 71 51 119 98 147c34 20 71 32 110 32z" fill="currentColor"/>
</g>
<g transform="translate(30.1302, 54.7504)">
<rect x="-0.0614" y="-4.0526" width="0.1228" height="2.0913" ry="0.0421" fill="currentColor"/>
</g>
<g transform="translate(30.9916, 53.2768)">
<path transform="scale(0.0029, -0.0029)" d="M208 139c61 0 117 -33 117 -99c0 -71 -52 -119 -99 -147c-34 -20 -71 -32 -110 -32c-61 0 -116 33 -116 99c0 71 51 119 98 147c34 20 71 32 110 32z" fill="currentColor"/>
</g>
<g transform="translate(31.8867, 54.7504)">
<rect x="-0.0614" y="-3.5506" width="0.1228" height="1.9576" ry="0.0421" fill="currentColor"/>
</g>
<g transform="translate(128.3338, 54.7504)">
<path stroke-width="0.0755" stroke-linejoin="round" stroke-linecap="round" stroke="currentColor" fill="currentColor" d="M0.8891 -1.8933C3.2062 -5.7800 37.6195 -6.4308 40.0820 -2.6344L40.0820 -2.6344C37.6217 -6.3174 3.2084 -5.6667 0.8891 -1.8933z"/>
</g>
<g transform="translate(18.7702, 55.4873)">
<path transform="scale(0.0029, -0.0029)" d="M381 266h9c157 0 258 -130 258 -264c0 -77 -33 -156 -108 -212c-22 -16 -46 -28 -71 -36c2 -32 3 -65 3 -97c0 -21 -1 -43 -2 -64c-7 -122 -91 -230 -211 -230c-108 0 -197 88 -197 197c0 58 54 104 113 104c54 0 95 -48 95 -104c0 -52 -43 -95 -95 -95c-8 0 -16 2 -24 4
c25 -35 65 -59 111 -59c95 0 155 92 161 190c1 20 2 39 2 59c0 28 -1 55 -3 83c-29 -5 -57 -7 -87 -7c-189 0 -333 174 -333 377c0 176 128 307 242 443c-21 62 -41 124 -50 189c-7 52 -8 106 -8 159c0 113 54 219 146 286c8 6 21 7 29 0c72 -82 136 -244 136 -357
c0 -141 -83 -253 -174 -362c22 -67 41 -135 58 -204zM464 -200c64 25 108 93 108 159c0 87 -62 173 -163 187c24 -113 43 -225 55 -346zM338 -218c27 0 54 2 80 6c-13 125 -33 242 -58 359c-79 -7 -123 -59 -123 -116c0 -43 24 -89 78 -120c5 -5 8 -11 8 -17
c0 -13 -11 -24 -24 -24c-3 0 -7 0 -10 2c-81 44 -119 116 -119 187c0 90 60 178 164 201c-14 56 -30 112 -47 167c-104 -122 -208 -245 -208 -404c0 -132 127 -241 259 -241zM239 782c0 -69 22 -127 41 -183c77 97 140 199 140 323c0 49 -3 69 -19 113
c-99 -45 -162 -145 -162 -253z" fill="currentColor"/>
</g>
<g transform="translate(22.3827, 54.7504)">
<path transform="scale(0.0029, -0.0029)" d="M33 35l-2 -60v-11c0 -21 2 -43 5 -64c42 38 87 81 87 138c0 32 -13 63 -41 63c-31 0 -48 -32 -49 -66zM32 446l-9 -337c25 26 59 40 95 40c50 0 82 -51 82 -105c0 -77 -80 -117 -137 -169c-18 -17 -26 -48 -52 -48c-16 0 -28 15 -28 32l-15 587c10 6 21 8 32 8
s22 -2 32 -8z" fill="currentColor"/>
</g>
<g transform="translate(32.7481, 53.2768)">
<path transform="scale(0.0029, -0.0029)" d="M208 139c61 0 117 -33 117 -99c0 -71 -52 -119 -99 -147c-34 -20 -71 -32 -110 -32c-61 0 -116 33 -116 99c0 71 51 119 98 147c34 20 71 32 110 32z" fill="currentColor"/>
</g>
<g transform="translate(25.4721, 56.5926)">
<path transform="scale(0.0029, -0.0029)" d="M208 139c61 0 117 -33 117 -99c0 -71 -52 -119 -99 -147c-34 -20 -71 -32 -110 -32c-61 0 -116 33 -116 99c0 71 51 119 98 147c34 20 71 32 110 32z" fill="currentColor"/>
</g>
<g transform="translate(26.3672, 54.7504)">
<rect x="-0.0614" y="-4.0526" width="0.1228" height="5.7755" ry="0.0421" fill="currentColor"/>
</g>
<g transform="translate(41.5305, 54.7504)">
<path transform="scale(0.0029, -0.0029)" d="M208 139c61 0 117 -33 117 -99c0 -71 -52 -119 -99 -147c-34 -20 -71 -32 -110 -32c-61 0 -116 33 -116 99c0 71 51 119 98 147c34 20 71 32 110 32z" fill="currentColor"/>
</g>
<g transform="translate(39.7740, 54.3820)">
<path transform="scale(0.0029, -0.0029)" d="M208 139c61 0 117 -33 117 -99c0 -71 -52 -119 -99 -147c-34 -20 -71 -32 -110 -32c-61 0 -116 33 -116 99c0 71 51 119 98 147c34 20 71 32 110 32z" fill="currentColor"/>
</g>
<g transform="translate(40.6691, 54.7504)">
<rect x="-0.0614" y="-2.5830" width="0.1228" height="2.0953" ry="0.0421" fill="currentColor"/>
</g>
<g transform="translate(42.4256, 54.7504)">
<rect x="-0.0614" y="-2.2083" width="0.1228" height="2.0891" ry="0.0421" fill="currentColor"/>
</g>
<g transform="translate(43.2870, 54.7504)">
<path transform="scale(0.0029, -0.0029)" d="M208 139c61 0 117 -33 117 -99c0 -71 -52 -119 -99 -147c-34 -20 -71 -32 -110 -32c-61 0 -116 33 -116 99c0 71 51 119 98 147c34 20 71 32 110 32z" fill="currentColor"/>
</g>
<g transform="translate(44.1821, 54.7504)">
<rect x="-0.0614" y="-2.1457" width="0.1228" height="2.0265" ry="0.0421" fill="currentColor"/>
</g>
<g transform="translate(33.6432, 54.7504)">
<rect x="-0.0614" y="-3.4352" width="0.1228" height="1.8423" ry="0.0421" fill="currentColor"/>
</g>
<g transform="translate(34.5046, 53.6452)">
<path transform="scale(0.0029, -0.0029)" d="M208 139c61 0 117 -33 117 -99c0 -71 -52 -119 -99 -147c-34 -20 -71 -32 -110 -32c-61 0 -116 33 -116 99c0 71 51 119 98 147c34 20 71 32 110 32z" fill="currentColor"/>
</g>
<g transform="translate(35.3997, 54.7504)">
<rect x="-0.0614" y="-3.3198" width="0.1228" height="2.0953" ry="0.0421" fill="currentColor"/>
</g>
<g transform="translate(101.7637, 54.7504)">
<rect x="-0.0614" y="-2.6983" width="0.1228" height="1.8423" ry="0.0421" fill="currentColor"/>
</g>
<g transform="translate(36.2611, 54.0136)">
<path transform="scale(0.0029, -0.0029)" d="M208 139c61 0 117 -33 117 -99c0 -71 -52 -119 -99 -147c-34 -20 -71 -32 -110 -32c-61 0 -116 33 -116 99c0 71 51 119 98 147c34 20 71 32 110 32z" fill="currentColor"/>
</g>
<g transform="translate(37.1562, 54.7504)">
<rect x="-0.0614" y="-2.8137" width="0.1228" height="1.9576" ry="0.0421" fill="currentColor"/>
</g>
<g transform="translate(38.0176, 54.0136)">
<path transform="scale(0.0029, -0.0029)" d="M208 139c61 0 117 -33 117 -99c0 -71 -52 -119 -99 -147c-34 -20 -71 -32 -110 -32c-61 0 -116 33 -116 99c0 71 51 119 98 147c34 20 71 32 110 32z" fill="currentColor"/>
</g>
<g transform="translate(38.9127, 54.7504)">
<rect x="-0.0614" y="-2.6983" width="0.1228" height="1.8423" ry="0.0421" fill="currentColor"/>
</g>
<g transform="translate(85.5157, 54.3820)">
<path transform="scale(0.0029, -0.0029)" d="M208 139c61 0 117 -33 117 -99c0 -71 -52 -119 -99 -147c-34 -20 -71 -32 -110 -32c-61 0 -116 33 -116 99c0 71 51 119 98 147c34 20 71 32 110 32z" fill="currentColor"/>
</g>
<g transform="translate(86.4108, 54.7504)">
<rect x="-0.0614" y="-3.3208" width="0.1228" height="2.8332" ry="0.0421" fill="currentColor"/>
</g>
<g transform="translate(87.2722, 54.0136)">
<path transform="scale(0.0029, -0.0029)" d="M208 139c61 0 117 -33 117 -99c0 -71 -52 -119 -99 -147c-34 -20 -71 -32 -110 -32c-61 0 -116 33 -116 99c0 71 51 119 98 147c34 20 71 32 110 32z" fill="currentColor"/>
</g>
<g transform="translate(88.1673, 54.7504)">
<rect x="-0.0614" y="-3.4650" width="0.1228" height="2.6090" ry="0.0421" fill="currentColor"/>
</g>
<g transform="translate(89.8806, 53.6452)">
<path transform="scale(0.0029, -0.0029)" d="M208 139c61 0 117 -33 117 -99c0 -71 -52 -119 -99 -147c-34 -20 -71 -32 -110 -32c-61 0 -116 33 -116 99c0 71 51 119 98 147c34 20 71 32 110 32z" fill="currentColor"/>
</g>
<g transform="translate(90.7757, 54.7504)">
<rect x="-0.0614" y="-3.6792" width="0.1228" height="2.4547" ry="0.0421" fill="currentColor"/>
</g>
<g transform="translate(88.9411, 53.6452)">
<path transform="scale(0.0029, -0.0029)" d="M33 35l-2 -60v-11c0 -21 2 -43 5 -64c42 38 87 81 87 138c0 32 -13 63 -41 63c-31 0 -48 -32 -49 -66zM32 446l-9 -337c25 26 59 40 95 40c50 0 82 -51 82 -105c0 -77 -80 -117 -137 -169c-18 -17 -26 -48 -52 -48c-16 0 -28 15 -28 32l-15 587c10 6 21 8 32 8
s22 -2 32 -8z" fill="currentColor"/>
</g>
<g transform="translate(79.9962, 55.8557)">
<path transform="scale(0.0029, -0.0029)" d="M208 139c61 0 117 -33 117 -99c0 -71 -52 -119 -99 -147c-34 -20 -71 -32 -110 -32c-61 0 -116 33 -116 99c0 71 51 119 98 147c34 20 71 32 110 32z" fill="currentColor"/>
</g>
<g transform="translate(80.8913, 54.7504)">
<rect x="-0.0614" y="-1.4833" width="0.1228" height="2.4693" ry="0.0421" fill="currentColor"/>
</g>
<g transform="translate(82.0027, 55.1189)">
<path transform="scale(0.0029, -0.0029)" d="M208 139c61 0 117 -33 117 -99c0 -71 -52 -119 -99 -147c-34 -20 -71 -32 -110 -32c-61 0 -116 33 -116 99c0 71 51 119 98 147c34 20 71 32 110 32z" fill="currentColor"/>
</g>
<g transform="translate(82.8978, 54.7504)">
<rect x="-0.0614" y="-1.7968" width="0.1228" height="2.0460" ry="0.0421" fill="currentColor"/>
</g>
<g transform="translate(83.7592, 54.7504)">
<path transform="scale(0.0029, -0.0029)" d="M208 139c61 0 117 -33 117 -99c0 -71 -52 -119 -99 -147c-34 -20 -71 -32 -110 -32c-61 0 -116 33 -116 99c0 71 51 119 98 147c34 20 71 32 110 32z" fill="currentColor"/>
</g>
<g transform="translate(84.6543, 54.7504)">
<rect x="-0.0614" y="-2.0713" width="0.1228" height="1.9521" ry="0.0421" fill="currentColor"/>
</g>
<g transform="translate(97.3556, 53.6452)">
<path transform="scale(0.0029, -0.0029)" d="M208 139c61 0 117 -33 117 -99c0 -71 -52 -119 -99 -147c-34 -20 -71 -32 -110 -32c-61 0 -116 33 -116 99c0 71 51 119 98 147c34 20 71 32 110 32z" fill="currentColor"/>
</g>
<g transform="translate(98.2507, 54.7504)">
<rect x="-0.0614" y="-3.5546" width="0.1228" height="2.3301" ry="0.0421" fill="currentColor"/>
</g>
<g transform="translate(96.4162, 53.6452)">
<path transform="scale(0.0029, -0.0029)" d="M33 35l-2 -60v-11c0 -21 2 -43 5 -64c42 38 87 81 87 138c0 32 -13 63 -41 63c-31 0 -48 -32 -49 -66zM32 446l-9 -337c25 26 59 40 95 40c50 0 82 -51 82 -105c0 -77 -80 -117 -137 -169c-18 -17 -26 -48 -52 -48c-16 0 -28 15 -28 32l-15 587c10 6 21 8 32 8
s22 -2 32 -8z" fill="currentColor"/>
</g>
<g transform="translate(99.1121, 54.0136)">
<path transform="scale(0.0029, -0.0029)" d="M208 139c61 0 117 -33 117 -99c0 -71 -52 -119 -99 -147c-34 -20 -71 -32 -110 -32c-61 0 -116 33 -116 99c0 71 51 119 98 147c34 20 71 32 110 32z" fill="currentColor"/>
</g>
<g transform="translate(100.0072, 54.7504)">
<rect x="-0.0614" y="-2.8137" width="0.1228" height="1.9576" ry="0.0421" fill="currentColor"/>
</g>
<g transform="translate(100.8686, 54.0136)">
<path transform="scale(0.0029, -0.0029)" d="M208 139c61 0 117 -33 117 -99c0 -71 -52 -119 -99 -147c-34 -20 -71 -32 -110 -32c-61 0 -116 33 -116 99c0 71 51 119 98 147c34 20 71 32 110 32z" fill="currentColor"/>
</g>
<g transform="translate(92.7407, 57.3294)">
<path transform="scale(0.0029, -0.0029)" d="M208 139c61 0 117 -33 117 -99c0 -71 -52 -119 -99 -147c-34 -20 -71 -32 -110 -32c-61 0 -116 33 -116 99c0 71 51 119 98 147c34 20 71 32 110 32z" fill="currentColor"/>
</g>
<g transform="translate(93.6358, 54.7504)">
<rect x="-0.0614" y="-3.5546" width="0.1228" height="6.0143" ry="0.0421" fill="currentColor"/>
</g>
<g transform="translate(94.7472, 53.2768)">
<path transform="scale(0.0029, -0.0029)" d="M208 139c61 0 117 -33 117 -99c0 -71 -52 -119 -99 -147c-34 -20 -71 -32 -110 -32c-61 0 -116 33 -116 99c0 71 51 119 98 147c34 20 71 32 110 32z" fill="currentColor"/>
</g>
<g transform="translate(95.6423, 54.7504)">
<rect x="-0.0614" y="-3.5546" width="0.1228" height="1.9617" ry="0.0421" fill="currentColor"/>
</g>
<g transform="translate(77.3783, 54.7504)">
<rect x="-0.0614" y="-2.1457" width="0.1228" height="2.3949" ry="0.0421" fill="currentColor"/>
</g>
<g transform="translate(76.4832, 55.1189)">
<path transform="scale(0.0029, -0.0029)" d="M208 139c61 0 117 -33 117 -99c0 -71 -52 -119 -99 -147c-34 -20 -71 -32 -110 -32c-61 0 -116 33 -116 99c0 71 51 119 98 147c34 20 71 32 110 32z" fill="currentColor"/>
</g>
<g transform="translate(69.4573, 54.3820)">
<path transform="scale(0.0029, -0.0029)" d="M208 139c61 0 117 -33 117 -99c0 -71 -52 -119 -99 -147c-34 -20 -71 -32 -110 -32c-61 0 -116 33 -116 99c0 71 51 119 98 147c34 20 71 32 110 32z" fill="currentColor"/>
</g>
<g transform="translate(70.3524, 54.7504)">
<rect x="-0.0614" y="-2.8137" width="0.1228" height="2.3261" ry="0.0421" fill="currentColor"/>
</g>
<g transform="translate(75.6218, 54.7504)">
<rect x="-0.0614" y="-2.2083" width="0.1228" height="2.4575" ry="0.0421" fill="currentColor"/>
</g>
<g transform="translate(74.7267, 55.1189)">
<path transform="scale(0.0029, -0.0029)" d="M208 139c61 0 117 -33 117 -99c0 -71 -52 -119 -99 -147c-34 -20 -71 -32 -110 -32c-61 0 -116 33 -116 99c0 71 51 119 98 147c34 20 71 32 110 32z" fill="currentColor"/>
</g>
<g transform="translate(71.2138, 54.3820)">
<path transform="scale(0.0029, -0.0029)" d="M208 139c61 0 117 -33 117 -99c0 -71 -52 -119 -99 -147c-34 -20 -71 -32 -110 -32c-61 0 -116 33 -116 99c0 71 51 119 98 147c34 20 71 32 110 32z" fill="currentColor"/>
</g>
<g transform="translate(73.8654, 54.7504)">
<rect x="-0.0614" y="-2.5830" width="0.1228" height="2.4638" ry="0.0421" fill="currentColor"/>
</g>
<g transform="translate(72.9702, 54.7504)">
<path transform="scale(0.0029, -0.0029)" d="M208 139c61 0 117 -33 117 -99c0 -71 -52 -119 -99 -147c-34 -20 -71 -32 -110 -32c-61 0 -116 33 -116 99c0 71 51 119 98 147c34 20 71 32 110 32z" fill="currentColor"/>
</g>
<g transform="translate(72.1089, 54.7504)">
<rect x="-0.0614" y="-2.6983" width="0.1228" height="2.2107" ry="0.0421" fill="currentColor"/>
</g>
<g transform="translate(68.5959, 54.7504)">
<rect x="-0.0614" y="-2.9496" width="0.1228" height="2.0935" ry="0.0421" fill="currentColor"/>
</g>
<g transform="translate(79.1348, 54.7504)">
<rect x="-0.0614" y="-2.0831" width="0.1228" height="2.7007" ry="0.0421" fill="currentColor"/>
</g>
<g transform="translate(78.2397, 55.4873)">
<path transform="scale(0.0029, -0.0029)" d="M208 139c61 0 117 -33 117 -99c0 -71 -52 -119 -99 -147c-34 -20 -71 -32 -110 -32c-61 0 -116 33 -116 99c0 71 51 119 98 147c34 20 71 32 110 32z" fill="currentColor"/>
</g>
<g transform="translate(67.7008, 54.0136)">
<path transform="scale(0.0029, -0.0029)" d="M208 139c61 0 117 -33 117 -99c0 -71 -52 -119 -99 -147c-34 -20 -71 -32 -110 -32c-61 0 -116 33 -116 99c0 71 51 119 98 147c34 20 71 32 110 32z" fill="currentColor"/>
</g>
</svg>
